<?xml version="1.0" standalone="no"?>
<!DOCTYPE svg PUBLIC "-//W3C//DTD SVG 20010904//EN"
 "http://www.w3.org/TR/2001/REC-SVG-20010904/DTD/svg10.dtd">
<svg version="1.0" xmlns="http://www.w3.org/2000/svg"
 width="260.000000pt" height="260.000000pt" viewBox="0 0 260.000000 260.000000"
 preserveAspectRatio="xMidYMid meet">
<metadata>
Created by potrace 1.11, written by Peter Selinger 2001-2013
</metadata>
<g transform="translate(0.000000,260.000000) scale(0.100000,-0.100000)"
fill="#000000" stroke="none">
<path d="M300 1730 c0 -5 -3 -9 -7 -8 -20 5 -80 -45 -93 -77 -8 -19 -18 -35
-22 -35 -5 0 -7 -4 -3 -9 3 -5 1 -12 -5 -16 -14 -9 -13 -322 1 -330 6 -4 8
-13 5 -21 -3 -8 -1 -14 4 -14 6 0 10 -6 10 -13 0 -14 51 -67 64 -67 5 0 14 -7
21 -17 7 -9 26 -16 44 -16 17 0 31 -4 31 -9 0 -11 107 -10 114 1 4 5 17 8 31
6 17 -1 31 5 40 18 8 12 17 18 21 15 7 -7 33 19 52 50 38 67 -16 103 -73 48
-36 -34 -80 -58 -89 -48 -4 3 -11 0 -16 -8 -7 -11 -14 -12 -32 -3 -13 6 -40
14 -60 18 -26 4 -39 12 -44 28 -4 12 -16 30 -26 39 -11 9 -17 22 -13 29 4 6 2
15 -4 19 -7 4 -12 29 -11 61 0 30 1 74 1 99 1 25 6 51 11 58 6 7 8 15 4 19 -3
3 1 15 11 25 9 10 13 18 9 18 -4 0 7 12 25 28 18 15 37 26 41 25 4 -2 8 2 8 7
0 6 28 10 64 10 48 0 65 -4 70 -15 3 -8 12 -15 20 -15 9 0 23 -11 32 -25 31
-48 93 -23 79 32 -4 16 -7 30 -8 33 -1 7 -36 31 -74 53 -24 13 -55 17 -132 17
-61 0 -101 -4 -101 -10z"/>
<path d="M870 1730 c0 -5 -3 -9 -7 -8 -13 3 -67 -29 -83 -49 -23 -28 -50 -91
-50 -117 0 -12 -3 -26 -7 -30 -12 -11 -11 -629 0 -643 12 -17 52 -17 64 0 5 6
9 69 8 140 0 70 2 127 6 127 3 0 16 -9 29 -20 13 -11 29 -21 37 -21 27 -3 31
-4 39 -12 11 -11 122 -8 129 4 4 6 13 8 20 5 7 -2 18 1 24 7 7 7 15 12 19 12
28 2 86 50 77 65 -3 5 -3 10 2 10 7 0 15 15 38 75 11 26 13 275 3 281 -5 3 -8
14 -8 25 0 10 -6 29 -12 41 -15 25 -98 111 -98 101 0 -4 -5 -2 -12 5 -15 15
-218 17 -218 2z m168 -82 c7 -7 12 -9 12 -5 0 13 55 -47 67 -73 31 -67 38
-193 15 -250 -5 -14 -8 -28 -5 -32 2 -5 -1 -8 -6 -8 -6 0 -11 -6 -11 -13 0
-24 -67 -79 -100 -83 -17 -2 -35 -6 -40 -9 -5 -3 -11 -1 -14 4 -4 5 -14 8 -23
7 -10 -2 -22 1 -28 6 -5 4 -26 21 -45 36 -21 16 -34 34 -32 44 2 9 -2 19 -7
23 -6 3 -11 24 -11 45 0 21 -4 41 -9 44 -9 6 -8 21 7 111 13 75 61 163 83 149
4 -2 10 0 14 6 9 14 118 13 133 -2z"/>
<path d="M1490 1729 c0 -6 -5 -9 -12 -7 -25 9 -122 -110 -112 -137 3 -7 1 -16
-5 -20 -7 -4 -11 -58 -11 -146 0 -134 1 -142 29 -197 25 -50 71 -107 71 -88 0
3 12 -1 27 -11 15 -10 35 -16 45 -15 10 2 18 -2 18 -7 0 -7 26 -11 65 -11 36
0 65 4 65 9 0 4 8 8 18 7 28 -1 82 22 88 38 3 9 10 13 15 10 12 -7 31 13 46
49 11 24 10 30 -7 47 -25 25 -31 25 -63 -2 -63 -56 -73 -61 -129 -61 -10 0
-18 -4 -18 -8 0 -5 -7 -9 -15 -9 -8 0 -15 4 -15 9 0 4 -12 8 -27 7 -34 -1
-126 85 -117 109 4 8 1 15 -5 15 -6 0 -11 17 -11 40 l0 40 83 1 c45 0 134 0
197 0 104 -1 143 5 141 23 0 3 2 13 6 22 3 9 2 29 -4 44 -6 15 -9 44 -8 64 1
20 -2 36 -7 36 -4 0 -8 10 -8 21 0 12 -7 27 -14 33 -8 6 -16 18 -18 26 -3 16
-27 36 -75 63 -24 13 -55 17 -132 17 -66 0 -101 -4 -101 -11z m180 -81 c0 -6
3 -8 7 -5 9 9 53 -33 53 -50 0 -7 5 -13 12 -13 6 0 9 -3 6 -6 -4 -3 -1 -16 6
-29 7 -13 12 -35 11 -47 -2 -23 -2 -23 -169 -25 l-168 -1 6 36 c4 21 7 45 8
55 1 9 6 17 10 17 4 0 8 6 8 13 0 7 11 23 25 35 14 12 25 19 25 15 0 -4 5 -2
12 5 16 16 148 16 148 0z"/>
<path d="M1924 1698 c1 -24 8 -56 14 -71 7 -16 12 -33 12 -38 0 -12 22 -52 33
-60 4 -3 7 -10 6 -15 -4 -15 13 -67 27 -89 8 -11 14 -30 14 -42 0 -13 4 -23 9
-23 5 0 12 -12 17 -27 10 -37 11 -40 41 -118 33 -84 44 -105 58 -106 55 -5 61
-3 71 21 19 39 27 64 30 80 1 8 12 38 25 65 13 28 24 52 24 55 4 12 17 46 24
60 4 8 7 23 5 33 -1 9 2 17 7 17 5 0 9 7 9 15 0 8 5 15 11 15 6 0 9 7 5 15 -3
8 1 20 8 27 7 7 11 20 8 30 -2 10 1 18 8 18 7 0 10 6 7 14 -3 8 1 20 8 26 8 7
13 16 10 20 -3 5 -1 11 5 15 5 3 10 29 10 56 l0 50 -31 -3 c-31 -3 -36 -7 -57
-58 -31 -71 -41 -103 -37 -110 3 -4 -2 -13 -10 -20 -8 -7 -12 -16 -9 -21 3 -5
0 -9 -5 -9 -6 0 -11 -11 -11 -25 0 -14 -5 -25 -11 -25 -6 0 -8 -7 -5 -15 5
-14 -8 -49 -24 -65 -3 -3 -7 -14 -8 -25 -2 -11 -7 -21 -12 -23 -4 -2 -6 -12
-3 -22 3 -11 0 -20 -6 -20 -6 0 -11 -9 -11 -21 0 -18 -2 -19 -15 -5 -8 8 -15
24 -15 35 0 12 -5 21 -11 21 -6 0 -9 7 -5 15 3 8 1 15 -4 15 -6 0 -10 11 -10
25 0 14 -5 25 -11 25 -6 0 -9 6 -6 14 3 7 -1 23 -8 34 -8 10 -11 22 -8 26 3 3
1 6 -5 6 -7 0 -12 7 -12 15 0 13 -20 65 -41 107 -5 10 -9 23 -9 29 0 7 -10 31
-22 55 -19 39 -26 44 -54 44 -33 0 -33 -1 -30 -42z"/>
</g>
</svg>
