<?xml version="1.0" standalone="no"?>
<!DOCTYPE svg PUBLIC "-//W3C//DTD SVG 20010904//EN"
 "http://www.w3.org/TR/2001/REC-SVG-20010904/DTD/svg10.dtd">
<svg version="1.0" xmlns="http://www.w3.org/2000/svg"
 width="1244.000000pt" height="1244.000000pt" viewBox="0 0 1244.000000 1244.000000"
 preserveAspectRatio="xMidYMid meet">
<metadata>
Created by potrace 1.11, written by Peter Selinger 2001-2013
</metadata>
<g transform="translate(0.000000,1244.000000) scale(0.100000,-0.100000)"
fill="#000000" stroke="none">
<path d="M8826 7533 c-16 -8 -31 -24 -33 -34 -3 -11 -12 -19 -19 -19 -8 0 -14
-5 -14 -11 0 -5 6 -7 13 -4 6 4 3 -1 -7 -9 -11 -9 -16 -16 -12 -16 5 0 2 -8
-5 -17 -8 -9 -9 -14 -3 -10 8 4 11 -2 10 -17 0 -13 -5 -22 -9 -19 -5 3 -4 -4
2 -15 8 -15 8 -22 -2 -25 -9 -4 -9 -6 1 -6 6 -1 12 -6 12 -12 0 -5 -4 -8 -9
-4 -10 6 -7 -27 4 -45 3 -6 0 -10 -7 -10 -10 0 -10 -2 -1 -8 8 -5 9 -13 3 -22
-5 -8 -5 -21 1 -32 7 -13 6 -18 -3 -18 -10 0 -10 -2 1 -9 11 -7 10 -11 -5 -21
-14 -8 -15 -10 -2 -6 11 3 15 -1 13 -12 -1 -9 -9 -16 -16 -14 -9 2 -7 -3 4
-16 14 -15 15 -21 5 -25 -10 -4 -10 -6 0 -6 6 -1 12 -6 12 -12 0 -5 -4 -7 -10
-4 -7 4 -7 -3 0 -19 5 -14 6 -26 2 -26 -4 0 -8 -9 -8 -19 0 -11 3 -18 6 -16 3
2 5 -23 5 -55 0 -32 -3 -56 -8 -53 -4 2 -4 9 -1 15 5 7 2 8 -5 4 -9 -6 -9 -12
3 -25 18 -19 21 -36 7 -26 -10 6 -7 -27 4 -45 3 -6 0 -10 -7 -10 -10 0 -10 -2
-1 -8 8 -5 9 -13 3 -22 -5 -8 -5 -21 1 -31 6 -12 5 -19 -4 -22 -9 -4 -9 -6 1
-6 6 -1 12 -6 12 -12 0 -5 -3 -8 -7 -6 -5 3 -8 -5 -8 -18 0 -13 3 -21 8 -18 4
2 7 -1 7 -6 0 -6 -5 -11 -11 -11 -8 0 -7 -6 2 -17 8 -9 9 -14 3 -10 -6 3 -11
0 -11 -8 0 -8 4 -12 7 -10 10 6 4 -80 -6 -96 -4 -8 -3 -9 4 -5 7 4 12 2 12 -3
0 -6 -3 -11 -7 -11 -5 0 -8 -11 -8 -24 0 -13 3 -22 6 -20 8 5 5 -63 -3 -72 -4
-4 -3 -15 3 -25 7 -14 6 -19 -3 -19 -10 0 -10 -2 -1 -8 8 -5 9 -13 3 -22 -5
-8 -5 -21 1 -32 7 -13 6 -18 -3 -18 -10 0 -10 -2 1 -9 11 -7 10 -11 -5 -21
-14 -8 -15 -10 -2 -6 11 3 15 -1 13 -12 -1 -9 -9 -16 -16 -14 -9 2 -7 -3 4
-16 14 -15 15 -21 5 -25 -10 -4 -10 -6 0 -6 6 -1 12 -6 12 -12 0 -5 -4 -7 -10
-4 -7 4 -7 -3 0 -19 5 -14 6 -26 2 -26 -4 0 -8 -9 -8 -19 0 -11 3 -18 6 -16 3
2 5 -23 5 -55 0 -32 -3 -56 -8 -53 -4 2 -4 9 -1 15 5 7 2 8 -5 4 -9 -6 -9 -12
3 -25 18 -19 21 -36 7 -26 -10 6 -7 -27 4 -45 3 -6 0 -10 -7 -10 -10 0 -10 -2
-1 -8 8 -5 9 -13 3 -22 -5 -8 -5 -21 1 -31 6 -12 5 -19 -4 -22 -9 -4 -9 -6 1
-6 6 -1 12 -6 12 -12 0 -5 -3 -8 -7 -6 -5 3 -8 -5 -8 -18 0 -13 3 -21 8 -18 4
2 7 -1 7 -6 0 -6 -5 -11 -11 -11 -8 0 -7 -6 2 -17 8 -9 9 -14 3 -10 -6 3 -11
0 -11 -8 0 -8 4 -12 7 -10 10 6 4 -80 -6 -96 -4 -8 -3 -9 4 -5 7 4 12 2 12 -3
0 -6 -3 -11 -7 -11 -5 0 -8 -11 -8 -24 0 -13 3 -22 6 -20 8 5 5 -63 -3 -72 -4
-4 -3 -15 3 -25 7 -14 6 -19 -3 -19 -10 0 -10 -2 -1 -8 8 -5 9 -13 3 -22 -5
-8 -5 -21 1 -31 6 -12 5 -19 -4 -22 -8 -4 -8 -6 2 -6 11 -1 10 -6 -5 -23 -10
-13 -12 -17 -3 -11 13 10 15 8 15 -12 0 -20 -2 -22 -15 -12 -10 7 -9 4 2 -10
14 -16 15 -22 5 -26 -10 -4 -10 -6 0 -6 6 -1 12 -6 12 -12 0 -5 -4 -7 -10 -4
-7 4 -7 -3 0 -19 6 -17 6 -26 0 -26 -6 0 -10 -5 -10 -11 0 -5 6 -7 13 -3 7 5
7 2 -2 -10 -12 -15 -12 -17 0 -14 9 2 13 -5 12 -19 -2 -14 2 -22 10 -20 6 1
12 -7 12 -18 0 -13 6 -19 18 -17 11 2 15 -2 11 -13 -5 -11 -2 -14 11 -9 9 4
20 1 25 -6 7 -11 27 -13 103 -10 10 1 15 6 11 12 -5 7 -1 9 9 5 10 -4 17 -2
17 4 0 6 7 8 16 5 8 -3 12 -2 9 4 -3 6 -1 10 5 10 6 0 8 5 5 10 -3 6 2 10 12
10 15 0 16 2 3 10 -12 7 -12 10 -1 10 8 0 11 6 7 16 -3 8 -2 12 3 9 5 -3 12
-1 16 5 3 5 1 10 -5 10 -6 0 -8 5 -5 10 4 6 10 8 15 5 5 -3 12 -1 15 5 4 6 1
9 -7 8 -7 -2 -13 6 -13 17 -1 11 -7 19 -14 17 -7 -1 -10 2 -6 8 3 6 11 8 16 5
5 -4 9 -1 9 4 0 6 -6 11 -12 11 -9 0 -8 4 2 10 12 8 12 10 1 10 -11 0 -11 3 0
17 12 15 12 16 -4 10 -13 -5 -16 -3 -10 6 4 6 9 23 9 37 3 40 3 42 17 34 8 -5
8 -3 -2 9 -7 9 -18 14 -25 10 -6 -3 -3 3 7 14 9 11 14 23 10 27 -9 9 -13 37
-5 32 4 -2 8 7 8 20 1 16 -4 24 -15 25 -12 0 -12 2 4 9 13 6 15 9 5 9 -13 1
-13 2 0 11 10 6 11 10 3 10 -7 0 -13 5 -13 11 0 5 4 8 9 5 4 -3 6 7 4 22 -12
77 -11 93 3 81 22 -18 16 -2 -7 20 -15 14 -17 21 -8 26 8 6 10 4 4 -6 -7 -12
-5 -12 6 -1 12 11 12 14 0 21 -11 7 -11 9 0 14 12 5 12 6 0 6 -11 1 -11 4 0
18 12 15 12 16 -4 10 -13 -5 -16 -3 -10 6 4 6 9 23 9 37 3 40 3 42 17 34 8 -5
8 -3 -2 9 -7 9 -18 14 -25 10 -6 -3 -3 3 7 14 9 11 14 23 10 27 -9 9 -13 37
-5 32 4 -2 8 7 8 20 1 16 -4 24 -15 25 -12 0 -12 2 4 9 13 6 15 9 5 9 -13 1
-13 2 0 11 10 6 11 10 3 10 -7 0 -13 5 -13 11 0 5 4 8 9 5 9 -6 6 42 -3 51 -3
4 0 13 7 21 9 13 9 14 0 8 -7 -4 -13 -3 -13 3 0 5 4 12 10 16 5 3 6 13 3 22
-5 12 -3 14 8 8 12 -8 12 -6 0 8 -7 9 -18 14 -25 10 -6 -3 -3 3 7 14 9 11 14
23 10 27 -9 9 -13 37 -5 32 4 -2 8 7 8 20 1 16 -4 24 -15 25 -12 0 -12 2 4 9
13 6 15 9 5 9 -13 1 -13 2 0 11 10 6 11 10 3 10 -7 0 -13 5 -13 11 0 5 4 8 9
5 4 -3 6 7 4 22 -12 77 -11 93 3 81 22 -18 16 -2 -7 20 -15 14 -17 21 -8 26 8
6 10 4 4 -6 -7 -12 -5 -12 6 -1 12 11 12 14 0 21 -11 7 -11 9 0 14 12 5 12 6
0 6 -11 1 -11 4 0 18 12 15 12 16 -4 10 -13 -5 -16 -3 -10 6 4 6 9 23 9 37 3
40 3 42 17 34 8 -5 8 -3 -2 9 -7 9 -18 14 -25 10 -6 -3 -3 3 7 14 9 11 14 23
10 27 -9 9 -13 37 -5 32 4 -2 8 7 8 20 1 16 -4 24 -15 25 -12 0 -12 2 4 9 13
6 15 9 5 9 -13 1 -13 2 0 11 10 6 11 10 3 10 -7 0 -13 5 -13 11 0 5 4 8 9 5 4
-3 6 7 4 22 -12 77 -11 93 3 81 22 -18 16 -2 -7 20 -15 14 -17 21 -8 26 8 6
10 4 4 -6 -7 -12 -5 -12 6 -1 12 11 12 14 0 21 -11 7 -11 9 0 14 12 5 12 6 0
6 -11 1 -11 4 0 18 12 15 12 16 -4 10 -13 -5 -16 -3 -10 6 4 6 9 23 9 37 3 40
3 42 17 34 8 -5 8 -3 -2 9 -7 9 -18 14 -25 10 -6 -3 -3 3 7 14 9 11 14 23 10
27 -9 9 -13 37 -5 32 4 -2 8 7 8 20 1 16 -4 24 -15 25 -12 0 -12 2 4 9 13 6
15 9 5 9 -13 1 -13 2 0 11 10 6 11 10 3 10 -7 0 -13 5 -13 11 0 5 4 8 9 5 9
-6 6 42 -3 51 -3 4 0 13 7 21 9 13 9 14 0 8 -7 -4 -13 -3 -13 3 0 5 4 12 10
16 5 3 6 13 3 22 -5 12 -3 14 8 8 12 -8 12 -6 0 8 -7 9 -18 14 -25 10 -6 -4
-4 1 4 11 20 25 21 46 2 46 -13 0 -14 2 -4 9 20 12 19 19 -6 36 -12 9 -20 21
-17 26 4 5 -1 9 -10 9 -9 0 -14 4 -11 9 3 4 -6 13 -20 20 -20 9 -24 9 -18 -1
6 -10 4 -11 -7 0 -18 16 -97 13 -133 -5z"/>
<path d="M523 7517 c-3 -5 -11 -6 -19 -3 -8 3 -13 2 -13 -2 3 -17 -1 -35 -7
-29 -9 8 -44 -25 -44 -43 0 -13 -1 -13 -10 0 -5 8 -10 10 -10 5 0 -6 5 -16 11
-22 8 -8 8 -13 0 -17 -8 -5 -11 -344 -11 -1172 0 -1177 0 -1191 33 -1215 5 -3
8 -10 7 -15 -1 -5 7 -13 17 -19 10 -5 20 -12 23 -15 3 -3 12 -5 20 -5 23 2 34
-7 20 -15 -7 -4 4 -7 23 -6 19 0 33 5 29 10 -3 5 2 7 11 3 8 -3 32 3 51 13 22
11 31 20 24 23 -8 3 -6 6 5 6 9 1 17 6 17 12 0 5 6 7 13 3 7 -5 6 0 -3 11 -9
11 -10 16 -2 11 8 -5 12 0 12 13 0 12 6 21 13 21 8 0 7 4 -3 10 -11 7 -11 10
-2 10 10 0 10 5 1 21 -6 12 -7 19 -2 16 10 -6 10 133 0 151 -5 7 -3 12 3 12 8
0 7 6 -1 21 -6 13 -7 19 -1 15 11 -7 11 12 -1 32 -5 6 -4 12 0 12 11 0 10 50
0 68 -5 7 -3 12 3 12 8 0 7 6 -1 21 -6 13 -7 19 -1 15 11 -7 11 12 -1 32 -5 6
-5 12 0 12 10 0 9 112 -1 128 -4 7 -3 12 2 12 10 0 9 30 -2 48 -4 7 -2 12 4
12 8 0 7 6 -1 21 -6 12 -7 19 -2 16 10 -6 9 94 -1 120 -3 8 -1 11 4 8 6 -3 10
1 10 9 0 8 -5 18 -11 22 -8 4 -7 9 2 15 8 5 9 9 3 9 -6 0 -11 7 -11 15 0 8 4
12 9 9 4 -3 8 2 8 11 0 9 -4 13 -10 10 -5 -3 -10 -1 -10 4 0 6 5 11 10 11 6 0
10 4 10 10 0 5 -4 9 -9 7 -5 -1 -9 3 -10 8 -1 6 5 10 12 10 6 1 11 6 10 13 -4
16 2 15 21 -4 9 -8 16 -11 16 -5 0 6 7 7 17 4 12 -5 14 -3 8 8 -7 11 -6 12 6
4 16 -12 39 -13 56 -2 7 4 16 0 22 -10 10 -17 10 -17 11 2 1 11 4 14 7 8 2 -7
9 -13 14 -13 6 0 7 5 3 12 -5 7 -3 8 7 2 18 -11 41 -12 56 -1 7 5 15 1 22 -10
10 -17 10 -17 11 2 1 11 4 14 7 8 2 -7 9 -13 14 -13 6 0 7 5 3 12 -5 7 -3 8 7
3 19 -13 49 -13 56 -2 3 5 14 -1 24 -14 l18 -24 -5 25 c-2 14 -2 19 2 13 3 -7
10 -13 15 -13 6 0 7 6 3 13 -6 9 -4 9 7 2 16 -12 39 -13 56 -2 6 4 15 2 19 -4
5 -8 3 -9 -6 -4 -9 5 -11 4 -6 -4 4 -6 13 -8 19 -4 7 4 19 8 27 8 8 0 20 4 27
8 7 4 16 0 22 -10 10 -17 10 -17 11 2 1 11 4 14 7 8 2 -7 9 -13 14 -13 6 0 7
6 3 13 -6 9 -4 9 7 2 16 -12 39 -13 56 -2 7 4 16 0 22 -10 10 -17 10 -17 11 2
1 11 4 14 7 8 2 -7 9 -13 14 -13 6 0 7 6 3 13 -6 9 -4 9 7 2 17 -12 39 -13 58
-1 10 6 12 5 7 -3 -9 -14 25 -12 35 2 3 4 18 3 32 -2 19 -7 27 -7 27 0 0 6 9
8 20 4 10 -3 29 -1 41 5 15 8 19 9 15 1 -4 -6 -3 -11 3 -11 5 0 12 6 14 13 4
8 6 8 6 -2 1 -11 5 -10 17 5 15 19 16 19 9 0 -6 -19 -5 -19 13 -3 10 9 29 17
41 17 12 0 35 7 50 15 16 8 31 11 35 8 3 -4 6 0 6 8 0 11 2 11 10 -1 7 -11 10
-11 10 -2 0 7 4 10 10 7 6 -3 7 1 4 10 -5 13 -1 15 20 11 15 -3 24 -1 21 4 -3
5 -1 11 5 15 5 3 10 0 10 -7 1 -7 7 -2 14 11 10 18 15 20 19 10 4 -10 6 -8 6
5 1 11 6 16 15 13 9 -4 16 2 19 15 4 13 11 19 20 15 9 -3 19 4 26 19 10 22 22
29 44 25 5 -1 6 3 2 9 -3 5 0 10 7 10 9 0 9 3 -2 10 -12 8 -12 10 -1 10 19 0
52 40 44 53 -3 6 -1 7 5 3 7 -4 12 -2 12 4 0 6 5 8 11 4 7 -4 7 1 -1 16 -8 15
-8 20 -1 16 6 -4 11 -2 11 4 0 6 4 8 10 5 5 -3 7 0 4 8 -3 8 -1 18 5 22 6 3
11 11 11 16 0 6 -5 7 -12 3 -7 -4 -8 -3 -4 5 4 6 12 9 17 6 5 -4 9 9 9 27 0
26 3 30 11 18 9 -12 10 -10 6 8 -4 18 -2 22 9 18 9 -4 12 -2 8 5 -11 18 -11
67 1 63 6 -3 11 5 12 16 1 11 -2 18 -7 15 -6 -3 -7 1 -4 9 3 9 10 14 14 11 9
-6 8 15 -3 31 -3 6 -3 14 0 18 4 4 9 19 10 34 3 21 1 24 -7 12 -6 -9 -10 -10
-10 -3 0 6 4 14 8 17 5 3 8 18 7 33 -1 15 3 34 9 42 8 11 8 13 0 8 -7 -4 -15
0 -18 9 -9 24 -7 31 4 14 8 -12 9 -10 7 7 -2 12 -6 26 -10 29 -12 12 -8 46 5
38 7 -5 8 -3 4 5 -5 7 -14 10 -21 7 -10 -3 -12 3 -9 21 3 15 0 30 -8 34 -10 7
-10 9 0 9 6 0 12 5 12 11 0 5 -4 7 -10 4 -5 -3 -10 3 -10 14 0 12 -4 21 -10
21 -5 0 -7 7 -4 15 4 8 1 15 -6 15 -6 0 -8 5 -5 10 3 6 1 10 -5 10 -6 0 -8 5
-5 10 3 6 2 10 -3 10 -16 0 -24 33 -10 43 10 7 9 8 -2 4 -8 -2 -21 2 -28 9 -7
8 -9 14 -5 14 4 0 0 5 -9 11 -10 5 -18 15 -18 20 0 6 -7 17 -15 26 -8 8 -13
18 -10 23 3 4 -5 6 -17 2 -15 -4 -19 -2 -14 7 5 8 0 14 -13 18 -11 3 -23 14
-26 24 -4 10 -13 19 -21 19 -8 0 -14 5 -14 10 0 6 -9 10 -21 10 -11 0 -17 5
-14 10 3 6 -3 10 -15 10 -12 0 -18 4 -15 11 4 6 0 9 -11 7 -13 -2 -18 2 -16
12 3 12 1 12 -9 3 -9 -9 -15 -8 -27 3 -8 8 -21 13 -28 10 -8 -3 -14 -2 -14 2
0 4 -11 12 -25 19 -19 8 -23 8 -18 0 8 -13 -28 12 -39 28 -5 6 -8 5 -8 -2 0
-19 -37 -16 -44 3 -5 13 -9 14 -21 4 -8 -7 -15 -8 -15 -3 0 5 -16 8 -35 7 -20
-2 -33 0 -31 5 3 4 -1 8 -9 8 -8 0 -11 -5 -8 -11 3 -6 0 -5 -8 2 -15 14 -33
17 -25 4 3 -5 -1 -9 -9 -9 -8 0 -15 4 -15 9 0 4 -5 8 -11 8 -5 0 -7 -6 -3 -12
6 -10 4 -10 -8 0 -13 10 -17 10 -21 0 -4 -10 -6 -10 -6 1 -1 11 -4 11 -16 1
-12 -10 -15 -10 -15 1 0 11 -2 11 -10 -1 -7 -11 -10 -11 -10 -2 0 8 -5 10 -12
5 -19 -11 -39 -13 -32 -2 3 5 1 9 -5 9 -5 0 -12 -6 -14 -12 -4 -10 -6 -9 -6 1
-1 11 -4 11 -16 1 -12 -10 -15 -10 -15 1 0 11 -2 11 -10 -1 -7 -11 -10 -11
-10 -2 0 8 -5 10 -12 5 -19 -11 -37 -12 -44 -2 -3 5 -10 9 -15 9 -6 0 -8 -4
-5 -8 3 -5 -1 -9 -9 -9 -8 0 -15 4 -15 9 0 4 -5 8 -11 8 -5 0 -7 -6 -3 -12 6
-10 4 -10 -8 0 -13 10 -17 10 -21 0 -4 -10 -6 -10 -6 1 -1 11 -4 11 -16 1 -12
-10 -15 -10 -15 1 0 11 -2 11 -10 -1 -7 -11 -10 -11 -10 -2 0 8 -5 10 -12 5
-19 -11 -39 -13 -32 -2 3 5 1 9 -5 9 -5 0 -12 -6 -14 -12 -4 -10 -6 -9 -6 1
-1 11 -4 11 -16 1 -12 -10 -15 -10 -15 1 0 11 -2 11 -10 -1 -7 -11 -10 -11
-10 -2 0 8 -5 10 -12 5 -19 -11 -37 -12 -44 -2 -3 5 -10 9 -15 9 -6 0 -8 -4
-5 -8 3 -5 -1 -9 -9 -9 -8 0 -15 4 -15 9 0 4 -5 8 -11 8 -5 0 -7 -6 -3 -12 6
-10 4 -10 -8 0 -13 10 -17 10 -21 0 -4 -10 -6 -10 -6 1 -1 11 -4 11 -16 1 -12
-10 -15 -10 -15 1 0 11 -2 11 -10 -1 -7 -11 -10 -11 -10 -2 0 8 -5 10 -12 5
-19 -11 -39 -13 -32 -2 3 5 1 9 -5 9 -5 0 -12 -6 -14 -12 -4 -10 -6 -9 -6 1
-1 11 -4 11 -16 1 -12 -10 -15 -10 -15 1 0 11 -2 11 -10 -1 -7 -11 -10 -11
-10 -2 0 8 -5 10 -12 5 -19 -11 -37 -12 -44 -2 -3 5 -10 9 -15 9 -6 0 -8 -4
-5 -8 3 -5 -1 -9 -9 -9 -8 0 -15 4 -15 9 0 4 -5 8 -11 8 -5 0 -7 -6 -3 -12 5
-9 2 -9 -9 1 -14 11 -17 11 -17 0 0 -10 -2 -11 -8 -2 -8 13 -51 13 -59 0z
m285 -290 c7 3 19 0 26 -7 11 -8 16 -8 22 1 4 8 3 9 -4 5 -7 -4 -12 -2 -12 3
0 13 2 13 34 1 14 -5 26 -6 26 -2 0 10 82 2 97 -10 7 -6 14 -5 19 3 4 8 3 9
-4 5 -7 -4 -12 -2 -12 3 0 13 2 13 34 1 14 -5 26 -6 26 -2 0 10 82 2 97 -10 7
-6 14 -5 19 3 4 8 3 9 -4 5 -7 -4 -12 -2 -12 3 0 13 2 13 34 1 14 -5 26 -6 26
-2 0 10 82 2 97 -10 7 -6 14 -5 19 3 4 8 3 9 -4 5 -7 -4 -12 -2 -12 3 0 13 2
13 34 1 14 -5 26 -6 26 -2 0 10 82 2 97 -10 7 -6 14 -5 19 3 4 8 3 9 -4 5 -7
-4 -12 -2 -12 3 0 13 2 13 34 1 14 -5 26 -6 26 -2 0 11 82 2 98 -11 9 -7 11
-6 6 6 -4 12 -1 14 18 10 13 -3 29 -11 37 -17 11 -8 13 -8 7 2 -4 7 -1 12 9
12 9 0 14 -4 11 -9 -3 -5 6 -8 21 -8 14 0 30 -7 34 -16 6 -9 17 -13 29 -10 11
3 20 1 20 -3 0 -5 14 -15 31 -23 23 -10 28 -16 18 -22 -10 -6 -5 -9 16 -9 23
0 27 -3 15 -10 -13 -9 -13 -10 0 -11 8 -1 19 0 25 1 5 1 7 -2 3 -5 -4 -4 4
-17 18 -27 21 -17 23 -23 12 -36 -10 -12 -10 -14 0 -8 7 4 12 2 12 -4 0 -6 4
-9 9 -6 5 4 8 -2 7 -11 -2 -10 3 -24 11 -32 8 -7 12 -20 9 -27 -3 -8 3 -18 14
-24 15 -8 17 -15 11 -33 -6 -15 -4 -26 8 -35 9 -7 10 -11 4 -7 -8 4 -13 0 -13
-10 0 -10 5 -13 12 -9 6 4 4 -3 -5 -15 -16 -24 -13 -56 6 -44 6 4 7 1 1 -8 -5
-8 -9 -30 -10 -49 -1 -19 -3 -37 -4 -40 -1 -3 -2 -8 -1 -12 0 -5 -4 -8 -10 -8
-6 0 -9 -9 -6 -20 3 -11 1 -18 -4 -14 -5 3 -9 3 -9 0 0 -2 -3 -13 -6 -23 -5
-15 -4 -16 6 -3 10 13 11 13 6 0 -3 -8 -9 -23 -12 -32 -3 -10 -14 -20 -23 -23
-9 -3 -25 -18 -34 -34 -25 -43 -72 -88 -87 -83 -7 3 -10 1 -7 -4 2 -5 -1 -14
-8 -21 -11 -10 -15 -10 -18 0 -3 7 -6 4 -6 -6 -1 -10 -5 -16 -10 -12 -5 3 -12
1 -16 -5 -3 -5 -15 -10 -26 -10 -11 0 -17 -5 -14 -10 4 -6 1 -9 -7 -8 -7 2
-16 10 -20 18 -5 12 -7 11 -7 -4 -1 -12 -6 -16 -16 -12 -8 3 -15 1 -15 -4 0
-6 -5 -10 -11 -10 -5 0 -8 4 -5 8 7 11 -31 8 -41 -3 -5 -4 -2 -5 5 -1 6 4 12
2 12 -3 0 -13 -17 -14 -24 -2 -6 9 -48 7 -65 -3 -5 -4 -12 -2 -16 4 -3 5 -20
8 -36 5 -23 -4 -29 -2 -24 7 4 7 -1 4 -9 -6 -9 -11 -16 -14 -16 -8 0 12 -39
10 -59 -2 -5 -4 -12 -2 -16 4 -3 5 -20 8 -36 5 -23 -4 -29 -2 -24 7 4 7 -1 4
-9 -6 -9 -11 -16 -14 -16 -8 0 12 -39 10 -59 -2 -5 -4 -12 -2 -16 4 -3 5 -20
8 -36 5 -23 -4 -29 -2 -24 7 4 7 -1 4 -9 -6 -9 -11 -16 -14 -16 -8 0 12 -39
10 -59 -2 -5 -4 -12 -2 -16 4 -3 5 -20 8 -36 5 -23 -4 -29 -2 -24 7 4 7 0 5
-8 -5 -11 -13 -16 -15 -19 -5 -4 10 -9 10 -23 -2 -10 -8 -16 -10 -12 -4 4 7 0
15 -9 18 -10 4 -13 2 -8 -6 5 -7 2 -9 -8 -5 -9 3 -21 0 -28 -6 -10 -9 -11 -9
-6 1 4 6 3 12 -1 12 -5 0 -15 -6 -22 -12 -12 -11 -13 -10 -7 6 7 20 7 20 -15
0 -12 -10 -19 -14 -16 -8 4 7 0 15 -9 18 -10 4 -13 2 -8 -6 5 -7 2 -9 -8 -5
-9 3 -21 0 -28 -6 -10 -9 -11 -9 -5 2 6 10 2 11 -15 6 -15 -5 -20 -4 -16 4 4
6 1 11 -6 12 -10 0 -10 2 1 6 11 5 11 7 0 14 -11 7 -11 9 -1 9 10 0 10 5 1 21
-6 12 -7 19 -2 16 5 -3 9 5 9 18 0 13 -4 21 -8 19 -5 -3 -5 -10 -2 -16 4 -7 2
-8 -4 -4 -12 7 -5 36 9 36 6 0 5 8 -1 19 -12 23 -13 34 -2 28 4 -3 7 5 7 18 0
13 -3 21 -7 18 -5 -2 -8 1 -8 6 0 6 4 11 8 11 4 0 8 11 8 24 0 14 -4 22 -8 20
-5 -3 -5 -10 -2 -16 4 -7 2 -8 -4 -4 -13 8 -5 36 10 36 5 0 6 5 2 12 -9 14 -9
96 0 105 3 3 1 12 -5 20 -9 9 -8 13 0 13 9 0 9 5 0 21 -9 17 -8 20 3 13 11 -6
11 -5 -1 9 -9 12 -10 17 -2 17 9 0 9 5 0 21 -6 12 -7 19 -1 15 6 -3 8 8 5 32
-8 77 -9 91 -2 86 9 -5 6 17 -4 34 -5 7 -3 12 3 12 7 0 8 6 0 19 -7 14 -7 22
0 26 8 5 7 11 -1 21 -8 10 -8 14 -1 14 6 0 10 6 8 13 -3 6 -7 26 -10 42 -5 23
-4 26 4 15 9 -13 11 -12 9 5 -2 32 0 34 29 26 15 -4 33 -6 40 -4z m-81 -312
c0 -8 -4 -12 -9 -9 -5 3 -6 10 -3 15 9 13 12 11 12 -6z m1224 -428 c-10 -9
-11 -8 -5 6 3 10 9 15 12 12 3 -3 0 -11 -7 -18z m-1224 -692 c0 -8 -4 -12 -9
-9 -5 3 -6 10 -3 15 9 13 12 11 12 -6z m0 -640 c0 -8 -4 -12 -9 -9 -5 3 -6 10
-3 15 9 13 12 11 12 -6z"/>
<path d="M1940 7076 c0 -2 8 -10 18 -17 15 -13 16 -12 3 4 -13 16 -21 21 -21
13z"/>
<path d="M6300 7520 c-1 -8 -2 -18 -1 -22 1 -8 -20 -5 -36 5 -7 4 -16 0 -22
-10 -10 -17 -10 -17 -11 2 -1 18 -2 18 -10 -2 -5 -13 -15 -23 -22 -23 -9 0 -9
3 2 10 8 5 11 10 7 10 -5 0 -23 -10 -40 -22 -18 -13 -28 -16 -23 -7 4 7 -1 4
-12 -8 -15 -17 -22 -19 -32 -10 -7 7 -10 8 -8 2 3 -5 0 -15 -7 -22 -11 -10
-15 -10 -18 0 -3 7 -6 4 -6 -6 -1 -11 -6 -15 -13 -11 -6 4 -8 3 -5 -3 3 -5 -9
-25 -28 -43 -19 -19 -35 -30 -35 -24 0 5 -5 1 -11 -9 -5 -9 -7 -22 -4 -28 4
-6 -2 -13 -14 -16 -11 -3 -18 -9 -15 -14 3 -5 -1 -12 -10 -15 -8 -3 -17 -12
-20 -20 -4 -10 -2 -12 6 -8 13 8 3 -11 -21 -40 -9 -11 -10 -16 -3 -12 6 4 12
2 12 -3 0 -6 -5 -11 -11 -11 -7 0 -9 -9 -6 -21 4 -15 2 -19 -9 -15 -8 3 -14
-1 -14 -10 0 -8 4 -13 8 -10 5 3 9 -1 9 -9 0 -8 -5 -11 -10 -8 -5 3 -7 0 -5
-8 3 -8 -1 -29 -8 -47 -7 -18 -9 -30 -5 -27 11 6 9 -15 -3 -34 -6 -10 -5 -12
2 -7 7 4 12 2 12 -3 0 -6 -5 -11 -12 -11 -6 0 -8 -3 -5 -6 3 -4 2 -16 -4 -27
-7 -12 -7 -17 -1 -13 5 3 13 -1 16 -10 3 -8 2 -13 -3 -10 -4 3 -8 -11 -8 -32
-1 -20 -3 -47 -6 -60 -4 -14 -2 -20 4 -16 13 8 7 -29 -6 -38 -6 -5 -5 -8 3 -8
6 0 12 -5 12 -11 0 -5 -6 -7 -12 -3 -10 6 -10 5 -1 -7 19 -23 0 -40 -48 -44
-31 -3 -39 -1 -28 6 13 10 -12 5 -49 -8 -8 -4 -10 1 -6 13 5 15 4 16 -4 4 -10
-14 -86 -24 -77 -10 2 4 -2 7 -10 7 -8 0 -12 -4 -9 -9 3 -4 -2 -8 -11 -8 -9 0
-13 5 -10 11 4 6 -2 5 -13 -2 -11 -7 -18 -18 -15 -25 3 -8 -2 -11 -16 -7 -18
4 -21 1 -21 -23 0 -23 -2 -26 -10 -14 -9 13 -10 13 -11 0 -1 -8 -3 -19 -3 -25
-1 -5 -5 -16 -10 -23 -4 -7 -5 -16 -2 -19 3 -4 6 -1 6 5 0 7 5 12 10 12 6 0 3
-14 -6 -31 -8 -17 -12 -29 -7 -26 5 3 15 2 23 -4 8 -5 10 -9 4 -9 -6 0 -11 -7
-11 -15 0 -8 4 -12 8 -9 12 7 40 -26 33 -38 -4 -6 -2 -8 3 -5 6 4 16 1 22 -7
12 -15 28 -16 49 -3 7 5 12 3 12 -4 0 -8 4 -8 15 1 12 10 15 10 15 -1 0 -12 2
-12 9 -1 4 8 12 14 16 14 4 0 12 -6 16 -14 5 -7 9 -8 9 -2 0 6 7 11 15 11 8 0
15 -5 15 -10 0 -5 6 -4 14 2 11 9 15 9 19 -1 4 -10 6 -10 6 1 1 11 4 11 18 0
14 -12 15 -12 9 0 -6 9 -1 8 16 -3 14 -9 27 -15 29 -14 2 2 -2 -3 -10 -10 -12
-9 -12 -15 -3 -24 14 -14 16 -32 2 -23 -6 3 -7 -1 -4 -9 3 -9 11 -13 16 -10 6
4 2 -6 -8 -22 -11 -15 -14 -25 -8 -21 7 4 14 0 17 -8 4 -9 1 -12 -7 -9 -7 3
-13 -2 -13 -10 0 -8 4 -13 7 -11 8 5 6 -32 -4 -73 -3 -12 -1 -20 4 -17 5 3 8
-4 7 -15 -1 -14 -6 -19 -17 -15 -9 3 -7 -1 5 -11 14 -11 16 -18 8 -21 -7 -3
-13 -9 -13 -14 0 -6 5 -7 10 -4 6 3 10 1 10 -4 0 -6 -6 -11 -12 -11 -9 0 -8
-4 2 -10 13 -9 13 -10 0 -11 -10 0 -8 -3 5 -9 11 -5 14 -9 7 -9 -13 -1 -10
-59 4 -83 6 -10 5 -11 -7 -1 -13 10 -16 10 -16 -2 0 -8 5 -15 10 -15 5 0 4 -7
-3 -15 -10 -12 -10 -15 1 -15 11 0 11 -2 -1 -10 -12 -8 -12 -10 5 -10 13 0 16
-3 8 -8 -13 -8 -11 -61 3 -84 6 -10 5 -11 -7 -1 -13 10 -16 10 -16 -2 0 -8 5
-15 10 -15 5 0 4 -7 -3 -15 -10 -12 -10 -15 1 -15 11 0 11 -2 -1 -10 -12 -8
-12 -10 5 -10 13 0 16 -3 8 -8 -13 -8 -11 -61 3 -84 6 -10 5 -11 -7 -1 -13 10
-16 10 -16 -2 0 -8 5 -15 10 -15 5 0 4 -7 -3 -15 -10 -12 -10 -15 1 -15 11 0
11 -2 -1 -10 -12 -8 -12 -10 5 -10 13 0 16 -3 8 -8 -13 -8 -11 -61 3 -84 6
-10 5 -11 -7 -1 -13 10 -16 10 -16 -2 0 -8 4 -15 9 -15 5 0 4 -10 -3 -21 -6
-12 -7 -19 -1 -15 5 3 13 -1 16 -10 3 -8 2 -13 -3 -10 -11 7 -9 -54 2 -72 6
-8 4 -12 -4 -10 -18 4 -18 -42 0 -72 15 -24 15 -24 -3 -10 -18 14 -19 14 -8
-6 6 -11 7 -26 2 -34 -9 -15 -3 -59 11 -76 7 -8 6 -15 -2 -20 -8 -5 -9 -3 -4
6 6 9 4 11 -5 5 -10 -6 -9 -11 6 -22 10 -8 17 -22 16 -31 -2 -9 -1 -14 4 -10
10 11 35 -12 27 -24 -3 -6 0 -8 8 -6 8 3 19 -4 26 -16 7 -12 12 -16 13 -10 0
8 13 10 38 7 66 -8 92 -3 113 19 9 10 20 14 24 10 5 -4 5 -2 1 5 -3 6 -2 14 4
18 6 4 8 11 5 16 -3 5 1 6 9 3 16 -6 17 11 2 35 -6 9 -5 12 2 7 6 -3 13 -2 17
4 3 5 1 10 -6 10 -7 0 -4 7 7 16 10 8 14 13 7 10 -6 -4 -14 -2 -18 4 -3 5 -1
10 5 10 6 0 8 5 3 13 -11 17 -11 67 0 67 5 0 3 8 -4 17 -10 11 -10 14 -1 9 6
-4 12 -3 12 3 0 5 -6 12 -12 14 -10 4 -9 6 1 6 11 1 11 4 0 18 -12 15 -12 16
5 10 17 -7 17 -5 5 9 -15 19 -20 74 -6 74 5 0 5 6 0 13 -16 19 -12 49 5 42 11
-4 12 -2 5 7 -17 22 -25 58 -13 58 6 0 8 -5 4 -12 -4 -7 -3 -8 5 -4 9 6 9 11
-1 23 -14 17 -16 52 -3 72 4 8 4 12 -1 8 -5 -3 -9 18 -9 46 0 32 5 55 13 60
11 7 10 13 -5 30 -17 20 -17 20 1 13 16 -6 17 -4 6 9 -15 18 -20 64 -8 71 5 3
5 10 2 16 -13 20 -11 89 2 84 9 -3 8 3 -2 22 -17 32 -17 42 -3 42 5 0 7 -5 3
-12 -4 -7 -3 -8 5 -4 9 6 9 11 -1 23 -14 17 -16 52 -3 72 4 8 4 12 -1 8 -5 -3
-9 18 -9 46 0 32 5 55 13 60 11 7 10 13 -5 30 -17 20 -17 20 1 13 16 -6 17 -4
5 10 -16 19 -18 56 -4 66 7 5 7 8 0 8 -6 0 -10 20 -9 46 1 36 7 49 25 62 23
15 23 15 9 -3 -14 -17 -14 -18 8 -6 12 6 22 8 22 4 0 -4 5 -1 10 7 5 8 10 10
10 3 0 -13 18 -12 39 1 10 6 12 5 7 -2 -4 -7 -4 -12 1 -13 43 -4 61 -3 57 3
-2 3 0 9 6 13 5 3 10 1 10 -6 0 -8 5 -7 17 2 9 8 14 9 10 3 -4 -7 2 -11 18
-11 16 0 22 4 18 11 -4 6 1 5 10 -3 9 -7 17 -10 17 -7 0 4 8 2 18 -3 11 -6 24
-6 32 -1 9 5 19 5 26 -1 8 -7 14 -6 19 1 3 6 11 7 17 4 6 -4 14 -1 18 6 5 7
19 14 32 15 16 1 22 7 20 20 -2 10 1 14 7 10 6 -3 11 1 11 11 0 9 8 23 18 31
10 9 11 12 2 7 -12 -6 -13 -4 -2 7 6 7 12 17 12 22 0 4 -6 5 -12 1 -9 -5 -9
-2 1 9 10 13 10 17 1 17 -10 0 -10 3 -1 14 10 12 8 17 -8 26 -12 6 -20 14 -19
18 3 17 -16 42 -33 42 -10 0 -19 4 -19 9 0 4 -10 7 -22 7 -13 -1 -29 2 -35 7
-9 6 -13 5 -13 -2 0 -9 -5 -9 -20 -1 -16 9 -20 8 -20 -7 0 -14 -3 -13 -17 6
-15 22 -17 23 -29 7 -7 -10 -15 -13 -18 -7 -4 6 -14 7 -22 4 -9 -3 -20 0 -25
8 -6 10 -9 8 -9 -10 0 -24 0 -24 -15 -5 -11 15 -15 16 -15 4 -1 -10 -4 -9 -10
5 -6 15 -9 16 -9 4 -1 -19 -38 -18 -53 2 -8 12 -9 11 -5 -2 4 -12 -3 -15 -35
-13 -50 2 -62 14 -63 64 0 29 4 40 15 40 13 0 13 2 1 9 -10 7 -15 29 -16 68
-2 76 2 88 24 71 14 -11 14 -11 3 3 -7 9 -10 24 -6 33 4 10 1 16 -7 16 -8 0
-6 5 5 13 14 10 15 18 7 40 -8 20 -7 26 1 24 7 -1 13 8 14 21 2 30 25 73 35
66 5 -3 6 1 3 9 -3 8 6 23 20 34 14 11 22 24 18 29 -4 5 1 2 11 -5 14 -11 17
-11 17 2 0 11 5 14 17 10 11 -4 14 -3 9 5 -7 11 6 17 28 13 5 -1 13 4 17 11 7
10 9 10 9 -1 0 -11 3 -11 16 0 13 10 17 10 25 -2 7 -11 9 -11 9 0 0 11 3 11
17 0 11 -10 14 -10 9 -1 -9 16 16 16 32 0 9 -9 14 -6 21 13 7 16 10 19 10 7 1
-27 20 -31 30 -6 9 21 10 21 11 3 1 -11 4 -14 7 -7 2 6 9 9 14 6 6 -3 17 0 26
8 12 9 15 9 9 1 -4 -7 -2 -13 3 -13 6 0 11 7 11 16 0 8 5 12 10 9 6 -3 13 1
16 10 4 10 13 14 23 10 13 -5 14 -4 4 6 -15 15 -17 33 -4 25 22 -14 35 78 15
99 -10 9 -10 15 -1 24 7 7 7 11 1 11 -6 0 -21 9 -34 20 -12 11 -27 17 -33 13
-5 -3 -8 -2 -5 3 3 5 0 14 -7 21 -11 10 -15 10 -19 0 -5 -9 -7 -9 -12 1 -3 6
-10 12 -15 12 -6 0 -8 -4 -5 -9 7 -10 -13 -9 -31 2 -6 4 -14 1 -16 -5 -4 -10
-6 -10 -6 0 -1 6 -6 12 -12 12 -5 0 -7 -4 -4 -10 3 -5 1 -10 -4 -10 -6 0 -11
6 -11 13 0 8 -4 7 -10 -3 -9 -13 -10 -13 -10 0 0 13 -1 13 -10 0 -8 -12 -10
-12 -10 -1 0 11 -3 11 -17 0 -11 -10 -14 -10 -9 -1 4 6 3 12 -1 12 -5 0 -15
-6 -22 -12 -11 -11 -12 -10 -6 2 8 13 7 13 -8 1 -13 -10 -17 -11 -17 -1 0 7
-9 3 -19 -9 l-19 -22 -5 23 c-2 13 -5 16 -7 8z m-694 -1112 c3 -4 -1 -5 -10
-4 -8 1 -18 5 -22 8 -3 4 1 5 10 4 8 -1 18 -5 22 -8z m884 -4 c0 -8 -19 -13
-24 -6 -3 5 1 9 9 9 8 0 15 -2 15 -3z m-632 -1299 c-3 -3 -9 2 -12 12 -6 14
-5 15 5 6 7 -7 10 -15 7 -18z"/>
<path d="M6009 7373 c-13 -16 -12 -17 4 -4 9 7 17 15 17 17 0 8 -8 3 -21 -13z"/>
<path d="M9695 7301 c6 -11 0 -13 -29 -9 -34 4 -41 -2 -37 -26 1 -5 -4 -4 -12
3 -12 9 -16 8 -21 -5 -3 -9 -13 -14 -21 -11 -10 4 -12 1 -8 -10 5 -12 2 -15
-9 -10 -12 4 -15 0 -13 -19 1 -15 -5 -30 -16 -37 -18 -13 -20 -32 -5 -56 6 -9
5 -12 -2 -7 -7 4 -10 -5 -9 -29 1 -19 7 -35 12 -35 6 0 3 -5 -5 -10 -13 -9
-13 -10 0 -11 8 -1 19 -1 23 0 5 1 5 -8 2 -20 -5 -16 -4 -19 6 -14 9 6 11 3 6
-9 -6 -14 -3 -17 9 -12 11 4 18 -1 21 -14 3 -11 9 -17 15 -14 13 8 39 -16 32
-30 -3 -6 0 -4 8 5 13 16 43 15 33 -1 -6 -10 21 -7 31 3 12 12 26 8 19 -5 -4
-7 1 -4 9 6 9 11 16 15 16 10 0 -6 6 -11 14 -11 8 0 12 6 8 15 -4 12 1 14 21
10 15 -3 24 -1 21 3 -3 5 7 21 23 35 15 14 22 23 16 19 -9 -4 -11 -1 -7 10 4
9 13 14 20 11 9 -3 11 0 7 11 -4 9 -2 14 3 10 5 -3 9 12 9 34 0 21 -4 39 -10
39 -5 0 -3 5 5 10 12 8 12 10 1 10 -10 0 -11 4 -3 13 7 8 5 18 -8 34 -9 12
-21 19 -24 15 -4 -3 -4 1 0 11 4 11 1 17 -9 17 -9 0 -19 9 -22 21 -5 15 -13
19 -27 16 -14 -4 -18 -2 -14 9 4 10 -3 14 -27 14 -18 0 -39 6 -46 13 -11 10
-12 9 -6 -2z"/>
<path d="M9523 7195 c0 -8 4 -12 9 -9 5 3 6 10 3 15 -9 13 -12 11 -12 -6z"/>
<path d="M6153 6865 c0 -8 4 -12 9 -9 5 3 6 10 3 15 -9 13 -12 11 -12 -6z"/>
<path d="M7539 6726 c-2 -3 -17 -7 -33 -10 -15 -3 -35 -11 -44 -18 -15 -12
-16 -11 -3 5 14 17 13 18 -5 15 -10 -1 -22 -7 -26 -13 -9 -13 -30 -14 -45 -3
-6 5 -14 5 -17 -1 -3 -5 -19 -8 -35 -7 -17 1 -28 -1 -25 -5 2 -4 0 -10 -6 -14
-5 -3 -10 0 -10 7 0 10 -2 10 -9 0 -5 -8 -20 -15 -34 -15 -14 -1 -23 -6 -19
-11 3 -5 -2 -7 -11 -3 -10 3 -17 2 -17 -2 0 -12 -56 -31 -67 -23 -4 4 -5 3 -1
-2 7 -8 -10 -22 -52 -42 -8 -4 -20 -14 -26 -22 -6 -8 -16 -12 -22 -8 -6 3 -13
-3 -17 -14 -3 -11 -11 -20 -16 -20 -6 0 -7 6 -4 13 4 6 0 3 -9 -7 -8 -10 -13
-23 -10 -27 2 -4 -4 -6 -16 -4 -11 2 -19 -1 -17 -8 1 -7 -4 -11 -11 -9 -8 1
-11 -2 -7 -8 3 -5 1 -10 -5 -10 -6 0 -8 -4 -5 -10 6 -9 -7 -14 -27 -11 -4 0
-5 -5 -2 -13 3 -7 -3 -19 -12 -27 -15 -12 -17 -12 -9 0 5 9 4 12 -3 7 -6 -4
-8 -14 -5 -23 4 -11 3 -14 -5 -9 -7 4 -12 1 -12 -8 0 -9 -5 -16 -12 -16 -6 0
-9 -3 -5 -6 3 -3 -3 -14 -14 -25 -10 -10 -16 -25 -13 -33 4 -11 0 -14 -15 -11
-18 3 -20 1 -11 -15 11 -20 -10 -46 -26 -32 -4 4 -2 -2 6 -12 8 -11 10 -17 5
-14 -6 4 -17 -3 -25 -15 -12 -20 -12 -21 4 -8 14 12 16 12 10 -3 -3 -9 -12
-16 -19 -16 -9 0 -12 -10 -9 -30 4 -21 1 -32 -10 -36 -9 -3 -16 -10 -16 -16 0
-5 6 -6 13 -2 7 5 6 1 -3 -10 -16 -20 -23 -49 -10 -41 11 7 7 -22 -5 -32 -4
-4 -5 -2 0 6 6 10 4 12 -4 7 -7 -5 -9 -12 -3 -19 10 -15 9 -26 -4 -52 -11 -20
-11 -111 -1 -121 3 -3 1 -19 -3 -35 -5 -18 -5 -27 1 -24 13 9 11 -9 -3 -24 -9
-10 -9 -12 -1 -7 6 3 14 2 18 -4 3 -5 -1 -10 -10 -10 -13 0 -14 -2 -3 -14 7
-8 16 -12 19 -10 3 2 6 -3 6 -11 0 -8 -4 -12 -9 -9 -4 3 -8 0 -8 -5 0 -6 5
-11 11 -11 8 0 7 -6 -2 -17 -12 -14 -12 -16 0 -8 11 6 13 4 8 -8 -4 -10 -2
-17 5 -17 6 0 5 -6 -3 -17 -8 -9 -9 -14 -3 -10 7 4 15 0 18 -9 4 -10 2 -13 -7
-8 -9 6 -9 5 0 -8 7 -8 9 -19 5 -23 -4 -5 -2 -5 5 -1 6 3 14 2 18 -4 3 -5 0
-10 -7 -10 -9 -1 -7 -5 4 -14 14 -10 15 -15 5 -26 -10 -10 -9 -11 2 -5 11 6
13 4 8 -8 -3 -9 1 -21 11 -29 16 -12 16 -11 2 7 -14 19 -14 19 3 6 9 -8 15
-16 12 -19 -3 -3 2 -16 11 -30 9 -13 11 -21 5 -18 -7 4 -9 1 -5 -8 3 -9 9 -14
12 -13 4 1 8 -2 9 -6 3 -11 24 -31 48 -46 20 -12 20 -13 0 -6 -17 5 -15 1 8
-23 15 -15 24 -32 20 -36 -4 -4 0 -4 10 0 13 5 16 2 11 -10 -5 -12 -2 -15 10
-10 12 4 16 0 16 -15 0 -12 3 -20 8 -20 16 3 32 -1 31 -8 -4 -23 3 -33 21 -33
11 0 36 -18 57 -39 22 -24 42 -37 51 -33 11 4 13 1 7 -8 -5 -9 -4 -11 4 -6 6
4 18 0 27 -8 9 -9 20 -14 25 -11 5 4 9 1 9 -5 0 -6 8 -10 18 -8 9 2 16 -2 15
-9 -2 -7 3 -10 11 -7 8 3 26 -2 40 -11 14 -10 33 -14 42 -11 12 4 15 2 10 -9
-5 -13 -2 -14 15 -4 17 9 20 8 14 -1 -6 -10 -1 -12 18 -8 16 3 31 0 38 -8 12
-15 44 -20 35 -6 -3 5 1 9 9 9 8 0 12 -3 10 -7 -7 -11 179 -8 193 3 9 7 11 5
6 -9 -7 -18 -6 -18 12 -2 13 11 24 14 34 8 10 -6 20 -4 31 6 11 10 19 12 23 5
9 -14 37 -2 29 13 -3 6 -3 8 2 4 4 -4 17 -2 28 3 15 8 22 8 28 -2 7 -11 9 -10
9 4 0 15 3 16 21 6 15 -8 19 -8 15 0 -4 6 0 11 8 11 9 0 16 4 16 10 0 5 7 7
15 4 8 -4 15 -1 15 7 0 7 3 9 7 5 4 -3 13 4 20 16 10 19 12 20 13 5 0 -10 5
-15 10 -12 6 4 8 11 4 16 -3 5 -2 9 3 8 19 -3 47 3 35 8 -16 6 30 33 57 33 14
0 14 2 1 10 -13 8 -12 10 5 11 11 1 23 1 27 0 4 0 5 5 2 13 -3 8 0 17 7 22 8
5 10 3 4 -5 -5 -10 -2 -9 13 0 12 7 18 17 16 21 -3 4 0 8 6 8 6 0 8 5 4 13 -5
7 0 6 11 -3 11 -9 16 -10 11 -2 -4 7 -2 12 4 12 6 0 8 5 5 10 -3 6 1 10 9 10
9 0 15 6 13 13 -1 6 4 11 10 10 7 -2 12 3 10 10 -1 6 4 11 11 9 8 -1 11 2 7 8
-3 5 0 10 7 11 7 0 4 4 -7 9 -17 7 -17 9 -3 9 22 1 43 37 25 44 -9 4 -9 6 1 6
8 1 10 6 5 14 -4 6 -8 23 -9 37 -1 13 -6 26 -13 28 -6 2 -11 10 -11 18 0 10
-5 12 -12 8 -8 -5 -7 0 2 11 8 10 10 16 3 12 -6 -4 -14 -1 -16 5 -4 10 -6 10
-6 0 -1 -10 -4 -10 -15 0 -8 7 -11 18 -8 23 2 6 -1 5 -8 -2 -11 -10 -16 -9
-27 5 -8 9 -12 12 -9 5 4 -6 2 -14 -4 -18 -6 -3 -13 1 -16 9 -5 14 -8 14 -21
1 -8 -8 -21 -15 -29 -15 -10 0 -12 -5 -8 -12 5 -9 2 -8 -10 1 -15 13 -18 12
-22 -7 -4 -11 -12 -23 -20 -26 -8 -3 -14 -12 -14 -20 0 -8 -5 -18 -12 -22 -7
-4 -8 -3 -4 4 4 7 5 12 1 12 -3 0 -10 -12 -15 -26 -7 -17 -16 -24 -25 -21 -10
4 -12 1 -8 -11 3 -9 3 -14 -2 -10 -4 4 -16 -3 -26 -15 -18 -20 -19 -20 -13 -2
7 20 7 20 -9 0 -8 -11 -13 -24 -9 -30 3 -5 -3 -3 -13 5 -11 9 -16 10 -11 3 4
-8 1 -13 -9 -13 -10 0 -13 -5 -9 -12 5 -8 0 -7 -11 2 -11 9 -16 10 -11 3 5 -9
0 -13 -14 -13 -12 0 -18 -4 -15 -10 3 -5 -3 -10 -15 -10 -14 0 -19 -4 -14 -12
5 -10 4 -10 -6 -1 -10 9 -16 8 -29 -4 -15 -15 -16 -15 -19 0 -3 13 -6 14 -17
4 -7 -6 -11 -15 -9 -19 5 -8 -17 -5 -34 6 -8 5 -18 4 -25 -3 -6 -6 -18 -11
-26 -11 -14 0 -14 1 -1 10 9 6 10 10 3 10 -6 0 -15 -4 -18 -10 -3 -5 -14 -10
-23 -10 -15 0 -15 2 -2 10 9 6 10 10 3 10 -6 0 -15 -4 -18 -10 -9 -15 -27 -12
-19 3 6 10 4 10 -7 0 -14 -14 -33 -18 -25 -5 2 4 -4 8 -14 8 -10 0 -17 -3 -15
-7 2 -3 -8 -5 -23 -4 -17 0 -28 7 -30 18 -2 9 -8 17 -13 17 -6 0 -8 -4 -4 -9
7 -12 -36 -5 -44 7 -3 5 -17 14 -31 21 -24 11 -24 11 -6 -3 11 -9 15 -16 9
-16 -5 0 -18 9 -28 20 -10 11 -20 18 -23 15 -2 -2 -12 4 -21 13 -9 10 -11 11
-6 3 9 -12 7 -12 -12 -1 -11 8 -19 20 -16 27 4 9 0 11 -11 7 -9 -3 -16 -1 -16
6 0 6 -4 8 -10 5 -5 -3 -10 -1 -10 5 0 6 -13 24 -30 40 -16 16 -30 35 -30 42
0 9 -3 9 -10 -2 -8 -12 -10 -11 -10 8 0 12 -5 22 -11 22 -5 0 -8 4 -5 9 3 5
-1 12 -10 15 -9 3 -14 13 -11 20 3 8 -1 20 -9 27 -9 7 -13 21 -11 31 3 10 2
16 -2 14 -4 -3 -13 -1 -21 5 -12 7 -12 9 -1 9 11 0 11 3 1 15 -7 8 -10 22 -6
30 3 8 0 15 -6 15 -7 0 -3 7 8 15 19 14 19 14 -2 11 -13 -3 -21 1 -21 10 0 8
3 12 5 9 3 -3 11 3 19 13 14 16 14 16 9 -2 -5 -15 -4 -17 7 -8 10 9 17 8 27
-1 8 -8 11 -8 7 -1 -4 7 0 15 9 18 12 5 15 2 10 -10 -6 -15 -4 -15 10 -3 10 8
18 14 18 13 1 0 12 -7 26 -14 22 -12 24 -12 12 3 -11 13 -10 15 7 10 12 -3 21
-10 21 -16 0 -6 7 -2 16 9 15 19 16 19 9 -1 -5 -15 -3 -17 6 -8 9 9 18 8 38
-4 21 -12 23 -12 8 0 -15 13 -16 15 -2 21 8 3 15 1 15 -4 0 -5 7 -6 17 -3 12
5 14 3 9 -8 -4 -8 0 -5 8 5 10 13 16 15 16 7 0 -11 3 -11 14 -2 11 10 17 8 25
-6 11 -17 12 -17 25 0 13 17 14 17 21 0 6 -17 7 -17 20 0 12 17 13 17 20 0 6
-17 7 -17 20 0 12 17 13 17 20 0 6 -17 7 -17 20 0 12 17 13 17 20 0 6 -17 7
-17 20 0 12 17 13 17 20 0 6 -17 7 -17 20 0 12 17 13 17 20 0 6 -17 7 -17 20
0 12 17 13 17 20 0 6 -17 7 -17 21 1 8 12 14 15 14 7 0 -10 3 -11 14 -2 11 9
16 9 22 0 5 -8 3 -9 -6 -4 -9 5 -11 4 -6 -4 6 -9 11 -9 22 0 8 6 14 8 14 4 0
-4 6 -2 14 4 11 10 17 8 25 -6 7 -13 10 -14 11 -4 0 8 3 11 7 8 3 -4 13 -1 21
6 10 8 13 8 9 1 -4 -7 0 -15 9 -18 8 -3 12 -2 9 4 -3 6 1 10 9 10 10 0 13 -6
10 -17 -3 -10 2 -7 10 7 14 22 21 21 17 -4 -1 -5 5 -4 13 4 9 7 16 9 16 5 0
-4 6 -2 14 4 11 10 17 8 25 -6 6 -10 11 -13 11 -6 0 7 7 10 17 6 10 -4 14 -2
10 4 -3 5 3 9 16 7 12 -1 22 -3 22 -4 0 -7 36 -6 41 1 3 6 10 6 17 1 16 -13
47 -11 47 2 0 6 4 4 10 -4 5 -8 12 -11 16 -7 4 4 13 2 20 -4 8 -7 14 -6 20 2
5 8 3 9 -6 4 -9 -5 -11 -4 -6 4 6 8 12 9 20 2 9 -7 17 -7 26 2 10 9 11 9 6 0
-10 -18 4 -16 27 5 15 12 18 13 12 2 -7 -12 -6 -13 7 -3 8 7 18 10 22 6 4 -4
4 1 0 11 -5 13 -4 17 4 12 14 -8 36 30 28 50 -3 8 -2 12 4 9 5 -3 14 5 21 17
10 20 10 21 -2 11 -12 -9 -14 -5 -14 28 0 28 4 39 15 39 12 1 11 3 -2 11 -10
5 -18 15 -18 20 0 6 4 8 8 5 5 -3 9 1 9 9 0 8 -4 12 -8 10 -11 -7 -18 20 -9
35 10 16 1 50 -14 50 -6 0 -4 5 4 10 12 8 12 10 1 10 -11 0 -11 3 -1 15 11 13
10 14 -4 9 -9 -3 -16 -1 -16 5 0 6 5 11 12 11 6 0 4 6 -7 13 -10 8 -15 19 -11
25 4 7 2 12 -5 12 -8 0 -7 5 2 17 10 11 10 14 2 9 -8 -4 -13 -2 -13 8 0 8 -6
17 -12 19 -10 4 -9 6 1 6 10 1 7 7 -8 20 -13 12 -18 22 -11 26 5 3 10 11 10
16 0 6 -4 8 -9 5 -4 -3 -17 4 -27 17 -19 21 -19 21 1 7 20 -14 20 -14 2 7 -11
12 -16 26 -13 32 8 12 -28 33 -39 23 -5 -4 -5 1 -2 10 4 13 -2 22 -21 34 -15
8 -18 13 -8 9 16 -5 17 -3 6 10 -7 8 -19 15 -26 15 -8 0 -11 6 -8 15 5 11 2
13 -12 8 -11 -4 -15 -3 -11 4 4 6 0 14 -9 17 -10 4 -14 12 -10 22 6 15 4 15
-11 3 -9 -8 -14 -9 -10 -3 4 7 -1 18 -10 25 -12 10 -14 10 -9 2 11 -20 -1 -15
-27 10 -63 58 -107 91 -94 70 3 -5 0 -10 -8 -10 -8 0 -12 8 -10 20 4 15 2 17
-10 7 -12 -10 -15 -10 -15 0 0 7 -7 10 -15 7 -8 -4 -17 -2 -20 4 -4 5 -11 6
-17 3 -7 -4 -8 -2 -4 4 5 8 0 12 -13 12 -12 0 -21 5 -21 11 0 6 -9 9 -20 6
-10 -3 -21 0 -24 7 -3 7 -8 6 -15 -4 -10 -14 -16 -7 -12 14 1 5 -5 4 -13 -4
-13 -10 -16 -10 -16 0 0 10 -3 10 -14 1 -11 -9 -16 -9 -22 0 -5 8 -3 9 6 4 8
-5 11 -4 6 3 -8 13 -36 5 -36 -12 0 -6 -5 -3 -11 7 -5 9 -15 17 -20 17 -6 0
-7 -5 -3 -11 4 -8 1 -8 -12 -1 -11 5 -25 7 -33 4 -8 -3 -11 0 -7 7 7 11 4 15
-5 7z m-74 -293 c-5 -14 -4 -15 6 -6 9 10 16 10 26 1 8 -6 13 -7 12 -2 -4 21
2 28 11 14 9 -13 10 -13 10 0 0 13 1 13 10 0 9 -13 10 -13 10 0 0 13 1 13 10
0 6 -10 10 -11 10 -2 0 18 18 15 22 -5 3 -15 4 -15 21 1 13 13 17 14 17 4 0
-9 10 -13 30 -12 17 1 30 -2 30 -7 0 -5 8 -9 18 -9 10 0 24 -6 31 -12 11 -11
12 -10 6 2 -8 13 -6 13 8 1 9 -7 15 -16 13 -20 -2 -3 8 -7 22 -8 15 0 28 -6
30 -12 2 -6 11 -11 20 -11 15 0 15 -2 2 -10 -12 -8 -12 -10 5 -10 24 -1 58
-24 48 -33 -3 -4 -1 -7 6 -7 7 0 9 -5 6 -10 -4 -6 -3 -10 2 -9 18 3 36 -1 30
-7 -3 -4 2 -14 11 -23 10 -9 13 -14 7 -11 -6 3 -3 -3 8 -12 10 -10 15 -23 11
-29 -4 -7 -3 -9 4 -5 6 3 13 -3 17 -14 3 -11 11 -20 16 -20 5 0 9 -5 9 -11 0
-5 -5 -7 -12 -3 -7 4 -2 -6 10 -23 12 -17 22 -36 22 -41 0 -6 3 -12 8 -15 4
-2 2 -2 -5 -1 -7 2 -10 -3 -6 -11 3 -8 10 -12 16 -8 6 4 7 1 2 -7 -4 -7 -2
-16 6 -22 11 -7 9 -8 -5 -4 -12 4 -17 2 -13 -7 3 -9 -7 -13 -39 -13 -29 -1
-41 3 -37 10 4 6 0 5 -9 -2 -12 -9 -18 -10 -23 -2 -4 7 -11 8 -18 2 -16 -13
-68 -12 -60 1 4 6 1 7 -8 1 -24 -14 -51 -16 -43 -2 6 10 4 10 -8 0 -12 -9 -18
-10 -23 -2 -4 7 -11 8 -18 2 -16 -13 -68 -12 -60 1 4 6 1 7 -8 2 -18 -12 -71
-17 -65 -7 3 5 -1 9 -9 9 -8 0 -12 -4 -9 -9 3 -4 -2 -8 -11 -8 -10 0 -13 4 -9
13 5 7 -2 5 -16 -4 -23 -15 -27 -15 -50 0 -13 9 -21 11 -18 5 5 -6 -15 -10
-57 -11 -36 0 -62 3 -60 7 2 4 -2 7 -10 7 -8 0 -12 -4 -9 -9 3 -4 -2 -8 -11
-8 -10 0 -13 4 -9 13 5 7 -2 5 -16 -4 -23 -15 -27 -15 -50 0 -13 9 -21 11 -18
5 5 -6 -15 -10 -57 -11 -36 0 -62 3 -60 7 2 4 -2 7 -10 7 -8 0 -12 -4 -9 -9 3
-4 -2 -8 -11 -8 -10 0 -13 4 -8 13 4 6 -5 4 -19 -5 -17 -11 -29 -14 -33 -7 -4
5 -16 7 -27 3 -14 -4 -18 -2 -14 5 4 6 3 11 -1 11 -5 0 -9 9 -9 19 0 11 4 17
9 14 5 -3 8 1 6 8 -3 29 1 40 14 33 9 -6 8 -3 -1 9 -12 13 -11 18 7 29 16 10
18 15 8 27 -9 12 -9 13 1 7 7 -4 12 -1 12 9 0 10 5 13 13 9 7 -5 7 -2 -2 10
-12 15 -12 17 0 14 8 -2 13 4 13 14 -1 10 2 15 7 12 5 -3 12 2 15 10 3 9 10
14 14 11 5 -3 6 5 3 17 -4 19 -3 20 6 8 10 -14 13 -12 10 7 0 3 6 10 15 15 9
5 14 13 11 18 -3 5 4 7 15 5 12 -2 18 0 14 6 -3 6 4 13 16 16 17 4 19 8 8 15
-9 7 -5 8 14 5 21 -3 26 0 23 14 -2 12 1 16 10 12 17 -6 47 21 37 32 -4 4 4 2
17 -5 17 -9 21 -9 16 0 -4 7 -1 10 11 8 12 -2 18 2 16 10 -2 10 2 11 15 4 12
-7 27 -5 52 9 44 23 45 23 36 2z m-384 -1350 c13 -16 12 -17 -3 -4 -10 7 -18
15 -18 17 0 8 8 3 21 -13z"/>
<path d="M11127 6717 c-3 -8 -17 -12 -36 -10 -17 2 -44 4 -61 6 -16 2 -30 -1
-30 -6 0 -5 -8 -3 -17 4 -14 12 -16 12 -11 -1 4 -12 -4 -15 -39 -17 -24 -1
-52 -8 -61 -15 -14 -11 -15 -10 -9 7 7 18 6 19 -6 3 -8 -10 -17 -15 -20 -11
-4 3 -7 1 -7 -6 0 -7 -4 -10 -9 -6 -5 3 -12 1 -16 -4 -3 -5 -14 -8 -25 -6 -12
2 -18 0 -15 -5 3 -5 1 -11 -5 -15 -5 -3 -10 0 -10 7 0 10 -2 10 -9 -1 -5 -8
-14 -10 -22 -6 -8 5 -11 5 -7 0 4 -4 -4 -18 -19 -31 -22 -19 -30 -21 -43 -11
-8 6 -12 7 -8 3 4 -5 -2 -17 -14 -27 -26 -23 -29 -23 -22 -1 2 9 -3 3 -12 -15
-9 -17 -30 -37 -45 -44 -16 -6 -26 -16 -22 -22 4 -7 0 -8 -11 -4 -14 6 -17 3
-12 -9 4 -12 2 -15 -9 -10 -8 3 -14 0 -12 -7 1 -7 -4 -11 -11 -9 -7 1 -12 -3
-10 -10 1 -7 -14 -30 -35 -51 -20 -21 -37 -47 -37 -57 0 -11 -9 -26 -21 -34
-12 -8 -18 -19 -14 -25 3 -6 1 -11 -5 -11 -6 0 -8 -4 -5 -10 3 -5 -1 -10 -11
-10 -13 0 -14 -3 -5 -14 14 -16 -2 -32 -20 -20 -7 4 -7 -1 1 -16 9 -17 9 -21
0 -15 -8 5 -11 -1 -8 -21 2 -20 -1 -28 -11 -26 -8 2 -11 -3 -8 -12 3 -8 -1
-20 -8 -26 -11 -9 -12 -17 -4 -32 7 -12 7 -18 1 -14 -5 3 -12 -1 -15 -8 -3 -8
-2 -16 3 -18 6 -2 3 -15 -4 -30 -10 -20 -12 -37 -6 -58 5 -18 5 -28 0 -25 -10
6 -4 -60 7 -78 3 -5 1 -7 -5 -3 -6 3 -13 2 -17 -4 -3 -5 -1 -10 6 -10 7 0 9
-3 6 -6 -3 -4 -2 -16 4 -27 6 -10 7 -17 1 -14 -5 4 -9 -7 -8 -23 1 -17 6 -30
12 -30 12 0 12 -55 1 -66 -3 -4 2 -14 11 -23 10 -9 13 -13 7 -9 -8 5 -11 0
-10 -14 1 -12 7 -24 14 -26 9 -3 9 -8 -1 -20 -11 -13 -10 -15 4 -9 12 4 15 2
11 -8 -3 -8 -10 -12 -16 -8 -6 3 -7 1 -3 -5 4 -6 13 -9 20 -6 8 3 12 -3 11
-18 -1 -13 7 -33 18 -45 15 -17 17 -23 6 -23 -11 -1 -11 -3 2 -13 16 -12 19
-18 19 -38 0 -5 6 -7 13 -3 7 5 6 0 -3 -11 -9 -11 -10 -16 -2 -11 7 4 12 1 12
-8 0 -9 5 -16 10 -16 6 0 10 -5 10 -11 0 -7 7 -17 14 -23 8 -6 16 -18 18 -26
2 -8 12 -19 23 -25 11 -6 19 -19 19 -28 -1 -9 4 -17 12 -17 8 0 14 -7 14 -15
0 -8 4 -14 10 -12 5 1 21 -11 35 -28 15 -16 23 -23 19 -15 -4 9 1 7 13 -5 11
-11 18 -24 15 -29 -2 -5 1 -7 9 -4 7 2 22 -5 32 -16 10 -12 16 -15 12 -9 -4 9
-1 11 9 7 9 -3 16 -10 16 -14 0 -5 9 -12 20 -15 11 -4 18 -10 15 -15 -3 -4 9
-7 25 -6 26 2 29 -1 24 -18 -4 -15 -3 -17 4 -7 6 8 12 9 16 3 3 -6 17 -9 31
-8 13 2 22 0 20 -4 -3 -5 3 -11 13 -16 26 -11 36 -11 51 0 12 9 13 8 6 -3 -6
-11 -4 -13 8 -8 9 3 19 2 22 -3 3 -5 15 -7 26 -5 27 5 50 -5 43 -19 -3 -6 1
-3 9 7 12 14 16 15 20 4 5 -15 34 -16 55 -3 7 4 12 2 12 -5 0 -8 4 -8 15 1 8
7 15 8 15 3 0 -11 61 -10 79 1 8 5 17 3 22 -5 7 -12 9 -11 9 1 0 13 1 13 10 0
5 -8 10 -10 10 -4 0 7 7 15 16 18 8 3 12 2 9 -4 -3 -6 -2 -10 4 -10 5 0 11 5
13 10 2 6 20 11 40 12 24 1 35 5 31 12 -4 6 2 4 12 -4 11 -9 16 -10 11 -2 -5
8 2 12 24 12 20 0 29 4 25 11 -4 6 -1 9 6 8 22 -4 109 43 102 55 -4 6 2 4 12
-4 11 -9 16 -10 11 -2 -4 7 -1 12 8 12 9 0 16 5 16 11 0 5 5 7 10 4 6 -4 9 -3
8 2 -2 4 0 9 5 10 4 2 19 15 33 30 14 16 23 21 19 13 -4 -8 2 -5 12 7 10 12
23 19 28 15 11 -8 16 -54 5 -47 -4 2 -7 -2 -7 -10 0 -8 4 -12 9 -9 4 3 8 -7 8
-21 0 -18 4 -24 13 -19 7 5 7 1 -3 -12 -8 -10 -10 -16 -6 -12 5 5 14 -2 20
-15 6 -12 22 -23 34 -25 12 -2 22 -9 22 -16 0 -13 39 -14 59 -1 6 3 14 -1 17
-9 5 -12 9 -13 19 -3 7 7 10 16 7 21 -3 5 1 5 9 0 20 -12 40 -14 33 -3 -3 5 0
9 6 9 6 0 8 5 4 13 -5 7 0 6 11 -3 12 -10 16 -10 11 -2 -9 14 12 45 24 37 5
-3 12 0 16 6 5 8 3 9 -6 4 -8 -5 -11 -3 -8 6 3 8 11 13 18 11 11 -3 11 0 0 12
-7 9 -8 16 -3 16 12 0 11 30 -2 49 -5 9 -4 12 2 8 6 -4 14 0 17 9 3 8 2 12 -3
9 -5 -3 -9 9 -8 27 1 24 -2 32 -13 30 -11 -3 -11 1 3 16 9 10 14 22 10 26 -9
9 -11 46 -2 41 4 -3 10 2 13 11 8 21 8 24 -5 24 -5 0 -7 -4 -4 -10 10 -16 -1
-11 -16 7 -12 14 -12 16 0 8 11 -6 13 -4 8 9 -4 9 -3 14 2 11 5 -3 12 -1 16 5
3 5 2 10 -3 10 -6 0 -12 7 -16 15 -3 8 -2 14 2 14 21 -3 24 3 6 17 -10 8 -14
13 -8 10 7 -3 12 4 12 19 0 16 -5 22 -12 18 -7 -4 -6 -1 1 9 7 8 10 18 6 22
-9 9 -11 46 -2 41 4 -3 10 2 13 11 3 8 2 13 -2 11 -4 -3 -14 2 -22 11 -13 14
-12 15 3 9 9 -3 17 -3 18 1 5 47 5 51 -5 43 -7 -6 -11 -2 -11 14 0 13 3 21 6
19 4 -2 9 3 13 11 3 8 0 17 -6 21 -7 5 -8 2 -3 -7 5 -8 4 -11 0 -6 -5 4 -9 16
-10 27 -1 16 1 18 13 7 13 -10 14 -9 5 8 -6 11 -10 45 -9 75 1 30 -2 65 -6 77
-4 13 -3 25 4 29 7 5 8 3 3 -6 -5 -9 -4 -11 3 -6 9 5 7 15 -6 34 -9 14 -12 23
-6 20 6 -4 10 1 9 13 -1 11 -8 25 -16 30 -8 5 -9 9 -3 9 6 0 11 7 11 15 0 9
-6 14 -14 11 -7 -3 -13 -1 -13 4 0 6 6 10 13 11 6 0 3 4 -8 9 -19 8 -19 9 -1
9 15 1 16 4 6 16 -6 8 -8 20 -4 26 4 8 3 9 -4 5 -8 -5 -12 3 -12 23 0 21 -5
31 -16 31 -8 0 -12 5 -9 10 4 6 11 7 17 4 7 -4 8 -2 4 5 -4 6 -11 9 -16 6 -9
-6 -20 18 -20 45 0 10 -5 20 -11 22 -5 2 -11 12 -13 21 -1 10 -8 22 -15 26 -7
5 -12 11 -12 15 3 24 0 30 -10 16 -9 -12 -10 -10 -6 8 4 18 2 22 -9 18 -9 -4
-12 -2 -8 5 3 6 -3 17 -15 25 -12 9 -18 20 -15 26 5 8 1 9 -11 4 -15 -5 -16
-4 -5 9 11 13 11 16 -1 13 -8 -2 -13 3 -11 10 1 7 -8 12 -20 12 -19 0 -20 2
-8 10 13 8 12 10 -3 10 -10 0 -15 5 -12 10 4 6 3 10 -2 9 -4 -1 -15 -1 -23 0
-13 1 -13 2 0 11 12 8 10 10 -8 10 -13 0 -20 4 -17 10 3 6 -3 10 -15 10 -12 0
-18 5 -15 10 3 6 -1 10 -10 10 -8 0 -18 7 -21 15 -4 8 -10 12 -15 9 -5 -3 -9
0 -9 5 0 6 -9 11 -21 11 -11 0 -17 5 -14 10 6 10 -7 14 -34 11 -7 -2 -11 1 -8
6 3 5 -6 13 -19 20 -13 6 -22 7 -19 3 3 -4 -6 -3 -19 3 -13 7 -23 14 -20 18 2
3 -11 7 -29 8 -55 4 -57 4 -57 14 0 6 -3 8 -6 5 -3 -4 -21 0 -41 8 -19 8 -32
11 -30 7 3 -5 -3 -9 -14 -9 -10 0 -19 4 -19 9 0 4 -6 5 -12 0 -17 -10 -38 -13
-37 -5 3 21 -3 23 -23 6 -19 -15 -20 -16 -9 -1 17 22 3 22 -29 0 -22 -15 -23
-15 -12 -1 8 10 9 19 4 22 -6 3 -12 0 -15 -7z m35 -289 c-8 -10 1 -13 39 -14
33 -1 46 2 42 10 -4 6 1 5 10 -3 19 -15 23 -26 5 -15 -7 4 -8 3 -4 -4 5 -9 13
-9 26 -2 15 8 22 5 36 -12 10 -15 14 -17 11 -6 -4 12 -2 15 9 11 7 -3 14 -9
14 -14 0 -5 9 -9 20 -9 11 0 20 -6 20 -14 0 -8 5 -18 12 -22 7 -4 8 -3 4 4 -4
7 -1 12 6 12 7 0 19 -9 26 -21 9 -14 20 -19 33 -16 17 5 18 3 7 -11 -10 -12
-10 -14 0 -8 7 4 15 1 18 -8 3 -9 10 -16 16 -16 5 0 16 -7 24 -15 9 -8 13 -15
9 -15 -3 0 0 -6 7 -14 7 -8 17 -11 22 -8 5 3 7 -2 3 -11 -4 -12 -1 -17 10 -17
9 0 13 -3 10 -7 -4 -3 1 -12 11 -20 11 -10 12 -12 2 -8 -10 4 -9 2 3 -8 9 -8
17 -19 17 -26 0 -6 6 -11 13 -12 9 0 9 -2 0 -6 -10 -3 -9 -8 3 -20 8 -9 13
-22 10 -30 -3 -8 -1 -11 4 -8 6 3 10 -1 10 -9 0 -9 5 -16 12 -16 6 0 3 -7 -8
-15 -18 -15 -18 -15 0 -8 13 4 17 3 12 -5 -3 -6 -2 -13 2 -16 5 -3 8 -17 7
-31 -2 -14 1 -27 6 -31 12 -7 11 -24 -2 -24 -5 0 -7 6 -3 13 4 6 3 8 -1 4 -13
-11 -15 -38 -3 -31 6 4 9 1 6 -7 -3 -8 2 -20 11 -27 10 -9 11 -11 2 -6 -11 5
-13 3 -8 -9 3 -9 1 -19 -5 -23 -7 -4 -6 -9 3 -15 10 -6 11 -9 2 -9 -7 0 -12
-10 -11 -22 0 -13 -1 -30 -3 -38 -2 -9 2 -14 11 -12 10 3 7 -5 -8 -21 -15 -16
-20 -27 -13 -32 8 -4 5 -12 -7 -23 -10 -9 -12 -13 -4 -7 11 7 11 1 -2 -29 -9
-21 -16 -40 -16 -43 0 -2 -4 -2 -9 2 -6 3 -8 -4 -6 -15 2 -11 -1 -20 -6 -20
-5 0 -14 -12 -19 -26 -6 -15 -14 -22 -22 -18 -7 4 -8 3 -4 -4 4 -7 1 -12 -6
-12 -9 0 -9 -3 2 -10 13 -8 12 -10 -3 -10 -10 0 -15 -4 -12 -10 3 -5 1 -10 -5
-10 -6 0 -8 -5 -4 -12 5 -9 2 -8 -9 1 -15 12 -17 12 -11 -4 5 -13 4 -16 -4
-11 -11 7 -17 -6 -13 -28 1 -5 -5 -3 -14 4 -13 11 -16 11 -13 0 2 -7 -8 -19
-22 -27 -14 -7 -20 -13 -15 -13 6 0 3 -4 -5 -10 -9 -6 -17 -5 -22 3 -5 8 -8 7
-8 -4 0 -26 -24 -41 -40 -26 -8 7 -11 8 -7 1 4 -7 -1 -18 -10 -25 -14 -12 -16
-12 -8 1 7 12 6 13 -7 3 -8 -7 -18 -10 -22 -5 -4 4 -12 -1 -18 -11 -8 -15 -12
-16 -24 -6 -12 10 -15 10 -12 -1 2 -9 -6 -15 -22 -15 -14 0 -31 -4 -38 -9 -7
-4 -20 -2 -29 6 -12 9 -15 9 -9 1 4 -8 1 -13 -8 -13 -9 0 -16 6 -16 13 0 8 -4
7 -10 -3 -5 -8 -10 -11 -10 -7 0 4 -9 3 -20 -3 -16 -9 -20 -8 -20 5 0 15 -2
15 -17 0 -15 -15 -17 -15 -25 -1 -6 11 -14 14 -26 8 -24 -12 -36 -9 -56 11
-19 18 -41 24 -31 7 3 -6 -1 -7 -9 -4 -9 3 -16 11 -16 16 0 6 -9 8 -20 5 -11
-3 -18 -1 -14 4 3 5 -2 9 -10 9 -8 0 -18 5 -22 12 -5 7 -3 8 6 3 9 -6 11 -4 5
4 -5 9 -11 9 -17 3 -13 -13 -68 24 -68 45 0 7 -6 10 -17 6 -11 -4 -14 -3 -9 5
4 7 2 12 -4 12 -7 0 -23 9 -37 20 -14 11 -22 20 -18 20 5 0 18 -8 29 -17 21
-18 21 -18 3 3 -9 11 -14 24 -10 29 5 4 2 5 -5 1 -15 -9 -56 29 -48 43 9 13
-21 34 -36 25 -10 -6 -10 -4 1 9 11 14 11 18 -3 23 -9 3 -16 10 -16 16 0 5 6
6 13 2 6 -4 4 2 -5 13 -10 11 -18 27 -18 36 0 9 -4 17 -10 17 -5 0 -10 11 -10
24 0 14 -5 28 -11 32 -8 4 -8 9 0 17 7 7 7 14 0 24 -9 9 -8 13 0 13 7 0 9 5 6
10 -4 6 -11 7 -17 4 -7 -4 -8 -2 -4 5 4 6 2 19 -6 28 -7 9 -8 14 -2 10 8 -4
13 5 16 29 2 19 0 38 -5 41 -4 3 0 12 10 20 10 8 12 12 6 8 -8 -4 -13 0 -13 9
0 9 5 16 12 16 6 0 3 7 -8 15 -10 8 -13 14 -5 13 7 -2 15 7 17 20 3 17 0 21
-8 16 -9 -6 -9 -3 0 9 8 9 10 22 6 28 -5 8 -2 10 8 7 8 -4 15 0 15 8 0 7 -5
10 -10 7 -6 -4 -7 -1 -1 8 5 8 9 19 9 24 1 6 6 9 12 8 6 -1 9 6 5 19 -3 13 -1
19 5 15 6 -4 14 0 17 9 3 8 2 13 -3 10 -5 -4 -7 3 -4 15 4 16 8 17 14 7 7 -10
9 -10 9 0 0 20 3 26 29 50 13 12 18 22 12 22 -7 0 -9 5 -6 10 4 6 11 8 16 5 5
-4 9 0 9 8 0 8 7 18 16 21 8 3 12 11 8 17 -4 8 -3 9 5 5 11 -7 46 20 46 35 0
4 4 11 9 16 5 5 6 3 2 -4 -4 -7 -2 -13 3 -13 6 0 11 7 11 16 0 8 5 12 11 9 6
-4 17 1 25 11 9 11 12 13 9 6 -6 -11 -3 -12 14 -3 11 7 21 14 21 17 0 3 -5 2
-12 -2 -7 -4 -8 -3 -4 5 4 6 11 9 16 6 14 -8 40 6 33 19 -4 6 1 5 10 -3 10 -8
17 -9 17 -3 0 6 9 9 20 7 11 -2 18 0 15 4 -2 5 4 11 15 14 14 4 20 0 21 -11 1
-15 2 -15 6 1 5 19 5 19 81 23 30 1 56 5 59 8 12 11 15 6 5 -6z m-312 -1448
c0 -5 -2 -10 -4 -10 -3 0 -8 5 -11 10 -3 6 -1 10 4 10 6 0 11 -4 11 -10z"/>
<path d="M4344 6708 c-5 -7 -3 -8 6 -3 9 5 11 4 6 -4 -6 -9 -11 -9 -22 0 -10
8 -14 8 -14 0 0 -6 -5 -11 -11 -11 -5 0 -7 6 -3 13 5 8 2 8 -9 -2 -14 -11 -17
-11 -17 0 -1 10 -4 9 -11 -3 -5 -10 -16 -15 -24 -12 -8 4 -15 2 -15 -4 0 -11
-18 -11 -37 1 -7 4 -18 -1 -26 -14 -11 -15 -16 -17 -20 -7 -4 8 -6 7 -6 -5 -1
-10 -5 -16 -10 -12 -5 3 -12 1 -16 -5 -4 -6 -11 -8 -16 -5 -5 4 -9 1 -9 -5 0
-7 -7 -9 -16 -6 -10 4 -13 2 -8 -6 5 -8 2 -9 -9 -5 -11 4 -17 1 -17 -9 0 -8
-4 -12 -10 -9 -5 3 -10 1 -10 -5 0 -6 -4 -9 -10 -5 -5 3 -18 -2 -30 -12 -11
-10 -29 -26 -40 -35 -11 -10 -23 -18 -27 -18 -5 0 -9 -4 -9 -10 -3 -23 -5 -24
-15 -10 -9 12 -10 11 -6 -7 5 -24 -8 -32 -16 -10 -3 7 -6 5 -6 -5 -1 -10 -6
-18 -12 -18 -5 0 -7 -4 -4 -10 3 -5 -1 -10 -10 -10 -9 0 -14 -3 -12 -7 7 -11
-19 -33 -29 -25 -4 4 -4 -1 -1 -10 3 -10 3 -17 -1 -17 -21 4 -32 -3 -32 -20 0
-10 -10 -26 -22 -35 -13 -9 -17 -14 -10 -11 6 3 12 2 12 -3 0 -5 -10 -12 -22
-15 -19 -5 -20 -8 -7 -23 9 -12 10 -15 2 -10 -8 4 -13 2 -13 -4 0 -6 -5 -8
-12 -4 -8 5 -7 0 2 -11 12 -15 12 -17 1 -10 -11 6 -13 4 -8 -8 3 -9 0 -20 -8
-24 -14 -8 -15 -11 -15 -39 0 -8 -3 -13 -7 -11 -5 3 -9 -9 -10 -26 -1 -17 -6
-33 -11 -36 -12 -8 -24 -43 -13 -37 5 4 7 -3 4 -14 -3 -11 -10 -23 -15 -26 -5
-3 -3 -13 4 -22 11 -13 11 -14 -1 -7 -11 6 -13 4 -8 -8 4 -10 1 -17 -5 -17 -7
0 -3 -7 8 -15 18 -15 18 -15 0 -8 -15 5 -17 3 -10 -8 12 -19 14 -39 4 -39 -5
0 -11 6 -14 13 -2 6 -4 2 -2 -11 1 -13 9 -28 17 -33 13 -8 6 -13 -13 -10 -5 0
-8 -4 -8 -9 0 -6 4 -10 9 -10 5 0 11 -12 14 -27 5 -27 5 -27 -10 -8 -16 20
-16 20 -8 0 4 -11 8 -26 8 -32 0 -7 4 -13 9 -13 5 0 6 -5 3 -10 -4 -6 -10 -8
-15 -5 -13 8 -3 -34 12 -53 11 -14 10 -15 -7 -9 -17 6 -18 5 -5 -5 9 -7 14
-20 12 -30 -2 -9 1 -19 7 -22 7 -5 7 -15 0 -33 -5 -14 -7 -28 -4 -31 3 -3 5 0
5 7 0 7 5 9 10 6 6 -4 8 -11 4 -16 -3 -5 0 -17 8 -26 7 -9 8 -14 2 -10 -16 10
-10 -33 7 -44 8 -5 10 -9 5 -9 -5 0 -3 -7 4 -15 6 -8 9 -19 5 -25 -3 -5 -1
-10 5 -10 7 0 9 -7 6 -16 -4 -11 1 -18 14 -21 11 -3 20 -10 20 -15 0 -5 -4 -7
-9 -3 -5 3 -3 -8 5 -24 8 -17 23 -33 33 -36 13 -4 17 -12 13 -27 -3 -14 -1
-19 6 -14 8 4 12 0 12 -12 0 -21 43 -66 53 -55 4 3 7 -3 7 -14 0 -12 7 -24 16
-27 8 -3 12 -11 8 -17 -4 -7 -3 -9 3 -6 6 4 13 0 17 -8 3 -8 15 -15 27 -15 12
0 20 -3 16 -6 -7 -7 8 -23 38 -41 11 -6 19 -16 17 -22 -1 -6 1 -10 5 -10 24 4
43 -3 43 -15 0 -10 7 -13 20 -11 11 2 18 0 15 -6 -4 -5 1 -9 10 -9 9 0 13 -4
10 -10 -4 -6 4 -9 17 -7 18 1 22 -2 20 -18 -2 -11 1 -16 5 -10 12 14 33 17 33
4 0 -6 9 -9 20 -6 11 3 18 2 16 -2 -3 -4 -1 -13 5 -21 7 -12 9 -12 9 -1 0 10
3 11 14 2 11 -9 16 -9 22 0 5 9 11 7 20 -6 13 -17 59 -31 48 -14 -7 12 25 4
38 -9 15 -15 38 -16 38 -1 0 5 5 7 10 4 6 -4 8 -10 6 -14 -7 -11 88 -7 96 4 5
6 8 5 8 -2 0 -7 5 -13 11 -13 5 0 7 5 3 12 -4 6 -3 8 4 4 5 -3 12 -3 15 1 2 5
2 2 1 -4 -4 -16 18 -17 34 -1 7 7 12 8 12 4 0 -5 8 -2 17 5 11 10 14 10 9 2
-9 -16 -5 -16 31 -2 41 16 64 19 58 9 -3 -6 1 -7 9 -4 8 3 17 12 20 20 5 12
10 13 27 4 11 -7 23 -9 27 -6 3 3 -1 6 -9 6 -8 0 -1 7 15 15 16 9 36 13 43 11
7 -3 13 -1 13 4 0 6 9 10 21 10 11 0 17 4 14 10 -3 5 0 7 8 4 8 -3 17 2 20 10
4 9 15 13 26 11 12 -2 20 1 18 8 -1 7 6 11 15 11 10 -1 15 2 12 7 -5 8 10 13
29 10 5 -1 6 3 2 9 -3 5 1 10 10 10 9 0 14 4 11 9 -3 5 2 15 11 22 14 12 16
12 8 -1 -5 -10 -1 -8 13 4 12 10 19 22 16 27 -2 4 5 6 17 4 17 -3 19 -2 9 10
-10 12 -8 13 10 10 18 -4 20 -2 9 11 -10 12 -9 13 7 8 10 -4 16 -4 12 0 -10
11 28 49 41 42 7 -4 8 -1 5 8 -3 9 -1 16 6 16 6 0 8 5 5 10 -3 6 -1 10 4 10 6
0 11 7 11 16 0 8 4 13 9 10 11 -7 23 22 14 36 -3 7 -1 8 5 4 7 -4 12 -2 12 4
0 6 5 8 11 4 8 -4 8 0 0 15 -10 18 -9 20 5 14 12 -4 15 -3 10 5 -4 7 -2 12 4
12 7 0 9 7 6 16 -5 12 -2 15 10 10 14 -5 15 -4 5 8 -9 11 -9 17 1 27 7 8 13
20 14 27 2 29 5 33 16 26 6 -4 8 -3 4 4 -3 6 -2 13 4 17 5 3 10 13 10 21 0 10
-5 12 -12 8 -8 -5 -8 -1 1 10 8 10 15 30 15 44 1 15 5 34 11 42 12 20 13 43 0
52 -6 5 -5 8 3 8 7 0 10 5 7 10 -4 6 -1 18 6 26 6 8 9 17 5 21 -3 3 -6 1 -6
-5 0 -7 -5 -12 -10 -12 -7 0 -6 8 2 23 14 25 19 59 8 52 -12 -7 -18 30 -8 49
6 11 5 16 -3 16 -8 0 -8 4 2 16 10 13 10 17 -2 25 -8 5 -9 9 -4 9 6 0 11 9 11
20 0 11 -5 20 -10 20 -5 0 -6 3 -3 6 3 4 2 14 -3 23 -5 10 -5 23 0 31 5 9 5
19 -1 26 -5 7 -9 16 -8 20 3 20 -1 35 -9 30 -5 -3 -9 1 -9 9 0 8 4 12 9 9 4
-3 8 0 8 5 0 6 -6 11 -14 11 -17 0 -29 27 -15 36 7 4 6 10 0 18 -6 7 -7 17 -3
21 4 5 -1 5 -10 2 -12 -4 -16 -1 -13 14 2 10 -1 19 -7 19 -6 0 -8 9 -5 21 4
15 0 23 -13 26 -12 3 -16 11 -13 21 5 11 3 13 -7 7 -10 -6 -12 -4 -6 11 4 10
4 15 0 11 -4 -4 -17 10 -29 30 -12 21 -27 37 -33 36 -6 -2 -9 6 -7 17 2 11 -1
19 -8 17 -7 -1 -11 4 -9 12 2 8 -3 11 -12 8 -9 -4 -15 -2 -13 2 3 12 -60 71
-67 64 -6 -6 -10 12 -7 29 0 4 -6 5 -13 2 -9 -3 -17 3 -21 16 -5 15 -10 18
-19 11 -9 -7 -18 -4 -31 12 -11 12 -19 24 -18 27 1 3 -1 7 -4 10 -4 3 -3 -1 1
-7 4 -8 1 -13 -9 -13 -9 0 -14 4 -10 9 7 12 -31 25 -46 15 -8 -4 -9 -3 -5 4 4
7 2 12 -4 12 -6 0 -8 5 -4 13 6 9 4 9 -8 -1 -14 -11 -18 -10 -28 7 -9 18 -14
19 -32 10 -15 -8 -18 -8 -14 0 4 7 -1 11 -13 11 -12 0 -21 5 -21 11 0 6 -9 9
-20 6 -11 -3 -20 -1 -20 4 0 5 -5 9 -11 9 -5 0 -7 -6 -3 -12 4 -7 -3 -4 -16 7
-13 11 -20 14 -16 8 4 -7 2 -13 -3 -13 -6 0 -11 5 -11 11 0 8 -5 7 -15 -1 -9
-7 -18 -10 -22 -6 -3 3 0 7 8 7 8 1 1 5 -16 8 -16 4 -40 4 -53 -1 -14 -5 -21
-4 -17 1 3 6 -4 9 -15 8 -11 -1 -20 -6 -20 -12 0 -7 -3 -7 -8 0 -7 11 -82 15
-82 5 0 -3 -9 -6 -19 -6 -11 0 -17 4 -15 8 3 4 -2 8 -10 8 -8 0 -18 -5 -22
-12z m-162 -50 c-7 -7 -12 -8 -12 -2 0 14 12 26 19 19 2 -3 -1 -11 -7 -17z
m264 -207 c-3 -5 1 -15 10 -22 8 -7 14 -8 12 -3 -2 5 2 9 7 9 6 0 9 -4 7 -8
-1 -5 2 -5 8 -2 6 4 9 13 6 21 -3 8 0 11 9 7 8 -3 13 -9 10 -13 -3 -5 0 -12 6
-16 7 -4 9 -3 6 3 -4 7 7 10 31 8 20 -1 45 -3 55 -4 12 -1 16 -5 11 -13 -5 -8
0 -7 11 2 15 12 17 12 10 1 -6 -11 -4 -13 8 -8 10 3 17 2 17 -3 0 -6 7 -10 15
-10 8 0 15 -6 16 -12 0 -7 4 -4 9 7 7 16 9 17 9 3 1 -9 6 -20 13 -24 7 -4 8
-3 4 4 -12 19 4 14 22 -8 10 -10 24 -20 32 -22 8 -2 21 -12 28 -23 l13 -20 -5
20 c-6 19 -6 20 9 1 8 -10 12 -23 9 -27 -3 -5 2 -6 10 -3 9 3 19 -3 26 -16 6
-11 16 -17 22 -14 7 4 8 3 4 -4 -4 -7 -2 -12 4 -12 6 0 8 -4 5 -10 -3 -5 2
-10 11 -10 10 0 14 -3 11 -6 -4 -4 2 -15 14 -25 14 -12 16 -18 7 -22 -8 -4 -7
-6 4 -6 12 -1 15 -6 11 -18 -4 -11 -3 -14 5 -9 7 4 14 -3 18 -19 3 -14 10 -25
16 -25 5 0 6 -4 3 -10 -3 -5 -1 -10 6 -10 9 0 9 -3 0 -14 -9 -10 -8 -15 4 -19
8 -4 12 -13 9 -22 -3 -8 -1 -15 5 -15 13 0 10 -22 -4 -32 -6 -5 -6 -8 1 -8 7
0 11 -14 9 -35 -1 -19 2 -32 7 -29 13 8 10 -10 -4 -25 -11 -10 -9 -11 7 -5 18
7 19 6 6 -9 -16 -21 -22 -169 -6 -159 6 3 5 -1 -1 -9 -6 -8 -10 -24 -9 -36 1
-12 -4 -24 -12 -27 -7 -3 -13 -17 -13 -31 0 -14 -4 -25 -10 -25 -5 0 -10 -9
-10 -20 0 -11 -4 -20 -9 -20 -6 0 -8 -9 -6 -20 2 -11 1 -19 -3 -17 -4 1 -8 -3
-10 -8 -2 -6 -10 -17 -18 -26 -8 -9 -11 -19 -7 -24 5 -4 0 -5 -10 -2 -13 5
-17 2 -15 -10 2 -9 -3 -18 -11 -21 -9 -3 -11 0 -6 8 5 9 4 11 -4 6 -6 -4 -9
-12 -6 -17 6 -9 -40 -58 -56 -60 -5 -1 -13 -2 -18 -3 -5 0 -13 -5 -18 -10 -5
-5 -3 -6 5 -2 6 4 12 2 12 -3 0 -6 -7 -11 -16 -11 -8 0 -13 -4 -10 -8 3 -5 -5
-8 -17 -7 -12 2 -31 -6 -42 -16 -11 -10 -24 -19 -30 -19 -5 -1 -9 -6 -7 -12 1
-5 -2 -7 -8 -3 -5 3 -10 0 -11 -7 0 -10 -2 -10 -6 0 -6 14 -33 16 -33 2 0 -5
-5 -10 -11 -10 -5 0 -7 6 -3 13 4 6 -5 1 -21 -13 -16 -14 -25 -18 -20 -10 6
12 5 13 -6 3 -7 -7 -17 -13 -22 -13 -4 0 -5 6 -1 13 6 9 5 9 -7 1 -16 -14 -89
-25 -89 -15 0 4 -20 6 -45 6 -25 -1 -48 2 -51 7 -3 4 -10 6 -15 3 -5 -4 -9 2
-10 12 0 10 -3 13 -6 6 -2 -7 -9 -13 -14 -13 -6 0 -7 4 -4 10 4 6 -6 8 -25 6
-24 -3 -30 0 -26 11 3 8 1 11 -4 8 -6 -3 -10 -2 -10 3 0 6 -10 8 -22 5 -19 -4
-20 -3 -8 7 12 10 11 11 -8 7 -12 -3 -25 1 -30 8 -4 8 -11 14 -17 15 -5 1 -9
7 -7 13 2 6 -3 5 -12 -2 -13 -11 -15 -10 -11 8 2 11 -1 24 -7 27 -7 4 -8 2 -4
-4 4 -7 3 -12 -2 -12 -6 0 -13 7 -16 16 -3 8 -10 12 -16 9 -9 -6 -14 8 -11 28
1 5 -2 6 -7 3 -5 -3 -14 6 -21 20 -6 14 -15 23 -20 19 -9 -5 -21 20 -27 53 -1
8 -6 17 -10 20 -4 4 -4 -1 -1 -10 4 -10 3 -18 -1 -18 -8 0 -32 64 -36 95 -4
29 -17 56 -25 50 -5 -2 -7 8 -6 23 1 15 -3 33 -8 40 -6 8 -10 63 -9 130 1 137
3 152 13 152 5 0 5 7 2 17 -5 11 -3 14 6 8 10 -6 11 -3 2 14 -10 17 -9 22 2
27 8 3 13 13 10 22 -2 9 5 27 16 39 11 12 22 28 23 35 2 7 10 19 18 26 13 12
13 13 0 6 -8 -4 -5 3 8 15 12 12 19 27 16 33 -4 6 -3 9 2 6 10 -6 36 17 28 25
-2 2 2 10 11 17 13 11 15 10 9 -6 -4 -12 0 -10 12 7 31 42 53 61 65 53 8 -4 9
-3 5 4 -4 7 -2 12 4 12 6 0 8 4 5 10 -3 6 1 7 9 4 9 -4 18 1 22 10 3 9 10 14
14 11 4 -3 11 2 14 11 5 13 9 14 20 5 11 -9 16 -9 22 0 5 8 3 10 -7 4 -8 -5
-11 -4 -6 0 12 14 49 17 41 3 -4 -7 -3 -8 5 -4 6 4 9 12 6 17 -4 5 0 10 7 10
45 4 73 9 87 15 9 4 19 8 23 8 3 1 10 4 14 9 10 10 16 9 10 -2z m924 -691 c0
-5 -2 -10 -4 -10 -3 0 -8 5 -11 10 -3 6 -1 10 4 10 6 0 11 -4 11 -10z m-1420
-160 c0 -5 -5 -10 -11 -10 -5 0 -7 5 -4 10 3 6 8 10 11 10 2 0 4 -4 4 -10z
m810 -310 c0 -5 -5 -10 -11 -10 -5 0 -7 5 -4 10 3 6 8 10 11 10 2 0 4 -4 4
-10z m-973 -65 c0 -8 -4 -12 -9 -9 -5 3 -6 10 -3 15 9 13 12 11 12 -6z"/>
<path d="M4416 6428 c3 -5 10 -6 15 -3 13 9 11 12 -6 12 -8 0 -12 -4 -9 -9z"/>
<path d="M3960 6095 c-7 -9 -11 -17 -9 -20 3 -2 10 5 17 15 14 24 10 26 -8 5z"/>
<path d="M3913 5925 c0 -8 4 -12 9 -9 5 3 6 10 3 15 -9 13 -12 11 -12 -6z"/>
<path d="M7396 6712 c-3 -5 1 -9 9 -9 8 0 12 4 9 9 -3 4 -7 8 -9 8 -2 0 -6 -4
-9 -8z"/>
<path d="M2692 6703 c-6 -2 -10 -9 -7 -14 4 -5 -1 -6 -10 -3 -9 4 -22 -1 -31
-12 -9 -11 -13 -14 -10 -8 3 6 -1 11 -8 11 -8 0 -11 -8 -8 -19 3 -14 0 -17
-12 -12 -12 5 -15 2 -9 -12 4 -11 3 -15 -4 -11 -6 4 -14 0 -17 -9 -3 -8 -2
-12 4 -9 6 3 7 -1 4 -9 -3 -9 -9 -14 -13 -12 -3 2 -6 -15 -6 -39 -1 -24 2 -42
5 -40 4 2 7 -2 7 -9 0 -8 -7 -12 -16 -9 -11 3 -10 0 3 -11 15 -12 17 -19 8
-28 -8 -8 -8 -17 0 -31 8 -17 8 -19 -5 -14 -11 4 -14 2 -10 -8 3 -8 9 -12 14
-9 16 10 9 -9 -8 -22 -17 -13 -17 -13 0 -14 19 0 23 -15 7 -25 -7 -4 -7 -13 0
-26 9 -15 7 -19 -5 -19 -9 0 -13 -5 -10 -10 4 -6 11 -8 16 -5 5 4 9 2 9 -4 0
-5 -6 -12 -12 -14 -10 -4 -9 -8 2 -16 12 -8 11 -13 -5 -32 -11 -12 -15 -19 -9
-16 7 4 14 0 18 -8 3 -8 1 -15 -4 -15 -6 0 -10 -5 -10 -11 0 -5 5 -7 10 -4 17
11 11 -7 -7 -21 -17 -13 -17 -13 0 -14 19 0 23 -15 7 -25 -7 -4 -7 -13 0 -26
9 -15 7 -19 -5 -19 -9 0 -13 -5 -10 -10 4 -6 11 -8 16 -5 5 4 9 2 9 -4 0 -5
-6 -12 -12 -14 -10 -4 -9 -8 2 -16 12 -8 11 -13 -5 -32 -11 -12 -15 -19 -9
-16 7 4 14 0 18 -8 3 -8 1 -15 -4 -15 -6 0 -10 -5 -10 -11 0 -5 5 -7 10 -4 17
11 11 -7 -7 -21 -17 -13 -17 -13 0 -14 19 0 23 -15 7 -25 -7 -4 -7 -13 0 -26
9 -15 7 -19 -5 -19 -9 0 -13 -5 -10 -10 4 -6 11 -8 16 -5 5 4 9 2 9 -4 0 -5
-6 -12 -12 -14 -10 -4 -9 -8 2 -16 12 -8 11 -13 -5 -32 -11 -12 -15 -19 -9
-16 7 4 14 0 18 -8 3 -8 1 -15 -4 -15 -6 0 -10 -5 -10 -11 0 -5 5 -7 10 -4 17
11 11 -7 -7 -21 -17 -13 -17 -13 0 -14 19 0 23 -15 7 -25 -7 -4 -7 -13 0 -26
9 -15 7 -19 -5 -19 -9 0 -13 -5 -10 -10 4 -6 11 -8 16 -5 5 4 9 2 9 -4 0 -5
-6 -12 -12 -14 -10 -4 -9 -8 2 -16 12 -8 11 -13 -5 -32 -11 -12 -15 -19 -9
-16 7 4 14 0 18 -8 3 -8 1 -15 -4 -15 -6 0 -10 -5 -10 -11 0 -5 5 -7 10 -4 17
11 11 -7 -7 -21 -17 -13 -17 -13 0 -14 19 0 23 -15 7 -25 -7 -4 -7 -13 0 -26
9 -15 7 -19 -5 -19 -9 0 -13 -5 -10 -10 4 -6 11 -8 16 -5 5 4 9 2 9 -4 0 -5
-6 -12 -12 -14 -10 -4 -9 -8 2 -16 12 -8 11 -13 -5 -32 -11 -12 -15 -19 -9
-16 7 4 14 0 18 -8 3 -8 1 -15 -4 -15 -6 0 -10 -5 -10 -11 0 -5 5 -7 10 -4 6
3 10 2 10 -4 0 -5 -6 -12 -12 -14 -10 -4 -10 -8 1 -15 8 -6 10 -15 5 -23 -13
-21 -12 -50 1 -55 7 -3 11 -16 9 -30 -1 -15 3 -24 12 -24 8 0 13 -3 13 -7 -4
-22 4 -32 29 -39 15 -4 30 -7 35 -6 4 1 7 -3 7 -9 0 -8 6 -7 16 2 15 12 16 11
11 -11 -4 -14 -4 -19 -1 -12 3 6 10 10 14 7 5 -3 12 0 16 6 5 8 3 9 -6 4 -8
-5 -11 -4 -6 3 4 6 13 9 21 5 9 -3 23 1 32 8 12 10 15 10 9 2 -4 -7 -2 -13 3
-13 6 0 11 4 11 10 0 5 14 16 30 25 21 11 30 23 30 40 0 14 5 25 11 25 5 0 7
5 4 10 -3 6 0 10 7 10 8 0 9 3 3 8 -12 8 -13 27 -3 37 4 4 3 18 -2 31 -5 13
-7 24 -4 24 4 0 1 7 -6 16 -8 8 -9 14 -4 13 20 -4 26 2 15 15 -8 9 -8 16 -2
20 7 5 7 15 1 31 -7 18 -6 25 2 25 7 0 3 7 -8 16 -10 8 -13 12 -5 8 11 -5 13
-2 9 14 -4 13 -1 22 5 22 6 0 2 7 -9 16 -10 8 -14 13 -7 10 18 -10 21 27 4 48
-9 11 -11 16 -5 13 7 -4 14 0 18 8 3 8 0 15 -6 15 -6 0 -8 3 -5 7 4 3 2 12 -5
20 -6 8 -7 13 -2 12 21 -4 26 2 14 16 -7 8 -9 15 -5 15 4 0 2 7 -5 15 -11 13
-10 14 5 9 15 -6 16 -4 6 14 -7 13 -7 23 -1 27 6 4 6 15 0 30 -5 14 -7 25 -4
25 4 0 1 7 -6 15 -11 13 -10 14 5 9 15 -6 16 -4 7 13 -11 21 -11 41 1 60 4 6
3 14 -3 18 -6 4 -7 12 -3 18 11 18 12 57 2 57 -6 0 -7 5 -4 10 4 6 10 8 15 5
10 -6 8 15 -3 32 -4 6 -3 14 3 18 5 3 10 15 10 25 0 10 6 21 13 23 10 4 10 6
0 6 -18 1 -16 31 1 31 9 0 12 7 9 19 -3 10 0 22 7 26 8 5 8 11 -2 23 -7 10 -8
14 -4 10 11 -9 45 53 38 70 -2 7 -1 12 4 11 21 -4 28 2 14 11 -13 8 -12 10 3
10 17 0 20 7 20 43 0 14 2 15 14 6 11 -10 12 -8 7 6 -5 13 -4 16 4 11 7 -4 12
-1 12 8 0 9 7 16 16 16 10 0 14 6 10 15 -3 8 0 14 7 12 7 -1 11 4 9 12 -2 8 3
11 12 8 17 -7 40 25 28 38 -4 4 4 2 17 -5 19 -10 22 -10 16 1 -6 9 -3 11 8 6
9 -3 16 -3 16 1 -3 20 3 23 19 11 9 -7 14 -10 10 -5 -12 15 20 37 46 32 14 -3
28 0 32 5 3 5 9 7 14 4 4 -3 11 2 14 11 6 15 9 15 28 -2 12 -11 18 -13 14 -6
-9 14 -9 14 31 3 25 -7 31 -6 27 4 -4 9 2 13 20 11 14 -2 27 3 30 11 3 7 11
12 18 11 7 -2 12 3 10 11 -2 7 5 22 14 32 9 10 14 25 11 33 -4 9 -2 18 3 21 6
4 10 1 10 -6 0 -7 3 -9 7 -6 3 4 -2 16 -12 28 -17 17 -17 22 -5 29 8 6 10 10
5 10 -6 0 -16 14 -24 31 -8 18 -22 34 -33 37 -11 2 -17 10 -15 16 3 8 -5 11
-25 8 -18 -3 -28 -1 -25 5 3 5 -3 9 -13 9 -10 0 -17 -3 -14 -7 2 -4 -7 -6 -21
-6 -14 0 -22 3 -20 7 6 10 -15 8 -31 -3 -7 -4 -26 -5 -42 -3 -21 2 -33 -2 -37
-12 -4 -11 -8 -12 -20 -2 -14 11 -19 7 -16 -12 0 -5 -3 -8 -9 -8 -5 0 -10 5
-10 12 0 6 -6 3 -14 -7 -13 -18 -13 -18 -25 1 -10 15 -11 16 -7 2 6 -19 -26
-43 -38 -30 -4 4 -12 -1 -17 -11 -6 -9 -14 -15 -20 -12 -5 4 -9 1 -9 -5 0 -6
-5 -8 -11 -5 -12 8 -51 -24 -44 -35 3 -4 -3 -7 -13 -6 -10 0 -16 -6 -16 -16 1
-10 -2 -16 -6 -13 -4 2 -16 -3 -26 -11 -10 -9 -13 -12 -5 -8 9 5 7 -2 -5 -18
-18 -25 -19 -25 -33 -6 -9 14 -10 23 -3 30 8 8 8 17 0 32 -8 14 -8 21 0 24 8
2 8 7 -1 17 -7 7 -16 10 -21 7 -5 -3 -6 0 -2 7 4 6 0 18 -8 27 -9 9 -14 20
-11 25 4 5 0 6 -8 3 -8 -3 -17 2 -20 10 -4 9 -18 16 -32 16 -17 0 -24 4 -19
12 5 7 3 8 -7 2 -21 -13 -51 -16 -44 -4 7 11 6 11 -13 3z"/>
<path d="M9672 6692 c9 -10 6 -11 -15 -3 -20 8 -27 7 -31 -6 -4 -9 -9 -13 -13
-10 -3 4 -12 -1 -20 -11 -8 -9 -11 -11 -7 -3 5 9 3 12 -5 7 -6 -4 -9 -11 -6
-15 2 -5 -4 -19 -15 -31 -11 -12 -17 -26 -15 -30 3 -5 -1 -11 -7 -13 -10 -4
-10 -6 0 -6 10 -1 10 -6 2 -21 -8 -15 -8 -20 2 -20 9 0 9 -3 0 -12 -7 -7 -8
-17 -1 -30 7 -12 6 -18 -1 -18 -6 0 -8 -5 -5 -10 9 -15 10 -104 1 -118 -4 -7
-2 -12 4 -12 8 0 8 -6 0 -20 -6 -11 -7 -20 -3 -20 10 0 10 -66 1 -75 -4 -4 -4
-14 0 -23 8 -21 7 -64 -1 -85 -3 -9 -2 -17 4 -17 6 0 6 -7 -1 -20 -8 -14 -8
-20 0 -20 8 0 8 -6 0 -20 -8 -14 -8 -20 0 -20 8 0 8 -6 0 -20 -6 -11 -7 -20
-3 -20 10 0 10 -66 1 -75 -4 -4 -4 -14 0 -23 8 -21 7 -64 -1 -85 -3 -9 -2 -17
4 -17 6 0 6 -7 -1 -20 -8 -15 -8 -20 2 -20 9 0 9 -3 0 -12 -7 -7 -8 -17 -1
-30 7 -12 6 -18 -1 -18 -6 0 -8 -5 -5 -10 9 -15 10 -104 1 -118 -4 -7 -2 -12
4 -12 8 0 8 -6 0 -20 -6 -11 -7 -20 -3 -20 10 0 10 -66 1 -75 -4 -4 -4 -14 0
-23 8 -21 7 -64 -1 -85 -3 -9 -2 -17 4 -17 6 0 6 -7 -1 -20 -8 -15 -8 -20 2
-20 9 0 9 -3 -2 -10 -8 -5 -10 -10 -5 -10 11 0 12 -86 2 -97 -3 -3 -2 -16 3
-28 6 -16 5 -25 -3 -29 -9 -3 -9 -5 1 -5 6 -1 12 -8 12 -17 0 -8 5 -12 10 -9
6 3 10 -1 10 -10 0 -19 25 -47 34 -38 3 4 6 1 6 -6 0 -8 8 -11 19 -8 12 3 22
-1 25 -10 5 -13 9 -13 23 -2 12 10 15 11 9 1 -6 -9 0 -11 24 -7 23 4 29 2 24
-6 -4 -8 -3 -9 5 -5 6 4 9 12 6 17 -4 5 6 9 22 9 22 0 25 2 13 10 -13 9 -13
10 0 11 8 1 19 0 25 -1 5 -1 7 1 3 5 -8 9 16 35 32 35 8 0 8 6 -1 21 -8 16 -8
20 0 14 8 -4 10 2 7 20 -4 23 -3 25 11 13 15 -12 15 -11 4 10 -7 12 -17 20
-24 17 -7 -4 -4 0 6 8 20 16 23 32 5 21 -9 -5 -9 -2 1 9 7 9 9 17 4 17 -10 0
-9 77 1 87 3 3 1 12 -5 20 -9 10 -7 13 7 13 17 0 17 1 -2 16 -10 8 -13 13 -6
9 6 -3 12 -2 12 4 0 5 -6 12 -12 14 -10 4 -10 6 0 6 10 1 10 6 1 22 -6 12 -7
19 -1 15 11 -7 9 74 -3 94 -5 9 -4 11 3 6 7 -4 12 -3 12 3 0 5 -6 12 -12 14
-10 4 -10 6 0 6 10 1 10 6 1 22 -8 15 -8 19 0 15 6 -4 11 0 11 9 0 9 -4 14 -8
11 -12 -7 -11 26 1 42 6 8 6 12 -1 12 -5 0 -9 11 -8 25 0 15 7 25 16 25 13 0
13 2 1 9 -20 13 -22 81 -2 81 13 1 13 2 -1 11 -10 5 -18 15 -18 20 0 6 4 8 8
5 5 -3 9 1 9 9 0 8 -3 15 -7 15 -8 0 -5 79 4 87 3 3 1 12 -5 20 -9 10 -7 13 7
13 17 0 17 1 -2 16 -10 8 -13 13 -6 9 6 -3 12 -2 12 4 0 5 -6 12 -12 14 -10 4
-10 6 0 6 10 1 10 6 1 22 -6 12 -7 19 -1 15 11 -7 9 74 -3 94 -5 9 -4 11 3 6
7 -4 12 -3 12 3 0 5 -6 12 -12 14 -10 4 -10 6 0 6 10 1 10 6 1 22 -8 15 -8 19
0 15 6 -4 11 0 11 9 0 9 -4 14 -8 11 -12 -7 -11 26 1 42 6 8 6 12 -1 12 -5 0
-9 11 -8 25 0 15 7 25 16 25 13 0 13 2 1 9 -20 13 -22 81 -2 81 13 1 13 2 -1
11 -10 5 -18 15 -18 20 0 6 4 8 8 5 5 -3 9 1 9 9 0 8 -3 15 -7 15 -8 0 -6 37
3 46 4 4 7 14 7 23 0 13 -2 14 -9 2 -6 -10 -8 -2 -6 23 3 27 0 36 -9 33 -9 -4
-11 2 -8 20 3 18 1 24 -7 19 -6 -4 -11 -1 -11 7 0 8 -9 22 -20 32 -11 10 -20
15 -20 10 0 -4 -7 -1 -17 6 -19 16 -23 16 -34 -3 -7 -10 -9 -10 -9 2 0 9 -9
15 -24 15 -19 0 -22 -3 -14 -13z m113 -22 c3 -5 1 -10 -4 -10 -6 0 -11 5 -11
10 0 6 2 10 4 10 3 0 8 -4 11 -10z"/>
<path d="M10669 6603 c-13 -16 -12 -17 4 -4 9 7 17 15 17 17 0 8 -8 3 -21 -13z"/>
<path d="M10245 5689 c-4 -6 -5 -12 -2 -15 2 -3 7 2 10 11 7 17 1 20 -8 4z"/>
<path d="M7426 5242 c-3 -5 1 -9 9 -9 8 0 12 4 9 9 -3 4 -7 8 -9 8 -2 0 -6 -4
-9 -8z"/>
<path d="M10430 5236 c0 -2 7 -7 16 -10 8 -3 12 -2 9 4 -6 10 -25 14 -25 6z"/>
<path d="M7795 4960 c3 -5 8 -10 11 -10 2 0 4 5 4 10 0 6 -5 10 -11 10 -5 0
-7 -4 -4 -10z"/>
<path d="M4790 4919 c0 -5 5 -7 10 -4 6 3 10 8 10 11 0 2 -4 4 -10 4 -5 0 -10
-5 -10 -11z"/>
</g>
</svg>
