<?xml version="1.0" standalone="no"?>
<!DOCTYPE svg PUBLIC "-//W3C//DTD SVG 20010904//EN"
 "http://www.w3.org/TR/2001/REC-SVG-20010904/DTD/svg10.dtd">
<svg version="1.0" xmlns="http://www.w3.org/2000/svg"
 width="700.000000pt" height="700.000000pt" viewBox="0 0 700.000000 700.000000"
 preserveAspectRatio="xMidYMid meet">
<metadata>
Created by potrace 1.11, written by Peter Selinger 2001-2013
</metadata>
<g transform="translate(0.000000,700.000000) scale(0.100000,-0.100000)"
fill="#000000" stroke="none">
<path d="M4495 6989 c-886 -52 -1753 -358 -2485 -878 -816 -579 -1435 -1412
-1757 -2366 -138 -409 -217 -822 -243 -1269 -6 -104 -10 -657 -10 -1327 l0
-1149 1149 0 c670 0 1223 4 1327 10 830 48 1593 291 2289 729 930 584 1629
1473 1982 2516 138 409 217 822 243 1269 6 104 10 657 10 1327 l0 1149 -1182
-1 c-651 -1 -1246 -6 -1323 -10z m-964 -2078 c84 -26 171 -83 231 -150 188
-209 571 -1278 747 -2085 37 -167 91 -468 91 -503 0 -10 -28 -13 -117 -13
-209 1 -303 24 -383 96 -65 59 -88 108 -106 225 -9 57 -29 167 -43 244 l-26
140 -552 3 c-519 2 -552 1 -557 -15 -12 -43 -79 -363 -109 -518 l-32 -170
-145 0 c-116 0 -154 4 -192 18 -172 66 -175 280 -12 864 94 341 251 792 389
1123 113 269 295 600 398 724 l41 49 156 -6 c118 -4 171 -10 221 -26z"/>
<path d="M3306 4303 c-96 -193 -226 -519 -297 -749 -37 -117 -66 -234 -61
-239 3 -3 194 -5 424 -5 400 0 418 1 418 18 0 53 -149 500 -230 692 -53 125
-183 390 -192 390 -4 0 -32 -48 -62 -107z"/>
</g>
</svg>
