<?xml version="1.0" encoding="utf-8"?>
<!-- Generator: Adobe Illustrator 24.1.0, SVG Export Plug-In . SVG Version: 6.00 Build 0)  -->
<svg version="1.1" id="XMLID_1_" xmlns="http://www.w3.org/2000/svg" xmlns:xlink="http://www.w3.org/1999/xlink" x="0px" y="0px"
	 viewBox="0 0 188 80" style="enable-background:new 0 0 188 80;" xml:space="preserve">
<style type="text/css">
	.st0{fill:#1A171B;}
	.st1{fill:#008F4F;}
</style>
<g id="logo">
	<path class="st0" d="M81.5,48.4c-1.1,1.1-2.8,1.6-4.6,1.6c-2.6,0-4.3-1.5-4.7-3.8h3.6c4.9,0,6.5-0.9,6.5-3.7c0-3.1-3-5.1-5.8-5.1
		c-4.1,0-7.1,3.3-7.1,7.9c0,4.2,3,7.3,7.2,7.3c3.2,0,5.2-1.1,5.2-2.8v-1.3L81.5,48.4L81.5,48.4z M72.3,43.4c0.1-1.8,1.6-3.7,4-3.7
		c2.5,0,3.4,1.5,3.4,2.8c0,0.9-0.4,1.3-4.1,1.3c0,0-2.7,0-3.3,0.1C72.3,43.9,72.3,43.4,72.3,43.4z M173.5,71.6
		c-1.1,1.1-2.8,1.6-4.6,1.6c-2.6,0-4.3-1.5-4.7-3.8h3.6c4.9,0,6.5-0.9,6.5-3.7c0-3.1-3-5.1-5.8-5.1c-4.1,0-7.1,3.3-7.1,7.8
		c0,4.2,3,7.3,7.2,7.3c3.2,0,5.2-1.1,5.2-2.8v-1.3H173.5L173.5,71.6z M164.3,66.7c0.1-1.8,1.6-3.7,4-3.7c2.5,0,3.4,1.5,3.4,2.8
		c0,0.9-0.4,1.3-4.1,1.3h-3.3L164.3,66.7L164.3,66.7z M153.1,48.4c-1.1,1.1-2.7,1.6-4.6,1.6c-2.6,0-4.3-1.5-4.7-3.8h3.6
		c4.9,0,6.5-0.9,6.5-3.7c0-3.1-3-5.1-5.8-5.1c-4.1,0-7.1,3.3-7.1,7.9c0,4.2,3,7.3,7.2,7.3c3.2,0,5.2-1.1,5.2-2.8v-1.3L153.1,48.4
		L153.1,48.4z M143.8,43.4c0.1-1.8,1.6-3.7,4-3.7c2.5,0,3.4,1.5,3.4,2.8c0,0.9-0.4,1.3-4.1,1.3h-3.3L143.8,43.4L143.8,43.4z
		 M163.1,43.6c-3.1-0.6-3.6-1-3.6-1.9c0-1.6,1.9-1.9,3.4-1.9c0,0,1.1,0,1.9,0.2c1,0.3,1.8,0.8,2.2,1.3h0.2V40c0-1.9-2.3-2.8-4.5-2.8
		c-3.9,0-6.1,2.4-6.1,4.6c0,2.4,1.7,3.2,4.2,3.7c3.5,0.7,3.9,1.4,3.9,2.2c0.1,1.4-1,2-3.1,2c-0.6,0-1.3-0.1-2-0.3
		c-1.2-0.3-2.1-0.9-2.5-1.4H157v1.2c0,1.7,2,3,4.7,3c3.7,0,6-1.8,6-4.7C167.6,45.6,166.1,44.3,163.1,43.6L163.1,43.6z M183.5,66.9
		c-3.1-0.6-3.6-1-3.6-1.9c0-1.6,1.9-1.9,3.4-1.9c0,0,1.1,0,1.9,0.2c1,0.3,1.8,0.8,2.2,1.3h0.2v-1.3c0-1.9-2.3-2.8-4.5-2.8
		c-3.9,0-6.1,2.4-6.1,4.6c0,2.4,1.7,3.2,4.2,3.7c3.5,0.7,3.9,1.4,3.9,2.2c0.1,1.4-1,2-3.1,2c-0.6,0-1.3-0.1-2-0.3
		c-1.2-0.3-2.1-0.9-2.5-1.4h-0.2v1.2c0,1.7,2,3,4.7,3c3.7,0,6-1.8,6-4.7C188.1,68.9,186.5,67.5,183.5,66.9L183.5,66.9z M75.5,60.6
		c-4.4,0-7.1,3-7.1,7.8c0,4.2,3,7.3,7.1,7.3c4.2,0,6.8-3,6.8-7.9C82.4,63.5,79.6,60.6,75.5,60.6z M75.8,73.1c-2.8,0-4.5-2-4.5-5.3
		c0-2.9,1.5-4.7,3.9-4.7c2.9,0,4.4,1.8,4.4,5.3C79.6,71.3,78.1,73.1,75.8,73.1z M67.8,51.7c-0.2-0.3-0.5-0.8-0.7-1.2l-1.8-4.1
		c-0.4-0.9-1-2.2-2.6-2.9c2.6-0.5,4.2-2.2,4.2-4.8c0-3.2-2.5-5.1-6.4-5.2c-0.7,0-3.7,0-6.6,0.9v16.1c0,1.1,0.6,1.7,1.7,1.7h1.1v-8
		c0.7,0.1,2,0.3,3.1,0.4s1.9,0.3,3.1,3l1.4,3.3c0.4,1,1.1,1.4,2.2,1.4c0.4,0,1.2-0.1,1.6-0.1V52L67.8,51.7L67.8,51.7z M60,42.2
		c-1.1,0-2.2-0.1-3.3-0.3v-5.7c1.6-0.3,3.3-0.3,3.7-0.3c2.3,0.1,3.7,1,3.7,3.1C64,41.4,62,42.2,60,42.2z M60.3,56.9
		c-2.5-0.1-5.3,0.5-6.5,0.9v16c0,1.1,0.7,1.7,1.7,1.7h1.1V68c0.8,0.4,2.1,0.7,3.7,0.7c3.8,0,6.7-2.6,6.7-6.1
		C67,59.2,64.3,57,60.3,56.9z M60.4,66.3c-1.6,0-2.8-0.2-3.7-0.7v-6c0.9-0.2,2.3-0.4,3.6-0.3c2.6,0.1,3.9,1.2,3.9,3.6
		C64.2,65.1,62.9,66.3,60.4,66.3z M123.3,35.9c1,0,1.8-0.8,1.8-1.8s-0.8-1.8-1.8-1.8s-1.9,0.8-1.9,1.8S122.3,35.9,123.3,35.9z
		 M90.6,52.4c1.8,0,2.8-0.7,2.8-2v-1.1h-0.2c-0.1,0.1-0.1,0.1-0.2,0.1c-0.2,0.1-0.7,0.3-1.6,0.4h-1c-1.4-0.1-2-1-2-2.8v-7h3.1
		c1.3,0,2.1-0.6,2.1-1.6v-0.9h-5.2v-2.9h-0.1c-0.9,0-1.6,0.6-1.9,1.1c-0.4,0.6-0.7,1.4-0.7,2.3v9.3C85.6,50.8,87.2,52.4,90.6,52.4
		L90.6,52.4z M135.6,52.4c1.8,0,2.8-0.7,2.8-2v-1.1h-0.2c0,0-0.1,0.1-0.2,0.1c-0.2,0.1-0.7,0.3-1.6,0.4c-0.3,0-0.7,0-1-0.1
		c-1.4-0.1-2-1-2-2.8v-7h3.1c1.3,0,2.1-0.6,2.1-1.6v-0.9h-5.2v-3h-0.2c-0.9,0-1.6,0.6-1.9,1.1c-0.4,0.6-0.7,1.4-0.7,2.3v9.3
		C130.7,50.7,132.3,52.4,135.6,52.4L135.6,52.4z M145.8,70.9v-8c0-1.3-1-2-1.9-2H143v10.3c0,2.9,1.5,4.4,4.6,4.4
		c1,0,1.6-0.6,1.6-1.6v-0.9H148C146.5,73.2,145.8,72.5,145.8,70.9z M111.6,37.2c-3.6,0-5.3,1.9-5.3,3.2v1.5h0.2
		c0.1-0.1,0.3-0.5,1.1-1c0.8-0.6,2.3-1,3.8-1c2.4,0,3.4,0.9,3.4,2.8v0.6h-1.9c-4.6,0-7.1,1.7-7.1,4.9c0,2.5,2.5,4.4,5.9,4.4
		c4.9,0,6-2.8,6-5.1V43C117.6,39.2,115.5,37.2,111.6,37.2z M114.9,47.1c0,2-0.9,2.8-3.1,2.8c-1.8,0-3.1-0.9-3.1-2.1
		c0-1.6,1.4-2.4,4.3-2.4h1.9L114.9,47.1L114.9,47.1z M132.9,60.5c-3.6,0-5.3,1.9-5.3,3.2V65h0.2c0.1-0.1,0.3-0.5,1-1
		c0.8-0.6,2.3-1,3.8-1c2.4,0,3.4,0.9,3.4,2.9v0.6h-1.9c-4.6,0-7.1,1.8-7.1,4.9c0,2.5,2.5,4.4,5.9,4.4c4.9,0,6-2.8,6-5.1V66
		C138.9,62.4,136.8,60.5,132.9,60.5L132.9,60.5z M136.1,70.4c0,2-0.9,2.8-3.1,2.8c-1.8,0-3.1-0.9-3.1-2.1c0-1.6,1.4-2.4,4.3-2.4h1.9
		L136.1,70.4L136.1,70.4z M128.1,50.8v-0.9h-1.2c-1.5,0-2.2-0.7-2.2-2.2v-8c0-1.3-0.9-2-1.9-2h-0.9V48c0,2.9,1.5,4.4,4.6,4.4
		C127.4,52.4,128.1,51.8,128.1,50.8L128.1,50.8z M144.5,59.2c1,0,1.8-0.8,1.8-1.8s-0.8-1.8-1.8-1.8s-1.9,0.8-1.9,1.8
		S143.5,59.2,144.5,59.2z M121.2,71V58c0-1.2-0.7-2-1.9-2h-0.9v15.3c0,2.9,1.6,4.4,4.7,4.4c1.5,0,2.2-0.5,2.2-1.6v-0.9h-1.8
		C121.9,73.2,121.2,72.5,121.2,71z M92.2,60.5c-4.7,0-7.3,2.8-7.3,8V78c0,1.3,0.6,2,1.8,2h1v-6.6c0.9,1.4,2.5,2.3,4.2,2.3
		c4.1,0,6.9-3.2,6.9-7.9C98.8,63.3,95.4,60.5,92.2,60.5z M92.2,73.2c-2.9,0-4.5-1.9-4.5-5.3c0-3,1.5-4.7,4-4.7
		c2.8,0,4.3,1.9,4.3,5.4C96,71.4,94.6,73.2,92.2,73.2z M104.2,41.1h0.2v-1.4c0-0.6-0.3-1.9-2.9-1.9c-3.1,0-5.1,2.4-5.1,6.2v6.6
		c0,1.1,0.6,1.8,1.6,1.8h1.2v-8.2c0-2.9,0.7-3.9,2.6-3.9C102.8,40.3,103.7,40.5,104.2,41.1z M159.7,64.3h0.2v-1.4c0-0.6-0.3-2-2.9-2
		c-3.1,0-5.1,2.4-5.1,6.2v6.6c0,1,0.5,1.8,1.5,1.8h1.2l0.1-8.2c0-2.9,0.7-3.9,2.6-3.9C158.2,63.5,159.2,63.8,159.7,64.3z
		 M112.6,60.8h-0.8v8.1c0,2.9-1.1,4.3-3.4,4.3s-3.6-1.6-3.6-4.4v-5.9c0-1.3-0.7-2-1.9-2H102V69c0,4.2,2.4,6.8,6.2,6.8
		c4.1,0,6.4-2.3,6.4-6.6v-6.3C114.6,61.5,113.9,60.8,112.6,60.8z"/>
	<path class="st1" d="M80.6,0c-5.4,0.3-11.7,1.3-17.1,2.8C60.3,3.7,52.3,5.7,40,12.4c-7.9,4.3-17.4,10.8-25.2,19.7
		C6.9,41.1,1.9,51.4,0,61.2c7.8,0.6,19.1-3.1,31.8-11.8c2.7-1.8,5.4-4.2,8.1-6.6c0,0,7.2-7.2,12.6-14.1c3-3.9,7.1-9,11.1-13.5
		c0.1-0.1,0.8-0.9,0.8-0.9C64.7,13.7,73,3.7,80.6,0z M84.6,0c-2.7,1.2-9.7,5.1-17.4,14.2c4-0.3,12.1-1.3,18.1-3.6
		c5.4-2.1,10.3-4.9,14.3-8.2C95,0.8,90.2,0,84.6,0z"/>
</g>
</svg>
