<?xml version="1.0" encoding="iso-8859-1"?>
<!-- Generator: Adobe Illustrator 21.1.0, SVG Export Plug-In . SVG Version: 6.00 Build 0)  -->
<svg version="1.1" id="Calque_1" xmlns="http://www.w3.org/2000/svg" xmlns:xlink="http://www.w3.org/1999/xlink" x="0px" y="0px"
	 viewBox="0 0 122 58.6667" style="enable-background:new 0 0 122 58.6667;" xml:space="preserve">
<style type="text/css">
	.VoÃ_x00BB_teÂ_x00A0__x002D__x0020_Vert{fill:url(#SVGID_1_);stroke:#FFFFFF;stroke-width:0.25;stroke-miterlimit:1;}
	.st0{fill:#009453;}
	.st1{stroke:#000000;stroke-width:0.2;}
</style>
<linearGradient id="SVGID_1_" gradientUnits="userSpaceOnUse" x1="4.0335" y1="-1.5716" x2="4.7406" y2="-2.2787">
	<stop  offset="0" style="stop-color:#1DA238"/>
	<stop  offset="0.9831" style="stop-color:#24391D"/>
</linearGradient>
<g>
	<g>
		<path class="st0" d="M14.3333,7.3561H5.3314c-0.7153,0-1.2979,0.5825-1.2979,1.2989v20.7002c0,0.7275,0.5703,1.2973,1.2979,1.2973
			c0.7524,0,1.2978-0.5459,1.2978-1.2973v-8.8164h7.7041c4.3726,0,7.1978-2.5875,7.1978-6.5914S18.7059,7.3561,14.3333,7.3561z
			 M14.7376,18.1452H6.6292V9.7507h8.1084c2.5107,0,4.1978,1.6865,4.1978,4.1967C18.9354,16.4582,17.2483,18.1452,14.7376,18.1452z"
			/>
	</g>
	<path class="st0" d="M30.9119,14.9079c-1.9282,0-3.6098,0.9101-4.5679,2.3989v-1.1006c0-0.7524-0.5463-1.2983-1.2978-1.2983
		c-0.7524,0-1.2979,0.5459-1.2979,1.2983v13.149c0,0.7031,0.5943,1.2973,1.2979,1.2973c0.7153,0,1.2978-0.582,1.2978-1.2973v-5.8335
		c0-3.6817,1.8785-6.253,4.5679-6.253c0.7647,0,1.2979-0.4926,1.2979-1.1977C32.2098,15.3972,31.6644,14.9079,30.9119,14.9079z"/>
	<path class="st0" d="M41.1946,14.7736c-4.5464,0-7.9736,3.4419-7.9736,8.0073c0,4.565,3.4272,8.0069,7.9736,8.0069
		c4.5454,0,7.9727-3.4419,7.9727-8.0069C49.1673,18.2155,45.74,14.7736,41.1946,14.7736z M41.1946,28.4616
		c-3.0659,0-5.3774-2.4419-5.3774-5.6807c0-3.2387,2.3115-5.6811,5.3774-5.6811c3.0655,0,5.377,2.4424,5.377,5.6811
		C46.5716,26.0197,44.2601,28.4616,41.1946,28.4616z"/>
	<path class="st0" d="M59.5638,9.6154h0.6064c0.6338,0,1.1294-0.4966,1.1294-1.1299c0-0.6333-0.4956-1.1294-1.1294-1.1294h-0.708
		c-3.769,0-5.6807,2.0249-5.6807,6.0181v1.8032h-2.0737c-0.6328,0-1.1289,0.4966-1.1289,1.1299
		c0,0.6333,0.4961,1.1294,1.1289,1.1294h2.0737v11.9185c0,0.7275,0.5699,1.2973,1.2984,1.2973c0.7275,0,1.2978-0.5698,1.2978-1.2973
		V17.4367h3.5562c0.6128,0,1.1299-0.5171,1.1299-1.1294c0-0.6123-0.5171-1.1299-1.1299-1.1299h-3.5562v-1.8369
		C56.3777,10.2487,57.6512,9.6154,59.5638,9.6154z"/>
	<g>
		<path class="st0" d="M76.5716,22.6115c0-4.5415-3.0986-7.8379-7.3667-7.8379c-4.376,0-7.8042,3.5171-7.8042,8.0073
			c0,3.979,2.7505,8.0069,8.0063,8.0069c2.5279,0,4.9165-1.1304,6.2398-2.96c0.1782-0.2666,0.25-0.4883,0.25-0.7651
			c0-0.6441-0.4849-1.1299-1.1284-1.1299c-0.4815,0-0.7847,0.2886-0.9966,0.5405c-1.1538,1.3794-2.541,2.022-4.3648,2.022
			c-3.2714,0-5.1323-2.3447-5.3574-4.7539h11.3926C76.0545,23.7414,76.5716,23.2238,76.5716,22.6115z M64.1356,21.4821
			c0.3959-2.5967,2.4824-4.4497,5.0693-4.4497c2.542,0,4.52,1.814,4.9028,4.4497H64.1356z"/>
	</g>
	<path class="st0" d="M81.7791,7.0866c-0.7275,0-1.2974,0.5703-1.2974,1.2983v20.9703c0,0.7275,0.5699,1.2973,1.2974,1.2973
		s1.2983-0.5698,1.2983-1.2973V8.3849C83.0774,7.6569,82.5066,7.0866,81.7791,7.0866z"/>
	<circle class="st0" cx="89.0271" cy="11.014" r="1.5677"/>
	<path class="st0" d="M89.0272,14.9079c-0.7276,0-1.2984,0.5703-1.2984,1.2983v13.149c0,0.7275,0.5708,1.2973,1.2984,1.2973
		c0.728,0,1.2978-0.5698,1.2978-1.2973v-13.149C90.325,15.4782,89.7552,14.9079,89.0272,14.9079z"/>
	<g>
		<path class="st0" d="M102.2098,14.7736c-4.6402,0-8.0074,3.3672-8.0074,8.0073c0,3.856,2.4839,8.0069,7.939,8.0069
			c2.1953,0,4.0859-0.8262,5.4111-2.3452v0.9126c0,0.7275,0.5713,1.2973,1.2989,1.2973c0.7275,0,1.2973-0.5698,1.2973-1.2973
			v-6.5411C110.1487,18.1555,106.8094,14.7736,102.2098,14.7736z M102.2098,28.4616c-3.2061,0-5.4449-2.3359-5.4449-5.6807
			c0-3.3452,2.2388-5.6811,5.4449-5.6811c3.0962,0,5.3427,2.3891,5.3427,5.6811C107.5525,25.9665,105.2054,28.4616,102.2098,28.4616
			z"/>
	</g>
	<circle class="st0" cx="116.2331" cy="28.8825" r="1.7025"/>
</g>
<g>
	<path class="st1" d="M5.0858,42.1691c-0.1426,0-0.252-0.1094-0.252-0.2524v-5.1621c0-0.1431,0.1094-0.2525,0.252-0.2525h3.2373
		c0.126,0,0.2266,0.1011,0.2266,0.2271c0,0.1264-0.1006,0.227-0.2266,0.227H5.3382v2.0264h1.7319c0.126,0,0.227,0.1006,0.227,0.2271
		c0,0.1259-0.1011,0.227-0.227,0.227H5.3382v2.48C5.3382,42.0597,5.2288,42.1691,5.0858,42.1691z"/>
	<path class="st1" d="M10.0428,42.2028c-1.1265,0-1.917-0.8579-1.917-1.9253c0-1.0678,0.7905-1.9258,1.917-1.9258
		c1.1269,0,1.917,0.858,1.917,1.9258C11.9598,41.3449,11.1698,42.2028,10.0428,42.2028z M10.0428,38.7892
		c-0.79,0-1.4121,0.6304-1.4121,1.4883c0,0.8574,0.6221,1.4878,1.4121,1.4878c0.7905,0,1.4126-0.6304,1.4126-1.4878
		C11.4554,39.4196,10.8333,38.7892,10.0428,38.7892z"/>
	<path class="st1" d="M16.2859,41.9167c0,0.143-0.1093,0.2524-0.2519,0.2524c-0.1431,0-0.2525-0.1094-0.2525-0.2524v-1.8833
		c0-0.6978-0.5297-1.2276-1.2192-1.2276c-0.6894,0-1.2187,0.5298-1.2187,1.2276v1.8833c0,0.143-0.1094,0.2524-0.2524,0.2524
		c-0.1431,0-0.2524-0.1094-0.2524-0.2524v-1.8413c0-0.9668,0.7485-1.7237,1.7236-1.7237c0.9756,0,1.7236,0.7569,1.7236,1.7237
		V41.9167z"/>
	<path class="st1" d="M20.5106,41.4289c-0.3194,0.4795-0.8321,0.7739-1.5049,0.7739c-1.0254,0-1.8413-0.8071-1.8413-1.9253
		c0-1.1186,0.8159-1.9258,1.8413-1.9258c0.6728,0,1.1855,0.2945,1.5049,0.774v-2.4385c0-0.1431,0.1093-0.252,0.2524-0.252
		c0.1431,0,0.2524,0.1089,0.2524,0.252v5.2295c0,0.143-0.1093,0.2524-0.2524,0.2524c-0.1431,0-0.2524-0.1094-0.2524-0.2524V41.4289z
		 M19.0814,41.7736c0.8662,0,1.4292-0.6806,1.4292-1.4961c0-0.8159-0.563-1.4966-1.4292-1.4966
		c-0.8409,0-1.4126,0.6221-1.4126,1.4966C17.6688,41.1515,18.2405,41.7736,19.0814,41.7736z"/>
	<path class="st1" d="M25.7693,41.9167c0,0.143-0.1093,0.2524-0.2519,0.2524c-0.1431,0-0.2525-0.1094-0.2525-0.2524v-0.437
		c-0.3027,0.4453-0.7905,0.7231-1.4209,0.7231c-1.2275,0-1.9086-0.8999-1.9086-1.9253c0-1.1689,0.8579-1.9258,1.9252-1.9258
		c1.085,0,1.9087,0.774,1.9087,1.9341V41.9167z M23.8606,38.7892c-0.8574,0-1.4292,0.6387-1.4292,1.4883
		c0,0.8491,0.5635,1.4878,1.4292,1.4878c0.816,0,1.4043-0.6806,1.4043-1.4878C25.2649,39.4196,24.6849,38.7892,23.8606,38.7892z"/>
	<path class="st1" d="M28.5398,38.4528c0.1094,0,0.2105,0.0923,0.2105,0.2105c0,0.1176-0.1011,0.2099-0.2105,0.2099h-0.8491v3.0435
		c0,0.143-0.1093,0.2524-0.2524,0.2524c-0.1426,0-0.252-0.1094-0.252-0.2524v-3.0435h-0.7485c-0.1177,0-0.21-0.0923-0.21-0.2099
		c0-0.1182,0.0923-0.2105,0.21-0.2105h0.7485v-1.1772c0-0.1426,0.1094-0.252,0.252-0.252c0.1431,0,0.2524,0.1094,0.2524,0.252
		v1.1772H28.5398z"/>
	<path class="st1" d="M29.5296,37.0236c0.1768,0,0.3193,0.1431,0.3193,0.3194c0,0.1767-0.1425,0.3193-0.3193,0.3193
		s-0.3193-0.1426-0.3193-0.3193C29.2103,37.1667,29.3528,37.0236,29.5296,37.0236z M29.5296,42.1691
		c-0.1431,0-0.2524-0.1094-0.2524-0.2524v-3.2788c0-0.1431,0.1093-0.2525,0.2524-0.2525c0.1431,0,0.2524,0.1094,0.2524,0.2525
		v3.2788C29.782,42.0597,29.6727,42.1691,29.5296,42.1691z"/>
	<path class="st1" d="M32.6219,42.2028c-1.1265,0-1.917-0.8579-1.917-1.9253c0-1.0678,0.7905-1.9258,1.917-1.9258
		c1.1269,0,1.917,0.858,1.917,1.9258C34.5389,41.3449,33.7488,42.2028,32.6219,42.2028z M32.6219,38.7892
		c-0.7901,0-1.4121,0.6304-1.4121,1.4883c0,0.8574,0.622,1.4878,1.4121,1.4878c0.7905,0,1.4126-0.6304,1.4126-1.4878
		C34.0345,39.4196,33.4124,38.7892,32.6219,38.7892z"/>
	<path class="st1" d="M38.8646,41.9167c0,0.143-0.1094,0.2524-0.252,0.2524c-0.1431,0-0.2524-0.1094-0.2524-0.2524v-1.8833
		c0-0.6978-0.5298-1.2276-1.2193-1.2276c-0.6894,0-1.2187,0.5298-1.2187,1.2276v1.8833c0,0.143-0.1094,0.2524-0.2525,0.2524
		c-0.143,0-0.2524-0.1094-0.2524-0.2524v-1.8413c0-0.9668,0.7485-1.7237,1.7236-1.7237c0.9756,0,1.7237,0.7569,1.7237,1.7237
		V41.9167z"/>
	<path class="st1" d="M45.4246,41.4289c-0.3193,0.4795-0.832,0.7739-1.5049,0.7739c-1.0254,0-1.8413-0.8071-1.8413-1.9253
		c0-1.1186,0.8159-1.9258,1.8413-1.9258c0.6729,0,1.1856,0.2945,1.5049,0.774v-2.4385c0-0.1431,0.1094-0.252,0.2525-0.252
		c0.143,0,0.2524,0.1089,0.2524,0.252v5.2295c0,0.143-0.1094,0.2524-0.2524,0.2524c-0.1431,0-0.2525-0.1094-0.2525-0.2524V41.4289z
		 M43.9954,41.7736c0.8662,0,1.4292-0.6806,1.4292-1.4961c0-0.8159-0.563-1.4966-1.4292-1.4966
		c-0.8408,0-1.4126,0.6221-1.4126,1.4966C42.5828,41.1515,43.1546,41.7736,43.9954,41.7736z"/>
	<path class="st1" d="M50.49,40.235c0,0.1177-0.101,0.2105-0.2099,0.2105h-2.9175c0.0249,0.6724,0.5298,1.3281,1.4121,1.3281
		c0.4712,0,0.8408-0.168,1.1436-0.5293c0.042-0.0508,0.101-0.1094,0.1933-0.1094c0.1348,0,0.2105,0.1006,0.2105,0.21
		c0,0.0591-0.0171,0.1011-0.0508,0.1514c-0.2857,0.3955-0.832,0.7065-1.4966,0.7065c-1.2021,0-1.9253-0.9082-1.9253-1.9253
		c0-1.0259,0.7652-1.9258,1.875-1.9258C49.7586,38.3517,50.49,39.1589,50.49,40.235z M48.7244,38.7722
		c-0.7397,0-1.2778,0.5634-1.3452,1.2529h2.6484C49.9603,39.319,49.4476,38.7722,48.7244,38.7722z"/>
	<path class="st1" d="M54.2591,39.1257c0.3193-0.4795,0.832-0.774,1.5049-0.774c1.0254,0,1.8413,0.8072,1.8413,1.9258
		c0,1.1182-0.8159,1.9253-1.8413,1.9253c-0.6729,0-1.1856-0.2944-1.5049-0.7739v2.06c0,0.1431-0.1094,0.2525-0.2525,0.2525
		c-0.143,0-0.2519-0.1094-0.2519-0.2525v-4.851c0-0.1431,0.1089-0.2525,0.2519-0.2525c0.1431,0,0.2525,0.1094,0.2525,0.2525V39.1257
		z M55.6883,38.7809c-0.8662,0-1.4292,0.6807-1.4292,1.4966c0,0.8155,0.563,1.4961,1.4292,1.4961
		c0.8408,0,1.4126-0.6221,1.4126-1.4961C57.1009,39.403,56.5291,38.7809,55.6883,38.7809z"/>
	<path class="st1" d="M60.2405,38.8312c-0.7231,0-1.2104,0.6895-1.2104,1.6309v1.4546c0,0.1347-0.1094,0.2524-0.2525,0.2524
		c-0.1342,0-0.2524-0.1177-0.2524-0.2524v-3.2788c0-0.1514,0.1094-0.2525,0.2524-0.2525c0.1514,0,0.2525,0.1094,0.2525,0.2525
		v0.5884c0.1597-0.4791,0.6138-0.8409,1.2104-0.8409c0.1431,0,0.2525,0.0845,0.2525,0.2188
		C60.493,38.7555,60.3753,38.8312,60.2405,38.8312z"/>
	<path class="st1" d="M64.3753,40.235c0,0.1177-0.1011,0.2105-0.21,0.2105h-2.9174c0.0249,0.6724,0.5293,1.3281,1.4121,1.3281
		c0.4712,0,0.8408-0.168,1.1435-0.5293c0.042-0.0508,0.1011-0.1094,0.1934-0.1094c0.1347,0,0.2104,0.1006,0.2104,0.21
		c0,0.0591-0.0171,0.1011-0.0508,0.1514c-0.2856,0.3955-0.832,0.7065-1.4965,0.7065c-1.2022,0-1.9253-0.9082-1.9253-1.9253
		c0-1.0259,0.7651-1.9258,1.875-1.9258C63.6439,38.3517,64.3753,39.1589,64.3753,40.235z M62.6097,38.7722
		c-0.7398,0-1.2779,0.5634-1.3452,1.2529h2.6484C63.8455,39.319,63.3328,38.7722,62.6097,38.7722z M62.2649,37.4606l0.6055-0.8574
		c0.0337-0.0503,0.1011-0.0923,0.1768-0.0923c0.1089,0,0.2099,0.0669,0.2099,0.1934c0,0.0669-0.0254,0.1089-0.0503,0.1426
		l-0.58,0.8154c-0.0508,0.0674-0.1011,0.1348-0.2105,0.1348s-0.2016-0.0923-0.2016-0.2017
		C62.2147,37.5446,62.2313,37.5114,62.2649,37.4606z"/>
	<path class="st1" d="M66.4481,41.3869l1.2612-2.8501c0.042-0.1006,0.1006-0.1514,0.2182-0.1514
		c0.1431,0,0.2359,0.1011,0.2359,0.2271c0,0.042-0.0171,0.0928-0.0337,0.126l-1.4717,3.2876
		c-0.042,0.0839-0.0923,0.143-0.2099,0.143c-0.1177,0-0.168-0.0591-0.2105-0.143l-1.4712-3.2876
		c-0.0166-0.0332-0.0337-0.084-0.0337-0.126c0-0.126,0.0928-0.2271,0.2354-0.2271c0.1176,0,0.1767,0.0508,0.2187,0.1514
		L66.4481,41.3869z"/>
	<path class="st1" d="M70.388,42.2028c-1.1265,0-1.917-0.8579-1.917-1.9253c0-1.0678,0.7905-1.9258,1.917-1.9258
		c1.1269,0,1.917,0.858,1.917,1.9258C72.305,41.3449,71.5149,42.2028,70.388,42.2028z M70.388,38.7892
		c-0.79,0-1.4126,0.6304-1.4126,1.4883c0,0.8574,0.6226,1.4878,1.4126,1.4878c0.7905,0,1.4126-0.6304,1.4126-1.4878
		C71.8006,39.4196,71.1785,38.7892,70.388,38.7892z"/>
	<path class="st1" d="M76.0423,38.7219c0,0-0.8242,2.018-1.2359,2.9931c-0.3281,0.7818-0.8579,1.5386-1.6059,1.9844
		c-0.042,0.0249-0.084,0.042-0.1514,0.042c-0.1347,0-0.2187-0.0928-0.2187-0.2105c0-0.0922,0.0508-0.1513,0.1513-0.2099
		c0.4624-0.3198,0.8072-0.6646,1.1436-1.2447l-1.4292-3.3378c-0.0171-0.042-0.0337-0.084-0.0337-0.126
		c0-0.126,0.0923-0.2271,0.2354-0.2271c0.1176,0,0.1767,0.0591,0.2187,0.1597l1.2695,2.9932l1.2442-3.0098
		c0.0337-0.084,0.0923-0.1431,0.2104-0.1431c0.1426,0,0.2266,0.1011,0.2266,0.2271C76.0672,38.6462,76.0589,38.6799,76.0423,38.7219
		z"/>
	<path class="st1" d="M80.1502,41.9167c0,0.143-0.1094,0.2524-0.252,0.2524c-0.143,0-0.2524-0.1094-0.2524-0.2524v-0.437
		c-0.3027,0.4453-0.7905,0.7231-1.4209,0.7231c-1.2275,0-1.9087-0.8999-1.9087-1.9253c0-1.1689,0.8579-1.9258,1.9253-1.9258
		c1.085,0,1.9087,0.774,1.9087,1.9341V41.9167z M78.2415,38.7892c-0.8574,0-1.4292,0.6387-1.4292,1.4883
		c0,0.8491,0.5635,1.4878,1.4292,1.4878c0.8159,0,1.4043-0.6806,1.4043-1.4878C79.6458,39.4196,79.0657,38.7892,78.2415,38.7892z"/>
	<path class="st1" d="M84.6439,41.9167c0,0.143-0.1094,0.2524-0.252,0.2524c-0.1431,0-0.2524-0.1094-0.2524-0.2524v-1.8833
		c0-0.6978-0.5298-1.2276-1.2193-1.2276c-0.6894,0-1.2187,0.5298-1.2187,1.2276v1.8833c0,0.143-0.1094,0.2524-0.2525,0.2524
		c-0.143,0-0.2524-0.1094-0.2524-0.2524v-1.8413c0-0.9668,0.7485-1.7237,1.7236-1.7237c0.9756,0,1.7237,0.7569,1.7237,1.7237
		V41.9167z"/>
	<path class="st1" d="M88.9363,39.0583c0.0337,0.0503,0.0508,0.0923,0.0508,0.1514c0,0.1259-0.1094,0.2099-0.2441,0.2099
		c-0.084,0-0.1343-0.0503-0.1763-0.1006c-0.3027-0.3618-0.6138-0.5298-1.1099-0.5298c-0.8242,0-1.4209,0.6641-1.4209,1.4883
		c0,0.8238,0.5967,1.4878,1.4209,1.4878c0.4961,0,0.8072-0.168,1.1099-0.5298c0.042-0.0503,0.0923-0.1006,0.1763-0.1006
		c0.1347,0,0.2441,0.084,0.2441,0.21c0,0.0591-0.0171,0.1011-0.0508,0.1514c-0.2519,0.3784-0.79,0.7065-1.4795,0.7065
		c-1.1015,0-1.9253-0.8242-1.9253-1.9253c0-1.1015,0.8238-1.9258,1.9253-1.9258C88.1463,38.3517,88.6844,38.6799,88.9363,39.0583z"
		/>
	<path class="st1" d="M93.1951,40.235c0,0.1177-0.1011,0.2105-0.2099,0.2105h-2.9175c0.0249,0.6724,0.5298,1.3281,1.4121,1.3281
		c0.4712,0,0.8408-0.168,1.1435-0.5293c0.042-0.0508,0.1011-0.1094,0.1934-0.1094c0.1348,0,0.2105,0.1006,0.2105,0.21
		c0,0.0591-0.0171,0.1011-0.0508,0.1514c-0.2857,0.3955-0.8321,0.7065-1.4966,0.7065c-1.2022,0-1.9253-0.9082-1.9253-1.9253
		c0-1.0259,0.7651-1.9258,1.875-1.9258C92.4637,38.3517,93.1951,39.1589,93.1951,40.235z M91.4295,38.7722
		c-0.7397,0-1.2778,0.5634-1.3452,1.2529h2.6484C92.6653,39.319,92.1526,38.7722,91.4295,38.7722z"/>
	<path class="st1" d="M6.3724,52.0895l-2.228-5.2382c-0.0171-0.042-0.0254-0.084-0.0254-0.1177c0-0.126,0.1094-0.2183,0.2354-0.2183
		c0.0928,0,0.1685,0.042,0.2104,0.1343l2.0347,4.7925l2.0347-4.7925c0.042-0.0923,0.1177-0.1343,0.21-0.1343
		c0.126,0,0.2354,0.0923,0.2354,0.2183c0,0.0337-0.0083,0.0757-0.0249,0.1177l-2.228,5.2382
		c-0.042,0.0923-0.1011,0.1597-0.227,0.1597C6.473,52.2492,6.4144,52.1818,6.3724,52.0895z"/>
	<path class="st1" d="M10.7401,52.2829c-1.1265,0-1.917-0.8579-1.917-1.9253c0-1.0679,0.7905-1.9258,1.917-1.9258
		c1.127,0,1.917,0.8579,1.917,1.9258C12.6571,51.425,11.867,52.2829,10.7401,52.2829z M10.7401,48.8693
		c-0.79,0-1.4121,0.6304-1.4121,1.4883c0,0.8574,0.6221,1.4878,1.4121,1.4878c0.7905,0,1.4126-0.6304,1.4126-1.4878
		C12.1527,49.4997,11.5306,48.8693,10.7401,48.8693z"/>
	<path class="st1" d="M15.2928,48.9113c-0.7232,0-1.2105,0.6895-1.2105,1.6309v1.4546c0,0.1347-0.1093,0.2524-0.2524,0.2524
		c-0.1343,0-0.252-0.1177-0.252-0.2524V48.718c0-0.1514,0.1089-0.2525,0.252-0.2525c0.1514,0,0.2524,0.1094,0.2524,0.2525v0.5883
		c0.1597-0.479,0.6138-0.8408,1.2105-0.8408c0.143,0,0.2524,0.0845,0.2524,0.2188C15.5452,48.8356,15.4275,48.9113,15.2928,48.9113z
		"/>
	<path class="st1" d="M17.5023,52.2829c-0.5552,0-1.0513-0.1768-1.4126-0.4795c-0.0674-0.0503-0.1011-0.126-0.1011-0.1934
		c0-0.1093,0.084-0.185,0.1933-0.185c0.084,0,0.1431,0.0337,0.1934,0.0757c0.3198,0.2524,0.7402,0.3955,1.1519,0.3955
		c0.5888,0,0.9418-0.2359,0.9418-0.6055c0-0.4204-0.4287-0.5464-0.9667-0.6977c-1.1187-0.3111-1.4717-0.6558-1.4717-1.1856
		c0-0.6558,0.58-0.9756,1.4463-0.9756c0.3784,0,0.7817,0.1011,1.1347,0.2945c0.1348,0.0673,0.2271,0.143,0.2271,0.2524
		c0,0.1094-0.0757,0.1934-0.21,0.1934c-0.0674,0-0.126-0.0337-0.2016-0.0757c-0.2691-0.1431-0.6226-0.2525-0.9585-0.2525
		c-0.5469,0-0.9502,0.1597-0.9502,0.5464c0,0.3447,0.2353,0.5215,1.0258,0.7485c0.8321,0.2437,1.4122,0.4625,1.4122,1.1265
		C18.9564,51.8537,18.4354,52.2829,17.5023,52.2829z"/>
	<path class="st1" d="M21.5257,52.2829c-1.1265,0-1.917-0.8579-1.917-1.9253c0-1.0679,0.7905-1.9258,1.917-1.9258
		c1.1269,0,1.917,0.8579,1.917,1.9258C23.4427,51.425,22.6526,52.2829,21.5257,52.2829z M21.5257,48.8693
		c-0.7901,0-1.4126,0.6304-1.4126,1.4883c0,0.8574,0.6225,1.4878,1.4126,1.4878c0.7905,0,1.4126-0.6304,1.4126-1.4878
		C22.9383,49.4997,22.3162,48.8693,21.5257,48.8693z"/>
	<path class="st1" d="M26.0784,48.9113c-0.7231,0-1.2104,0.6895-1.2104,1.6309v1.4546c0,0.1347-0.1094,0.2524-0.2525,0.2524
		c-0.1342,0-0.2524-0.1177-0.2524-0.2524V48.718c0-0.1514,0.1094-0.2525,0.2524-0.2525c0.1514,0,0.2525,0.1094,0.2525,0.2525v0.5883
		c0.1596-0.479,0.6137-0.8408,1.2104-0.8408c0.1431,0,0.2525,0.0845,0.2525,0.2188C26.3309,48.8356,26.2132,48.9113,26.0784,48.9113
		z"/>
	<path class="st1" d="M28.4388,52.1652c-1.0259,0-1.8667-0.7314-1.8667-1.8667c0-1.1352,0.8408-1.8667,1.8667-1.8667
		c0.748,0,1.2612,0.4121,1.4795,0.7739V48.718c0-0.1431,0.1093-0.2525,0.2524-0.2525c0.1431,0,0.2524,0.1094,0.2524,0.2525v3.1694
		c0,1.1352-0.5888,1.9341-1.934,1.9341c-0.6558,0-1.1685-0.1768-1.4966-0.3785c-0.0757-0.0419-0.1514-0.1093-0.1514-0.2187
		c0-0.1177,0.0845-0.1851,0.1934-0.1851c0.0757,0,0.1513,0.0337,0.2187,0.0674c0.3448,0.1851,0.7486,0.3028,1.2359,0.3028
		c1.0424,0,1.4292-0.6304,1.4292-1.4883v-0.5298C29.6243,51.8708,29.0355,52.1652,28.4388,52.1652z M28.4891,51.7531
		c0.8071,0,1.4292-0.6641,1.4292-1.4546s-0.6221-1.4546-1.4292-1.4546c-0.8409,0-1.4209,0.5718-1.4209,1.4546
		C27.0682,51.1813,27.6482,51.7531,28.4891,51.7531z"/>
	<path class="st1" d="M34.9842,50.3151c0,0.1177-0.1011,0.2105-0.21,0.2105h-2.9175c0.0249,0.6723,0.5298,1.3281,1.4122,1.3281
		c0.4711,0,0.8408-0.168,1.1435-0.5293c0.042-0.0508,0.1011-0.1094,0.1934-0.1094c0.1347,0,0.2104,0.1006,0.2104,0.21
		c0,0.0591-0.0171,0.1011-0.0508,0.1513c-0.2856,0.3956-0.832,0.7066-1.4965,0.7066c-1.2022,0-1.9253-0.9082-1.9253-1.9253
		c0-1.0259,0.7651-1.9258,1.875-1.9258C34.2527,48.4318,34.9842,49.2389,34.9842,50.3151z M33.2186,48.8522
		c-0.7398,0-1.2779,0.5635-1.3453,1.253h2.6485C34.4544,49.3991,33.9417,48.8522,33.2186,48.8522z"/>
	<path class="st1" d="M37.2,52.2829c-0.5552,0-1.0513-0.1768-1.4126-0.4795c-0.0674-0.0503-0.1011-0.126-0.1011-0.1934
		c0-0.1093,0.084-0.185,0.1934-0.185c0.084,0,0.1431,0.0337,0.1934,0.0757c0.3198,0.2524,0.7402,0.3955,1.1518,0.3955
		c0.5889,0,0.9419-0.2359,0.9419-0.6055c0-0.4204-0.4287-0.5464-0.9668-0.6977c-1.1182-0.3111-1.4717-0.6558-1.4717-1.1856
		c0-0.6558,0.5801-0.9756,1.4463-0.9756c0.3784,0,0.7818,0.1011,1.1348,0.2945c0.1347,0.0673,0.227,0.143,0.227,0.2524
		c0,0.1094-0.0757,0.1934-0.2099,0.1934c-0.0674,0-0.126-0.0337-0.2017-0.0757c-0.269-0.1431-0.6225-0.2525-0.9585-0.2525
		c-0.5464,0-0.9502,0.1597-0.9502,0.5464c0,0.3447,0.2354,0.5215,1.0259,0.7485c0.832,0.2437,1.4121,0.4625,1.4121,1.1265
		C38.6541,51.8537,38.1331,52.2829,37.2,52.2829z"/>
	<path class="st1" d="M41.2908,48.5329c0.1094,0,0.2105,0.0923,0.2105,0.2104c0,0.1177-0.1011,0.21-0.2105,0.21h-0.8491v3.0435
		c0,0.143-0.1094,0.2524-0.2524,0.2524c-0.1426,0-0.252-0.1094-0.252-0.2524v-3.0435h-0.7485c-0.1177,0-0.21-0.0923-0.21-0.21
		c0-0.1181,0.0923-0.2104,0.21-0.2104h0.7485v-1.1773c0-0.1425,0.1094-0.2519,0.252-0.2519c0.143,0,0.2524,0.1094,0.2524,0.2519
		v1.1773H41.2908z"/>
	<path class="st1" d="M42.2806,47.1037c0.1767,0,0.3193,0.1431,0.3193,0.3193c0,0.1768-0.1426,0.3194-0.3193,0.3194
		c-0.1768,0-0.3194-0.1426-0.3194-0.3194C41.9612,47.2468,42.1038,47.1037,42.2806,47.1037z M42.2806,52.2492
		c-0.1431,0-0.2525-0.1094-0.2525-0.2524V48.718c0-0.1431,0.1094-0.2525,0.2525-0.2525c0.143,0,0.2524,0.1094,0.2524,0.2525v3.2788
		C42.533,52.1398,42.4236,52.2492,42.2806,52.2492z"/>
	<path class="st1" d="M45.3812,48.5329c0.1093,0,0.2104,0.0923,0.2104,0.2104c0,0.1177-0.1011,0.21-0.2104,0.21h-0.9581v3.0435
		c0,0.143-0.1093,0.2524-0.2524,0.2524c-0.1431,0-0.2524-0.1094-0.2524-0.2524v-3.0435h-0.5884c-0.1177,0-0.21-0.0923-0.21-0.21
		c0-0.1181,0.0923-0.2104,0.21-0.2104h0.5884v-0.521c0-0.9165,0.3955-1.4297,1.3452-1.4297h0.1767c0.1177,0,0.21,0.0928,0.21,0.2105
		c0,0.1176-0.0923,0.2099-0.21,0.2099h-0.1513c-0.5801,0-0.8658,0.2525-0.8658,1.0005v0.5298H45.3812z"/>
	<path class="st1" d="M47.9939,48.5329c0.1094,0,0.2105,0.0923,0.2105,0.2104c0,0.1177-0.1011,0.21-0.2105,0.21h-0.8491v3.0435
		c0,0.143-0.1093,0.2524-0.2524,0.2524c-0.1426,0-0.252-0.1094-0.252-0.2524v-3.0435h-0.7485c-0.1177,0-0.21-0.0923-0.21-0.21
		c0-0.1181,0.0923-0.2104,0.21-0.2104h0.7485v-1.1773c0-0.1425,0.1094-0.2519,0.252-0.2519c0.1431,0,0.2524,0.1094,0.2524,0.2519
		v1.1773H47.9939z"/>
	<path class="st1" d="M52.1365,50.5593c0,0.9668-0.748,1.7236-1.7236,1.7236c-0.9751,0-1.7236-0.7568-1.7236-1.7236V48.718
		c0-0.1431,0.1093-0.2525,0.2524-0.2525c0.1431,0,0.2524,0.1094,0.2524,0.2525v1.8833c0,0.6977,0.5293,1.2275,1.2188,1.2275
		c0.6894,0,1.2192-0.5298,1.2192-1.2275V48.718c0-0.1431,0.1094-0.2525,0.2525-0.2525c0.1426,0,0.2519,0.1094,0.2519,0.2525V50.5593
		z"/>
	<path class="st1" d="M56.6556,51.9968c0,0.143-0.1094,0.2524-0.252,0.2524c-0.143,0-0.2524-0.1094-0.2524-0.2524v-1.8833
		c0-0.6978-0.5298-1.2276-1.2193-1.2276c-0.6894,0-1.2187,0.5298-1.2187,1.2276v1.8833c0,0.143-0.1094,0.2524-0.2525,0.2524
		c-0.143,0-0.2524-0.1094-0.2524-0.2524v-1.8413c0-0.9668,0.7485-1.7237,1.7236-1.7237c0.9756,0,1.7237,0.7569,1.7237,1.7237
		V51.9968z"/>
	<path class="st1" d="M59.4007,52.1652c-1.0259,0-1.8667-0.7314-1.8667-1.8667c0-1.1352,0.8408-1.8667,1.8667-1.8667
		c0.748,0,1.2612,0.4121,1.4795,0.7739V48.718c0-0.1431,0.1094-0.2525,0.2524-0.2525c0.1431,0,0.2525,0.1094,0.2525,0.2525v3.1694
		c0,1.1352-0.5889,1.9341-1.9341,1.9341c-0.6558,0-1.1685-0.1768-1.4966-0.3785c-0.0757-0.0419-0.1514-0.1093-0.1514-0.2187
		c0-0.1177,0.0845-0.1851,0.1934-0.1851c0.0757,0,0.1514,0.0337,0.2187,0.0674c0.3448,0.1851,0.7486,0.3028,1.2359,0.3028
		c1.0425,0,1.4292-0.6304,1.4292-1.4883v-0.5298C60.5862,51.8708,59.9974,52.1652,59.4007,52.1652z M59.451,51.7531
		c0.8071,0,1.4292-0.6641,1.4292-1.4546s-0.6221-1.4546-1.4292-1.4546c-0.8408,0-1.4209,0.5718-1.4209,1.4546
		C58.0301,51.1813,58.6102,51.7531,59.451,51.7531z"/>
</g>
</svg>
