<?xml version="1.0" encoding="iso-8859-1"?>
<!-- Generator: Adobe Illustrator 21.1.0, SVG Export Plug-In . SVG Version: 6.00 Build 0)  -->
<svg version="1.1" id="Logo_couleur" xmlns="http://www.w3.org/2000/svg" xmlns:xlink="http://www.w3.org/1999/xlink" x="0px"
	 y="0px" viewBox="0 0 181.4175 107.7168" style="enable-background:new 0 0 181.4175 107.7168;" xml:space="preserve">
<style type="text/css">
	.VoÃ_x00BB_teÂ_x00A0__x002D__x0020_Vert{fill:url(#SVGID_1_);stroke:#FFFFFF;stroke-width:0.25;stroke-miterlimit:1;}
	.st0{fill:#737272;}
	.st1{fill:#009352;}
</style>
<linearGradient id="SVGID_1_" gradientUnits="userSpaceOnUse" x1="-331.3335" y1="345.2813" x2="-330.6264" y2="344.5742">
	<stop  offset="0" style="stop-color:#15A235"/>
	<stop  offset="0.9831" style="stop-color:#21371A"/>
</linearGradient>
<g>
	<g>
		<path class="st0" d="M1.9228,84.5733c0-1.5508,0.0479-2.2539,0.3038-3.0371c0.5429-1.6641,1.791-2.5762,3.6298-2.5762
			c1.3907,0,2.5743,0.6719,3.1817,1.7754c0.0801,0.1289,0.1279,0.3047,0.1279,0.4473c0,0.4004-0.2871,0.6562-0.6553,0.6562
			c-0.2714,0-0.4638-0.1269-0.6396-0.3984c-0.5117-0.7696-1.1192-1.1524-2.0147-1.1524c-1.1992,0-1.9189,0.6719-2.2392,1.6797
			c-0.1758,0.5274-0.2559,1.166-0.2559,2.6055c0,1.4394,0.0801,2.0801,0.2559,2.6074c0.3203,1.0078,1.04,1.6777,2.2392,1.6777
			c0.8955,0,1.503-0.3828,2.0147-1.1503c0.1758-0.2715,0.3682-0.4004,0.6396-0.4004c0.3682,0,0.6553,0.2558,0.6553,0.6562
			c0,0.1445-0.0478,0.3203-0.1279,0.4473c-0.6074,1.1035-1.791,1.7754-3.1817,1.7754c-1.8388,0-3.0869-0.9121-3.6298-2.5742
			C1.9707,86.8292,1.9228,86.1241,1.9228,84.5733z"/>
		<path class="st0" d="M10.5625,89.1163l3.3418-9.2598c0.1758-0.5117,0.4482-0.7988,0.9277-0.7988
			c0.4795,0,0.7832,0.2871,0.96,0.7988l3.2939,9.2598c0.0323,0.0957,0.0635,0.207,0.0635,0.3183
			c0,0.4004-0.3037,0.6563-0.6719,0.6563c-0.3193,0-0.5752-0.1758-0.6875-0.5117l-0.7353-2.0958h-4.4619l-0.7354,2.0958
			c-0.1113,0.3359-0.3672,0.5117-0.6875,0.5117c-0.3681,0-0.6719-0.2559-0.6719-0.6563
			C10.498,89.3233,10.5303,89.212,10.5625,89.1163z M16.5908,86.1729l-1.7265-4.9414h-0.0479l-1.7598,4.9414H16.5908z"/>
		<path class="st0" d="M21.0264,79.8252c0-0.4804,0.2871-0.7675,0.7187-0.7675c0.416,0,0.7041,0.2871,0.7041,0.7675v9.4981
			c0,0.4805-0.2881,0.7676-0.7041,0.7676c-0.4316,0-0.7187-0.2871-0.7187-0.7676V79.8252z"/>
		<path class="st0" d="M25.041,89.1631c-0.2236-0.1601-0.3516-0.3672-0.3516-0.623c0-0.3516,0.2715-0.6719,0.6875-0.6719
			c0.1602,0,0.3204,0.0645,0.4483,0.1445c0.7832,0.4942,1.6631,0.8457,2.7021,0.8457c1.5352,0,2.4307-0.7343,2.4307-1.8535
			c0-0.9277-0.5117-1.5039-2.2705-1.7754l-0.5283-0.08c-2.1905-0.336-3.2139-1.3106-3.2139-3.0215
			c0-1.9356,1.375-3.168,3.5498-3.168c1.168,0,2.2227,0.3359,2.8789,0.7363c0.2715,0.1758,0.3838,0.3848,0.3838,0.6231
			c0,0.3515-0.2725,0.6406-0.6396,0.6406c-0.1446,0-0.3204-0.0644-0.4639-0.1289c-0.6875-0.3027-1.4072-0.543-2.207-0.543
			c-1.375,0-2.0625,0.752-2.0625,1.7598c0,0.9102,0.5595,1.4863,2.2548,1.7422l0.5274,0.0801
			c2.1904,0.3359,3.2305,1.3105,3.2305,3.0547c0,1.8867-1.3438,3.2617-3.9825,3.2617
			C27.0078,90.1866,25.8086,89.6905,25.041,89.1631z"/>
		<path class="st0" d="M34.4971,89.1631c-0.2237-0.1601-0.3516-0.3672-0.3516-0.623c0-0.3516,0.2715-0.6719,0.6875-0.6719
			c0.1602,0,0.3203,0.0645,0.4482,0.1445c0.7832,0.4942,1.6631,0.8457,2.7022,0.8457c1.5352,0,2.4307-0.7343,2.4307-1.8535
			c0-0.9277-0.5118-1.5039-2.2705-1.7754l-0.5284-0.08c-2.1904-0.336-3.2138-1.3106-3.2138-3.0215
			c0-1.9356,1.375-3.168,3.5498-3.168c1.1679,0,2.2226,0.3359,2.8789,0.7363c0.2715,0.1758,0.3838,0.3848,0.3838,0.6231
			c0,0.3515-0.2725,0.6406-0.6397,0.6406c-0.1445,0-0.3203-0.0644-0.4639-0.1289c-0.6875-0.3027-1.4072-0.543-2.207-0.543
			c-1.375,0-2.0625,0.752-2.0625,1.7598c0,0.9102,0.5596,1.4863,2.2549,1.7422l0.5273,0.0801
			c2.1905,0.3359,3.2305,1.3105,3.2305,3.0547c0,1.8867-1.3437,3.2617-3.9824,3.2617
			C36.4639,90.1866,35.2646,89.6905,34.4971,89.1631z"/>
		<path class="st0" d="M44.0498,79.7764c0-0.3828,0.2393-0.6406,0.6387-0.6406h5.5976c0.4317,0,0.7032,0.2891,0.7032,0.6562
			c0,0.3848-0.2715,0.6719-0.7032,0.6719h-4.7177c-0.0635,0-0.0957,0.0313-0.0957,0.0957v3.1992
			c0,0.0625,0.0322,0.0957,0.0957,0.0957h3.9335c0.4327,0,0.7042,0.2872,0.7042,0.6563c0,0.3828-0.2715,0.6699-0.7042,0.6699
			h-3.9335c-0.0635,0-0.0957,0.0332-0.0957,0.0957v3.3106c0,0.0644,0.0322,0.0957,0.0957,0.0957h4.7177
			c0.4317,0,0.7032,0.289,0.7032,0.6562c0,0.3848-0.2715,0.6719-0.7032,0.6719h-5.5976c-0.3994,0-0.6387-0.2559-0.6387-0.6406
			V79.7764z"/>
		<path class="st0" d="M56.9287,79.7764c0-0.3828,0.2402-0.6406,0.6406-0.6406h2.7657c2.1113,0,3.4062,0.832,3.9345,2.4805
			c0.2393,0.7031,0.3194,1.3906,0.3194,2.957c0,1.5684-0.0801,2.2559-0.3194,2.959c-0.5283,1.6465-1.8232,2.4785-3.9345,2.4785
			h-2.7657c-0.4004,0-0.6406-0.2559-0.6406-0.6406V79.7764z M58.4482,88.6827h1.7911c1.4394,0,2.2705-0.4473,2.6543-1.6309
			c0.1757-0.5586,0.2558-1.1836,0.2558-2.4785c0-1.2949-0.0801-1.918-0.2558-2.4785c-0.3838-1.1836-1.2149-1.6309-2.6543-1.6309
			h-1.7911c-0.0634,0-0.0957,0.0313-0.0957,0.0957v8.0274C58.3525,88.6514,58.3848,88.6827,58.4482,88.6827z"/>
		<path class="st0" d="M66.8975,79.7764c0-0.3828,0.2392-0.6406,0.6386-0.6406h5.5977c0.4316,0,0.7031,0.2891,0.7031,0.6562
			c0,0.3848-0.2715,0.6719-0.7031,0.6719H68.416c-0.0635,0-0.0957,0.0313-0.0957,0.0957v3.1992
			c0,0.0625,0.0322,0.0957,0.0957,0.0957h3.9336c0.4326,0,0.7041,0.2872,0.7041,0.6563c0,0.3828-0.2715,0.6699-0.7041,0.6699H68.416
			c-0.0635,0-0.0957,0.0332-0.0957,0.0957v3.3106c0,0.0644,0.0322,0.0957,0.0957,0.0957h4.7178c0.4316,0,0.7031,0.289,0.7031,0.6562
			c0,0.3848-0.2715,0.6719-0.7031,0.6719h-5.5977c-0.3994,0-0.6386-0.2559-0.6386-0.6406V79.7764z"/>
		<path class="st0" d="M79.7764,79.7764c0-0.3828,0.2402-0.6406,0.6406-0.6406h3.3574c2.1748,0,3.4863,1.3125,3.4863,3.248
			c0,1.9336-1.3115,3.2461-3.4863,3.2461h-2.4785c-0.0635,0-0.0957,0.0313-0.0957,0.0957v3.5977
			c0,0.4805-0.2881,0.7676-0.7041,0.7676c-0.4317,0-0.7197-0.2871-0.7197-0.7676V79.7764z M85.8535,82.3838
			c0-1.1836-0.7832-1.9199-2.1269-1.9199h-2.4307c-0.0635,0-0.0957,0.0313-0.0957,0.0957v3.6465
			c0,0.0645,0.0322,0.0957,0.0957,0.0957h2.4307C85.0703,84.3018,85.8535,83.5655,85.8535,82.3838z"/>
		<path class="st0" d="M89.249,79.7764c0-0.3828,0.2393-0.6406,0.6387-0.6406h5.5972c0.4316,0,0.7031,0.2891,0.7031,0.6562
			c0,0.3848-0.2715,0.6719-0.7031,0.6719h-4.7168c-0.0635,0-0.0957,0.0313-0.0957,0.0957v3.1992
			c0,0.0625,0.0322,0.0957,0.0957,0.0957h3.9336c0.4316,0,0.7031,0.2872,0.7031,0.6563c0,0.3828-0.2715,0.6699-0.7031,0.6699
			h-3.9336c-0.0635,0-0.0957,0.0332-0.0957,0.0957v3.3106c0,0.0644,0.0322,0.0957,0.0957,0.0957h4.7168
			c0.4316,0,0.7031,0.289,0.7031,0.6562c0,0.3848-0.2715,0.6719-0.7031,0.6719h-5.5972c-0.3994,0-0.6387-0.2559-0.6387-0.6406
			V79.7764z"/>
		<path class="st0" d="M98.2563,79.9209c0-0.5273,0.2872-0.8632,0.7832-0.8632c0.4161,0,0.6875,0.2715,0.959,0.7343l4.6368,7.6602
			h0.0664v-7.6758c0-0.4472,0.2695-0.7187,0.6543-0.7187c0.4003,0,0.6718,0.2715,0.6718,0.7187v9.4512
			c0,0.5273-0.2871,0.8633-0.7832,0.8633c-0.416,0-0.7031-0.2715-0.9765-0.7364l-4.6368-7.6269h-0.0468v7.6426
			c0,0.4492-0.2735,0.7207-0.6563,0.7207c-0.4004,0-0.6719-0.2715-0.6719-0.7207V79.9209z"/>
		<path class="st0" d="M108.6235,89.1631c-0.2226-0.1601-0.3515-0.3672-0.3515-0.623c0-0.3516,0.2715-0.6719,0.6875-0.6719
			c0.1601,0,0.3203,0.0645,0.4492,0.1445c0.7812,0.4942,1.6621,0.8457,2.7012,0.8457c1.5351,0,2.4316-0.7343,2.4316-1.8535
			c0-0.9277-0.5117-1.5039-2.2715-1.7754l-0.5293-0.08c-2.1894-0.336-3.2129-1.3106-3.2129-3.0215
			c0-1.9356,1.375-3.168,3.5489-3.168c1.1679,0,2.2226,0.3359,2.8789,0.7363c0.2734,0.1758,0.3847,0.3848,0.3847,0.6231
			c0,0.3515-0.2715,0.6406-0.6386,0.6406c-0.1446,0-0.3204-0.0644-0.4649-0.1289c-0.6875-0.3027-1.4062-0.543-2.207-0.543
			c-1.375,0-2.0625,0.752-2.0625,1.7598c0,0.9102,0.5586,1.4863,2.2539,1.7422l0.5273,0.0801
			c2.1914,0.3359,3.2305,1.3105,3.2305,3.0547c0,1.8867-1.3437,3.2617-3.9805,3.2617
			C110.5903,90.1866,109.3911,89.6905,108.6235,89.1631z"/>
		<path class="st0" d="M118.1763,79.8252c0-0.4804,0.2871-0.7675,0.7187-0.7675c0.416,0,0.7051,0.2871,0.7051,0.7675v9.4981
			c0,0.4805-0.2891,0.7676-0.7051,0.7676c-0.4316,0-0.7187-0.2871-0.7187-0.7676V79.8252z"/>
		<path class="st0" d="M122.2075,87.6124c-0.2558-0.7832-0.3047-1.4883-0.3047-3.0391c0-1.5508,0.0489-2.2539,0.3047-3.0371
			c0.543-1.6641,1.8067-2.5762,3.6778-2.5762c1.8867,0,3.1503,0.9121,3.6933,2.5762c0.2559,0.7832,0.3047,1.4863,0.3047,3.0371
			c0,1.5508-0.0488,2.2559-0.3047,3.0391c-0.543,1.6621-1.8066,2.5742-3.6933,2.5742
			C124.0142,90.1866,122.7505,89.2745,122.2075,87.6124z M128.188,87.1807c0.1758-0.5273,0.2558-1.168,0.2558-2.6074
			c0-1.4395-0.08-2.0781-0.2558-2.6055c-0.3203-1.0078-1.0391-1.6797-2.3027-1.6797c-1.2461,0-1.9668,0.6719-2.2872,1.6797
			c-0.1757,0.5274-0.2558,1.166-0.2558,2.6055c0,1.4394,0.0801,2.0801,0.2558,2.6074c0.3204,1.0078,1.0411,1.6777,2.2872,1.6777
			C127.1489,88.8584,127.8677,88.1885,128.188,87.1807z"/>
		<path class="st0" d="M132.1919,79.9209c0-0.5273,0.2871-0.8632,0.7832-0.8632c0.416,0,0.6875,0.2715,0.959,0.7343l4.6387,7.6602
			h0.0625v-7.6758c0-0.4472,0.2734-0.7187,0.6562-0.7187c0.3984,0,0.6719,0.2715,0.6719,0.7187v9.4512
			c0,0.5273-0.2891,0.8633-0.7852,0.8633c-0.414,0-0.7031-0.2715-0.9746-0.7364l-4.6367-7.6269h-0.0488v7.6426
			c0,0.4492-0.2715,0.7207-0.6563,0.7207c-0.3984,0-0.6699-0.2715-0.6699-0.7207V79.9209z"/>
		<path class="st0" d="M142.5591,89.1631c-0.2246-0.1601-0.3516-0.3672-0.3516-0.623c0-0.3516,0.2715-0.6719,0.6875-0.6719
			c0.1602,0,0.3203,0.0645,0.4473,0.1445c0.7851,0.4942,1.664,0.8457,2.7031,0.8457c1.5352,0,2.4297-0.7343,2.4297-1.8535
			c0-0.9277-0.5117-1.5039-2.2695-1.7754l-0.5274-0.08c-2.1914-0.336-3.2148-1.3106-3.2148-3.0215
			c0-1.9356,1.375-3.168,3.5508-3.168c1.1679,0,2.2226,0.3359,2.8789,0.7363c0.2695,0.1758,0.3828,0.3848,0.3828,0.6231
			c0,0.3515-0.2735,0.6406-0.6406,0.6406c-0.1446,0-0.3204-0.0644-0.4629-0.1289c-0.6875-0.3027-1.4082-0.543-2.2071-0.543
			c-1.375,0-2.0625,0.752-2.0625,1.7598c0,0.9102,0.5606,1.4863,2.2559,1.7422l0.5273,0.0801
			c2.1895,0.3359,3.2305,1.3105,3.2305,3.0547c0,1.8867-1.3437,3.2617-3.9844,3.2617
			C144.5259,90.1866,143.3267,89.6905,142.5591,89.1631z"/>
		<path class="st0" d="M2.3057,95.7764c0-0.3828,0.2402-0.6406,0.6406-0.6406h2.7656c2.1113,0,3.4063,0.832,3.9346,2.4805
			c0.2392,0.7031,0.3193,1.3906,0.3193,2.957c0,1.5684-0.0801,2.2559-0.3193,2.959c-0.5283,1.6465-1.8233,2.4785-3.9346,2.4785
			H2.9463c-0.4004,0-0.6406-0.2559-0.6406-0.6406V95.7764z M3.8252,104.6827h1.791c1.4395,0,2.2705-0.4473,2.6543-1.6309
			c0.1758-0.5586,0.2559-1.1836,0.2559-2.4785c0-1.2949-0.0801-1.918-0.2559-2.4785c-0.3838-1.1836-1.2148-1.6309-2.6543-1.6309
			h-1.791c-0.0635,0-0.0957,0.0313-0.0957,0.0957v8.0274C3.7295,104.6514,3.7617,104.6827,3.8252,104.6827z"/>
		<path class="st0" d="M12.2744,95.7764c0-0.3828,0.2393-0.6406,0.6387-0.6406h5.5976c0.4317,0,0.7032,0.2891,0.7032,0.6562
			c0,0.3848-0.2715,0.6719-0.7032,0.6719H13.793c-0.0635,0-0.0957,0.0313-0.0957,0.0957v3.1992
			c0,0.0625,0.0322,0.0957,0.0957,0.0957h3.9336c0.4326,0,0.7041,0.2872,0.7041,0.6563c0,0.3828-0.2715,0.6699-0.7041,0.6699H13.793
			c-0.0635,0-0.0957,0.0332-0.0957,0.0957v3.3106c0,0.0644,0.0322,0.0957,0.0957,0.0957h4.7177c0.4317,0,0.7032,0.289,0.7032,0.6562
			c0,0.3848-0.2715,0.6719-0.7032,0.6719h-5.5976c-0.3994,0-0.6387-0.2559-0.6387-0.6406V95.7764z"/>
		<path class="st0" d="M25.1533,95.8252c0-0.4804,0.2881-0.7675,0.7041-0.7675s0.7197,0.2871,0.7197,0.7675v8.7618
			c0,0.0644,0.0323,0.0957,0.0957,0.0957h4.7178c0.4317,0,0.7031,0.289,0.7031,0.6562c0,0.3848-0.2714,0.6719-0.7031,0.6719h-5.5488
			c-0.4326,0-0.6885-0.2715-0.6885-0.7031V95.8252z"/>
		<path class="st0" d="M31.6826,97.6944c0-0.0957,0.0156-0.2227,0.0479-0.3184l0.5918-1.8242
			c0.0957-0.3184,0.3037-0.4941,0.5918-0.4941c0.3515,0,0.6074,0.2382,0.6074,0.5898c0,0.0977-0.0166,0.2246-0.0479,0.3203
			l-0.5918,1.8242c-0.0957,0.3184-0.3037,0.4942-0.5918,0.4942C31.9385,98.2862,31.6826,98.0479,31.6826,97.6944z"/>
		<path class="st0" d="M35.665,95.7764c0-0.3828,0.2403-0.6406,0.6407-0.6406h5.5966c0.4317,0,0.7032,0.2891,0.7032,0.6562
			c0,0.3848-0.2715,0.6719-0.7032,0.6719h-4.7177c-0.0635,0-0.0957,0.0313-0.0957,0.0957v3.1992
			c0,0.0625,0.0322,0.0957,0.0957,0.0957h3.9336c0.4316,0,0.7041,0.2872,0.7041,0.6563c0,0.3828-0.2725,0.6699-0.7041,0.6699
			h-3.9336c-0.0635,0-0.0957,0.0332-0.0957,0.0957v3.3106c0,0.0644,0.0322,0.0957,0.0957,0.0957h4.7177
			c0.4317,0,0.7032,0.289,0.7032,0.6562c0,0.3848-0.2715,0.6719-0.7032,0.6719h-5.5966c-0.4004,0-0.6407-0.2559-0.6407-0.6406
			V95.7764z M39.6953,91.7784c0.1123-0.127,0.2402-0.2071,0.4316-0.2071c0.3038,0,0.544,0.2227,0.544,0.5274
			c0,0.1601-0.0645,0.3027-0.1602,0.416l-1.1035,1.2148c-0.1435,0.1602-0.2871,0.2403-0.4795,0.2403
			c-0.2715,0-0.5117-0.2246-0.5117-0.5117c0-0.1602,0.0635-0.3047,0.1758-0.4317L39.6953,91.7784z"/>
		<path class="st0" d="M50.9424,95.1358c0.4316,0,0.7031,0.2891,0.7031,0.6719c0,0.3691-0.2715,0.6562-0.7031,0.6562h-2.5108
			c-0.0644,0-0.0966,0.0313-0.0966,0.0957v8.7637c0,0.4805-0.2872,0.7676-0.7032,0.7676c-0.4316,0-0.7197-0.2871-0.7197-0.7676
			v-8.7637c0-0.0644-0.0322-0.0957-0.0957-0.0957h-2.5107c-0.4317,0-0.7041-0.2871-0.7041-0.6562
			c0-0.3828,0.2724-0.6719,0.7041-0.6719H50.9424z"/>
		<path class="st0" d="M51.2666,105.1163l3.3418-9.2598c0.1758-0.5117,0.4482-0.7988,0.9277-0.7988s0.7832,0.2871,0.959,0.7988
			l3.2949,9.2598c0.0313,0.0957,0.0635,0.207,0.0635,0.3183c0,0.4004-0.3037,0.6563-0.6709,0.6563
			c-0.3203,0-0.5762-0.1758-0.6885-0.5117l-0.7353-2.0958h-4.461l-0.7363,2.0958c-0.1113,0.3359-0.3672,0.5117-0.6875,0.5117
			c-0.3672,0-0.6719-0.2559-0.6719-0.6563C51.2021,105.3233,51.2344,105.212,51.2666,105.1163z M57.2949,102.1729l-1.7265-4.9414
			h-0.0479l-1.7598,4.9414H57.2949z"/>
		<path class="st0" d="M66.751,95.1358c0.4316,0,0.7031,0.2891,0.7031,0.6719c0,0.3691-0.2715,0.6562-0.7031,0.6562h-2.5108
			c-0.0644,0-0.0966,0.0313-0.0966,0.0957v8.7637c0,0.4805-0.2872,0.7676-0.7032,0.7676c-0.4316,0-0.7197-0.2871-0.7197-0.7676
			v-8.7637c0-0.0644-0.0322-0.0957-0.0957-0.0957h-2.5107c-0.4317,0-0.7041-0.2871-0.7041-0.6562
			c0-0.3828,0.2724-0.6719,0.7041-0.6719H66.751z"/>
		<path class="st0" d="M72.7705,95.7764c0-0.3828,0.2393-0.6406,0.6387-0.6406h2.7666c2.1113,0,3.4062,0.832,3.9345,2.4805
			c0.2393,0.7031,0.3194,1.3906,0.3194,2.957c0,1.5684-0.0801,2.2559-0.3194,2.959c-0.5283,1.6465-1.8232,2.4785-3.9345,2.4785
			h-2.7666c-0.3994,0-0.6387-0.2559-0.6387-0.6406V95.7764z M74.2891,104.6827h1.791c1.4394,0,2.2705-0.4473,2.6543-1.6309
			c0.1767-0.5586,0.2558-1.1836,0.2558-2.4785c0-1.2949-0.0791-1.918-0.2558-2.4785c-0.3838-1.1836-1.2149-1.6309-2.6543-1.6309
			h-1.791c-0.0635,0-0.0957,0.0313-0.0957,0.0957v8.0274C74.1934,104.6514,74.2256,104.6827,74.2891,104.6827z"/>
		<path class="st0" d="M82.7373,95.7764c0-0.3828,0.2402-0.6406,0.6406-0.6406h5.5967c0.4316,0,0.7031,0.2891,0.7031,0.6562
			c0,0.3848-0.2715,0.6719-0.7031,0.6719h-4.7178c-0.0634,0-0.0957,0.0313-0.0957,0.0957v3.1992
			c0,0.0625,0.0323,0.0957,0.0957,0.0957h3.9336c0.4317,0,0.7041,0.2872,0.7041,0.6563c0,0.3828-0.2724,0.6699-0.7041,0.6699
			h-3.9336c-0.0634,0-0.0957,0.0332-0.0957,0.0957v3.3106c0,0.0644,0.0323,0.0957,0.0957,0.0957h4.7178
			c0.4316,0,0.7031,0.289,0.7031,0.6562c0,0.3848-0.2715,0.6719-0.7031,0.6719h-5.5967c-0.4004,0-0.6406-0.2559-0.6406-0.6406
			V95.7764z"/>
		<path class="st0" d="M98.352,103.7081h0.0489l2.6699-8.0918c0.1113-0.3672,0.3516-0.5586,0.6699-0.5586
			c0.4024,0,0.6875,0.2871,0.6875,0.6699c0,0.0976-0.0156,0.209-0.0625,0.3535l-3.1504,9.1934
			c-0.209,0.5761-0.4316,0.8164-0.8808,0.8164c-0.4297,0-0.67-0.2403-0.8633-0.8164l-3.1484-9.1934
			c-0.0489-0.1445-0.0645-0.2559-0.0645-0.3535c0-0.3828,0.2871-0.6699,0.6875-0.6699c0.3359,0,0.5605,0.1914,0.6875,0.5586
			L98.352,103.7081z"/>
		<path class="st0" d="M102.77,105.1163l3.3418-9.2598c0.1758-0.5117,0.4492-0.7988,0.9277-0.7988
			c0.4786,0,0.7833,0.2871,0.959,0.7988l3.295,9.2598c0.0312,0.0957,0.0644,0.207,0.0644,0.3183
			c0,0.4004-0.3047,0.6563-0.6719,0.6563c-0.3203,0-0.5761-0.1758-0.6875-0.5117l-0.7363-2.0958h-4.4609l-0.7364,2.0958
			c-0.1113,0.3359-0.3671,0.5117-0.6875,0.5117c-0.3671,0-0.6718-0.2559-0.6718-0.6563
			C102.7056,105.3233,102.7368,105.212,102.77,105.1163z M108.7993,102.1729l-1.7265-4.9414h-0.0489l-1.7597,4.9414H108.7993z"/>
		<path class="st0" d="M119.2622,95.8252c0-0.4804,0.2871-0.7675,0.7188-0.7675c0.416,0,0.705,0.2871,0.705,0.7675v6.379
			c0,2.6542-1.5195,3.9824-3.8554,3.9824c-2.3008,0-3.836-1.3282-3.836-3.9824v-6.379c0-0.4804,0.2852-0.7675,0.7188-0.7675
			c0.414,0,0.7031,0.2871,0.7031,0.7675v6.379c0,1.7597,0.9766,2.6542,2.4297,2.6542c1.4414,0,2.416-0.8945,2.416-2.6542V95.8252z"
			/>
		<path class="st0" d="M123.2974,95.7764c0-0.3828,0.2402-0.6406,0.6386-0.6406h2.7657c2.1132,0,3.4062,0.832,3.9355,2.4805
			c0.2402,0.7031,0.3184,1.3906,0.3184,2.957c0,1.5684-0.0782,2.2559-0.3184,2.959c-0.5293,1.6465-1.8223,2.4785-3.9355,2.4785
			h-2.7657c-0.3984,0-0.6386-0.2559-0.6386-0.6406V95.7764z M124.8149,104.6827h1.793c1.4375,0,2.2695-0.4473,2.6524-1.6309
			c0.1777-0.5586,0.2578-1.1836,0.2578-2.4785c0-1.2949-0.0801-1.918-0.2578-2.4785c-0.3829-1.1836-1.2149-1.6309-2.6524-1.6309
			h-1.793c-0.0625,0-0.0937,0.0313-0.0937,0.0957v8.0274C124.7212,104.6514,124.7524,104.6827,124.8149,104.6827z"/>
	</g>
	<g>
		<path class="st1" d="M83.2666,13.6709C80.6318,5.6631,74.04,1.1006,65.1182,1.1006c-8.8223,0-15.4141,4.5625-18.0489,12.5703
			c-1.0136,3.2461-1.623,6.795-1.623,12.5762c0,0.084,0.0039,0.1582,0.0039,0.2403c0,0.0078-0.0039,0.0136-0.0039,0.0214v12.2344
			v15.086v12.3242c0,1.9258,1.1152,2.9394,2.7363,2.9394c1.6231,0,2.7383-1.0136,2.7383-2.9394V53.919v-8.3047
			c3.3906,3.7793,8.2715,5.8789,14.1973,5.8789c8.9218,0,15.5136-4.5625,18.1484-12.5742c1.0137-3.2422,1.623-6.791,1.623-12.6719
			C84.8896,20.4659,84.2803,16.917,83.2666,13.6709z M77.9971,37.1944c-1.9297,5.7812-6.5918,9.0273-12.8789,9.0273
			c-6.1856,0-10.8496-3.2461-12.7774-9.0273c-0.9121-2.7363-1.3203-5.6758-1.3203-10.9473c0-5.1719,0.4082-8.1152,1.3203-10.8515
			c1.9278-5.7793,6.5918-9.0235,12.7774-9.0235c6.2871,0,10.9492,3.2442,12.8789,9.0235c0.9101,2.7363,1.3164,5.6796,1.3164,10.8515
			C79.3135,31.5186,78.9072,34.4581,77.9971,37.1944z"/>
		<path class="st1" d="M2.4853,13.6709c2.5352-7.9082,9.125-12.5703,18.0469-12.5703c7.6035,0,12.9785,3.5469,15.6133,8.1094
			c0.3047,0.5078,0.4063,1.0156,0.4063,1.6231c0,1.3183-1.0137,2.4336-2.4336,2.4336c-1.1153,0-1.9258-0.6094-2.5352-1.5196
			c-2.2285-3.1445-5.4746-5.375-11.0508-5.375c-6.4883,0-10.8496,3.2442-12.6738,9.0235C6.9463,18.1319,6.542,21.2764,6.542,26.3448
			c0,5.0703,0.4043,8.1113,1.3164,10.8496c1.8242,5.7793,6.1855,9.0234,12.6738,9.0234c5.5762,0,8.8223-2.2304,11.0508-5.373
			c0.6094-0.9121,1.4199-1.5215,2.5352-1.5215c1.4199,0,2.4336,1.1152,2.4336,2.4336c0,0.6074-0.1016,1.1152-0.4063,1.6211
			c-2.6348,4.5625-8.0098,8.1133-15.6133,8.1133c-8.9219,0-15.5117-4.6641-18.0469-12.5743
			c-1.1152-3.4453-1.5214-7.8066-1.5214-12.5722C0.9639,21.5811,1.3701,17.1202,2.4853,13.6709z"/>
		<path class="st1" d="M96.6372,38.8155c-1.0137-3.041-1.5195-6.3848-1.5195-12.5703c0-6.084,0.5058-9.4297,1.5195-12.5743
			c2.6367-8.1093,9.2266-12.5703,17.8457-12.5703c8.7188,0,15.3086,4.461,17.9453,12.5703
			c1.0156,3.043,1.5215,6.6934,1.5215,11.5586c0,1.5215-1.0137,2.5372-2.5352,2.5372h-30.1132
			c-0.4043,0-0.6075,0.2011-0.6075,0.6074c0,3.9551,0.2032,5.9804,1.0137,8.416c2.1289,6.3867,7.0977,9.4277,13.6875,9.4277
			c5.4746,0,9.4297-1.7226,13.0781-5.4746c0.5098-0.5058,1.2188-1.0137,2.0293-1.0137c1.42,0,2.4336,1.0137,2.4336,2.3321
			c0,0.709-0.2031,1.3164-0.6093,1.8261c-3.4454,4.3594-9.2266,7.6036-17.2344,7.6036
			C105.7622,51.4913,99.3755,47.1319,96.6372,38.8155z M127.7642,22.7959c0.4062,0,0.6093-0.2011,0.6093-0.6074
			c0-2.8379-0.3047-4.9687-0.9121-6.8945c-1.9277-5.9824-6.6933-9.125-12.9785-9.125c-6.2871,0-10.9512,3.1426-12.8769,9.125
			c-0.6094,1.9258-0.9122,4.0566-0.9122,6.8945c0,0.4063,0.2032,0.6074,0.6075,0.6074H127.7642z"/>
		<path class="st1" d="M156.8306,47.5362L140.8091,5.8663c-0.2031-0.6094-0.3047-1.0137-0.3047-1.5215
			c0-1.3184,0.9141-2.6367,2.7383-2.6367c1.4199,0,2.2324,0.914,2.6367,2.0273l14.5996,38.123h0.1016l14.2949-38.123
			c0.4082-1.1133,1.2168-2.0273,2.6387-2.0273c1.8222,0,2.7363,1.3183,2.7363,2.6367c0,0.5078-0.1035,0.9121-0.3047,1.5215
			l-16.0195,41.6699c-0.9121,2.5351-1.8243,3.3457-3.5489,3.3457C158.6548,50.8819,157.7407,50.0713,156.8306,47.5362z"/>
	</g>
</g>
</svg>
