<svg id="Calque_1" data-name="Calque 1" xmlns="http://www.w3.org/2000/svg" viewBox="0 0 138 66.67"><defs><style>.cls-1{fill:#009453;stroke:#fff;stroke-miterlimit:1;stroke-width:0.25px;}.cls-2{stroke:#000;stroke-width:0.2px;}</style></defs><title>logo-profelia</title><path class="cls-1" d="M22.33,11.36h-9a1.3,1.3,0,0,0-1.3,1.3v20.7a1.28,1.28,0,0,0,1.3,1.3,1.26,1.26,0,0,0,1.3-1.3V24.54h7.7c4.37,0,7.2-2.59,7.2-6.59s-2.82-6.59-7.2-6.59Zm.4,10.79H14.63v-8.4h8.11a4,4,0,0,1,4.2,4.2,4,4,0,0,1-4.2,4.2Zm16.17-3.24a5.34,5.34,0,0,0-4.57,2.4v-1.1a1.3,1.3,0,0,0-2.6,0V33.36a1.32,1.32,0,0,0,1.3,1.3,1.3,1.3,0,0,0,1.3-1.3V27.52c0-3.68,1.88-6.25,4.57-6.25a1.19,1.19,0,1,0,0-2.36Zm10.28-.13a7.81,7.81,0,0,0-8,8,8,8,0,1,0,15.95,0,7.81,7.81,0,0,0-8-8Zm0,13.69a5.41,5.41,0,0,1-5.38-5.68,5.39,5.39,0,1,1,10.75,0A5.41,5.41,0,0,1,49.19,32.46ZM67.56,13.61h.61a1.13,1.13,0,1,0,0-2.26h-.71c-3.77,0-5.68,2-5.68,6v1.8H59.71a1.13,1.13,0,1,0,0,2.26h2.07V33.35a1.3,1.3,0,0,0,2.6,0V21.44h3.56a1.13,1.13,0,1,0,0-2.26H64.38V17.34C64.38,14.25,65.65,13.61,67.56,13.61Zm17,13c0-4.54-3.1-7.84-7.37-7.84a7.82,7.82,0,0,0-7.8,8,8,8,0,0,0,14.25,5,1.29,1.29,0,0,0,.25-.76,1.1,1.1,0,0,0-1.13-1.13,1.28,1.28,0,0,0-1,.54,5.32,5.32,0,0,1-4.36,2,5.17,5.17,0,0,1-5.36-4.75H83.44a1.14,1.14,0,0,0,1.13-1.13ZM72.14,25.48A5.1,5.1,0,0,1,77.21,21a4.93,4.93,0,0,1,4.9,4.45Zm17.64-14.4a1.28,1.28,0,0,0-1.3,1.3v21a1.3,1.3,0,1,0,2.59,0v-21a1.28,1.28,0,0,0-1.3-1.3Z"/><circle class="cls-1" cx="97.03" cy="15.01" r="1.57"/><path class="cls-1" d="M97,18.91a1.28,1.28,0,0,0-1.3,1.3V33.36a1.3,1.3,0,0,0,2.59,0V20.2a1.28,1.28,0,0,0-1.3-1.3Zm13.18-.13a7.74,7.74,0,0,0-8,8c0,3.86,2.48,8,7.94,8a7,7,0,0,0,5.41-2.34v.91a1.3,1.3,0,0,0,2.6,0V26.82a7.73,7.73,0,0,0-7.94-8Zm0,13.69a5.33,5.33,0,0,1-5.44-5.68,5.4,5.4,0,1,1,10.79,0A5.46,5.46,0,0,1,110.21,32.46Z"/><circle class="cls-1" cx="124.23" cy="32.88" r="1.7"/><path class="cls-2" d="M13.09,46.17a.25.25,0,0,1-.25-.25V40.76a.25.25,0,0,1,.25-.25h3.24a.23.23,0,1,1,0,.45h-3v2h1.73a.23.23,0,0,1,0,.45H13.34v2.48a.25.25,0,0,1-.25.25Zm5,0A1.93,1.93,0,1,1,20,44.28,1.88,1.88,0,0,1,18,46.2Zm0-3.41a1.49,1.49,0,1,0,1.41,1.49A1.42,1.42,0,0,0,18,42.79Zm6.24,3.13a.25.25,0,1,1-.5,0V44a1.22,1.22,0,1,0-2.44,0v1.88a.25.25,0,1,1-.5,0V44.07a1.72,1.72,0,0,1,3.45,0v1.84Zm4.22-.49a1.73,1.73,0,0,1-1.5.77,1.93,1.93,0,0,1,0-3.85,1.73,1.73,0,0,1,1.5.77V40.69a.25.25,0,0,1,.51,0v5.23a.25.25,0,1,1-.5,0v-.49Zm-1.43.34a1.5,1.5,0,0,0,0-3,1.5,1.5,0,0,0,0,3Zm6.69.14a.25.25,0,0,1-.51,0v-.44a1.65,1.65,0,0,1-1.42.72,1.84,1.84,0,0,1-1.91-1.92,1.92,1.92,0,1,1,3.84,0v1.63Zm-1.91-3.13a1.49,1.49,0,0,0,0,3,1.43,1.43,0,0,0,1.41-1.49,1.4,1.4,0,0,0-1.4-1.49Zm4.68-.34a.21.21,0,0,1,0,.42h-.85v3a.25.25,0,1,1-.5,0v-3h-.75a.21.21,0,1,1,0-.42h.75V41.28a.25.25,0,0,1,.51,0v1.18h.85Zm1-1.43a.32.32,0,1,1-.32.32A.32.32,0,0,1,37.53,41Zm0,5.15a.25.25,0,0,1-.25-.25V42.64a.25.25,0,0,1,.51,0v3.28a.25.25,0,0,1-.25.25Zm3.09,0a1.93,1.93,0,1,1,1.92-1.92,1.88,1.88,0,0,1-1.92,1.92Zm0-3.41A1.49,1.49,0,1,0,42,44.28a1.42,1.42,0,0,0-1.41-1.49Zm6.24,3.13a.25.25,0,0,1-.5,0V44a1.22,1.22,0,1,0-2.44,0v1.88a.25.25,0,1,1-.5,0V44.07a1.72,1.72,0,0,1,3.45,0v1.84Zm6.56-.49a1.73,1.73,0,0,1-1.51.77,1.93,1.93,0,0,1,0-3.85,1.73,1.73,0,0,1,1.51.77V40.69a.25.25,0,0,1,.5,0v5.23a.25.25,0,1,1-.5,0v-.49ZM52,45.77a1.5,1.5,0,0,0,0-3,1.5,1.5,0,0,0,0,3Zm6.5-1.54a.21.21,0,0,1-.21.21H55.36a1.36,1.36,0,0,0,1.41,1.33,1.41,1.41,0,0,0,1.14-.53.25.25,0,0,1,.19-.11.2.2,0,0,1,.21.21.25.25,0,0,1,0,.15,1.84,1.84,0,0,1-1.5.71,1.93,1.93,0,0,1-.05-3.85,1.77,1.77,0,0,1,1.77,1.88Zm-1.77-1.46A1.35,1.35,0,0,0,55.38,44H58a1.31,1.31,0,0,0-1.3-1.25Zm5.54.35a1.73,1.73,0,0,1,1.5-.77,1.93,1.93,0,0,1,0,3.85,1.73,1.73,0,0,1-1.51-.77v2.06a.25.25,0,0,1-.5,0V42.64a.25.25,0,1,1,.5,0v.49Zm1.43-.35a1.5,1.5,0,0,0,0,3,1.5,1.5,0,0,0,0-3Zm4.55,0c-.72,0-1.21.69-1.21,1.63v1.46a.25.25,0,0,1-.25.25.26.26,0,0,1-.25-.25V42.64a.25.25,0,1,1,.5,0v.59a1.24,1.24,0,0,1,1.21-.84.22.22,0,1,1,0,.44Zm4.13,1.4a.21.21,0,0,1-.21.21H69.25a1.36,1.36,0,0,0,1.41,1.33,1.41,1.41,0,0,0,1.14-.53.25.25,0,0,1,.19-.11.2.2,0,0,1,.21.21.25.25,0,0,1-.05.15,1.84,1.84,0,0,1-1.5.71,1.93,1.93,0,0,1,0-3.85A1.77,1.77,0,0,1,72.38,44.24Zm-1.76-1.46A1.35,1.35,0,0,0,69.26,44h2.65A1.31,1.31,0,0,0,70.61,42.77Zm-.35-1.31.6-.86a.22.22,0,0,1,.18-.09.19.19,0,0,1,.21.19.22.22,0,0,1,0,.14l-.58.81a.25.25,0,0,1-.21.13.2.2,0,0,1-.2-.2.22.22,0,0,1,0-.13Zm4.18,3.93,1.26-2.85a.21.21,0,0,1,.22-.15.22.22,0,0,1,.24.23.32.32,0,0,1,0,.13L74.66,46a.23.23,0,0,1-.42,0l-1.47-3.29a.32.32,0,0,1,0-.13.22.22,0,0,1,.24-.23.21.21,0,0,1,.22.15l1.26,2.85Zm3.94.82a1.93,1.93,0,1,1,1.92-1.92,1.88,1.88,0,0,1-1.92,1.92Zm0-3.41a1.49,1.49,0,1,0,1.41,1.49,1.42,1.42,0,0,0-1.41-1.49ZM84,42.72s-.82,2-1.24,3a4.13,4.13,0,0,1-1.61,2,.28.28,0,0,1-.15,0,.2.2,0,0,1-.22-.21c0-.09.05-.15.15-.21a3.58,3.58,0,0,0,1.14-1.24l-1.43-3.34a.37.37,0,0,1,0-.13.23.23,0,0,1,.46-.07l1.27,3,1.24-3a.21.21,0,0,1,.21-.14.22.22,0,0,1,.23.23A.3.3,0,0,1,84,42.72Zm4.11,3.19a.25.25,0,1,1-.5,0v-.44a1.65,1.65,0,0,1-1.42.72,1.83,1.83,0,0,1-1.91-1.92,1.92,1.92,0,1,1,3.83,0v1.63Zm-1.91-3.13a1.49,1.49,0,0,0,0,3,1.43,1.43,0,0,0,1.4-1.49,1.4,1.4,0,0,0-1.4-1.49Zm6.4,3.13a.25.25,0,1,1-.5,0V44a1.22,1.22,0,1,0-2.44,0v1.88a.25.25,0,0,1-.51,0V44.07a1.72,1.72,0,0,1,3.45,0v1.84Zm4.29-2.86a.25.25,0,0,1,.05.15.22.22,0,0,1-.24.21.22.22,0,0,1-.18-.1,1.3,1.3,0,0,0-1.11-.53,1.49,1.49,0,0,0,0,3,1.31,1.31,0,0,0,1.11-.53.23.23,0,0,1,.42.11.25.25,0,0,1-.05.15,1.77,1.77,0,0,1-1.48.71,1.93,1.93,0,0,1,0-3.85,1.78,1.78,0,0,1,1.48.71Zm4.26,1.18a.21.21,0,0,1-.21.21H98.07a1.36,1.36,0,0,0,1.41,1.33,1.41,1.41,0,0,0,1.14-.53.25.25,0,0,1,.19-.11.2.2,0,0,1,.21.21.25.25,0,0,1-.05.15,1.84,1.84,0,0,1-1.5.71,1.93,1.93,0,0,1-.05-3.85,1.77,1.77,0,0,1,1.76,1.88Zm-1.76-1.46A1.35,1.35,0,0,0,98.08,44h2.65A1.31,1.31,0,0,0,99.43,42.77ZM14.37,56.09l-2.23-5.24a.31.31,0,0,1,0-.12.23.23,0,0,1,.23-.22.22.22,0,0,1,.21.14l2,4.79,2-4.79a.22.22,0,0,1,.21-.13.23.23,0,0,1,.24.22.37.37,0,0,1,0,.12l-2.23,5.24a.24.24,0,0,1-.46,0Zm4.37.19a1.93,1.93,0,1,1,1.92-1.92A1.88,1.88,0,0,1,18.74,56.28Zm0-3.41a1.49,1.49,0,1,0,1.41,1.49,1.42,1.42,0,0,0-1.41-1.49Zm4.55,0c-.72,0-1.21.69-1.21,1.63V56a.25.25,0,0,1-.25.25.26.26,0,0,1-.25-.25V52.72a.25.25,0,0,1,.5,0v.59a1.25,1.25,0,0,1,1.21-.84.22.22,0,1,1,0,.45Zm2.21,3.37a2.19,2.19,0,0,1-1.41-.48.24.24,0,0,1-.1-.19.18.18,0,0,1,.19-.19.29.29,0,0,1,.19.08,1.89,1.89,0,0,0,1.15.4c.59,0,.94-.24.94-.6s-.43-.55-1-.7c-1.12-.31-1.47-.66-1.47-1.19s.58-1,1.44-1a2.4,2.4,0,0,1,1.14.29c.13.07.23.14.23.25a.19.19,0,0,1-.21.19.43.43,0,0,1-.2-.08,2.14,2.14,0,0,0-1-.25c-.55,0-1,.16-1,.55s.24.52,1,.75S27,54.6,27,55.27s-.52,1-1.45,1Zm4,0a1.93,1.93,0,1,1,1.92-1.92,1.88,1.88,0,0,1-1.92,1.92Zm0-3.41a1.49,1.49,0,1,0,1.41,1.49,1.42,1.42,0,0,0-1.41-1.49Zm4.55,0c-.72,0-1.21.69-1.21,1.63V56a.25.25,0,0,1-.25.25.26.26,0,0,1-.25-.25V52.72a.25.25,0,0,1,.51,0v.59a1.25,1.25,0,0,1,1.21-.84.22.22,0,1,1,0,.45Zm2.36,3.26a1.87,1.87,0,1,1,0-3.73,1.72,1.72,0,0,1,1.48.77v-.49a.25.25,0,0,1,.51,0v3.17a1.75,1.75,0,0,1-1.93,1.93,2.87,2.87,0,0,1-1.5-.38.25.25,0,0,1-.15-.22A.18.18,0,0,1,35,57a.51.51,0,0,1,.22.07,2.56,2.56,0,0,0,1.24.3,1.31,1.31,0,0,0,1.43-1.49v-.53a1.75,1.75,0,0,1-1.48.78Zm0-.41a1.46,1.46,0,0,0,0-2.91,1.45,1.45,0,0,0,0,2.91ZM43,54.31a.21.21,0,0,1-.21.21H39.86a1.36,1.36,0,0,0,1.41,1.33,1.4,1.4,0,0,0,1.14-.53.26.26,0,0,1,.19-.11.2.2,0,0,1,.21.21.25.25,0,0,1,0,.15,1.84,1.84,0,0,1-1.5.71,1.93,1.93,0,0,1-.05-3.85A1.77,1.77,0,0,1,43,54.32Zm-1.76-1.46a1.35,1.35,0,0,0-1.35,1.25h2.65a1.31,1.31,0,0,0-1.3-1.25Zm4,3.43a2.19,2.19,0,0,1-1.41-.48.25.25,0,0,1-.1-.19.18.18,0,0,1,.19-.19.29.29,0,0,1,.19.08,1.89,1.89,0,0,0,1.15.4c.59,0,.94-.24.94-.6s-.43-.55-1-.7c-1.12-.31-1.47-.66-1.47-1.19s.58-1,1.45-1a2.4,2.4,0,0,1,1.13.29c.13.07.23.14.23.25a.19.19,0,0,1-.21.19.42.42,0,0,1-.2-.08,2.15,2.15,0,0,0-1-.25c-.55,0-1,.16-1,.55s.24.52,1,.75,1.41.46,1.41,1.13-.52,1-1.45,1Zm4.09-3.75a.21.21,0,1,1,0,.42h-.85v3a.25.25,0,0,1-.51,0V53h-.75a.21.21,0,0,1,0-.42h.75V51.36a.25.25,0,0,1,.5,0v1.18h.85Zm1-1.43a.32.32,0,1,1-.32.32A.32.32,0,0,1,50.28,51.1Zm0,5.15A.25.25,0,0,1,50,56V52.72a.25.25,0,0,1,.51,0V56a.25.25,0,0,1-.25.25Zm3.1-3.72a.21.21,0,1,1,0,.42h-1v3a.25.25,0,0,1-.25.25.25.25,0,0,1-.25-.25V53h-.59a.21.21,0,0,1,0-.42h.59V52c0-.92.4-1.43,1.35-1.43h.18a.21.21,0,1,1,0,.42h-.15c-.58,0-.87.25-.87,1v.53h1Zm2.61,0A.21.21,0,1,1,56,53h-.85v3a.25.25,0,1,1-.5,0V53h-.75a.21.21,0,1,1,0-.42h.75V51.36a.25.25,0,0,1,.5,0v1.18H56Zm4.14,2a1.72,1.72,0,1,1-3.45,0V52.72a.25.25,0,1,1,.5,0V54.6a1.22,1.22,0,1,0,2.44,0V52.72a.25.25,0,1,1,.5,0ZM64.66,56a.25.25,0,0,1-.5,0V54.11a1.22,1.22,0,1,0-2.44,0V56a.25.25,0,0,1-.25.25.25.25,0,0,1-.25-.25V54.16a1.72,1.72,0,1,1,3.45,0V56Zm2.74.17a1.87,1.87,0,0,1,0-3.73,1.72,1.72,0,0,1,1.48.77v-.49a.25.25,0,1,1,.5,0v3.17a1.75,1.75,0,0,1-1.93,1.93,2.87,2.87,0,0,1-1.5-.38.25.25,0,0,1-.15-.22A.18.18,0,0,1,66,57a.51.51,0,0,1,.22.07,2.55,2.55,0,0,0,1.24.3,1.31,1.31,0,0,0,1.43-1.49v-.53a1.75,1.75,0,0,1-1.48.78Zm0-.41a1.46,1.46,0,0,0,0-2.91,1.45,1.45,0,0,0,0,2.91Z"/></svg>