<?xml version="1.0" encoding="utf-8"?>
<!-- Generator: Adobe Illustrator 21.0.0, SVG Export Plug-In . SVG Version: 6.00 Build 0)  -->
<svg version="1.1" id="Layer_1" xmlns="http://www.w3.org/2000/svg" xmlns:xlink="http://www.w3.org/1999/xlink" x="0px" y="0px"
	 viewBox="0 0 170 170" style="enable-background:new 0 0 170 170;" xml:space="preserve">
<style type="text/css">
	.st0{fill:#575756;}
	.st1{fill:#008ACB;}
</style>
<title>logo_cip</title>
<path class="st0" d="M192.2,58c-0.9-0.7-2.1-1.1-3.3-1.1c-2.1,0-3.8,1.7-3.8,3.8c0,0.1,0,0.1,0,0.2c-0.2,2.2,1.5,4.1,3.7,4.3
	c0.1,0,0.2,0,0.3,0c1.4,0,2.7-0.5,3.7-1.5l-0.1,2.4c-1.1,0.8-2.5,1.2-3.9,1.1c-3.2,0.1-5.9-2.5-6-5.7c0-0.1,0-0.1,0-0.2
	c-0.2-3.5,2.5-6.4,6-6.5c0.1,0,0.2,0,0.3,0c1.4,0,2.7,0.4,3.8,1.1L192.2,58z"/>
<path class="st0" d="M194.8,63.7c0-2.4,2.1-3.9,6.2-3.9c0.3,0,0.7,0,1,0v-0.4c0-1.8-0.7-2.6-2.5-2.6c-1.2,0-2.3,0.4-3.2,1.1l-0.5-2
	c1.2-0.7,2.7-1.1,4.1-1.1c3,0,4.4,1.8,4.4,4.5l-0.1,5c0,0.7,0.2,1,0.7,1c0.3,0,0.7-0.1,1-0.2l-0.2,1.6c-0.5,0.2-1,0.3-1.5,0.4
	c-1.1,0-2-0.9-2-2c-0.8,1.3-2.2,2-3.6,2c-1.8,0.2-3.5-1.2-3.6-3C194.8,64,194.8,63.9,194.8,63.7z M201.9,62.5l0-1.1
	c-0.4,0-0.7,0-1,0c-2.8,0-3.8,1-3.8,2.3c0,0.9,0.6,1.7,1.6,1.7c0.1,0,0.3,0,0.4,0C200.6,65.3,201.9,64.1,201.9,62.5
	C201.9,62.5,201.9,62.5,201.9,62.5L201.9,62.5z"/>
<path class="st0" d="M209.4,52.5c-0.8,0-1.5-0.6-1.5-1.5c0,0,0,0,0,0c0-0.9,0.6-1.6,1.5-1.6c0,0,0,0,0.1,0c0.8,0,1.5,0.7,1.5,1.5
	C211,51.7,210.3,52.4,209.4,52.5C209.4,52.5,209.4,52.5,209.4,52.5z M207.9,66.8c0.1-1.4,0.2-2.8,0.2-4.2v-3.2c0-1.5,0-3.2-0.2-4.3
	c0.9,0,1.9,0,2.6-0.1c-0.1,0.7-0.1,1.8-0.1,2.7v6.6c0,0.8,0,1.6,0.1,2.5L207.9,66.8L207.9,66.8z"/>
<path class="st0" d="M221.5,55.8l-0.8,2c-0.8-0.6-1.8-0.9-2.9-0.9c-1,0-2,0.4-2,1.4c0,1.9,6,1.5,6,5.1c0,2.4-2.1,3.9-4.6,3.9
	c-1.4,0-2.8-0.3-4-1l0.1-2.4c1.1,0.9,2.5,1.3,3.9,1.4c1.3,0,2.2-0.5,2.2-1.5c0-2.3-6-1.6-6-5.4c0-2,1.8-3.6,4.2-3.6
	C219.1,54.8,220.4,55.1,221.5,55.8z"/>
<path class="st0" d="M231.9,55.8l-0.8,2c-0.8-0.6-1.8-0.9-2.9-0.9c-1,0-2,0.4-2,1.4c0,1.9,6,1.5,6,5.1c0,2.4-2.1,3.9-4.6,3.9
	c-1.4,0-2.8-0.3-4-1l0.1-2.4c1.1,0.9,2.5,1.4,3.9,1.4c1.3,0,2.3-0.5,2.3-1.5c0-2.3-6-1.6-6-5.4c0-2,1.8-3.6,4.2-3.6
	C229.5,54.8,230.8,55.1,231.9,55.8z"/>
<path class="st0" d="M243.5,61.5l-6.9,0.2c0.2,2.4,1.4,3.5,3.6,3.5c1.6,0,3.1-0.6,4.3-1.7l-0.1,2.4c-1.3,0.9-2.8,1.4-4.4,1.4
	c-3.9,0-5.8-2.8-5.8-5.9c0-3.7,2.3-6.5,5.9-6.5c3.5,0,4.9,2.6,4.9,5.8L243.5,61.5z M242.8,59.8c-0.2-2-1.1-3-2.8-3
	c-1.8,0-3.2,1.4-3.4,3.2L242.8,59.8z"/>
<path class="st0" d="M184.9,75.9c-0.8,0-1.5-0.6-1.5-1.5c0,0,0,0,0,0c0-0.9,0.6-1.6,1.5-1.6c0,0,0,0,0.1,0c0.8,0,1.5,0.7,1.5,1.5
	C186.5,75.1,185.9,75.8,184.9,75.9C185,75.9,184.9,75.9,184.9,75.9z M183.5,90.3c0.1-1.4,0.2-2.8,0.2-4.2v-3.2c0-1.5,0-3.2-0.2-4.3
	c0.9,0,1.9-0.1,2.6-0.1c-0.1,0.7-0.1,1.8-0.1,2.7v6.6c0,0.8,0,1.6,0.1,2.5L183.5,90.3L183.5,90.3z"/>
<path class="st0" d="M197.4,90.3c0.1-1.1,0.2-2.8,0.2-4.3v-3c0-1.5-0.5-2.6-2-2.6c-1.8,0.1-3.2,1.4-3.5,3.2v4.2c0,0.9,0,2,0.1,2.6
	h-2.6c0.1-1.1,0.1-2.8,0.1-4.3v-3c0-1.5-0.1-3.2-0.1-4.3c0.8,0,1.5,0,2.3-0.1l0.2,2.3c0.9-1.5,2.4-2.4,4.1-2.5
	c2.5,0,3.8,1.6,3.8,4.2v5.2c0,0.9,0.1,2,0.1,2.6L197.4,90.3L197.4,90.3z"/>
<path class="st0" d="M209.7,90c-0.7,0.4-1.5,0.7-2.3,0.7c-2.2,0-3.1-1.2-3.1-3.4v-6.7h-2.1l0.6-2h1.5l0.2-2.5l2.1-0.6v3h3.1
	c-0.1,0.6-0.1,1.1-0.1,2h-3V87c0,1.2,0.4,1.5,1.3,1.5c0.7,0,1.3-0.2,1.9-0.6L209.7,90z"/>
<path class="st0" d="M220.8,84.9l-6.9,0.2c0.2,2.4,1.4,3.6,3.6,3.6c1.6,0,3.1-0.7,4.2-1.7l-0.1,2.4c-1.3,0.9-2.8,1.4-4.4,1.4
	c-3.9,0-5.8-2.8-5.8-5.9c0-3.7,2.3-6.6,5.9-6.6c3.5,0,4.9,2.6,4.9,5.8L220.8,84.9z M220.2,83.2c-0.2-2-1.1-3-2.8-3
	c-1.8,0-3.2,1.4-3.4,3.2L220.2,83.2z"/>
<path class="st0" d="M231.2,80.9c-1.7-0.3-3.8,0.6-3.8,2.4v4.4c0,0.9,0,2,0.1,2.6h-2.6c0.1-1.1,0.1-2.8,0.1-4.3v-3.5
	c0-1.2-0.1-2.4-0.2-3.7c0.8,0,1.6-0.1,2.3-0.3l0.2,2.3c0.9-1.5,2.4-2.4,4.1-2.5L231.2,80.9z"/>
<path class="st0" d="M242,81.4c-0.9-0.7-2.1-1.1-3.3-1.1c-2.1,0-3.8,1.7-3.8,3.8c0,0.1,0,0.1,0,0.2c-0.2,2.2,1.5,4.1,3.7,4.3
	c0.1,0,0.2,0,0.3,0c1.4,0,2.7-0.5,3.7-1.5l-0.1,2.4c-1.1,0.8-2.5,1.2-3.9,1.1c-3.2,0.1-5.9-2.5-6-5.7c0-0.1,0-0.1,0-0.2
	c-0.2-3.5,2.5-6.4,6-6.5c0.1,0,0.2,0,0.3,0c1.4,0,2.7,0.4,3.8,1.1L242,81.4z"/>
<path class="st0" d="M250.3,90.7c-3.1,0-5.6-2.5-5.6-5.6c0-0.1,0-0.2,0-0.3c0-3.7,2.4-6.6,6-6.6c3.1,0,5.7,2.5,5.7,5.6
	c0,0.1,0,0.2,0,0.3C256.2,87.8,253.9,90.7,250.3,90.7z M250.5,80.3c-2.2,0-3.5,1.8-3.5,4.1c0,2.8,1.4,4.3,3.5,4.3
	c2.2,0,3.5-1.8,3.5-4.2C253.9,81.8,252.4,80.3,250.5,80.3z"/>
<path class="st0" d="M273.7,90.3c0.1-1.1,0.2-2.8,0.2-4.3v-3c0-1.5-0.4-2.6-2-2.6c-1.6-0.1-3,1.2-3.1,2.8v4.5c0,0.9,0,2,0.1,2.6
	h-2.6c0.1-1.1,0.1-2.8,0.1-4.3v-3c0-1.5-0.3-2.6-1.9-2.6c-1.6,0-3,1.2-3.1,2.8v4.5c0,0.9,0,2,0.1,2.6h-2.6c0.1-1.1,0.2-2.8,0.2-4.3
	v-3c0-1.5,0-3.2-0.2-4.3c0.8,0,1.5,0,2.3-0.1l0.2,1.9c0.9-1.3,2.3-2.1,3.8-2.2c1.5-0.2,2.9,0.7,3.4,2.1c0.8-1.4,2.4-2.3,4-2.3
	c2.5,0,3.7,1.6,3.7,4.2v5.2c0,0.9,0,2,0.1,2.6L273.7,90.3L273.7,90.3z"/>
<path class="st0" d="M294.4,90.3c0.1-1.1,0.2-2.8,0.2-4.3v-3c0-1.5-0.4-2.6-2-2.6c-1.6,0-3,1.2-3.1,2.8v4.5c0,0.9,0,2,0.1,2.6H287
	c0.1-1.1,0.1-2.8,0.1-4.3v-3c0-1.5-0.3-2.6-1.9-2.6c-1.6,0-3,1.2-3.1,2.8v4.5c0,0.9,0,2,0.1,2.6h-2.6c0.1-1.4,0.2-2.9,0.2-4.3v-3
	c0-1.4,0-2.9-0.2-4.3c0.8,0,1.5,0,2.3-0.1l0.2,1.9c0.9-1.3,2.3-2.1,3.8-2.2c1.5-0.1,2.9,0.8,3.4,2.3c0.8-1.4,2.3-2.2,3.9-2.3
	c2.5,0,3.7,1.6,3.7,4.2v5.2c0,0.9,0,2,0.1,2.6L294.4,90.3L294.4,90.3z"/>
<path class="st0" d="M308.7,90.3l-0.3-1.8c-0.8,1.3-2.2,2.2-3.8,2.3c-2.7,0-4.1-1.4-4.1-4.5v-3.3c0-1.5,0-3.2-0.1-4.3
	c0.9,0,1.8-0.1,2.6-0.1c-0.1,0.7-0.1,1.8-0.1,2.7v4.5c0,1.9,0.6,2.9,2.4,2.9c1.2,0,3.1-1.3,3.1-2.8v-2.9c0-1.5,0-3.2-0.2-4.3
	c0.9,0,1.9-0.1,2.6-0.1c-0.1,0.7-0.1,1.8-0.1,2.7V86c0,1.4,0,2.8,0.2,4.2L308.7,90.3L308.7,90.3z"/>
<path class="st0" d="M322.1,90.3c0.1-1.1,0.2-2.8,0.2-4.3v-3c0-1.5-0.5-2.6-2-2.6c-1.8,0.1-3.2,1.4-3.5,3.2v4.2c0,0.9,0,2,0.1,2.6
	h-2.6c0.1-1.1,0.1-2.8,0.1-4.3v-3c0-1.5,0-3.2-0.1-4.3c0.8,0,1.5,0,2.3-0.1l0.2,2.3c0.9-1.5,2.4-2.4,4.1-2.5c2.5,0,3.8,1.6,3.8,4.2
	v5.2c0,0.9,0,2,0.1,2.6L322.1,90.3L322.1,90.3z"/>
<path class="st0" d="M327.3,87.2c0-2.4,2.1-3.9,6.2-3.9c0.3,0,0.7,0,1,0.1v-0.4c0-1.8-0.7-2.6-2.5-2.6c-1.2,0-2.3,0.4-3.2,1.1
	l-0.5-2c1.3-0.7,2.7-1.1,4.1-1.1c3,0,4.4,1.8,4.4,4.5l-0.1,5c0,0.7,0.2,1,0.7,1c0.3,0,0.7-0.1,1-0.2l-0.2,1.6
	c-0.5,0.2-1,0.3-1.5,0.3c-1.1,0-2-0.9-2-2c-0.8,1.3-2.2,2-3.6,2c-1.8,0.2-3.5-1.2-3.6-3C327.3,87.4,327.3,87.3,327.3,87.2z
	 M334.3,85.9l0-1.1c-0.4,0-0.7-0.1-1-0.1c-2.8,0-3.8,1-3.8,2.3c0,0.9,0.6,1.7,1.6,1.7c0.1,0,0.3,0,0.4,0
	C333,88.7,334.3,87.5,334.3,85.9z"/>
<path class="st0" d="M340.3,90.3c0.1-1.4,0.2-2.8,0.2-4.2v-9.7c0-1.4,0-2.8-0.2-4.2c0.9-0.1,1.7-0.2,2.6-0.3
	c-0.1,0.7-0.1,1.9-0.1,2.8v13.1c0,0.8,0,1.6,0.1,2.5H340.3z"/>
<path class="st0" d="M355,84.9l-6.9,0.2c0.2,2.4,1.4,3.6,3.6,3.6c1.6,0,3.1-0.7,4.2-1.7l-0.1,2.4c-1.3,0.9-2.8,1.4-4.4,1.4
	c-3.9,0-5.8-2.8-5.8-5.9c0-3.7,2.3-6.6,5.9-6.6c3.5,0,4.9,2.6,4.9,5.8L355,84.9z M354.3,83.2c-0.2-2-1.1-3-2.8-3
	c-1.8,0-3.2,1.4-3.4,3.2L354.3,83.2z"/>
<path class="st0" d="M191.6,102.5v-2.6c0-1.4,0-2.8-0.1-4.2c0.9-0.1,1.7-0.2,2.6-0.3c-0.1,0.7-0.1,1.9-0.1,2.8v11.4
	c0,1.5,0,3,0.2,4.2H192l-0.2-1.3c-0.9,1.1-2.2,1.7-3.6,1.7c-3.3,0-5.4-2.6-5.4-5.8c0-3.7,2.6-6.7,6.1-6.7
	C189.9,101.6,190.8,101.9,191.6,102.5z M185.2,108c0,2.7,1.6,4.1,3.5,4.1c1.3,0,2.4-0.7,3-1.8v-5.6c-0.7-0.7-1.7-1.1-2.7-1.1
	C186.5,103.7,185.2,105.7,185.2,108z"/>
<path class="st0" d="M206.1,108.3l-6.9,0.2c0.2,2.4,1.4,3.6,3.6,3.6c1.6,0,3.1-0.7,4.2-1.7l-0.1,2.4c-1.3,0.9-2.8,1.4-4.4,1.4
	c-3.9,0-5.8-2.8-5.8-5.9c0-3.7,2.3-6.6,5.9-6.6c3.4,0,4.9,2.6,4.9,5.8L206.1,108.3z M205.4,106.6c-0.2-2-1.1-3-2.8-3
	c-1.8,0-3.2,1.4-3.4,3.2L205.4,106.6z"/>
<path class="st0" d="M221.1,114.1c-1.1,0-2.1-0.3-3-1v3.3c0,0.8,0,1.6,0.1,2.4l-2.6,0.2c0.1-1.4,0.2-2.9,0.2-4.3v-8.5
	c0-1.4,0-2.9-0.2-4.3c0.8,0,1.5,0,2.3-0.1l0.1,1.6c0.9-1.1,2.3-1.8,3.8-1.8c3.2,0,5.1,2.6,5.1,5.8
	C226.9,111.6,223.8,114.1,221.1,114.1z M221.1,103.7c-1.2,0.1-2.3,0.7-3,1.8v5.5c0.7,0.8,1.8,1.3,2.9,1.2c2.1,0,3.5-2.1,3.5-4.5
	C224.6,104.8,223,103.7,221.1,103.7L221.1,103.7z"/>
<path class="st0" d="M238.1,108.3l-6.9,0.2c0.2,2.4,1.4,3.6,3.6,3.6c1.6,0,3.1-0.7,4.2-1.7l-0.1,2.4c-1.3,0.9-2.8,1.4-4.4,1.4
	c-3.9,0-5.8-2.8-5.8-5.9c0-3.7,2.3-6.6,5.9-6.6s4.9,2.6,4.9,5.8L238.1,108.3z M237.5,106.6c-0.2-2-1.1-3-2.8-3
	c-1.8,0-3.2,1.4-3.4,3.2L237.5,106.6z"/>
<path class="st0" d="M250.1,113.7c0.1-1.1,0.2-2.8,0.2-4.3v-3c0-1.5-0.5-2.6-2-2.6c-1.8,0.1-3.2,1.4-3.5,3.2v4.1c0,0.9,0,2,0.1,2.6
	h-2.6c0.1-1.1,0.1-2.8,0.1-4.3v-3c0-1.5,0-3.2-0.1-4.3c0.8,0,1.5,0,2.3-0.1l0.2,2.3c0.9-1.5,2.4-2.4,4.1-2.5c2.5,0,3.8,1.6,3.8,4.2
	v5.2c0,0.9,0,2,0.1,2.6L250.1,113.7L250.1,113.7z"/>
<path class="st0" d="M263.6,102.6l-0.8,2c-0.8-0.6-1.8-0.9-2.9-0.9c-1,0-2,0.4-2,1.4c0,1.9,6,1.5,6,5.1c0,2.4-2.1,3.9-4.6,3.9
	c-1.4,0-2.8-0.3-4-1l0.1-2.4c1.1,0.9,2.5,1.4,3.9,1.4c1.3,0,2.3-0.5,2.3-1.4c0-2.3-6-1.6-6-5.4c0-2,1.8-3.6,4.2-3.6
	C261.2,101.6,262.5,102,263.6,102.6z"/>
<path class="st0" d="M268,99.3c-0.8,0-1.5-0.6-1.5-1.5c0,0,0,0,0,0c0-0.9,0.6-1.6,1.5-1.6c0,0,0,0,0.1,0c0.8,0,1.5,0.7,1.5,1.5
	C269.6,98.5,268.9,99.3,268,99.3C268.1,99.3,268,99.3,268,99.3z M266.6,113.7c0.1-1.4,0.2-2.8,0.2-4.2v-3.2c0-1.4,0-2.9-0.2-4.3
	c0.9,0,1.9-0.1,2.6-0.1c-0.1,0.7-0.1,1.8-0.1,2.7v6.6c0,0.8,0,1.6,0.1,2.5L266.6,113.7L266.6,113.7z"/>
<path class="st0" d="M277.6,114.1c-3.1,0-5.6-2.5-5.6-5.6c0-0.1,0-0.2,0-0.3c0-3.7,2.4-6.6,6-6.6c3.1,0,5.7,2.5,5.7,5.6
	c0,0.1,0,0.2,0,0.3C283.6,111.2,281.2,114.1,277.6,114.1z M277.8,103.7c-2.2,0-3.5,1.8-3.5,4.1c0,2.8,1.4,4.3,3.5,4.3
	c2.2,0,3.5-1.8,3.5-4.2C281.3,105.2,279.8,103.7,277.8,103.7L277.8,103.7z"/>
<path class="st0" d="M294.1,113.7c0.1-1.1,0.2-2.8,0.2-4.3v-3c0-1.5-0.5-2.6-2-2.6c-1.8,0.1-3.2,1.4-3.5,3.2v4.1c0,0.9,0,2,0.1,2.6
	h-2.6c0.1-1.1,0.1-2.8,0.1-4.3v-3c0-1.5,0-3.2-0.1-4.3c0.8,0,1.5,0,2.3-0.1l0.2,2.3c0.9-1.5,2.4-2.4,4.1-2.5c2.5,0,3.8,1.6,3.8,4.2
	v5.2c0,0.9,0,2,0.1,2.6L294.1,113.7L294.1,113.7z"/>
<path class="st0" d="M307.7,102.6l-0.8,2c-0.8-0.6-1.8-0.9-2.9-0.9c-1,0-2,0.4-2,1.4c0,1.9,6,1.5,6,5.1c0,2.4-2.1,3.9-4.6,3.9
	c-1.4,0-2.8-0.3-4-1l0.1-2.4c1.1,0.9,2.5,1.3,3.9,1.4c1.3,0,2.3-0.5,2.3-1.4c0-2.3-6-1.6-6-5.4c0-2,1.8-3.6,4.2-3.6
	C305.3,101.6,306.5,102,307.7,102.6z"/>
<g>
	<path class="st1" d="M73.1,49.3h-1.3v66.5h13.6V56.8C85.4,50,79.1,49.3,73.1,49.3z"/>
	
		<ellipse transform="matrix(1 -2.617982e-03 2.617982e-03 1 -8.465833e-02 0.2057)" class="st1" cx="78.5" cy="32.4" rx="7.8" ry="7.8"/>
	<path class="st1" d="M134.5,47.4c-8.1,0.2-15.8,3.9-21,10.1v-0.7c0-6.9-6.1-7.4-12.1-7.4h-1.3v96h1.4c6,0,12.7-0.5,12.7-7.4v-7.1
		l0,0V112c3.7,3.1,10.3,5.4,16.8,5.4c15.1,0,32.5-14.2,32.5-37.6C163.5,61.9,152.6,47.4,134.5,47.4z M130.7,106.2
		c-8,0-13.1-2.7-16.5-6.7V68.6c4-5.8,10.4-9.8,17-9.8c10.4,0,19.2,6.5,19.2,22.4C150.4,94.4,142.5,106.2,130.7,106.2z"/>
	<path class="st1" d="M50.3,104.2c-3.5,1.4-7.2,2.1-10.9,2.1c-11.8,0-19.3-11.6-19.3-23.6S27.6,59,39.4,59c4.6,0,7.3,1,11,2.4
		c3.2,1.2,7,1.5,8.6-3.8l1.2-3.6c-6-4-13.1-6.1-20.3-6C20.8,48,6.5,62.6,6.5,82.6s14.4,34.7,33.4,34.7c7.2,0.1,14.3-2,20.3-6
		l-1.1-3.3C57.4,102.4,53.9,102.8,50.3,104.2z"/>
</g>
</svg>
