<svg xmlns="http://www.w3.org/2000/svg" viewBox="0 0 188.1151 80"><path d="M81.586 48.391c-1.138 1.11-2.755 1.566-4.58 1.558-2.593-.02-4.35-1.466-4.66-3.845h3.564c4.909 0 6.485-.893 6.485-3.689 0-3.059-2.99-5.116-5.782-5.116-4.137 0-7.137 3.309-7.137 7.855 0 4.226 3.014 7.291 7.164 7.291 3.19 0 5.167-1.067 5.167-2.773v-1.281h-.221zm-9.263-4.923a3.954 3.954 0 0 1 4.007-3.724c2.486 0 3.36 1.511 3.36 2.81 0 .903-.37 1.277-4.122 1.331 0 0-2.68.045-3.268.052.01-.158.023-.47.023-.47zM173.607 71.65c-1.137 1.111-2.754 1.576-4.58 1.561-2.598-.018-4.344-1.475-4.654-3.84h3.56c4.912 0 6.483-.896 6.483-3.687 0-3.06-2.991-5.113-5.78-5.113-4.139 0-7.138 3.296-7.138 7.847 0 4.221 3.012 7.29 7.165 7.29 3.188 0 5.162-1.064 5.162-2.78V71.65h-.218zm-9.262-4.919a3.962 3.962 0 0 1 4.008-3.732c2.481 0 3.36 1.518 3.36 2.813 0 .9-.37 1.28-4.122 1.336 0 0-2.683.036-3.264.049.004-.157.018-.466.018-.466zm-11.199-18.34c-1.128 1.11-2.75 1.566-4.58 1.558-2.593-.02-4.34-1.466-4.655-3.845h3.565c4.908 0 6.488-.897 6.488-3.689 0-3.059-2.995-5.116-5.787-5.116-4.131 0-7.135 3.304-7.135 7.855 0 4.226 3.013 7.286 7.169 7.286 3.184 0 5.162-1.062 5.162-2.768v-1.281h-.227zm-9.261-4.923a3.964 3.964 0 0 1 4.01-3.724c2.482 0 3.365 1.511 3.365 2.81 0 .903-.379 1.277-4.127 1.331 0 0-2.681.043-3.262.045.008-.151.014-.462.014-.462zm19.292.2c-3.092-.638-3.584-1.022-3.584-1.896 0-1.589 1.873-1.921 3.45-1.921.008 0 1.113.014 1.856.243.986.311 1.799.782 2.214 1.3h.223v-1.262c0-1.858-2.262-2.833-4.498-2.833-3.937 0-6.058 2.384-6.058 4.631 0 2.405 1.682 3.234 4.218 3.738 3.51.723 3.856 1.432 3.883 2.248.051 1.363-.98 2.032-3.1 2.011a8.734 8.734 0 0 1-1.979-.255c-1.165-.32-2.094-.864-2.52-1.425h-.226v1.23c0 1.715 1.965 2.963 4.659 2.963 3.698 0 5.99-1.816 5.99-4.737 0-2.056-1.53-3.41-4.529-4.035zm20.41 23.266c-3.088-.64-3.578-1.02-3.578-1.9 0-1.584 1.872-1.923 3.448-1.923.01 0 1.11.018 1.853.247.984.313 1.798.78 2.219 1.298h.221v-1.258c0-1.856-2.264-2.833-4.5-2.833-3.933 0-6.06 2.386-6.06 4.629 0 2.402 1.687 3.233 4.22 3.742 3.511.716 3.858 1.433 3.886 2.24.052 1.364-.971 2.035-3.101 2.008a8.507 8.507 0 0 1-1.983-.256c-1.16-.312-2.093-.86-2.519-1.417h-.22v1.229c0 1.715 1.957 2.969 4.657 2.969 3.689 0 5.985-1.824 5.985-4.74 0-2.057-1.524-3.41-4.528-4.035zM75.595 60.597c-4.367 0-7.075 2.988-7.075 7.792 0 4.236 2.976 7.32 7.075 7.32 4.225 0 6.85-3.015 6.85-7.854 0-4.341-2.755-7.258-6.85-7.258zm.255 12.563c-2.83 0-4.51-1.977-4.51-5.277 0-2.881 1.524-4.746 3.89-4.746 2.875 0 4.396 1.83 4.396 5.281 0 2.921-1.451 4.742-3.776 4.742zm-7.977-21.424a6.895 6.895 0 0 1-.707-1.204l-1.817-4.082c-.406-.902-1.008-2.219-2.593-2.864 2.607-.488 4.16-2.238 4.16-4.766 0-3.199-2.52-5.062-6.425-5.15-.74-.018-3.66.005-6.572.856v16.136c0 1.095.6 1.672 1.743 1.672h1.072v-8c.69.128 1.973.277 3.101.352 1.104.078 1.918.327 3.101 3.017l1.429 3.267c.42.99 1.122 1.437 2.213 1.442.407.018 1.23-.073 1.572-.125v-.226a1.517 1.517 0 0 1-.277-.325zm-7.806-9.46c-1.1 0-2.197-.082-3.333-.254V36.36c1.613-.304 3.286-.285 3.689-.267 2.32.078 3.677 1.044 3.677 3.11 0 2.265-2.083 3.073-4.033 3.073zm.303 14.675c-2.48-.078-5.305.549-6.451.874v16.048c0 1.08.657 1.727 1.743 1.727h1.072v-7.529c.817.448 2.107.707 3.698.707 3.794 0 6.654-2.615 6.654-6.078 0-3.476-2.693-5.628-6.715-5.749zm.094 9.425c-1.645 0-2.834-.22-3.73-.667v-5.976c.901-.165 2.255-.36 3.6-.327 2.556.066 3.939 1.225 3.939 3.569 0 2.185-1.36 3.401-3.809 3.401zm62.899-30.417c1.011 0 1.83-.796 1.83-1.784 0-1-.819-1.806-1.83-1.806-1.007 0-1.858.826-1.858 1.806 0 .988.836 1.784 1.858 1.784zM90.616 52.44c1.826 0 2.833-.704 2.833-1.97v-1.038h-.221c-.055.05-.11.097-.18.144-.198.118-.656.3-1.567.353-.3.02-.679-.01-.989-.05-1.391-.114-2.006-.983-2.006-2.767v-6.993h3.05c1.318 0 2.08-.583 2.08-1.595V37.6h-5.163v-2.95h-.147c-.92 0-1.585.553-1.94 1.067-.435.605-.671 1.42-.671 2.298v9.346c0 3.417 1.609 5.078 4.921 5.078zm45.069-.052c1.83 0 2.837-.692 2.837-1.96v-1.043h-.226a.74.74 0 0 1-.171.14c-.202.124-.67.305-1.57.36a5.912 5.912 0 0 1-.99-.052c-1.387-.12-2.011-.99-2.011-2.768v-6.993h3.051c1.33 0 2.084-.583 2.084-1.595v-.923h-5.158v-2.958h-.157c-.92 0-1.582.567-1.942 1.076-.433.605-.664 1.42-.664 2.296v9.342c0 3.42 1.602 5.078 4.917 5.078zm10.2 18.58v-7.975c0-1.328-.951-2.026-1.885-2.026h-.902v10.348c0 2.912 1.548 4.394 4.603 4.394.977 0 1.61-.622 1.61-1.575v-.923H148.1c-1.532 0-2.214-.692-2.214-2.243zM111.708 37.22c-3.624 0-5.312 1.891-5.312 3.17v1.416h.218c.079-.1.291-.453 1.054-1.035.757-.578 2.28-1.044 3.78-1.044 2.413 0 3.435.855 3.435 2.847v.563h-1.913c-4.609 0-7.142 1.748-7.142 4.923 0 2.495 2.524 4.381 5.88 4.381 4.945 0 5.976-2.796 5.976-5.14v-4.534c0-3.577-2.121-5.547-5.976-5.547zm3.207 9.893c0 2.005-.896 2.817-3.096 2.817-1.813 0-3.13-.9-3.13-2.143 0-1.571 1.441-2.367 4.28-2.367h1.946v1.693zm18.067 13.37c-3.62 0-5.31 1.891-5.31 3.17v1.412h.222c.072-.095.29-.457 1.048-1.033.763-.577 2.279-1.045 3.781-1.045 2.408 0 3.434.856 3.434 2.851v.56h-1.913c-4.608 0-7.14 1.751-7.14 4.921 0 2.497 2.527 4.39 5.878 4.39 4.945 0 5.985-2.8 5.985-5.146v-4.536c0-3.58-2.121-5.545-5.985-5.545zm3.208 9.896c0 2.002-.896 2.819-3.097 2.819-1.812 0-3.125-.9-3.125-2.144 0-1.573 1.443-2.366 4.276-2.366h1.946v1.69zm-8.08-19.504v-.926h-1.215c-1.525 0-2.205-.692-2.205-2.245v-7.968c0-1.332-.947-2.026-1.89-2.026h-.901v10.346c0 2.911 1.55 4.386 4.608 4.386.974 0 1.603-.616 1.603-1.567zm16.454 8.345c1.013 0 1.831-.798 1.831-1.783 0-.994-.819-1.811-1.83-1.811-1.013 0-1.864.831-1.864 1.811 0 .985.837 1.783 1.863 1.783zm-23.256 11.806V58.023c0-1.225-.735-1.991-1.914-1.991h-.906v15.283c0 2.912 1.567 4.394 4.663 4.394 1.46 0 2.168-.52 2.168-1.575v-.923h-1.78c-1.562 0-2.231-.653-2.231-2.186zm-29.04-10.46c-4.705 0-7.303 2.824-7.303 7.954v9.507c0 1.328.582 1.974 1.78 1.974h1.039v-6.582c.874 1.35 2.524 2.29 4.201 2.29 4.106 0 6.86-3.186 6.86-7.91 0-4.469-3.415-7.233-6.577-7.233zm0 12.619c-2.921 0-4.533-1.89-4.533-5.329 0-2.972 1.478-4.744 3.97-4.744 2.823 0 4.32 1.86 4.32 5.358 0 3-1.368 4.715-3.757 4.715zm12.026-32.095h.222l.005-1.377c0-.588-.288-1.946-2.931-1.946-3.116 0-5.052 2.38-5.052 6.21v6.601c0 1.055.63 1.758 1.58 1.758h1.212v-8.172c0-2.898.666-3.883 2.634-3.883.87 0 1.822.282 2.33.81zm55.462 23.261h.227v-1.375c0-.587-.286-1.951-2.92-1.951-3.116 0-5.062 2.384-5.062 6.212v6.614c0 1.043.541 1.75 1.49 1.75h1.21l.097-8.176c0-2.902.66-3.882 2.63-3.882.876 0 1.825.288 2.328.808zm-47.069-3.522h-.813v8.07c0 2.944-1.067 4.262-3.448 4.262-2.26 0-3.609-1.63-3.609-4.363v-5.934c0-1.313-.67-2.035-1.896-2.035h-.897v8.099c0 4.178 2.39 6.782 6.235 6.782 4.127 0 6.403-2.337 6.403-6.565v-6.281c0-1.345-.662-2.035-1.975-2.035z" fill="#1A171B"/><path fill="#008F4F" d="M80.638.055C75.194.33 68.894 1.37 63.57 2.856c-3.245.902-11.176 2.899-23.493 9.555C32.2 16.667 22.704 23.216 14.84 32.127 6.94 41.079 1.909 51.45 0 61.22c7.825.583 19.126-3.123 31.757-11.789 2.695-1.849 5.426-4.15 8.056-6.642 0 0 7.229-7.173 12.559-14.078a290.607 290.607 0 0 1 11.142-13.538c.065-.078.805-.92.805-.92.401-.48 8.74-10.486 16.319-14.199zM84.654 0c-2.676 1.248-9.738 5.13-17.374 14.176 3.994-.324 12.06-1.258 18.081-3.614C90.797 8.44 95.636 5.62 99.685 2.404 95.063.782 90.244.024 84.654 0z"/></svg>