<svg xmlns="http://www.w3.org/2000/svg" viewBox="0 0 400 150"><defs><style>.a{fill:#008acb;}.b{fill:#575756;}</style></defs><title>logo_cip</title><path class="a" d="M91.57 39.3h-1.28v66.52h13.59V46.74c-.01-6.74-6.27-7.44-12.31-7.44z"/><path class="b" d="M210.73 48a5.22 5.22 0 0 0-3.27-1.12 3.83 3.83 0 0 0-3.81 4.06 4 4 0 0 0 4 4.29 5 5 0 0 0 3.7-1.5l-.1 2.41a6.47 6.47 0 0 1-3.88 1.14 5.87 5.87 0 0 1-6-5.94 6.26 6.26 0 0 1 6.22-6.55 6.76 6.76 0 0 1 3.83 1.14zM213.35 53.73c0-2.36 2.11-3.93 6.17-3.93.33 0 .66 0 1 .05v-.38c.05-1.75-.69-2.61-2.46-2.61a5.73 5.73 0 0 0-3.22 1.14l-.53-2a8.11 8.11 0 0 1 4.13-1.14c3 0 4.44 1.83 4.36 4.52l-.15 5c0 .71.18 1 .74 1a3.26 3.26 0 0 0 1-.2l-.23 1.62a3.82 3.82 0 0 1-1.52.36 2 2 0 0 1-2-2 4.16 4.16 0 0 1-3.65 2 3.35 3.35 0 0 1-3.64-3.43zm7.08-1.24l.05-1.14c-.35 0-.69-.05-1-.05-2.84 0-3.83 1-3.83 2.31a1.64 1.64 0 0 0 1.93 1.7 2.84 2.84 0 0 0 2.85-2.83zM227.86 42.44a1.48 1.48 0 0 1-1.5-1.5 1.58 1.58 0 0 1 1.57-1.65 1.5 1.5 0 0 1 1.5 1.5 1.58 1.58 0 0 1-1.57 1.65zm-1.42 14.38a39.89 39.89 0 0 0 .18-4.16v-3.2c0-1.47-.05-3.22-.18-4.31.91 0 1.85-.05 2.61-.13-.08.66-.1 1.83-.1 2.71v6.62a23.54 23.54 0 0 0 .1 2.46h-2.61zM240 45.76l-.79 2a4.91 4.91 0 0 0-2.87-.94c-1 0-2 .36-2 1.42 0 1.88 6 1.47 6 5.12 0 2.41-2.11 3.88-4.59 3.88a8.33 8.33 0 0 1-4-1l.13-2.41a6.8 6.8 0 0 0 3.93 1.39c1.29 0 2.25-.51 2.25-1.45 0-2.31-6-1.62-6-5.4 0-2 1.75-3.58 4.24-3.58a7.29 7.29 0 0 1 3.7.97zM250.44 45.76l-.79 2a4.91 4.91 0 0 0-2.87-.94c-1 0-2 .36-2 1.42 0 1.88 6 1.47 6 5.12 0 2.41-2.1 3.88-4.59 3.88a8.32 8.32 0 0 1-4-1l.13-2.41a6.79 6.79 0 0 0 3.93 1.39c1.29 0 2.26-.51 2.26-1.45 0-2.31-6-1.62-6-5.4 0-2 1.75-3.58 4.24-3.58a7.28 7.28 0 0 1 3.69.97zM262 51.47l-6.92.2c.18 2.36 1.39 3.55 3.65 3.55A6.49 6.49 0 0 0 263 53.5l-.1 2.38a7.62 7.62 0 0 1-4.36 1.4c-3.91 0-5.76-2.77-5.76-5.94 0-3.65 2.31-6.55 5.91-6.55 3.45 0 4.87 2.59 4.87 5.76zm-.66-1.72c-.25-2-1.07-3-2.82-3a3.48 3.48 0 0 0-3.4 3.17zM203.43 65.86a1.48 1.48 0 0 1-1.5-1.5 1.58 1.58 0 0 1 1.57-1.65 1.5 1.5 0 0 1 1.5 1.5 1.58 1.58 0 0 1-1.57 1.65zM202 80.24a39.94 39.94 0 0 0 .18-4.16v-3.2c0-1.47-.05-3.22-.18-4.31.91 0 1.85-.05 2.61-.13-.08.66-.1 1.83-.1 2.72v6.62a23.56 23.56 0 0 0 .1 2.46H202zM215.88 80.24c.13-1.09.18-2.84.18-4.31v-3c0-1.47-.48-2.61-2-2.61a3.69 3.69 0 0 0-3.48 3.17v4.19c0 .89 0 2 .1 2.61h-2.59c.1-1.09.15-2.84.15-4.31v-3c0-1.47-.05-3.22-.15-4.31a20.83 20.83 0 0 0 2.28-.13l.18 2.26a5.14 5.14 0 0 1 4.11-2.49c2.54 0 3.75 1.57 3.75 4.21v5.2c0 .89.05 2 .1 2.61h-2.61zM228.16 79.94a4.11 4.11 0 0 1-2.31.66c-2.21 0-3.12-1.24-3.12-3.45V70.5h-2.11l.61-2h1.52L223 66l2.08-.56v3h3.12c-.05.56-.08 1.12-.08 2h-3V77c0 1.19.43 1.52 1.29 1.52a3.83 3.83 0 0 0 1.9-.61zM239.33 74.89l-6.93.2c.18 2.36 1.39 3.55 3.65 3.55a6.5 6.5 0 0 0 4.24-1.72l-.1 2.39a7.65 7.65 0 0 1-4.36 1.4c-3.91 0-5.76-2.77-5.76-5.94 0-3.65 2.31-6.55 5.91-6.55 3.45 0 4.87 2.59 4.87 5.76zm-.66-1.73c-.25-2-1.06-3-2.81-3a3.48 3.48 0 0 0-3.4 3.17zM249.7 70.9c-1.67-.3-3.78.58-3.78 2.36v4.36c0 .89 0 2 .1 2.61h-2.59c.13-1.09.15-2.84.15-4.31v-3.54a21.26 21.26 0 0 0-.25-3.65 11.29 11.29 0 0 0 2.31-.33l.25 2.31a5 5 0 0 1 4.11-2.5zM260.51 71.41a5.22 5.22 0 0 0-3.27-1.12 3.83 3.83 0 0 0-3.81 4.06 4 4 0 0 0 4 4.29 5 5 0 0 0 3.7-1.5l-.13 2.42a6.46 6.46 0 0 1-3.88 1.14 5.87 5.87 0 0 1-6-5.94 6.26 6.26 0 0 1 6.22-6.55 6.75 6.75 0 0 1 3.83 1.14zM268.76 80.7a5.64 5.64 0 0 1-5.63-5.94c0-3.65 2.36-6.55 6-6.55a5.65 5.65 0 0 1 5.66 5.94c-.04 3.65-2.4 6.55-6.03 6.55zm.24-10.43c-2.16 0-3.55 1.83-3.55 4.11 0 2.82 1.37 4.26 3.45 4.26 2.23 0 3.55-1.85 3.55-4.16-.01-2.71-1.54-4.21-3.45-4.21zM292.17 80.24c.13-1.09.18-2.84.18-4.31v-3c0-1.47-.41-2.61-2-2.61a3 3 0 0 0-3.12 2.84v4.52c0 .89 0 2 .1 2.61h-2.59c.1-1.09.15-2.84.15-4.31v-3c0-1.47-.33-2.61-1.88-2.61a3.05 3.05 0 0 0-3.12 2.84v4.52c0 .89 0 2 .1 2.61h-2.61c.13-1.09.18-2.84.18-4.31v-3c0-1.47-.05-3.22-.18-4.31a20.5 20.5 0 0 0 2.28-.13l.18 1.93a4.87 4.87 0 0 1 3.78-2.16 3.23 3.23 0 0 1 3.38 2.11 4.61 4.61 0 0 1 4-2.26c2.54 0 3.7 1.57 3.7 4.21v5.2c0 .89 0 2 .1 2.61h-2.61zM312.9 80.24c.13-1.09.18-2.84.18-4.31v-3c0-1.47-.4-2.61-2-2.61a3 3 0 0 0-3.08 2.79v4.52c0 .89 0 2 .1 2.61h-2.59c.1-1.09.15-2.84.15-4.31v-3c0-1.47-.33-2.61-1.88-2.61a3.06 3.06 0 0 0-3.12 2.84v4.52c0 .89 0 2 .1 2.61h-2.61a43.15 43.15 0 0 0 .18-4.31v-3a43.11 43.11 0 0 0-.18-4.31 20.49 20.49 0 0 0 2.28-.13l.18 1.93a4.87 4.87 0 0 1 3.78-2.16 3.23 3.23 0 0 1 3.37 2.26 4.61 4.61 0 0 1 3.93-2.26c2.54 0 3.7 1.57 3.7 4.21v5.2c0 .89 0 2 .1 2.61h-2.59zM327.21 80.24l-.28-1.83a4.89 4.89 0 0 1-3.81 2.29c-2.67 0-4.11-1.45-4.11-4.54v-3.28c0-1.47-.05-3.22-.15-4.31.91 0 1.83-.05 2.59-.13-.08.66-.1 1.83-.1 2.72v4.54c0 1.9.61 2.94 2.39 2.94 1.22 0 3.12-1.29 3.12-2.82v-2.94c0-1.47 0-3.22-.18-4.31.91 0 1.88-.05 2.64-.13-.08.66-.13 1.83-.13 2.72V76a42 42 0 0 0 .18 4.21h-2.16zM340.56 80.24c.13-1.09.18-2.84.18-4.31v-3c0-1.47-.48-2.61-2-2.61a3.7 3.7 0 0 0-3.48 3.17v4.19c0 .89 0 2 .1 2.61h-2.59c.1-1.09.15-2.84.15-4.31v-3c0-1.47-.05-3.22-.15-4.31a20.86 20.86 0 0 0 2.28-.13l.18 2.26a5.15 5.15 0 0 1 4.11-2.49c2.54 0 3.75 1.57 3.75 4.21v5.2c0 .89.05 2 .1 2.61h-2.61zM345.76 77.14c0-2.36 2.1-3.93 6.17-3.93.33 0 .66 0 1 .05v-.38c.05-1.75-.69-2.61-2.46-2.61a5.73 5.73 0 0 0-3.22 1.12l-.53-2a8.1 8.1 0 0 1 4.14-1.14c3 0 4.44 1.83 4.36 4.52l-.15 5c0 .71.18 1 .73 1a3.23 3.23 0 0 0 1-.2l-.23 1.63a3.84 3.84 0 0 1-1.52.35 2 2 0 0 1-2-2 4.16 4.16 0 0 1-3.65 2 3.35 3.35 0 0 1-3.64-3.41zm7.08-1.24l.05-1.14c-.36 0-.69-.05-1-.05-2.84 0-3.83 1-3.83 2.31a1.64 1.64 0 0 0 1.93 1.7 2.84 2.84 0 0 0 2.85-2.82zM358.85 80.24a39.65 39.65 0 0 0 .18-4.16v-9.67a40.47 40.47 0 0 0-.18-4.19 24.41 24.41 0 0 0 2.61-.33c-.08.66-.1 1.9-.1 2.77v13.12a23.29 23.29 0 0 0 .1 2.46h-2.61zM373.49 74.89l-6.92.2c.18 2.36 1.39 3.55 3.65 3.55a6.49 6.49 0 0 0 4.24-1.72l-.1 2.39A7.64 7.64 0 0 1 370 80.7c-3.91 0-5.76-2.77-5.76-5.94 0-3.65 2.31-6.55 5.91-6.55 3.45 0 4.87 2.59 4.87 5.76zm-.66-1.73c-.25-2-1.07-3-2.82-3a3.48 3.48 0 0 0-3.4 3.17zM210.1 92.47v-2.64a41.5 41.5 0 0 0-.15-4.19 24.32 24.32 0 0 0 2.61-.33c-.08.66-.1 1.9-.1 2.77v11.37c0 1.47.05 3 .18 4.21h-2.16l-.18-1.27a4.72 4.72 0 0 1-3.58 1.73c-3.3 0-5.38-2.56-5.38-5.81 0-3.73 2.59-6.67 6.06-6.67a4.66 4.66 0 0 1 2.7.83zM203.66 98c0 2.72 1.62 4.06 3.47 4.06a3.34 3.34 0 0 0 3-1.77v-5.56a3.62 3.62 0 0 0-2.66-1.07c-2.42 0-3.81 1.98-3.81 4.34zM224.56 98.31l-6.93.2c.18 2.36 1.4 3.55 3.65 3.55a6.49 6.49 0 0 0 4.24-1.72l-.1 2.38a7.63 7.63 0 0 1-4.36 1.4c-3.91 0-5.76-2.77-5.76-5.94 0-3.65 2.31-6.55 5.91-6.55 3.45 0 4.87 2.59 4.87 5.76zm-.66-1.73c-.25-2-1.06-3-2.82-3a3.48 3.48 0 0 0-3.4 3.17zM239.61 104.12a4.91 4.91 0 0 1-3-1v3.35a21.73 21.73 0 0 0 .1 2.36l-2.61.23a42.64 42.64 0 0 0 .18-4.29V96.3a43.14 43.14 0 0 0-.18-4.3 20.78 20.78 0 0 0 2.28-.1l.1 1.57a5 5 0 0 1 3.75-1.83c3.22 0 5.15 2.59 5.15 5.79.01 4.15-3.09 6.69-5.77 6.69zm0-10.45a3.81 3.81 0 0 0-3 1.75v5.5a3.63 3.63 0 0 0 2.94 1.19c2.11 0 3.5-2.11 3.5-4.47.01-2.81-1.57-3.98-3.42-3.98zM256.65 98.31l-6.93.2c.18 2.36 1.39 3.55 3.65 3.55a6.49 6.49 0 0 0 4.24-1.72l-.1 2.38a7.63 7.63 0 0 1-4.36 1.4c-3.91 0-5.76-2.77-5.76-5.94 0-3.65 2.31-6.55 5.91-6.55s4.87 2.59 4.87 5.76zm-.65-1.73c-.25-2-1.06-3-2.82-3a3.48 3.48 0 0 0-3.4 3.17zM268.58 103.66c.13-1.09.18-2.84.18-4.31v-3c0-1.47-.48-2.61-2-2.61a3.69 3.69 0 0 0-3.47 3.17V101c0 .89 0 2 .1 2.61h-2.59c.1-1.09.15-2.84.15-4.31v-3c0-1.47-.05-3.22-.15-4.31a20.71 20.71 0 0 0 2.28-.13l.18 2.26a5.14 5.14 0 0 1 4.11-2.49c2.54 0 3.76 1.57 3.76 4.21V101c0 .89.05 2 .1 2.61h-2.61zM282.13 92.6l-.79 2a4.9 4.9 0 0 0-2.87-.94c-1 0-2 .36-2 1.42 0 1.87 6 1.47 6 5.12 0 2.41-2.11 3.88-4.59 3.88a8.32 8.32 0 0 1-4-1l.13-2.41a6.79 6.79 0 0 0 3.93 1.39c1.29 0 2.26-.51 2.26-1.45 0-2.31-6-1.62-6-5.4 0-2 1.75-3.58 4.24-3.58a7.26 7.26 0 0 1 3.69.97zM286.52 89.28a1.48 1.48 0 0 1-1.5-1.5 1.58 1.58 0 0 1 1.57-1.65 1.5 1.5 0 0 1 1.5 1.5 1.58 1.58 0 0 1-1.57 1.65zm-1.42 14.38a39.65 39.65 0 0 0 .18-4.16v-3.2a43.1 43.1 0 0 0-.18-4.3c.91 0 1.85-.05 2.61-.13-.08.66-.1 1.83-.1 2.72v6.62a23.52 23.52 0 0 0 .1 2.46h-2.61zM296.11 104.12a5.64 5.64 0 0 1-5.63-5.94c0-3.65 2.36-6.55 6-6.55a5.65 5.65 0 0 1 5.66 5.94c-.05 3.66-2.41 6.55-6.03 6.55zm.23-10.43c-2.16 0-3.55 1.83-3.55 4.11 0 2.82 1.37 4.26 3.45 4.26 2.23 0 3.55-1.85 3.55-4.16-.01-2.71-1.53-4.21-3.46-4.21zM312.62 103.66c.13-1.09.18-2.84.18-4.31v-3c0-1.47-.48-2.61-2-2.61a3.69 3.69 0 0 0-3.48 3.17V101c0 .89 0 2 .1 2.61h-2.59c.1-1.09.15-2.84.15-4.31v-3c0-1.47-.05-3.22-.15-4.31a20.73 20.73 0 0 0 2.28-.13l.18 2.26a5.14 5.14 0 0 1 4.11-2.49c2.54 0 3.76 1.57 3.76 4.21V101c0 .89 0 2 .1 2.61h-2.61zM326.17 92.6l-.79 2a4.9 4.9 0 0 0-2.87-.94c-1 0-2 .36-2 1.42 0 1.87 6 1.47 6 5.12 0 2.41-2.1 3.88-4.59 3.88a8.32 8.32 0 0 1-4-1l.13-2.41a6.8 6.8 0 0 0 3.93 1.39c1.29 0 2.26-.51 2.26-1.45 0-2.31-6-1.62-6-5.4 0-2 1.75-3.58 4.24-3.58a7.28 7.28 0 0 1 3.69.97z"/><circle class="a" cx="97.04" cy="22.43" r="7.76" transform="rotate(-.15 95.463 23.043)"/><path class="a" d="M153.06 37.35a27.92 27.92 0 0 0-21 10.14v-.75c0-6.86-6.08-7.43-12.12-7.43h-1.29v96H120c6 0 12.72-.51 12.72-7.43V102c3.7 3.13 10.26 5.41 16.81 5.41 15.1 0 32.48-14.24 32.48-37.6-.01-17.94-10.86-32.46-28.95-32.46zm-3.84 58.82c-8 0-13.1-2.71-16.52-6.69V58.57c4-5.84 10.4-9.83 16.95-9.83 10.4 0 19.23 6.55 19.23 22.36-.01 13.25-7.88 25.07-19.66 25.07zM68.78 94.15a30.89 30.89 0 0 1-10.89 2.11c-11.82 0-19.29-11.55-19.29-23.64S46.07 49 57.89 49c4.58 0 7.26 1 11 2.4 3.18 1.16 7 1.46 8.64-3.85L78.71 44a35.75 35.75 0 0 0-20.28-6C39.35 38 25 52.58 25 72.62s14.36 34.66 33.44 34.66a35.74 35.74 0 0 0 20.28-6L77.65 98c-1.77-5.58-5.28-5.18-8.87-3.85z"/></svg>
