<svg id="Logo_couleur" data-name="Logo couleur" xmlns="http://www.w3.org/2000/svg" viewBox="0 0 215 157.72"><defs><style>.cls-1{fill:#737272;}.cls-2{fill:#009352;}</style></defs><title>logo-cpev</title><path class="cls-1" d="M16.92,109.57a9.14,9.14,0,0,1,.3-3A3.53,3.53,0,0,1,20.86,104,3.54,3.54,0,0,1,24,105.74a.92.92,0,0,1,.13.45.63.63,0,0,1-.66.66.73.73,0,0,1-.64-.4,2.25,2.25,0,0,0-2-1.15A2.21,2.21,0,0,0,18.62,107a13.4,13.4,0,0,0,0,5.21,2.2,2.2,0,0,0,2.24,1.68,2.25,2.25,0,0,0,2-1.15.73.73,0,0,1,.64-.4.63.63,0,0,1,.66.66.9.9,0,0,1-.13.45,3.54,3.54,0,0,1-3.18,1.78,3.53,3.53,0,0,1-3.63-2.57,9.18,9.18,0,0,1-.3-3Zm8.64,4.54,3.34-9.26c.18-.51.45-.8.93-.8a1,1,0,0,1,1,.8l3.29,9.26a1,1,0,0,1,.06.32.64.64,0,0,1-.67.65.7.7,0,0,1-.69-.51l-.74-2.1H27.59l-.74,2.1a.69.69,0,0,1-.69.51.64.64,0,0,1-.67-.65,1,1,0,0,1,.06-.32Zm6-2.94-1.73-4.94h0l-1.76,4.94h3.53ZM36,104.82a.71.71,0,1,1,1.42,0v9.5a.71.71,0,1,1-1.42,0v-9.5Zm4,9.34a.75.75,0,0,1-.35-.62.67.67,0,0,1,.69-.67.88.88,0,0,1,.45.14,5,5,0,0,0,2.7.85c1.53,0,2.43-.73,2.43-1.85,0-.93-.51-1.5-2.27-1.78l-.53-.08c-2.19-.34-3.22-1.31-3.22-3,0-1.94,1.38-3.17,3.55-3.17a5.77,5.77,0,0,1,2.88.74.72.72,0,0,1,.38.62.63.63,0,0,1-.64.64,1.23,1.23,0,0,1-.46-.13,5.44,5.44,0,0,0-2.21-.54c-1.37,0-2.06.75-2.06,1.76s.56,1.49,2.26,1.74l.53.08c2.19.34,3.23,1.31,3.23,3.06s-1.34,3.26-4,3.26a6.07,6.07,0,0,1-3.37-1Zm9.46,0a.75.75,0,0,1-.35-.62.67.67,0,0,1,.69-.67.88.88,0,0,1,.45.14,5,5,0,0,0,2.7.85c1.54,0,2.43-.73,2.43-1.85,0-.93-.51-1.5-2.27-1.78l-.53-.08c-2.19-.34-3.21-1.31-3.21-3,0-1.94,1.38-3.17,3.55-3.17a5.76,5.76,0,0,1,2.88.74.72.72,0,0,1,.38.62.63.63,0,0,1-.64.64,1.23,1.23,0,0,1-.46-.13,5.44,5.44,0,0,0-2.21-.54c-1.37,0-2.06.75-2.06,1.76s.56,1.49,2.26,1.74l.53.08c2.19.34,3.23,1.31,3.23,3.06s-1.34,3.26-4,3.26a6.07,6.07,0,0,1-3.37-1ZM59,104.78a.6.6,0,0,1,.64-.64h5.6a.67.67,0,1,1,0,1.33H60.57a.08.08,0,0,0-.1.1v3.2a.08.08,0,0,0,.1.09H64.5a.66.66,0,1,1,0,1.33H60.57a.09.09,0,0,0-.1.1v3.31a.08.08,0,0,0,.1.1h4.72a.66.66,0,1,1,0,1.33h-5.6a.59.59,0,0,1-.64-.64v-9.59Zm12.88,0a.6.6,0,0,1,.64-.64h2.76c2.11,0,3.41.83,3.93,2.48a8.57,8.57,0,0,1,.32,3,8.58,8.58,0,0,1-.32,3c-.53,1.65-1.82,2.48-3.94,2.48H72.57a.6.6,0,0,1-.64-.64v-9.59Zm1.52,8.91h1.79c1.44,0,2.27-.45,2.66-1.63a12.15,12.15,0,0,0,0-5c-.38-1.18-1.22-1.63-2.65-1.63H73.45a.08.08,0,0,0-.1.1v8a.09.09,0,0,0,.1.1Zm8.45-8.91a.6.6,0,0,1,.64-.64h5.6a.67.67,0,1,1,0,1.33H83.42a.08.08,0,0,0-.1.1v3.2a.09.09,0,0,0,.1.09h3.93a.66.66,0,1,1,0,1.33H83.42a.09.09,0,0,0-.1.1v3.31a.09.09,0,0,0,.1.1h4.72a.66.66,0,1,1,0,1.33h-5.6a.6.6,0,0,1-.64-.64v-9.59Zm12.88,0a.6.6,0,0,1,.64-.64h3.36a3.26,3.26,0,1,1,0,6.49H96.3a.08.08,0,0,0-.1.1v3.6a.71.71,0,1,1-1.42,0v-9.55Zm6.08,2.61a1.87,1.87,0,0,0-2.13-1.92H96.3a.08.08,0,0,0-.1.1v3.65a.08.08,0,0,0,.1.1h2.43a1.87,1.87,0,0,0,2.13-1.92Zm3.4-2.61a.6.6,0,0,1,.64-.64h5.6a.67.67,0,1,1,0,1.33h-4.72a.08.08,0,0,0-.1.1v3.2a.09.09,0,0,0,.1.09h3.93a.66.66,0,1,1,0,1.33h-3.93a.09.09,0,0,0-.1.1v3.31a.09.09,0,0,0,.1.1h4.72a.66.66,0,1,1,0,1.33h-5.6a.6.6,0,0,1-.64-.64v-9.59Zm9,.14a.76.76,0,0,1,.78-.86c.42,0,.69.27,1,.73l4.64,7.66h.07v-7.68a.67.67,0,1,1,1.33,0v9.45a.76.76,0,0,1-.78.86c-.42,0-.7-.27-1-.74l-4.64-7.63h0v7.64a.67.67,0,1,1-1.33,0v-9.45Zm10.37,9.24a.75.75,0,0,1-.35-.62.67.67,0,0,1,.69-.67.89.89,0,0,1,.45.14,5,5,0,0,0,2.7.85c1.54,0,2.43-.73,2.43-1.85,0-.93-.51-1.5-2.27-1.78l-.53-.08c-2.19-.34-3.21-1.31-3.21-3,0-1.94,1.38-3.17,3.55-3.17a5.77,5.77,0,0,1,2.88.74.72.72,0,0,1,.38.62.63.63,0,0,1-.64.64,1.23,1.23,0,0,1-.46-.13,5.44,5.44,0,0,0-2.21-.54c-1.37,0-2.06.75-2.06,1.76s.56,1.49,2.25,1.74l.53.08c2.19.34,3.23,1.31,3.23,3.06s-1.35,3.26-4,3.26a6.07,6.07,0,0,1-3.38-1Zm9.55-9.34a.71.71,0,1,1,1.42,0v9.5a.71.71,0,1,1-1.43,0v-9.5Zm4,7.79a9.18,9.18,0,0,1-.3-3,9.18,9.18,0,0,1,.3-3,3.93,3.93,0,0,1,7.37,0,9.19,9.19,0,0,1,.3,3,9.21,9.21,0,0,1-.3,3,3.93,3.93,0,0,1-7.37,0Zm6-.43a13.38,13.38,0,0,0,0-5.21,2.41,2.41,0,0,0-4.59,0,13.4,13.4,0,0,0,0,5.21,2.41,2.41,0,0,0,4.59,0Zm4-7.26a.76.76,0,0,1,.78-.86c.42,0,.69.27,1,.73l4.64,7.66h.06v-7.68a.67.67,0,1,1,1.33,0v9.45a.76.76,0,0,1-.78.86c-.41,0-.7-.27-1-.74l-4.64-7.63h-.05v7.64a.66.66,0,1,1-1.32,0v-9.45Zm10.37,9.24a.75.75,0,0,1-.35-.62.67.67,0,0,1,.69-.67.87.87,0,0,1,.45.14,5,5,0,0,0,2.7.85c1.54,0,2.43-.73,2.43-1.85,0-.93-.51-1.5-2.27-1.78l-.53-.08c-2.19-.34-3.21-1.31-3.21-3,0-1.94,1.38-3.17,3.55-3.17a5.76,5.76,0,0,1,2.88.74.72.72,0,0,1,.38.62.63.63,0,0,1-.64.64,1.22,1.22,0,0,1-.46-.13,5.44,5.44,0,0,0-2.21-.54c-1.37,0-2.06.75-2.06,1.76s.56,1.49,2.26,1.74l.53.08c2.19.34,3.23,1.31,3.23,3.06s-1.34,3.26-4,3.26a6.07,6.07,0,0,1-3.37-1ZM17.31,120.78a.6.6,0,0,1,.64-.64h2.77c2.11,0,3.41.83,3.93,2.48a13.84,13.84,0,0,1,0,5.92c-.53,1.65-1.82,2.48-3.93,2.48H17.95a.6.6,0,0,1-.64-.64v-9.59Zm1.52,8.91h1.79c1.44,0,2.27-.45,2.65-1.63a12.15,12.15,0,0,0,0-5c-.38-1.18-1.21-1.63-2.65-1.63H18.83a.08.08,0,0,0-.1.1v8a.08.08,0,0,0,.1.1Zm8.45-8.91a.6.6,0,0,1,.64-.64h5.6a.67.67,0,1,1,0,1.33H28.8a.08.08,0,0,0-.1.1v3.2a.09.09,0,0,0,.1.09h3.93a.66.66,0,1,1,0,1.33H28.8a.09.09,0,0,0-.1.1v3.31a.09.09,0,0,0,.1.1h4.72a.66.66,0,1,1,0,1.33h-5.6a.6.6,0,0,1-.64-.64v-9.59Zm12.88,0a.69.69,0,0,1,.7-.77.7.7,0,0,1,.72.77v8.76a.08.08,0,0,0,.1.1h4.72a.66.66,0,1,1,0,1.33H40.84a.64.64,0,0,1-.69-.7v-9.48Zm6.53,1.87a1.07,1.07,0,0,1,0-.32l.59-1.82a.61.61,0,0,1,.59-.49.57.57,0,0,1,.61.59,1.14,1.14,0,0,1,0,.32l-.59,1.82a.61.61,0,0,1-.59.49.57.57,0,0,1-.61-.59Zm4-1.92a.6.6,0,0,1,.64-.64h5.6a.67.67,0,1,1,0,1.33H52.19a.08.08,0,0,0-.1.1v3.2a.08.08,0,0,0,.1.09h3.93a.66.66,0,1,1,0,1.33H52.18a.09.09,0,0,0-.1.1v3.31c0,.07,0,.1.1.1H56.9a.66.66,0,1,1,0,1.33H51.3a.6.6,0,0,1-.64-.64v-9.59Zm4-4a.54.54,0,0,1,.43-.21.53.53,0,0,1,.54.53.64.64,0,0,1-.16.42l-1.1,1.21a.61.61,0,0,1-.48.24.52.52,0,0,1-.51-.51.64.64,0,0,1,.17-.43l1.1-1.25Zm11.25,3.36a.67.67,0,1,1,0,1.33H63.43a.08.08,0,0,0-.1.1v8.76a.71.71,0,1,1-1.42,0v-8.76a.08.08,0,0,0-.1-.1H59.31a.67.67,0,1,1,0-1.33Zm.32,10,3.34-9.26c.18-.51.45-.8.93-.8a1,1,0,0,1,1,.8l3.3,9.26a1.09,1.09,0,0,1,.06.32.64.64,0,0,1-.67.65.7.7,0,0,1-.69-.51l-.74-2.1H68.3l-.74,2.1a.69.69,0,0,1-.69.51.64.64,0,0,1-.67-.65,1,1,0,0,1,.06-.32Zm6-2.94-1.73-4.94h0l-1.76,4.94h3.53Zm9.46-7a.67.67,0,1,1,0,1.33H79.24a.08.08,0,0,0-.1.1v8.76a.71.71,0,1,1-1.42,0v-8.76a.08.08,0,0,0-.1-.1H75.12a.67.67,0,1,1,0-1.33h6.64Zm6,.64a.6.6,0,0,1,.64-.64h2.77c2.11,0,3.41.83,3.93,2.48a13.84,13.84,0,0,1,0,5.92c-.53,1.65-1.82,2.48-3.93,2.48H88.41a.6.6,0,0,1-.64-.64v-9.59Zm1.52,8.91h1.79c1.44,0,2.27-.45,2.65-1.63a12.13,12.13,0,0,0,0-5c-.38-1.18-1.21-1.63-2.65-1.63H89.29a.08.08,0,0,0-.1.1v8a.09.09,0,0,0,.1.1Zm8.45-8.91a.6.6,0,0,1,.64-.64H104a.67.67,0,1,1,0,1.33H99.26a.08.08,0,0,0-.1.1v3.2a.09.09,0,0,0,.1.09h3.93a.66.66,0,1,1,0,1.33H99.26a.09.09,0,0,0-.1.1v3.31a.09.09,0,0,0,.1.1H104a.66.66,0,1,1,0,1.33h-5.6a.6.6,0,0,1-.64-.64v-9.59Zm15.61,7.93h.05l2.67-8.09a.68.68,0,0,1,.67-.56.66.66,0,0,1,.69.67,1.11,1.11,0,0,1-.06.35l-3.15,9.19c-.21.58-.43.82-.88.82s-.67-.24-.86-.82l-3.15-9.19a1,1,0,0,1-.07-.35.66.66,0,0,1,.69-.67.7.7,0,0,1,.69.56l2.72,8.09Zm4.42,1.41,3.34-9.26c.18-.51.45-.8.93-.8a1,1,0,0,1,1,.8l3.3,9.26a1.09,1.09,0,0,1,.06.32.64.64,0,0,1-.67.65.69.69,0,0,1-.69-.51l-.74-2.1H119.8l-.74,2.1a.69.69,0,0,1-.69.51.64.64,0,0,1-.67-.65,1,1,0,0,1,.06-.32Zm6-2.94-1.73-4.94H122l-1.76,4.94h3.54Zm10.46-6.35a.71.71,0,1,1,1.42,0v6.38c0,2.65-1.52,4-3.86,4s-3.83-1.33-3.83-4v-6.38a.71.71,0,1,1,1.42,0v6.38a2.33,2.33,0,0,0,2.43,2.65c1.44,0,2.42-.89,2.42-2.65v-6.38Zm4,0a.6.6,0,0,1,.64-.64h2.76c2.11,0,3.41.83,3.93,2.48a13.84,13.84,0,0,1,0,5.92c-.53,1.65-1.82,2.48-3.93,2.48h-2.77a.6.6,0,0,1-.64-.64v-9.59Zm1.52,8.91h1.79c1.44,0,2.27-.45,2.65-1.63a12,12,0,0,0,0-5c-.38-1.18-1.21-1.63-2.65-1.63h-1.79a.08.08,0,0,0-.09.1v8a.08.08,0,0,0,.1.1Z"/><path class="cls-2" d="M98.27,38.67C95.63,30.66,89,26.1,80.12,26.1s-15.41,4.56-18,12.57a39.76,39.76,0,0,0-1.62,12.58c0,.08,0,.16,0,.24V91.15a2.74,2.74,0,1,0,5.47,0V70.61c3.39,3.78,8.27,5.88,14.2,5.88,8.92,0,15.51-4.56,18.15-12.58a40,40,0,0,0,1.62-12.67,39.79,39.79,0,0,0-1.62-12.58ZM93,62.19c-1.93,5.78-6.59,9-12.88,9s-10.85-3.25-12.78-9C66.43,59.46,66,56.52,66,51.25s.41-8.11,1.32-10.85c1.93-5.78,6.59-9,12.78-9s10.95,3.24,12.88,9c.91,2.74,1.32,5.68,1.32,10.85S93.91,59.46,93,62.19ZM17.48,38.67c2.54-7.91,9.12-12.57,18-12.57,7.6,0,13,3.55,15.61,8.11a3,3,0,0,1,.41,1.62,2.4,2.4,0,0,1-2.43,2.43,3,3,0,0,1-2.53-1.52c-2.23-3.14-5.48-5.37-11-5.37-6.49,0-10.85,3.24-12.68,9-.91,2.74-1.32,5.88-1.32,11s.4,8.11,1.32,10.85c1.82,5.78,6.19,9,12.67,9,5.58,0,8.82-2.23,11-5.37a3,3,0,0,1,2.54-1.52,2.4,2.4,0,0,1,2.43,2.43,3,3,0,0,1-.41,1.62c-2.63,4.56-8,8.11-15.61,8.11-8.92,0-15.51-4.66-18-12.57A42.29,42.29,0,0,1,16,51.34a43,43,0,0,1,1.52-12.67Zm94.15,25.15c-1-3-1.52-6.39-1.52-12.57s.51-9.43,1.52-12.57c2.64-8.11,9.23-12.57,17.85-12.57s15.31,4.46,17.95,12.57A36.21,36.21,0,0,1,149,50.23a2.4,2.4,0,0,1-2.54,2.54H116.3a.54.54,0,0,0-.61.61c0,4,.2,6,1,8.42,2.13,6.39,7.1,9.43,13.69,9.43a16.86,16.86,0,0,0,13.08-5.47,3,3,0,0,1,2-1,2.32,2.32,0,0,1,2.43,2.33,2.83,2.83,0,0,1-.61,1.83c-3.45,4.36-9.23,7.6-17.23,7.6C120.76,76.49,114.38,72.13,111.64,63.82Zm31.13-16a.54.54,0,0,0,.61-.61,22.28,22.28,0,0,0-.91-6.9c-1.93-6-6.69-9.12-13-9.12s-10.95,3.14-12.88,9.12a22.22,22.22,0,0,0-.91,6.89.54.54,0,0,0,.61.61h26.46Zm29.07,24.74-16-41.67a4.47,4.47,0,0,1-.31-1.52,2.58,2.58,0,0,1,2.74-2.64,2.73,2.73,0,0,1,2.63,2l14.6,38.12h.1l14.29-38.12a2.74,2.74,0,0,1,2.64-2,2.58,2.58,0,0,1,2.74,2.64,4.53,4.53,0,0,1-.3,1.52l-16,41.67c-.91,2.54-1.82,3.35-3.55,3.35s-2.63-.81-3.54-3.35Z"/></svg>