<svg id="XMLID_1_" xmlns="http://www.w3.org/2000/svg" viewBox="0 0 230 120"><style>.st0{fill:none;} .st1{fill:#1A171B;} .st2{fill:#008F4F;}</style><path class="st0" d="M0 0h230v120H0z"/><g id="logo"><path class="st1" d="M102.5 68.4c-1.1 1.1-2.8 1.6-4.6 1.6-2.6 0-4.3-1.5-4.7-3.8h3.6c4.9 0 6.5-.9 6.5-3.7 0-3.1-3-5.1-5.8-5.1-4.1 0-7.1 3.3-7.1 7.9 0 4.2 3 7.3 7.2 7.3 3.2 0 5.2-1.1 5.2-2.8v-1.3h-.3zm-9.2-5c.1-1.8 1.6-3.7 4-3.7 2.5 0 3.4 1.5 3.4 2.8 0 .9-.4 1.3-4.1 1.3 0 0-2.7 0-3.3.1v-.5zM194.5 91.6c-1.1 1.1-2.8 1.6-4.6 1.6-2.6 0-4.3-1.5-4.7-3.8h3.6c4.9 0 6.5-.9 6.5-3.7 0-3.1-3-5.1-5.8-5.1-4.1 0-7.1 3.3-7.1 7.8 0 4.2 3 7.3 7.2 7.3 3.2 0 5.2-1.1 5.2-2.8v-1.3h-.3zm-9.2-4.9c.1-1.8 1.6-3.7 4-3.7 2.5 0 3.4 1.5 3.4 2.8 0 .9-.4 1.3-4.1 1.3h-3.3v-.4zM174.1 68.4c-1.1 1.1-2.7 1.6-4.6 1.6-2.6 0-4.3-1.5-4.7-3.8h3.6c4.9 0 6.5-.9 6.5-3.7 0-3.1-3-5.1-5.8-5.1-4.1 0-7.1 3.3-7.1 7.9 0 4.2 3 7.3 7.2 7.3 3.2 0 5.2-1.1 5.2-2.8v-1.3h-.3zm-9.3-5c.1-1.8 1.6-3.7 4-3.7 2.5 0 3.4 1.5 3.4 2.8 0 .9-.4 1.3-4.1 1.3h-3.3v-.4zM184.1 63.6c-3.1-.6-3.6-1-3.6-1.9 0-1.6 1.9-1.9 3.4-1.9 0 0 1.1 0 1.9.2 1 .3 1.8.8 2.2 1.3h.2V60c0-1.9-2.3-2.8-4.5-2.8-3.9 0-6.1 2.4-6.1 4.6 0 2.4 1.7 3.2 4.2 3.7 3.5.7 3.9 1.4 3.9 2.2.1 1.4-1 2-3.1 2-.6 0-1.3-.1-2-.3-1.2-.3-2.1-.9-2.5-1.4h-.1v1.2c0 1.7 2 3 4.7 3 3.7 0 6-1.8 6-4.7-.1-1.9-1.6-3.2-4.6-3.9zm20.4 23.3c-3.1-.6-3.6-1-3.6-1.9 0-1.6 1.9-1.9 3.4-1.9 0 0 1.1 0 1.9.2 1 .3 1.8.8 2.2 1.3h.2v-1.3c0-1.9-2.3-2.8-4.5-2.8-3.9 0-6.1 2.4-6.1 4.6 0 2.4 1.7 3.2 4.2 3.7 3.5.7 3.9 1.4 3.9 2.2.1 1.4-1 2-3.1 2-.6 0-1.3-.1-2-.3-1.2-.3-2.1-.9-2.5-1.4h-.2v1.2c0 1.7 2 3 4.7 3 3.7 0 6-1.8 6-4.7.1-1.9-1.5-3.3-4.5-3.9zm-108-6.3c-4.4 0-7.1 3-7.1 7.8 0 4.2 3 7.3 7.1 7.3 4.2 0 6.8-3 6.8-7.9.1-4.3-2.7-7.2-6.8-7.2zm.3 12.5c-2.8 0-4.5-2-4.5-5.3 0-2.9 1.5-4.7 3.9-4.7 2.9 0 4.4 1.8 4.4 5.3 0 2.9-1.5 4.7-3.8 4.7zm-8-21.4c-.2-.3-.5-.8-.7-1.2l-1.8-4.1c-.4-.9-1-2.2-2.6-2.9 2.6-.5 4.2-2.2 4.2-4.8 0-3.2-2.5-5.1-6.4-5.2-.7 0-3.7 0-6.6.9v16.1c0 1.1.6 1.7 1.7 1.7h1.1v-8c.7.1 2 .3 3.1.4 1.1.1 1.9.3 3.1 3l1.4 3.3c.4 1 1.1 1.4 2.2 1.4.4 0 1.2-.1 1.6-.1V72l-.3-.3zM81 62.2c-1.1 0-2.2-.1-3.3-.3v-5.7c1.6-.3 3.3-.3 3.7-.3 2.3.1 3.7 1 3.7 3.1-.1 2.4-2.1 3.2-4.1 3.2zm.3 14.7c-2.5-.1-5.3.5-6.5.9v16c0 1.1.7 1.7 1.7 1.7h1.1V88c.8.4 2.1.7 3.7.7 3.8 0 6.7-2.6 6.7-6.1 0-3.4-2.7-5.6-6.7-5.7zm.1 9.4c-1.6 0-2.8-.2-3.7-.7v-6c.9-.2 2.3-.4 3.6-.3 2.6.1 3.9 1.2 3.9 3.6 0 2.2-1.3 3.4-3.8 3.4zm62.9-30.4c1 0 1.8-.8 1.8-1.8s-.8-1.8-1.8-1.8-1.9.8-1.9 1.8.9 1.8 1.9 1.8zm-32.7 16.5c1.8 0 2.8-.7 2.8-2v-1.1h-.2c-.1.1-.1.1-.2.1-.2.1-.7.3-1.6.4h-1c-1.4-.1-2-1-2-2.8v-7h3.1c1.3 0 2.1-.6 2.1-1.6v-.9h-5.2v-2.9h-.1c-.9 0-1.6.6-1.9 1.1-.4.6-.7 1.4-.7 2.3v9.3c-.1 3.5 1.5 5.1 4.9 5.1zm45 0c1.8 0 2.8-.7 2.8-2v-1.1h-.2s-.1.1-.2.1c-.2.1-.7.3-1.6.4-.3 0-.7 0-1-.1-1.4-.1-2-1-2-2.8v-7h3.1c1.3 0 2.1-.6 2.1-1.6v-.9h-5.2v-3h-.2c-.9 0-1.6.6-1.9 1.1-.4.6-.7 1.4-.7 2.3v9.3c.1 3.6 1.7 5.3 5 5.3zm10.2 18.5v-8c0-1.3-1-2-1.9-2h-.9v10.3c0 2.9 1.5 4.4 4.6 4.4 1 0 1.6-.6 1.6-1.6v-.9H169c-1.5.1-2.2-.6-2.2-2.2zm-34.2-33.7c-3.6 0-5.3 1.9-5.3 3.2v1.5h.2c.1-.1.3-.5 1.1-1 .8-.6 2.3-1 3.8-1 2.4 0 3.4.9 3.4 2.8v.6h-1.9c-4.6 0-7.1 1.7-7.1 4.9 0 2.5 2.5 4.4 5.9 4.4 4.9 0 6-2.8 6-5.1V63c-.1-3.8-2.2-5.8-6.1-5.8zm3.3 9.9c0 2-.9 2.8-3.1 2.8-1.8 0-3.1-.9-3.1-2.1 0-1.6 1.4-2.4 4.3-2.4h1.9v1.7zm18 13.4c-3.6 0-5.3 1.9-5.3 3.2V85h.2c.1-.1.3-.5 1-1 .8-.6 2.3-1 3.8-1 2.4 0 3.4.9 3.4 2.9v.6h-1.9c-4.6 0-7.1 1.8-7.1 4.9 0 2.5 2.5 4.4 5.9 4.4 4.9 0 6-2.8 6-5.1V86c0-3.6-2.1-5.5-6-5.5zm3.2 9.9c0 2-.9 2.8-3.1 2.8-1.8 0-3.1-.9-3.1-2.1 0-1.6 1.4-2.4 4.3-2.4h1.9v1.7zm-8-19.6v-.9h-1.2c-1.5 0-2.2-.7-2.2-2.2v-8c0-1.3-.9-2-1.9-2h-.9V68c0 2.9 1.5 4.4 4.6 4.4.9 0 1.6-.6 1.6-1.6zm16.4 8.4c1 0 1.8-.8 1.8-1.8s-.8-1.8-1.8-1.8-1.9.8-1.9 1.8.9 1.8 1.9 1.8zM142.2 91V78c0-1.2-.7-2-1.9-2h-.9v15.3c0 2.9 1.6 4.4 4.7 4.4 1.5 0 2.2-.5 2.2-1.6v-.9h-1.8c-1.6 0-2.3-.7-2.3-2.2zm-29-10.5c-4.7 0-7.3 2.8-7.3 8V98c0 1.3.6 2 1.8 2h1v-6.6c.9 1.4 2.5 2.3 4.2 2.3 4.1 0 6.9-3.2 6.9-7.9 0-4.5-3.4-7.3-6.6-7.3zm0 12.7c-2.9 0-4.5-1.9-4.5-5.3 0-3 1.5-4.7 4-4.7 2.8 0 4.3 1.9 4.3 5.4 0 2.8-1.4 4.6-3.8 4.6zm12-32.1h.2v-1.4c0-.6-.3-1.9-2.9-1.9-3.1 0-5.1 2.4-5.1 6.2v6.6c0 1.1.6 1.8 1.6 1.8h1.2v-8.2c0-2.9.7-3.9 2.6-3.9 1 0 1.9.2 2.4.8zm55.5 23.2h.2v-1.4c0-.6-.3-2-2.9-2-3.1 0-5.1 2.4-5.1 6.2v6.6c0 1 .5 1.8 1.5 1.8h1.2l.1-8.2c0-2.9.7-3.9 2.6-3.9.9.1 1.9.4 2.4.9zm-47.1-3.5h-.8v8.1c0 2.9-1.1 4.3-3.4 4.3s-3.6-1.6-3.6-4.4v-5.9c0-1.3-.7-2-1.9-2h-.9V89c0 4.2 2.4 6.8 6.2 6.8 4.1 0 6.4-2.3 6.4-6.6v-6.3c0-1.4-.7-2.1-2-2.1z"/><path class="st2" d="M101.6 20c-5.4.3-11.7 1.3-17.1 2.8-3.2.9-11.2 2.9-23.5 9.6-7.9 4.3-17.4 10.8-25.2 19.7-7.9 9-12.9 19.3-14.8 29.1 7.8.6 19.1-3.1 31.8-11.8 2.7-1.8 5.4-4.2 8.1-6.6 0 0 7.2-7.2 12.6-14.1 3-3.9 7.1-9 11.1-13.5.1-.1.8-.9.8-.9.3-.6 8.6-10.6 16.2-14.3zm4 0c-2.7 1.2-9.7 5.1-17.4 14.2 4-.3 12.1-1.3 18.1-3.6 5.4-2.1 10.3-4.9 14.3-8.2-4.6-1.6-9.4-2.4-15-2.4z"/></g></svg>
