<?xml version="1.0" standalone="no"?>
<!DOCTYPE svg PUBLIC "-//W3C//DTD SVG 20010904//EN"
 "http://www.w3.org/TR/2001/REC-SVG-20010904/DTD/svg10.dtd">
<svg version="1.0" xmlns="http://www.w3.org/2000/svg"
 width="261.000000pt" height="261.000000pt" viewBox="0 0 261.000000 261.000000"
 preserveAspectRatio="xMidYMid meet">
<metadata>
Created by potrace 1.11, written by Peter Selinger 2001-2013
</metadata>
<g transform="translate(0.000000,261.000000) scale(0.100000,-0.100000)"
fill="#000000" stroke="none">
<path d="M2049 2136 c-2 -2 -35 -6 -74 -10 -38 -3 -81 -8 -95 -11 -14 -3 -41
-8 -60 -11 -102 -16 -324 -81 -454 -133 -80 -32 -285 -133 -366 -179 -296
-170 -559 -407 -725 -652 -87 -128 -196 -366 -220 -476 -2 -10 -7 -34 -11 -52
l-7 -33 79 2 c84 2 208 30 314 71 56 22 237 111 289 143 256 156 409 303 730
703 237 295 405 477 511 554 25 18 47 35 50 38 3 3 17 11 33 19 15 8 27 18 27
23 0 8 -13 11 -21 4z"/>
<path d="M2150 2117 c-113 -57 -218 -143 -368 -299 l-43 -45 43 3 c86 8 245
36 333 60 109 30 306 125 395 190 l64 47 -38 13 c-61 22 -175 43 -261 49 -70
5 -85 2 -125 -18z"/>
</g>
</svg>
