<?xml version="1.0" standalone="no"?>
<!DOCTYPE svg PUBLIC "-//W3C//DTD SVG 20010904//EN"
 "http://www.w3.org/TR/2001/REC-SVG-20010904/DTD/svg10.dtd">
<svg version="1.0" xmlns="http://www.w3.org/2000/svg"
 width="700.000000pt" height="700.000000pt" viewBox="0 0 700.000000 700.000000"
 preserveAspectRatio="xMidYMid meet">
<metadata>
Created by potrace 1.11, written by Peter Selinger 2001-2013
</metadata>
<g transform="translate(0.000000,700.000000) scale(0.100000,-0.100000)"
fill="#000000" stroke="none">
<path d="M4470 6993 c-228 -16 -524 -59 -745 -109 -1388 -311 -2580 -1245
-3220 -2524 -253 -506 -400 -994 -477 -1594 -21 -155 -22 -211 -25 -1464 l-4
-1303 1303 4 c1253 3 1309 4 1464 25 600 77 1088 224 1594 477 922 462 1673
1213 2135 2135 253 506 400 994 477 1594 21 155 22 211 25 1464 l4 1302 -1243
-2 c-684 -1 -1263 -3 -1288 -5z m-1780 -2038 c119 -18 186 -38 277 -82 137
-66 239 -187 275 -322 19 -73 26 -351 9 -351 -5 0 -19 12 -30 26 -85 107 -286
209 -495 249 -461 89 -849 -86 -1023 -461 -54 -118 -74 -210 -80 -374 -17
-446 143 -773 452 -926 233 -115 522 -124 818 -27 104 34 242 107 297 157 67
60 63 68 59 -110 l-4 -160 -38 -76 c-107 -217 -401 -349 -778 -349 -635 0
-1160 399 -1314 1001 -74 286 -57 635 45 925 144 408 447 701 859 829 71 23
118 32 281 59 62 10 304 6 390 -8z m1980 -35 c111 -21 231 -97 302 -192 155
-206 463 -1027 638 -1702 78 -300 170 -751 170 -832 l0 -24 -150 0 c-165 0
-232 14 -311 67 -85 56 -116 124 -144 318 -9 61 -26 157 -38 215 l-22 105
-555 0 -555 0 -22 -100 c-20 -88 -123 -591 -123 -601 0 -9 -278 -3 -313 7 -61
17 -114 72 -133 137 -35 120 1 353 120 777 209 740 508 1445 754 1772 l47 63
141 0 c78 0 165 -5 194 -10z"/>
<path d="M4478 4273 c-95 -196 -144 -314 -215 -513 -55 -157 -133 -412 -133
-437 0 -11 76 -13 430 -13 251 0 430 4 430 9 0 27 -88 309 -144 461 -96 265
-247 603 -285 643 -4 4 -42 -64 -83 -150z"/>
</g>
</svg>
