<?xml version="1.0" standalone="no"?>
<!DOCTYPE svg PUBLIC "-//W3C//DTD SVG 1.1//EN" "http://www.w3.org/Graphics/SVG/1.1/DTD/svg11.dtd" >
<svg xmlns="http://www.w3.org/2000/svg" xmlns:xlink="http://www.w3.org/1999/xlink" version="1.1">
<metadata>
Created by FontForge 20161003 at Tue Sep 24 11:10:24 2019
 By www-data
Copyright \(c\) Mark Simonson, 2005. All rights reserved.
</metadata>
<defs>
<font id="ProximaNova-Bold" horiz-adv-x="574" >
  <font-face 
    font-family="Proxima Nova"
    font-weight="700"
    font-stretch="normal"
    units-per-em="1000"
    panose-1="2 0 5 6 3 0 0 2 0 4"
    ascent="790"
    descent="-210"
    x-height="483"
    cap-height="667"
    bbox="-385 -368 1196 1079"
    underline-thickness="88"
    underline-position="-140"
    stemh="37"
    stemv="130"
    unicode-range="U+000D-FB04"
  />
<missing-glyph horiz-adv-x="483" 
d="M66 -90v842h351v-842h-351zM385 722h-288v-782h288v782z" />
    <glyph glyph-name="f_b" unicode="fb" horiz-adv-x="913" 
d="M91 0v372h-80v111h80v26c0 105 68 168 163 168c36 0 69 -8 92 -20l-26 -92c-10 7 -24 12 -41 12c-36 0 -60 -24 -60 -68v-26h98v-111h-98v-372h-128zM390 0v667h127v-246c38 49 92 74 149 74c123 0 214 -96 214 -254c0 -161 -92 -253 -214 -253c-58 0 -111 26 -149 73
v-61h-127zM517 155c21 -31 68 -54 109 -54c74 0 123 56 123 140s-49 141 -123 141c-41 0 -88 -24 -109 -56v-171z" />
    <glyph glyph-name="f_f" unicode="ff" horiz-adv-x="654" 
d="M91 0v372h-80v111h80v26c0 105 68 168 163 168c36 0 69 -8 92 -20l-26 -90c-11 7 -26 10 -41 10c-36 0 -60 -24 -60 -70v-24h98v-111h-98v-372h-128zM418 0v372h-80v111h80v26c0 105 68 168 163 168c36 0 69 -8 92 -20l-26 -90c-11 7 -26 10 -41 10
c-36 0 -60 -24 -60 -70v-24h98v-111h-98v-372h-128z" />
    <glyph glyph-name="f_h" unicode="fh" horiz-adv-x="907" 
d="M91 0v372h-80v111h80v26c0 105 68 168 163 168c36 0 69 -8 92 -20l-26 -92c-10 7 -24 12 -41 12c-36 0 -60 -24 -60 -68v-26h98v-111h-98v-372h-128zM717 0v294c0 67 -35 88 -90 88c-49 0 -88 -28 -110 -57v-325h-127v667h127v-247c31 37 91 75 170 75
c106 0 157 -58 157 -152v-343h-127z" />
    <glyph glyph-name="fi" unicode="fi" horiz-adv-x="580" 
d="M453 554c-41 0 -76 34 -76 76s35 76 76 76c42 0 76 -34 76 -76s-34 -76 -76 -76zM91 0v372h-80v111h80v26c0 105 68 168 163 168c36 0 69 -8 92 -20l-26 -92c-10 7 -24 12 -41 12c-36 0 -60 -24 -60 -68v-26h98v-111h-98v-372h-128zM390 0v483h127v-483h-127z" />
    <glyph glyph-name="f_j" unicode="fj" horiz-adv-x="580" 
d="M453 554c-41 0 -76 34 -76 76s35 76 76 76c42 0 76 -34 76 -76s-34 -76 -76 -76zM91 0v372h-80v111h80v26c0 105 68 168 163 168c36 0 69 -8 92 -20l-26 -92c-10 7 -24 12 -41 12c-36 0 -60 -24 -60 -68v-26h98v-111h-98v-372h-128zM517 483v-496
c0 -110 -56 -183 -172 -183c-23 0 -40 2 -55 5l8 104c8 -2 20 -3 28 -3c37 0 64 23 64 77v496h127z" />
    <glyph glyph-name="f_k" unicode="fk" horiz-adv-x="862" 
d="M91 0v372h-80v111h80v26c0 105 68 168 163 168c36 0 69 -8 92 -20l-26 -92c-10 7 -24 12 -41 12c-36 0 -60 -24 -60 -68v-26h98v-111h-98v-372h-128zM703 0l-128 186l-58 -62v-124h-127v667h127v-399l183 215h156l-191 -219l197 -264h-159z" />
    <glyph glyph-name="fl" unicode="fl" horiz-adv-x="580" 
d="M91 0v372h-80v111h80v26c0 105 68 168 163 168c36 0 69 -8 92 -20l-26 -92c-10 7 -24 12 -41 12c-36 0 -60 -24 -60 -68v-26h98v-111h-98v-372h-128zM390 0v667h127v-667h-127z" />
    <glyph glyph-name="f_f_i" unicode="ffi" horiz-adv-x="907" 
d="M780 554c-41 0 -76 34 -76 76s35 76 76 76c42 0 76 -34 76 -76s-34 -76 -76 -76zM91 0v372h-80v111h80v26c0 105 68 168 163 168c36 0 69 -8 92 -20l-26 -90c-11 7 -26 10 -41 10c-36 0 -60 -24 -60 -70v-24h98v-111h-98v-372h-128zM418 0v372h-80v111h80v26
c0 105 68 168 163 168c36 0 69 -8 92 -20l-26 -92c-10 7 -24 12 -41 12c-36 0 -60 -24 -60 -68v-26h98v-111h-98v-372h-128zM717 0v483h127v-483h-127z" />
    <glyph glyph-name="f_f_j" unicode="ffj" horiz-adv-x="907" 
d="M780 554c-41 0 -76 34 -76 76s35 76 76 76c42 0 76 -34 76 -76s-34 -76 -76 -76zM91 0v372h-80v111h80v26c0 105 68 168 163 168c36 0 69 -8 92 -20l-26 -90c-11 7 -26 10 -41 10c-36 0 -60 -24 -60 -70v-24h98v-111h-98v-372h-128zM418 0v372h-80v111h80v26
c0 105 68 168 163 168c36 0 69 -8 92 -20l-26 -92c-10 7 -24 12 -41 12c-36 0 -60 -24 -60 -68v-26h98v-111h-98v-372h-128zM844 483v-496c0 -110 -56 -183 -172 -183c-23 0 -40 2 -55 5l8 104c8 -2 20 -3 28 -3c37 0 64 23 64 77v496h127z" />
    <glyph glyph-name="f_f_l" unicode="ffl" horiz-adv-x="907" 
d="M91 0v372h-80v111h80v26c0 105 68 168 163 168c36 0 69 -8 92 -20l-26 -90c-11 7 -26 10 -41 10c-36 0 -60 -24 -60 -70v-24h98v-111h-98v-372h-128zM418 0v372h-80v111h80v26c0 105 68 168 163 168c36 0 69 -8 92 -20l-26 -92c-10 7 -24 12 -41 12
c-36 0 -60 -24 -60 -68v-26h98v-111h-98v-372h-128zM717 0v667h127v-667h-127z" />
    <glyph glyph-name=".notdef" horiz-adv-x="483" 
d="M66 -90v842h351v-842h-351zM385 722h-288v-782h288v782z" />
    <glyph glyph-name="NULL" horiz-adv-x="0" 
 />
    <glyph glyph-name="NULL" horiz-adv-x="0" 
 />
    <glyph glyph-name="CR" unicode="&#xd;" horiz-adv-x="0" 
 />
    <glyph glyph-name="space" unicode=" " horiz-adv-x="256" 
 />
    <glyph glyph-name="uni00A0" unicode="&#xa0;" horiz-adv-x="256" 
 />
    <glyph glyph-name="uni2009" unicode="&#x2009;" horiz-adv-x="125" 
 />
    <glyph glyph-name="uni200A" unicode="&#x200a;" horiz-adv-x="56" 
 />
    <glyph glyph-name="uni2001" unicode="&#x2001;" horiz-adv-x="1000" 
 />
    <glyph glyph-name="uni2003" unicode="&#x2003;" horiz-adv-x="1000" 
 />
    <glyph glyph-name="uni2000" unicode="&#x2000;" horiz-adv-x="500" 
 />
    <glyph glyph-name="uni2002" unicode="&#x2002;" horiz-adv-x="500" 
 />
    <glyph glyph-name="uni2005" unicode="&#x2005;" horiz-adv-x="250" 
 />
    <glyph glyph-name="uni2006" unicode="&#x2006;" horiz-adv-x="167" 
 />
    <glyph glyph-name="uni2004" unicode="&#x2004;" horiz-adv-x="333" 
 />
    <glyph glyph-name="uni2007" unicode="&#x2007;" horiz-adv-x="623" 
 />
    <glyph glyph-name="uni2008" unicode="&#x2008;" horiz-adv-x="256" 
 />
    <glyph glyph-name="zero" unicode="0" horiz-adv-x="620" 
d="M34 333c0 172 85 344 276 344c190 0 276 -172 276 -344s-86 -345 -276 -345c-191 0 -276 173 -276 345zM441 333c0 123 -36 218 -131 218c-96 0 -132 -95 -132 -218s36 -219 132 -219c95 0 131 96 131 219z" />
    <glyph glyph-name="zero.pzero" horiz-adv-x="620" 
d="M517 573c47 -65 69 -152 69 -240c0 -172 -86 -345 -276 -345c-59 0 -108 17 -148 45l-21 -33h-100l61 93c-46 65 -68 153 -68 240c0 172 85 344 276 344c58 0 107 -16 146 -44l22 34h100zM178 333c0 -39 4 -75 12 -106l194 297c-19 17 -43 27 -74 27
c-96 0 -132 -95 -132 -218zM310 114c95 0 131 96 131 219c0 39 -4 76 -12 107l-195 -298c20 -18 45 -28 76 -28z" />
    <glyph glyph-name="one" unicode="1" horiz-adv-x="411" 
d="M202 0v484l-110 -113l-81 85l210 211h124v-667h-143z" />
    <glyph glyph-name="two" unicode="2" horiz-adv-x="600" 
d="M47 0v112c273 201 353 270 353 352c0 58 -53 87 -109 87c-75 0 -133 -30 -178 -77l-81 94c65 75 164 109 257 109c142 0 255 -80 255 -213c0 -114 -94 -213 -273 -339h278v-125h-502z" />
    <glyph glyph-name="three" unicode="3" horiz-adv-x="587" 
d="M20 95l74 93c46 -48 119 -76 184 -76c81 0 126 35 126 86c0 54 -41 79 -134 79c-28 0 -73 0 -83 -1v124c12 -1 57 -1 83 -1c74 0 123 24 123 74c0 53 -54 80 -124 80c-65 0 -123 -25 -170 -70l-70 88c54 61 138 106 255 106c156 0 252 -70 252 -181
c0 -84 -72 -139 -146 -152c68 -7 156 -60 156 -160c0 -115 -103 -196 -263 -196c-123 0 -214 47 -263 107z" />
    <glyph glyph-name="four" unicode="4" horiz-adv-x="597" 
d="M344 0v138h-319v112l265 417h196v-404h86v-125h-86v-138h-142zM344 541l-180 -278h180v278z" />
    <glyph glyph-name="five" unicode="5" horiz-adv-x="608" 
d="M49 88l78 96c46 -47 108 -72 178 -72c79 0 124 45 124 100c0 61 -44 102 -120 102c-55 0 -100 -17 -140 -55l-99 27v381h458v-122h-319v-167c35 31 89 55 150 55c113 0 214 -80 214 -215c0 -141 -106 -230 -267 -230c-116 0 -200 38 -257 100z" />
    <glyph glyph-name="six" unicode="6" horiz-adv-x="608" 
d="M34 332c0 202 114 345 311 345c81 0 149 -28 197 -69l-64 -107c-36 34 -74 53 -133 53c-101 0 -167 -87 -167 -193c0 -5 0 -10 1 -14c31 45 98 85 171 85c120 0 227 -73 227 -215c0 -130 -103 -229 -255 -229c-203 0 -288 156 -288 344zM433 211c0 72 -59 103 -124 103
c-50 0 -98 -25 -130 -64c6 -64 42 -138 136 -138c77 0 118 52 118 99z" />
    <glyph glyph-name="seven" unicode="7" horiz-adv-x="545" 
d="M121 0l239 542h-336v125h501v-99l-248 -568h-156z" />
    <glyph glyph-name="eight" unicode="8" horiz-adv-x="606" 
d="M35 173c0 81 63 143 143 171c-74 25 -132 74 -132 157c0 125 133 176 257 176c123 0 257 -51 257 -176c0 -83 -59 -132 -133 -157c80 -28 144 -90 144 -171c0 -124 -128 -185 -268 -185s-268 60 -268 185zM415 479c0 47 -47 76 -112 76c-66 0 -113 -29 -113 -76
c0 -52 72 -75 113 -81c41 6 112 29 112 81zM427 190c0 58 -83 86 -124 91c-42 -5 -124 -33 -124 -91c0 -49 54 -80 124 -80c68 0 124 31 124 80z" />
    <glyph glyph-name="nine" unicode="9" horiz-adv-x="608" 
d="M67 58l63 106c36 -33 74 -51 133 -51c107 0 167 91 167 192v14c-32 -45 -99 -86 -172 -86c-120 0 -228 74 -228 216c0 130 104 229 256 229c202 0 287 -156 287 -345c0 -201 -113 -344 -310 -344c-81 0 -149 27 -196 69zM428 415c-5 64 -41 140 -136 140
c-76 0 -117 -53 -117 -100c0 -71 59 -102 123 -102c50 0 99 23 130 62z" />
    <glyph glyph-name="zero.tnum" horiz-adv-x="623" 
d="M36 333c0 172 85 344 276 344c190 0 276 -172 276 -344s-86 -345 -276 -345c-191 0 -276 173 -276 345zM443 333c0 123 -36 218 -131 218c-96 0 -132 -95 -132 -218s36 -219 132 -219c95 0 131 96 131 219z" />
    <glyph glyph-name="zero.tzero" horiz-adv-x="623" 
d="M518 574c47 -65 70 -153 70 -241c0 -172 -86 -345 -276 -345c-60 0 -109 17 -148 45l-22 -33h-99l61 93c-46 65 -68 153 -68 240c0 172 85 344 276 344c58 0 107 -16 146 -44l22 34h99zM180 333c0 -39 4 -75 12 -106l194 297c-19 17 -43 27 -74 27
c-96 0 -132 -95 -132 -218zM312 114c95 0 131 96 131 219c0 40 -4 76 -12 108l-195 -298c19 -19 44 -29 76 -29z" />
    <glyph glyph-name="one.tnum" horiz-adv-x="623" 
d="M290 0v484l-111 -113l-81 85l211 211h123v-667h-142z" />
    <glyph glyph-name="one.tnum_alt" horiz-adv-x="623" 
d="M133 0v125h143v359l-130 -133l-81 86l229 230h124v-542h147v-125h-432z" />
    <glyph glyph-name="two.tnum" horiz-adv-x="623" 
d="M67 0v112c273 201 353 270 353 352c0 58 -53 87 -109 87c-75 0 -133 -30 -178 -77l-81 94c65 75 164 109 257 109c142 0 255 -80 255 -213c0 -114 -94 -213 -273 -339h278v-125h-502z" />
    <glyph glyph-name="three.tnum" horiz-adv-x="623" 
d="M45 95l74 93c46 -48 119 -76 184 -76c81 0 126 35 126 86c0 54 -41 79 -134 79c-28 0 -73 0 -83 -1v124c12 -1 57 -1 83 -1c74 0 123 24 123 74c0 53 -54 80 -124 80c-65 0 -123 -25 -170 -70l-70 88c54 61 138 106 255 106c156 0 252 -70 252 -181
c0 -84 -72 -139 -146 -152c68 -7 156 -60 156 -160c0 -115 -103 -196 -263 -196c-123 0 -214 47 -263 107z" />
    <glyph glyph-name="four.tnum" horiz-adv-x="623" 
d="M354 0v138h-319v112l265 417h196v-404h86v-125h-86v-138h-142zM354 541l-180 -278h180v278z" />
    <glyph glyph-name="five.tnum" horiz-adv-x="623" 
d="M54 88l78 96c46 -47 108 -72 178 -72c79 0 124 45 124 100c0 61 -44 102 -120 102c-55 0 -100 -17 -140 -55l-99 27v381h458v-122h-319v-167c35 31 89 55 150 55c113 0 214 -80 214 -215c0 -141 -106 -230 -267 -230c-116 0 -200 38 -257 100z" />
    <glyph glyph-name="six.tnum" horiz-adv-x="623" 
d="M44 332c0 202 114 345 311 345c81 0 149 -28 197 -69l-64 -107c-36 34 -74 53 -133 53c-101 0 -167 -87 -167 -193c0 -5 0 -10 1 -14c31 45 98 85 171 85c120 0 227 -73 227 -215c0 -130 -103 -229 -255 -229c-203 0 -288 156 -288 344zM443 211c0 72 -59 103 -124 103
c-50 0 -98 -25 -130 -64c6 -64 42 -138 136 -138c77 0 118 52 118 99z" />
    <glyph glyph-name="seven.tnum" horiz-adv-x="623" 
d="M159 0l239 542h-336v125h501v-99l-248 -568h-156z" />
    <glyph glyph-name="eight.tnum" horiz-adv-x="623" 
d="M43 173c0 81 63 143 143 171c-74 25 -132 74 -132 157c0 125 133 176 257 176c123 0 257 -51 257 -176c0 -83 -59 -132 -133 -157c80 -28 144 -90 144 -171c0 -124 -128 -185 -268 -185s-268 60 -268 185zM423 479c0 47 -47 76 -112 76c-66 0 -113 -29 -113 -76
c0 -52 72 -75 113 -81c41 6 112 29 112 81zM435 190c0 58 -83 86 -124 91c-42 -5 -124 -33 -124 -91c0 -49 54 -80 124 -80c68 0 124 31 124 80z" />
    <glyph glyph-name="nine.tnum" horiz-adv-x="623" 
d="M74 58l63 106c36 -33 74 -51 133 -51c107 0 167 91 167 192v14c-32 -45 -99 -86 -172 -86c-120 0 -228 74 -228 216c0 130 104 229 256 229c202 0 287 -156 287 -345c0 -201 -113 -344 -310 -344c-81 0 -149 27 -196 69zM435 415c-5 64 -41 140 -136 140
c-76 0 -117 -53 -117 -100c0 -71 59 -102 123 -102c50 0 99 23 130 62z" />
    <glyph glyph-name="zero.tonum" horiz-adv-x="623" 
d="M312 -12c-189 0 -276 137 -276 287c0 151 87 287 276 287c188 0 276 -136 276 -287c0 -150 -88 -287 -276 -287zM312 436c-88 0 -132 -73 -132 -161c0 -89 44 -161 132 -161s131 72 131 161c0 88 -43 161 -131 161z" />
    <glyph glyph-name="zero.tonumzero" horiz-adv-x="623" 
d="M519 477c46 -53 69 -126 69 -202c0 -150 -88 -287 -276 -287c-60 0 -109 14 -149 37l-20 -25h-102l61 77c-45 53 -66 124 -66 198c0 151 87 287 276 287c57 0 105 -13 144 -34l18 22h102zM180 275c0 -29 5 -57 14 -80l179 227c-17 9 -38 14 -61 14
c-88 0 -132 -73 -132 -161zM312 114c88 0 131 72 131 161c0 31 -5 61 -16 85l-181 -229c18 -11 40 -17 66 -17z" />
    <glyph glyph-name="one.tonum" horiz-adv-x="623" 
d="M304 0v366l-111 -112l-81 85l211 211h123v-550h-142z" />
    <glyph glyph-name="two.tonum" horiz-adv-x="623" 
d="M72 0v112c254 86 337 177 337 243c0 49 -44 81 -101 81c-70 0 -129 -27 -177 -77l-81 94c65 75 167 109 260 109c149 0 243 -72 243 -183c0 -104 -107 -206 -225 -254h213v-125h-469z" />
    <glyph glyph-name="three.tonum" horiz-adv-x="623" 
d="M45 -20l74 93c46 -48 119 -76 184 -76c81 0 126 35 126 86c0 54 -41 79 -134 79c-28 0 -73 0 -83 -1v124c12 -1 57 -1 83 -1c74 0 123 24 123 74c0 53 -54 80 -124 80c-65 0 -123 -25 -170 -70l-70 88c54 61 138 106 255 106c156 0 252 -70 252 -181
c0 -84 -72 -139 -146 -152c68 -7 156 -60 156 -160c0 -115 -103 -196 -263 -196c-123 0 -214 47 -263 107z" />
    <glyph glyph-name="four.tonum" horiz-adv-x="623" 
d="M496 27v-144h-142v144h-319v113l265 410h196v-398h86v-125h-86zM354 424l-180 -272h180v272z" />
    <glyph glyph-name="five.tonum" horiz-adv-x="623" 
d="M54 -29l78 96c46 -47 108 -72 178 -72c79 0 124 45 124 100c0 61 -44 102 -120 102c-55 0 -100 -17 -140 -55l-99 27v381h458v-122h-319v-167c35 31 89 55 150 55c113 0 214 -80 214 -215c0 -141 -106 -230 -267 -230c-116 0 -200 38 -257 100z" />
    <glyph glyph-name="six.tonum" horiz-adv-x="623" 
d="M44 332c0 202 114 345 311 345c81 0 149 -28 197 -69l-64 -107c-36 34 -74 53 -133 53c-101 0 -167 -87 -167 -193c0 -5 0 -10 1 -14c31 45 98 85 171 85c120 0 227 -73 227 -215c0 -130 -103 -229 -255 -229c-203 0 -288 156 -288 344zM443 211c0 72 -59 103 -124 103
c-50 0 -98 -25 -130 -64c6 -64 42 -138 136 -138c77 0 118 52 118 99z" />
    <glyph glyph-name="seven.tonum" horiz-adv-x="623" 
d="M159 -117l239 542h-336v125h501v-99l-248 -568h-156z" />
    <glyph glyph-name="eight.tonum" horiz-adv-x="623" 
d="M43 173c0 81 63 143 143 171c-74 25 -132 74 -132 157c0 125 133 176 257 176c123 0 257 -51 257 -176c0 -83 -59 -132 -133 -157c80 -28 144 -90 144 -171c0 -124 -128 -185 -268 -185s-268 60 -268 185zM423 479c0 47 -47 76 -112 76c-66 0 -113 -29 -113 -76
c0 -52 72 -75 113 -81c41 6 112 29 112 81zM435 190c0 58 -83 86 -124 91c-42 -5 -124 -33 -124 -91c0 -49 54 -80 124 -80c68 0 124 31 124 80z" />
    <glyph glyph-name="nine.tonum" horiz-adv-x="623" 
d="M74 -58l63 106c36 -33 74 -51 133 -51c107 0 167 91 167 192v14c-32 -45 -99 -86 -172 -86c-120 0 -228 74 -228 216c0 130 104 229 256 229c202 0 287 -156 287 -345c0 -201 -113 -344 -310 -344c-81 0 -149 27 -196 69zM435 299c-5 64 -41 140 -136 140
c-76 0 -117 -53 -117 -100c0 -71 59 -102 123 -102c50 0 99 23 130 62z" />
    <glyph glyph-name="zero.onum" horiz-adv-x="620" 
d="M310 -12c-189 0 -276 137 -276 287c0 151 87 287 276 287c188 0 276 -136 276 -287c0 -150 -88 -287 -276 -287zM310 436c-88 0 -132 -73 -132 -161c0 -89 44 -161 132 -161s131 72 131 161c0 88 -43 161 -131 161z" />
    <glyph glyph-name="zero.onumzero" horiz-adv-x="620" 
d="M517 477c47 -53 69 -126 69 -202c0 -150 -88 -287 -276 -287c-59 0 -109 14 -148 37l-20 -25h-102l60 76c-45 53 -66 125 -66 199c0 151 87 287 276 287c57 0 105 -13 144 -34l18 22h103zM178 275c0 -29 5 -57 14 -81l179 227c-17 10 -37 15 -61 15
c-88 0 -132 -73 -132 -161zM310 114c88 0 131 72 131 161c0 31 -5 60 -16 85l-180 -229c18 -11 40 -17 65 -17z" />
    <glyph glyph-name="one.onum" horiz-adv-x="411" 
d="M202 0v366l-110 -112l-81 85l210 211h124v-550h-143z" />
    <glyph glyph-name="two.onum" horiz-adv-x="582" 
d="M50 0v112c254 86 337 177 337 243c0 49 -44 81 -101 81c-70 0 -129 -27 -177 -77l-81 94c65 75 167 109 260 109c149 0 243 -72 243 -183c0 -104 -107 -206 -225 -254h213v-125h-469z" />
    <glyph glyph-name="three.onum" horiz-adv-x="587" 
d="M12 -21l74 93c46 -48 119 -76 184 -76c81 0 126 35 126 86c0 54 -41 79 -134 79c-28 0 -73 0 -83 -1v124c12 -1 57 -1 83 -1c74 0 123 24 123 74c0 53 -54 80 -124 80c-65 0 -123 -25 -170 -70l-70 88c54 61 138 106 255 106c156 0 252 -70 252 -181
c0 -84 -72 -139 -146 -152c68 -7 156 -60 156 -160c0 -115 -103 -196 -263 -196c-123 0 -214 47 -263 107z" />
    <glyph glyph-name="four.onum" horiz-adv-x="597" 
d="M486 27v-144h-142v144h-319v113l265 410h196v-398h86v-125h-86zM344 424l-180 -272h180v272z" />
    <glyph glyph-name="five.onum" horiz-adv-x="608" 
d="M49 -29l78 96c46 -47 108 -72 178 -72c79 0 124 45 124 100c0 61 -44 102 -120 102c-55 0 -100 -17 -140 -55l-99 27v381h458v-122h-319v-167c35 31 89 55 150 55c113 0 214 -80 214 -215c0 -141 -106 -230 -267 -230c-116 0 -200 38 -257 100z" />
    <glyph glyph-name="six.onum" horiz-adv-x="608" 
d="M34 332c0 202 114 345 311 345c81 0 149 -28 197 -69l-64 -107c-36 34 -74 53 -133 53c-101 0 -167 -87 -167 -193c0 -5 0 -10 1 -14c31 45 98 85 171 85c120 0 227 -73 227 -215c0 -130 -103 -229 -255 -229c-203 0 -288 156 -288 344zM433 211c0 72 -59 103 -124 103
c-50 0 -98 -25 -130 -64c6 -64 42 -138 136 -138c77 0 118 52 118 99z" />
    <glyph glyph-name="seven.onum" horiz-adv-x="545" 
d="M121 -117l239 542h-336v125h501v-99l-248 -568h-156z" />
    <glyph glyph-name="eight.onum" horiz-adv-x="606" 
d="M35 173c0 81 63 143 143 171c-74 25 -132 74 -132 157c0 125 133 176 257 176c123 0 257 -51 257 -176c0 -83 -59 -132 -133 -157c80 -28 144 -90 144 -171c0 -124 -128 -185 -268 -185s-268 60 -268 185zM415 479c0 47 -47 76 -112 76c-66 0 -113 -29 -113 -76
c0 -52 72 -75 113 -81c41 6 112 29 112 81zM427 190c0 58 -83 86 -124 91c-42 -5 -124 -33 -124 -91c0 -49 54 -80 124 -80c68 0 124 31 124 80z" />
    <glyph glyph-name="nine.onum" horiz-adv-x="608" 
d="M67 -58l63 106c36 -33 74 -51 133 -51c107 0 167 91 167 192v14c-32 -45 -99 -86 -172 -86c-120 0 -228 74 -228 216c0 130 104 229 256 229c202 0 287 -156 287 -345c0 -201 -113 -344 -310 -344c-81 0 -149 27 -196 69zM428 299c-5 64 -41 140 -136 140
c-76 0 -117 -53 -117 -100c0 -71 59 -102 123 -102c50 0 99 23 130 62z" />
    <glyph glyph-name="A" unicode="A" horiz-adv-x="684" 
d="M533 0l-42 115h-298l-42 -115h-156l258 667h178l257 -667h-155zM342 544l-111 -306h221z" />
    <glyph glyph-name="B" unicode="B" horiz-adv-x="663" 
d="M66 0v667h351c127 0 192 -81 192 -170c0 -84 -52 -140 -115 -153c71 -11 128 -80 128 -164c0 -100 -67 -180 -194 -180h-362zM208 399h178c48 0 78 31 78 74c0 41 -30 73 -78 73h-178v-147zM208 121h183c54 0 86 31 86 79c0 42 -30 78 -86 78h-183v-157z" />
    <glyph glyph-name="C" unicode="C" horiz-adv-x="687" 
d="M384 -12c-195 0 -350 140 -350 345s155 345 350 345c152 0 237 -80 284 -163l-122 -60c-28 54 -88 97 -162 97c-116 0 -204 -93 -204 -219s88 -219 204 -219c74 0 134 42 162 97l122 -59c-48 -83 -132 -164 -284 -164z" />
    <glyph glyph-name="D" unicode="D" horiz-adv-x="718" 
d="M66 0v667h263c209 0 354 -133 354 -334s-145 -333 -354 -333h-263zM208 125h121c132 0 209 95 209 208c0 118 -72 209 -209 209h-121v-417z" />
    <glyph glyph-name="E" unicode="E" horiz-adv-x="583" 
d="M66 0v667h472v-122h-330v-145h323v-122h-323v-155h330v-123h-472z" />
    <glyph glyph-name="F" unicode="F" horiz-adv-x="571" 
d="M66 0v667h472v-122h-330v-145h323v-122h-323v-278h-142z" />
    <glyph glyph-name="G" unicode="G" horiz-adv-x="720" 
d="M34 333c0 211 160 345 355 345c138 0 225 -67 276 -146l-118 -64c-31 47 -88 84 -158 84c-121 0 -209 -93 -209 -219s88 -219 209 -219c61 0 115 25 144 51v81h-178v122h318v-255c-68 -76 -163 -126 -284 -126c-195 0 -355 136 -355 346z" />
    <glyph glyph-name="G.alt1" horiz-adv-x="744" 
d="M34 333c0 211 160 345 355 345c138 0 225 -67 276 -146l-118 -64c-31 47 -88 84 -158 84c-121 0 -209 -93 -209 -219s88 -219 209 -219c98 0 157 62 175 132h-209v122h364c0 -237 -129 -381 -343 -381c-182 0 -342 136 -342 346z" />
    <glyph glyph-name="H" unicode="H" horiz-adv-x="731" 
d="M523 0v280h-315v-280h-142v667h142v-262h315v262h143v-667h-143z" />
    <glyph glyph-name="I" unicode="I" horiz-adv-x="274" 
d="M66 0v667h142v-667h-142z" />
    <glyph glyph-name="J" unicode="J" horiz-adv-x="486" 
d="M6 53l62 109c26 -25 60 -48 106 -48c63 0 104 42 104 107v446h142v-448c0 -158 -98 -231 -235 -231c-68 0 -131 18 -179 65z" />
    <glyph glyph-name="K" unicode="K" horiz-adv-x="636" 
d="M462 0l-202 267l-52 -62v-205h-142v667h142v-298l236 298h175l-265 -313l283 -354h-175z" />
    <glyph glyph-name="L" unicode="L" horiz-adv-x="523" 
d="M66 0v667h142v-542h282v-125h-424z" />
    <glyph glyph-name="M" unicode="M" horiz-adv-x="855" 
d="M646 0v480l-188 -480h-62l-188 480v-480h-142v667h199l162 -416l162 416h200v-667h-143z" />
    <glyph glyph-name="N" unicode="N" horiz-adv-x="729" 
d="M526 0l-318 448v-448h-142v667h146l309 -432v432h142v-667h-137z" />
    <glyph glyph-name="O" unicode="O" horiz-adv-x="765" 
d="M34 333c0 201 147 345 348 345c202 0 349 -144 349 -345s-147 -345 -349 -345c-201 0 -348 144 -348 345zM585 333c0 125 -80 219 -203 219s-202 -94 -202 -219c0 -124 79 -219 202 -219s203 95 203 219z" />
    <glyph glyph-name="P" unicode="P" horiz-adv-x="624" 
d="M66 0v667h312c145 0 224 -98 224 -215c0 -116 -80 -213 -224 -213h-170v-239h-142zM457 453c0 55 -42 92 -98 92h-151v-184h151c56 0 98 36 98 92z" />
    <glyph glyph-name="Q" unicode="Q" horiz-adv-x="765" 
d="M731 333c0 -94 -32 -176 -87 -236l49 -57l-99 -81l-53 63c-47 -22 -101 -34 -159 -34c-201 0 -348 144 -348 345s147 345 348 345c202 0 349 -144 349 -345zM382 114c25 0 49 4 70 12l-76 89l99 80l76 -89c22 35 34 79 34 127c0 125 -80 219 -203 219s-202 -94 -202 -219
c0 -124 79 -219 202 -219z" />
    <glyph glyph-name="R" unicode="R" horiz-adv-x="643" 
d="M443 0l-131 239h-104v-239h-142v667h312c139 0 224 -91 224 -215c0 -118 -74 -181 -146 -198l150 -254h-163zM457 453c0 56 -43 92 -100 92h-149v-184h149c57 0 100 36 100 92z" />
    <glyph glyph-name="S" unicode="S" horiz-adv-x="600" 
d="M20 94l78 108c47 -49 120 -90 212 -90c78 0 116 37 116 75c0 50 -58 67 -135 85c-109 25 -249 55 -249 204c0 111 96 201 253 201c106 0 194 -32 260 -93l-79 -104c-54 50 -126 73 -191 73c-64 0 -98 -28 -98 -68c0 -45 56 -59 133 -77c110 -25 250 -58 250 -206
c0 -122 -87 -214 -267 -214c-128 0 -220 43 -283 106z" />
    <glyph glyph-name="T" unicode="T" horiz-adv-x="582" 
d="M220 0v542h-195v125h532v-125h-194v-542h-143z" />
    <glyph glyph-name="U" unicode="U" horiz-adv-x="728" 
d="M66 266v401h144v-396c0 -93 51 -157 155 -157c102 0 153 64 153 157v396h144v-400c0 -166 -95 -279 -297 -279c-204 0 -299 114 -299 278z" />
    <glyph glyph-name="V" unicode="V" horiz-adv-x="684" 
d="M253 0l-258 667h162l185 -513l184 513h162l-257 -667h-178z" />
    <glyph glyph-name="W" unicode="W" horiz-adv-x="918" 
d="M576 0l-117 458l-116 -458h-151l-191 667h159l117 -482l127 482h111l126 -482l116 482h160l-190 -667h-151z" />
    <glyph glyph-name="X" unicode="X" horiz-adv-x="668" 
d="M501 0l-167 244l-168 -244h-169l242 342l-227 325h169l153 -228l151 228h171l-227 -324l242 -343h-170z" />
    <glyph glyph-name="Y" unicode="Y" horiz-adv-x="645" 
d="M252 0v273l-257 394h162l166 -268l164 268h162l-255 -394v-273h-142z" />
    <glyph glyph-name="Z" unicode="Z" horiz-adv-x="592" 
d="M42 0v115l315 427h-315v125h501v-114l-315 -428h322v-125h-508z" />
    <glyph glyph-name="a" unicode="a" horiz-adv-x="543" 
d="M353 0v50c-33 -39 -90 -62 -153 -62c-77 0 -168 52 -168 160c0 113 91 154 168 154c64 0 121 -20 153 -59v67c0 49 -42 81 -106 81c-52 0 -100 -19 -141 -57l-48 85c59 52 135 76 211 76c110 0 211 -44 211 -183v-312h-127zM353 116v60c-21 28 -61 42 -102 42
c-50 0 -91 -27 -91 -73c0 -45 41 -71 91 -71c41 0 81 14 102 42z" />
    <glyph glyph-name="a.alt1" horiz-adv-x="586" 
d="M395 0v61c-38 -47 -91 -73 -149 -73c-122 0 -214 92 -214 253c0 158 91 254 214 254c57 0 111 -25 149 -74v62h128v-483h-128zM395 156v170c-22 32 -67 55 -110 55c-72 0 -122 -56 -122 -140c0 -83 50 -140 122 -140c43 0 88 23 110 55z" />
    <glyph glyph-name="b" unicode="b" horiz-adv-x="586" 
d="M63 0v667h127v-246c38 49 92 74 149 74c123 0 214 -96 214 -254c0 -161 -92 -253 -214 -253c-58 0 -111 26 -149 73v-61h-127zM190 155c21 -31 68 -54 109 -54c74 0 123 56 123 140s-49 141 -123 141c-41 0 -88 -24 -109 -56v-171z" />
    <glyph glyph-name="c" unicode="c" horiz-adv-x="499" 
d="M32 242c0 148 107 253 256 253c99 0 159 -43 191 -88l-83 -77c-23 33 -58 52 -102 52c-77 0 -131 -56 -131 -140s54 -141 131 -141c44 0 79 20 102 52l83 -77c-32 -45 -92 -88 -191 -88c-149 0 -256 105 -256 254z" />
    <glyph glyph-name="d" unicode="d" horiz-adv-x="586" 
d="M395 0v61c-38 -47 -91 -73 -149 -73c-122 0 -214 92 -214 253c0 158 91 254 214 254c57 0 111 -25 149 -74v246h128v-667h-128zM395 156v171c-22 32 -67 55 -110 55c-72 0 -122 -57 -122 -141c0 -83 50 -140 122 -140c43 0 88 23 110 55z" />
    <glyph glyph-name="e" unicode="e" horiz-adv-x="553" 
d="M32 242c0 140 103 253 250 253c144 0 242 -108 242 -266v-28h-359c8 -61 57 -112 139 -112c45 0 98 18 129 48l56 -82c-49 -45 -124 -67 -199 -67c-147 0 -258 99 -258 254zM282 394c-79 0 -113 -59 -119 -107h238c-3 46 -35 107 -119 107z" />
    <glyph glyph-name="f" unicode="f" horiz-adv-x="327" 
d="M91 0v372h-80v111h80v26c0 105 68 168 163 168c36 0 69 -8 92 -20l-26 -90c-11 7 -26 10 -41 10c-36 0 -60 -24 -60 -70v-24h98v-111h-98v-372h-128z" />
    <glyph glyph-name="f.alt1" horiz-adv-x="327" 
d="M91 0v372h-80v111h80v26c0 105 68 168 163 168c36 0 69 -8 92 -20l-26 -92c-10 7 -24 12 -41 12c-36 0 -60 -24 -60 -68v-26h98v-111h-98v-372h-128z" />
    <glyph glyph-name="g" unicode="g" horiz-adv-x="585" 
d="M53 -124l57 92c39 -43 90 -60 151 -60s133 27 133 122v49c-38 -48 -90 -76 -149 -76c-121 0 -213 85 -213 246c0 158 91 246 213 246c58 0 110 -25 149 -74v62h128v-450c0 -184 -142 -229 -261 -229c-83 0 -148 19 -208 72zM394 171v156c-21 32 -67 55 -109 55
c-72 0 -122 -50 -122 -133s50 -133 122 -133c42 0 88 24 109 55z" />
    <glyph glyph-name="h" unicode="h" horiz-adv-x="580" 
d="M390 0v294c0 67 -35 88 -90 88c-49 0 -88 -28 -110 -57v-325h-127v667h127v-247c31 37 91 75 170 75c106 0 157 -58 157 -152v-343h-127z" />
    <glyph glyph-name="i" unicode="i" horiz-adv-x="253" 
d="M126 554c-41 0 -76 34 -76 76s35 76 76 76c42 0 76 -34 76 -76s-34 -76 -76 -76zM63 0v483h127v-483h-127z" />
    <glyph glyph-name="j" unicode="j" horiz-adv-x="253" 
d="M126 554c-41 0 -76 34 -76 76s35 76 76 76c42 0 76 -34 76 -76s-34 -76 -76 -76zM190 483v-496c0 -110 -56 -183 -172 -183c-23 0 -40 2 -55 5l8 104c8 -2 20 -3 28 -3c37 0 64 23 64 77v496h127z" />
    <glyph glyph-name="k" unicode="k" horiz-adv-x="535" 
d="M376 0l-128 186l-58 -62v-124h-127v667h127v-399l183 215h156l-191 -219l197 -264h-159z" />
    <glyph glyph-name="l" unicode="l" horiz-adv-x="253" 
d="M63 0v667h127v-667h-127z" />
    <glyph glyph-name="l.alt1" horiz-adv-x="298" 
d="M199 -12c-89 0 -136 46 -136 132v547h127v-513c0 -30 16 -53 44 -53c19 0 37 7 43 14l27 -96c-19 -17 -53 -31 -105 -31z" />
    <glyph glyph-name="m" unicode="m" horiz-adv-x="852" 
d="M662 0v305c0 45 -20 77 -72 77c-45 0 -82 -30 -100 -56v-326h-128v305c0 45 -20 77 -72 77c-44 0 -81 -30 -100 -57v-325h-127v483h127v-63c20 29 84 75 158 75c71 0 116 -33 134 -88c28 44 92 88 166 88c89 0 142 -47 142 -146v-349h-128z" />
    <glyph glyph-name="n" unicode="n" horiz-adv-x="579" 
d="M389 0v292c0 67 -35 90 -89 90c-50 0 -89 -28 -110 -57v-325h-127v483h127v-63c31 37 90 75 169 75c106 0 157 -60 157 -154v-341h-127z" />
    <glyph glyph-name="o" unicode="o" 
d="M287 -12c-159 0 -255 116 -255 254c0 137 96 253 255 253c160 0 256 -116 256 -253c0 -138 -96 -254 -256 -254zM287 101c79 0 124 65 124 141c0 75 -45 140 -124 140s-123 -65 -123 -140c0 -76 44 -141 123 -141z" />
    <glyph glyph-name="p" unicode="p" horiz-adv-x="585" 
d="M190 -184h-127v667h127v-61c37 47 90 73 149 73c124 0 214 -92 214 -253s-90 -254 -214 -254c-57 0 -110 24 -149 74v-246zM421 242c0 83 -49 140 -122 140c-41 0 -88 -24 -109 -55v-171c21 -30 68 -55 109 -55c73 0 122 57 122 141z" />
    <glyph glyph-name="q" unicode="q" horiz-adv-x="585" 
d="M522 -184h-128v246c-39 -50 -91 -74 -149 -74c-123 0 -213 93 -213 254s90 253 213 253c59 0 113 -26 149 -73v61h128v-667zM394 156v171c-21 31 -67 55 -109 55c-72 0 -122 -57 -122 -140c0 -84 50 -141 122 -141c42 0 88 25 109 55z" />
    <glyph glyph-name="r" unicode="r" horiz-adv-x="360" 
d="M63 0v483h127v-66c34 43 94 77 154 77v-124c-9 2 -21 3 -35 3c-42 0 -98 -23 -119 -54v-319h-127z" />
    <glyph glyph-name="s" unicode="s" horiz-adv-x="477" 
d="M21 63l55 89c35 -33 107 -66 167 -66c55 0 81 19 81 49c0 34 -42 46 -97 57c-83 16 -190 36 -190 151c0 81 71 152 198 152c82 0 147 -28 194 -66l-50 -87c-29 31 -84 56 -143 56c-46 0 -76 -17 -76 -45c0 -30 38 -41 92 -52c83 -16 194 -38 194 -158
c0 -89 -75 -155 -209 -155c-84 0 -165 28 -216 75z" />
    <glyph glyph-name="t" unicode="t" horiz-adv-x="338" 
d="M225 -12c-89 0 -137 46 -137 132v252h-80v111h80v132h128v-132h98v-111h-98v-218c0 -30 16 -53 44 -53c19 0 37 7 44 14l27 -96c-19 -17 -53 -31 -106 -31z" />
    <glyph glyph-name="u" unicode="u" horiz-adv-x="579" 
d="M389 0v61c-33 -37 -91 -73 -170 -73c-106 0 -156 58 -156 152v343h127v-293c0 -67 35 -89 89 -89c49 0 88 27 110 55v327h127v-483h-127z" />
    <glyph glyph-name="v" unicode="v" horiz-adv-x="513" 
d="M188 0l-194 483h136l126 -336l126 336h137l-194 -483h-137z" />
    <glyph glyph-name="w" unicode="w" horiz-adv-x="769" 
d="M487 0l-102 329l-102 -329h-136l-147 483h132l90 -325l106 325h113l106 -325l90 325h132l-147 -483h-135z" />
    <glyph glyph-name="x" unicode="x" horiz-adv-x="504" 
d="M362 0l-110 163l-111 -163h-141l171 248l-161 235h142l100 -149l99 149h142l-162 -235l173 -248h-142z" />
    <glyph glyph-name="y" unicode="y" horiz-adv-x="513" 
d="M65 -75c11 -5 28 -8 40 -8c33 0 55 9 67 35l18 41l-196 490h136l126 -336l126 336h137l-227 -562c-36 -91 -100 -115 -183 -117c-15 0 -47 3 -63 7z" />
    <glyph glyph-name="y.alt1" horiz-adv-x="579" 
d="M57 -124l57 92c35 -43 94 -60 145 -60c82 0 130 44 130 124v50c-33 -37 -91 -73 -170 -73c-106 0 -156 58 -156 152v322h127v-272c0 -68 35 -89 89 -89c49 0 88 27 110 55v306h127v-445c0 -151 -103 -234 -257 -234c-81 0 -146 23 -202 72z" />
    <glyph glyph-name="z" unicode="z" horiz-adv-x="479" 
d="M42 0v95l218 277h-218v111h390v-92l-221 -280h225v-111h-394z" />
    <glyph glyph-name="A.smcp" horiz-adv-x="597" 
d="M379 550l223 -550h-145l-37 93h-243l-36 -93h-146l223 550h161zM298 432l-84 -227h169z" />
    <glyph glyph-name="B.smcp" horiz-adv-x="586" 
d="M63 0v550h306c113 0 170 -67 170 -141c0 -66 -42 -111 -94 -125c61 -14 106 -68 106 -135c0 -82 -60 -149 -172 -149h-316zM405 388c0 30 -22 53 -61 53h-149v-107h149c39 0 61 24 61 54zM416 167c0 30 -23 59 -65 59h-156v-117h156c40 0 65 23 65 58z" />
    <glyph glyph-name="C.smcp" horiz-adv-x="585" 
d="M32 275c0 170 128 287 299 287c119 0 197 -64 238 -140l-110 -53c-24 44 -71 77 -128 77c-95 0 -165 -73 -165 -171s70 -171 165 -171c57 0 106 32 128 76l110 -51c-41 -77 -119 -141 -238 -141c-171 0 -299 118 -299 287z" />
    <glyph glyph-name="D.smcp" horiz-adv-x="626" 
d="M63 0v550h230c183 0 301 -109 301 -276c0 -165 -118 -274 -300 -274h-231zM459 274c0 90 -50 161 -165 161h-99v-320h98c110 0 166 73 166 159z" />
    <glyph glyph-name="E.smcp" horiz-adv-x="520" 
d="M63 0v550h415v-111h-283v-103h277v-112h-277v-112h283v-112h-415z" />
    <glyph glyph-name="F.smcp" horiz-adv-x="509" 
d="M63 0v550h415v-111h-283v-104h277v-112h-277v-223h-132z" />
    <glyph glyph-name="G.smcp" horiz-adv-x="616" 
d="M32 275c0 174 132 287 302 287c108 0 183 -52 229 -115l-107 -62c-29 36 -69 60 -122 60c-98 0 -167 -71 -167 -170c0 -98 69 -172 167 -172c48 0 86 20 109 40v61h-132v104h262v-215c-59 -64 -141 -105 -239 -105c-170 0 -302 114 -302 287z" />
    <glyph glyph-name="G.smcp.alt1" horiz-adv-x="632" 
d="M32 275c0 174 132 287 302 287c108 0 183 -52 229 -115l-107 -62c-27 37 -69 61 -122 61c-98 0 -167 -72 -167 -171c0 -98 69 -172 167 -172c64 0 120 38 135 101h-158v104h297c0 -212 -116 -320 -281 -320c-163 0 -295 114 -295 287z" />
    <glyph glyph-name="H.smcp" horiz-adv-x="651" 
d="M456 0v224h-261v-224h-132v550h132v-211h261v211h132v-550h-132z" />
    <glyph glyph-name="I.smcp" horiz-adv-x="258" 
d="M63 0v550h132v-550h-132z" />
    <glyph glyph-name="J.smcp" horiz-adv-x="433" 
d="M4 47l53 100c22 -24 52 -43 90 -43c55 0 90 34 90 87v359h133v-370c0 -133 -86 -192 -213 -192c-58 0 -113 19 -153 59z" />
    <glyph glyph-name="K.smcp" horiz-adv-x="566" 
d="M405 0l-170 215l-40 -46v-169h-132v550h132v-233l195 233h160l-230 -259l245 -291h-160z" />
    <glyph glyph-name="L.smcp" horiz-adv-x="469" 
d="M63 0v550h132v-435h242v-115h-374z" />
    <glyph glyph-name="M.smcp" horiz-adv-x="756" 
d="M562 0v364l-153 -364h-61l-153 364v-364h-132v550h176l139 -334l139 334h177v-550h-132z" />
    <glyph glyph-name="N.smcp" horiz-adv-x="648" 
d="M450 0l-255 366v-366h-132v550h142l248 -354v354h133v-550h-136z" />
    <glyph glyph-name="O.smcp" horiz-adv-x="655" 
d="M32 275c0 165 120 287 295 287c174 0 295 -122 295 -287c0 -166 -121 -287 -295 -287c-175 0 -295 121 -295 287zM488 275c0 97 -64 171 -161 171c-98 0 -161 -74 -161 -171c0 -96 63 -171 161 -171c97 0 161 75 161 171z" />
    <glyph glyph-name="P.smcp" horiz-adv-x="554" 
d="M63 0v550h278c124 0 193 -83 193 -179c0 -98 -65 -181 -193 -181h-146v-190h-132zM399 371c0 37 -26 68 -75 68h-129v-137h129c50 0 75 30 75 69z" />
    <glyph glyph-name="Q.smcp" horiz-adv-x="655" 
d="M622 275c0 -79 -27 -147 -75 -198l41 -47l-79 -64l-44 51c-40 -19 -87 -29 -138 -29c-175 0 -295 121 -295 287c0 165 120 287 295 287c174 0 295 -122 295 -287zM327 104c20 0 39 3 55 9l-58 68l79 64l59 -68c17 28 26 61 26 98c0 97 -64 171 -161 171
c-98 0 -161 -74 -161 -171c0 -96 63 -171 161 -171z" />
    <glyph glyph-name="R.smcp" horiz-adv-x="573" 
d="M388 0l-110 190h-83v-190h-132v550h278c122 0 193 -80 193 -179c0 -101 -64 -157 -127 -170l132 -201h-151zM400 371c0 38 -27 68 -76 68h-129v-137h129c50 0 76 30 76 69z" />
    <glyph glyph-name="S.smcp" horiz-adv-x="516" 
d="M18 71l60 99c38 -38 109 -72 182 -72c68 0 98 27 98 60c0 37 -50 49 -110 62c-93 20 -212 44 -212 171c0 93 86 171 220 171c94 0 170 -30 225 -79l-62 -92c-42 38 -110 60 -164 60c-52 0 -85 -23 -85 -55s47 -42 106 -55c93 -19 217 -46 217 -176
c0 -106 -83 -177 -237 -177c-105 0 -190 36 -238 83z" />
    <glyph glyph-name="T.smcp" horiz-adv-x="486" 
d="M177 0v435h-156v115h445v-115h-157v-435h-132z" />
    <glyph glyph-name="U.smcp" horiz-adv-x="646" 
d="M63 218v332h133v-321c0 -74 45 -125 127 -125c81 0 127 51 127 125v321h133v-331c0 -137 -85 -231 -260 -231c-176 0 -260 94 -260 230z" />
    <glyph glyph-name="V.smcp" horiz-adv-x="597" 
d="M218 0l-223 550h150l153 -407l156 407h148l-223 -550h-161z" />
    <glyph glyph-name="W.smcp" horiz-adv-x="797" 
d="M494 0l-96 358l-95 -358h-138l-166 550h148l95 -376l105 376h103l105 -377l96 377h147l-166 -550h-138z" />
    <glyph glyph-name="X.smcp" horiz-adv-x="584" 
d="M433 0l-141 194l-141 -194h-155l209 282l-196 268h155l128 -180l127 180h156l-196 -267l209 -283h-155z" />
    <glyph glyph-name="Y.smcp" horiz-adv-x="565" 
d="M218 0v226l-223 324h149l140 -213l137 213h149l-221 -324v-226h-131z" />
    <glyph glyph-name="Z.smcp" horiz-adv-x="523" 
d="M36 0v96l263 338h-263v116h445v-96l-262 -338h269v-116h-452z" />
    <glyph glyph-name="Aacute" unicode="&#xc1;" horiz-adv-x="684" 
d="M383 723h-89l134 144h117zM533 0l-42 115h-298l-42 -115h-156l258 667h178l257 -667h-155zM342 544l-111 -306h221z" />
    <glyph glyph-name="Abreve" unicode="&#x102;" horiz-adv-x="684" 
d="M342 720c-71 0 -135 34 -176 88l56 46c27 -37 68 -62 120 -62c50 0 91 24 119 62l56 -46c-40 -54 -103 -88 -175 -88zM533 0l-42 115h-298l-42 -115h-156l258 667h178l257 -667h-155zM342 544l-111 -306h221z" />
    <glyph glyph-name="Acircumflex" unicode="&#xc2;" horiz-adv-x="684" 
d="M415 723l-73 89l-71 -89h-78l92 144h114l94 -144h-78zM533 0l-42 115h-298l-42 -115h-156l258 667h178l257 -667h-155zM342 544l-111 -306h221z" />
    <glyph glyph-name="Adieresis" unicode="&#xc4;" horiz-adv-x="684" 
d="M237 722c-38 0 -68 30 -68 68c0 37 30 67 68 67c37 0 67 -30 67 -67c0 -38 -30 -68 -67 -68zM448 722c-37 0 -68 30 -68 68c0 37 31 67 68 67s68 -30 68 -67c0 -38 -31 -68 -68 -68zM533 0l-42 115h-298l-42 -115h-156l258 667h178l257 -667h-155zM342 544l-111 -306h221
z" />
    <glyph glyph-name="Agrave" unicode="&#xc0;" horiz-adv-x="684" 
d="M298 723l-162 144h117l134 -144h-89zM533 0l-42 115h-298l-42 -115h-156l258 667h178l257 -667h-155zM342 544l-111 -306h221z" />
    <glyph glyph-name="Amacron" unicode="&#x100;" horiz-adv-x="684" 
d="M174 729v72h335v-72h-335zM533 0l-42 115h-298l-42 -115h-156l258 667h178l257 -667h-155zM342 544l-111 -306h221z" />
    <glyph glyph-name="Aogonek" unicode="&#x104;" horiz-adv-x="684" 
d="M658 0c-60 -18 -88 -45 -88 -76c0 -20 16 -31 34 -31c9 0 19 2 29 7l24 -68c-23 -13 -52 -18 -88 -18c-55 0 -113 23 -113 80c0 46 44 81 108 106h-31l-42 115h-298l-42 -115h-156l258 667h178l257 -667h-30zM231 238h221l-110 306z" />
    <glyph glyph-name="Aring" unicode="&#xc5;" horiz-adv-x="684" 
d="M238 803c0 57 48 106 105 106c58 0 104 -49 104 -106c0 -58 -46 -105 -104 -105c-57 0 -105 47 -105 105zM389 803c0 26 -20 47 -46 47c-25 0 -47 -21 -47 -47c0 -25 22 -47 47 -47c26 0 46 22 46 47zM533 0l-42 115h-298l-42 -115h-156l258 667h178l257 -667h-155z
M342 544l-111 -306h221z" />
    <glyph glyph-name="Aringacute" unicode="&#x1fa;" horiz-adv-x="684" 
d="M383 935h-89l134 144h117zM238 803c0 57 48 106 105 106c58 0 104 -49 104 -106c0 -58 -46 -105 -104 -105c-57 0 -105 47 -105 105zM389 803c0 26 -20 47 -46 47c-25 0 -47 -21 -47 -47c0 -25 22 -47 47 -47c26 0 46 22 46 47zM533 0l-42 115h-298l-42 -115h-156
l258 667h178l257 -667h-155zM342 544l-111 -306h221z" />
    <glyph glyph-name="Atilde" unicode="&#xc3;" horiz-adv-x="684" 
d="M322 762c-13 14 -24 27 -40 27c-20 0 -36 -19 -36 -62h-67c0 85 38 134 108 134c38 0 58 -22 75 -41c14 -14 25 -26 41 -26c20 0 36 19 36 61h67c0 -85 -37 -134 -107 -134c-39 0 -60 22 -77 41zM533 0l-42 115h-298l-42 -115h-156l258 667h178l257 -667h-155zM342 544
l-111 -306h221z" />
    <glyph glyph-name="uni1EA0" unicode="&#x1ea0;" horiz-adv-x="684" 
d="M533 0l-42 115h-298l-42 -115h-156l258 667h178l257 -667h-155zM342 544l-111 -306h221zM273 -119c0 37 31 68 68 68s67 -31 67 -68c0 -38 -30 -68 -67 -68s-68 30 -68 68z" />
    <glyph glyph-name="uni1EA2" unicode="&#x1ea2;" horiz-adv-x="684" 
d="M232 810c16 47 55 73 103 73c54 0 104 -27 104 -93c0 -27 -8 -45 -21 -66h-70c17 20 25 41 25 63c0 29 -17 40 -38 40c-22 0 -36 -15 -44 -36zM533 0l-42 115h-298l-42 -115h-156l258 667h178l257 -667h-155zM342 544l-111 -306h221z" />
    <glyph glyph-name="uni1EA4" unicode="&#x1ea4;" horiz-adv-x="684" 
d="M552 780h-89l134 108h117zM415 705l-73 67l-71 -67h-78l92 108h114l94 -108h-78zM533 0l-42 115h-298l-42 -115h-156l258 667h178l257 -667h-155zM342 544l-111 -306h221z" />
    <glyph glyph-name="uni1EAC" unicode="&#x1eac;" horiz-adv-x="684" 
d="M415 723l-73 89l-71 -89h-78l92 144h114l94 -144h-78zM533 0l-42 115h-298l-42 -115h-156l258 667h178l257 -667h-155zM342 544l-111 -306h221zM273 -119c0 37 31 68 68 68s67 -31 67 -68c0 -38 -30 -68 -67 -68s-68 30 -68 68z" />
    <glyph glyph-name="uni1EA6" unicode="&#x1ea6;" horiz-adv-x="684" 
d="M137 780l-162 108h117l134 -108h-89zM415 705l-73 67l-71 -67h-78l92 108h114l94 -108h-78zM533 0l-42 115h-298l-42 -115h-156l258 667h178l257 -667h-155zM342 544l-111 -306h221z" />
    <glyph glyph-name="uni1EA8" unicode="&#x1ea8;" horiz-adv-x="684" 
d="M347 844c16 35 55 55 103 55c54 0 104 -20 104 -70c0 -20 -8 -33 -21 -49h-70c17 15 25 31 25 47c0 22 -17 30 -38 30c-22 0 -36 -11 -44 -27zM415 705l-73 67l-71 -67h-78l92 108h114l94 -108h-78zM533 0l-42 115h-298l-42 -115h-156l258 667h178l257 -667h-155z
M342 544l-111 -306h221z" />
    <glyph glyph-name="uni1EAE" unicode="&#x1eae;" horiz-adv-x="684" 
d="M383 808h-89l134 108h117zM342 703c-71 0 -135 25 -176 66l56 34c27 -27 68 -46 120 -46c50 0 91 18 119 46l56 -34c-40 -41 -103 -66 -175 -66zM533 0l-42 115h-298l-42 -115h-156l258 667h178l257 -667h-155zM342 544l-111 -306h221z" />
    <glyph glyph-name="uni1EAA" unicode="&#x1eaa;" horiz-adv-x="684" 
d="M322 855c-13 11 -24 21 -40 21c-20 0 -36 -15 -36 -47h-67c0 64 38 100 108 100c38 0 58 -16 75 -30c14 -11 25 -20 41 -20c20 0 36 15 36 46h67c0 -64 -37 -100 -107 -100c-39 0 -60 16 -77 30zM415 705l-73 67l-71 -67h-78l92 108h114l94 -108h-78zM533 0l-42 115h-298
l-42 -115h-156l258 667h178l257 -667h-155zM342 544l-111 -306h221z" />
    <glyph glyph-name="uni1EB0" unicode="&#x1eb0;" horiz-adv-x="684" 
d="M298 808l-162 108h117l134 -108h-89zM342 703c-71 0 -135 25 -176 66l56 34c27 -27 68 -46 120 -46c50 0 91 18 119 46l56 -34c-40 -41 -103 -66 -175 -66zM533 0l-42 115h-298l-42 -115h-156l258 667h178l257 -667h-155zM342 544l-111 -306h221z" />
    <glyph glyph-name="uni1EB2" unicode="&#x1eb2;" horiz-adv-x="684" 
d="M232 873c16 35 55 55 103 55c54 0 104 -20 104 -70c0 -20 -8 -33 -21 -49h-70c17 15 25 31 25 47c0 22 -17 30 -38 30c-22 0 -36 -11 -44 -27zM342 703c-71 0 -135 25 -176 66l56 34c27 -27 68 -46 120 -46c50 0 91 18 119 46l56 -34c-40 -41 -103 -66 -175 -66zM533 0
l-42 115h-298l-42 -115h-156l258 667h178l257 -667h-155zM342 544l-111 -306h221z" />
    <glyph glyph-name="uni1EB4" unicode="&#x1eb4;" horiz-adv-x="684" 
d="M322 837c-13 11 -24 21 -40 21c-20 0 -36 -15 -36 -47h-67c0 64 38 100 108 100c38 0 58 -16 75 -30c14 -11 25 -20 41 -20c20 0 36 15 36 46h67c0 -64 -37 -100 -107 -100c-39 0 -60 16 -77 30zM342 703c-71 0 -135 25 -176 66l56 34c27 -27 68 -46 120 -46
c50 0 91 18 119 46l56 -34c-40 -41 -103 -66 -175 -66zM533 0l-42 115h-298l-42 -115h-156l258 667h178l257 -667h-155zM342 544l-111 -306h221z" />
    <glyph glyph-name="uni1EB6" unicode="&#x1eb6;" horiz-adv-x="684" 
d="M342 720c-71 0 -135 34 -176 88l56 46c27 -37 68 -62 120 -62c50 0 91 24 119 62l56 -46c-40 -54 -103 -88 -175 -88zM533 0l-42 115h-298l-42 -115h-156l258 667h178l257 -667h-155zM342 544l-111 -306h221zM273 -119c0 37 31 68 68 68s67 -31 67 -68
c0 -38 -30 -68 -67 -68s-68 30 -68 68z" />
    <glyph glyph-name="AE" unicode="&#xc6;" horiz-adv-x="968" 
d="M454 0v115h-240l-67 -115h-156l406 667h529v-122h-329v-145h322v-122h-322v-155h329v-123h-472zM454 545l-174 -307h174v307z" />
    <glyph glyph-name="AEacute" unicode="&#x1fc;" horiz-adv-x="968" 
d="M565 723h-89l134 144h117zM454 0v115h-240l-67 -115h-156l406 667h529v-122h-329v-145h322v-122h-322v-155h329v-123h-472zM454 545l-174 -307h174v307z" />
    <glyph glyph-name="uni1E02" unicode="&#x1e02;" horiz-adv-x="663" 
d="M262 789c0 37 31 68 68 68s67 -31 67 -68c0 -38 -30 -68 -67 -68s-68 30 -68 68zM66 0v667h351c127 0 192 -81 192 -170c0 -84 -52 -140 -115 -153c71 -11 128 -80 128 -164c0 -100 -67 -180 -194 -180h-362zM208 399h178c48 0 78 31 78 74c0 41 -30 73 -78 73h-178v-147
zM208 121h183c54 0 86 31 86 79c0 42 -30 78 -86 78h-183v-157z" />
    <glyph glyph-name="Cacute" unicode="&#x106;" horiz-adv-x="687" 
d="M425 723h-89l134 144h117zM384 -12c-195 0 -350 140 -350 345s155 345 350 345c152 0 237 -80 284 -163l-122 -60c-28 54 -88 97 -162 97c-116 0 -204 -93 -204 -219s88 -219 204 -219c74 0 134 42 162 97l122 -59c-48 -83 -132 -164 -284 -164z" />
    <glyph glyph-name="Ccedilla" unicode="&#xc7;" horiz-adv-x="687" 
d="M384 114c74 0 134 42 162 97l122 -59c-45 -78 -123 -155 -259 -163l-17 -40c10 7 23 10 36 10c37 0 67 -28 67 -69c0 -54 -51 -86 -111 -86c-48 0 -89 15 -110 32l25 52c25 -20 54 -30 81 -30s52 11 52 34c0 15 -10 25 -29 25c-13 0 -24 -6 -32 -14l-46 26l22 61
c-177 16 -313 151 -313 343c0 205 155 345 350 345c152 0 237 -80 284 -163l-122 -60c-28 54 -88 97 -162 97c-116 0 -204 -93 -204 -219s88 -219 204 -219z" />
    <glyph glyph-name="Ccircumflex" unicode="&#x108;" horiz-adv-x="687" 
d="M457 723l-73 89l-71 -89h-78l92 144h114l94 -144h-78zM384 -12c-195 0 -350 140 -350 345s155 345 350 345c152 0 237 -80 284 -163l-122 -60c-28 54 -88 97 -162 97c-116 0 -204 -93 -204 -219s88 -219 204 -219c74 0 134 42 162 97l122 -59
c-48 -83 -132 -164 -284 -164z" />
    <glyph glyph-name="Cdotaccent" unicode="&#x10a;" horiz-adv-x="687" 
d="M316 789c0 37 31 68 68 68s67 -31 67 -68c0 -38 -30 -68 -67 -68s-68 30 -68 68zM384 -12c-195 0 -350 140 -350 345s155 345 350 345c152 0 237 -80 284 -163l-122 -60c-28 54 -88 97 -162 97c-116 0 -204 -93 -204 -219s88 -219 204 -219c74 0 134 42 162 97l122 -59
c-48 -83 -132 -164 -284 -164z" />
    <glyph glyph-name="Ccaron" unicode="&#x10c;" horiz-adv-x="687" 
d="M326 723l-94 144h78l74 -90l70 90h78l-92 -144h-114zM384 -12c-195 0 -350 140 -350 345s155 345 350 345c152 0 237 -80 284 -163l-122 -60c-28 54 -88 97 -162 97c-116 0 -204 -93 -204 -219s88 -219 204 -219c74 0 134 42 162 97l122 -59c-48 -83 -132 -164 -284 -164
z" />
    <glyph glyph-name="Dcaron" unicode="&#x10e;" horiz-adv-x="718" 
d="M301 723l-94 144h78l74 -90l70 90h78l-92 -144h-114zM66 0v667h263c209 0 354 -133 354 -334s-145 -333 -354 -333h-263zM208 125h121c132 0 209 95 209 208c0 118 -72 209 -209 209h-121v-417z" />
    <glyph glyph-name="Dcroat" unicode="&#x110;" horiz-adv-x="742" 
d="M353 667c209 0 355 -133 355 -334s-146 -333 -354 -333h-264v276h-82v108h82v283h263zM353 125c132 0 209 95 209 208c0 118 -72 209 -208 209h-121v-158h149v-108h-149v-151h120z" />
    <glyph glyph-name="uni1E0A" unicode="&#x1e0a;" horiz-adv-x="718" 
d="M291 789c0 37 31 68 68 68s67 -31 67 -68c0 -38 -30 -68 -67 -68s-68 30 -68 68zM66 0v667h263c209 0 354 -133 354 -334s-145 -333 -354 -333h-263zM208 125h121c132 0 209 95 209 208c0 118 -72 209 -209 209h-121v-417z" />
    <glyph glyph-name="Eacute" unicode="&#xc9;" horiz-adv-x="583" 
d="M349 723h-89l134 144h117zM66 0v667h472v-122h-330v-145h323v-122h-323v-155h330v-123h-472z" />
    <glyph glyph-name="Ebreve" unicode="&#x114;" horiz-adv-x="583" 
d="M308 720c-71 0 -135 34 -176 88l56 46c27 -37 68 -62 120 -62c50 0 91 24 119 62l56 -46c-40 -54 -103 -88 -175 -88zM66 0v667h472v-122h-330v-145h323v-122h-323v-155h330v-123h-472z" />
    <glyph glyph-name="Ecircumflex" unicode="&#xca;" horiz-adv-x="583" 
d="M381 723l-73 89l-71 -89h-78l92 144h114l94 -144h-78zM66 0v667h472v-122h-330v-145h323v-122h-323v-155h330v-123h-472z" />
    <glyph glyph-name="Edieresis" unicode="&#xcb;" horiz-adv-x="583" 
d="M203 722c-38 0 -68 30 -68 68c0 37 30 67 68 67c37 0 67 -30 67 -67c0 -38 -30 -68 -67 -68zM414 722c-37 0 -68 30 -68 68c0 37 31 67 68 67s68 -30 68 -67c0 -38 -31 -68 -68 -68zM66 0v667h472v-122h-330v-145h323v-122h-323v-155h330v-123h-472z" />
    <glyph glyph-name="Edotaccent" unicode="&#x116;" horiz-adv-x="583" 
d="M240 789c0 37 31 68 68 68s67 -31 67 -68c0 -38 -30 -68 -67 -68s-68 30 -68 68zM66 0v667h472v-122h-330v-145h323v-122h-323v-155h330v-123h-472z" />
    <glyph glyph-name="Egrave" unicode="&#xc8;" horiz-adv-x="583" 
d="M264 723l-162 144h117l134 -144h-89zM66 0v667h472v-122h-330v-145h323v-122h-323v-155h330v-123h-472z" />
    <glyph glyph-name="Emacron" unicode="&#x112;" horiz-adv-x="583" 
d="M140 729v72h335v-72h-335zM66 0v667h472v-122h-330v-145h323v-122h-323v-155h330v-123h-472z" />
    <glyph glyph-name="Eogonek" unicode="&#x118;" horiz-adv-x="583" 
d="M538 545h-330v-145h323v-122h-323v-155h330v-123h-1c-60 -18 -88 -45 -88 -76c0 -20 16 -31 34 -31c9 0 19 2 29 7l24 -68c-23 -13 -52 -18 -88 -18c-55 0 -113 23 -113 80c0 46 44 81 108 106h-377v667h472v-122z" />
    <glyph glyph-name="Ecaron" unicode="&#x11a;" horiz-adv-x="583" 
d="M250 723l-94 144h78l74 -90l70 90h78l-92 -144h-114zM66 0v667h472v-122h-330v-145h323v-122h-323v-155h330v-123h-472z" />
    <glyph glyph-name="uni1EB8" unicode="&#x1eb8;" horiz-adv-x="583" 
d="M66 0v667h472v-122h-330v-145h323v-122h-323v-155h330v-123h-472zM240 -119c0 37 31 68 68 68s67 -31 67 -68c0 -38 -30 -68 -67 -68s-68 30 -68 68z" />
    <glyph glyph-name="uni1EBA" unicode="&#x1eba;" horiz-adv-x="583" 
d="M198 810c16 47 55 73 103 73c54 0 104 -27 104 -93c0 -27 -8 -45 -21 -66h-70c17 20 25 41 25 63c0 29 -17 40 -38 40c-22 0 -36 -15 -44 -36zM66 0v667h472v-122h-330v-145h323v-122h-323v-155h330v-123h-472z" />
    <glyph glyph-name="uni1EBC" unicode="&#x1ebc;" horiz-adv-x="583" 
d="M288 762c-13 14 -24 27 -40 27c-20 0 -36 -19 -36 -62h-67c0 85 38 134 108 134c38 0 58 -22 75 -41c14 -14 25 -26 41 -26c20 0 36 19 36 61h67c0 -85 -37 -134 -107 -134c-39 0 -60 22 -77 41zM66 0v667h472v-122h-330v-145h323v-122h-323v-155h330v-123h-472z" />
    <glyph glyph-name="uni1EBE" unicode="&#x1ebe;" horiz-adv-x="583" 
d="M518 780h-89l134 108h117zM381 705l-73 67l-71 -67h-78l92 108h114l94 -108h-78zM66 0v667h472v-122h-330v-145h323v-122h-323v-155h330v-123h-472z" />
    <glyph glyph-name="uni1EC0" unicode="&#x1ec0;" horiz-adv-x="583" 
d="M103 780l-162 108h117l134 -108h-89zM381 705l-73 67l-71 -67h-78l92 108h114l94 -108h-78zM66 0v667h472v-122h-330v-145h323v-122h-323v-155h330v-123h-472z" />
    <glyph glyph-name="uni1EC2" unicode="&#x1ec2;" horiz-adv-x="583" 
d="M313 844c16 35 55 55 103 55c54 0 104 -20 104 -70c0 -20 -8 -33 -21 -49h-70c17 15 25 31 25 47c0 22 -17 30 -38 30c-22 0 -36 -11 -44 -27zM381 705l-73 67l-71 -67h-78l92 108h114l94 -108h-78zM66 0v667h472v-122h-330v-145h323v-122h-323v-155h330v-123h-472z" />
    <glyph glyph-name="uni1EC4" unicode="&#x1ec4;" horiz-adv-x="583" 
d="M288 855c-13 11 -24 21 -40 21c-20 0 -36 -15 -36 -47h-67c0 64 38 100 108 100c38 0 58 -16 75 -30c14 -11 25 -20 41 -20c20 0 36 15 36 46h67c0 -64 -37 -100 -107 -100c-39 0 -60 16 -77 30zM381 705l-73 67l-71 -67h-78l92 108h114l94 -108h-78zM66 0v667h472v-122
h-330v-145h323v-122h-323v-155h330v-123h-472z" />
    <glyph glyph-name="uni1EC6" unicode="&#x1ec6;" horiz-adv-x="583" 
d="M381 723l-73 89l-71 -89h-78l92 144h114l94 -144h-78zM66 0v667h472v-122h-330v-145h323v-122h-323v-155h330v-123h-472zM240 -119c0 37 31 68 68 68s67 -31 67 -68c0 -38 -30 -68 -67 -68s-68 30 -68 68z" />
    <glyph glyph-name="uni1E1E" unicode="&#x1e1e;" horiz-adv-x="571" 
d="M238 789c0 37 31 68 68 68s67 -31 67 -68c0 -38 -30 -68 -67 -68s-68 30 -68 68zM66 0v667h472v-122h-330v-145h323v-122h-323v-278h-142z" />
    <glyph glyph-name="Gcircumflex" unicode="&#x11c;" horiz-adv-x="720" 
d="M462 723l-73 89l-71 -89h-78l92 144h114l94 -144h-78zM34 333c0 211 160 345 355 345c138 0 225 -67 276 -146l-118 -64c-31 47 -88 84 -158 84c-121 0 -209 -93 -209 -219s88 -219 209 -219c61 0 115 25 144 51v81h-178v122h318v-255c-68 -76 -163 -126 -284 -126
c-195 0 -355 136 -355 346z" />
    <glyph glyph-name="Gbreve" unicode="&#x11e;" horiz-adv-x="720" 
d="M389 720c-71 0 -135 34 -176 88l56 46c27 -37 68 -62 120 -62c50 0 91 24 119 62l56 -46c-40 -54 -103 -88 -175 -88zM34 333c0 211 160 345 355 345c138 0 225 -67 276 -146l-118 -64c-31 47 -88 84 -158 84c-121 0 -209 -93 -209 -219s88 -219 209 -219
c61 0 115 25 144 51v81h-178v122h318v-255c-68 -76 -163 -126 -284 -126c-195 0 -355 136 -355 346z" />
    <glyph glyph-name="Gdotaccent" unicode="&#x120;" horiz-adv-x="720" 
d="M321 789c0 37 31 68 68 68s67 -31 67 -68c0 -38 -30 -68 -67 -68s-68 30 -68 68zM34 333c0 211 160 345 355 345c138 0 225 -67 276 -146l-118 -64c-31 47 -88 84 -158 84c-121 0 -209 -93 -209 -219s88 -219 209 -219c61 0 115 25 144 51v81h-178v122h318v-255
c-68 -76 -163 -126 -284 -126c-195 0 -355 136 -355 346z" />
    <glyph glyph-name="uni0122" unicode="&#x122;" horiz-adv-x="720" 
d="M34 333c0 211 160 345 355 345c138 0 225 -67 276 -146l-118 -64c-31 47 -88 84 -158 84c-121 0 -209 -93 -209 -219s88 -219 209 -219c61 0 115 25 144 51v81h-178v122h318v-255c-68 -76 -163 -126 -284 -126c-195 0 -355 136 -355 346zM377 -288l-44 35
c27 15 57 50 63 79c-2 -1 -9 -2 -15 -2c-30 0 -53 23 -53 56c0 35 27 63 61 63c37 0 71 -29 71 -81c0 -61 -34 -115 -83 -150z" />
    <glyph glyph-name="Gcaron" unicode="&#x1e6;" horiz-adv-x="720" 
d="M331 723l-94 144h78l74 -90l70 90h78l-92 -144h-114zM34 333c0 211 160 345 355 345c138 0 225 -67 276 -146l-118 -64c-31 47 -88 84 -158 84c-121 0 -209 -93 -209 -219s88 -219 209 -219c61 0 115 25 144 51v81h-178v122h318v-255c-68 -76 -163 -126 -284 -126
c-195 0 -355 136 -355 346z" />
    <glyph glyph-name="Gcircumflex.alt1" horiz-adv-x="744" 
d="M462 723l-73 89l-71 -89h-78l92 144h114l94 -144h-78zM34 333c0 211 160 345 355 345c138 0 225 -67 276 -146l-118 -64c-31 47 -88 84 -158 84c-121 0 -209 -93 -209 -219s88 -219 209 -219c98 0 157 62 175 132h-209v122h364c0 -237 -129 -381 -343 -381
c-182 0 -342 136 -342 346z" />
    <glyph glyph-name="Gbreve.alt1" horiz-adv-x="744" 
d="M389 720c-71 0 -135 34 -176 88l56 46c27 -37 68 -62 120 -62c50 0 91 24 119 62l56 -46c-40 -54 -103 -88 -175 -88zM34 333c0 211 160 345 355 345c138 0 225 -67 276 -146l-118 -64c-31 47 -88 84 -158 84c-121 0 -209 -93 -209 -219s88 -219 209 -219
c98 0 157 62 175 132h-209v122h364c0 -237 -129 -381 -343 -381c-182 0 -342 136 -342 346z" />
    <glyph glyph-name="Gdotaccent.alt1" horiz-adv-x="744" 
d="M321 789c0 37 31 68 68 68s67 -31 67 -68c0 -38 -30 -68 -67 -68s-68 30 -68 68zM34 333c0 211 160 345 355 345c138 0 225 -67 276 -146l-118 -64c-31 47 -88 84 -158 84c-121 0 -209 -93 -209 -219s88 -219 209 -219c98 0 157 62 175 132h-209v122h364
c0 -237 -129 -381 -343 -381c-182 0 -342 136 -342 346z" />
    <glyph glyph-name="Gcommaaccent.alt1" horiz-adv-x="744" 
d="M34 333c0 211 160 345 355 345c138 0 225 -67 276 -146l-118 -64c-31 47 -88 84 -158 84c-121 0 -209 -93 -209 -219s88 -219 209 -219c98 0 157 62 175 132h-209v122h364c0 -237 -129 -381 -343 -381c-182 0 -342 136 -342 346zM377 -288l-44 35c27 15 57 50 63 79
c-2 -1 -9 -2 -15 -2c-30 0 -53 23 -53 56c0 35 27 63 61 63c37 0 71 -29 71 -81c0 -61 -34 -115 -83 -150z" />
    <glyph glyph-name="Gcaron.alt1" horiz-adv-x="744" 
d="M331 723l-94 144h78l74 -90l70 90h78l-92 -144h-114zM34 333c0 211 160 345 355 345c138 0 225 -67 276 -146l-118 -64c-31 47 -88 84 -158 84c-121 0 -209 -93 -209 -219s88 -219 209 -219c98 0 157 62 175 132h-209v122h364c0 -237 -129 -381 -343 -381
c-182 0 -342 136 -342 346z" />
    <glyph glyph-name="Hbar" unicode="&#x126;" horiz-adv-x="748" 
d="M742 570v-72h-68v-498h-143v280h-314v-280h-143v498h-66v72h66v97h143v-97h314v97h143v-97h68zM531 405v93h-314v-93h314z" />
    <glyph glyph-name="Hcircumflex" unicode="&#x124;" horiz-adv-x="731" 
d="M439 723l-73 89l-71 -89h-78l92 144h114l94 -144h-78zM523 0v280h-315v-280h-142v667h142v-262h315v262h143v-667h-143z" />
    <glyph glyph-name="uni1E22" unicode="&#x1e22;" horiz-adv-x="731" 
d="M298 789c0 37 31 68 68 68s67 -31 67 -68c0 -38 -30 -68 -67 -68s-68 30 -68 68zM523 0v280h-315v-280h-142v667h142v-262h315v262h143v-667h-143z" />
    <glyph glyph-name="Iacute" unicode="&#xcd;" horiz-adv-x="274" 
d="M179 723h-89l134 144h117zM66 0v667h142v-667h-142z" />
    <glyph glyph-name="Ibreve" unicode="&#x12c;" horiz-adv-x="274" 
d="M138 720c-71 0 -135 34 -176 88l56 46c27 -37 68 -62 120 -62c50 0 91 24 119 62l56 -46c-40 -54 -103 -88 -175 -88zM66 0v667h142v-667h-142z" />
    <glyph glyph-name="Icircumflex" unicode="&#xce;" horiz-adv-x="274" 
d="M211 723l-73 89l-71 -89h-78l92 144h114l94 -144h-78zM66 0v667h142v-667h-142z" />
    <glyph glyph-name="Idieresis" unicode="&#xcf;" horiz-adv-x="274" 
d="M33 722c-38 0 -68 30 -68 68c0 37 30 67 68 67c37 0 67 -30 67 -67c0 -38 -30 -68 -67 -68zM244 722c-37 0 -68 30 -68 68c0 37 31 67 68 67s68 -30 68 -67c0 -38 -31 -68 -68 -68zM66 0v667h142v-667h-142z" />
    <glyph glyph-name="Idotaccent" unicode="&#x130;" horiz-adv-x="274" 
d="M70 789c0 37 31 68 68 68s67 -31 67 -68c0 -38 -30 -68 -67 -68s-68 30 -68 68zM66 0v667h142v-667h-142z" />
    <glyph glyph-name="Igrave" unicode="&#xcc;" horiz-adv-x="274" 
d="M94 723l-162 144h117l134 -144h-89zM66 0v667h142v-667h-142z" />
    <glyph glyph-name="Imacron" unicode="&#x12a;" horiz-adv-x="274" 
d="M-30 729v72h335v-72h-335zM66 0v667h142v-667h-142z" />
    <glyph glyph-name="Iogonek" unicode="&#x12e;" horiz-adv-x="274" 
d="M208 0c-60 -18 -88 -45 -88 -76c0 -20 16 -31 34 -31c9 0 19 2 29 7l24 -68c-23 -13 -52 -18 -88 -18c-55 0 -113 23 -113 80c0 46 44 81 108 106h-48v667h142v-667z" />
    <glyph glyph-name="Itilde" unicode="&#x128;" horiz-adv-x="274" 
d="M118 762c-13 14 -24 27 -40 27c-20 0 -36 -19 -36 -62h-67c0 85 38 134 108 134c38 0 58 -22 75 -41c14 -14 25 -26 41 -26c20 0 36 19 36 61h67c0 -85 -37 -134 -107 -134c-39 0 -60 22 -77 41zM66 0v667h142v-667h-142z" />
    <glyph glyph-name="uni1EC8" unicode="&#x1ec8;" horiz-adv-x="274" 
d="M28 810c16 47 55 73 103 73c54 0 104 -27 104 -93c0 -27 -8 -45 -21 -66h-70c17 20 25 41 25 63c0 29 -17 40 -38 40c-22 0 -36 -15 -44 -36zM66 0v667h142v-667h-142z" />
    <glyph glyph-name="uni1ECA" unicode="&#x1eca;" horiz-adv-x="274" 
d="M66 0v667h142v-667h-142zM70 -119c0 37 31 68 68 68s67 -31 67 -68c0 -38 -30 -68 -67 -68s-68 30 -68 68z" />
    <glyph glyph-name="IJ" unicode="&#x132;" horiz-adv-x="760" 
d="M66 0v667h142v-667h-142zM280 53l62 109c26 -25 60 -48 106 -48c63 0 104 42 104 107v446h142v-448c0 -158 -98 -231 -235 -231c-68 0 -131 18 -179 65z" />
    <glyph glyph-name="Iacute_J.loclNLD" horiz-adv-x="760" 
d="M179 723h-89l134 144h117zM666 723h-89l134 144h117zM66 0v667h142v-667h-142zM280 53l62 109c26 -25 60 -48 106 -48c63 0 104 42 104 107v446h142v-448c0 -158 -98 -231 -235 -231c-68 0 -131 18 -179 65z" />
    <glyph glyph-name="Jcircumflex" unicode="&#x134;" horiz-adv-x="486" 
d="M424 723l-73 89l-71 -89h-78l92 144h114l94 -144h-78zM6 53l62 109c26 -25 60 -48 106 -48c63 0 104 42 104 107v446h142v-448c0 -158 -98 -231 -235 -231c-68 0 -131 18 -179 65z" />
    <glyph glyph-name="uni0136" unicode="&#x136;" horiz-adv-x="636" 
d="M462 0l-202 267l-52 -62v-205h-142v667h142v-298l236 298h175l-265 -313l283 -354h-175zM311 -288l-44 35c27 15 57 50 63 79c-2 -1 -9 -2 -15 -2c-30 0 -53 23 -53 56c0 35 27 63 61 63c37 0 71 -29 71 -81c0 -61 -34 -115 -83 -150z" />
    <glyph glyph-name="Lacute" unicode="&#x139;" horiz-adv-x="523" 
d="M320 723h-89l134 144h117zM66 0v667h142v-542h282v-125h-424z" />
    <glyph glyph-name="Lcaron" unicode="&#x13d;" horiz-adv-x="523" 
d="M338 449l-44 35c27 15 57 50 63 79c-2 -1 -9 -2 -15 -2c-30 0 -53 23 -53 56c0 35 27 63 61 63c37 0 71 -29 71 -81c0 -61 -34 -115 -83 -150zM66 0v667h142v-542h282v-125h-424z" />
    <glyph glyph-name="uni013B" unicode="&#x13b;" horiz-adv-x="523" 
d="M66 0v667h142v-542h282v-125h-424zM267 -288l-44 35c27 15 57 50 63 79c-2 -1 -9 -2 -15 -2c-30 0 -53 23 -53 56c0 35 27 63 61 63c37 0 71 -29 71 -81c0 -61 -34 -115 -83 -150z" />
    <glyph glyph-name="Ldot" unicode="&#x13f;" horiz-adv-x="542" 
d="M66 0v667h142v-542h282v-125h-424zM407 261c-44 0 -81 37 -81 80c0 44 37 81 81 81s80 -37 80 -81c0 -43 -36 -80 -80 -80z" />
    <glyph glyph-name="Lslash" unicode="&#x141;" horiz-adv-x="537" 
d="M222 125h282v-125h-424v233l-72 -41v116l72 41v318h142v-236l77 44v-116l-77 -44v-190z" />
    <glyph glyph-name="Nacute" unicode="&#x143;" horiz-adv-x="729" 
d="M406 723h-89l134 144h117zM526 0l-318 448v-448h-142v667h146l309 -432v432h142v-667h-137z" />
    <glyph glyph-name="Ncaron" unicode="&#x147;" horiz-adv-x="729" 
d="M307 723l-94 144h78l74 -90l70 90h78l-92 -144h-114zM526 0l-318 448v-448h-142v667h146l309 -432v432h142v-667h-137z" />
    <glyph glyph-name="uni0145" unicode="&#x145;" horiz-adv-x="729" 
d="M526 0l-318 448v-448h-142v667h146l309 -432v432h142v-667h-137zM353 -288l-44 35c27 15 57 50 63 79c-2 -1 -9 -2 -15 -2c-30 0 -53 23 -53 56c0 35 27 63 61 63c37 0 71 -29 71 -81c0 -61 -34 -115 -83 -150z" />
    <glyph glyph-name="Ntilde" unicode="&#xd1;" horiz-adv-x="729" 
d="M345 762c-13 14 -24 27 -40 27c-20 0 -36 -19 -36 -62h-67c0 85 38 134 108 134c38 0 58 -22 75 -41c14 -14 25 -26 41 -26c20 0 36 19 36 61h67c0 -85 -37 -134 -107 -134c-39 0 -60 22 -77 41zM526 0l-318 448v-448h-142v667h146l309 -432v432h142v-667h-137z" />
    <glyph glyph-name="uni019D" unicode="&#x19d;" horiz-adv-x="729" 
d="M521 667h142v-667h-137l-318 448v-413c0 -158 -98 -231 -235 -231c-20 0 -43 2 -62 6l14 122c10 -3 24 -5 37 -5c63 0 104 42 104 107v633h146l309 -432v432z" />
    <glyph glyph-name="Eng" unicode="&#x14a;" horiz-adv-x="729" 
d="M521 667h142v-633c0 -157 -98 -230 -235 -230c-68 0 -131 18 -180 65l63 109c25 -25 60 -48 106 -48c53 0 92 31 102 81l-311 431v-442h-142v667h146l309 -426v426z" />
    <glyph glyph-name="Oacute" unicode="&#xd3;" horiz-adv-x="765" 
d="M423 723h-89l134 144h117zM34 333c0 201 147 345 348 345c202 0 349 -144 349 -345s-147 -345 -349 -345c-201 0 -348 144 -348 345zM585 333c0 125 -80 219 -203 219s-202 -94 -202 -219c0 -124 79 -219 202 -219s203 95 203 219z" />
    <glyph glyph-name="Obreve" unicode="&#x14e;" horiz-adv-x="765" 
d="M382 720c-71 0 -135 34 -176 88l56 46c27 -37 68 -62 120 -62c50 0 91 24 119 62l56 -46c-40 -54 -103 -88 -175 -88zM34 333c0 201 147 345 348 345c202 0 349 -144 349 -345s-147 -345 -349 -345c-201 0 -348 144 -348 345zM585 333c0 125 -80 219 -203 219
s-202 -94 -202 -219c0 -124 79 -219 202 -219s203 95 203 219z" />
    <glyph glyph-name="Ocircumflex" unicode="&#xd4;" horiz-adv-x="765" 
d="M455 723l-73 89l-71 -89h-78l92 144h114l94 -144h-78zM34 333c0 201 147 345 348 345c202 0 349 -144 349 -345s-147 -345 -349 -345c-201 0 -348 144 -348 345zM585 333c0 125 -80 219 -203 219s-202 -94 -202 -219c0 -124 79 -219 202 -219s203 95 203 219z" />
    <glyph glyph-name="Odieresis" unicode="&#xd6;" horiz-adv-x="765" 
d="M277 722c-38 0 -68 30 -68 68c0 37 30 67 68 67c37 0 67 -30 67 -67c0 -38 -30 -68 -67 -68zM488 722c-37 0 -68 30 -68 68c0 37 31 67 68 67s68 -30 68 -67c0 -38 -31 -68 -68 -68zM34 333c0 201 147 345 348 345c202 0 349 -144 349 -345s-147 -345 -349 -345
c-201 0 -348 144 -348 345zM585 333c0 125 -80 219 -203 219s-202 -94 -202 -219c0 -124 79 -219 202 -219s203 95 203 219z" />
    <glyph glyph-name="Ograve" unicode="&#xd2;" horiz-adv-x="765" 
d="M338 723l-162 144h117l134 -144h-89zM34 333c0 201 147 345 348 345c202 0 349 -144 349 -345s-147 -345 -349 -345c-201 0 -348 144 -348 345zM585 333c0 125 -80 219 -203 219s-202 -94 -202 -219c0 -124 79 -219 202 -219s203 95 203 219z" />
    <glyph glyph-name="Ohungarumlaut" unicode="&#x150;" horiz-adv-x="765" 
d="M342 723h-74l87 144h102zM491 723h-74l87 144h102zM34 333c0 201 147 345 348 345c202 0 349 -144 349 -345s-147 -345 -349 -345c-201 0 -348 144 -348 345zM585 333c0 125 -80 219 -203 219s-202 -94 -202 -219c0 -124 79 -219 202 -219s203 95 203 219z" />
    <glyph glyph-name="Omacron" unicode="&#x14c;" horiz-adv-x="765" 
d="M214 729v72h335v-72h-335zM34 333c0 201 147 345 348 345c202 0 349 -144 349 -345s-147 -345 -349 -345c-201 0 -348 144 -348 345zM585 333c0 125 -80 219 -203 219s-202 -94 -202 -219c0 -124 79 -219 202 -219s203 95 203 219z" />
    <glyph glyph-name="Oslash" unicode="&#xd8;" horiz-adv-x="765" 
d="M622 591c68 -62 109 -152 109 -258c0 -201 -147 -345 -349 -345c-69 0 -132 17 -184 47l-27 -35h-102l64 84c-62 62 -99 148 -99 249c0 201 147 345 348 345c64 0 123 -15 173 -41l23 30h102zM180 333c0 -52 14 -99 39 -136l255 334c-26 14 -58 21 -92 21
c-123 0 -202 -94 -202 -219zM382 114c123 0 203 95 203 219c0 58 -17 109 -48 147l-258 -339c29 -17 64 -27 103 -27z" />
    <glyph glyph-name="Oslashacute" unicode="&#x1fe;" horiz-adv-x="765" 
d="M585 867l-162 -144h-89l134 144h117zM622 591c68 -62 109 -152 109 -258c0 -201 -147 -345 -349 -345c-69 0 -132 17 -184 47l-27 -35h-102l64 84c-62 62 -99 148 -99 249c0 201 147 345 348 345c64 0 123 -15 173 -41l23 30h102zM180 333c0 -52 14 -99 39 -136l255 334
c-26 14 -58 21 -92 21c-123 0 -202 -94 -202 -219zM382 114c123 0 203 95 203 219c0 58 -17 109 -48 147l-258 -339c29 -17 64 -27 103 -27z" />
    <glyph glyph-name="Otilde" unicode="&#xd5;" horiz-adv-x="765" 
d="M362 762c-13 14 -24 27 -40 27c-20 0 -36 -19 -36 -62h-67c0 85 38 134 108 134c38 0 58 -22 75 -41c14 -14 25 -26 41 -26c20 0 36 19 36 61h67c0 -85 -37 -134 -107 -134c-39 0 -60 22 -77 41zM34 333c0 201 147 345 348 345c202 0 349 -144 349 -345
s-147 -345 -349 -345c-201 0 -348 144 -348 345zM585 333c0 125 -80 219 -203 219s-202 -94 -202 -219c0 -124 79 -219 202 -219s203 95 203 219z" />
    <glyph glyph-name="uni01EA" unicode="&#x1ea;" horiz-adv-x="765" 
d="M463 -4c-52 -18 -76 -43 -76 -72c0 -20 16 -31 34 -31c9 0 19 2 29 7l24 -68c-23 -13 -52 -18 -88 -18c-55 0 -113 23 -113 80c0 39 32 71 82 95c-187 12 -321 152 -321 344c0 201 147 345 348 345c202 0 349 -144 349 -345c0 -173 -109 -304 -268 -337zM180 333
c0 -124 79 -219 202 -219s203 95 203 219c0 125 -80 219 -203 219s-202 -94 -202 -219z" />
    <glyph glyph-name="uni1ECC" unicode="&#x1ecc;" horiz-adv-x="765" 
d="M34 333c0 201 147 345 348 345c202 0 349 -144 349 -345s-147 -345 -349 -345c-201 0 -348 144 -348 345zM585 333c0 125 -80 219 -203 219s-202 -94 -202 -219c0 -124 79 -219 202 -219s203 95 203 219zM314 -119c0 37 31 68 68 68s67 -31 67 -68c0 -38 -30 -68 -67 -68
s-68 30 -68 68z" />
    <glyph glyph-name="uni1ECE" unicode="&#x1ece;" horiz-adv-x="765" 
d="M272 810c16 47 55 73 103 73c54 0 104 -27 104 -93c0 -27 -8 -45 -21 -66h-70c17 20 25 41 25 63c0 29 -17 40 -38 40c-22 0 -36 -15 -44 -36zM34 333c0 201 147 345 348 345c202 0 349 -144 349 -345s-147 -345 -349 -345c-201 0 -348 144 -348 345zM585 333
c0 125 -80 219 -203 219s-202 -94 -202 -219c0 -124 79 -219 202 -219s203 95 203 219z" />
    <glyph glyph-name="uni1ED0" unicode="&#x1ed0;" horiz-adv-x="765" 
d="M592 780h-89l134 108h117zM455 705l-73 67l-71 -67h-78l92 108h114l94 -108h-78zM34 333c0 201 147 345 348 345c202 0 349 -144 349 -345s-147 -345 -349 -345c-201 0 -348 144 -348 345zM585 333c0 125 -80 219 -203 219s-202 -94 -202 -219c0 -124 79 -219 202 -219
s203 95 203 219z" />
    <glyph glyph-name="uni1ED2" unicode="&#x1ed2;" horiz-adv-x="765" 
d="M177 780l-162 108h117l134 -108h-89zM455 705l-73 67l-71 -67h-78l92 108h114l94 -108h-78zM34 333c0 201 147 345 348 345c202 0 349 -144 349 -345s-147 -345 -349 -345c-201 0 -348 144 -348 345zM585 333c0 125 -80 219 -203 219s-202 -94 -202 -219
c0 -124 79 -219 202 -219s203 95 203 219z" />
    <glyph glyph-name="uni1ED4" unicode="&#x1ed4;" horiz-adv-x="765" 
d="M387 844c16 35 55 55 103 55c54 0 104 -20 104 -70c0 -20 -8 -33 -21 -49h-70c17 15 25 31 25 47c0 22 -17 30 -38 30c-22 0 -36 -11 -44 -27zM455 705l-73 67l-71 -67h-78l92 108h114l94 -108h-78zM34 333c0 201 147 345 348 345c202 0 349 -144 349 -345
s-147 -345 -349 -345c-201 0 -348 144 -348 345zM585 333c0 125 -80 219 -203 219s-202 -94 -202 -219c0 -124 79 -219 202 -219s203 95 203 219z" />
    <glyph glyph-name="uni1ED6" unicode="&#x1ed6;" horiz-adv-x="765" 
d="M362 855c-13 11 -24 21 -40 21c-20 0 -36 -15 -36 -47h-67c0 64 38 100 108 100c38 0 58 -16 75 -30c14 -11 25 -20 41 -20c20 0 36 15 36 46h67c0 -64 -37 -100 -107 -100c-39 0 -60 16 -77 30zM455 705l-73 67l-71 -67h-78l92 108h114l94 -108h-78zM34 333
c0 201 147 345 348 345c202 0 349 -144 349 -345s-147 -345 -349 -345c-201 0 -348 144 -348 345zM585 333c0 125 -80 219 -203 219s-202 -94 -202 -219c0 -124 79 -219 202 -219s203 95 203 219z" />
    <glyph glyph-name="uni1ED8" unicode="&#x1ed8;" horiz-adv-x="765" 
d="M455 723l-73 89l-71 -89h-78l92 144h114l94 -144h-78zM34 333c0 201 147 345 348 345c202 0 349 -144 349 -345s-147 -345 -349 -345c-201 0 -348 144 -348 345zM585 333c0 125 -80 219 -203 219s-202 -94 -202 -219c0 -124 79 -219 202 -219s203 95 203 219zM314 -119
c0 37 31 68 68 68s67 -31 67 -68c0 -38 -30 -68 -67 -68s-68 30 -68 68z" />
    <glyph glyph-name="Ohorn" unicode="&#x1a0;" horiz-adv-x="765" 
d="M742 666c0 -53 -28 -101 -70 -133c38 -55 59 -124 59 -200c0 -201 -147 -345 -349 -345c-201 0 -348 144 -348 345s147 345 348 345c106 0 198 -40 260 -107c20 16 39 42 44 63c-2 -1 -9 -2 -14 -2c-27 0 -48 21 -48 51c0 31 25 56 55 56c33 0 63 -26 63 -73zM382 114
c123 0 203 95 203 219c0 125 -80 219 -203 219s-202 -94 -202 -219c0 -124 79 -219 202 -219z" />
    <glyph glyph-name="uni1EDA" unicode="&#x1eda;" horiz-adv-x="765" 
d="M585 867l-162 -144h-89l134 144h117zM742 666c0 -53 -28 -101 -70 -133c38 -55 59 -124 59 -200c0 -201 -147 -345 -349 -345c-201 0 -348 144 -348 345s147 345 348 345c106 0 198 -40 260 -107c20 16 39 42 44 63c-2 -1 -9 -2 -14 -2c-27 0 -48 21 -48 51
c0 31 25 56 55 56c33 0 63 -26 63 -73zM382 114c123 0 203 95 203 219c0 125 -80 219 -203 219s-202 -94 -202 -219c0 -124 79 -219 202 -219z" />
    <glyph glyph-name="uni1EDC" unicode="&#x1edc;" horiz-adv-x="765" 
d="M427 723h-89l-162 144h117zM742 666c0 -53 -28 -101 -70 -133c38 -55 59 -124 59 -200c0 -201 -147 -345 -349 -345c-201 0 -348 144 -348 345s147 345 348 345c106 0 198 -40 260 -107c20 16 39 42 44 63c-2 -1 -9 -2 -14 -2c-27 0 -48 21 -48 51c0 31 25 56 55 56
c33 0 63 -26 63 -73zM382 114c123 0 203 95 203 219c0 125 -80 219 -203 219s-202 -94 -202 -219c0 -124 79 -219 202 -219z" />
    <glyph glyph-name="uni1EDE" unicode="&#x1ede;" horiz-adv-x="765" 
d="M375 827c-22 0 -36 -15 -44 -36l-59 19c16 47 55 73 103 73c54 0 104 -27 104 -93c0 -27 -8 -45 -21 -66h-70c17 20 25 41 25 63c0 29 -17 40 -38 40zM742 666c0 -53 -28 -101 -70 -133c38 -55 59 -124 59 -200c0 -201 -147 -345 -349 -345c-201 0 -348 144 -348 345
s147 345 348 345c106 0 198 -40 260 -107c20 16 39 42 44 63c-2 -1 -9 -2 -14 -2c-27 0 -48 21 -48 51c0 31 25 56 55 56c33 0 63 -26 63 -73zM382 114c123 0 203 95 203 219c0 125 -80 219 -203 219s-202 -94 -202 -219c0 -124 79 -219 202 -219z" />
    <glyph glyph-name="uni1EE0" unicode="&#x1ee0;" horiz-adv-x="765" 
d="M322 789c-20 0 -36 -19 -36 -62h-67c0 85 38 134 108 134c38 0 58 -22 75 -41c14 -14 25 -26 41 -26c20 0 36 19 36 61h67c0 -85 -37 -134 -107 -134c-39 0 -60 22 -77 41c-13 14 -24 27 -40 27zM742 666c0 -53 -28 -101 -70 -133c38 -55 59 -124 59 -200
c0 -201 -147 -345 -349 -345c-201 0 -348 144 -348 345s147 345 348 345c106 0 198 -40 260 -107c20 16 39 42 44 63c-2 -1 -9 -2 -14 -2c-27 0 -48 21 -48 51c0 31 25 56 55 56c33 0 63 -26 63 -73zM382 114c123 0 203 95 203 219c0 125 -80 219 -203 219
s-202 -94 -202 -219c0 -124 79 -219 202 -219z" />
    <glyph glyph-name="uni1EE2" unicode="&#x1ee2;" horiz-adv-x="765" 
d="M742 666c0 -53 -28 -101 -70 -133c38 -55 59 -124 59 -200c0 -201 -147 -345 -349 -345c-201 0 -348 144 -348 345s147 345 348 345c106 0 198 -40 260 -107c20 16 39 42 44 63c-2 -1 -9 -2 -14 -2c-27 0 -48 21 -48 51c0 31 25 56 55 56c33 0 63 -26 63 -73zM382 114
c123 0 203 95 203 219c0 125 -80 219 -203 219s-202 -94 -202 -219c0 -124 79 -219 202 -219zM382 -51c37 0 67 -31 67 -68c0 -38 -30 -68 -67 -68s-68 30 -68 68c0 37 31 68 68 68z" />
    <glyph glyph-name="OE" unicode="&#x152;" horiz-adv-x="1084" 
d="M569 0v78c-45 -60 -128 -90 -201 -90c-194 0 -334 143 -334 345s140 344 334 344c73 0 156 -29 201 -89v79h472v-122h-329v-145h322v-122h-322v-155h329v-123h-472zM569 436c-32 76 -100 115 -181 115c-129 0 -208 -93 -208 -218c0 -124 79 -219 208 -219
c81 0 149 42 181 116v206z" />
    <glyph glyph-name="uni1E56" unicode="&#x1e56;" horiz-adv-x="624" 
d="M255 789c0 37 31 68 68 68s67 -31 67 -68c0 -38 -30 -68 -67 -68s-68 30 -68 68zM66 0v667h312c145 0 224 -98 224 -215c0 -116 -80 -213 -224 -213h-170v-239h-142zM457 453c0 55 -42 92 -98 92h-151v-184h151c56 0 98 36 98 92z" />
    <glyph glyph-name="Racute" unicode="&#x154;" horiz-adv-x="643" 
d="M364 723h-89l134 144h117zM443 0l-131 239h-104v-239h-142v667h312c139 0 224 -91 224 -215c0 -118 -74 -181 -146 -198l150 -254h-163zM457 453c0 56 -43 92 -100 92h-149v-184h149c57 0 100 36 100 92z" />
    <glyph glyph-name="Rcaron" unicode="&#x158;" horiz-adv-x="643" 
d="M265 723l-94 144h78l74 -90l70 90h78l-92 -144h-114zM443 0l-131 239h-104v-239h-142v667h312c139 0 224 -91 224 -215c0 -118 -74 -181 -146 -198l150 -254h-163zM457 453c0 56 -43 92 -100 92h-149v-184h149c57 0 100 36 100 92z" />
    <glyph glyph-name="uni0156" unicode="&#x156;" horiz-adv-x="643" 
d="M443 0l-131 239h-104v-239h-142v667h312c139 0 224 -91 224 -215c0 -118 -74 -181 -146 -198l150 -254h-163zM457 453c0 56 -43 92 -100 92h-149v-184h149c57 0 100 36 100 92zM311 -288l-44 35c27 15 57 50 63 79c-2 -1 -9 -2 -15 -2c-30 0 -53 23 -53 56
c0 35 27 63 61 63c37 0 71 -29 71 -81c0 -61 -34 -115 -83 -150z" />
    <glyph glyph-name="Sacute" unicode="&#x15a;" horiz-adv-x="600" 
d="M336 723h-89l134 144h117zM20 94l78 108c47 -49 120 -90 212 -90c78 0 116 37 116 75c0 50 -58 67 -135 85c-109 25 -249 55 -249 204c0 111 96 201 253 201c106 0 194 -32 260 -93l-79 -104c-54 50 -126 73 -191 73c-64 0 -98 -28 -98 -68c0 -45 56 -59 133 -77
c110 -25 250 -58 250 -206c0 -122 -87 -214 -267 -214c-128 0 -220 43 -283 106z" />
    <glyph glyph-name="Scaron" unicode="&#x160;" horiz-adv-x="600" 
d="M237 723l-94 144h78l74 -90l70 90h78l-92 -144h-114zM20 94l78 108c47 -49 120 -90 212 -90c78 0 116 37 116 75c0 50 -58 67 -135 85c-109 25 -249 55 -249 204c0 111 96 201 253 201c106 0 194 -32 260 -93l-79 -104c-54 50 -126 73 -191 73c-64 0 -98 -28 -98 -68
c0 -45 56 -59 133 -77c110 -25 250 -58 250 -206c0 -122 -87 -214 -267 -214c-128 0 -220 43 -283 106z" />
    <glyph glyph-name="Scircumflex" unicode="&#x15c;" horiz-adv-x="600" 
d="M368 723l-73 89l-71 -89h-78l92 144h114l94 -144h-78zM20 94l78 108c47 -49 120 -90 212 -90c78 0 116 37 116 75c0 50 -58 67 -135 85c-109 25 -249 55 -249 204c0 111 96 201 253 201c106 0 194 -32 260 -93l-79 -104c-54 50 -126 73 -191 73c-64 0 -98 -28 -98 -68
c0 -45 56 -59 133 -77c110 -25 250 -58 250 -206c0 -122 -87 -214 -267 -214c-128 0 -220 43 -283 106z" />
    <glyph glyph-name="uni015E" unicode="&#x15e;" horiz-adv-x="600" 
d="M570 202c0 -118 -81 -207 -247 -214l-17 -39c10 7 23 10 36 10c37 0 67 -28 67 -69c0 -54 -51 -86 -111 -86c-48 0 -89 15 -110 32l25 52c25 -20 54 -30 81 -30s52 11 52 34c0 15 -10 25 -29 25c-13 0 -24 -6 -32 -14l-46 26l22 61c-106 8 -185 48 -241 104l78 108
c47 -49 120 -90 212 -90c78 0 116 37 116 75c0 50 -58 67 -135 85c-109 25 -249 55 -249 204c0 111 96 201 253 201c106 0 194 -32 260 -93l-79 -104c-54 50 -126 73 -191 73c-64 0 -98 -28 -98 -68c0 -45 56 -59 133 -77c110 -25 250 -58 250 -206z" />
    <glyph glyph-name="uni0218" unicode="&#x218;" horiz-adv-x="600" 
d="M20 94l78 108c47 -49 120 -90 212 -90c78 0 116 37 116 75c0 50 -58 67 -135 85c-109 25 -249 55 -249 204c0 111 96 201 253 201c106 0 194 -32 260 -93l-79 -104c-54 50 -126 73 -191 73c-64 0 -98 -28 -98 -68c0 -45 56 -59 133 -77c110 -25 250 -58 250 -206
c0 -122 -87 -214 -267 -214c-128 0 -220 43 -283 106zM283 -288l-44 35c27 15 57 50 63 79c-2 -1 -9 -2 -15 -2c-30 0 -53 23 -53 56c0 35 27 63 61 63c37 0 71 -29 71 -81c0 -61 -34 -115 -83 -150z" />
    <glyph glyph-name="uni1E60" unicode="&#x1e60;" horiz-adv-x="600" 
d="M227 789c0 37 31 68 68 68s67 -31 67 -68c0 -38 -30 -68 -67 -68s-68 30 -68 68zM20 94l78 108c47 -49 120 -90 212 -90c78 0 116 37 116 75c0 50 -58 67 -135 85c-109 25 -249 55 -249 204c0 111 96 201 253 201c106 0 194 -32 260 -93l-79 -104c-54 50 -126 73 -191 73
c-64 0 -98 -28 -98 -68c0 -45 56 -59 133 -77c110 -25 250 -58 250 -206c0 -122 -87 -214 -267 -214c-128 0 -220 43 -283 106z" />
    <glyph glyph-name="uni1E9E" unicode="&#x1e9e;" horiz-adv-x="707" 
d="M480 404c116 -12 205 -74 205 -200c0 -127 -107 -216 -246 -216c-99 0 -160 31 -193 66l72 103c31 -25 69 -43 121 -43c62 0 107 32 107 91c0 69 -65 90 -171 90h-54v107l120 135c-21 10 -45 15 -74 15c-103 0 -157 -64 -157 -157v-395h-144v400c0 164 98 278 301 278
c107 0 201 -33 256 -112z" />
    <glyph glyph-name="Tbar" unicode="&#x166;" horiz-adv-x="582" 
d="M557 542h-194v-207h134v-72h-134v-263h-143v263h-133v72h133v207h-195v125h532v-125z" />
    <glyph glyph-name="Tcaron" unicode="&#x164;" horiz-adv-x="582" 
d="M234 723l-94 144h78l74 -90l70 90h78l-92 -144h-114zM220 0v542h-195v125h532v-125h-194v-542h-143z" />
    <glyph glyph-name="uni0162" unicode="&#x162;" horiz-adv-x="582" 
d="M220 0v542h-195v125h532v-125h-194v-542h-143zM280 -288l-44 35c27 15 57 50 63 79c-2 -1 -9 -2 -15 -2c-30 0 -53 23 -53 56c0 35 27 63 61 63c37 0 71 -29 71 -81c0 -61 -34 -115 -83 -150z" />
    <glyph glyph-name="uni021A" unicode="&#x21a;" horiz-adv-x="582" 
d="M220 0v542h-195v125h532v-125h-194v-542h-143zM280 -288l-44 35c27 15 57 50 63 79c-2 -1 -9 -2 -15 -2c-30 0 -53 23 -53 56c0 35 27 63 61 63c37 0 71 -29 71 -81c0 -61 -34 -115 -83 -150z" />
    <glyph glyph-name="uni1E6A" unicode="&#x1e6a;" horiz-adv-x="582" 
d="M224 789c0 37 31 68 68 68s67 -31 67 -68c0 -38 -30 -68 -67 -68s-68 30 -68 68zM220 0v542h-195v125h532v-125h-194v-542h-143z" />
    <glyph glyph-name="Uacute" unicode="&#xda;" horiz-adv-x="728" 
d="M406 723h-89l134 144h117zM66 266v401h144v-396c0 -93 51 -157 155 -157c102 0 153 64 153 157v396h144v-400c0 -166 -95 -279 -297 -279c-204 0 -299 114 -299 278z" />
    <glyph glyph-name="Ubreve" unicode="&#x16c;" horiz-adv-x="728" 
d="M365 720c-71 0 -135 34 -176 88l56 46c27 -37 68 -62 120 -62c50 0 91 24 119 62l56 -46c-40 -54 -103 -88 -175 -88zM66 266v401h144v-396c0 -93 51 -157 155 -157c102 0 153 64 153 157v396h144v-400c0 -166 -95 -279 -297 -279c-204 0 -299 114 -299 278z" />
    <glyph glyph-name="Ucircumflex" unicode="&#xdb;" horiz-adv-x="728" 
d="M438 723l-73 89l-71 -89h-78l92 144h114l94 -144h-78zM66 266v401h144v-396c0 -93 51 -157 155 -157c102 0 153 64 153 157v396h144v-400c0 -166 -95 -279 -297 -279c-204 0 -299 114 -299 278z" />
    <glyph glyph-name="Udieresis" unicode="&#xdc;" horiz-adv-x="728" 
d="M260 722c-38 0 -68 30 -68 68c0 37 30 67 68 67c37 0 67 -30 67 -67c0 -38 -30 -68 -67 -68zM471 722c-37 0 -68 30 -68 68c0 37 31 67 68 67s68 -30 68 -67c0 -38 -31 -68 -68 -68zM66 266v401h144v-396c0 -93 51 -157 155 -157c102 0 153 64 153 157v396h144v-400
c0 -166 -95 -279 -297 -279c-204 0 -299 114 -299 278z" />
    <glyph glyph-name="Ugrave" unicode="&#xd9;" horiz-adv-x="728" 
d="M321 723l-162 144h117l134 -144h-89zM66 266v401h144v-396c0 -93 51 -157 155 -157c102 0 153 64 153 157v396h144v-400c0 -166 -95 -279 -297 -279c-204 0 -299 114 -299 278z" />
    <glyph glyph-name="Uhungarumlaut" unicode="&#x170;" horiz-adv-x="728" 
d="M325 723h-74l87 144h102zM474 723h-74l87 144h102zM66 266v401h144v-396c0 -93 51 -157 155 -157c102 0 153 64 153 157v396h144v-400c0 -166 -95 -279 -297 -279c-204 0 -299 114 -299 278z" />
    <glyph glyph-name="Umacron" unicode="&#x16a;" horiz-adv-x="728" 
d="M197 729v72h335v-72h-335zM66 266v401h144v-396c0 -93 51 -157 155 -157c102 0 153 64 153 157v396h144v-400c0 -166 -95 -279 -297 -279c-204 0 -299 114 -299 278z" />
    <glyph glyph-name="Uogonek" unicode="&#x172;" horiz-adv-x="728" 
d="M66 266v401h144v-396c0 -93 51 -157 155 -157c102 0 153 64 153 157v396h144v-400c0 -129 -56 -220 -164 -258c-70 -25 -100 -54 -100 -85c0 -20 16 -31 34 -31c9 0 19 2 28 7l25 -68c-24 -13 -52 -18 -88 -18c-55 0 -114 23 -114 80c0 40 35 73 85 94h-3
c-204 0 -299 114 -299 278z" />
    <glyph glyph-name="Uring" unicode="&#x16e;" horiz-adv-x="728" 
d="M261 803c0 57 48 106 105 106c58 0 104 -49 104 -106c0 -58 -46 -105 -104 -105c-57 0 -105 47 -105 105zM412 803c0 26 -20 47 -46 47c-25 0 -47 -21 -47 -47c0 -25 22 -47 47 -47c26 0 46 22 46 47zM66 266v401h144v-396c0 -93 51 -157 155 -157c102 0 153 64 153 157
v396h144v-400c0 -166 -95 -279 -297 -279c-204 0 -299 114 -299 278z" />
    <glyph glyph-name="Utilde" unicode="&#x168;" horiz-adv-x="728" 
d="M345 762c-13 14 -24 27 -40 27c-20 0 -36 -19 -36 -62h-67c0 85 38 134 108 134c38 0 58 -22 75 -41c14 -14 25 -26 41 -26c20 0 36 19 36 61h67c0 -85 -37 -134 -107 -134c-39 0 -60 22 -77 41zM66 266v401h144v-396c0 -93 51 -157 155 -157c102 0 153 64 153 157v396
h144v-400c0 -166 -95 -279 -297 -279c-204 0 -299 114 -299 278z" />
    <glyph glyph-name="uni1EE4" unicode="&#x1ee4;" horiz-adv-x="728" 
d="M66 266v401h144v-396c0 -93 51 -157 155 -157c102 0 153 64 153 157v396h144v-400c0 -166 -95 -279 -297 -279c-204 0 -299 114 -299 278zM297 -119c0 37 31 68 68 68s67 -31 67 -68c0 -38 -30 -68 -67 -68s-68 30 -68 68z" />
    <glyph glyph-name="Uhorn" unicode="&#x1af;" horiz-adv-x="728" 
d="M772 726c0 -59 -38 -122 -110 -155v-304c0 -166 -95 -279 -297 -279c-204 0 -299 114 -299 278v401h144v-396c0 -93 51 -157 155 -157c102 0 153 64 153 157v396h144v-43c26 16 49 45 54 72c-3 -2 -9 -3 -14 -3c-28 0 -48 21 -48 51c0 31 24 56 55 56c33 0 63 -27 63 -74
z" />
    <glyph glyph-name="uni1EE6" unicode="&#x1ee6;" horiz-adv-x="728" 
d="M255 810c16 47 55 73 103 73c54 0 104 -27 104 -93c0 -27 -8 -45 -21 -66h-70c17 20 25 41 25 63c0 29 -17 40 -38 40c-22 0 -36 -15 -44 -36zM66 266v401h144v-396c0 -93 51 -157 155 -157c102 0 153 64 153 157v396h144v-400c0 -166 -95 -279 -297 -279
c-204 0 -299 114 -299 278z" />
    <glyph glyph-name="uni1EE8" unicode="&#x1ee8;" horiz-adv-x="728" 
d="M568 867l-162 -144h-89l134 144h117zM772 726c0 -59 -38 -122 -110 -155v-304c0 -166 -95 -279 -297 -279c-204 0 -299 114 -299 278v401h144v-396c0 -93 51 -157 155 -157c102 0 153 64 153 157v396h144v-43c26 16 49 45 54 72c-3 -2 -9 -3 -14 -3c-28 0 -48 21 -48 51
c0 31 24 56 55 56c33 0 63 -27 63 -74z" />
    <glyph glyph-name="uni1EEA" unicode="&#x1eea;" horiz-adv-x="728" 
d="M410 723h-89l-162 144h117zM772 726c0 -59 -38 -122 -110 -155v-304c0 -166 -95 -279 -297 -279c-204 0 -299 114 -299 278v401h144v-396c0 -93 51 -157 155 -157c102 0 153 64 153 157v396h144v-43c26 16 49 45 54 72c-3 -2 -9 -3 -14 -3c-28 0 -48 21 -48 51
c0 31 24 56 55 56c33 0 63 -27 63 -74z" />
    <glyph glyph-name="uni1EEC" unicode="&#x1eec;" horiz-adv-x="728" 
d="M358 827c-22 0 -36 -15 -44 -36l-59 19c16 47 55 73 103 73c54 0 104 -27 104 -93c0 -27 -8 -45 -21 -66h-70c17 20 25 41 25 63c0 29 -17 40 -38 40zM772 726c0 -59 -38 -122 -110 -155v-304c0 -166 -95 -279 -297 -279c-204 0 -299 114 -299 278v401h144v-396
c0 -93 51 -157 155 -157c102 0 153 64 153 157v396h144v-43c26 16 49 45 54 72c-3 -2 -9 -3 -14 -3c-28 0 -48 21 -48 51c0 31 24 56 55 56c33 0 63 -27 63 -74z" />
    <glyph glyph-name="uni1EEE" unicode="&#x1eee;" horiz-adv-x="728" 
d="M305 789c-20 0 -36 -19 -36 -62h-67c0 85 38 134 108 134c38 0 58 -22 75 -41c14 -14 25 -26 41 -26c20 0 36 19 36 61h67c0 -85 -37 -134 -107 -134c-39 0 -60 22 -77 41c-13 14 -24 27 -40 27zM772 726c0 -59 -38 -122 -110 -155v-304c0 -166 -95 -279 -297 -279
c-204 0 -299 114 -299 278v401h144v-396c0 -93 51 -157 155 -157c102 0 153 64 153 157v396h144v-43c26 16 49 45 54 72c-3 -2 -9 -3 -14 -3c-28 0 -48 21 -48 51c0 31 24 56 55 56c33 0 63 -27 63 -74z" />
    <glyph glyph-name="uni1EF0" unicode="&#x1ef0;" horiz-adv-x="728" 
d="M772 726c0 -59 -38 -122 -110 -155v-304c0 -166 -95 -279 -297 -279c-204 0 -299 114 -299 278v401h144v-396c0 -93 51 -157 155 -157c102 0 153 64 153 157v396h144v-43c26 16 49 45 54 72c-3 -2 -9 -3 -14 -3c-28 0 -48 21 -48 51c0 31 24 56 55 56c33 0 63 -27 63 -74
zM365 -51c37 0 67 -31 67 -68c0 -38 -30 -68 -67 -68s-68 30 -68 68c0 37 31 68 68 68z" />
    <glyph glyph-name="Wacute" unicode="&#x1e82;" horiz-adv-x="918" 
d="M500 723h-89l134 144h117zM576 0l-117 458l-116 -458h-151l-191 667h159l117 -482l127 482h111l126 -482l116 482h160l-190 -667h-151z" />
    <glyph glyph-name="Wcircumflex" unicode="&#x174;" horiz-adv-x="918" 
d="M532 723l-73 89l-71 -89h-78l92 144h114l94 -144h-78zM576 0l-117 458l-116 -458h-151l-191 667h159l117 -482l127 482h111l126 -482l116 482h160l-190 -667h-151z" />
    <glyph glyph-name="Wdieresis" unicode="&#x1e84;" horiz-adv-x="918" 
d="M354 722c-38 0 -68 30 -68 68c0 37 30 67 68 67c37 0 67 -30 67 -67c0 -38 -30 -68 -67 -68zM565 722c-37 0 -68 30 -68 68c0 37 31 67 68 67s68 -30 68 -67c0 -38 -31 -68 -68 -68zM576 0l-117 458l-116 -458h-151l-191 667h159l117 -482l127 482h111l126 -482l116 482
h160l-190 -667h-151z" />
    <glyph glyph-name="Wgrave" unicode="&#x1e80;" horiz-adv-x="918" 
d="M415 723l-162 144h117l134 -144h-89zM576 0l-117 458l-116 -458h-151l-191 667h159l117 -482l127 482h111l126 -482l116 482h160l-190 -667h-151z" />
    <glyph glyph-name="Yacute" unicode="&#xdd;" horiz-adv-x="645" 
d="M363 723h-89l134 144h117zM252 0v273l-257 394h162l166 -268l164 268h162l-255 -394v-273h-142z" />
    <glyph glyph-name="Ycircumflex" unicode="&#x176;" horiz-adv-x="645" 
d="M395 723l-73 89l-71 -89h-78l92 144h114l94 -144h-78zM252 0v273l-257 394h162l166 -268l164 268h162l-255 -394v-273h-142z" />
    <glyph glyph-name="Ydieresis" unicode="&#x178;" horiz-adv-x="645" 
d="M217 722c-38 0 -68 30 -68 68c0 37 30 67 68 67c37 0 67 -30 67 -67c0 -38 -30 -68 -67 -68zM428 722c-37 0 -68 30 -68 68c0 37 31 67 68 67s68 -30 68 -67c0 -38 -31 -68 -68 -68zM252 0v273l-257 394h162l166 -268l164 268h162l-255 -394v-273h-142z" />
    <glyph glyph-name="Ygrave" unicode="&#x1ef2;" horiz-adv-x="645" 
d="M278 723l-162 144h117l134 -144h-89zM252 0v273l-257 394h162l166 -268l164 268h162l-255 -394v-273h-142z" />
    <glyph glyph-name="uni0232" unicode="&#x232;" horiz-adv-x="645" 
d="M154 729v72h335v-72h-335zM252 0v273l-257 394h162l166 -268l164 268h162l-255 -394v-273h-142z" />
    <glyph glyph-name="uni1EF4" unicode="&#x1ef4;" horiz-adv-x="645" 
d="M252 0v273l-257 394h162l166 -268l164 268h162l-255 -394v-273h-142zM255 -119c0 37 31 68 68 68s67 -31 67 -68c0 -38 -30 -68 -67 -68s-68 30 -68 68z" />
    <glyph glyph-name="uni1EF6" unicode="&#x1ef6;" horiz-adv-x="645" 
d="M212 810c16 47 55 73 103 73c54 0 104 -27 104 -93c0 -27 -8 -45 -21 -66h-70c17 20 25 41 25 63c0 29 -17 40 -38 40c-22 0 -36 -15 -44 -36zM252 0v273l-257 394h162l166 -268l164 268h162l-255 -394v-273h-142z" />
    <glyph glyph-name="uni1EF8" unicode="&#x1ef8;" horiz-adv-x="645" 
d="M302 762c-13 14 -24 27 -40 27c-20 0 -36 -19 -36 -62h-67c0 85 38 134 108 134c38 0 58 -22 75 -41c14 -14 25 -26 41 -26c20 0 36 19 36 61h67c0 -85 -37 -134 -107 -134c-39 0 -60 22 -77 41zM252 0v273l-257 394h162l166 -268l164 268h162l-255 -394v-273h-142z" />
    <glyph glyph-name="Zacute" unicode="&#x179;" horiz-adv-x="592" 
d="M338 723h-89l134 144h117zM42 0v115l315 427h-315v125h501v-114l-315 -428h322v-125h-508z" />
    <glyph glyph-name="Zcaron" unicode="&#x17d;" horiz-adv-x="592" 
d="M239 723l-94 144h78l74 -90l70 90h78l-92 -144h-114zM42 0v115l315 427h-315v125h501v-114l-315 -428h322v-125h-508z" />
    <glyph glyph-name="Zdotaccent" unicode="&#x17b;" horiz-adv-x="592" 
d="M229 789c0 37 31 68 68 68s67 -31 67 -68c0 -38 -30 -68 -67 -68s-68 30 -68 68zM42 0v115l315 427h-315v125h501v-114l-315 -428h322v-125h-508z" />
    <glyph glyph-name="Eth" unicode="&#xd0;" horiz-adv-x="742" 
d="M353 667c209 0 355 -133 355 -334s-146 -333 -354 -333h-264v276h-82v108h82v283h263zM353 125c132 0 209 95 209 208c0 118 -72 209 -208 209h-121v-158h149v-108h-149v-151h120z" />
    <glyph glyph-name="Thorn" unicode="&#xde;" horiz-adv-x="624" 
d="M66 0v667h142v-108h170c145 0 224 -99 224 -216c0 -116 -80 -213 -224 -213h-170v-130h-142zM457 344c0 55 -41 93 -101 93h-148v-184h148c60 0 101 36 101 91z" />
    <glyph glyph-name="aacute" unicode="&#xe1;" horiz-adv-x="543" 
d="M312 556h-89l134 144h117zM353 0v50c-33 -39 -90 -62 -153 -62c-77 0 -168 52 -168 160c0 113 91 154 168 154c64 0 121 -20 153 -59v67c0 49 -42 81 -106 81c-52 0 -100 -19 -141 -57l-48 85c59 52 135 76 211 76c110 0 211 -44 211 -183v-312h-127zM353 116v60
c-21 28 -61 42 -102 42c-50 0 -91 -27 -91 -73c0 -45 41 -71 91 -71c41 0 81 14 102 42z" />
    <glyph glyph-name="abreve" unicode="&#x103;" horiz-adv-x="543" 
d="M271 553c-71 0 -135 34 -176 88l56 46c27 -37 68 -62 120 -62c50 0 91 24 119 62l56 -46c-40 -54 -103 -88 -175 -88zM353 0v50c-33 -39 -90 -62 -153 -62c-77 0 -168 52 -168 160c0 113 91 154 168 154c64 0 121 -20 153 -59v67c0 49 -42 81 -106 81
c-52 0 -100 -19 -141 -57l-48 85c59 52 135 76 211 76c110 0 211 -44 211 -183v-312h-127zM353 116v60c-21 28 -61 42 -102 42c-50 0 -91 -27 -91 -73c0 -45 41 -71 91 -71c41 0 81 14 102 42z" />
    <glyph glyph-name="acircumflex" unicode="&#xe2;" horiz-adv-x="543" 
d="M344 556l-73 89l-71 -89h-78l92 144h114l94 -144h-78zM353 0v50c-33 -39 -90 -62 -153 -62c-77 0 -168 52 -168 160c0 113 91 154 168 154c64 0 121 -20 153 -59v67c0 49 -42 81 -106 81c-52 0 -100 -19 -141 -57l-48 85c59 52 135 76 211 76c110 0 211 -44 211 -183
v-312h-127zM353 116v60c-21 28 -61 42 -102 42c-50 0 -91 -27 -91 -73c0 -45 41 -71 91 -71c41 0 81 14 102 42z" />
    <glyph glyph-name="adieresis" unicode="&#xe4;" horiz-adv-x="543" 
d="M166 555c-38 0 -68 30 -68 68c0 37 30 67 68 67c37 0 67 -30 67 -67c0 -38 -30 -68 -67 -68zM377 555c-37 0 -68 30 -68 68c0 37 31 67 68 67s68 -30 68 -67c0 -38 -31 -68 -68 -68zM353 0v50c-33 -39 -90 -62 -153 -62c-77 0 -168 52 -168 160c0 113 91 154 168 154
c64 0 121 -20 153 -59v67c0 49 -42 81 -106 81c-52 0 -100 -19 -141 -57l-48 85c59 52 135 76 211 76c110 0 211 -44 211 -183v-312h-127zM353 116v60c-21 28 -61 42 -102 42c-50 0 -91 -27 -91 -73c0 -45 41 -71 91 -71c41 0 81 14 102 42z" />
    <glyph glyph-name="agrave" unicode="&#xe0;" horiz-adv-x="543" 
d="M227 556l-162 144h117l134 -144h-89zM353 0v50c-33 -39 -90 -62 -153 -62c-77 0 -168 52 -168 160c0 113 91 154 168 154c64 0 121 -20 153 -59v67c0 49 -42 81 -106 81c-52 0 -100 -19 -141 -57l-48 85c59 52 135 76 211 76c110 0 211 -44 211 -183v-312h-127zM353 116
v60c-21 28 -61 42 -102 42c-50 0 -91 -27 -91 -73c0 -45 41 -71 91 -71c41 0 81 14 102 42z" />
    <glyph glyph-name="amacron" unicode="&#x101;" horiz-adv-x="543" 
d="M103 562v72h335v-72h-335zM353 0v50c-33 -39 -90 -62 -153 -62c-77 0 -168 52 -168 160c0 113 91 154 168 154c64 0 121 -20 153 -59v67c0 49 -42 81 -106 81c-52 0 -100 -19 -141 -57l-48 85c59 52 135 76 211 76c110 0 211 -44 211 -183v-312h-127zM353 116v60
c-21 28 -61 42 -102 42c-50 0 -91 -27 -91 -73c0 -45 41 -71 91 -71c41 0 81 14 102 42z" />
    <glyph glyph-name="aogonek" unicode="&#x105;" horiz-adv-x="543" 
d="M480 0c-60 -18 -88 -45 -88 -76c0 -20 16 -31 34 -31c9 0 19 2 29 7l24 -68c-23 -13 -52 -18 -88 -18c-55 0 -113 23 -113 80c0 46 44 81 108 106h-33v50c-33 -39 -90 -62 -153 -62c-77 0 -168 52 -168 160c0 113 91 154 168 154c64 0 121 -20 153 -59v67
c0 49 -42 81 -106 81c-52 0 -100 -19 -141 -57l-48 85c59 52 135 76 211 76c110 0 211 -44 211 -183v-312zM353 116v60c-21 28 -61 42 -102 42c-50 0 -91 -27 -91 -73c0 -45 41 -71 91 -71c41 0 81 14 102 42z" />
    <glyph glyph-name="aring" unicode="&#xe5;" horiz-adv-x="543" 
d="M167 636c0 57 48 106 105 106c58 0 104 -49 104 -106c0 -58 -46 -105 -104 -105c-57 0 -105 47 -105 105zM318 636c0 26 -20 47 -46 47c-25 0 -47 -21 -47 -47c0 -25 22 -47 47 -47c26 0 46 22 46 47zM353 0v50c-33 -39 -90 -62 -153 -62c-77 0 -168 52 -168 160
c0 113 91 154 168 154c64 0 121 -20 153 -59v67c0 49 -42 81 -106 81c-52 0 -100 -19 -141 -57l-48 85c59 52 135 76 211 76c110 0 211 -44 211 -183v-312h-127zM353 116v60c-21 28 -61 42 -102 42c-50 0 -91 -27 -91 -73c0 -45 41 -71 91 -71c41 0 81 14 102 42z" />
    <glyph glyph-name="aringacute" unicode="&#x1fb;" horiz-adv-x="543" 
d="M312 768h-89l134 144h117zM167 636c0 57 48 106 105 106c58 0 104 -49 104 -106c0 -58 -46 -105 -104 -105c-57 0 -105 47 -105 105zM318 636c0 26 -20 47 -46 47c-25 0 -47 -21 -47 -47c0 -25 22 -47 47 -47c26 0 46 22 46 47zM353 0v50c-33 -39 -90 -62 -153 -62
c-77 0 -168 52 -168 160c0 113 91 154 168 154c64 0 121 -20 153 -59v67c0 49 -42 81 -106 81c-52 0 -100 -19 -141 -57l-48 85c59 52 135 76 211 76c110 0 211 -44 211 -183v-312h-127zM353 116v60c-21 28 -61 42 -102 42c-50 0 -91 -27 -91 -73c0 -45 41 -71 91 -71
c41 0 81 14 102 42z" />
    <glyph glyph-name="atilde" unicode="&#xe3;" horiz-adv-x="543" 
d="M251 595c-13 14 -24 27 -40 27c-20 0 -36 -19 -36 -62h-67c0 85 38 134 108 134c38 0 58 -22 75 -41c14 -14 25 -26 41 -26c20 0 36 19 36 61h67c0 -85 -37 -134 -107 -134c-39 0 -60 22 -77 41zM353 0v50c-33 -39 -90 -62 -153 -62c-77 0 -168 52 -168 160
c0 113 91 154 168 154c64 0 121 -20 153 -59v67c0 49 -42 81 -106 81c-52 0 -100 -19 -141 -57l-48 85c59 52 135 76 211 76c110 0 211 -44 211 -183v-312h-127zM353 116v60c-21 28 -61 42 -102 42c-50 0 -91 -27 -91 -73c0 -45 41 -71 91 -71c41 0 81 14 102 42z" />
    <glyph glyph-name="uni1EA1" unicode="&#x1ea1;" horiz-adv-x="543" 
d="M353 0v50c-33 -39 -90 -62 -153 -62c-77 0 -168 52 -168 160c0 113 91 154 168 154c64 0 121 -20 153 -59v67c0 49 -42 81 -106 81c-52 0 -100 -19 -141 -57l-48 85c59 52 135 76 211 76c110 0 211 -44 211 -183v-312h-127zM353 116v60c-21 28 -61 42 -102 42
c-50 0 -91 -27 -91 -73c0 -45 41 -71 91 -71c41 0 81 14 102 42zM203 -119c0 37 31 68 68 68s67 -31 67 -68c0 -38 -30 -68 -67 -68s-68 30 -68 68z" />
    <glyph glyph-name="uni1EA3" unicode="&#x1ea3;" horiz-adv-x="543" 
d="M161 643c16 47 55 73 103 73c54 0 104 -27 104 -93c0 -27 -8 -45 -21 -66h-70c17 20 25 41 25 63c0 29 -17 40 -38 40c-22 0 -36 -15 -44 -36zM353 0v50c-33 -39 -90 -62 -153 -62c-77 0 -168 52 -168 160c0 113 91 154 168 154c64 0 121 -20 153 -59v67
c0 49 -42 81 -106 81c-52 0 -100 -19 -141 -57l-48 85c59 52 135 76 211 76c110 0 211 -44 211 -183v-312h-127zM353 116v60c-21 28 -61 42 -102 42c-50 0 -91 -27 -91 -73c0 -45 41 -71 91 -71c41 0 81 14 102 42z" />
    <glyph glyph-name="uni1EA5" unicode="&#x1ea5;" horiz-adv-x="543" 
d="M481 656h-89l134 144h117zM344 556l-73 89l-71 -89h-78l92 144h114l94 -144h-78zM353 0v50c-33 -39 -90 -62 -153 -62c-77 0 -168 52 -168 160c0 113 91 154 168 154c64 0 121 -20 153 -59v67c0 49 -42 81 -106 81c-52 0 -100 -19 -141 -57l-48 85c59 52 135 76 211 76
c110 0 211 -44 211 -183v-312h-127zM353 116v60c-21 28 -61 42 -102 42c-50 0 -91 -27 -91 -73c0 -45 41 -71 91 -71c41 0 81 14 102 42z" />
    <glyph glyph-name="uni1EAD" unicode="&#x1ead;" horiz-adv-x="543" 
d="M344 556l-73 89l-71 -89h-78l92 144h114l94 -144h-78zM353 0v50c-33 -39 -90 -62 -153 -62c-77 0 -168 52 -168 160c0 113 91 154 168 154c64 0 121 -20 153 -59v67c0 49 -42 81 -106 81c-52 0 -100 -19 -141 -57l-48 85c59 52 135 76 211 76c110 0 211 -44 211 -183
v-312h-127zM353 116v60c-21 28 -61 42 -102 42c-50 0 -91 -27 -91 -73c0 -45 41 -71 91 -71c41 0 81 14 102 42zM203 -119c0 37 31 68 68 68s67 -31 67 -68c0 -38 -30 -68 -67 -68s-68 30 -68 68z" />
    <glyph glyph-name="uni1EA7" unicode="&#x1ea7;" horiz-adv-x="543" 
d="M66 656l-162 144h117l134 -144h-89zM344 556l-73 89l-71 -89h-78l92 144h114l94 -144h-78zM353 0v50c-33 -39 -90 -62 -153 -62c-77 0 -168 52 -168 160c0 113 91 154 168 154c64 0 121 -20 153 -59v67c0 49 -42 81 -106 81c-52 0 -100 -19 -141 -57l-48 85
c59 52 135 76 211 76c110 0 211 -44 211 -183v-312h-127zM353 116v60c-21 28 -61 42 -102 42c-50 0 -91 -27 -91 -73c0 -45 41 -71 91 -71c41 0 81 14 102 42z" />
    <glyph glyph-name="uni1EA9" unicode="&#x1ea9;" horiz-adv-x="543" 
d="M276 742c16 47 55 73 103 73c54 0 104 -27 104 -93c0 -27 -8 -45 -21 -66h-70c17 20 25 41 25 63c0 29 -17 40 -38 40c-22 0 -36 -15 -44 -36zM344 556l-73 89l-71 -89h-78l92 144h114l94 -144h-78zM353 0v50c-33 -39 -90 -62 -153 -62c-77 0 -168 52 -168 160
c0 113 91 154 168 154c64 0 121 -20 153 -59v67c0 49 -42 81 -106 81c-52 0 -100 -19 -141 -57l-48 85c59 52 135 76 211 76c110 0 211 -44 211 -183v-312h-127zM353 116v60c-21 28 -61 42 -102 42c-50 0 -91 -27 -91 -73c0 -45 41 -71 91 -71c41 0 81 14 102 42z" />
    <glyph glyph-name="uni1EAF" unicode="&#x1eaf;" horiz-adv-x="543" 
d="M312 693h-89l134 144h117zM271 553c-71 0 -135 34 -176 88l56 46c27 -37 68 -62 120 -62c50 0 91 24 119 62l56 -46c-40 -54 -103 -88 -175 -88zM353 0v50c-33 -39 -90 -62 -153 -62c-77 0 -168 52 -168 160c0 113 91 154 168 154c64 0 121 -20 153 -59v67
c0 49 -42 81 -106 81c-52 0 -100 -19 -141 -57l-48 85c59 52 135 76 211 76c110 0 211 -44 211 -183v-312h-127zM353 116v60c-21 28 -61 42 -102 42c-50 0 -91 -27 -91 -73c0 -45 41 -71 91 -71c41 0 81 14 102 42z" />
    <glyph glyph-name="uni1EAB" unicode="&#x1eab;" horiz-adv-x="543" 
d="M251 757c-13 14 -24 27 -40 27c-20 0 -36 -19 -36 -62h-67c0 85 38 134 108 134c38 0 58 -22 75 -41c14 -14 25 -26 41 -26c20 0 36 19 36 61h67c0 -85 -37 -134 -107 -134c-39 0 -60 22 -77 41zM344 556l-73 89l-71 -89h-78l92 144h114l94 -144h-78zM353 0v50
c-33 -39 -90 -62 -153 -62c-77 0 -168 52 -168 160c0 113 91 154 168 154c64 0 121 -20 153 -59v67c0 49 -42 81 -106 81c-52 0 -100 -19 -141 -57l-48 85c59 52 135 76 211 76c110 0 211 -44 211 -183v-312h-127zM353 116v60c-21 28 -61 42 -102 42c-50 0 -91 -27 -91 -73
c0 -45 41 -71 91 -71c41 0 81 14 102 42z" />
    <glyph glyph-name="uni1EB1" unicode="&#x1eb1;" horiz-adv-x="543" 
d="M227 693l-162 144h117l134 -144h-89zM271 553c-71 0 -135 34 -176 88l56 46c27 -37 68 -62 120 -62c50 0 91 24 119 62l56 -46c-40 -54 -103 -88 -175 -88zM353 0v50c-33 -39 -90 -62 -153 -62c-77 0 -168 52 -168 160c0 113 91 154 168 154c64 0 121 -20 153 -59v67
c0 49 -42 81 -106 81c-52 0 -100 -19 -141 -57l-48 85c59 52 135 76 211 76c110 0 211 -44 211 -183v-312h-127zM353 116v60c-21 28 -61 42 -102 42c-50 0 -91 -27 -91 -73c0 -45 41 -71 91 -71c41 0 81 14 102 42z" />
    <glyph glyph-name="uni1EB3" unicode="&#x1eb3;" horiz-adv-x="543" 
d="M161 780c16 47 55 73 103 73c54 0 104 -27 104 -93c0 -27 -8 -45 -21 -66h-70c17 20 25 41 25 63c0 29 -17 40 -38 40c-22 0 -36 -15 -44 -36zM271 553c-71 0 -135 34 -176 88l56 46c27 -37 68 -62 120 -62c50 0 91 24 119 62l56 -46c-40 -54 -103 -88 -175 -88zM353 0
v50c-33 -39 -90 -62 -153 -62c-77 0 -168 52 -168 160c0 113 91 154 168 154c64 0 121 -20 153 -59v67c0 49 -42 81 -106 81c-52 0 -100 -19 -141 -57l-48 85c59 52 135 76 211 76c110 0 211 -44 211 -183v-312h-127zM353 116v60c-21 28 -61 42 -102 42
c-50 0 -91 -27 -91 -73c0 -45 41 -71 91 -71c41 0 81 14 102 42z" />
    <glyph glyph-name="uni1EB5" unicode="&#x1eb5;" horiz-adv-x="543" 
d="M251 732c-13 14 -24 27 -40 27c-20 0 -36 -19 -36 -62h-67c0 85 38 134 108 134c38 0 58 -22 75 -41c14 -14 25 -26 41 -26c20 0 36 19 36 61h67c0 -85 -37 -134 -107 -134c-39 0 -60 22 -77 41zM271 553c-71 0 -135 34 -176 88l56 46c27 -37 68 -62 120 -62
c50 0 91 24 119 62l56 -46c-40 -54 -103 -88 -175 -88zM353 0v50c-33 -39 -90 -62 -153 -62c-77 0 -168 52 -168 160c0 113 91 154 168 154c64 0 121 -20 153 -59v67c0 49 -42 81 -106 81c-52 0 -100 -19 -141 -57l-48 85c59 52 135 76 211 76c110 0 211 -44 211 -183v-312
h-127zM353 116v60c-21 28 -61 42 -102 42c-50 0 -91 -27 -91 -73c0 -45 41 -71 91 -71c41 0 81 14 102 42z" />
    <glyph glyph-name="uni1EB7" unicode="&#x1eb7;" horiz-adv-x="543" 
d="M271 553c-71 0 -135 34 -176 88l56 46c27 -37 68 -62 120 -62c50 0 91 24 119 62l56 -46c-40 -54 -103 -88 -175 -88zM353 0v50c-33 -39 -90 -62 -153 -62c-77 0 -168 52 -168 160c0 113 91 154 168 154c64 0 121 -20 153 -59v67c0 49 -42 81 -106 81
c-52 0 -100 -19 -141 -57l-48 85c59 52 135 76 211 76c110 0 211 -44 211 -183v-312h-127zM353 116v60c-21 28 -61 42 -102 42c-50 0 -91 -27 -91 -73c0 -45 41 -71 91 -71c41 0 81 14 102 42zM203 -119c0 37 31 68 68 68s67 -31 67 -68c0 -38 -30 -68 -67 -68
s-68 30 -68 68z" />
    <glyph glyph-name="ae" unicode="&#xe6;" horiz-adv-x="870" 
d="M500 201c9 -59 53 -109 130 -109c42 0 90 17 119 47l57 -84c-48 -45 -124 -67 -185 -67c-78 0 -142 25 -186 88c-40 -51 -115 -88 -201 -88c-106 0 -202 50 -202 158c0 106 81 158 175 158c66 0 128 -20 165 -58v65c0 48 -46 80 -115 80c-55 0 -106 -19 -151 -57l-48 85
c59 52 137 76 214 76c85 0 142 -30 169 -83c35 46 84 83 175 83c134 0 225 -108 225 -266v-28h-341zM718 287c-2 46 -32 107 -110 107c-72 0 -105 -59 -110 -107h220zM372 175c-24 27 -68 43 -113 43c-55 0 -99 -22 -99 -65c0 -44 44 -65 96 -65c64 0 116 43 116 81v6z" />
    <glyph glyph-name="aeacute" unicode="&#x1fd;" horiz-adv-x="870" 
d="M478 556h-89l134 144h117zM500 201c9 -59 53 -109 130 -109c42 0 90 17 119 47l57 -84c-48 -45 -124 -67 -185 -67c-78 0 -142 25 -186 88c-40 -51 -115 -88 -201 -88c-106 0 -202 50 -202 158c0 106 81 158 175 158c66 0 128 -20 165 -58v65c0 48 -46 80 -115 80
c-55 0 -106 -19 -151 -57l-48 85c59 52 137 76 214 76c85 0 142 -30 169 -83c35 46 84 83 175 83c134 0 225 -108 225 -266v-28h-341zM718 287c-2 46 -32 107 -110 107c-72 0 -105 -59 -110 -107h220zM372 175c-24 27 -68 43 -113 43c-55 0 -99 -22 -99 -65
c0 -44 44 -65 96 -65c64 0 116 43 116 81v6z" />
    <glyph glyph-name="aacute.alt1" horiz-adv-x="586" 
d="M336 556h-89l134 144h117zM395 0v61c-38 -47 -91 -73 -149 -73c-122 0 -214 92 -214 253c0 158 91 254 214 254c57 0 111 -25 149 -74v62h128v-483h-128zM395 156v170c-22 32 -67 55 -110 55c-72 0 -122 -56 -122 -140c0 -83 50 -140 122 -140c43 0 88 23 110 55z" />
    <glyph glyph-name="abreve.alt1" horiz-adv-x="586" 
d="M295 553c-71 0 -135 34 -176 88l56 46c27 -37 68 -62 120 -62c50 0 91 24 119 62l56 -46c-40 -54 -103 -88 -175 -88zM395 0v61c-38 -47 -91 -73 -149 -73c-122 0 -214 92 -214 253c0 158 91 254 214 254c57 0 111 -25 149 -74v62h128v-483h-128zM395 156v170
c-22 32 -67 55 -110 55c-72 0 -122 -56 -122 -140c0 -83 50 -140 122 -140c43 0 88 23 110 55z" />
    <glyph glyph-name="acircumflex.alt1" horiz-adv-x="586" 
d="M368 556l-73 89l-71 -89h-78l92 144h114l94 -144h-78zM395 0v61c-38 -47 -91 -73 -149 -73c-122 0 -214 92 -214 253c0 158 91 254 214 254c57 0 111 -25 149 -74v62h128v-483h-128zM395 156v170c-22 32 -67 55 -110 55c-72 0 -122 -56 -122 -140c0 -83 50 -140 122 -140
c43 0 88 23 110 55z" />
    <glyph glyph-name="adieresis.alt1" horiz-adv-x="586" 
d="M190 555c-38 0 -68 30 -68 68c0 37 30 67 68 67c37 0 67 -30 67 -67c0 -38 -30 -68 -67 -68zM401 555c-37 0 -68 30 -68 68c0 37 31 67 68 67s68 -30 68 -67c0 -38 -31 -68 -68 -68zM395 0v61c-38 -47 -91 -73 -149 -73c-122 0 -214 92 -214 253c0 158 91 254 214 254
c57 0 111 -25 149 -74v62h128v-483h-128zM395 156v170c-22 32 -67 55 -110 55c-72 0 -122 -56 -122 -140c0 -83 50 -140 122 -140c43 0 88 23 110 55z" />
    <glyph glyph-name="agrave.alt1" horiz-adv-x="586" 
d="M251 556l-162 144h117l134 -144h-89zM395 0v61c-38 -47 -91 -73 -149 -73c-122 0 -214 92 -214 253c0 158 91 254 214 254c57 0 111 -25 149 -74v62h128v-483h-128zM395 156v170c-22 32 -67 55 -110 55c-72 0 -122 -56 -122 -140c0 -83 50 -140 122 -140
c43 0 88 23 110 55z" />
    <glyph glyph-name="amacron.alt1" horiz-adv-x="586" 
d="M127 562v72h335v-72h-335zM395 0v61c-38 -47 -91 -73 -149 -73c-122 0 -214 92 -214 253c0 158 91 254 214 254c57 0 111 -25 149 -74v62h128v-483h-128zM395 156v170c-22 32 -67 55 -110 55c-72 0 -122 -56 -122 -140c0 -83 50 -140 122 -140c43 0 88 23 110 55z" />
    <glyph glyph-name="aogonek.alt1" horiz-adv-x="586" 
d="M523 0c-60 -18 -88 -45 -88 -76c0 -20 16 -31 34 -31c9 0 19 2 29 7l24 -68c-23 -13 -52 -18 -88 -18c-55 0 -113 23 -113 80c0 46 44 81 108 106h-34v61c-38 -47 -91 -73 -149 -73c-122 0 -214 92 -214 253c0 158 91 254 214 254c57 0 111 -25 149 -74v62h128v-483z
M395 156v170c-22 32 -67 55 -110 55c-72 0 -122 -56 -122 -140c0 -83 50 -140 122 -140c43 0 88 23 110 55z" />
    <glyph glyph-name="aring.alt1" horiz-adv-x="586" 
d="M191 636c0 57 48 106 105 106c58 0 104 -49 104 -106c0 -58 -46 -105 -104 -105c-57 0 -105 47 -105 105zM342 636c0 26 -20 47 -46 47c-25 0 -47 -21 -47 -47c0 -25 22 -47 47 -47c26 0 46 22 46 47zM395 0v61c-38 -47 -91 -73 -149 -73c-122 0 -214 92 -214 253
c0 158 91 254 214 254c57 0 111 -25 149 -74v62h128v-483h-128zM395 156v170c-22 32 -67 55 -110 55c-72 0 -122 -56 -122 -140c0 -83 50 -140 122 -140c43 0 88 23 110 55z" />
    <glyph glyph-name="aringacute.alt1" horiz-adv-x="586" 
d="M336 768h-89l134 144h117zM191 636c0 57 48 106 105 106c58 0 104 -49 104 -106c0 -58 -46 -105 -104 -105c-57 0 -105 47 -105 105zM342 636c0 26 -20 47 -46 47c-25 0 -47 -21 -47 -47c0 -25 22 -47 47 -47c26 0 46 22 46 47zM395 0v61c-38 -47 -91 -73 -149 -73
c-122 0 -214 92 -214 253c0 158 91 254 214 254c57 0 111 -25 149 -74v62h128v-483h-128zM395 156v170c-22 32 -67 55 -110 55c-72 0 -122 -56 -122 -140c0 -83 50 -140 122 -140c43 0 88 23 110 55z" />
    <glyph glyph-name="atilde.alt1" horiz-adv-x="586" 
d="M275 595c-13 14 -24 27 -40 27c-20 0 -36 -19 -36 -62h-67c0 85 38 134 108 134c38 0 58 -22 75 -41c14 -14 25 -26 41 -26c20 0 36 19 36 61h67c0 -85 -37 -134 -107 -134c-39 0 -60 22 -77 41zM395 0v61c-38 -47 -91 -73 -149 -73c-122 0 -214 92 -214 253
c0 158 91 254 214 254c57 0 111 -25 149 -74v62h128v-483h-128zM395 156v170c-22 32 -67 55 -110 55c-72 0 -122 -56 -122 -140c0 -83 50 -140 122 -140c43 0 88 23 110 55z" />
    <glyph glyph-name="uni1EA1.alt1" horiz-adv-x="586" 
d="M395 0v61c-38 -47 -91 -73 -149 -73c-122 0 -214 92 -214 253c0 158 91 254 214 254c57 0 111 -25 149 -74v62h128v-483h-128zM395 156v170c-22 32 -67 55 -110 55c-72 0 -122 -56 -122 -140c0 -83 50 -140 122 -140c43 0 88 23 110 55zM227 -119c0 37 31 68 68 68
s67 -31 67 -68c0 -38 -30 -68 -67 -68s-68 30 -68 68z" />
    <glyph glyph-name="uni1EA3.alt1" horiz-adv-x="586" 
d="M185 643c16 47 55 73 103 73c54 0 104 -27 104 -93c0 -27 -8 -45 -21 -66h-70c17 20 25 41 25 63c0 29 -17 40 -38 40c-22 0 -36 -15 -44 -36zM395 0v61c-38 -47 -91 -73 -149 -73c-122 0 -214 92 -214 253c0 158 91 254 214 254c57 0 111 -25 149 -74v62h128v-483h-128z
M395 156v170c-22 32 -67 55 -110 55c-72 0 -122 -56 -122 -140c0 -83 50 -140 122 -140c43 0 88 23 110 55z" />
    <glyph glyph-name="uni1EA5.alt1" horiz-adv-x="586" 
d="M505 656h-89l134 144h117zM368 556l-73 89l-71 -89h-78l92 144h114l94 -144h-78zM395 0v61c-38 -47 -91 -73 -149 -73c-122 0 -214 92 -214 253c0 158 91 254 214 254c57 0 111 -25 149 -74v62h128v-483h-128zM395 156v170c-22 32 -67 55 -110 55
c-72 0 -122 -56 -122 -140c0 -83 50 -140 122 -140c43 0 88 23 110 55z" />
    <glyph glyph-name="uni1EAD.alt1" horiz-adv-x="586" 
d="M368 556l-73 89l-71 -89h-78l92 144h114l94 -144h-78zM395 0v61c-38 -47 -91 -73 -149 -73c-122 0 -214 92 -214 253c0 158 91 254 214 254c57 0 111 -25 149 -74v62h128v-483h-128zM395 156v170c-22 32 -67 55 -110 55c-72 0 -122 -56 -122 -140c0 -83 50 -140 122 -140
c43 0 88 23 110 55zM227 -119c0 37 31 68 68 68s67 -31 67 -68c0 -38 -30 -68 -67 -68s-68 30 -68 68z" />
    <glyph glyph-name="uni1EA7.alt1" horiz-adv-x="586" 
d="M90 656l-162 144h117l134 -144h-89zM368 556l-73 89l-71 -89h-78l92 144h114l94 -144h-78zM395 0v61c-38 -47 -91 -73 -149 -73c-122 0 -214 92 -214 253c0 158 91 254 214 254c57 0 111 -25 149 -74v62h128v-483h-128zM395 156v170c-22 32 -67 55 -110 55
c-72 0 -122 -56 -122 -140c0 -83 50 -140 122 -140c43 0 88 23 110 55z" />
    <glyph glyph-name="uni1EA9.alt1" horiz-adv-x="586" 
d="M300 742c16 47 55 73 103 73c54 0 104 -27 104 -93c0 -27 -8 -45 -21 -66h-70c17 20 25 41 25 63c0 29 -17 40 -38 40c-22 0 -36 -15 -44 -36zM368 556l-73 89l-71 -89h-78l92 144h114l94 -144h-78zM395 0v61c-38 -47 -91 -73 -149 -73c-122 0 -214 92 -214 253
c0 158 91 254 214 254c57 0 111 -25 149 -74v62h128v-483h-128zM395 156v170c-22 32 -67 55 -110 55c-72 0 -122 -56 -122 -140c0 -83 50 -140 122 -140c43 0 88 23 110 55z" />
    <glyph glyph-name="uni1EAF.alt1" horiz-adv-x="586" 
d="M336 693h-89l134 144h117zM295 553c-71 0 -135 34 -176 88l56 46c27 -37 68 -62 120 -62c50 0 91 24 119 62l56 -46c-40 -54 -103 -88 -175 -88zM395 0v61c-38 -47 -91 -73 -149 -73c-122 0 -214 92 -214 253c0 158 91 254 214 254c57 0 111 -25 149 -74v62h128v-483
h-128zM395 156v170c-22 32 -67 55 -110 55c-72 0 -122 -56 -122 -140c0 -83 50 -140 122 -140c43 0 88 23 110 55z" />
    <glyph glyph-name="uni1EAB.alt1" horiz-adv-x="586" 
d="M275 757c-13 14 -24 27 -40 27c-20 0 -36 -19 -36 -62h-67c0 85 38 134 108 134c38 0 58 -22 75 -41c14 -14 25 -26 41 -26c20 0 36 19 36 61h67c0 -85 -37 -134 -107 -134c-39 0 -60 22 -77 41zM368 556l-73 89l-71 -89h-78l92 144h114l94 -144h-78zM395 0v61
c-38 -47 -91 -73 -149 -73c-122 0 -214 92 -214 253c0 158 91 254 214 254c57 0 111 -25 149 -74v62h128v-483h-128zM395 156v170c-22 32 -67 55 -110 55c-72 0 -122 -56 -122 -140c0 -83 50 -140 122 -140c43 0 88 23 110 55z" />
    <glyph glyph-name="uni1EB1.alt1" horiz-adv-x="586" 
d="M251 693l-162 144h117l134 -144h-89zM295 553c-71 0 -135 34 -176 88l56 46c27 -37 68 -62 120 -62c50 0 91 24 119 62l56 -46c-40 -54 -103 -88 -175 -88zM395 0v61c-38 -47 -91 -73 -149 -73c-122 0 -214 92 -214 253c0 158 91 254 214 254c57 0 111 -25 149 -74v62
h128v-483h-128zM395 156v170c-22 32 -67 55 -110 55c-72 0 -122 -56 -122 -140c0 -83 50 -140 122 -140c43 0 88 23 110 55z" />
    <glyph glyph-name="uni1EB3.alt1" horiz-adv-x="586" 
d="M185 780c16 47 55 73 103 73c54 0 104 -27 104 -93c0 -27 -8 -45 -21 -66h-70c17 20 25 41 25 63c0 29 -17 40 -38 40c-22 0 -36 -15 -44 -36zM295 553c-71 0 -135 34 -176 88l56 46c27 -37 68 -62 120 -62c50 0 91 24 119 62l56 -46c-40 -54 -103 -88 -175 -88zM395 0
v61c-38 -47 -91 -73 -149 -73c-122 0 -214 92 -214 253c0 158 91 254 214 254c57 0 111 -25 149 -74v62h128v-483h-128zM395 156v170c-22 32 -67 55 -110 55c-72 0 -122 -56 -122 -140c0 -83 50 -140 122 -140c43 0 88 23 110 55z" />
    <glyph glyph-name="uni1EB5.alt1" horiz-adv-x="586" 
d="M275 732c-13 14 -24 27 -40 27c-20 0 -36 -19 -36 -62h-67c0 85 38 134 108 134c38 0 58 -22 75 -41c14 -14 25 -26 41 -26c20 0 36 19 36 61h67c0 -85 -37 -134 -107 -134c-39 0 -60 22 -77 41zM295 553c-71 0 -135 34 -176 88l56 46c27 -37 68 -62 120 -62
c50 0 91 24 119 62l56 -46c-40 -54 -103 -88 -175 -88zM395 0v61c-38 -47 -91 -73 -149 -73c-122 0 -214 92 -214 253c0 158 91 254 214 254c57 0 111 -25 149 -74v62h128v-483h-128zM395 156v170c-22 32 -67 55 -110 55c-72 0 -122 -56 -122 -140c0 -83 50 -140 122 -140
c43 0 88 23 110 55z" />
    <glyph glyph-name="uni1EB7.alt1" horiz-adv-x="586" 
d="M295 553c-71 0 -135 34 -176 88l56 46c27 -37 68 -62 120 -62c50 0 91 24 119 62l56 -46c-40 -54 -103 -88 -175 -88zM395 0v61c-38 -47 -91 -73 -149 -73c-122 0 -214 92 -214 253c0 158 91 254 214 254c57 0 111 -25 149 -74v62h128v-483h-128zM395 156v170
c-22 32 -67 55 -110 55c-72 0 -122 -56 -122 -140c0 -83 50 -140 122 -140c43 0 88 23 110 55zM227 -119c0 37 31 68 68 68s67 -31 67 -68c0 -38 -30 -68 -67 -68s-68 30 -68 68z" />
    <glyph glyph-name="ae.alt1" horiz-adv-x="912" 
d="M523 0h-128v61c-38 -47 -91 -73 -149 -73c-122 0 -214 92 -214 253c0 158 91 254 214 254c57 0 110 -25 148 -74v62h129v-72c32 50 84 84 156 84c122 0 204 -108 204 -266v-28h-360c9 -59 57 -111 140 -111c44 0 95 18 127 48l56 -83c-35 -37 -96 -67 -160 -67
c-81 0 -132 36 -163 84v-72zM641 394c-79 0 -113 -59 -118 -107h238c-4 46 -36 107 -120 107zM395 156v170c-22 32 -67 55 -110 55c-72 0 -122 -56 -122 -140c0 -83 50 -140 122 -140c43 0 88 23 110 55z" />
    <glyph glyph-name="aeacute.alt1" horiz-adv-x="912" 
d="M501 556h-89l134 144h117zM523 0h-128v61c-38 -47 -91 -73 -149 -73c-122 0 -214 92 -214 253c0 158 91 254 214 254c57 0 110 -25 148 -74v62h129v-72c32 50 84 84 156 84c122 0 204 -108 204 -266v-28h-360c9 -59 57 -111 140 -111c44 0 95 18 127 48l56 -83
c-35 -37 -96 -67 -160 -67c-81 0 -132 36 -163 84v-72zM641 394c-79 0 -113 -59 -118 -107h238c-4 46 -36 107 -120 107zM395 156v170c-22 32 -67 55 -110 55c-72 0 -122 -56 -122 -140c0 -83 50 -140 122 -140c43 0 88 23 110 55z" />
    <glyph glyph-name="uni1E03" unicode="&#x1e03;" horiz-adv-x="586" 
d="M231 789c0 37 31 68 68 68s67 -31 67 -68c0 -38 -30 -68 -67 -68s-68 30 -68 68zM63 0v667h127v-246c38 49 92 74 149 74c123 0 214 -96 214 -254c0 -161 -92 -253 -214 -253c-58 0 -111 26 -149 73v-61h-127zM190 155c21 -31 68 -54 109 -54c74 0 123 56 123 140
s-49 141 -123 141c-41 0 -88 -24 -109 -56v-171z" />
    <glyph glyph-name="cacute" unicode="&#x107;" horiz-adv-x="499" 
d="M326 556h-89l134 144h117zM32 242c0 148 107 253 256 253c99 0 159 -43 191 -88l-83 -77c-23 33 -58 52 -102 52c-77 0 -131 -56 -131 -140s54 -141 131 -141c44 0 79 20 102 52l83 -77c-32 -45 -92 -88 -191 -88c-149 0 -256 105 -256 254z" />
    <glyph glyph-name="ccedilla" unicode="&#xe7;" horiz-adv-x="499" 
d="M294 101c44 0 79 20 102 52l83 -77c-29 -41 -82 -81 -166 -87l-17 -40c10 7 23 10 36 10c37 0 67 -28 67 -69c0 -54 -51 -86 -111 -86c-48 0 -89 15 -110 32l25 52c25 -20 54 -30 81 -30s52 11 52 34c0 15 -10 25 -29 25c-13 0 -24 -6 -32 -14l-46 26l22 61
c-129 16 -219 116 -219 252c0 148 107 253 256 253c99 0 159 -43 191 -88l-83 -77c-23 33 -58 52 -102 52c-77 0 -131 -56 -131 -140s54 -141 131 -141z" />
    <glyph glyph-name="ccircumflex" unicode="&#x109;" horiz-adv-x="499" 
d="M358 556l-73 89l-71 -89h-78l92 144h114l94 -144h-78zM32 242c0 148 107 253 256 253c99 0 159 -43 191 -88l-83 -77c-23 33 -58 52 -102 52c-77 0 -131 -56 -131 -140s54 -141 131 -141c44 0 79 20 102 52l83 -77c-32 -45 -92 -88 -191 -88c-149 0 -256 105 -256 254z
" />
    <glyph glyph-name="cdotaccent" unicode="&#x10b;" horiz-adv-x="499" 
d="M217 622c0 37 31 68 68 68s67 -31 67 -68c0 -38 -30 -68 -67 -68s-68 30 -68 68zM32 242c0 148 107 253 256 253c99 0 159 -43 191 -88l-83 -77c-23 33 -58 52 -102 52c-77 0 -131 -56 -131 -140s54 -141 131 -141c44 0 79 20 102 52l83 -77c-32 -45 -92 -88 -191 -88
c-149 0 -256 105 -256 254z" />
    <glyph glyph-name="ccaron" unicode="&#x10d;" horiz-adv-x="499" 
d="M227 556l-94 144h78l74 -90l70 90h78l-92 -144h-114zM32 242c0 148 107 253 256 253c99 0 159 -43 191 -88l-83 -77c-23 33 -58 52 -102 52c-77 0 -131 -56 -131 -140s54 -141 131 -141c44 0 79 20 102 52l83 -77c-32 -45 -92 -88 -191 -88c-149 0 -256 105 -256 254z
" />
    <glyph glyph-name="dcaron" unicode="&#x10f;" horiz-adv-x="690" 
d="M613 448l-44 35c27 15 57 50 63 79c-2 -1 -9 -2 -15 -2c-30 0 -53 23 -53 56c0 35 27 63 61 63c37 0 71 -29 71 -81c0 -61 -34 -115 -83 -150zM395 0v61c-38 -47 -91 -73 -149 -73c-122 0 -214 92 -214 253c0 158 91 254 214 254c57 0 111 -25 149 -74v246h128v-667h-128
zM395 156v171c-22 32 -67 55 -110 55c-72 0 -122 -57 -122 -141c0 -83 50 -140 122 -140c43 0 88 23 110 55z" />
    <glyph glyph-name="dcroat" unicode="&#x111;" horiz-adv-x="590" 
d="M582 601v-73h-59v-528h-128v61c-38 -47 -91 -73 -149 -73c-122 0 -214 92 -214 253c0 158 91 254 214 254c57 0 111 -25 149 -74v107h-145v73h145v66h128v-66h59zM395 156v171c-22 32 -67 55 -110 55c-72 0 -122 -57 -122 -141c0 -83 50 -140 122 -140c43 0 88 23 110 55
z" />
    <glyph glyph-name="uni1E0B" unicode="&#x1e0b;" horiz-adv-x="586" 
d="M227 789c0 37 31 68 68 68s67 -31 67 -68c0 -38 -30 -68 -67 -68s-68 30 -68 68zM395 0v61c-38 -47 -91 -73 -149 -73c-122 0 -214 92 -214 253c0 158 91 254 214 254c57 0 111 -25 149 -74v246h128v-667h-128zM395 156v171c-22 32 -67 55 -110 55
c-72 0 -122 -57 -122 -141c0 -83 50 -140 122 -140c43 0 88 23 110 55z" />
    <glyph glyph-name="eacute" unicode="&#xe9;" horiz-adv-x="553" 
d="M323 556h-89l134 144h117zM32 242c0 140 103 253 250 253c144 0 242 -108 242 -266v-28h-359c8 -61 57 -112 139 -112c45 0 98 18 129 48l56 -82c-49 -45 -124 -67 -199 -67c-147 0 -258 99 -258 254zM282 394c-79 0 -113 -59 -119 -107h238c-3 46 -35 107 -119 107z" />
    <glyph glyph-name="ebreve" unicode="&#x115;" horiz-adv-x="553" 
d="M282 553c-71 0 -135 34 -176 88l56 46c27 -37 68 -62 120 -62c50 0 91 24 119 62l56 -46c-40 -54 -103 -88 -175 -88zM32 242c0 140 103 253 250 253c144 0 242 -108 242 -266v-28h-359c8 -61 57 -112 139 -112c45 0 98 18 129 48l56 -82c-49 -45 -124 -67 -199 -67
c-147 0 -258 99 -258 254zM282 394c-79 0 -113 -59 -119 -107h238c-3 46 -35 107 -119 107z" />
    <glyph glyph-name="ecircumflex" unicode="&#xea;" horiz-adv-x="553" 
d="M355 556l-73 89l-71 -89h-78l92 144h114l94 -144h-78zM32 242c0 140 103 253 250 253c144 0 242 -108 242 -266v-28h-359c8 -61 57 -112 139 -112c45 0 98 18 129 48l56 -82c-49 -45 -124 -67 -199 -67c-147 0 -258 99 -258 254zM282 394c-79 0 -113 -59 -119 -107h238
c-3 46 -35 107 -119 107z" />
    <glyph glyph-name="edieresis" unicode="&#xeb;" horiz-adv-x="553" 
d="M177 555c-38 0 -68 30 -68 68c0 37 30 67 68 67c37 0 67 -30 67 -67c0 -38 -30 -68 -67 -68zM388 555c-37 0 -68 30 -68 68c0 37 31 67 68 67s68 -30 68 -67c0 -38 -31 -68 -68 -68zM32 242c0 140 103 253 250 253c144 0 242 -108 242 -266v-28h-359
c8 -61 57 -112 139 -112c45 0 98 18 129 48l56 -82c-49 -45 -124 -67 -199 -67c-147 0 -258 99 -258 254zM282 394c-79 0 -113 -59 -119 -107h238c-3 46 -35 107 -119 107z" />
    <glyph glyph-name="edotaccent" unicode="&#x117;" horiz-adv-x="553" 
d="M214 622c0 37 31 68 68 68s67 -31 67 -68c0 -38 -30 -68 -67 -68s-68 30 -68 68zM32 242c0 140 103 253 250 253c144 0 242 -108 242 -266v-28h-359c8 -61 57 -112 139 -112c45 0 98 18 129 48l56 -82c-49 -45 -124 -67 -199 -67c-147 0 -258 99 -258 254zM282 394
c-79 0 -113 -59 -119 -107h238c-3 46 -35 107 -119 107z" />
    <glyph glyph-name="egrave" unicode="&#xe8;" horiz-adv-x="553" 
d="M238 556l-162 144h117l134 -144h-89zM32 242c0 140 103 253 250 253c144 0 242 -108 242 -266v-28h-359c8 -61 57 -112 139 -112c45 0 98 18 129 48l56 -82c-49 -45 -124 -67 -199 -67c-147 0 -258 99 -258 254zM282 394c-79 0 -113 -59 -119 -107h238
c-3 46 -35 107 -119 107z" />
    <glyph glyph-name="emacron" unicode="&#x113;" horiz-adv-x="553" 
d="M114 562v72h335v-72h-335zM32 242c0 140 103 253 250 253c144 0 242 -108 242 -266v-28h-359c8 -61 57 -112 139 -112c45 0 98 18 129 48l56 -82c-49 -45 -124 -67 -199 -67c-147 0 -258 99 -258 254zM282 394c-79 0 -113 -59 -119 -107h238c-3 46 -35 107 -119 107z" />
    <glyph glyph-name="eogonek" unicode="&#x119;" horiz-adv-x="553" 
d="M290 -12c-147 0 -258 99 -258 254c0 140 103 253 250 253c144 0 242 -108 242 -266v-28h-359c8 -61 57 -112 139 -112c41 0 98 18 129 48l56 -82c-55 -41 -96 -88 -96 -125c0 -26 17 -37 35 -37c9 0 20 2 29 7l25 -68c-24 -13 -53 -18 -89 -18c-55 0 -113 23 -113 80
c0 40 32 75 78 101c-19 -4 -42 -7 -68 -7zM282 394c-79 0 -113 -59 -119 -107h238c-3 46 -35 107 -119 107z" />
    <glyph glyph-name="ecaron" unicode="&#x11b;" horiz-adv-x="553" 
d="M224 556l-94 144h78l74 -90l70 90h78l-92 -144h-114zM32 242c0 140 103 253 250 253c144 0 242 -108 242 -266v-28h-359c8 -61 57 -112 139 -112c45 0 98 18 129 48l56 -82c-49 -45 -124 -67 -199 -67c-147 0 -258 99 -258 254zM282 394c-79 0 -113 -59 -119 -107h238
c-3 46 -35 107 -119 107z" />
    <glyph glyph-name="uni1EB9" unicode="&#x1eb9;" horiz-adv-x="553" 
d="M32 242c0 140 103 253 250 253c144 0 242 -108 242 -266v-28h-359c8 -61 57 -112 139 -112c45 0 98 18 129 48l56 -82c-49 -45 -124 -67 -199 -67c-147 0 -258 99 -258 254zM282 394c-79 0 -113 -59 -119 -107h238c-3 46 -35 107 -119 107zM214 -119c0 37 31 68 68 68
s67 -31 67 -68c0 -38 -30 -68 -67 -68s-68 30 -68 68z" />
    <glyph glyph-name="uni1EBB" unicode="&#x1ebb;" horiz-adv-x="553" 
d="M172 643c16 47 55 73 103 73c54 0 104 -27 104 -93c0 -27 -8 -45 -21 -66h-70c17 20 25 41 25 63c0 29 -17 40 -38 40c-22 0 -36 -15 -44 -36zM32 242c0 140 103 253 250 253c144 0 242 -108 242 -266v-28h-359c8 -61 57 -112 139 -112c45 0 98 18 129 48l56 -82
c-49 -45 -124 -67 -199 -67c-147 0 -258 99 -258 254zM282 394c-79 0 -113 -59 -119 -107h238c-3 46 -35 107 -119 107z" />
    <glyph glyph-name="uni1EBD" unicode="&#x1ebd;" horiz-adv-x="553" 
d="M262 595c-13 14 -24 27 -40 27c-20 0 -36 -19 -36 -62h-67c0 85 38 134 108 134c38 0 58 -22 75 -41c14 -14 25 -26 41 -26c20 0 36 19 36 61h67c0 -85 -37 -134 -107 -134c-39 0 -60 22 -77 41zM32 242c0 140 103 253 250 253c144 0 242 -108 242 -266v-28h-359
c8 -61 57 -112 139 -112c45 0 98 18 129 48l56 -82c-49 -45 -124 -67 -199 -67c-147 0 -258 99 -258 254zM282 394c-79 0 -113 -59 -119 -107h238c-3 46 -35 107 -119 107z" />
    <glyph glyph-name="uni1EBF" unicode="&#x1ebf;" horiz-adv-x="553" 
d="M492 656h-89l134 144h117zM355 556l-73 89l-71 -89h-78l92 144h114l94 -144h-78zM32 242c0 140 103 253 250 253c144 0 242 -108 242 -266v-28h-359c8 -61 57 -112 139 -112c45 0 98 18 129 48l56 -82c-49 -45 -124 -67 -199 -67c-147 0 -258 99 -258 254zM282 394
c-79 0 -113 -59 -119 -107h238c-3 46 -35 107 -119 107z" />
    <glyph glyph-name="uni1EC1" unicode="&#x1ec1;" horiz-adv-x="553" 
d="M77 656l-162 144h117l134 -144h-89zM355 556l-73 89l-71 -89h-78l92 144h114l94 -144h-78zM32 242c0 140 103 253 250 253c144 0 242 -108 242 -266v-28h-359c8 -61 57 -112 139 -112c45 0 98 18 129 48l56 -82c-49 -45 -124 -67 -199 -67c-147 0 -258 99 -258 254z
M282 394c-79 0 -113 -59 -119 -107h238c-3 46 -35 107 -119 107z" />
    <glyph glyph-name="uni1EC3" unicode="&#x1ec3;" horiz-adv-x="553" 
d="M287 742c16 47 55 73 103 73c54 0 104 -27 104 -93c0 -27 -8 -45 -21 -66h-70c17 20 25 41 25 63c0 29 -17 40 -38 40c-22 0 -36 -15 -44 -36zM355 556l-73 89l-71 -89h-78l92 144h114l94 -144h-78zM32 242c0 140 103 253 250 253c144 0 242 -108 242 -266v-28h-359
c8 -61 57 -112 139 -112c45 0 98 18 129 48l56 -82c-49 -45 -124 -67 -199 -67c-147 0 -258 99 -258 254zM282 394c-79 0 -113 -59 -119 -107h238c-3 46 -35 107 -119 107z" />
    <glyph glyph-name="uni1EC5" unicode="&#x1ec5;" horiz-adv-x="553" 
d="M262 757c-13 14 -24 27 -40 27c-20 0 -36 -19 -36 -62h-67c0 85 38 134 108 134c38 0 58 -22 75 -41c14 -14 25 -26 41 -26c20 0 36 19 36 61h67c0 -85 -37 -134 -107 -134c-39 0 -60 22 -77 41zM355 556l-73 89l-71 -89h-78l92 144h114l94 -144h-78zM32 242
c0 140 103 253 250 253c144 0 242 -108 242 -266v-28h-359c8 -61 57 -112 139 -112c45 0 98 18 129 48l56 -82c-49 -45 -124 -67 -199 -67c-147 0 -258 99 -258 254zM282 394c-79 0 -113 -59 -119 -107h238c-3 46 -35 107 -119 107z" />
    <glyph glyph-name="uni1EC7" unicode="&#x1ec7;" horiz-adv-x="553" 
d="M355 556l-73 89l-71 -89h-78l92 144h114l94 -144h-78zM32 242c0 140 103 253 250 253c144 0 242 -108 242 -266v-28h-359c8 -61 57 -112 139 -112c45 0 98 18 129 48l56 -82c-49 -45 -124 -67 -199 -67c-147 0 -258 99 -258 254zM282 394c-79 0 -113 -59 -119 -107h238
c-3 46 -35 107 -119 107zM214 -119c0 37 31 68 68 68s67 -31 67 -68c0 -38 -30 -68 -67 -68s-68 30 -68 68z" />
    <glyph glyph-name="fl.alt1" horiz-adv-x="625" 
d="M91 0v372h-80v111h80v26c0 105 68 168 163 168c36 0 69 -8 92 -20l-26 -92c-10 7 -24 12 -41 12c-36 0 -60 -24 -60 -68v-26h98v-111h-98v-372h-128zM526 -12c-89 0 -136 46 -136 132v547h127v-513c0 -30 16 -53 44 -53c19 0 37 7 43 14l27 -96c-19 -17 -53 -31 -105 -31
z" />
    <glyph glyph-name="f_f_l.alt1" horiz-adv-x="952" 
d="M91 0v372h-80v111h80v26c0 105 68 168 163 168c36 0 69 -8 92 -20l-26 -90c-11 7 -26 10 -41 10c-36 0 -60 -24 -60 -70v-24h98v-111h-98v-372h-128zM418 0v372h-80v111h80v26c0 105 68 168 163 168c36 0 69 -8 92 -20l-26 -92c-10 7 -24 12 -41 12
c-36 0 -60 -24 -60 -68v-26h98v-111h-98v-372h-128zM853 -12c-89 0 -136 46 -136 132v547h127v-513c0 -30 16 -53 44 -53c19 0 37 7 43 14l27 -96c-19 -17 -53 -31 -105 -31z" />
    <glyph glyph-name="uni1E1F" unicode="&#x1e1f;" horiz-adv-x="327" 
d="M163 789c0 37 31 68 68 68s67 -31 67 -68c0 -38 -30 -68 -67 -68s-68 30 -68 68zM91 0v372h-80v111h80v26c0 105 68 168 163 168c36 0 69 -8 92 -20l-26 -90c-11 7 -26 10 -41 10c-36 0 -60 -24 -60 -70v-24h98v-111h-98v-372h-128z" />
    <glyph glyph-name="gcircumflex" unicode="&#x11d;" horiz-adv-x="585" 
d="M368 556l-73 89l-71 -89h-78l92 144h114l94 -144h-78zM53 -124l57 92c39 -43 90 -60 151 -60s133 27 133 122v49c-38 -48 -90 -76 -149 -76c-121 0 -213 85 -213 246c0 158 91 246 213 246c58 0 110 -25 149 -74v62h128v-450c0 -184 -142 -229 -261 -229
c-83 0 -148 19 -208 72zM394 171v156c-21 32 -67 55 -109 55c-72 0 -122 -50 -122 -133s50 -133 122 -133c42 0 88 24 109 55z" />
    <glyph glyph-name="gbreve" unicode="&#x11f;" horiz-adv-x="585" 
d="M295 553c-71 0 -135 34 -176 88l56 46c27 -37 68 -62 120 -62c50 0 91 24 119 62l56 -46c-40 -54 -103 -88 -175 -88zM53 -124l57 92c39 -43 90 -60 151 -60s133 27 133 122v49c-38 -48 -90 -76 -149 -76c-121 0 -213 85 -213 246c0 158 91 246 213 246
c58 0 110 -25 149 -74v62h128v-450c0 -184 -142 -229 -261 -229c-83 0 -148 19 -208 72zM394 171v156c-21 32 -67 55 -109 55c-72 0 -122 -50 -122 -133s50 -133 122 -133c42 0 88 24 109 55z" />
    <glyph glyph-name="gdotaccent" unicode="&#x121;" horiz-adv-x="585" 
d="M227 622c0 37 31 68 68 68s67 -31 67 -68c0 -38 -30 -68 -67 -68s-68 30 -68 68zM53 -124l57 92c39 -43 90 -60 151 -60s133 27 133 122v49c-38 -48 -90 -76 -149 -76c-121 0 -213 85 -213 246c0 158 91 246 213 246c58 0 110 -25 149 -74v62h128v-450
c0 -184 -142 -229 -261 -229c-83 0 -148 19 -208 72zM394 171v156c-21 32 -67 55 -109 55c-72 0 -122 -50 -122 -133s50 -133 122 -133c42 0 88 24 109 55z" />
    <glyph glyph-name="uni0123" unicode="&#x123;" horiz-adv-x="585" 
d="M309 777l43 -35c-24 -13 -58 -46 -62 -75c2 0 4 1 7 1c29 0 60 -25 60 -59s-28 -63 -64 -63c-26 0 -64 18 -64 76c0 63 29 120 80 155zM53 -124l57 92c39 -43 90 -60 151 -60s133 27 133 122v49c-38 -48 -90 -76 -149 -76c-121 0 -213 85 -213 246c0 158 91 246 213 246
c58 0 110 -25 149 -74v62h128v-450c0 -184 -142 -229 -261 -229c-83 0 -148 19 -208 72zM394 171v156c-21 32 -67 55 -109 55c-72 0 -122 -50 -122 -133s50 -133 122 -133c42 0 88 24 109 55z" />
    <glyph glyph-name="gcaron" unicode="&#x1e7;" horiz-adv-x="585" 
d="M237 556l-94 144h78l74 -90l70 90h78l-92 -144h-114zM53 -124l57 92c39 -43 90 -60 151 -60s133 27 133 122v49c-38 -48 -90 -76 -149 -76c-121 0 -213 85 -213 246c0 158 91 246 213 246c58 0 110 -25 149 -74v62h128v-450c0 -184 -142 -229 -261 -229
c-83 0 -148 19 -208 72zM394 171v156c-21 32 -67 55 -109 55c-72 0 -122 -50 -122 -133s50 -133 122 -133c42 0 88 24 109 55z" />
    <glyph glyph-name="hbar" unicode="&#x127;" horiz-adv-x="584" 
d="M364 495c106 0 157 -58 157 -152v-343h-127v294c0 67 -35 88 -90 88c-49 0 -88 -28 -110 -57v-325h-127v528h-59v73h59v66h127v-66h146v-73h-146v-108c31 37 91 75 170 75z" />
    <glyph glyph-name="hcircumflex" unicode="&#x125;" horiz-adv-x="580" 
d="M363 723l-73 89l-71 -89h-78l92 144h114l94 -144h-78zM390 0v294c0 67 -35 88 -90 88c-49 0 -88 -28 -110 -57v-325h-127v667h127v-247c31 37 91 75 170 75c106 0 157 -58 157 -152v-343h-127z" />
    <glyph glyph-name="uni1E23" unicode="&#x1e23;" horiz-adv-x="580" 
d="M222 789c0 37 31 68 68 68s67 -31 67 -68c0 -38 -30 -68 -67 -68s-68 30 -68 68zM390 0v294c0 67 -35 88 -90 88c-49 0 -88 -28 -110 -57v-325h-127v667h127v-247c31 37 91 75 170 75c106 0 157 -58 157 -152v-343h-127z" />
    <glyph glyph-name="dotlessi" unicode="&#x131;" horiz-adv-x="253" 
d="M63 0v483h127v-483h-127z" />
    <glyph glyph-name="iacute" unicode="&#xed;" horiz-adv-x="253" 
d="M167 556h-89l134 144h117zM63 0v483h127v-483h-127z" />
    <glyph glyph-name="ibreve" unicode="&#x12d;" horiz-adv-x="253" 
d="M126 553c-71 0 -135 34 -176 88l56 46c27 -37 68 -62 120 -62c50 0 91 24 119 62l56 -46c-40 -54 -103 -88 -175 -88zM63 0v483h127v-483h-127z" />
    <glyph glyph-name="icircumflex" unicode="&#xee;" horiz-adv-x="253" 
d="M199 556l-73 89l-71 -89h-78l92 144h114l94 -144h-78zM63 0v483h127v-483h-127z" />
    <glyph glyph-name="idieresis" unicode="&#xef;" horiz-adv-x="253" 
d="M21 555c-38 0 -68 30 -68 68c0 37 30 67 68 67c37 0 67 -30 67 -67c0 -38 -30 -68 -67 -68zM232 555c-37 0 -68 30 -68 68c0 37 31 67 68 67s68 -30 68 -67c0 -38 -31 -68 -68 -68zM63 0v483h127v-483h-127z" />
    <glyph glyph-name="igrave" unicode="&#xec;" horiz-adv-x="253" 
d="M82 556l-162 144h117l134 -144h-89zM63 0v483h127v-483h-127z" />
    <glyph glyph-name="imacron" unicode="&#x12b;" horiz-adv-x="253" 
d="M-42 562v72h335v-72h-335zM63 0v483h127v-483h-127z" />
    <glyph glyph-name="iogonek" unicode="&#x12f;" horiz-adv-x="253" 
d="M126 554c-41 0 -76 34 -76 76s35 76 76 76c42 0 76 -34 76 -76s-34 -76 -76 -76zM63 0v483h127v-483c-60 -18 -88 -45 -88 -76c0 -20 16 -31 34 -31c9 0 19 2 29 7l24 -68c-23 -13 -52 -18 -88 -18c-55 0 -113 23 -113 80c0 46 44 81 108 106h-33z" />
    <glyph glyph-name="itilde" unicode="&#x129;" horiz-adv-x="253" 
d="M106 595c-13 14 -24 27 -40 27c-20 0 -36 -19 -36 -62h-67c0 85 38 134 108 134c38 0 58 -22 75 -41c14 -14 25 -26 41 -26c20 0 36 19 36 61h67c0 -85 -37 -134 -107 -134c-39 0 -60 22 -77 41zM63 0v483h127v-483h-127z" />
    <glyph glyph-name="uni1EC9" unicode="&#x1ec9;" horiz-adv-x="253" 
d="M16 643c16 47 55 73 103 73c54 0 104 -27 104 -93c0 -27 -8 -45 -21 -66h-70c17 20 25 41 25 63c0 29 -17 40 -38 40c-22 0 -36 -15 -44 -36zM63 0v483h127v-483h-127z" />
    <glyph glyph-name="uni1ECB" unicode="&#x1ecb;" horiz-adv-x="253" 
d="M126 554c-41 0 -76 34 -76 76s35 76 76 76c42 0 76 -34 76 -76s-34 -76 -76 -76zM63 0v483h127v-483h-127zM58 -119c0 37 31 68 68 68s67 -31 67 -68c0 -38 -30 -68 -67 -68s-68 30 -68 68z" />
    <glyph glyph-name="i.dotaccent" horiz-adv-x="253" 
d="M126 554c-41 0 -76 34 -76 76s35 76 76 76c42 0 76 -34 76 -76s-34 -76 -76 -76zM63 0v483h127v-483h-127z" />
    <glyph glyph-name="ij" unicode="&#x133;" horiz-adv-x="506" 
d="M126 554c-41 0 -76 34 -76 76s35 76 76 76c42 0 76 -34 76 -76s-34 -76 -76 -76zM379 554c-41 0 -76 34 -76 76s35 76 76 76c42 0 76 -34 76 -76s-34 -76 -76 -76zM63 0v483h127v-483h-127zM443 483v-496c0 -110 -56 -183 -172 -183c-23 0 -40 2 -55 5l8 104
c8 -2 20 -3 28 -3c37 0 64 23 64 77v496h127z" />
    <glyph glyph-name="iacute_j.loclNLD" horiz-adv-x="506" 
d="M167 556h-89l134 144h117zM420 556h-89l134 144h117zM63 0v483h127v-483h-127zM216 -191l8 104c8 -2 20 -3 28 -3c37 0 64 23 64 77v496h127v-496c0 -110 -56 -183 -172 -183c-23 0 -40 2 -55 5z" />
    <glyph glyph-name="uni0237" unicode="&#x237;" horiz-adv-x="253" 
d="M-37 -191l8 104c8 -2 20 -3 28 -3c37 0 64 23 64 77v496h127v-496c0 -110 -56 -183 -172 -183c-23 0 -40 2 -55 5z" />
    <glyph glyph-name="jcircumflex" unicode="&#x135;" horiz-adv-x="253" 
d="M199 556l-73 89l-71 -89h-78l92 144h114l94 -144h-78zM-37 -191l8 104c8 -2 20 -3 28 -3c37 0 64 23 64 77v496h127v-496c0 -110 -56 -183 -172 -183c-23 0 -40 2 -55 5z" />
    <glyph glyph-name="uni0137" unicode="&#x137;" horiz-adv-x="535" 
d="M376 0l-128 186l-58 -62v-124h-127v667h127v-399l183 215h156l-191 -219l197 -264h-159zM257 -288l-44 35c27 15 57 50 63 79c-2 -1 -9 -2 -15 -2c-30 0 -53 23 -53 56c0 35 27 63 61 63c37 0 71 -29 71 -81c0 -61 -34 -115 -83 -150z" />
    <glyph glyph-name="kgreenlandic" unicode="&#x138;" horiz-adv-x="535" 
d="M376 0l-128 186l-58 -62v-124h-127v483h127v-215l183 215h156l-191 -219l197 -264h-159z" />
    <glyph glyph-name="lacute" unicode="&#x13a;" horiz-adv-x="253" 
d="M167 723h-89l134 144h117zM63 0v667h127v-667h-127z" />
    <glyph glyph-name="uni013C" unicode="&#x13c;" horiz-adv-x="253" 
d="M63 0v667h127v-667h-127zM114 -288l-44 35c27 15 57 50 63 79c-2 -1 -9 -2 -15 -2c-30 0 -53 23 -53 56c0 35 27 63 61 63c37 0 71 -29 71 -81c0 -61 -34 -115 -83 -150z" />
    <glyph glyph-name="lcaron" unicode="&#x13e;" horiz-adv-x="354" 
d="M280 449l-44 35c27 15 57 50 63 79c-2 -1 -9 -2 -15 -2c-30 0 -53 23 -53 56c0 35 27 63 61 63c37 0 71 -29 71 -81c0 -61 -34 -115 -83 -150zM63 0v667h127v-667h-127z" />
    <glyph glyph-name="ldot" unicode="&#x140;" horiz-adv-x="384" 
d="M63 0v667h127v-667h-127zM318 164c-44 0 -81 37 -81 80c0 44 37 81 81 81s80 -37 80 -81c0 -43 -36 -80 -80 -80z" />
    <glyph glyph-name="lslash" unicode="&#x142;" horiz-adv-x="308" 
d="M299 464v-93l-81 -46v-325h-127v252l-83 -48v93l83 48v322h127v-249z" />
    <glyph glyph-name="lacute.alt1" horiz-adv-x="298" 
d="M170 723h-89l134 144h117zM199 -12c-89 0 -136 46 -136 132v547h127v-513c0 -30 16 -53 44 -53c19 0 37 7 43 14l27 -96c-19 -17 -53 -31 -105 -31z" />
    <glyph glyph-name="lcommaaccent.alt1" horiz-adv-x="298" 
d="M199 -12c-89 0 -136 46 -136 132v547h127v-513c0 -30 16 -53 44 -53c19 0 37 7 43 14l27 -96c-19 -17 -53 -31 -105 -31zM152 -288l-44 35c27 15 57 50 63 79c-2 -1 -9 -2 -15 -2c-30 0 -53 23 -53 56c0 35 27 63 61 63c37 0 71 -29 71 -81c0 -61 -34 -115 -83 -150z" />
    <glyph glyph-name="lcaron.alt1" horiz-adv-x="354" 
d="M290 449l-44 35c27 15 57 50 63 79c-2 -1 -9 -2 -15 -2c-30 0 -53 23 -53 56c0 35 27 63 61 63c37 0 71 -29 71 -81c0 -61 -34 -115 -83 -150zM199 -12c-89 0 -136 46 -136 132v547h127v-513c0 -30 16 -53 44 -53c19 0 37 7 43 14l27 -96c-19 -17 -53 -31 -105 -31z" />
    <glyph glyph-name="ldot.alt1" horiz-adv-x="384" 
d="M199 -12c-89 0 -136 46 -136 132v547h127v-513c0 -30 16 -53 44 -53c19 0 37 7 43 14l27 -96c-19 -17 -53 -31 -105 -31zM318 164c-44 0 -81 37 -81 80c0 44 37 81 81 81s80 -37 80 -81c0 -43 -36 -80 -80 -80z" />
    <glyph glyph-name="lslash.alt1" horiz-adv-x="325" 
d="M304 115l27 -96c-19 -17 -53 -31 -105 -31c-89 0 -136 46 -136 132v131l-82 -47v93l82 47v323h127v-250l82 47v-93l-82 -47v-170c0 -30 16 -53 44 -53c19 0 37 7 43 14z" />
    <glyph glyph-name="nacute" unicode="&#x144;" horiz-adv-x="579" 
d="M331 556h-89l134 144h117zM389 0v292c0 67 -35 90 -89 90c-50 0 -89 -28 -110 -57v-325h-127v483h127v-63c31 37 90 75 169 75c106 0 157 -60 157 -154v-341h-127z" />
    <glyph glyph-name="napostrophe" unicode="&#x149;" horiz-adv-x="579" 
d="M93 533l-44 35c27 15 57 50 63 79c-2 -1 -9 -2 -15 -2c-30 0 -53 23 -53 56c0 35 27 63 61 63c37 0 71 -29 71 -81c0 -61 -34 -115 -83 -150zM389 0v292c0 67 -35 90 -89 90c-50 0 -89 -28 -110 -57v-325h-127v483h127v-63c31 37 90 75 169 75c106 0 157 -60 157 -154
v-341h-127z" />
    <glyph glyph-name="ncaron" unicode="&#x148;" horiz-adv-x="579" 
d="M232 556l-94 144h78l74 -90l70 90h78l-92 -144h-114zM389 0v292c0 67 -35 90 -89 90c-50 0 -89 -28 -110 -57v-325h-127v483h127v-63c31 37 90 75 169 75c106 0 157 -60 157 -154v-341h-127z" />
    <glyph glyph-name="uni0146" unicode="&#x146;" horiz-adv-x="579" 
d="M389 0v292c0 67 -35 90 -89 90c-50 0 -89 -28 -110 -57v-325h-127v483h127v-63c31 37 90 75 169 75c106 0 157 -60 157 -154v-341h-127zM278 -288l-44 35c27 15 57 50 63 79c-2 -1 -9 -2 -15 -2c-30 0 -53 23 -53 56c0 35 27 63 61 63c37 0 71 -29 71 -81
c0 -61 -34 -115 -83 -150z" />
    <glyph glyph-name="ntilde" unicode="&#xf1;" horiz-adv-x="579" 
d="M270 595c-13 14 -24 27 -40 27c-20 0 -36 -19 -36 -62h-67c0 85 38 134 108 134c38 0 58 -22 75 -41c14 -14 25 -26 41 -26c20 0 36 19 36 61h67c0 -85 -37 -134 -107 -134c-39 0 -60 22 -77 41zM389 0v292c0 67 -35 90 -89 90c-50 0 -89 -28 -110 -57v-325h-127v483h127
v-63c31 37 90 75 169 75c106 0 157 -60 157 -154v-341h-127z" />
    <glyph glyph-name="uni0272" unicode="&#x272;" horiz-adv-x="579" 
d="M359 495c106 0 157 -60 157 -154v-341h-127v292c0 67 -35 90 -89 90c-50 0 -89 -28 -110 -57v-338c0 -110 -56 -183 -172 -183c-23 0 -40 2 -55 5l8 104c8 -2 20 -3 28 -3c37 0 64 23 64 77v496h127v-63c31 37 90 75 169 75z" />
    <glyph glyph-name="eng" unicode="&#x14b;" horiz-adv-x="579" 
d="M516 -13c0 -110 -56 -183 -172 -183c-22 0 -39 2 -54 5l7 104c9 -2 20 -3 28 -3c37 0 64 23 64 77v305c0 67 -35 90 -89 90c-50 0 -89 -28 -110 -57v-325h-127v483h127v-63c31 37 90 75 169 75c106 0 157 -60 157 -154v-354z" />
    <glyph glyph-name="oacute" unicode="&#xf3;" 
d="M328 556h-89l134 144h117zM287 -12c-159 0 -255 116 -255 254c0 137 96 253 255 253c160 0 256 -116 256 -253c0 -138 -96 -254 -256 -254zM287 101c79 0 124 65 124 141c0 75 -45 140 -124 140s-123 -65 -123 -140c0 -76 44 -141 123 -141z" />
    <glyph glyph-name="obreve" unicode="&#x14f;" 
d="M287 553c-71 0 -135 34 -176 88l56 46c27 -37 68 -62 120 -62c50 0 91 24 119 62l56 -46c-40 -54 -103 -88 -175 -88zM287 -12c-159 0 -255 116 -255 254c0 137 96 253 255 253c160 0 256 -116 256 -253c0 -138 -96 -254 -256 -254zM287 101c79 0 124 65 124 141
c0 75 -45 140 -124 140s-123 -65 -123 -140c0 -76 44 -141 123 -141z" />
    <glyph glyph-name="ocircumflex" unicode="&#xf4;" 
d="M360 556l-73 89l-71 -89h-78l92 144h114l94 -144h-78zM287 -12c-159 0 -255 116 -255 254c0 137 96 253 255 253c160 0 256 -116 256 -253c0 -138 -96 -254 -256 -254zM287 101c79 0 124 65 124 141c0 75 -45 140 -124 140s-123 -65 -123 -140c0 -76 44 -141 123 -141z
" />
    <glyph glyph-name="odieresis" unicode="&#xf6;" 
d="M182 555c-38 0 -68 30 -68 68c0 37 30 67 68 67c37 0 67 -30 67 -67c0 -38 -30 -68 -67 -68zM393 555c-37 0 -68 30 -68 68c0 37 31 67 68 67s68 -30 68 -67c0 -38 -31 -68 -68 -68zM287 -12c-159 0 -255 116 -255 254c0 137 96 253 255 253c160 0 256 -116 256 -253
c0 -138 -96 -254 -256 -254zM287 101c79 0 124 65 124 141c0 75 -45 140 -124 140s-123 -65 -123 -140c0 -76 44 -141 123 -141z" />
    <glyph glyph-name="ograve" unicode="&#xf2;" 
d="M243 556l-162 144h117l134 -144h-89zM287 -12c-159 0 -255 116 -255 254c0 137 96 253 255 253c160 0 256 -116 256 -253c0 -138 -96 -254 -256 -254zM287 101c79 0 124 65 124 141c0 75 -45 140 -124 140s-123 -65 -123 -140c0 -76 44 -141 123 -141z" />
    <glyph glyph-name="ohungarumlaut" unicode="&#x151;" 
d="M247 556h-74l87 144h102zM396 556h-74l87 144h102zM287 -12c-159 0 -255 116 -255 254c0 137 96 253 255 253c160 0 256 -116 256 -253c0 -138 -96 -254 -256 -254zM287 101c79 0 124 65 124 141c0 75 -45 140 -124 140s-123 -65 -123 -140c0 -76 44 -141 123 -141z" />
    <glyph glyph-name="omacron" unicode="&#x14d;" 
d="M119 562v72h335v-72h-335zM287 -12c-159 0 -255 116 -255 254c0 137 96 253 255 253c160 0 256 -116 256 -253c0 -138 -96 -254 -256 -254zM287 101c79 0 124 65 124 141c0 75 -45 140 -124 140s-123 -65 -123 -140c0 -76 44 -141 123 -141z" />
    <glyph glyph-name="oslash" unicode="&#xf8;" 
d="M476 419c43 -46 67 -109 67 -177c0 -138 -96 -254 -256 -254c-57 0 -106 15 -145 40l-24 -28h-78l57 67c-42 46 -65 108 -65 175c0 137 96 253 255 253c55 0 103 -14 141 -37l22 25h80zM164 242c0 -28 6 -54 17 -76l169 199c-18 11 -39 17 -63 17
c-79 0 -123 -65 -123 -140zM287 101c79 0 124 65 124 141c0 29 -7 56 -19 79l-171 -201c18 -12 40 -19 66 -19z" />
    <glyph glyph-name="oslashacute" unicode="&#x1ff;" 
d="M490 700l-162 -144h-89l134 144h117zM476 419c43 -46 67 -109 67 -177c0 -138 -96 -254 -256 -254c-57 0 -106 15 -145 40l-24 -28h-78l57 67c-42 46 -65 108 -65 175c0 137 96 253 255 253c55 0 103 -14 141 -37l22 25h80zM164 242c0 -28 6 -54 17 -76l169 199
c-18 11 -39 17 -63 17c-79 0 -123 -65 -123 -140zM287 101c79 0 124 65 124 141c0 29 -7 56 -19 79l-171 -201c18 -12 40 -19 66 -19z" />
    <glyph glyph-name="otilde" unicode="&#xf5;" 
d="M267 595c-13 14 -24 27 -40 27c-20 0 -36 -19 -36 -62h-67c0 85 38 134 108 134c38 0 58 -22 75 -41c14 -14 25 -26 41 -26c20 0 36 19 36 61h67c0 -85 -37 -134 -107 -134c-39 0 -60 22 -77 41zM287 -12c-159 0 -255 116 -255 254c0 137 96 253 255 253
c160 0 256 -116 256 -253c0 -138 -96 -254 -256 -254zM287 101c79 0 124 65 124 141c0 75 -45 140 -124 140s-123 -65 -123 -140c0 -76 44 -141 123 -141z" />
    <glyph glyph-name="uni01EB" unicode="&#x1eb;" 
d="M354 -5c-51 -18 -74 -43 -74 -71c0 -20 16 -31 34 -31c9 0 19 2 29 7l24 -68c-23 -13 -52 -18 -88 -18c-55 0 -113 23 -113 80c0 40 34 72 85 96c-137 16 -219 125 -219 252c0 137 96 253 255 253c160 0 256 -116 256 -253c0 -118 -70 -219 -189 -247zM164 242
c0 -76 44 -141 123 -141s124 65 124 141c0 75 -45 140 -124 140s-123 -65 -123 -140z" />
    <glyph glyph-name="uni1ECD" unicode="&#x1ecd;" 
d="M287 -12c-159 0 -255 116 -255 254c0 137 96 253 255 253c160 0 256 -116 256 -253c0 -138 -96 -254 -256 -254zM287 101c79 0 124 65 124 141c0 75 -45 140 -124 140s-123 -65 -123 -140c0 -76 44 -141 123 -141zM219 -119c0 37 31 68 68 68s67 -31 67 -68
c0 -38 -30 -68 -67 -68s-68 30 -68 68z" />
    <glyph glyph-name="uni1ECF" unicode="&#x1ecf;" 
d="M177 643c16 47 55 73 103 73c54 0 104 -27 104 -93c0 -27 -8 -45 -21 -66h-70c17 20 25 41 25 63c0 29 -17 40 -38 40c-22 0 -36 -15 -44 -36zM287 -12c-159 0 -255 116 -255 254c0 137 96 253 255 253c160 0 256 -116 256 -253c0 -138 -96 -254 -256 -254zM287 101
c79 0 124 65 124 141c0 75 -45 140 -124 140s-123 -65 -123 -140c0 -76 44 -141 123 -141z" />
    <glyph glyph-name="uni1ED1" unicode="&#x1ed1;" 
d="M497 656h-89l134 144h117zM360 556l-73 89l-71 -89h-78l92 144h114l94 -144h-78zM287 -12c-159 0 -255 116 -255 254c0 137 96 253 255 253c160 0 256 -116 256 -253c0 -138 -96 -254 -256 -254zM287 101c79 0 124 65 124 141c0 75 -45 140 -124 140s-123 -65 -123 -140
c0 -76 44 -141 123 -141z" />
    <glyph glyph-name="uni1ED3" unicode="&#x1ed3;" 
d="M82 656l-162 144h117l134 -144h-89zM360 556l-73 89l-71 -89h-78l92 144h114l94 -144h-78zM287 -12c-159 0 -255 116 -255 254c0 137 96 253 255 253c160 0 256 -116 256 -253c0 -138 -96 -254 -256 -254zM287 101c79 0 124 65 124 141c0 75 -45 140 -124 140
s-123 -65 -123 -140c0 -76 44 -141 123 -141z" />
    <glyph glyph-name="uni1ED5" unicode="&#x1ed5;" 
d="M292 742c16 47 55 73 103 73c54 0 104 -27 104 -93c0 -27 -8 -45 -21 -66h-70c17 20 25 41 25 63c0 29 -17 40 -38 40c-22 0 -36 -15 -44 -36zM360 556l-73 89l-71 -89h-78l92 144h114l94 -144h-78zM287 -12c-159 0 -255 116 -255 254c0 137 96 253 255 253
c160 0 256 -116 256 -253c0 -138 -96 -254 -256 -254zM287 101c79 0 124 65 124 141c0 75 -45 140 -124 140s-123 -65 -123 -140c0 -76 44 -141 123 -141z" />
    <glyph glyph-name="uni1ED7" unicode="&#x1ed7;" 
d="M267 757c-13 14 -24 27 -40 27c-20 0 -36 -19 -36 -62h-67c0 85 38 134 108 134c38 0 58 -22 75 -41c14 -14 25 -26 41 -26c20 0 36 19 36 61h67c0 -85 -37 -134 -107 -134c-39 0 -60 22 -77 41zM360 556l-73 89l-71 -89h-78l92 144h114l94 -144h-78zM287 -12
c-159 0 -255 116 -255 254c0 137 96 253 255 253c160 0 256 -116 256 -253c0 -138 -96 -254 -256 -254zM287 101c79 0 124 65 124 141c0 75 -45 140 -124 140s-123 -65 -123 -140c0 -76 44 -141 123 -141z" />
    <glyph glyph-name="uni1ED9" unicode="&#x1ed9;" 
d="M360 556l-73 89l-71 -89h-78l92 144h114l94 -144h-78zM287 -12c-159 0 -255 116 -255 254c0 137 96 253 255 253c160 0 256 -116 256 -253c0 -138 -96 -254 -256 -254zM287 101c79 0 124 65 124 141c0 75 -45 140 -124 140s-123 -65 -123 -140c0 -76 44 -141 123 -141z
M219 -119c0 37 31 68 68 68s67 -31 67 -68c0 -38 -30 -68 -67 -68s-68 30 -68 68z" />
    <glyph glyph-name="ohorn" unicode="&#x1a1;" 
d="M552 532c0 -49 -25 -96 -64 -127c36 -45 55 -102 55 -163c0 -138 -96 -254 -256 -254c-159 0 -255 116 -255 254c0 137 96 253 255 253c68 0 125 -21 167 -56c20 16 37 41 42 62c-5 -2 -9 -2 -14 -2c-27 0 -48 20 -48 51c0 30 24 56 55 56c33 0 63 -27 63 -74zM287 101
c79 0 124 65 124 141c0 75 -45 140 -124 140s-123 -65 -123 -140c0 -76 44 -141 123 -141z" />
    <glyph glyph-name="uni1EDB" unicode="&#x1edb;" 
d="M490 700l-162 -144h-89l134 144h117zM552 532c0 -49 -25 -96 -64 -127c36 -45 55 -102 55 -163c0 -138 -96 -254 -256 -254c-159 0 -255 116 -255 254c0 137 96 253 255 253c68 0 125 -21 167 -56c20 16 37 41 42 62c-5 -2 -9 -2 -14 -2c-27 0 -48 20 -48 51
c0 30 24 56 55 56c33 0 63 -27 63 -74zM287 101c79 0 124 65 124 141c0 75 -45 140 -124 140s-123 -65 -123 -140c0 -76 44 -141 123 -141z" />
    <glyph glyph-name="uni1EDD" unicode="&#x1edd;" 
d="M332 556h-89l-162 144h117zM552 532c0 -49 -25 -96 -64 -127c36 -45 55 -102 55 -163c0 -138 -96 -254 -256 -254c-159 0 -255 116 -255 254c0 137 96 253 255 253c68 0 125 -21 167 -56c20 16 37 41 42 62c-5 -2 -9 -2 -14 -2c-27 0 -48 20 -48 51c0 30 24 56 55 56
c33 0 63 -27 63 -74zM287 101c79 0 124 65 124 141c0 75 -45 140 -124 140s-123 -65 -123 -140c0 -76 44 -141 123 -141z" />
    <glyph glyph-name="uni1EDF" unicode="&#x1edf;" 
d="M280 660c-22 0 -36 -15 -44 -36l-59 19c16 47 55 73 103 73c54 0 104 -27 104 -93c0 -27 -8 -45 -21 -66h-70c17 20 25 41 25 63c0 29 -17 40 -38 40zM552 532c0 -49 -25 -96 -64 -127c36 -45 55 -102 55 -163c0 -138 -96 -254 -256 -254c-159 0 -255 116 -255 254
c0 137 96 253 255 253c68 0 125 -21 167 -56c20 16 37 41 42 62c-5 -2 -9 -2 -14 -2c-27 0 -48 20 -48 51c0 30 24 56 55 56c33 0 63 -27 63 -74zM287 101c79 0 124 65 124 141c0 75 -45 140 -124 140s-123 -65 -123 -140c0 -76 44 -141 123 -141z" />
    <glyph glyph-name="uni1EE1" unicode="&#x1ee1;" 
d="M227 622c-20 0 -36 -19 -36 -62h-67c0 85 38 134 108 134c38 0 58 -22 75 -41c14 -14 25 -26 41 -26c20 0 36 19 36 61h67c0 -85 -37 -134 -107 -134c-39 0 -60 22 -77 41c-13 14 -24 27 -40 27zM552 532c0 -49 -25 -96 -64 -127c36 -45 55 -102 55 -163
c0 -138 -96 -254 -256 -254c-159 0 -255 116 -255 254c0 137 96 253 255 253c68 0 125 -21 167 -56c20 16 37 41 42 62c-5 -2 -9 -2 -14 -2c-27 0 -48 20 -48 51c0 30 24 56 55 56c33 0 63 -27 63 -74zM287 101c79 0 124 65 124 141c0 75 -45 140 -124 140
s-123 -65 -123 -140c0 -76 44 -141 123 -141z" />
    <glyph glyph-name="uni1EE3" unicode="&#x1ee3;" 
d="M552 532c0 -49 -25 -96 -64 -127c36 -45 55 -102 55 -163c0 -138 -96 -254 -256 -254c-159 0 -255 116 -255 254c0 137 96 253 255 253c68 0 125 -21 167 -56c20 16 37 41 42 62c-5 -2 -9 -2 -14 -2c-27 0 -48 20 -48 51c0 30 24 56 55 56c33 0 63 -27 63 -74zM287 101
c79 0 124 65 124 141c0 75 -45 140 -124 140s-123 -65 -123 -140c0 -76 44 -141 123 -141zM287 -51c37 0 67 -31 67 -68c0 -38 -30 -68 -67 -68s-68 30 -68 68c0 37 31 68 68 68z" />
    <glyph glyph-name="oe" unicode="&#x153;" horiz-adv-x="931" 
d="M544 201c9 -59 56 -112 139 -112c45 0 96 18 128 47l57 -81c-49 -45 -125 -67 -199 -67c-107 0 -161 59 -194 107c-32 -46 -87 -107 -188 -107c-159 0 -255 116 -255 254c0 137 96 253 255 253c101 0 156 -62 189 -108c30 47 86 108 185 108c144 0 241 -108 241 -266v-28
h-358zM780 287c-3 46 -36 107 -120 107c-78 0 -113 -59 -118 -107h238zM287 382c-74 0 -123 -58 -123 -140c0 -83 49 -142 123 -142c75 0 124 59 124 142c0 82 -49 140 -124 140z" />
    <glyph glyph-name="uni1E57" unicode="&#x1e57;" horiz-adv-x="585" 
d="M254 622c0 37 31 68 68 68s67 -31 67 -68c0 -38 -30 -68 -67 -68s-68 30 -68 68zM190 -184h-127v667h127v-61c37 47 90 73 149 73c124 0 214 -92 214 -253s-90 -254 -214 -254c-57 0 -110 24 -149 74v-246zM421 242c0 83 -49 140 -122 140c-41 0 -88 -24 -109 -55v-171
c21 -30 68 -55 109 -55c73 0 122 57 122 141z" />
    <glyph glyph-name="racute" unicode="&#x155;" horiz-adv-x="360" 
d="M242 556h-89l134 144h117zM63 0v483h127v-66c34 43 94 77 154 77v-124c-9 2 -21 3 -35 3c-42 0 -98 -23 -119 -54v-319h-127z" />
    <glyph glyph-name="rcaron" unicode="&#x159;" horiz-adv-x="360" 
d="M143 556l-94 144h78l74 -90l70 90h78l-92 -144h-114zM63 0v483h127v-66c34 43 94 77 154 77v-124c-9 2 -21 3 -35 3c-42 0 -98 -23 -119 -54v-319h-127z" />
    <glyph glyph-name="uni0157" unicode="&#x157;" horiz-adv-x="360" 
d="M63 0v483h127v-66c34 43 94 77 154 77v-124c-9 2 -21 3 -35 3c-42 0 -98 -23 -119 -54v-319h-127zM117 -288l-44 35c27 15 57 50 63 79c-2 -1 -9 -2 -15 -2c-30 0 -53 23 -53 56c0 35 27 63 61 63c37 0 71 -29 71 -81c0 -61 -34 -115 -83 -150z" />
    <glyph glyph-name="sacute" unicode="&#x15b;" horiz-adv-x="477" 
d="M276 556h-89l134 144h117zM21 63l55 89c35 -33 107 -66 167 -66c55 0 81 19 81 49c0 34 -42 46 -97 57c-83 16 -190 36 -190 151c0 81 71 152 198 152c82 0 147 -28 194 -66l-50 -87c-29 31 -84 56 -143 56c-46 0 -76 -17 -76 -45c0 -30 38 -41 92 -52
c83 -16 194 -38 194 -158c0 -89 -75 -155 -209 -155c-84 0 -165 28 -216 75z" />
    <glyph glyph-name="scaron" unicode="&#x161;" horiz-adv-x="477" 
d="M177 556l-94 144h78l74 -90l70 90h78l-92 -144h-114zM21 63l55 89c35 -33 107 -66 167 -66c55 0 81 19 81 49c0 34 -42 46 -97 57c-83 16 -190 36 -190 151c0 81 71 152 198 152c82 0 147 -28 194 -66l-50 -87c-29 31 -84 56 -143 56c-46 0 -76 -17 -76 -45
c0 -30 38 -41 92 -52c83 -16 194 -38 194 -158c0 -89 -75 -155 -209 -155c-84 0 -165 28 -216 75z" />
    <glyph glyph-name="scircumflex" unicode="&#x15d;" horiz-adv-x="477" 
d="M308 556l-73 89l-71 -89h-78l92 144h114l94 -144h-78zM21 63l55 89c35 -33 107 -66 167 -66c55 0 81 19 81 49c0 34 -42 46 -97 57c-83 16 -190 36 -190 151c0 81 71 152 198 152c82 0 147 -28 194 -66l-50 -87c-29 31 -84 56 -143 56c-46 0 -76 -17 -76 -45
c0 -30 38 -41 92 -52c83 -16 194 -38 194 -158c0 -89 -75 -155 -209 -155c-84 0 -165 28 -216 75z" />
    <glyph glyph-name="uni015F" unicode="&#x15f;" horiz-adv-x="477" 
d="M446 143c0 -83 -65 -146 -183 -154l-17 -40c10 7 23 10 36 10c37 0 67 -28 67 -69c0 -54 -51 -86 -111 -86c-48 0 -89 15 -110 32l25 52c25 -20 54 -30 81 -30s52 11 52 34c0 15 -10 25 -29 25c-13 0 -24 -6 -32 -14l-46 26l22 61c-71 6 -136 33 -180 73l55 89
c35 -33 107 -66 167 -66c55 0 81 19 81 49c0 34 -42 46 -97 57c-83 16 -190 36 -190 151c0 81 71 152 198 152c82 0 147 -28 194 -66l-50 -87c-29 31 -84 56 -143 56c-46 0 -76 -17 -76 -45c0 -30 38 -41 92 -52c83 -16 194 -38 194 -158z" />
    <glyph glyph-name="uni0219" unicode="&#x219;" horiz-adv-x="477" 
d="M21 63l55 89c35 -33 107 -66 167 -66c55 0 81 19 81 49c0 34 -42 46 -97 57c-83 16 -190 36 -190 151c0 81 71 152 198 152c82 0 147 -28 194 -66l-50 -87c-29 31 -84 56 -143 56c-46 0 -76 -17 -76 -45c0 -30 38 -41 92 -52c83 -16 194 -38 194 -158
c0 -89 -75 -155 -209 -155c-84 0 -165 28 -216 75zM223 -288l-44 35c27 15 57 50 63 79c-2 -1 -9 -2 -15 -2c-30 0 -53 23 -53 56c0 35 27 63 61 63c37 0 71 -29 71 -81c0 -61 -34 -115 -83 -150z" />
    <glyph glyph-name="uni1E61" unicode="&#x1e61;" horiz-adv-x="477" 
d="M167 622c0 37 31 68 68 68s67 -31 67 -68c0 -38 -30 -68 -67 -68s-68 30 -68 68zM21 63l55 89c35 -33 107 -66 167 -66c55 0 81 19 81 49c0 34 -42 46 -97 57c-83 16 -190 36 -190 151c0 81 71 152 198 152c82 0 147 -28 194 -66l-50 -87c-29 31 -84 56 -143 56
c-46 0 -76 -17 -76 -45c0 -30 38 -41 92 -52c83 -16 194 -38 194 -158c0 -89 -75 -155 -209 -155c-84 0 -165 28 -216 75z" />
    <glyph glyph-name="germandbls" unicode="&#xdf;" horiz-adv-x="643" 
d="M426 -12c-95 0 -149 33 -197 76l54 88c27 -35 84 -65 143 -65c52 0 79 25 79 52c0 31 -41 42 -90 54c-74 17 -171 40 -171 151c0 63 45 96 80 121c24 17 43 31 43 49c0 33 -39 50 -77 50c-56 0 -100 -33 -100 -89v-475h-127v475c0 110 84 202 229 202
c106 0 206 -55 206 -145c0 -65 -45 -97 -81 -123c-27 -19 -51 -35 -51 -60c0 -28 37 -35 82 -45c76 -16 179 -37 179 -160c0 -90 -78 -156 -201 -156z" />
    <glyph glyph-name="longs" unicode="&#x17f;" horiz-adv-x="327" 
d="M91 0v372h-80v111h80v26c0 105 68 168 163 168c36 0 69 -8 92 -20l-26 -90c-11 7 -26 10 -41 10c-36 0 -60 -24 -60 -70v-507h-128z" />
    <glyph glyph-name="tbar" unicode="&#x167;" horiz-adv-x="338" 
d="M304 115l27 -96c-19 -17 -53 -31 -106 -31c-89 0 -137 46 -137 132v89h-80v72h80v91h-80v111h80v132h128v-132h98v-111h-98v-91h68v-72h-68v-55c0 -30 16 -53 44 -53c19 0 37 7 44 14z" />
    <glyph glyph-name="tcaron" unicode="&#x165;" horiz-adv-x="380" 
d="M319 533l-44 35c27 15 57 50 63 79c-2 -1 -9 -2 -15 -2c-30 0 -53 23 -53 56c0 35 27 63 61 63c37 0 71 -29 71 -81c0 -61 -34 -115 -83 -150zM225 -12c-89 0 -137 46 -137 132v252h-80v111h80v132h128v-132h98v-111h-98v-218c0 -30 16 -53 44 -53c19 0 37 7 44 14
l27 -96c-19 -17 -53 -31 -106 -31z" />
    <glyph glyph-name="uni0163" unicode="&#x163;" horiz-adv-x="338" 
d="M225 -12c-89 0 -137 46 -137 132v252h-80v111h80v132h128v-132h98v-111h-98v-218c0 -30 16 -53 44 -53c19 0 37 7 44 14l27 -96c-19 -17 -53 -31 -106 -31zM157 -288l-44 35c27 15 57 50 63 79c-2 -1 -9 -2 -15 -2c-30 0 -53 23 -53 56c0 35 27 63 61 63
c37 0 71 -29 71 -81c0 -61 -34 -115 -83 -150z" />
    <glyph glyph-name="uni021B" unicode="&#x21b;" horiz-adv-x="338" 
d="M225 -12c-89 0 -137 46 -137 132v252h-80v111h80v132h128v-132h98v-111h-98v-218c0 -30 16 -53 44 -53c19 0 37 7 44 14l27 -96c-19 -17 -53 -31 -106 -31zM157 -288l-44 35c27 15 57 50 63 79c-2 -1 -9 -2 -15 -2c-30 0 -53 23 -53 56c0 35 27 63 61 63
c37 0 71 -29 71 -81c0 -61 -34 -115 -83 -150z" />
    <glyph glyph-name="uni1E6B" unicode="&#x1e6b;" horiz-adv-x="338" 
d="M85 789c0 37 31 68 68 68s67 -31 67 -68c0 -38 -30 -68 -67 -68s-68 30 -68 68zM225 -12c-89 0 -137 46 -137 132v252h-80v111h80v132h128v-132h98v-111h-98v-218c0 -30 16 -53 44 -53c19 0 37 7 44 14l27 -96c-19 -17 -53 -31 -106 -31z" />
    <glyph glyph-name="uacute" unicode="&#xfa;" horiz-adv-x="579" 
d="M330 556h-89l134 144h117zM389 0v61c-33 -37 -91 -73 -170 -73c-106 0 -156 58 -156 152v343h127v-293c0 -67 35 -89 89 -89c49 0 88 27 110 55v327h127v-483h-127z" />
    <glyph glyph-name="ubreve" unicode="&#x16d;" horiz-adv-x="579" 
d="M289 553c-71 0 -135 34 -176 88l56 46c27 -37 68 -62 120 -62c50 0 91 24 119 62l56 -46c-40 -54 -103 -88 -175 -88zM389 0v61c-33 -37 -91 -73 -170 -73c-106 0 -156 58 -156 152v343h127v-293c0 -67 35 -89 89 -89c49 0 88 27 110 55v327h127v-483h-127z" />
    <glyph glyph-name="ucircumflex" unicode="&#xfb;" horiz-adv-x="579" 
d="M362 556l-73 89l-71 -89h-78l92 144h114l94 -144h-78zM389 0v61c-33 -37 -91 -73 -170 -73c-106 0 -156 58 -156 152v343h127v-293c0 -67 35 -89 89 -89c49 0 88 27 110 55v327h127v-483h-127z" />
    <glyph glyph-name="udieresis" unicode="&#xfc;" horiz-adv-x="579" 
d="M184 555c-38 0 -68 30 -68 68c0 37 30 67 68 67c37 0 67 -30 67 -67c0 -38 -30 -68 -67 -68zM395 555c-37 0 -68 30 -68 68c0 37 31 67 68 67s68 -30 68 -67c0 -38 -31 -68 -68 -68zM389 0v61c-33 -37 -91 -73 -170 -73c-106 0 -156 58 -156 152v343h127v-293
c0 -67 35 -89 89 -89c49 0 88 27 110 55v327h127v-483h-127z" />
    <glyph glyph-name="ugrave" unicode="&#xf9;" horiz-adv-x="579" 
d="M245 556l-162 144h117l134 -144h-89zM389 0v61c-33 -37 -91 -73 -170 -73c-106 0 -156 58 -156 152v343h127v-293c0 -67 35 -89 89 -89c49 0 88 27 110 55v327h127v-483h-127z" />
    <glyph glyph-name="uhungarumlaut" unicode="&#x171;" horiz-adv-x="579" 
d="M249 556h-74l87 144h102zM398 556h-74l87 144h102zM389 0v61c-33 -37 -91 -73 -170 -73c-106 0 -156 58 -156 152v343h127v-293c0 -67 35 -89 89 -89c49 0 88 27 110 55v327h127v-483h-127z" />
    <glyph glyph-name="umacron" unicode="&#x16b;" horiz-adv-x="579" 
d="M121 562v72h335v-72h-335zM389 0v61c-33 -37 -91 -73 -170 -73c-106 0 -156 58 -156 152v343h127v-293c0 -67 35 -89 89 -89c49 0 88 27 110 55v327h127v-483h-127z" />
    <glyph glyph-name="uogonek" unicode="&#x173;" horiz-adv-x="579" 
d="M516 0c-60 -18 -88 -45 -88 -76c0 -20 16 -31 34 -31c9 0 19 2 29 7l24 -68c-23 -13 -52 -18 -88 -18c-55 0 -113 23 -113 80c0 46 44 81 108 106h-33v61c-33 -37 -91 -73 -170 -73c-106 0 -156 58 -156 152v343h127v-293c0 -67 35 -89 89 -89c49 0 88 27 110 55v327h127
v-483z" />
    <glyph glyph-name="uring" unicode="&#x16f;" horiz-adv-x="579" 
d="M185 636c0 57 48 106 105 106c58 0 104 -49 104 -106c0 -58 -46 -105 -104 -105c-57 0 -105 47 -105 105zM336 636c0 26 -20 47 -46 47c-25 0 -47 -21 -47 -47c0 -25 22 -47 47 -47c26 0 46 22 46 47zM389 0v61c-33 -37 -91 -73 -170 -73c-106 0 -156 58 -156 152v343
h127v-293c0 -67 35 -89 89 -89c49 0 88 27 110 55v327h127v-483h-127z" />
    <glyph glyph-name="utilde" unicode="&#x169;" horiz-adv-x="579" 
d="M269 595c-13 14 -24 27 -40 27c-20 0 -36 -19 -36 -62h-67c0 85 38 134 108 134c38 0 58 -22 75 -41c14 -14 25 -26 41 -26c20 0 36 19 36 61h67c0 -85 -37 -134 -107 -134c-39 0 -60 22 -77 41zM389 0v61c-33 -37 -91 -73 -170 -73c-106 0 -156 58 -156 152v343h127
v-293c0 -67 35 -89 89 -89c49 0 88 27 110 55v327h127v-483h-127z" />
    <glyph glyph-name="uni1EE5" unicode="&#x1ee5;" horiz-adv-x="579" 
d="M389 0v61c-33 -37 -91 -73 -170 -73c-106 0 -156 58 -156 152v343h127v-293c0 -67 35 -89 89 -89c49 0 88 27 110 55v327h127v-483h-127zM221 -119c0 37 31 68 68 68s67 -31 67 -68c0 -38 -30 -68 -67 -68s-68 30 -68 68z" />
    <glyph glyph-name="uhorn" unicode="&#x1b0;" horiz-adv-x="579" 
d="M598 545c0 -50 -28 -104 -82 -140v-405h-127v61c-33 -37 -91 -73 -170 -73c-106 0 -156 58 -156 152v343h127v-293c0 -67 35 -89 89 -89c49 0 88 27 110 55v327h127v-17c13 15 23 32 26 48c-2 -1 -9 -2 -14 -2c-28 0 -48 20 -48 51c0 30 24 56 55 56c34 0 63 -27 63 -74z
" />
    <glyph glyph-name="uni1EE7" unicode="&#x1ee7;" horiz-adv-x="579" 
d="M179 643c16 47 55 73 103 73c54 0 104 -27 104 -93c0 -27 -8 -45 -21 -66h-70c17 20 25 41 25 63c0 29 -17 40 -38 40c-22 0 -36 -15 -44 -36zM389 0v61c-33 -37 -91 -73 -170 -73c-106 0 -156 58 -156 152v343h127v-293c0 -67 35 -89 89 -89c49 0 88 27 110 55v327h127
v-483h-127z" />
    <glyph glyph-name="uni1EE9" unicode="&#x1ee9;" horiz-adv-x="579" 
d="M492 700l-162 -144h-89l134 144h117zM598 545c0 -50 -28 -104 -82 -140v-405h-127v61c-33 -37 -91 -73 -170 -73c-106 0 -156 58 -156 152v343h127v-293c0 -67 35 -89 89 -89c49 0 88 27 110 55v327h127v-17c13 15 23 32 26 48c-2 -1 -9 -2 -14 -2c-28 0 -48 20 -48 51
c0 30 24 56 55 56c34 0 63 -27 63 -74z" />
    <glyph glyph-name="uni1EEB" unicode="&#x1eeb;" horiz-adv-x="579" 
d="M334 556h-89l-162 144h117zM598 545c0 -50 -28 -104 -82 -140v-405h-127v61c-33 -37 -91 -73 -170 -73c-106 0 -156 58 -156 152v343h127v-293c0 -67 35 -89 89 -89c49 0 88 27 110 55v327h127v-17c13 15 23 32 26 48c-2 -1 -9 -2 -14 -2c-28 0 -48 20 -48 51
c0 30 24 56 55 56c34 0 63 -27 63 -74z" />
    <glyph glyph-name="uni1EED" unicode="&#x1eed;" horiz-adv-x="579" 
d="M282 660c-22 0 -36 -15 -44 -36l-59 19c16 47 55 73 103 73c54 0 104 -27 104 -93c0 -27 -8 -45 -21 -66h-70c17 20 25 41 25 63c0 29 -17 40 -38 40zM598 545c0 -50 -28 -104 -82 -140v-405h-127v61c-33 -37 -91 -73 -170 -73c-106 0 -156 58 -156 152v343h127v-293
c0 -67 35 -89 89 -89c49 0 88 27 110 55v327h127v-17c13 15 23 32 26 48c-2 -1 -9 -2 -14 -2c-28 0 -48 20 -48 51c0 30 24 56 55 56c34 0 63 -27 63 -74z" />
    <glyph glyph-name="uni1EEF" unicode="&#x1eef;" horiz-adv-x="579" 
d="M229 622c-20 0 -36 -19 -36 -62h-67c0 85 38 134 108 134c38 0 58 -22 75 -41c14 -14 25 -26 41 -26c20 0 36 19 36 61h67c0 -85 -37 -134 -107 -134c-39 0 -60 22 -77 41c-13 14 -24 27 -40 27zM598 545c0 -50 -28 -104 -82 -140v-405h-127v61c-33 -37 -91 -73 -170 -73
c-106 0 -156 58 -156 152v343h127v-293c0 -67 35 -89 89 -89c49 0 88 27 110 55v327h127v-17c13 15 23 32 26 48c-2 -1 -9 -2 -14 -2c-28 0 -48 20 -48 51c0 30 24 56 55 56c34 0 63 -27 63 -74z" />
    <glyph glyph-name="uni1EF1" unicode="&#x1ef1;" horiz-adv-x="579" 
d="M598 545c0 -50 -28 -104 -82 -140v-405h-127v61c-33 -37 -91 -73 -170 -73c-106 0 -156 58 -156 152v343h127v-293c0 -67 35 -89 89 -89c49 0 88 27 110 55v327h127v-17c13 15 23 32 26 48c-2 -1 -9 -2 -14 -2c-28 0 -48 20 -48 51c0 30 24 56 55 56c34 0 63 -27 63 -74z
M289 -51c37 0 67 -31 67 -68c0 -38 -30 -68 -67 -68s-68 30 -68 68c0 37 31 68 68 68z" />
    <glyph glyph-name="wacute" unicode="&#x1e83;" horiz-adv-x="769" 
d="M426 556h-89l134 144h117zM487 0l-102 329l-102 -329h-136l-147 483h132l90 -325l106 325h113l106 -325l90 325h132l-147 -483h-135z" />
    <glyph glyph-name="wcircumflex" unicode="&#x175;" horiz-adv-x="769" 
d="M458 556l-73 89l-71 -89h-78l92 144h114l94 -144h-78zM487 0l-102 329l-102 -329h-136l-147 483h132l90 -325l106 325h113l106 -325l90 325h132l-147 -483h-135z" />
    <glyph glyph-name="wdieresis" unicode="&#x1e85;" horiz-adv-x="769" 
d="M280 555c-38 0 -68 30 -68 68c0 37 30 67 68 67c37 0 67 -30 67 -67c0 -38 -30 -68 -67 -68zM491 555c-37 0 -68 30 -68 68c0 37 31 67 68 67s68 -30 68 -67c0 -38 -31 -68 -68 -68zM487 0l-102 329l-102 -329h-136l-147 483h132l90 -325l106 325h113l106 -325l90 325
h132l-147 -483h-135z" />
    <glyph glyph-name="wgrave" unicode="&#x1e81;" horiz-adv-x="769" 
d="M341 556l-162 144h117l134 -144h-89zM487 0l-102 329l-102 -329h-136l-147 483h132l90 -325l106 325h113l106 -325l90 325h132l-147 -483h-135z" />
    <glyph glyph-name="yacute" unicode="&#xfd;" horiz-adv-x="513" 
d="M297 556h-89l134 144h117zM65 -75c11 -5 28 -8 40 -8c33 0 55 9 67 35l18 41l-196 490h136l126 -336l126 336h137l-227 -562c-36 -91 -100 -115 -183 -117c-15 0 -47 3 -63 7z" />
    <glyph glyph-name="ycircumflex" unicode="&#x177;" horiz-adv-x="513" 
d="M329 556l-73 89l-71 -89h-78l92 144h114l94 -144h-78zM65 -75c11 -5 28 -8 40 -8c33 0 55 9 67 35l18 41l-196 490h136l126 -336l126 336h137l-227 -562c-36 -91 -100 -115 -183 -117c-15 0 -47 3 -63 7z" />
    <glyph glyph-name="ydieresis" unicode="&#xff;" horiz-adv-x="513" 
d="M151 555c-38 0 -68 30 -68 68c0 37 30 67 68 67c37 0 67 -30 67 -67c0 -38 -30 -68 -67 -68zM362 555c-37 0 -68 30 -68 68c0 37 31 67 68 67s68 -30 68 -67c0 -38 -31 -68 -68 -68zM65 -75c11 -5 28 -8 40 -8c33 0 55 9 67 35l18 41l-196 490h136l126 -336l126 336h137
l-227 -562c-36 -91 -100 -115 -183 -117c-15 0 -47 3 -63 7z" />
    <glyph glyph-name="ygrave" unicode="&#x1ef3;" horiz-adv-x="513" 
d="M212 556l-162 144h117l134 -144h-89zM65 -75c11 -5 28 -8 40 -8c33 0 55 9 67 35l18 41l-196 490h136l126 -336l126 336h137l-227 -562c-36 -91 -100 -115 -183 -117c-15 0 -47 3 -63 7z" />
    <glyph glyph-name="uni0233" unicode="&#x233;" horiz-adv-x="513" 
d="M88 562v72h335v-72h-335zM65 -75c11 -5 28 -8 40 -8c33 0 55 9 67 35l18 41l-196 490h136l126 -336l126 336h137l-227 -562c-36 -91 -100 -115 -183 -117c-15 0 -47 3 -63 7z" />
    <glyph glyph-name="uni1EF5" unicode="&#x1ef5;" horiz-adv-x="513" 
d="M65 -75c11 -5 28 -8 40 -8c33 0 55 9 67 35l18 41l-196 490h136l126 -336l126 336h137l-227 -562c-36 -91 -100 -115 -183 -117c-15 0 -47 3 -63 7zM188 -268c0 37 31 68 68 68s67 -31 67 -68c0 -38 -30 -68 -67 -68s-68 30 -68 68z" />
    <glyph glyph-name="uni1EF7" unicode="&#x1ef7;" horiz-adv-x="513" 
d="M146 643c16 47 55 73 103 73c54 0 104 -27 104 -93c0 -27 -8 -45 -21 -66h-70c17 20 25 41 25 63c0 29 -17 40 -38 40c-22 0 -36 -15 -44 -36zM65 -75c11 -5 28 -8 40 -8c33 0 55 9 67 35l18 41l-196 490h136l126 -336l126 336h137l-227 -562
c-36 -91 -100 -115 -183 -117c-15 0 -47 3 -63 7z" />
    <glyph glyph-name="uni1EF9" unicode="&#x1ef9;" horiz-adv-x="513" 
d="M236 595c-13 14 -24 27 -40 27c-20 0 -36 -19 -36 -62h-67c0 85 38 134 108 134c38 0 58 -22 75 -41c14 -14 25 -26 41 -26c20 0 36 19 36 61h67c0 -85 -37 -134 -107 -134c-39 0 -60 22 -77 41zM65 -75c11 -5 28 -8 40 -8c33 0 55 9 67 35l18 41l-196 490h136l126 -336
l126 336h137l-227 -562c-36 -91 -100 -115 -183 -117c-15 0 -47 3 -63 7z" />
    <glyph glyph-name="yacute.alt1" horiz-adv-x="579" 
d="M331 556h-89l134 144h117zM57 -124l57 92c35 -43 94 -60 145 -60c82 0 130 44 130 124v50c-33 -37 -91 -73 -170 -73c-106 0 -156 58 -156 152v322h127v-272c0 -68 35 -89 89 -89c49 0 88 27 110 55v306h127v-445c0 -151 -103 -234 -257 -234c-81 0 -146 23 -202 72z" />
    <glyph glyph-name="ycircumflex.alt1" horiz-adv-x="579" 
d="M363 556l-73 89l-71 -89h-78l92 144h114l94 -144h-78zM57 -124l57 92c35 -43 94 -60 145 -60c82 0 130 44 130 124v50c-33 -37 -91 -73 -170 -73c-106 0 -156 58 -156 152v322h127v-272c0 -68 35 -89 89 -89c49 0 88 27 110 55v306h127v-445c0 -151 -103 -234 -257 -234
c-81 0 -146 23 -202 72z" />
    <glyph glyph-name="ydieresis.alt1" horiz-adv-x="579" 
d="M185 555c-38 0 -68 30 -68 68c0 37 30 67 68 67c37 0 67 -30 67 -67c0 -38 -30 -68 -67 -68zM396 555c-37 0 -68 30 -68 68c0 37 31 67 68 67s68 -30 68 -67c0 -38 -31 -68 -68 -68zM57 -124l57 92c35 -43 94 -60 145 -60c82 0 130 44 130 124v50
c-33 -37 -91 -73 -170 -73c-106 0 -156 58 -156 152v322h127v-272c0 -68 35 -89 89 -89c49 0 88 27 110 55v306h127v-445c0 -151 -103 -234 -257 -234c-81 0 -146 23 -202 72z" />
    <glyph glyph-name="ygrave.alt1" horiz-adv-x="579" 
d="M246 556l-162 144h117l134 -144h-89zM57 -124l57 92c35 -43 94 -60 145 -60c82 0 130 44 130 124v50c-33 -37 -91 -73 -170 -73c-106 0 -156 58 -156 152v322h127v-272c0 -68 35 -89 89 -89c49 0 88 27 110 55v306h127v-445c0 -151 -103 -234 -257 -234
c-81 0 -146 23 -202 72z" />
    <glyph glyph-name="uni0233.alt1" horiz-adv-x="579" 
d="M122 562v72h335v-72h-335zM57 -124l57 92c35 -43 94 -60 145 -60c82 0 130 44 130 124v50c-33 -37 -91 -73 -170 -73c-106 0 -156 58 -156 152v322h127v-272c0 -68 35 -89 89 -89c49 0 88 27 110 55v306h127v-445c0 -151 -103 -234 -257 -234c-81 0 -146 23 -202 72z" />
    <glyph glyph-name="uni1EF5.alt1" horiz-adv-x="579" 
d="M57 -124l57 92c35 -43 94 -60 145 -60c82 0 130 44 130 124v50c-33 -37 -91 -73 -170 -73c-106 0 -156 58 -156 152v322h127v-272c0 -68 35 -89 89 -89c49 0 88 27 110 55v306h127v-445c0 -151 -103 -234 -257 -234c-81 0 -146 23 -202 72zM212 -300c0 37 31 68 68 68
s67 -31 67 -68c0 -38 -30 -68 -67 -68s-68 30 -68 68z" />
    <glyph glyph-name="uni1EF7.alt1" horiz-adv-x="579" 
d="M180 643c16 47 55 73 103 73c54 0 104 -27 104 -93c0 -27 -8 -45 -21 -66h-70c17 20 25 41 25 63c0 29 -17 40 -38 40c-22 0 -36 -15 -44 -36zM57 -124l57 92c35 -43 94 -60 145 -60c82 0 130 44 130 124v50c-33 -37 -91 -73 -170 -73c-106 0 -156 58 -156 152v322h127
v-272c0 -68 35 -89 89 -89c49 0 88 27 110 55v306h127v-445c0 -151 -103 -234 -257 -234c-81 0 -146 23 -202 72z" />
    <glyph glyph-name="uni1EF9.alt1" horiz-adv-x="579" 
d="M270 595c-13 14 -24 27 -40 27c-20 0 -36 -19 -36 -62h-67c0 85 38 134 108 134c38 0 58 -22 75 -41c14 -14 25 -26 41 -26c20 0 36 19 36 61h67c0 -85 -37 -134 -107 -134c-39 0 -60 22 -77 41zM57 -124l57 92c35 -43 94 -60 145 -60c82 0 130 44 130 124v50
c-33 -37 -91 -73 -170 -73c-106 0 -156 58 -156 152v322h127v-272c0 -68 35 -89 89 -89c49 0 88 27 110 55v306h127v-445c0 -151 -103 -234 -257 -234c-81 0 -146 23 -202 72z" />
    <glyph glyph-name="zacute" unicode="&#x17a;" horiz-adv-x="479" 
d="M281 556h-89l134 144h117zM42 0v95l218 277h-218v111h390v-92l-221 -280h225v-111h-394z" />
    <glyph glyph-name="zcaron" unicode="&#x17e;" horiz-adv-x="479" 
d="M182 556l-94 144h78l74 -90l70 90h78l-92 -144h-114zM42 0v95l218 277h-218v111h390v-92l-221 -280h225v-111h-394z" />
    <glyph glyph-name="zdotaccent" unicode="&#x17c;" horiz-adv-x="479" 
d="M172 622c0 37 31 68 68 68s67 -31 67 -68c0 -38 -30 -68 -67 -68s-68 30 -68 68zM42 0v95l218 277h-218v111h390v-92l-221 -280h225v-111h-394z" />
    <glyph glyph-name="eth" unicode="&#xf0;" 
d="M372 588c106 -95 171 -203 171 -336c0 -156 -96 -264 -256 -264c-154 0 -255 99 -255 236c0 138 93 236 214 236c69 0 121 -32 160 -93c-27 61 -87 117 -157 167l-146 -65l-25 60l107 47c-20 13 -41 25 -61 37l69 103c45 -27 86 -54 124 -83l102 45l25 -58zM287 101
c79 0 124 56 124 123s-45 123 -124 123s-123 -56 -123 -123s44 -123 123 -123z" />
    <glyph glyph-name="thorn" unicode="&#xfe;" horiz-adv-x="585" 
d="M190 62v-246h-127v851h127v-245c37 47 90 73 149 73c124 0 214 -92 214 -253s-90 -254 -214 -254c-57 0 -110 24 -149 74zM421 242c0 83 -49 140 -122 140c-41 0 -88 -24 -109 -55v-171c21 -30 68 -55 109 -55c73 0 122 57 122 141z" />
    <glyph glyph-name="Aacute.smcp" horiz-adv-x="597" 
d="M339 606h-89l134 144h117zM379 550l223 -550h-145l-37 93h-243l-36 -93h-146l223 550h161zM298 432l-84 -227h169z" />
    <glyph glyph-name="Abreve.smcp" horiz-adv-x="597" 
d="M298 603c-71 0 -135 34 -176 88l56 46c27 -37 68 -62 120 -62c50 0 91 24 119 62l56 -46c-40 -54 -103 -88 -175 -88zM379 550l223 -550h-145l-37 93h-243l-36 -93h-146l223 550h161zM298 432l-84 -227h169z" />
    <glyph glyph-name="Acircumflex.smcp" horiz-adv-x="597" 
d="M371 606l-73 89l-71 -89h-78l92 144h114l94 -144h-78zM379 550l223 -550h-145l-37 93h-243l-36 -93h-146l223 550h161zM298 432l-84 -227h169z" />
    <glyph glyph-name="Adieresis.smcp" horiz-adv-x="597" 
d="M193 605c-38 0 -68 30 -68 68c0 37 30 67 68 67c37 0 67 -30 67 -67c0 -38 -30 -68 -67 -68zM404 605c-37 0 -68 30 -68 68c0 37 31 67 68 67s68 -30 68 -67c0 -38 -31 -68 -68 -68zM379 550l223 -550h-145l-37 93h-243l-36 -93h-146l223 550h161zM298 432l-84 -227h169z
" />
    <glyph glyph-name="Agrave.smcp" horiz-adv-x="597" 
d="M254 606l-162 144h117l134 -144h-89zM379 550l223 -550h-145l-37 93h-243l-36 -93h-146l223 550h161zM298 432l-84 -227h169z" />
    <glyph glyph-name="Amacron.smcp" horiz-adv-x="597" 
d="M130 612v72h335v-72h-335zM379 550l223 -550h-145l-37 93h-243l-36 -93h-146l223 550h161zM298 432l-84 -227h169z" />
    <glyph glyph-name="Aogonek.smcp" horiz-adv-x="597" 
d="M578 0c-60 -18 -88 -45 -88 -76c0 -20 16 -31 34 -31c9 0 19 2 29 7l24 -68c-23 -13 -52 -18 -88 -18c-55 0 -113 23 -113 80c0 46 44 81 108 106h-27l-37 93h-243l-36 -93h-146l223 550h161l223 -550h-24zM214 205h169l-85 227z" />
    <glyph glyph-name="Aring.smcp" horiz-adv-x="597" 
d="M194 686c0 57 48 106 105 106c58 0 104 -49 104 -106c0 -58 -46 -105 -104 -105c-57 0 -105 47 -105 105zM345 686c0 26 -20 47 -46 47c-25 0 -47 -21 -47 -47c0 -25 22 -47 47 -47c26 0 46 22 46 47zM379 550l223 -550h-145l-37 93h-243l-36 -93h-146l223 550h161z
M298 432l-84 -227h169z" />
    <glyph glyph-name="Aringacute.smcp" horiz-adv-x="597" 
d="M339 818h-89l134 144h117zM194 686c0 57 48 106 105 106c58 0 104 -49 104 -106c0 -58 -46 -105 -104 -105c-57 0 -105 47 -105 105zM345 686c0 26 -20 47 -46 47c-25 0 -47 -21 -47 -47c0 -25 22 -47 47 -47c26 0 46 22 46 47zM379 550l223 -550h-145l-37 93h-243
l-36 -93h-146l223 550h161zM298 432l-84 -227h169z" />
    <glyph glyph-name="Atilde.smcp" horiz-adv-x="597" 
d="M278 645c-13 14 -24 27 -40 27c-20 0 -36 -19 -36 -62h-67c0 85 38 134 108 134c38 0 58 -22 75 -41c14 -14 25 -26 41 -26c20 0 36 19 36 61h67c0 -85 -37 -134 -107 -134c-39 0 -60 22 -77 41zM379 550l223 -550h-145l-37 93h-243l-36 -93h-146l223 550h161zM298 432
l-84 -227h169z" />
    <glyph glyph-name="uni1EA0.smcp" horiz-adv-x="597" 
d="M379 550l223 -550h-145l-37 93h-243l-36 -93h-146l223 550h161zM298 432l-84 -227h169zM230 -119c0 37 31 68 68 68s67 -31 67 -68c0 -38 -30 -68 -67 -68s-68 30 -68 68z" />
    <glyph glyph-name="uni1EA2.smcp" horiz-adv-x="597" 
d="M188 693c16 47 55 73 103 73c54 0 104 -27 104 -93c0 -27 -8 -45 -21 -66h-70c17 20 25 41 25 63c0 29 -17 40 -38 40c-22 0 -36 -15 -44 -36zM379 550l223 -550h-145l-37 93h-243l-36 -93h-146l223 550h161zM298 432l-84 -227h169z" />
    <glyph glyph-name="uni1EA4.smcp" horiz-adv-x="597" 
d="M508 706h-89l134 144h117zM371 606l-73 89l-71 -89h-78l92 144h114l94 -144h-78zM379 550l223 -550h-145l-37 93h-243l-36 -93h-146l223 550h161zM298 432l-84 -227h169z" />
    <glyph glyph-name="uni1EAC.smcp" horiz-adv-x="597" 
d="M371 606l-73 89l-71 -89h-78l92 144h114l94 -144h-78zM379 550l223 -550h-145l-37 93h-243l-36 -93h-146l223 550h161zM298 432l-84 -227h169zM230 -119c0 37 31 68 68 68s67 -31 67 -68c0 -38 -30 -68 -67 -68s-68 30 -68 68z" />
    <glyph glyph-name="uni1EA6.smcp" horiz-adv-x="597" 
d="M93 706l-162 144h117l134 -144h-89zM371 606l-73 89l-71 -89h-78l92 144h114l94 -144h-78zM379 550l223 -550h-145l-37 93h-243l-36 -93h-146l223 550h161zM298 432l-84 -227h169z" />
    <glyph glyph-name="uni1EA8.smcp" horiz-adv-x="597" 
d="M303 792c16 47 55 73 103 73c54 0 104 -27 104 -93c0 -27 -8 -45 -21 -66h-70c17 20 25 41 25 63c0 29 -17 40 -38 40c-22 0 -36 -15 -44 -36zM371 606l-73 89l-71 -89h-78l92 144h114l94 -144h-78zM379 550l223 -550h-145l-37 93h-243l-36 -93h-146l223 550h161z
M298 432l-84 -227h169z" />
    <glyph glyph-name="uni1EAE.smcp" horiz-adv-x="597" 
d="M339 743h-89l134 144h117zM298 603c-71 0 -135 34 -176 88l56 46c27 -37 68 -62 120 -62c50 0 91 24 119 62l56 -46c-40 -54 -103 -88 -175 -88zM379 550l223 -550h-145l-37 93h-243l-36 -93h-146l223 550h161zM298 432l-84 -227h169z" />
    <glyph glyph-name="uni1EAA.smcp" horiz-adv-x="597" 
d="M278 807c-13 14 -24 27 -40 27c-20 0 -36 -19 -36 -62h-67c0 85 38 134 108 134c38 0 58 -22 75 -41c14 -14 25 -26 41 -26c20 0 36 19 36 61h67c0 -85 -37 -134 -107 -134c-39 0 -60 22 -77 41zM371 606l-73 89l-71 -89h-78l92 144h114l94 -144h-78zM379 550l223 -550
h-145l-37 93h-243l-36 -93h-146l223 550h161zM298 432l-84 -227h169z" />
    <glyph glyph-name="uni1EB0.smcp" horiz-adv-x="597" 
d="M254 743l-162 144h117l134 -144h-89zM298 603c-71 0 -135 34 -176 88l56 46c27 -37 68 -62 120 -62c50 0 91 24 119 62l56 -46c-40 -54 -103 -88 -175 -88zM379 550l223 -550h-145l-37 93h-243l-36 -93h-146l223 550h161zM298 432l-84 -227h169z" />
    <glyph glyph-name="uni1EB2.smcp" horiz-adv-x="597" 
d="M188 830c16 47 55 73 103 73c54 0 104 -27 104 -93c0 -27 -8 -45 -21 -66h-70c17 20 25 41 25 63c0 29 -17 40 -38 40c-22 0 -36 -15 -44 -36zM298 603c-71 0 -135 34 -176 88l56 46c27 -37 68 -62 120 -62c50 0 91 24 119 62l56 -46c-40 -54 -103 -88 -175 -88zM379 550
l223 -550h-145l-37 93h-243l-36 -93h-146l223 550h161zM298 432l-84 -227h169z" />
    <glyph glyph-name="uni1EB4.smcp" horiz-adv-x="597" 
d="M278 782c-13 14 -24 27 -40 27c-20 0 -36 -19 -36 -62h-67c0 85 38 134 108 134c38 0 58 -22 75 -41c14 -14 25 -26 41 -26c20 0 36 19 36 61h67c0 -85 -37 -134 -107 -134c-39 0 -60 22 -77 41zM298 603c-71 0 -135 34 -176 88l56 46c27 -37 68 -62 120 -62
c50 0 91 24 119 62l56 -46c-40 -54 -103 -88 -175 -88zM379 550l223 -550h-145l-37 93h-243l-36 -93h-146l223 550h161zM298 432l-84 -227h169z" />
    <glyph glyph-name="uni1EB6.smcp" horiz-adv-x="597" 
d="M298 603c-71 0 -135 34 -176 88l56 46c27 -37 68 -62 120 -62c50 0 91 24 119 62l56 -46c-40 -54 -103 -88 -175 -88zM379 550l223 -550h-145l-37 93h-243l-36 -93h-146l223 550h161zM298 432l-84 -227h169zM230 -119c0 37 31 68 68 68s67 -31 67 -68
c0 -38 -30 -68 -67 -68s-68 30 -68 68z" />
    <glyph glyph-name="AE.smcp" horiz-adv-x="845" 
d="M388 0v90h-191l-54 -90h-149l342 550h467v-111h-283v-103h276v-112h-276v-112h283v-112h-415zM388 423l-130 -221h130v221z" />
    <glyph glyph-name="AEacute.smcp" horiz-adv-x="845" 
d="M496 606h-89l134 144h117zM388 0v90h-191l-54 -90h-149l342 550h467v-111h-283v-103h276v-112h-276v-112h283v-112h-415zM388 423l-130 -221h130v221z" />
    <glyph glyph-name="uni1E02.smcp" horiz-adv-x="586" 
d="M227 672c0 37 31 68 68 68s67 -31 67 -68c0 -38 -30 -68 -67 -68s-68 30 -68 68zM63 0v550h306c113 0 170 -67 170 -141c0 -66 -42 -111 -94 -125c61 -14 106 -68 106 -135c0 -82 -60 -149 -172 -149h-316zM405 388c0 30 -22 53 -61 53h-149v-107h149c39 0 61 24 61 54z
M416 167c0 30 -23 59 -65 59h-156v-117h156c40 0 65 23 65 58z" />
    <glyph glyph-name="Cacute.smcp" horiz-adv-x="585" 
d="M372 606h-89l134 144h117zM32 275c0 170 128 287 299 287c119 0 197 -64 238 -140l-110 -53c-24 44 -71 77 -128 77c-95 0 -165 -73 -165 -171s70 -171 165 -171c57 0 106 32 128 76l110 -51c-41 -77 -119 -141 -238 -141c-171 0 -299 118 -299 287z" />
    <glyph glyph-name="Ccaron.smcp" horiz-adv-x="585" 
d="M273 606l-94 144h78l74 -90l70 90h78l-92 -144h-114zM32 275c0 170 128 287 299 287c119 0 197 -64 238 -140l-110 -53c-24 44 -71 77 -128 77c-95 0 -165 -73 -165 -171s70 -171 165 -171c57 0 106 32 128 76l110 -51c-41 -77 -119 -141 -238 -141
c-171 0 -299 118 -299 287z" />
    <glyph glyph-name="Ccedilla.smcp" horiz-adv-x="585" 
d="M331 104c57 0 106 32 128 76l110 -51c-38 -71 -107 -131 -210 -140l-17 -40c10 7 23 10 36 10c37 0 67 -28 67 -69c0 -54 -51 -86 -111 -86c-48 0 -89 15 -110 32l25 52c25 -20 54 -30 81 -30s52 11 52 34c0 15 -10 25 -29 25c-13 0 -24 -6 -32 -14l-46 26l22 61
c-154 14 -265 127 -265 285c0 170 128 287 299 287c119 0 197 -64 238 -140l-110 -53c-24 44 -71 77 -128 77c-95 0 -165 -73 -165 -171s70 -171 165 -171z" />
    <glyph glyph-name="Ccircumflex.smcp" horiz-adv-x="585" 
d="M404 606l-73 89l-71 -89h-78l92 144h114l94 -144h-78zM32 275c0 170 128 287 299 287c119 0 197 -64 238 -140l-110 -53c-24 44 -71 77 -128 77c-95 0 -165 -73 -165 -171s70 -171 165 -171c57 0 106 32 128 76l110 -51c-41 -77 -119 -141 -238 -141
c-171 0 -299 118 -299 287z" />
    <glyph glyph-name="Cdotaccent.smcp" horiz-adv-x="585" 
d="M263 672c0 37 31 68 68 68s67 -31 67 -68c0 -38 -30 -68 -67 -68s-68 30 -68 68zM32 275c0 170 128 287 299 287c119 0 197 -64 238 -140l-110 -53c-24 44 -71 77 -128 77c-95 0 -165 -73 -165 -171s70 -171 165 -171c57 0 106 32 128 76l110 -51
c-41 -77 -119 -141 -238 -141c-171 0 -299 118 -299 287z" />
    <glyph glyph-name="Dcaron.smcp" horiz-adv-x="626" 
d="M261 606l-94 144h78l74 -90l70 90h78l-92 -144h-114zM63 0v550h230c183 0 301 -109 301 -276c0 -165 -118 -274 -300 -274h-231zM459 274c0 90 -50 161 -165 161h-99v-320h98c110 0 166 73 166 159z" />
    <glyph glyph-name="Dcroat.smcp" horiz-adv-x="633" 
d="M300 550c183 0 301 -109 301 -276c0 -165 -118 -274 -300 -274h-231v231h-54v88h54v231h230zM300 115c110 0 166 73 166 159c0 90 -50 161 -165 161h-99v-116h114v-88h-114v-116h98z" />
    <glyph glyph-name="uni1E0A.smcp" horiz-adv-x="626" 
d="M251 672c0 37 31 68 68 68s67 -31 67 -68c0 -38 -30 -68 -67 -68s-68 30 -68 68zM63 0v550h230c183 0 301 -109 301 -276c0 -165 -118 -274 -300 -274h-231zM459 274c0 90 -50 161 -165 161h-99v-320h98c110 0 166 73 166 159z" />
    <glyph glyph-name="Eacute.smcp" horiz-adv-x="520" 
d="M314 606h-89l134 144h117zM63 0v550h415v-111h-283v-103h277v-112h-277v-112h283v-112h-415z" />
    <glyph glyph-name="Ebreve.smcp" horiz-adv-x="520" 
d="M273 603c-71 0 -135 34 -176 88l56 46c27 -37 68 -62 120 -62c50 0 91 24 119 62l56 -46c-40 -54 -103 -88 -175 -88zM63 0v550h415v-111h-283v-103h277v-112h-277v-112h283v-112h-415z" />
    <glyph glyph-name="Ecaron.smcp" horiz-adv-x="520" 
d="M215 606l-94 144h78l74 -90l70 90h78l-92 -144h-114zM63 0v550h415v-111h-283v-103h277v-112h-277v-112h283v-112h-415z" />
    <glyph glyph-name="Ecircumflex.smcp" horiz-adv-x="520" 
d="M346 606l-73 89l-71 -89h-78l92 144h114l94 -144h-78zM63 0v550h415v-111h-283v-103h277v-112h-277v-112h283v-112h-415z" />
    <glyph glyph-name="Edieresis.smcp" horiz-adv-x="520" 
d="M168 605c-38 0 -68 30 -68 68c0 37 30 67 68 67c37 0 67 -30 67 -67c0 -38 -30 -68 -67 -68zM379 605c-37 0 -68 30 -68 68c0 37 31 67 68 67s68 -30 68 -67c0 -38 -31 -68 -68 -68zM63 0v550h415v-111h-283v-103h277v-112h-277v-112h283v-112h-415z" />
    <glyph glyph-name="Edotaccent.smcp" horiz-adv-x="520" 
d="M205 672c0 37 31 68 68 68s67 -31 67 -68c0 -38 -30 -68 -67 -68s-68 30 -68 68zM63 0v550h415v-111h-283v-103h277v-112h-277v-112h283v-112h-415z" />
    <glyph glyph-name="Egrave.smcp" horiz-adv-x="520" 
d="M229 606l-162 144h117l134 -144h-89zM63 0v550h415v-111h-283v-103h277v-112h-277v-112h283v-112h-415z" />
    <glyph glyph-name="Emacron.smcp" horiz-adv-x="520" 
d="M105 612v72h335v-72h-335zM63 0v550h415v-111h-283v-103h277v-112h-277v-112h283v-112h-415z" />
    <glyph glyph-name="Eogonek.smcp" horiz-adv-x="520" 
d="M478 439h-283v-103h277v-112h-277v-112h283v-112h-1c-60 -18 -88 -45 -88 -76c0 -20 16 -31 34 -31c9 0 19 2 29 7l24 -68c-23 -13 -52 -18 -88 -18c-55 0 -113 23 -113 80c0 46 44 81 108 106h-320v550h415v-111z" />
    <glyph glyph-name="uni1EB8.smcp" horiz-adv-x="520" 
d="M63 0v550h415v-111h-283v-103h277v-112h-277v-112h283v-112h-415zM205 -119c0 37 31 68 68 68s67 -31 67 -68c0 -38 -30 -68 -67 -68s-68 30 -68 68z" />
    <glyph glyph-name="uni1EBA.smcp" horiz-adv-x="520" 
d="M163 693c16 47 55 73 103 73c54 0 104 -27 104 -93c0 -27 -8 -45 -21 -66h-70c17 20 25 41 25 63c0 29 -17 40 -38 40c-22 0 -36 -15 -44 -36zM63 0v550h415v-111h-283v-103h277v-112h-277v-112h283v-112h-415z" />
    <glyph glyph-name="uni1EBC.smcp" horiz-adv-x="520" 
d="M253 645c-13 14 -24 27 -40 27c-20 0 -36 -19 -36 -62h-67c0 85 38 134 108 134c38 0 58 -22 75 -41c14 -14 25 -26 41 -26c20 0 36 19 36 61h67c0 -85 -37 -134 -107 -134c-39 0 -60 22 -77 41zM63 0v550h415v-111h-283v-103h277v-112h-277v-112h283v-112h-415z" />
    <glyph glyph-name="uni1EBE.smcp" horiz-adv-x="520" 
d="M483 706h-89l134 144h117zM346 606l-73 89l-71 -89h-78l92 144h114l94 -144h-78zM63 0v550h415v-111h-283v-103h277v-112h-277v-112h283v-112h-415z" />
    <glyph glyph-name="uni1EC0.smcp" horiz-adv-x="520" 
d="M68 706l-162 144h117l134 -144h-89zM346 606l-73 89l-71 -89h-78l92 144h114l94 -144h-78zM63 0v550h415v-111h-283v-103h277v-112h-277v-112h283v-112h-415z" />
    <glyph glyph-name="uni1EC2.smcp" horiz-adv-x="520" 
d="M278 792c16 47 55 73 103 73c54 0 104 -27 104 -93c0 -27 -8 -45 -21 -66h-70c17 20 25 41 25 63c0 29 -17 40 -38 40c-22 0 -36 -15 -44 -36zM346 606l-73 89l-71 -89h-78l92 144h114l94 -144h-78zM63 0v550h415v-111h-283v-103h277v-112h-277v-112h283v-112h-415z" />
    <glyph glyph-name="uni1EC4.smcp" horiz-adv-x="520" 
d="M253 807c-13 14 -24 27 -40 27c-20 0 -36 -19 -36 -62h-67c0 85 38 134 108 134c38 0 58 -22 75 -41c14 -14 25 -26 41 -26c20 0 36 19 36 61h67c0 -85 -37 -134 -107 -134c-39 0 -60 22 -77 41zM346 606l-73 89l-71 -89h-78l92 144h114l94 -144h-78zM63 0v550h415v-111
h-283v-103h277v-112h-277v-112h283v-112h-415z" />
    <glyph glyph-name="uni1EC6.smcp" horiz-adv-x="520" 
d="M346 606l-73 89l-71 -89h-78l92 144h114l94 -144h-78zM63 0v550h415v-111h-283v-103h277v-112h-277v-112h283v-112h-415zM205 -119c0 37 31 68 68 68s67 -31 67 -68c0 -38 -30 -68 -67 -68s-68 30 -68 68z" />
    <glyph glyph-name="uni1E1E.smcp" horiz-adv-x="509" 
d="M205 672c0 37 31 68 68 68s67 -31 67 -68c0 -38 -30 -68 -67 -68s-68 30 -68 68zM63 0v550h415v-111h-283v-104h277v-112h-277v-223h-132z" />
    <glyph glyph-name="fi.smcp" horiz-adv-x="767" 
d="M63 0v550h415v-111h-283v-104h277v-112h-277v-223h-132zM572 0v550h132v-550h-132z" />
    <glyph glyph-name="fl.smcp" horiz-adv-x="978" 
d="M63 0v550h415v-111h-283v-104h277v-112h-277v-223h-132zM572 0v550h132v-435h242v-115h-374z" />
    <glyph glyph-name="Gcircumflex.smcp" horiz-adv-x="616" 
d="M407 606l-73 89l-71 -89h-78l92 144h114l94 -144h-78zM32 275c0 174 132 287 302 287c108 0 183 -52 229 -115l-107 -62c-29 36 -69 60 -122 60c-98 0 -167 -71 -167 -170c0 -98 69 -172 167 -172c48 0 86 20 109 40v61h-132v104h262v-215c-59 -64 -141 -105 -239 -105
c-170 0 -302 114 -302 287z" />
    <glyph glyph-name="Gbreve.smcp" horiz-adv-x="616" 
d="M334 603c-71 0 -135 34 -176 88l56 46c27 -37 68 -62 120 -62c50 0 91 24 119 62l56 -46c-40 -54 -103 -88 -175 -88zM32 275c0 174 132 287 302 287c108 0 183 -52 229 -115l-107 -62c-29 36 -69 60 -122 60c-98 0 -167 -71 -167 -170c0 -98 69 -172 167 -172
c48 0 86 20 109 40v61h-132v104h262v-215c-59 -64 -141 -105 -239 -105c-170 0 -302 114 -302 287z" />
    <glyph glyph-name="Gdotaccent.smcp" horiz-adv-x="616" 
d="M266 672c0 37 31 68 68 68s67 -31 67 -68c0 -38 -30 -68 -67 -68s-68 30 -68 68zM32 275c0 174 132 287 302 287c108 0 183 -52 229 -115l-107 -62c-29 36 -69 60 -122 60c-98 0 -167 -71 -167 -170c0 -98 69 -172 167 -172c48 0 86 20 109 40v61h-132v104h262v-215
c-59 -64 -141 -105 -239 -105c-170 0 -302 114 -302 287z" />
    <glyph glyph-name="Gcommaaccent.smcp" horiz-adv-x="616" 
d="M32 275c0 174 132 287 302 287c108 0 183 -52 229 -115l-107 -62c-29 36 -69 60 -122 60c-98 0 -167 -71 -167 -170c0 -98 69 -172 167 -172c48 0 86 20 109 40v61h-132v104h262v-215c-59 -64 -141 -105 -239 -105c-170 0 -302 114 -302 287zM322 -288l-44 35
c27 15 57 50 63 79c-2 -1 -9 -2 -15 -2c-30 0 -53 23 -53 56c0 35 27 63 61 63c37 0 71 -29 71 -81c0 -61 -34 -115 -83 -150z" />
    <glyph glyph-name="Gcaron.smcp" horiz-adv-x="616" 
d="M276 606l-94 144h78l74 -90l70 90h78l-92 -144h-114zM32 275c0 174 132 287 302 287c108 0 183 -52 229 -115l-107 -62c-29 36 -69 60 -122 60c-98 0 -167 -71 -167 -170c0 -98 69 -172 167 -172c48 0 86 20 109 40v61h-132v104h262v-215c-59 -64 -141 -105 -239 -105
c-170 0 -302 114 -302 287z" />
    <glyph glyph-name="Gcircumflex.smcp.alt1" horiz-adv-x="632" 
d="M407 606l-73 89l-71 -89h-78l92 144h114l94 -144h-78zM32 275c0 174 132 287 302 287c108 0 183 -52 229 -115l-107 -62c-27 37 -69 61 -122 61c-98 0 -167 -72 -167 -171c0 -98 69 -172 167 -172c64 0 120 38 135 101h-158v104h297c0 -212 -116 -320 -281 -320
c-163 0 -295 114 -295 287z" />
    <glyph glyph-name="Gbreve.smcp.alt1" horiz-adv-x="632" 
d="M334 603c-71 0 -135 34 -176 88l56 46c27 -37 68 -62 120 -62c50 0 91 24 119 62l56 -46c-40 -54 -103 -88 -175 -88zM32 275c0 174 132 287 302 287c108 0 183 -52 229 -115l-107 -62c-27 37 -69 61 -122 61c-98 0 -167 -72 -167 -171c0 -98 69 -172 167 -172
c64 0 120 38 135 101h-158v104h297c0 -212 -116 -320 -281 -320c-163 0 -295 114 -295 287z" />
    <glyph glyph-name="Gdotaccent.smcp.alt1" horiz-adv-x="632" 
d="M266 672c0 37 31 68 68 68s67 -31 67 -68c0 -38 -30 -68 -67 -68s-68 30 -68 68zM32 275c0 174 132 287 302 287c108 0 183 -52 229 -115l-107 -62c-27 37 -69 61 -122 61c-98 0 -167 -72 -167 -171c0 -98 69 -172 167 -172c64 0 120 38 135 101h-158v104h297
c0 -212 -116 -320 -281 -320c-163 0 -295 114 -295 287z" />
    <glyph glyph-name="Gcommaaccent.smcp.alt1" horiz-adv-x="632" 
d="M32 275c0 174 132 287 302 287c108 0 183 -52 229 -115l-107 -62c-27 37 -69 61 -122 61c-98 0 -167 -72 -167 -171c0 -98 69 -172 167 -172c64 0 120 38 135 101h-158v104h297c0 -212 -116 -320 -281 -320c-163 0 -295 114 -295 287zM322 -288l-44 35c27 15 57 50 63 79
c-2 -1 -9 -2 -15 -2c-30 0 -53 23 -53 56c0 35 27 63 61 63c37 0 71 -29 71 -81c0 -61 -34 -115 -83 -150z" />
    <glyph glyph-name="Gcaron.smcp.alt1" horiz-adv-x="632" 
d="M276 606l-94 144h78l74 -90l70 90h78l-92 -144h-114zM32 275c0 174 132 287 302 287c108 0 183 -52 229 -115l-107 -62c-27 37 -69 61 -122 61c-98 0 -167 -72 -167 -171c0 -98 69 -172 167 -172c64 0 120 38 135 101h-158v104h297c0 -212 -116 -320 -281 -320
c-163 0 -295 114 -295 287z" />
    <glyph glyph-name="Hbar.smcp" horiz-adv-x="666" 
d="M658 484v-73h-62v-411h-132v224h-261v-224h-132v411h-63v73h63v66h132v-66h261v66h132v-66h62zM464 339v72h-261v-72h261z" />
    <glyph glyph-name="Hcircumflex.smcp" horiz-adv-x="651" 
d="M398 606l-73 89l-71 -89h-78l92 144h114l94 -144h-78zM456 0v224h-261v-224h-132v550h132v-211h261v211h132v-550h-132z" />
    <glyph glyph-name="uni1E22.smcp" horiz-adv-x="651" 
d="M257 672c0 37 31 68 68 68s67 -31 67 -68c0 -38 -30 -68 -67 -68s-68 30 -68 68zM456 0v224h-261v-224h-132v550h132v-211h261v211h132v-550h-132z" />
    <glyph glyph-name="Iacute.smcp" horiz-adv-x="258" 
d="M170 606h-89l134 144h117zM63 0v550h132v-550h-132z" />
    <glyph glyph-name="Ibreve.smcp" horiz-adv-x="258" 
d="M129 603c-71 0 -135 34 -176 88l56 46c27 -37 68 -62 120 -62c50 0 91 24 119 62l56 -46c-40 -54 -103 -88 -175 -88zM63 0v550h132v-550h-132z" />
    <glyph glyph-name="Igrave.smcp" horiz-adv-x="258" 
d="M85 606l-162 144h117l134 -144h-89zM63 0v550h132v-550h-132z" />
    <glyph glyph-name="Icircumflex.smcp" horiz-adv-x="258" 
d="M202 606l-73 89l-71 -89h-78l92 144h114l94 -144h-78zM63 0v550h132v-550h-132z" />
    <glyph glyph-name="Idieresis.smcp" horiz-adv-x="258" 
d="M24 605c-38 0 -68 30 -68 68c0 37 30 67 68 67c37 0 67 -30 67 -67c0 -38 -30 -68 -67 -68zM235 605c-37 0 -68 30 -68 68c0 37 31 67 68 67s68 -30 68 -67c0 -38 -31 -68 -68 -68zM63 0v550h132v-550h-132z" />
    <glyph glyph-name="Idotaccent.smcp" horiz-adv-x="258" 
d="M61 672c0 37 31 68 68 68s67 -31 67 -68c0 -38 -30 -68 -67 -68s-68 30 -68 68zM63 0v550h132v-550h-132z" />
    <glyph glyph-name="Imacron.smcp" horiz-adv-x="258" 
d="M-39 612v72h335v-72h-335zM63 0v550h132v-550h-132z" />
    <glyph glyph-name="Iogonek.smcp" horiz-adv-x="258" 
d="M195 0c-60 -18 -88 -45 -88 -76c0 -20 16 -31 34 -31c9 0 19 2 29 7l24 -68c-23 -13 -52 -18 -88 -18c-55 0 -113 23 -113 80c0 46 44 81 108 106h-38v550h132v-550z" />
    <glyph glyph-name="Itilde.smcp" horiz-adv-x="258" 
d="M109 645c-13 14 -24 27 -40 27c-20 0 -36 -19 -36 -62h-67c0 85 38 134 108 134c38 0 58 -22 75 -41c14 -14 25 -26 41 -26c20 0 36 19 36 61h67c0 -85 -37 -134 -107 -134c-39 0 -60 22 -77 41zM63 0v550h132v-550h-132z" />
    <glyph glyph-name="uni1EC8.smcp" horiz-adv-x="258" 
d="M19 693c16 47 55 73 103 73c54 0 104 -27 104 -93c0 -27 -8 -45 -21 -66h-70c17 20 25 41 25 63c0 29 -17 40 -38 40c-22 0 -36 -15 -44 -36zM63 0v550h132v-550h-132z" />
    <glyph glyph-name="uni1ECA.smcp" horiz-adv-x="258" 
d="M63 0v550h132v-550h-132zM61 -119c0 37 31 68 68 68s67 -31 67 -68c0 -38 -30 -68 -67 -68s-68 30 -68 68z" />
    <glyph glyph-name="IJ.smcp" horiz-adv-x="691" 
d="M63 0v550h132v-550h-132zM262 47l53 100c22 -24 52 -43 90 -43c55 0 90 34 90 87v359h133v-370c0 -133 -86 -192 -213 -192c-58 0 -113 19 -153 59z" />
    <glyph glyph-name="Iacute_J.smcp.loclNLD" horiz-adv-x="691" 
d="M170 606h-89l134 144h117zM604 606h-89l134 144h117zM63 0v550h132v-550h-132zM262 47l53 100c22 -24 52 -43 90 -43c55 0 90 34 90 87v359h133v-370c0 -133 -86 -192 -213 -192c-58 0 -113 19 -153 59z" />
    <glyph glyph-name="Jcircumflex.smcp" horiz-adv-x="433" 
d="M378 606l-73 89l-71 -89h-78l92 144h114l94 -144h-78zM4 47l53 100c22 -24 52 -43 90 -43c55 0 90 34 90 87v359h133v-370c0 -133 -86 -192 -213 -192c-58 0 -113 19 -153 59z" />
    <glyph glyph-name="Kcommaaccent.smcp" horiz-adv-x="566" 
d="M405 0l-170 215l-40 -46v-169h-132v550h132v-233l195 233h160l-230 -259l245 -291h-160zM273 -288l-44 35c27 15 57 50 63 79c-2 -1 -9 -2 -15 -2c-30 0 -53 23 -53 56c0 35 27 63 61 63c37 0 71 -29 71 -81c0 -61 -34 -115 -83 -150z" />
    <glyph glyph-name="Lacute.smcp" horiz-adv-x="469" 
d="M291 606h-89l134 144h117zM63 0v550h132v-435h242v-115h-374z" />
    <glyph glyph-name="Lcaron.smcp" horiz-adv-x="469" 
d="M307 328l-44 35c27 15 57 50 63 79c-2 -1 -9 -2 -15 -2c-30 0 -53 23 -53 56c0 35 27 63 61 63c37 0 71 -29 71 -81c0 -61 -34 -115 -83 -150zM63 0v550h132v-435h242v-115h-374z" />
    <glyph glyph-name="Lcommaaccent.smcp" horiz-adv-x="469" 
d="M63 0v550h132v-435h242v-115h-374zM238 -288l-44 35c27 15 57 50 63 79c-2 -1 -9 -2 -15 -2c-30 0 -53 23 -53 56c0 35 27 63 61 63c37 0 71 -29 71 -81c0 -61 -34 -115 -83 -150z" />
    <glyph glyph-name="Ldot.smcp" horiz-adv-x="499" 
d="M63 0v550h132v-435h242v-115h-374zM382 224c-44 0 -81 37 -81 80c0 44 37 81 81 81s80 -37 80 -81c0 -43 -36 -80 -80 -80z" />
    <glyph glyph-name="Lslash.smcp" horiz-adv-x="479" 
d="M206 115h242v-115h-374v178l-66 -38v116l66 38v256h132v-180l81 47v-117l-81 -46v-139z" />
    <glyph glyph-name="Nacute.smcp" horiz-adv-x="648" 
d="M365 606h-89l134 144h117zM450 0l-255 366v-366h-132v550h142l248 -354v354h133v-550h-136z" />
    <glyph glyph-name="Ncaron.smcp" horiz-adv-x="648" 
d="M266 606l-94 144h78l74 -90l70 90h78l-92 -144h-114zM450 0l-255 366v-366h-132v550h142l248 -354v354h133v-550h-136z" />
    <glyph glyph-name="Ncommaaccent.smcp" horiz-adv-x="648" 
d="M450 0l-255 366v-366h-132v550h142l248 -354v354h133v-550h-136zM312 -288l-44 35c27 15 57 50 63 79c-2 -1 -9 -2 -15 -2c-30 0 -53 23 -53 56c0 35 27 63 61 63c37 0 71 -29 71 -81c0 -61 -34 -115 -83 -150z" />
    <glyph glyph-name="Ntilde.smcp" horiz-adv-x="648" 
d="M304 645c-13 14 -24 27 -40 27c-20 0 -36 -19 -36 -62h-67c0 85 38 134 108 134c38 0 58 -22 75 -41c14 -14 25 -26 41 -26c20 0 36 19 36 61h67c0 -85 -37 -134 -107 -134c-39 0 -60 22 -77 41zM450 0l-255 366v-366h-132v550h142l248 -354v354h133v-550h-136z" />
    <glyph glyph-name="uni019D.smcp" horiz-adv-x="648" 
d="M453 550h133v-550h-136l-255 366v-370c0 -133 -85 -192 -213 -192c-22 0 -44 3 -64 8l18 111c12 -4 23 -6 36 -6c55 0 91 34 91 87v546h142l248 -354v354z" />
    <glyph glyph-name="Eng.smcp" horiz-adv-x="648" 
d="M453 550h133v-554c0 -133 -87 -192 -213 -192c-58 0 -112 18 -153 59l52 100c22 -24 53 -43 91 -43c51 0 84 31 89 77l-257 354v-351h-132v550h142l248 -339v339z" />
    <glyph glyph-name="Oacute.smcp" horiz-adv-x="655" 
d="M368 606h-89l134 144h117zM32 275c0 165 120 287 295 287c174 0 295 -122 295 -287c0 -166 -121 -287 -295 -287c-175 0 -295 121 -295 287zM488 275c0 97 -64 171 -161 171c-98 0 -161 -74 -161 -171c0 -96 63 -171 161 -171c97 0 161 75 161 171z" />
    <glyph glyph-name="Obreve.smcp" horiz-adv-x="655" 
d="M327 603c-71 0 -135 34 -176 88l56 46c27 -37 68 -62 120 -62c50 0 91 24 119 62l56 -46c-40 -54 -103 -88 -175 -88zM32 275c0 165 120 287 295 287c174 0 295 -122 295 -287c0 -166 -121 -287 -295 -287c-175 0 -295 121 -295 287zM488 275c0 97 -64 171 -161 171
c-98 0 -161 -74 -161 -171c0 -96 63 -171 161 -171c97 0 161 75 161 171z" />
    <glyph glyph-name="Ocircumflex.smcp" horiz-adv-x="655" 
d="M400 606l-73 89l-71 -89h-78l92 144h114l94 -144h-78zM32 275c0 165 120 287 295 287c174 0 295 -122 295 -287c0 -166 -121 -287 -295 -287c-175 0 -295 121 -295 287zM488 275c0 97 -64 171 -161 171c-98 0 -161 -74 -161 -171c0 -96 63 -171 161 -171
c97 0 161 75 161 171z" />
    <glyph glyph-name="Odieresis.smcp" horiz-adv-x="655" 
d="M222 605c-38 0 -68 30 -68 68c0 37 30 67 68 67c37 0 67 -30 67 -67c0 -38 -30 -68 -67 -68zM433 605c-37 0 -68 30 -68 68c0 37 31 67 68 67s68 -30 68 -67c0 -38 -31 -68 -68 -68zM32 275c0 165 120 287 295 287c174 0 295 -122 295 -287c0 -166 -121 -287 -295 -287
c-175 0 -295 121 -295 287zM488 275c0 97 -64 171 -161 171c-98 0 -161 -74 -161 -171c0 -96 63 -171 161 -171c97 0 161 75 161 171z" />
    <glyph glyph-name="Ograve.smcp" horiz-adv-x="655" 
d="M283 606l-162 144h117l134 -144h-89zM32 275c0 165 120 287 295 287c174 0 295 -122 295 -287c0 -166 -121 -287 -295 -287c-175 0 -295 121 -295 287zM488 275c0 97 -64 171 -161 171c-98 0 -161 -74 -161 -171c0 -96 63 -171 161 -171c97 0 161 75 161 171z" />
    <glyph glyph-name="Ohungarumlaut.smcp" horiz-adv-x="655" 
d="M287 606h-74l87 144h102zM436 606h-74l87 144h102zM32 275c0 165 120 287 295 287c174 0 295 -122 295 -287c0 -166 -121 -287 -295 -287c-175 0 -295 121 -295 287zM488 275c0 97 -64 171 -161 171c-98 0 -161 -74 -161 -171c0 -96 63 -171 161 -171
c97 0 161 75 161 171z" />
    <glyph glyph-name="Oslash.smcp" horiz-adv-x="655" 
d="M539 481c52 -51 83 -123 83 -206c0 -166 -121 -287 -295 -287c-56 0 -106 12 -149 35l-18 -23h-102l55 70c-51 51 -81 122 -81 205c0 165 120 287 295 287c55 0 105 -12 147 -34l17 22h102zM166 275c0 -38 10 -73 28 -102l203 258c-20 10 -44 15 -70 15
c-98 0 -161 -74 -161 -171zM327 104c97 0 161 75 161 171c0 40 -11 75 -30 104l-204 -259c22 -10 46 -16 73 -16z" />
    <glyph glyph-name="Oslashacute.smcp" horiz-adv-x="655" 
d="M530 750l-162 -144h-89l134 144h117zM539 481c52 -51 83 -123 83 -206c0 -166 -121 -287 -295 -287c-56 0 -106 12 -149 35l-18 -23h-102l55 70c-51 51 -81 122 -81 205c0 165 120 287 295 287c55 0 105 -12 147 -34l17 22h102zM166 275c0 -38 10 -73 28 -102l203 258
c-20 10 -44 15 -70 15c-98 0 -161 -74 -161 -171zM327 104c97 0 161 75 161 171c0 40 -11 75 -30 104l-204 -259c22 -10 46 -16 73 -16z" />
    <glyph glyph-name="Omacron.smcp" horiz-adv-x="655" 
d="M159 612v72h335v-72h-335zM32 275c0 165 120 287 295 287c174 0 295 -122 295 -287c0 -166 -121 -287 -295 -287c-175 0 -295 121 -295 287zM488 275c0 97 -64 171 -161 171c-98 0 -161 -74 -161 -171c0 -96 63 -171 161 -171c97 0 161 75 161 171z" />
    <glyph glyph-name="Otilde.smcp" horiz-adv-x="655" 
d="M307 645c-13 14 -24 27 -40 27c-20 0 -36 -19 -36 -62h-67c0 85 38 134 108 134c38 0 58 -22 75 -41c14 -14 25 -26 41 -26c20 0 36 19 36 61h67c0 -85 -37 -134 -107 -134c-39 0 -60 22 -77 41zM32 275c0 165 120 287 295 287c174 0 295 -122 295 -287
c0 -166 -121 -287 -295 -287c-175 0 -295 121 -295 287zM488 275c0 97 -64 171 -161 171c-98 0 -161 -74 -161 -171c0 -96 63 -171 161 -171c97 0 161 75 161 171z" />
    <glyph glyph-name="uni01EA.smcp" horiz-adv-x="655" 
d="M390 -6c-47 -18 -69 -42 -69 -70c0 -20 16 -31 34 -31c9 0 19 2 29 7l24 -68c-23 -13 -52 -18 -88 -18c-55 0 -113 23 -113 80c0 40 33 72 84 96c-155 15 -259 131 -259 285c0 165 120 287 295 287c174 0 295 -122 295 -287c0 -145 -93 -256 -232 -281zM166 275
c0 -96 63 -171 161 -171c97 0 161 75 161 171c0 97 -64 171 -161 171c-98 0 -161 -74 -161 -171z" />
    <glyph glyph-name="uni1ECC.smcp" horiz-adv-x="655" 
d="M32 275c0 165 120 287 295 287c174 0 295 -122 295 -287c0 -166 -121 -287 -295 -287c-175 0 -295 121 -295 287zM488 275c0 97 -64 171 -161 171c-98 0 -161 -74 -161 -171c0 -96 63 -171 161 -171c97 0 161 75 161 171zM259 -119c0 37 31 68 68 68s67 -31 67 -68
c0 -38 -30 -68 -67 -68s-68 30 -68 68z" />
    <glyph glyph-name="uni1ECE.smcp" horiz-adv-x="655" 
d="M217 693c16 47 55 73 103 73c54 0 104 -27 104 -93c0 -27 -8 -45 -21 -66h-70c17 20 25 41 25 63c0 29 -17 40 -38 40c-22 0 -36 -15 -44 -36zM32 275c0 165 120 287 295 287c174 0 295 -122 295 -287c0 -166 -121 -287 -295 -287c-175 0 -295 121 -295 287zM488 275
c0 97 -64 171 -161 171c-98 0 -161 -74 -161 -171c0 -96 63 -171 161 -171c97 0 161 75 161 171z" />
    <glyph glyph-name="uni1ED0.smcp" horiz-adv-x="655" 
d="M537 706h-89l134 144h117zM400 606l-73 89l-71 -89h-78l92 144h114l94 -144h-78zM32 275c0 165 120 287 295 287c174 0 295 -122 295 -287c0 -166 -121 -287 -295 -287c-175 0 -295 121 -295 287zM488 275c0 97 -64 171 -161 171c-98 0 -161 -74 -161 -171
c0 -96 63 -171 161 -171c97 0 161 75 161 171z" />
    <glyph glyph-name="uni1ED2.smcp" horiz-adv-x="655" 
d="M122 706l-162 144h117l134 -144h-89zM400 606l-73 89l-71 -89h-78l92 144h114l94 -144h-78zM32 275c0 165 120 287 295 287c174 0 295 -122 295 -287c0 -166 -121 -287 -295 -287c-175 0 -295 121 -295 287zM488 275c0 97 -64 171 -161 171c-98 0 -161 -74 -161 -171
c0 -96 63 -171 161 -171c97 0 161 75 161 171z" />
    <glyph glyph-name="uni1ED4.smcp" horiz-adv-x="655" 
d="M332 792c16 47 55 73 103 73c54 0 104 -27 104 -93c0 -27 -8 -45 -21 -66h-70c17 20 25 41 25 63c0 29 -17 40 -38 40c-22 0 -36 -15 -44 -36zM400 606l-73 89l-71 -89h-78l92 144h114l94 -144h-78zM32 275c0 165 120 287 295 287c174 0 295 -122 295 -287
c0 -166 -121 -287 -295 -287c-175 0 -295 121 -295 287zM488 275c0 97 -64 171 -161 171c-98 0 -161 -74 -161 -171c0 -96 63 -171 161 -171c97 0 161 75 161 171z" />
    <glyph glyph-name="uni1ED6.smcp" horiz-adv-x="655" 
d="M307 807c-13 14 -24 27 -40 27c-20 0 -36 -19 -36 -62h-67c0 85 38 134 108 134c38 0 58 -22 75 -41c14 -14 25 -26 41 -26c20 0 36 19 36 61h67c0 -85 -37 -134 -107 -134c-39 0 -60 22 -77 41zM400 606l-73 89l-71 -89h-78l92 144h114l94 -144h-78zM32 275
c0 165 120 287 295 287c174 0 295 -122 295 -287c0 -166 -121 -287 -295 -287c-175 0 -295 121 -295 287zM488 275c0 97 -64 171 -161 171c-98 0 -161 -74 -161 -171c0 -96 63 -171 161 -171c97 0 161 75 161 171z" />
    <glyph glyph-name="uni1ED8.smcp" horiz-adv-x="655" 
d="M400 606l-73 89l-71 -89h-78l92 144h114l94 -144h-78zM32 275c0 165 120 287 295 287c174 0 295 -122 295 -287c0 -166 -121 -287 -295 -287c-175 0 -295 121 -295 287zM488 275c0 97 -64 171 -161 171c-98 0 -161 -74 -161 -171c0 -96 63 -171 161 -171
c97 0 161 75 161 171zM259 -119c0 37 31 68 68 68s67 -31 67 -68c0 -38 -30 -68 -67 -68s-68 30 -68 68z" />
    <glyph glyph-name="Ohorn.smcp" horiz-adv-x="655" 
d="M652 549c0 -51 -27 -98 -66 -130c23 -42 36 -91 36 -144c0 -166 -121 -287 -295 -287c-175 0 -295 121 -295 287c0 165 120 287 295 287c98 0 180 -39 232 -102c17 16 33 38 37 57c-3 -1 -9 -2 -14 -2c-28 0 -48 21 -48 51c0 31 24 56 55 56c33 0 63 -26 63 -73zM327 104
c97 0 161 75 161 171c0 97 -64 171 -161 171c-98 0 -161 -74 -161 -171c0 -96 63 -171 161 -171z" />
    <glyph glyph-name="uni1EDA.smcp" horiz-adv-x="655" 
d="M530 750l-162 -144h-89l134 144h117zM652 549c0 -51 -27 -98 -66 -130c23 -42 36 -91 36 -144c0 -166 -121 -287 -295 -287c-175 0 -295 121 -295 287c0 165 120 287 295 287c98 0 180 -39 232 -102c17 16 33 38 37 57c-3 -1 -9 -2 -14 -2c-28 0 -48 21 -48 51
c0 31 24 56 55 56c33 0 63 -26 63 -73zM327 104c97 0 161 75 161 171c0 97 -64 171 -161 171c-98 0 -161 -74 -161 -171c0 -96 63 -171 161 -171z" />
    <glyph glyph-name="uni1EDC.smcp" horiz-adv-x="655" 
d="M372 606h-89l-162 144h117zM652 549c0 -51 -27 -98 -66 -130c23 -42 36 -91 36 -144c0 -166 -121 -287 -295 -287c-175 0 -295 121 -295 287c0 165 120 287 295 287c98 0 180 -39 232 -102c17 16 33 38 37 57c-3 -1 -9 -2 -14 -2c-28 0 -48 21 -48 51c0 31 24 56 55 56
c33 0 63 -26 63 -73zM327 104c97 0 161 75 161 171c0 97 -64 171 -161 171c-98 0 -161 -74 -161 -171c0 -96 63 -171 161 -171z" />
    <glyph glyph-name="uni1EDE.smcp" horiz-adv-x="655" 
d="M320 710c-22 0 -36 -15 -44 -36l-59 19c16 47 55 73 103 73c54 0 104 -27 104 -93c0 -27 -8 -45 -21 -66h-70c17 20 25 41 25 63c0 29 -17 40 -38 40zM652 549c0 -51 -27 -98 -66 -130c23 -42 36 -91 36 -144c0 -166 -121 -287 -295 -287c-175 0 -295 121 -295 287
c0 165 120 287 295 287c98 0 180 -39 232 -102c17 16 33 38 37 57c-3 -1 -9 -2 -14 -2c-28 0 -48 21 -48 51c0 31 24 56 55 56c33 0 63 -26 63 -73zM327 104c97 0 161 75 161 171c0 97 -64 171 -161 171c-98 0 -161 -74 -161 -171c0 -96 63 -171 161 -171z" />
    <glyph glyph-name="uni1EE0.smcp" horiz-adv-x="655" 
d="M267 672c-20 0 -36 -19 -36 -62h-67c0 85 38 134 108 134c38 0 58 -22 75 -41c14 -14 25 -26 41 -26c20 0 36 19 36 61h67c0 -85 -37 -134 -107 -134c-39 0 -60 22 -77 41c-13 14 -24 27 -40 27zM652 549c0 -51 -27 -98 -66 -130c23 -42 36 -91 36 -144
c0 -166 -121 -287 -295 -287c-175 0 -295 121 -295 287c0 165 120 287 295 287c98 0 180 -39 232 -102c17 16 33 38 37 57c-3 -1 -9 -2 -14 -2c-28 0 -48 21 -48 51c0 31 24 56 55 56c33 0 63 -26 63 -73zM327 104c97 0 161 75 161 171c0 97 -64 171 -161 171
c-98 0 -161 -74 -161 -171c0 -96 63 -171 161 -171z" />
    <glyph glyph-name="uni1EE2.smcp" horiz-adv-x="655" 
d="M652 549c0 -51 -27 -98 -66 -130c23 -42 36 -91 36 -144c0 -166 -121 -287 -295 -287c-175 0 -295 121 -295 287c0 165 120 287 295 287c98 0 180 -39 232 -102c17 16 33 38 37 57c-3 -1 -9 -2 -14 -2c-28 0 -48 21 -48 51c0 31 24 56 55 56c33 0 63 -26 63 -73zM327 104
c97 0 161 75 161 171c0 97 -64 171 -161 171c-98 0 -161 -74 -161 -171c0 -96 63 -171 161 -171zM327 -51c37 0 67 -31 67 -68c0 -38 -30 -68 -67 -68s-68 30 -68 68c0 37 31 68 68 68z" />
    <glyph glyph-name="OE.smcp" horiz-adv-x="929" 
d="M472 0v68c-41 -55 -100 -80 -169 -80c-160 0 -271 121 -271 287s111 287 271 287c67 0 128 -25 169 -80v68h415v-111h-283v-104h277v-111h-277v-112h283v-112h-415zM472 352c-27 64 -82 94 -143 94c-100 0 -163 -74 -163 -171c0 -96 63 -171 163 -171c63 0 116 31 143 95
v153z" />
    <glyph glyph-name="uni1E56.smcp" horiz-adv-x="554" 
d="M228 672c0 37 31 68 68 68s67 -31 67 -68c0 -38 -30 -68 -67 -68s-68 30 -68 68zM63 0v550h278c124 0 193 -83 193 -179c0 -98 -65 -181 -193 -181h-146v-190h-132zM399 371c0 37 -26 68 -75 68h-129v-137h129c50 0 75 30 75 69z" />
    <glyph glyph-name="Racute.smcp" horiz-adv-x="573" 
d="M335 606h-89l134 144h117zM388 0l-110 190h-83v-190h-132v550h278c122 0 193 -80 193 -179c0 -101 -64 -157 -127 -170l132 -201h-151zM400 371c0 38 -27 68 -76 68h-129v-137h129c50 0 76 30 76 69z" />
    <glyph glyph-name="Rcaron.smcp" horiz-adv-x="573" 
d="M236 606l-94 144h78l74 -90l70 90h78l-92 -144h-114zM388 0l-110 190h-83v-190h-132v550h278c122 0 193 -80 193 -179c0 -101 -64 -157 -127 -170l132 -201h-151zM400 371c0 38 -27 68 -76 68h-129v-137h129c50 0 76 30 76 69z" />
    <glyph glyph-name="Rcommaaccent.smcp" horiz-adv-x="573" 
d="M388 0l-110 190h-83v-190h-132v550h278c122 0 193 -80 193 -179c0 -101 -64 -157 -127 -170l132 -201h-151zM400 371c0 38 -27 68 -76 68h-129v-137h129c50 0 76 30 76 69zM284 -288l-44 35c27 15 57 50 63 79c-2 -1 -9 -2 -15 -2c-30 0 -53 23 -53 56c0 35 27 63 61 63
c37 0 71 -29 71 -81c0 -61 -34 -115 -83 -150z" />
    <glyph glyph-name="Sacute.smcp" horiz-adv-x="516" 
d="M297 606h-89l134 144h117zM18 71l60 99c38 -38 109 -72 182 -72c68 0 98 27 98 60c0 37 -50 49 -110 62c-93 20 -212 44 -212 171c0 93 86 171 220 171c94 0 170 -30 225 -79l-62 -92c-42 38 -110 60 -164 60c-52 0 -85 -23 -85 -55s47 -42 106 -55
c93 -19 217 -46 217 -176c0 -106 -83 -177 -237 -177c-105 0 -190 36 -238 83z" />
    <glyph glyph-name="Scaron.smcp" horiz-adv-x="516" 
d="M198 606l-94 144h78l74 -90l70 90h78l-92 -144h-114zM18 71l60 99c38 -38 109 -72 182 -72c68 0 98 27 98 60c0 37 -50 49 -110 62c-93 20 -212 44 -212 171c0 93 86 171 220 171c94 0 170 -30 225 -79l-62 -92c-42 38 -110 60 -164 60c-52 0 -85 -23 -85 -55
s47 -42 106 -55c93 -19 217 -46 217 -176c0 -106 -83 -177 -237 -177c-105 0 -190 36 -238 83z" />
    <glyph glyph-name="Scircumflex.smcp" horiz-adv-x="516" 
d="M329 606l-73 89l-71 -89h-78l92 144h114l94 -144h-78zM18 71l60 99c38 -38 109 -72 182 -72c68 0 98 27 98 60c0 37 -50 49 -110 62c-93 20 -212 44 -212 171c0 93 86 171 220 171c94 0 170 -30 225 -79l-62 -92c-42 38 -110 60 -164 60c-52 0 -85 -23 -85 -55
s47 -42 106 -55c93 -19 217 -46 217 -176c0 -106 -83 -177 -237 -177c-105 0 -190 36 -238 83z" />
    <glyph glyph-name="Scedilla.smcp" horiz-adv-x="516" 
d="M493 165c0 -99 -73 -168 -209 -176l-17 -40c10 7 23 10 36 10c37 0 67 -28 67 -69c0 -54 -51 -86 -111 -86c-48 0 -89 15 -110 32l25 52c25 -20 54 -30 81 -30s52 11 52 34c0 15 -10 25 -29 25c-13 0 -24 -6 -32 -14l-46 26l22 60c-89 7 -161 40 -204 82l60 99
c38 -38 109 -72 182 -72c68 0 98 27 98 60c0 37 -50 49 -110 62c-93 20 -212 44 -212 171c0 93 86 171 220 171c94 0 170 -30 225 -79l-62 -92c-42 38 -110 60 -164 60c-52 0 -85 -23 -85 -55s47 -42 106 -55c93 -19 217 -46 217 -176z" />
    <glyph glyph-name="Scommaaccent.smcp" horiz-adv-x="516" 
d="M18 71l60 99c38 -38 109 -72 182 -72c68 0 98 27 98 60c0 37 -50 49 -110 62c-93 20 -212 44 -212 171c0 93 86 171 220 171c94 0 170 -30 225 -79l-62 -92c-42 38 -110 60 -164 60c-52 0 -85 -23 -85 -55s47 -42 106 -55c93 -19 217 -46 217 -176
c0 -106 -83 -177 -237 -177c-105 0 -190 36 -238 83zM244 -288l-44 35c27 15 57 50 63 79c-2 -1 -9 -2 -15 -2c-30 0 -53 23 -53 56c0 35 27 63 61 63c37 0 71 -29 71 -81c0 -61 -34 -115 -83 -150z" />
    <glyph glyph-name="uni1E60.smcp" horiz-adv-x="516" 
d="M188 672c0 37 31 68 68 68s67 -31 67 -68c0 -38 -30 -68 -67 -68s-68 30 -68 68zM18 71l60 99c38 -38 109 -72 182 -72c68 0 98 27 98 60c0 37 -50 49 -110 62c-93 20 -212 44 -212 171c0 93 86 171 220 171c94 0 170 -30 225 -79l-62 -92c-42 38 -110 60 -164 60
c-52 0 -85 -23 -85 -55s47 -42 106 -55c93 -19 217 -46 217 -176c0 -106 -83 -177 -237 -177c-105 0 -190 36 -238 83z" />
    <glyph glyph-name="uni1E9E.smcp" horiz-adv-x="620" 
d="M421 334c99 -10 176 -61 176 -165c0 -105 -93 -180 -212 -180c-86 0 -138 26 -166 55l61 93c27 -21 60 -35 105 -35c48 0 84 22 84 68c0 54 -53 70 -139 70h-50v93l97 107c-15 6 -33 9 -54 9c-85 0 -127 -53 -127 -124v-325h-133v332c0 136 84 230 260 230
c94 0 173 -28 220 -93z" />
    <glyph glyph-name="germandbls.smcp" horiz-adv-x="1032" 
d="M18 71l60 99c38 -38 109 -72 182 -72c68 0 98 27 98 60c0 37 -50 49 -110 62c-93 20 -212 44 -212 171c0 93 86 171 220 171c94 0 170 -30 225 -79l-62 -92c-42 38 -110 60 -164 60c-52 0 -85 -23 -85 -55s47 -42 106 -55c93 -19 217 -46 217 -176
c0 -106 -83 -177 -237 -177c-105 0 -190 36 -238 83zM534 71l60 99c38 -38 109 -72 182 -72c68 0 98 27 98 60c0 37 -50 49 -110 62c-93 20 -212 44 -212 171c0 93 86 171 220 171c94 0 170 -30 225 -79l-62 -92c-42 38 -110 60 -164 60c-52 0 -85 -23 -85 -55
s47 -42 106 -55c93 -19 217 -46 217 -176c0 -106 -83 -177 -237 -177c-105 0 -190 36 -238 83z" />
    <glyph glyph-name="Tbar.smcp" horiz-adv-x="486" 
d="M466 435h-157v-156h104v-73h-104v-206h-132v206h-102v73h102v156h-156v115h445v-115z" />
    <glyph glyph-name="Tcaron.smcp" horiz-adv-x="486" 
d="M185 606l-94 144h78l74 -90l70 90h78l-92 -144h-114zM177 0v435h-156v115h445v-115h-157v-435h-132z" />
    <glyph glyph-name="uni0162.smcp" horiz-adv-x="486" 
d="M177 0v435h-156v115h445v-115h-157v-435h-132zM231 -288l-44 35c27 15 57 50 63 79c-2 -1 -9 -2 -15 -2c-30 0 -53 23 -53 56c0 35 27 63 61 63c37 0 71 -29 71 -81c0 -61 -34 -115 -83 -150z" />
    <glyph glyph-name="uni021A.smcp" horiz-adv-x="486" 
d="M177 0v435h-156v115h445v-115h-157v-435h-132zM231 -288l-44 35c27 15 57 50 63 79c-2 -1 -9 -2 -15 -2c-30 0 -53 23 -53 56c0 35 27 63 61 63c37 0 71 -29 71 -81c0 -61 -34 -115 -83 -150z" />
    <glyph glyph-name="uni1E6A.smcp" horiz-adv-x="486" 
d="M175 672c0 37 31 68 68 68s67 -31 67 -68c0 -38 -30 -68 -67 -68s-68 30 -68 68zM177 0v435h-156v115h445v-115h-157v-435h-132z" />
    <glyph glyph-name="Uacute.smcp" horiz-adv-x="646" 
d="M364 606h-89l134 144h117zM63 218v332h133v-321c0 -74 45 -125 127 -125c81 0 127 51 127 125v321h133v-331c0 -137 -85 -231 -260 -231c-176 0 -260 94 -260 230z" />
    <glyph glyph-name="Ubreve.smcp" horiz-adv-x="646" 
d="M323 603c-71 0 -135 34 -176 88l56 46c27 -37 68 -62 120 -62c50 0 91 24 119 62l56 -46c-40 -54 -103 -88 -175 -88zM63 218v332h133v-321c0 -74 45 -125 127 -125c81 0 127 51 127 125v321h133v-331c0 -137 -85 -231 -260 -231c-176 0 -260 94 -260 230z" />
    <glyph glyph-name="Ucircumflex.smcp" horiz-adv-x="646" 
d="M396 606l-73 89l-71 -89h-78l92 144h114l94 -144h-78zM63 218v332h133v-321c0 -74 45 -125 127 -125c81 0 127 51 127 125v321h133v-331c0 -137 -85 -231 -260 -231c-176 0 -260 94 -260 230z" />
    </font>
</defs>
</svg>
