<?xml version="1.0" encoding="utf-8"?>
<!-- Generator: Adobe Illustrator 19.0.0, SVG Export Plug-In . SVG Version: 6.00 Build 0)  -->
<svg version="1.1" id="XMLID_1_" xmlns="http://www.w3.org/2000/svg" xmlns:xlink="http://www.w3.org/1999/xlink" x="0px" y="0px"
	 viewBox="0 0 135.6587 83.3947" enable-background="new 0 0 135.6587 83.3947" xml:space="preserve">
<path id="leaf" fill="#fffff" d="M109.7372,0.0753c-7.4074,0.372-15.9817,1.7872-23.2269,3.8117
	C82.0943,5.1145,71.301,7.8313,54.5394,16.8899c-10.7183,5.7912-23.6428,14.7042-34.343,26.8303
	C9.4469,55.903,2.5981,70.0177,0,83.3143c10.6488,0.7926,26.0277-4.2503,43.2171-16.0437c3.6672-2.5163,7.384-5.648,10.9632-9.0393
	c0,0,9.8376-9.7618,17.0904-19.1587c4.0435-5.2458,9.724-12.234,15.1635-18.4224c0.0885-0.1072,1.0947-1.252,1.0947-1.252
	C88.0761,18.7447,99.4228,5.1275,109.7372,0.0753z M115.2028,0c-3.642,1.6989-13.2519,6.9816-23.643,19.2911
	c5.4351-0.4408,16.4107-1.7119,24.606-4.9172c7.3974-2.8885,13.9826-6.7256,19.4929-11.1024
	C129.3679,1.0645,122.8097,0.0321,115.2028,0z"/>
</svg>
