<?xml version="1.0" encoding="UTF-8"?>
<svg width="920px" height="127px" viewBox="0 0 920 127" version="1.1" xmlns="http://www.w3.org/2000/svg" xmlns:xlink="http://www.w3.org/1999/xlink">
    <title>form-steps-horizontal-outline</title>
    <g id="form-steps-horizontal-outline" stroke="none" stroke-width="1" fill="none" fill-rule="evenodd">
        <g id="Group-6" transform="translate(0.000000, 2.000000)" fill-rule="nonzero">
            <path d="M279.992217,28.4977824 C280.820636,28.4941157 281.495187,29.1626972 281.498884,29.9911161 C281.502334,30.7708046 280.9103,31.4141947 280.149979,31.4902594 L280.005551,31.4977679 L167.006667,32.0000003 C166.178248,32.003667 165.503697,31.3350855 165.5,30.5066666 C165.49655,29.7269782 166.088584,29.083588 166.848905,29.0075234 L166.993333,29.0000148 L279.992217,28.4977824 Z" id="Line" fill="#E6E6E6"></path>
            <path d="M516.992217,28.4977824 C517.820636,28.4941157 518.495187,29.1626972 518.498884,29.9911161 C518.502334,30.7708046 517.9103,31.4141947 517.149979,31.4902594 L517.005551,31.4977679 L404.006667,32.0000003 C403.178248,32.003667 402.503697,31.3350855 402.5,30.5066666 C402.49655,29.7269782 403.088584,29.083588 403.848905,29.0075234 L403.993333,29.0000148 L516.992217,28.4977824 Z" id="Line-Copy" fill="#E6E6E6"></path>
            <path d="M753.992217,28.4977824 C754.820636,28.4941157 755.495187,29.1626972 755.498884,29.9911161 C755.502334,30.7708046 754.9103,31.4141947 754.149979,31.4902594 L754.005551,31.4977679 L641.006667,32.0000003 C640.178248,32.003667 639.503697,31.3350855 639.5,30.5066666 C639.49655,29.7269782 640.088584,29.083588 640.848905,29.0075234 L640.993333,29.0000148 L753.992217,28.4977824 Z" id="Line-Copy-2" fill="#E6E6E6"></path>
            <g id="Group">
                <g id="Step-#-Copy-6" transform="translate(74.000000, 0.000000)">
                    <g id="Group-19" fill="#E6E6E6">
                        <path d="M31,-2 C22.1304575,-2 13.8129386,1.51801383 7.66547622,7.66547622 C1.51801383,13.8129386 -2,22.1304575 -2,31 C-2,49.2253967 12.7746033,64 31,64 C49.2253967,64 64,49.2253967 64,31 C64,12.7746033 49.2253967,-2 31,-2 Z M31,2 C47.0162577,2 60,14.9837423 60,31 C60,47.0162577 47.0162577,60 31,60 C14.9837423,60 2,47.0162577 2,31 C2,23.2022277 5.0891501,15.8986566 10.4939033,10.4939033 C15.8986566,5.0891501 23.2022277,2 31,2 Z" id="Oval"></path>
                    </g>
                    <polygon id="1" fill="#333333" points="34.46725 40 34.46725 21.324 30.99525 21.324 25.11525 27.232 27.38325 29.612 30.49125 26.448 30.49125 40"></polygon>
                </g>
            </g>
            <g id="Group-2" transform="translate(237.000000, 0.000000)">
                <g id="Step-#-Copy-7" transform="translate(74.000000, 0.000000)">
                    <g id="Group-19" fill="#E6E6E6">
                        <path d="M31,-2 C22.1304575,-2 13.8129386,1.51801383 7.66547622,7.66547622 C1.51801383,13.8129386 -2,22.1304575 -2,31 C-2,49.2253967 12.7746033,64 31,64 C49.2253967,64 64,49.2253967 64,31 C64,12.7746033 49.2253967,-2 31,-2 Z M31,2 C47.0162577,2 60,14.9837423 60,31 C60,47.0162577 47.0162577,60 31,60 C14.9837423,60 2,47.0162577 2,31 C2,23.2022277 5.0891501,15.8986566 10.4939033,10.4939033 C15.8986566,5.0891501 23.2022277,2 31,2 Z" id="Oval"></path>
                    </g>
                    <path d="M38.53325,40 L38.53325,36.5 L30.91725,36.5 C35.76125,32.972 38.39325,30.2 38.39325,27.008 C38.39325,23.284 35.22925,21.044 31.25325,21.044 C28.64925,21.044 25.87725,21.996 24.05725,24.096 L26.32525,26.728 C27.58525,25.412 29.20925,24.572 31.33725,24.572 C32.87725,24.572 34.36125,25.384 34.36125,27.008 C34.36125,29.304 32.12125,31.236 24.47725,36.892 L24.47725,40 L38.53325,40 Z" id="2" fill="#333333"></path>
                </g>
            </g>
            <g id="Group-3" transform="translate(474.000000, 0.000000)">
                <g id="Step-#-Copy-8" transform="translate(74.000000, 0.000000)">
                    <g id="Group-19" fill="#E6E6E6">
                        <path d="M31,-2 C22.1304575,-2 13.8129386,1.51801383 7.66547622,7.66547622 C1.51801383,13.8129386 -2,22.1304575 -2,31 C-2,49.2253967 12.7746033,64 31,64 C49.2253967,64 64,49.2253967 64,31 C64,12.7746033 49.2253967,-2 31,-2 Z M31,2 C47.0162577,2 60,14.9837423 60,31 C60,47.0162577 47.0162577,60 31,60 C14.9837423,60 2,47.0162577 2,31 C2,23.2022277 5.0891501,15.8986566 10.4939033,10.4939033 C15.8986566,5.0891501 23.2022277,2 31,2 Z" id="Oval"></path>
                    </g>
                    <path d="M31.26725,40.336 C35.74725,40.336 38.63125,38.068 38.63125,34.848 C38.63125,32.048 36.16725,30.564 34.26325,30.368 C36.33525,30.004 38.35125,28.464 38.35125,26.112 C38.35125,23.004 35.66325,21.044 31.29525,21.044 C28.01925,21.044 25.66725,22.304 24.15525,24.012 L26.14325,26.504 C27.45925,25.244 29.08325,24.572 30.87525,24.572 C32.83525,24.572 34.34725,25.3 34.34725,26.784 C34.34725,28.156 32.97525,28.772 30.90325,28.772 L30.1951684,28.7713469 C29.5449643,28.7697143 28.81925,28.764 28.57925,28.744 L28.57925,32.328 C28.85925,32.3 30.11925,32.272 30.90325,32.272 C33.50725,32.272 34.65525,32.944 34.65525,34.428 C34.65525,35.828 33.39525,36.808 31.12725,36.808 C29.30725,36.808 27.26325,36.024 25.97525,34.68 L23.90325,37.34 C25.27525,39.02 27.82325,40.336 31.26725,40.336 Z" id="3" fill="#333333"></path>
                </g>
            </g>
            <g id="Group-3-Copy" transform="translate(711.000000, 0.000000)">
                <g id="Step-#-Copy-8" transform="translate(74.000000, 0.000000)">
                    <g id="Group-19" fill="#E6E6E6">
                        <path d="M31,-2 C22.1304575,-2 13.8129386,1.51801383 7.66547622,7.66547622 C1.51801383,13.8129386 -2,22.1304575 -2,31 C-2,49.2253967 12.7746033,64 31,64 C49.2253967,64 64,49.2253967 64,31 C64,12.7746033 49.2253967,-2 31,-2 Z M31,2 C47.0162577,2 60,14.9837423 60,31 C60,47.0162577 47.0162577,60 31,60 C14.9837423,60 2,47.0162577 2,31 C2,23.2022277 5.0891501,15.8986566 10.4939033,10.4939033 C15.8986566,5.0891501 23.2022277,2 31,2 Z" id="Oval"></path>
                    </g>
                    <path d="M35.81125,40 L35.81125,36.136 L38.21925,36.136 L38.21925,32.636 L35.81125,32.636 L35.81125,21.324 L30.32325,21.324 L22.90325,33 L22.90325,36.136 L31.83525,36.136 L31.83525,40 L35.81125,40 Z M31.83525,32.636 L26.79525,32.636 L31.83525,24.852 L31.83525,32.636 Z" id="4" fill="#333333"></path>
                </g>
            </g>
        </g>
    </g>
</svg>
