<?xml version="1.0" encoding="UTF-8"?>
<svg width="920px" height="127px" viewBox="0 0 920 127" version="1.1" xmlns="http://www.w3.org/2000/svg"
     xmlns:xlink="http://www.w3.org/1999/xlink">
  <title>form-steps-horizontal-outline</title>
  <g id="form-steps-horizontal-outline" stroke="none" stroke-width="1" fill="none" fill-rule="evenodd">
    <g id="Group-6" transform="translate(0.000000, 2.000000)" fill-rule="nonzero">
      <path
        d="M279.992217,28.4977824 C280.820636,28.4941157 281.495187,29.1626972 281.498884,29.9911161 C281.502334,30.7708046 280.9103,31.4141947 280.149979,31.4902594 L280.005551,31.4977679 L167.006667,32.0000003 C166.178248,32.003667 165.503697,31.3350855 165.5,30.5066666 C165.49655,29.7269782 166.088584,29.083588 166.848905,29.0075234 L166.993333,29.0000148 L279.992217,28.4977824 Z"
        id="Line" fill="#E6E6E6"></path>
      <path
        d="M516.992217,28.4977824 C517.820636,28.4941157 518.495187,29.1626972 518.498884,29.9911161 C518.502334,30.7708046 517.9103,31.4141947 517.149979,31.4902594 L517.005551,31.4977679 L404.006667,32.0000003 C403.178248,32.003667 402.503697,31.3350855 402.5,30.5066666 C402.49655,29.7269782 403.088584,29.083588 403.848905,29.0075234 L403.993333,29.0000148 L516.992217,28.4977824 Z"
        id="Line-Copy" fill="#E6E6E6"></path>
      <path
        d="M753.992217,28.4977824 C754.820636,28.4941157 755.495187,29.1626972 755.498884,29.9911161 C755.502334,30.7708046 754.9103,31.4141947 754.149979,31.4902594 L754.005551,31.4977679 L641.006667,32.0000003 C640.178248,32.003667 639.503697,31.3350855 639.5,30.5066666 C639.49655,29.7269782 640.088584,29.083588 640.848905,29.0075234 L640.993333,29.0000148 L753.992217,28.4977824 Z"
        id="Line-Copy-2" fill="#E6E6E6"></path>
      <g id="Group">
        <g id="Step-#-Copy-6" transform="translate(74.000000, 0.000000)">
          <g id="Group-19" fill="#E6E6E6">
            <path
              d="M31,-2 C22.1304575,-2 13.8129386,1.51801383 7.66547622,7.66547622 C1.51801383,13.8129386 -2,22.1304575 -2,31 C-2,49.2253967 12.7746033,64 31,64 C49.2253967,64 64,49.2253967 64,31 C64,12.7746033 49.2253967,-2 31,-2 Z M31,2 C47.0162577,2 60,14.9837423 60,31 C60,47.0162577 47.0162577,60 31,60 C14.9837423,60 2,47.0162577 2,31 C2,23.2022277 5.0891501,15.8986566 10.4939033,10.4939033 C15.8986566,5.0891501 23.2022277,2 31,2 Z"
              id="Oval"></path>
          </g>
          <polygon id="1" fill="#333333"
                   points="34.46725 40 34.46725 21.324 30.99525 21.324 25.11525 27.232 27.38325 29.612 30.49125 26.448 30.49125 40"></polygon>
        </g>
        <path
          d="M29.692,100 C33.02,100 35.276,97.808 35.276,94.672 C35.276,91.536 33.02,89.328 29.692,89.328 L25.724,89.328 L25.724,100 L29.692,100 Z M29.692,98.352 L27.596,98.352 L27.596,90.976 L29.692,90.976 C32.076,90.976 33.356,92.608 33.356,94.672 C33.356,96.688 32.012,98.352 29.692,98.352 Z M40.524,100.192 C43.004,100.192 44.508,98.352 44.508,96.128 C44.508,93.92 43.004,92.08 40.524,92.08 C38.076,92.08 36.556,93.92 36.556,96.128 C36.556,98.352 38.076,100.192 40.524,100.192 Z M40.524,98.704 C39.1,98.704 38.3,97.504 38.3,96.128 C38.3,94.768 39.1,93.568 40.524,93.568 C41.964,93.568 42.764,94.768 42.764,96.128 C42.764,97.504 41.964,98.704 40.524,98.704 Z M47.884,100 L47.884,94.608 C48.268,94.08 49.004,93.568 49.868,93.568 C50.812,93.568 51.42,93.968 51.42,95.168 L51.42,100 L53.1,100 L53.1,94.56 C53.1,92.976 52.268,92.08 50.604,92.08 C49.388,92.08 48.396,92.72 47.884,93.328 L47.884,92.272 L46.204,92.272 L46.204,100 L47.884,100 Z M56.956,100 L56.956,94.608 C57.34,94.08 58.076,93.568 58.94,93.568 C59.884,93.568 60.492,93.968 60.492,95.168 L60.492,100 L62.172,100 L62.172,94.56 C62.172,92.976 61.34,92.08 59.676,92.08 C58.46,92.08 57.468,92.72 56.956,93.328 L56.956,92.272 L55.276,92.272 L55.276,100 L56.956,100 Z M68.028,91.104 L70.668,88.8 L69.068,88.8 L66.828,91.104 L68.028,91.104 Z M67.916,100.192 C69.148,100.192 70.284,99.808 71.052,99.072 L70.284,97.968 C69.74,98.512 68.844,98.816 68.092,98.816 C66.636,98.816 65.756,97.856 65.628,96.688 L71.596,96.688 L71.596,96.288 C71.596,93.856 70.108,92.08 67.788,92.08 C65.5,92.08 63.868,93.888 63.868,96.128 C63.868,98.576 65.596,100.192 67.916,100.192 Z M69.964,95.504 L65.612,95.504 C65.692,94.56 66.348,93.456 67.788,93.456 C69.308,93.456 69.932,94.592 69.964,95.504 Z M76.828,100.192 C78.06,100.192 79.196,99.808 79.964,99.072 L79.196,97.968 C78.652,98.512 77.756,98.816 77.004,98.816 C75.548,98.816 74.668,97.856 74.54,96.688 L80.508,96.688 L80.508,96.288 C80.508,93.856 79.02,92.08 76.7,92.08 C74.412,92.08 72.78,93.888 72.78,96.128 C72.78,98.576 74.508,100.192 76.828,100.192 Z M78.876,95.504 L74.524,95.504 C74.604,94.56 75.26,93.456 76.7,93.456 C78.22,93.456 78.844,94.592 78.876,95.504 Z M84.812,100.192 C86.892,100.192 88.028,99.152 88.028,97.792 C88.028,94.72 83.356,95.744 83.356,94.368 C83.356,93.824 83.916,93.424 84.796,93.424 C85.756,93.424 86.62,93.824 87.084,94.352 L87.788,93.168 C87.084,92.544 86.092,92.08 84.78,92.08 C82.828,92.08 81.74,93.168 81.74,94.432 C81.74,97.392 86.412,96.304 86.412,97.824 C86.412,98.432 85.9,98.864 84.892,98.864 C83.884,98.864 82.812,98.336 82.268,97.776 L81.5,98.992 C82.3,99.776 83.5,100.192 84.812,100.192 Z M95.516,102.944 L95.516,98.928 C96.14,99.76 97.02,100.192 97.996,100.192 C99.996,100.192 101.42,98.672 101.42,96.128 C101.42,93.584 99.996,92.08 97.996,92.08 C96.988,92.08 96.092,92.56 95.516,93.328 L95.516,92.272 L93.836,92.272 L93.836,102.944 L95.516,102.944 Z M97.5,98.704 C96.716,98.704 95.884,98.224 95.516,97.664 L95.516,94.608 C95.884,94.032 96.716,93.568 97.5,93.568 C98.828,93.568 99.676,94.64 99.676,96.128 C99.676,97.632 98.828,98.704 97.5,98.704 Z M106.652,100.192 C107.884,100.192 109.02,99.808 109.788,99.072 L109.02,97.968 C108.476,98.512 107.58,98.816 106.828,98.816 C105.372,98.816 104.492,97.856 104.364,96.688 L110.332,96.688 L110.332,96.288 C110.332,93.856 108.844,92.08 106.524,92.08 C104.236,92.08 102.604,93.888 102.604,96.128 C102.604,98.576 104.332,100.192 106.652,100.192 Z M108.7,95.504 L104.348,95.504 C104.428,94.56 105.084,93.456 106.524,93.456 C108.044,93.456 108.668,94.592 108.7,95.504 Z M113.676,100 L113.676,94.736 C114.012,94.192 114.956,93.712 115.66,93.712 C115.868,93.712 116.044,93.728 116.188,93.76 L116.188,92.096 C115.18,92.096 114.252,92.672 113.676,93.408 L113.676,92.272 L111.996,92.272 L111.996,100 L113.676,100 Z M120.188,100.192 C122.268,100.192 123.404,99.152 123.404,97.792 C123.404,94.72 118.732,95.744 118.732,94.368 C118.732,93.824 119.292,93.424 120.172,93.424 C121.132,93.424 121.996,93.824 122.46,94.352 L123.164,93.168 C122.46,92.544 121.468,92.08 120.156,92.08 C118.204,92.08 117.116,93.168 117.116,94.432 C117.116,97.392 121.788,96.304 121.788,97.824 C121.788,98.432 121.276,98.864 120.268,98.864 C119.26,98.864 118.188,98.336 117.644,97.776 L116.876,98.992 C117.676,99.776 118.876,100.192 120.188,100.192 Z M128.588,100.192 C131.068,100.192 132.572,98.352 132.572,96.128 C132.572,93.92 131.068,92.08 128.588,92.08 C126.14,92.08 124.62,93.92 124.62,96.128 C124.62,98.352 126.14,100.192 128.588,100.192 Z M128.588,98.704 C127.164,98.704 126.364,97.504 126.364,96.128 C126.364,94.768 127.164,93.568 128.588,93.568 C130.028,93.568 130.828,94.768 130.828,96.128 C130.828,97.504 130.028,98.704 128.588,98.704 Z M135.948,100 L135.948,94.608 C136.332,94.08 137.068,93.568 137.932,93.568 C138.876,93.568 139.484,93.968 139.484,95.168 L139.484,100 L141.164,100 L141.164,94.56 C141.164,92.976 140.332,92.08 138.668,92.08 C137.452,92.08 136.46,92.72 135.948,93.328 L135.948,92.272 L134.268,92.272 L134.268,100 L135.948,100 Z M145.02,100 L145.02,94.608 C145.404,94.08 146.14,93.568 147.004,93.568 C147.948,93.568 148.556,93.968 148.556,95.168 L148.556,100 L150.236,100 L150.236,94.56 C150.236,92.976 149.404,92.08 147.74,92.08 C146.524,92.08 145.532,92.72 145.02,93.328 L145.02,92.272 L143.34,92.272 L143.34,100 L145.02,100 Z M155.98,100.192 C157.212,100.192 158.348,99.808 159.116,99.072 L158.348,97.968 C157.804,98.512 156.908,98.816 156.156,98.816 C154.7,98.816 153.82,97.856 153.692,96.688 L159.66,96.688 L159.66,96.288 C159.66,93.856 158.172,92.08 155.852,92.08 C153.564,92.08 151.932,93.888 151.932,96.128 C151.932,98.576 153.66,100.192 155.98,100.192 Z M158.028,95.504 L153.676,95.504 C153.756,94.56 154.412,93.456 155.852,93.456 C157.372,93.456 157.996,94.592 158.028,95.504 Z M163.004,100 L163.004,89.328 L161.324,89.328 L161.324,100 L163.004,100 Z M166.86,100 L166.86,89.328 L165.18,89.328 L165.18,100 L166.86,100 Z M172.604,100.192 C173.836,100.192 174.972,99.808 175.74,99.072 L174.972,97.968 C174.428,98.512 173.532,98.816 172.78,98.816 C171.324,98.816 170.444,97.856 170.316,96.688 L176.284,96.688 L176.284,96.288 C176.284,93.856 174.796,92.08 172.476,92.08 C170.188,92.08 168.556,93.888 168.556,96.128 C168.556,98.576 170.284,100.192 172.604,100.192 Z M174.652,95.504 L170.3,95.504 C170.38,94.56 171.036,93.456 172.476,93.456 C173.996,93.456 174.62,94.592 174.652,95.504 Z M180.588,100.192 C182.668,100.192 183.804,99.152 183.804,97.792 C183.804,94.72 179.132,95.744 179.132,94.368 C179.132,93.824 179.692,93.424 180.572,93.424 C181.532,93.424 182.396,93.824 182.86,94.352 L183.564,93.168 C182.86,92.544 181.868,92.08 180.556,92.08 C178.604,92.08 177.516,93.168 177.516,94.432 C177.516,97.392 182.188,96.304 182.188,97.824 C182.188,98.432 181.676,98.864 180.668,98.864 C179.66,98.864 178.588,98.336 178.044,97.776 L177.276,98.992 C178.076,99.776 179.276,100.192 180.588,100.192 Z"
          id="Donnéespersonnelles" fill="#333333"></path>
      </g>
      <g id="Group-2" transform="translate(237.000000, 0.000000)">
        <path
          d="M17.428,100 C19.428,100 20.532,98.768 20.532,97.12 C20.532,95.808 19.604,94.672 18.468,94.496 C19.46,94.288 20.324,93.392 20.324,92.048 C20.324,90.544 19.236,89.328 17.284,89.328 L12.036,89.328 L12.036,100 L17.428,100 Z M16.9,93.744 L13.908,93.744 L13.908,90.976 L16.9,90.976 C17.86,90.976 18.404,91.568 18.404,92.368 C18.404,93.168 17.86,93.744 16.9,93.744 Z M16.98,98.352 L13.908,98.352 L13.908,95.392 L16.98,95.392 C18.052,95.392 18.612,96.064 18.612,96.864 C18.612,97.792 18.004,98.352 16.98,98.352 Z M23.188,91.328 C23.764,91.328 24.228,90.864 24.228,90.288 C24.228,89.712 23.764,89.248 23.188,89.248 C22.628,89.248 22.148,89.712 22.148,90.288 C22.148,90.864 22.628,91.328 23.188,91.328 Z M24.036,100 L24.036,92.272 L22.356,92.272 L22.356,100 L24.036,100 Z M29.78,100.192 C31.012,100.192 32.148,99.808 32.916,99.072 L32.148,97.968 C31.604,98.512 30.708,98.816 29.956,98.816 C28.5,98.816 27.62,97.856 27.492,96.688 L33.46,96.688 L33.46,96.288 C33.46,93.856 31.972,92.08 29.652,92.08 C27.364,92.08 25.732,93.888 25.732,96.128 C25.732,98.576 27.46,100.192 29.78,100.192 Z M31.828,95.504 L27.476,95.504 C27.556,94.56 28.212,93.456 29.652,93.456 C31.172,93.456 31.796,94.592 31.828,95.504 Z M36.804,100 L36.804,94.608 C37.188,94.08 37.924,93.568 38.788,93.568 C39.732,93.568 40.34,93.968 40.34,95.168 L40.34,100 L42.02,100 L42.02,94.56 C42.02,92.976 41.188,92.08 39.524,92.08 C38.308,92.08 37.316,92.72 36.804,93.328 L36.804,92.272 L35.124,92.272 L35.124,100 L36.804,100 Z M49.14,91.328 C49.716,91.328 50.18,90.864 50.18,90.288 C50.18,89.712 49.716,89.248 49.14,89.248 C48.58,89.248 48.1,89.712 48.1,90.288 C48.1,90.864 48.58,91.328 49.14,91.328 Z M49.988,100 L49.988,92.272 L48.308,92.272 L48.308,100 L49.988,100 Z M53.844,100 L53.844,94.608 C54.196,94.096 54.884,93.568 55.62,93.568 C56.532,93.568 56.9,94.128 56.9,94.96 L56.9,100 L58.58,100 L58.58,94.592 C58.916,94.096 59.62,93.568 60.372,93.568 C61.268,93.568 61.636,94.128 61.636,94.96 L61.636,100 L63.316,100 L63.316,94.416 C63.316,92.848 62.516,92.08 61.092,92.08 C59.94,92.08 58.916,92.8 58.468,93.504 C58.212,92.656 57.508,92.08 56.356,92.08 C55.188,92.08 54.164,92.848 53.844,93.328 L53.844,92.272 L52.164,92.272 L52.164,100 L53.844,100 Z M67.172,100 L67.172,94.608 C67.524,94.096 68.212,93.568 68.948,93.568 C69.86,93.568 70.228,94.128 70.228,94.96 L70.228,100 L71.908,100 L71.908,94.592 C72.244,94.096 72.948,93.568 73.7,93.568 C74.596,93.568 74.964,94.128 74.964,94.96 L74.964,100 L76.644,100 L76.644,94.416 C76.644,92.848 75.844,92.08 74.42,92.08 C73.268,92.08 72.244,92.8 71.796,93.504 C71.54,92.656 70.836,92.08 69.684,92.08 C68.516,92.08 67.492,92.848 67.172,93.328 L67.172,92.272 L65.492,92.272 L65.492,100 L67.172,100 Z M82.308,100.192 C84.788,100.192 86.292,98.352 86.292,96.128 C86.292,93.92 84.788,92.08 82.308,92.08 C79.86,92.08 78.34,93.92 78.34,96.128 C78.34,98.352 79.86,100.192 82.308,100.192 Z M82.308,98.704 C80.884,98.704 80.084,97.504 80.084,96.128 C80.084,94.768 80.884,93.568 82.308,93.568 C83.748,93.568 84.548,94.768 84.548,96.128 C84.548,97.504 83.748,98.704 82.308,98.704 Z M92.148,100.192 C94.116,100.192 95.572,98.688 95.572,96.144 C95.572,93.648 94.132,92.08 92.148,92.08 C91.172,92.08 90.276,92.528 89.668,93.344 L89.668,89.328 L87.988,89.328 L87.988,100 L89.668,100 L89.668,98.944 C90.26,99.712 91.14,100.192 92.148,100.192 Z M91.652,98.704 C90.868,98.704 90.036,98.256 89.668,97.68 L89.668,94.624 C90.036,94.048 90.868,93.568 91.652,93.568 C92.996,93.568 93.844,94.64 93.844,96.144 C93.844,97.648 92.996,98.704 91.652,98.704 Z M98.116,91.328 C98.692,91.328 99.156,90.864 99.156,90.288 C99.156,89.712 98.692,89.248 98.116,89.248 C97.556,89.248 97.076,89.712 97.076,90.288 C97.076,90.864 97.556,91.328 98.116,91.328 Z M98.964,100 L98.964,92.272 L97.284,92.272 L97.284,100 L98.964,100 Z M102.82,100 L102.82,89.328 L101.14,89.328 L101.14,100 L102.82,100 Z M105.828,91.328 C106.404,91.328 106.868,90.864 106.868,90.288 C106.868,89.712 106.404,89.248 105.828,89.248 C105.268,89.248 104.788,89.712 104.788,90.288 C104.788,90.864 105.268,91.328 105.828,91.328 Z M106.676,100 L106.676,92.272 L104.996,92.272 L104.996,100 L106.676,100 Z M112.42,100.192 C113.652,100.192 114.788,99.808 115.556,99.072 L114.788,97.968 C114.244,98.512 113.348,98.816 112.596,98.816 C111.14,98.816 110.26,97.856 110.132,96.688 L116.1,96.688 L116.1,96.288 C116.1,93.856 114.612,92.08 112.292,92.08 C110.004,92.08 108.372,93.888 108.372,96.128 C108.372,98.576 110.1,100.192 112.42,100.192 Z M114.468,95.504 L110.116,95.504 C110.196,94.56 110.852,93.456 112.292,93.456 C113.812,93.456 114.436,94.592 114.468,95.504 Z M119.444,100 L119.444,94.736 C119.78,94.192 120.724,93.712 121.428,93.712 C121.636,93.712 121.812,93.728 121.956,93.76 L121.956,92.096 C120.948,92.096 120.02,92.672 119.444,93.408 L119.444,92.272 L117.764,92.272 L117.764,100 L119.444,100 Z M130.996,100.192 C132.228,100.192 133.364,99.808 134.132,99.072 L133.364,97.968 C132.82,98.512 131.924,98.816 131.172,98.816 C129.716,98.816 128.836,97.856 128.708,96.688 L134.676,96.688 L134.676,96.288 C134.676,93.856 133.188,92.08 130.868,92.08 C128.58,92.08 126.948,93.888 126.948,96.128 C126.948,98.576 128.676,100.192 130.996,100.192 Z M133.044,95.504 L128.692,95.504 C128.772,94.56 129.428,93.456 130.868,93.456 C132.388,93.456 133.012,94.592 133.044,95.504 Z M138.66,100.192 C139.444,100.192 139.94,99.984 140.244,99.696 L139.844,98.432 C139.716,98.576 139.412,98.704 139.092,98.704 C138.612,98.704 138.356,98.32 138.356,97.792 L138.356,93.744 L139.924,93.744 L139.924,92.272 L138.356,92.272 L138.356,90.16 L136.676,90.16 L136.676,92.272 L135.396,92.272 L135.396,93.744 L136.676,93.744 L136.676,98.208 C136.676,99.488 137.364,100.192 138.66,100.192 Z M147.876,100.192 C148.66,100.192 149.156,99.984 149.46,99.696 L149.06,98.432 C148.932,98.576 148.628,98.704 148.308,98.704 C147.828,98.704 147.572,98.32 147.572,97.792 L147.572,93.744 L149.14,93.744 L149.14,92.272 L147.572,92.272 L147.572,90.16 L145.892,90.16 L145.892,92.272 L144.612,92.272 L144.612,93.744 L145.892,93.744 L145.892,98.208 C145.892,99.488 146.58,100.192 147.876,100.192 Z M151.268,103.136 C152.468,103.12 153.396,102.704 153.924,101.392 L157.652,92.272 L155.844,92.272 L153.588,98.064 L151.332,92.272 L149.54,92.272 L152.708,100.096 L152.324,100.976 C152.1,101.488 151.748,101.648 151.22,101.648 C151.028,101.648 150.756,101.6 150.58,101.52 L150.324,103.024 C150.564,103.088 151.028,103.136 151.268,103.136 Z M160.388,102.944 L160.388,98.928 C161.012,99.76 161.892,100.192 162.868,100.192 C164.868,100.192 166.292,98.672 166.292,96.128 C166.292,93.584 164.868,92.08 162.868,92.08 C161.86,92.08 160.964,92.56 160.388,93.328 L160.388,92.272 L158.708,92.272 L158.708,102.944 L160.388,102.944 Z M162.372,98.704 C161.588,98.704 160.756,98.224 160.388,97.664 L160.388,94.608 C160.756,94.032 161.588,93.568 162.372,93.568 C163.7,93.568 164.548,94.64 164.548,96.128 C164.548,97.632 163.7,98.704 162.372,98.704 Z M171.524,100.192 C172.756,100.192 173.892,99.808 174.66,99.072 L173.892,97.968 C173.348,98.512 172.452,98.816 171.7,98.816 C170.244,98.816 169.364,97.856 169.236,96.688 L175.204,96.688 L175.204,96.288 C175.204,93.856 173.716,92.08 171.396,92.08 C169.108,92.08 167.476,93.888 167.476,96.128 C167.476,98.576 169.204,100.192 171.524,100.192 Z M173.572,95.504 L169.22,95.504 C169.3,94.56 169.956,93.456 171.396,93.456 C172.916,93.456 173.54,94.592 173.572,95.504 Z M183.94,100.192 C184.932,100.192 185.828,99.712 186.42,98.944 L186.42,100 L188.1,100 L188.1,89.328 L186.42,89.328 L186.42,93.344 C185.796,92.528 184.9,92.08 183.94,92.08 C181.94,92.08 180.5,93.648 180.5,96.144 C180.5,98.688 181.956,100.192 183.94,100.192 Z M184.42,98.704 C183.092,98.704 182.244,97.632 182.244,96.144 C182.244,94.64 183.092,93.568 184.42,93.568 C185.22,93.568 186.036,94.032 186.42,94.608 L186.42,97.68 C186.036,98.256 185.22,98.704 184.42,98.704 Z M193.844,100.192 C195.076,100.192 196.212,99.808 196.98,99.072 L196.212,97.968 C195.668,98.512 194.772,98.816 194.02,98.816 C192.564,98.816 191.684,97.856 191.556,96.688 L197.524,96.688 L197.524,96.288 C197.524,93.856 196.036,92.08 193.716,92.08 C191.428,92.08 189.796,93.888 189.796,96.128 C189.796,98.576 191.524,100.192 193.844,100.192 Z M195.892,95.504 L191.54,95.504 C191.62,94.56 192.276,93.456 193.716,93.456 C195.236,93.456 195.86,94.592 195.892,95.504 Z M63.276,120 L63.276,113.744 L64.844,113.744 L64.844,112.272 L63.276,112.272 L63.276,111.84 C63.276,110.976 63.692,110.544 64.348,110.544 C64.636,110.544 64.86,110.608 65.02,110.72 L65.388,109.472 C65.052,109.28 64.572,109.168 64.044,109.168 C62.62,109.168 61.596,110.112 61.596,111.84 L61.596,112.272 L60.316,112.272 L60.316,113.744 L61.596,113.744 L61.596,120 L63.276,120 Z M66.956,111.328 C67.532,111.328 67.996,110.864 67.996,110.288 C67.996,109.712 67.532,109.248 66.956,109.248 C66.396,109.248 65.916,109.712 65.916,110.288 C65.916,110.864 66.396,111.328 66.956,111.328 Z M67.804,120 L67.804,112.272 L66.124,112.272 L66.124,120 L67.804,120 Z M71.66,120 L71.66,114.608 C72.044,114.08 72.78,113.568 73.644,113.568 C74.588,113.568 75.196,113.968 75.196,115.168 L75.196,120 L76.876,120 L76.876,114.56 C76.876,112.976 76.044,112.08 74.38,112.08 C73.164,112.08 72.172,112.72 71.66,113.328 L71.66,112.272 L69.98,112.272 L69.98,120 L71.66,120 Z M81.276,120.192 C82.3,120.192 83.196,119.824 83.772,119.168 L83.772,120 L85.452,120 L85.452,114.88 C85.452,112.8 83.948,112.08 82.236,112.08 C81.004,112.08 79.884,112.48 78.988,113.328 L79.676,114.496 C80.348,113.84 81.1,113.52 81.964,113.52 C83.036,113.52 83.772,114.064 83.772,114.96 L83.772,116.112 C83.212,115.456 82.316,115.12 81.276,115.12 C80.012,115.12 78.588,115.856 78.588,117.632 C78.588,119.344 80.012,120.192 81.276,120.192 Z M81.932,119.04 C80.988,119.04 80.284,118.496 80.284,117.664 C80.284,116.816 80.988,116.272 81.932,116.272 C82.668,116.272 83.388,116.544 83.772,117.072 L83.772,118.24 C83.388,118.768 82.668,119.04 81.932,119.04 Z M89.308,120 L89.308,114.608 C89.692,114.08 90.428,113.568 91.292,113.568 C92.236,113.568 92.844,113.968 92.844,115.168 L92.844,120 L94.524,120 L94.524,114.56 C94.524,112.976 93.692,112.08 92.028,112.08 C90.812,112.08 89.82,112.72 89.308,113.328 L89.308,112.272 L87.628,112.272 L87.628,120 L89.308,120 Z M100.22,120.192 C101.724,120.192 102.636,119.552 103.18,118.816 L102.076,117.792 C101.644,118.384 101.052,118.704 100.3,118.704 C98.892,118.704 97.964,117.632 97.964,116.128 C97.964,114.624 98.892,113.568 100.3,113.568 C101.052,113.568 101.644,113.872 102.076,114.48 L103.18,113.456 C102.636,112.72 101.724,112.08 100.22,112.08 C97.868,112.08 96.22,113.792 96.22,116.128 C96.22,118.48 97.868,120.192 100.22,120.192 Z M108.22,120.192 C109.452,120.192 110.588,119.808 111.356,119.072 L110.588,117.968 C110.044,118.512 109.148,118.816 108.396,118.816 C106.94,118.816 106.06,117.856 105.932,116.688 L111.9,116.688 L111.9,116.288 C111.9,113.856 110.412,112.08 108.092,112.08 C105.804,112.08 104.172,113.888 104.172,116.128 C104.172,118.576 105.9,120.192 108.22,120.192 Z M110.268,115.504 L105.916,115.504 C105.996,114.56 106.652,113.456 108.092,113.456 C109.612,113.456 110.236,114.592 110.268,115.504 Z M115.244,120 L115.244,114.608 C115.596,114.096 116.284,113.568 117.02,113.568 C117.932,113.568 118.3,114.128 118.3,114.96 L118.3,120 L119.98,120 L119.98,114.592 C120.316,114.096 121.02,113.568 121.772,113.568 C122.668,113.568 123.036,114.128 123.036,114.96 L123.036,120 L124.716,120 L124.716,114.416 C124.716,112.848 123.916,112.08 122.492,112.08 C121.34,112.08 120.316,112.8 119.868,113.504 C119.612,112.656 118.908,112.08 117.756,112.08 C116.588,112.08 115.564,112.848 115.244,113.328 L115.244,112.272 L113.564,112.272 L113.564,120 L115.244,120 Z M130.46,120.192 C131.692,120.192 132.828,119.808 133.596,119.072 L132.828,117.968 C132.284,118.512 131.388,118.816 130.636,118.816 C129.18,118.816 128.3,117.856 128.172,116.688 L134.14,116.688 L134.14,116.288 C134.14,113.856 132.652,112.08 130.332,112.08 C128.044,112.08 126.412,113.888 126.412,116.128 C126.412,118.576 128.14,120.192 130.46,120.192 Z M132.508,115.504 L128.156,115.504 C128.236,114.56 128.892,113.456 130.332,113.456 C131.852,113.456 132.476,114.592 132.508,115.504 Z M137.484,120 L137.484,114.608 C137.868,114.08 138.604,113.568 139.468,113.568 C140.412,113.568 141.02,113.968 141.02,115.168 L141.02,120 L142.7,120 L142.7,114.56 C142.7,112.976 141.868,112.08 140.204,112.08 C138.988,112.08 137.996,112.72 137.484,113.328 L137.484,112.272 L135.804,112.272 L135.804,120 L137.484,120 Z M147.196,120.192 C147.98,120.192 148.476,119.984 148.78,119.696 L148.38,118.432 C148.252,118.576 147.948,118.704 147.628,118.704 C147.148,118.704 146.892,118.32 146.892,117.792 L146.892,113.744 L148.46,113.744 L148.46,112.272 L146.892,112.272 L146.892,110.16 L145.212,110.16 L145.212,112.272 L143.932,112.272 L143.932,113.744 L145.212,113.744 L145.212,118.208 C145.212,119.488 145.9,120.192 147.196,120.192 Z"
          id="Bienimmobilierettypedefnancement" fill="#333333"></path>
        <g id="Step-#-Copy-7" transform="translate(74.000000, 0.000000)">
          <g id="Group-19" fill="#E6E6E6">
            <path
              d="M31,-2 C22.1304575,-2 13.8129386,1.51801383 7.66547622,7.66547622 C1.51801383,13.8129386 -2,22.1304575 -2,31 C-2,49.2253967 12.7746033,64 31,64 C49.2253967,64 64,49.2253967 64,31 C64,12.7746033 49.2253967,-2 31,-2 Z M31,2 C47.0162577,2 60,14.9837423 60,31 C60,47.0162577 47.0162577,60 31,60 C14.9837423,60 2,47.0162577 2,31 C2,23.2022277 5.0891501,15.8986566 10.4939033,10.4939033 C15.8986566,5.0891501 23.2022277,2 31,2 Z"
              id="Oval"></path>
          </g>
          <path
            d="M38.53325,40 L38.53325,36.5 L30.91725,36.5 C35.76125,32.972 38.39325,30.2 38.39325,27.008 C38.39325,23.284 35.22925,21.044 31.25325,21.044 C28.64925,21.044 25.87725,21.996 24.05725,24.096 L26.32525,26.728 C27.58525,25.412 29.20925,24.572 31.33725,24.572 C32.87725,24.572 34.36125,25.384 34.36125,27.008 C34.36125,29.304 32.12125,31.236 24.47725,36.892 L24.47725,40 L38.53325,40 Z"
            id="2" fill="#333333"></path>
        </g>
      </g>
      <g id="Group-3" transform="translate(474.000000, 0.000000)">
        <g id="Step-#-Copy-8" transform="translate(74.000000, 0.000000)">
          <g id="Group-19" fill="#E6E6E6">
            <path
              d="M31,-2 C22.1304575,-2 13.8129386,1.51801383 7.66547622,7.66547622 C1.51801383,13.8129386 -2,22.1304575 -2,31 C-2,49.2253967 12.7746033,64 31,64 C49.2253967,64 64,49.2253967 64,31 C64,12.7746033 49.2253967,-2 31,-2 Z M31,2 C47.0162577,2 60,14.9837423 60,31 C60,47.0162577 47.0162577,60 31,60 C14.9837423,60 2,47.0162577 2,31 C2,23.2022277 5.0891501,15.8986566 10.4939033,10.4939033 C15.8986566,5.0891501 23.2022277,2 31,2 Z"
              id="Oval"></path>
          </g>
          <path
            d="M31.26725,40.336 C35.74725,40.336 38.63125,38.068 38.63125,34.848 C38.63125,32.048 36.16725,30.564 34.26325,30.368 C36.33525,30.004 38.35125,28.464 38.35125,26.112 C38.35125,23.004 35.66325,21.044 31.29525,21.044 C28.01925,21.044 25.66725,22.304 24.15525,24.012 L26.14325,26.504 C27.45925,25.244 29.08325,24.572 30.87525,24.572 C32.83525,24.572 34.34725,25.3 34.34725,26.784 C34.34725,28.156 32.97525,28.772 30.90325,28.772 L30.1951684,28.7713469 C29.5449643,28.7697143 28.81925,28.764 28.57925,28.744 L28.57925,32.328 C28.85925,32.3 30.11925,32.272 30.90325,32.272 C33.50725,32.272 34.65525,32.944 34.65525,34.428 C34.65525,35.828 33.39525,36.808 31.12725,36.808 C29.30725,36.808 27.26325,36.024 25.97525,34.68 L23.90325,37.34 C25.27525,39.02 27.82325,40.336 31.26725,40.336 Z"
            id="3" fill="#333333"></path>
        </g>
        <path
          d="M16.236,100.192 C19.116,100.192 20.364,98.672 20.364,96.896 C20.364,92.912 14.156,94.144 14.156,92.16 C14.156,91.36 14.86,90.832 15.964,90.832 C17.084,90.832 18.22,91.216 19.052,92.048 L20.124,90.656 C19.132,89.696 17.788,89.168 16.124,89.168 C13.788,89.168 12.236,90.528 12.236,92.288 C12.236,96.224 18.46,94.832 18.46,97.072 C18.46,97.776 17.852,98.528 16.316,98.528 C14.828,98.528 13.676,97.84 12.94,97.056 L11.9,98.496 C12.844,99.504 14.268,100.192 16.236,100.192 Z M22.876,91.328 C23.452,91.328 23.916,90.864 23.916,90.288 C23.916,89.712 23.452,89.248 22.876,89.248 C22.316,89.248 21.836,89.712 21.836,90.288 C21.836,90.864 22.316,91.328 22.876,91.328 Z M23.724,100 L23.724,92.272 L22.044,92.272 L22.044,100 L23.724,100 Z M28.22,100.192 C29.004,100.192 29.5,99.984 29.804,99.696 L29.404,98.432 C29.276,98.576 28.972,98.704 28.652,98.704 C28.172,98.704 27.916,98.32 27.916,97.792 L27.916,93.744 L29.484,93.744 L29.484,92.272 L27.916,92.272 L27.916,90.16 L26.236,90.16 L26.236,92.272 L24.956,92.272 L24.956,93.744 L26.236,93.744 L26.236,98.208 C26.236,99.488 26.924,100.192 28.22,100.192 Z M33.484,100.192 C34.7,100.192 35.66,99.6 36.22,98.976 L36.22,100 L37.9,100 L37.9,92.272 L36.22,92.272 L36.22,97.696 C35.82,98.224 35.084,98.704 34.236,98.704 C33.292,98.704 32.684,98.336 32.684,97.136 L32.684,92.272 L31.004,92.272 L31.004,97.744 C31.004,99.328 31.82,100.192 33.484,100.192 Z M42.3,100.192 C43.324,100.192 44.22,99.824 44.796,99.168 L44.796,100 L46.476,100 L46.476,94.88 C46.476,92.8 44.972,92.08 43.26,92.08 C42.028,92.08 40.908,92.48 40.012,93.328 L40.7,94.496 C41.372,93.84 42.124,93.52 42.988,93.52 C44.06,93.52 44.796,94.064 44.796,94.96 L44.796,96.112 C44.236,95.456 43.34,95.12 42.3,95.12 C41.036,95.12 39.612,95.856 39.612,97.632 C39.612,99.344 41.036,100.192 42.3,100.192 Z M42.956,99.04 C42.012,99.04 41.308,98.496 41.308,97.664 C41.308,96.816 42.012,96.272 42.956,96.272 C43.692,96.272 44.412,96.544 44.796,97.072 L44.796,98.24 C44.412,98.768 43.692,99.04 42.956,99.04 Z M50.972,100.192 C51.756,100.192 52.252,99.984 52.556,99.696 L52.156,98.432 C52.028,98.576 51.724,98.704 51.404,98.704 C50.924,98.704 50.668,98.32 50.668,97.792 L50.668,93.744 L52.236,93.744 L52.236,92.272 L50.668,92.272 L50.668,90.16 L48.988,90.16 L48.988,92.272 L47.708,92.272 L47.708,93.744 L48.988,93.744 L48.988,98.208 C48.988,99.488 49.676,100.192 50.972,100.192 Z M54.588,91.328 C55.164,91.328 55.628,90.864 55.628,90.288 C55.628,89.712 55.164,89.248 54.588,89.248 C54.028,89.248 53.548,89.712 53.548,90.288 C53.548,90.864 54.028,91.328 54.588,91.328 Z M55.436,100 L55.436,92.272 L53.756,92.272 L53.756,100 L55.436,100 Z M61.1,100.192 C63.58,100.192 65.084,98.352 65.084,96.128 C65.084,93.92 63.58,92.08 61.1,92.08 C58.652,92.08 57.132,93.92 57.132,96.128 C57.132,98.352 58.652,100.192 61.1,100.192 Z M61.1,98.704 C59.676,98.704 58.876,97.504 58.876,96.128 C58.876,94.768 59.676,93.568 61.1,93.568 C62.54,93.568 63.34,94.768 63.34,96.128 C63.34,97.504 62.54,98.704 61.1,98.704 Z M68.46,100 L68.46,94.608 C68.844,94.08 69.58,93.568 70.444,93.568 C71.388,93.568 71.996,93.968 71.996,95.168 L71.996,100 L73.676,100 L73.676,94.56 C73.676,92.976 72.844,92.08 71.18,92.08 C69.964,92.08 68.972,92.72 68.46,93.328 L68.46,92.272 L66.78,92.272 L66.78,100 L68.46,100 Z M81.644,102.944 L81.644,98.928 C82.268,99.76 83.148,100.192 84.124,100.192 C86.124,100.192 87.548,98.672 87.548,96.128 C87.548,93.584 86.124,92.08 84.124,92.08 C83.116,92.08 82.22,92.56 81.644,93.328 L81.644,92.272 L79.964,92.272 L79.964,102.944 L81.644,102.944 Z M83.628,98.704 C82.844,98.704 82.012,98.224 81.644,97.664 L81.644,94.608 C82.012,94.032 82.844,93.568 83.628,93.568 C84.956,93.568 85.804,94.64 85.804,96.128 C85.804,97.632 84.956,98.704 83.628,98.704 Z M90.892,100 L90.892,94.736 C91.228,94.192 92.172,93.712 92.876,93.712 C93.084,93.712 93.26,93.728 93.404,93.76 L93.404,92.096 C92.396,92.096 91.468,92.672 90.892,93.408 L90.892,92.272 L89.212,92.272 L89.212,100 L90.892,100 Z M98.252,100.192 C100.732,100.192 102.236,98.352 102.236,96.128 C102.236,93.92 100.732,92.08 98.252,92.08 C95.804,92.08 94.284,93.92 94.284,96.128 C94.284,98.352 95.804,100.192 98.252,100.192 Z M98.252,98.704 C96.828,98.704 96.028,97.504 96.028,96.128 C96.028,94.768 96.828,93.568 98.252,93.568 C99.692,93.568 100.492,94.768 100.492,96.128 C100.492,97.504 99.692,98.704 98.252,98.704 Z M106.012,100 L106.012,93.744 L107.58,93.744 L107.58,92.272 L106.012,92.272 L106.012,91.84 C106.012,90.976 106.428,90.544 107.084,90.544 C107.468,90.544 107.756,90.672 107.98,90.88 L108.636,89.84 C108.156,89.344 107.468,89.168 106.78,89.168 C105.308,89.168 104.332,90.16 104.332,91.84 L104.332,92.272 L103.052,92.272 L103.052,93.744 L104.332,93.744 L104.332,100 L106.012,100 Z M112.428,100.192 C113.66,100.192 114.796,99.808 115.564,99.072 L114.796,97.968 C114.252,98.512 113.356,98.816 112.604,98.816 C111.148,98.816 110.268,97.856 110.14,96.688 L116.108,96.688 L116.108,96.288 C116.108,93.856 114.62,92.08 112.3,92.08 C110.012,92.08 108.38,93.888 108.38,96.128 C108.38,98.576 110.108,100.192 112.428,100.192 Z M114.476,95.504 L110.124,95.504 C110.204,94.56 110.86,93.456 112.3,93.456 C113.82,93.456 114.444,94.592 114.476,95.504 Z M120.412,100.192 C122.492,100.192 123.628,99.152 123.628,97.792 C123.628,94.72 118.956,95.744 118.956,94.368 C118.956,93.824 119.516,93.424 120.396,93.424 C121.356,93.424 122.22,93.824 122.684,94.352 L123.388,93.168 C122.684,92.544 121.692,92.08 120.38,92.08 C118.428,92.08 117.34,93.168 117.34,94.432 C117.34,97.392 122.012,96.304 122.012,97.824 C122.012,98.432 121.5,98.864 120.492,98.864 C119.484,98.864 118.412,98.336 117.868,97.776 L117.1,98.992 C117.9,99.776 119.1,100.192 120.412,100.192 Z M127.964,100.192 C130.044,100.192 131.18,99.152 131.18,97.792 C131.18,94.72 126.508,95.744 126.508,94.368 C126.508,93.824 127.068,93.424 127.948,93.424 C128.908,93.424 129.772,93.824 130.236,94.352 L130.94,93.168 C130.236,92.544 129.244,92.08 127.932,92.08 C125.98,92.08 124.892,93.168 124.892,94.432 C124.892,97.392 129.564,96.304 129.564,97.824 C129.564,98.432 129.052,98.864 128.044,98.864 C127.036,98.864 125.964,98.336 125.42,97.776 L124.652,98.992 C125.452,99.776 126.652,100.192 127.964,100.192 Z M133.708,91.328 C134.284,91.328 134.748,90.864 134.748,90.288 C134.748,89.712 134.284,89.248 133.708,89.248 C133.148,89.248 132.668,89.712 132.668,90.288 C132.668,90.864 133.148,91.328 133.708,91.328 Z M134.556,100 L134.556,92.272 L132.876,92.272 L132.876,100 L134.556,100 Z M140.22,100.192 C142.7,100.192 144.204,98.352 144.204,96.128 C144.204,93.92 142.7,92.08 140.22,92.08 C137.772,92.08 136.252,93.92 136.252,96.128 C136.252,98.352 137.772,100.192 140.22,100.192 Z M140.22,98.704 C138.796,98.704 137.996,97.504 137.996,96.128 C137.996,94.768 138.796,93.568 140.22,93.568 C141.66,93.568 142.46,94.768 142.46,96.128 C142.46,97.504 141.66,98.704 140.22,98.704 Z M147.58,100 L147.58,94.608 C147.964,94.08 148.7,93.568 149.564,93.568 C150.508,93.568 151.116,93.968 151.116,95.168 L151.116,100 L152.796,100 L152.796,94.56 C152.796,92.976 151.964,92.08 150.3,92.08 C149.084,92.08 148.092,92.72 147.58,93.328 L147.58,92.272 L145.9,92.272 L145.9,100 L147.58,100 Z M158.54,100.192 C159.772,100.192 160.908,99.808 161.676,99.072 L160.908,97.968 C160.364,98.512 159.468,98.816 158.716,98.816 C157.26,98.816 156.38,97.856 156.252,96.688 L162.22,96.688 L162.22,96.288 C162.22,93.856 160.732,92.08 158.412,92.08 C156.124,92.08 154.492,93.888 154.492,96.128 C154.492,98.576 156.22,100.192 158.54,100.192 Z M160.588,95.504 L156.236,95.504 C156.316,94.56 156.972,93.456 158.412,93.456 C159.932,93.456 160.556,94.592 160.588,95.504 Z M165.564,100 L165.564,89.328 L163.884,89.328 L163.884,100 L165.564,100 Z M169.42,100 L169.42,89.328 L167.74,89.328 L167.74,100 L169.42,100 Z M175.164,100.192 C176.396,100.192 177.532,99.808 178.3,99.072 L177.532,97.968 C176.988,98.512 176.092,98.816 175.34,98.816 C173.884,98.816 173.004,97.856 172.876,96.688 L178.844,96.688 L178.844,96.288 C178.844,93.856 177.356,92.08 175.036,92.08 C172.748,92.08 171.116,93.888 171.116,96.128 C171.116,98.576 172.844,100.192 175.164,100.192 Z M177.212,95.504 L172.86,95.504 C172.94,94.56 173.596,93.456 175.036,93.456 C176.556,93.456 177.18,94.592 177.212,95.504 Z M188.188,100.192 C189.42,100.192 190.556,99.808 191.324,99.072 L190.556,97.968 C190.012,98.512 189.116,98.816 188.364,98.816 C186.908,98.816 186.028,97.856 185.9,96.688 L191.868,96.688 L191.868,96.288 C191.868,93.856 190.38,92.08 188.06,92.08 C185.772,92.08 184.14,93.888 184.14,96.128 C184.14,98.576 185.868,100.192 188.188,100.192 Z M190.236,95.504 L185.884,95.504 C185.964,94.56 186.62,93.456 188.06,93.456 C189.58,93.456 190.204,94.592 190.236,95.504 Z M195.852,100.192 C196.636,100.192 197.132,99.984 197.436,99.696 L197.036,98.432 C196.908,98.576 196.604,98.704 196.284,98.704 C195.804,98.704 195.548,98.32 195.548,97.792 L195.548,93.744 L197.116,93.744 L197.116,92.272 L195.548,92.272 L195.548,90.16 L193.868,90.16 L193.868,92.272 L192.588,92.272 L192.588,93.744 L193.868,93.744 L193.868,98.208 C193.868,99.488 194.556,100.192 195.852,100.192 Z M72.324,120 L72.324,113.744 L73.892,113.744 L73.892,112.272 L72.324,112.272 L72.324,111.84 C72.324,110.976 72.74,110.544 73.396,110.544 C73.684,110.544 73.908,110.608 74.068,110.72 L74.436,109.472 C74.1,109.28 73.62,109.168 73.092,109.168 C71.668,109.168 70.644,110.112 70.644,111.84 L70.644,112.272 L69.364,112.272 L69.364,113.744 L70.644,113.744 L70.644,120 L72.324,120 Z M76.004,111.328 C76.58,111.328 77.044,110.864 77.044,110.288 C77.044,109.712 76.58,109.248 76.004,109.248 C75.444,109.248 74.964,109.712 74.964,110.288 C74.964,110.864 75.444,111.328 76.004,111.328 Z M76.852,120 L76.852,112.272 L75.172,112.272 L75.172,120 L76.852,120 Z M80.708,120 L80.708,114.608 C81.092,114.08 81.828,113.568 82.692,113.568 C83.636,113.568 84.244,113.968 84.244,115.168 L84.244,120 L85.924,120 L85.924,114.56 C85.924,112.976 85.092,112.08 83.428,112.08 C82.212,112.08 81.22,112.72 80.708,113.328 L80.708,112.272 L79.028,112.272 L79.028,120 L80.708,120 Z M90.324,120.192 C91.348,120.192 92.244,119.824 92.82,119.168 L92.82,120 L94.5,120 L94.5,114.88 C94.5,112.8 92.996,112.08 91.284,112.08 C90.052,112.08 88.932,112.48 88.036,113.328 L88.724,114.496 C89.396,113.84 90.148,113.52 91.012,113.52 C92.084,113.52 92.82,114.064 92.82,114.96 L92.82,116.112 C92.26,115.456 91.364,115.12 90.324,115.12 C89.06,115.12 87.636,115.856 87.636,117.632 C87.636,119.344 89.06,120.192 90.324,120.192 Z M90.98,119.04 C90.036,119.04 89.332,118.496 89.332,117.664 C89.332,116.816 90.036,116.272 90.98,116.272 C91.716,116.272 92.436,116.544 92.82,117.072 L92.82,118.24 C92.436,118.768 91.716,119.04 90.98,119.04 Z M98.356,120 L98.356,114.608 C98.74,114.08 99.476,113.568 100.34,113.568 C101.284,113.568 101.892,113.968 101.892,115.168 L101.892,120 L103.572,120 L103.572,114.56 C103.572,112.976 102.74,112.08 101.076,112.08 C99.86,112.08 98.868,112.72 98.356,113.328 L98.356,112.272 L96.676,112.272 L96.676,120 L98.356,120 Z M109.268,120.192 C110.772,120.192 111.684,119.552 112.228,118.816 L111.124,117.792 C110.692,118.384 110.1,118.704 109.348,118.704 C107.94,118.704 107.012,117.632 107.012,116.128 C107.012,114.624 107.94,113.568 109.348,113.568 C110.1,113.568 110.692,113.872 111.124,114.48 L112.228,113.456 C111.684,112.72 110.772,112.08 109.268,112.08 C106.916,112.08 105.268,113.792 105.268,116.128 C105.268,118.48 106.916,120.192 109.268,120.192 Z M114.532,111.328 C115.108,111.328 115.572,110.864 115.572,110.288 C115.572,109.712 115.108,109.248 114.532,109.248 C113.972,109.248 113.492,109.712 113.492,110.288 C113.492,110.864 113.972,111.328 114.532,111.328 Z M115.38,120 L115.38,112.272 L113.7,112.272 L113.7,120 L115.38,120 Z M121.988,111.104 L119.748,108.8 L118.148,108.8 L120.788,111.104 L121.988,111.104 Z M121.124,120.192 C122.356,120.192 123.492,119.808 124.26,119.072 L123.492,117.968 C122.948,118.512 122.052,118.816 121.3,118.816 C119.844,118.816 118.964,117.856 118.836,116.688 L124.804,116.688 L124.804,116.288 C124.804,113.856 123.316,112.08 120.996,112.08 C118.708,112.08 117.076,113.888 117.076,116.128 C117.076,118.576 118.804,120.192 121.124,120.192 Z M123.172,115.504 L118.82,115.504 C118.9,114.56 119.556,113.456 120.996,113.456 C122.516,113.456 123.14,114.592 123.172,115.504 Z M128.148,120 L128.148,114.736 C128.484,114.192 129.428,113.712 130.132,113.712 C130.34,113.712 130.516,113.728 130.66,113.76 L130.66,112.096 C129.652,112.096 128.724,112.672 128.148,113.408 L128.148,112.272 L126.468,112.272 L126.468,120 L128.148,120 Z M135.588,120.192 C136.82,120.192 137.956,119.808 138.724,119.072 L137.956,117.968 C137.412,118.512 136.516,118.816 135.764,118.816 C134.308,118.816 133.428,117.856 133.3,116.688 L139.268,116.688 L139.268,116.288 C139.268,113.856 137.78,112.08 135.46,112.08 C133.172,112.08 131.54,113.888 131.54,116.128 C131.54,118.576 133.268,120.192 135.588,120.192 Z M137.636,115.504 L133.284,115.504 C133.364,114.56 134.02,113.456 135.46,113.456 C136.98,113.456 137.604,114.592 137.636,115.504 Z"
          id="Situationprofessionelleetfnancière" fill="#333333"></path>
      </g>
      <g id="Group-3-Copy" transform="translate(711.000000, 0.000000)">
        <g id="Step-#-Copy-8" transform="translate(74.000000, 0.000000)">
          <g id="Group-19" fill="#E6E6E6">
            <path
              d="M31,-2 C22.1304575,-2 13.8129386,1.51801383 7.66547622,7.66547622 C1.51801383,13.8129386 -2,22.1304575 -2,31 C-2,49.2253967 12.7746033,64 31,64 C49.2253967,64 64,49.2253967 64,31 C64,12.7746033 49.2253967,-2 31,-2 Z M31,2 C47.0162577,2 60,14.9837423 60,31 C60,47.0162577 47.0162577,60 31,60 C14.9837423,60 2,47.0162577 2,31 C2,23.2022277 5.0891501,15.8986566 10.4939033,10.4939033 C15.8986566,5.0891501 23.2022277,2 31,2 Z"
              id="Oval"></path>
          </g>
          <path
            d="M35.81125,40 L35.81125,36.136 L38.21925,36.136 L38.21925,32.636 L35.81125,32.636 L35.81125,21.324 L30.32325,21.324 L22.90325,33 L22.90325,36.136 L31.83525,36.136 L31.83525,40 L35.81125,40 Z M31.83525,32.636 L26.79525,32.636 L31.83525,24.852 L31.83525,32.636 Z"
            id="4" fill="#333333"></path>
        </g>
        <path
          d="M75.5,100 L79.692,89.328 L77.564,89.328 L74.332,97.968 L71.1,89.328 L68.972,89.328 L73.164,100 L75.5,100 Z M81.996,100.192 C83.02,100.192 83.916,99.824 84.492,99.168 L84.492,100 L86.172,100 L86.172,94.88 C86.172,92.8 84.668,92.08 82.956,92.08 C81.724,92.08 80.604,92.48 79.708,93.328 L80.396,94.496 C81.068,93.84 81.82,93.52 82.684,93.52 C83.756,93.52 84.492,94.064 84.492,94.96 L84.492,96.112 C83.932,95.456 83.036,95.12 81.996,95.12 C80.732,95.12 79.308,95.856 79.308,97.632 C79.308,99.344 80.732,100.192 81.996,100.192 Z M82.652,99.04 C81.708,99.04 81.004,98.496 81.004,97.664 C81.004,96.816 81.708,96.272 82.652,96.272 C83.388,96.272 84.108,96.544 84.492,97.072 L84.492,98.24 C84.108,98.768 83.388,99.04 82.652,99.04 Z M90.028,100 L90.028,89.328 L88.348,89.328 L88.348,100 L90.028,100 Z M93.036,91.328 C93.612,91.328 94.076,90.864 94.076,90.288 C94.076,89.712 93.612,89.248 93.036,89.248 C92.476,89.248 91.996,89.712 91.996,90.288 C91.996,90.864 92.476,91.328 93.036,91.328 Z M93.884,100 L93.884,92.272 L92.204,92.272 L92.204,100 L93.884,100 Z M99.02,100.192 C100.012,100.192 100.908,99.712 101.5,98.944 L101.5,100 L103.18,100 L103.18,89.328 L101.5,89.328 L101.5,93.344 C100.876,92.528 99.98,92.08 99.02,92.08 C97.02,92.08 95.58,93.648 95.58,96.144 C95.58,98.688 97.036,100.192 99.02,100.192 Z M99.5,98.704 C98.172,98.704 97.324,97.632 97.324,96.144 C97.324,94.64 98.172,93.568 99.5,93.568 C100.3,93.568 101.116,94.032 101.5,94.608 L101.5,97.68 C101.116,98.256 100.3,98.704 99.5,98.704 Z M107.58,100.192 C108.604,100.192 109.5,99.824 110.076,99.168 L110.076,100 L111.756,100 L111.756,94.88 C111.756,92.8 110.252,92.08 108.54,92.08 C107.308,92.08 106.188,92.48 105.292,93.328 L105.98,94.496 C106.652,93.84 107.404,93.52 108.268,93.52 C109.34,93.52 110.076,94.064 110.076,94.96 L110.076,96.112 C109.516,95.456 108.62,95.12 107.58,95.12 C106.316,95.12 104.892,95.856 104.892,97.632 C104.892,99.344 106.316,100.192 107.58,100.192 Z M108.236,99.04 C107.292,99.04 106.588,98.496 106.588,97.664 C106.588,96.816 107.292,96.272 108.236,96.272 C108.972,96.272 109.692,96.544 110.076,97.072 L110.076,98.24 C109.692,98.768 108.972,99.04 108.236,99.04 Z M116.252,100.192 C117.036,100.192 117.532,99.984 117.836,99.696 L117.436,98.432 C117.308,98.576 117.004,98.704 116.684,98.704 C116.204,98.704 115.948,98.32 115.948,97.792 L115.948,93.744 L117.516,93.744 L117.516,92.272 L115.948,92.272 L115.948,90.16 L114.268,90.16 L114.268,92.272 L112.988,92.272 L112.988,93.744 L114.268,93.744 L114.268,98.208 C114.268,99.488 114.956,100.192 116.252,100.192 Z M119.868,91.328 C120.444,91.328 120.908,90.864 120.908,90.288 C120.908,89.712 120.444,89.248 119.868,89.248 C119.308,89.248 118.828,89.712 118.828,90.288 C118.828,90.864 119.308,91.328 119.868,91.328 Z M120.716,100 L120.716,92.272 L119.036,92.272 L119.036,100 L120.716,100 Z M126.38,100.192 C128.86,100.192 130.364,98.352 130.364,96.128 C130.364,93.92 128.86,92.08 126.38,92.08 C123.932,92.08 122.412,93.92 122.412,96.128 C122.412,98.352 123.932,100.192 126.38,100.192 Z M126.38,98.704 C124.956,98.704 124.156,97.504 124.156,96.128 C124.156,94.768 124.956,93.568 126.38,93.568 C127.82,93.568 128.62,94.768 128.62,96.128 C128.62,97.504 127.82,98.704 126.38,98.704 Z M133.74,100 L133.74,94.608 C134.124,94.08 134.86,93.568 135.724,93.568 C136.668,93.568 137.276,93.968 137.276,95.168 L137.276,100 L138.956,100 L138.956,94.56 C138.956,92.976 138.124,92.08 136.46,92.08 C135.244,92.08 134.252,92.72 133.74,93.328 L133.74,92.272 L132.06,92.272 L132.06,100 L133.74,100 Z"
          id="Validation" fill="#333333"></path>
      </g>
    </g>
  </g>
</svg>
