<?xml version="1.0" standalone="no"?>
<!DOCTYPE svg PUBLIC "-//W3C//DTD SVG 20010904//EN"
 "http://www.w3.org/TR/2001/REC-SVG-20010904/DTD/svg10.dtd">
<svg version="1.0" xmlns="http://www.w3.org/2000/svg"
 width="16.000000pt" height="16.000000pt" viewBox="0 0 16.000000 16.000000"
 preserveAspectRatio="xMidYMid meet">
<metadata>
Created by potrace 1.11, written by Peter Selinger 2001-2013
</metadata>
<g transform="translate(0.000000,16.000000) scale(0.004692,-0.004692)"
fill="#000000" stroke="none">
<path d="M1510 2896 c-62 -28 -92 -76 -92 -147 0 -88 64 -152 151 -152 117 -1
189 111 142 217 -10 24 -32 53 -49 65 -36 25 -115 34 -152 17z"/>
<path d="M2590 2443 c-88 -18 -198 -73 -265 -134 -53 -50 -55 -50 -55 -25 0
36 -25 83 -53 98 -32 17 -115 34 -167 33 l-45 0 0 -960 0 -960 55 0 c108 -1
184 27 212 78 9 16 12 102 13 297 0 151 2 275 5 274 3 0 34 -15 70 -32 167
-82 353 -80 519 6 174 90 303 252 362 454 28 94 35 302 14 399 -42 195 -146
341 -302 421 -114 59 -236 77 -363 51z m205 -257 c139 -65 217 -226 209 -433
-8 -195 -108 -374 -249 -443 -44 -22 -63 -25 -160 -25 -102 0 -115 3 -177 32
-38 18 -83 46 -100 62 l-33 31 0 312 0 313 55 56 c127 129 302 166 455 95z"/>
<path d="M620 2418 c-303 -83 -491 -341 -491 -675 -1 -401 298 -698 691 -688
133 4 207 23 322 82 l67 35 -21 56 c-23 65 -52 100 -88 105 -25 4 -36 2 -160
-33 -165 -46 -292 -20 -393 81 -227 227 -172 671 99 804 49 24 71 29 139 29
88 0 96 -1 204 -37 117 -39 155 -23 196 83 l24 60 -45 26 c-59 35 -136 64
-209 80 -85 18 -255 14 -335 -8z"/>
<path d="M1443 2411 c-5 -3 -9 -303 -8 -666 l0 -660 137 -2 137 -1 1 612 0
613 -23 34 c-23 35 -58 57 -105 66 -42 8 -130 11 -139 4z"/>
</g>
</svg>
