<?xml version="1.0" standalone="no"?>
<!DOCTYPE svg PUBLIC "-//W3C//DTD SVG 20010904//EN"
 "http://www.w3.org/TR/2001/REC-SVG-20010904/DTD/svg10.dtd">
<svg version="1.0" xmlns="http://www.w3.org/2000/svg"
 width="700.000000pt" height="700.000000pt" viewBox="0 0 700.000000 700.000000"
 preserveAspectRatio="xMidYMid meet">
<metadata>
Created by potrace 1.11, written by Peter Selinger 2001-2013
</metadata>
<g transform="translate(0.000000,700.000000) scale(0.100000,-0.100000)"
fill="#000000" stroke="none">
<path d="M2614 4338 c5 -18 -5 -24 -18 -11 -9 9 -37 13 -32 5 4 -7 -77 -14
-163 -15 -30 0 -31 -1 -12 -11 18 -10 15 -12 -26 -14 -27 -1 -54 -9 -65 -18
-10 -10 -18 -13 -18 -9 0 5 -10 -1 -22 -12 -13 -11 -31 -19 -41 -18 -13 2 -17
-1 -13 -11 3 -7 2 -13 -2 -13 -23 4 -42 -3 -40 -13 2 -7 -7 -14 -20 -16 -12
-2 -20 -8 -17 -13 4 -5 1 -9 -4 -9 -6 0 -11 -7 -11 -16 0 -8 -4 -13 -9 -9 -5
3 -12 -4 -16 -15 -6 -18 -17 -24 -37 -21 -4 0 -5 -6 -2 -14 4 -10 0 -15 -12
-15 -16 0 -17 -2 -4 -10 10 -6 11 -10 3 -10 -7 0 -13 -8 -13 -17 0 -15 -2 -16
-10 -3 -7 11 -10 7 -10 -17 0 -25 -4 -31 -15 -26 -9 3 -15 2 -14 -3 5 -29 -2
-55 -13 -48 -8 5 -7 0 2 -11 9 -11 10 -16 3 -11 -8 4 -13 2 -14 -6 -1 -7 -2
-17 -4 -23 -1 -5 -3 -18 -3 -28 -1 -12 -6 -15 -14 -11 -9 5 -8 2 1 -9 8 -10
11 -20 7 -24 -3 -3 -6 -1 -6 5 0 29 -16 9 -16 -20 -2 -67 -4 -79 -12 -74 -5 3
-9 -2 -9 -10 0 -9 6 -13 16 -9 13 4 13 3 -1 -8 -14 -11 -18 -34 -20 -130 -2
-65 -6 -117 -10 -117 -5 0 -8 -5 -8 -11 0 -5 4 -8 9 -5 5 3 9 -10 8 -29 -1
-19 -5 -35 -9 -35 -4 0 -8 5 -8 12 0 6 -3 8 -7 4 -5 -4 1 -14 11 -22 20 -14
20 -14 0 -15 -15 0 -16 -2 -4 -7 17 -8 25 -32 10 -32 -6 0 -10 5 -10 12 0 6
-3 8 -7 4 -5 -4 0 -14 10 -21 23 -17 23 -27 0 -36 -14 -6 -15 -8 -2 -8 16 -1
23 -31 7 -31 -4 0 -8 5 -8 12 0 6 -3 8 -7 4 -5 -4 0 -14 10 -21 23 -17 23 -27
0 -36 -17 -7 -17 -8 0 -8 10 -1 15 -6 12 -11 -4 -6 -12 -8 -18 -4 -7 3 -5 0 3
-8 20 -18 24 -54 6 -61 -16 -6 -15 -55 1 -66 5 -3 9 -31 10 -60 1 -49 -1 -53
-13 -36 -8 10 -14 14 -14 8 0 -7 6 -18 13 -25 18 -19 20 -55 3 -61 -16 -6 -15
-55 1 -66 5 -3 9 -31 10 -60 1 -49 -1 -53 -13 -36 -8 10 -14 14 -14 8 0 -7 6
-18 13 -25 18 -19 20 -55 3 -61 -15 -6 -15 -54 0 -66 5 -3 10 -12 12 -20 3
-12 0 -12 -13 -1 -13 11 -15 10 -9 -4 3 -9 9 -16 13 -16 13 0 10 -48 -3 -53
-16 -6 -15 -55 1 -66 5 -3 9 -31 10 -60 1 -49 -1 -53 -13 -36 -8 10 -14 14
-14 8 0 -7 6 -18 13 -25 18 -19 20 -55 3 -61 -16 -6 -15 -55 1 -66 5 -3 9 -31
10 -60 1 -49 -1 -53 -13 -36 -8 10 -14 14 -14 8 0 -7 6 -18 13 -25 19 -21 20
-49 0 -64 -16 -13 -16 -13 0 -8 9 3 17 1 17 -4 0 -6 -8 -13 -17 -15 -17 -4
-17 -5 0 -6 12 -1 17 -10 17 -32 0 -17 4 -28 10 -24 6 3 10 0 10 -8 0 -20 15
-24 83 -24 43 0 57 4 53 14 -3 7 4 17 14 23 19 10 20 23 20 400 0 265 3 391
11 395 6 4 13 -2 16 -14 3 -12 10 -21 16 -21 5 0 16 -8 23 -17 13 -17 14 -17
8 2 -4 17 -3 16 8 -3 8 -12 17 -19 21 -16 4 4 7 -1 7 -10 0 -13 5 -16 16 -12
12 4 15 2 10 -9 -3 -8 -2 -14 2 -14 28 4 52 -3 52 -16 0 -11 11 -15 36 -15 25
0 33 -3 28 -12 -4 -7 -4 -10 1 -6 4 4 17 3 28 -3 15 -9 18 -8 11 3 -6 11 -5
11 9 -1 9 -7 28 -11 42 -9 22 5 24 3 13 -11 -7 -9 -9 -13 -4 -9 5 4 18 2 30
-4 18 -10 19 -9 9 3 -10 12 -8 15 7 15 10 0 16 -4 14 -8 -6 -9 -4 -10 104 -12
49 0 82 3 82 9 0 6 5 3 10 -5 8 -12 10 -12 10 -1 0 10 3 11 14 2 9 -8 16 -8
20 -2 4 6 14 8 24 5 14 -5 14 -4 2 4 -10 8 -19 7 -30 -1 -12 -9 -13 -9 -3 3
15 17 53 21 53 6 0 -6 5 -4 10 4 5 8 10 11 10 6 0 -5 8 -2 17 5 11 9 14 10 9
2 -5 -9 -2 -11 8 -7 9 3 13 11 9 18 -4 6 2 4 12 -4 11 -9 16 -10 11 -2 -5 9 3
12 28 12 25 0 36 4 36 15 0 8 9 15 21 15 11 0 17 5 14 10 -4 6 5 10 19 10 19
0 26 5 26 20 0 11 5 20 10 20 6 0 10 -6 10 -12 0 -9 3 -8 9 2 6 8 7 18 5 22
-3 4 4 8 15 8 14 0 26 11 36 33 8 17 13 24 10 14 -3 -10 -1 -15 5 -12 6 3 10
16 10 28 0 16 3 18 9 9 6 -10 10 -7 15 12 4 15 10 24 15 21 5 -2 12 7 16 22 3
16 11 31 17 34 6 4 11 19 11 33 0 22 1 24 11 11 10 -14 12 -12 14 11 1 15 8
34 15 42 10 13 9 15 -3 8 -13 -6 -13 -6 0 6 8 7 16 24 17 38 2 42 8 67 20 82
6 7 10 25 9 41 -1 15 2 27 7 27 4 0 3 10 -4 22 -10 18 -9 20 5 15 10 -4 16 -1
16 9 0 8 -4 13 -8 10 -5 -3 -9 1 -9 9 0 8 4 12 9 9 5 -3 8 98 8 225 -1 170 -4
231 -13 231 -8 0 -7 3 2 9 10 6 10 10 1 13 -7 2 -13 30 -14 71 -2 44 -8 73
-18 84 -9 10 -15 30 -13 45 2 15 0 27 -3 27 -20 -3 -25 2 -12 11 10 6 11 10 3
10 -7 0 -13 12 -13 28 0 21 -2 24 -10 12 -7 -10 -10 -11 -11 -2 -2 14 -5 30
-9 37 -1 3 -3 11 -4 18 -1 6 -8 11 -15 9 -8 -2 -10 4 -6 18 4 14 2 20 -9 20
-8 0 -18 9 -21 21 -9 28 -37 59 -47 53 -4 -3 -8 0 -8 7 0 21 -49 59 -68 52
-15 -5 -15 -4 1 8 17 14 17 15 -2 16 -12 1 -28 9 -37 17 -9 9 -19 14 -24 11
-5 -3 -11 3 -15 14 -3 10 -11 18 -18 18 -36 -1 -57 4 -52 13 5 8 -22 13 -51 9
-4 0 -10 5 -14 12 -5 6 -30 14 -57 16 -112 8 -125 10 -135 24 -8 11 -9 11 -4
-3z m109 -220 c9 -1 17 -6 17 -10 0 -4 18 -8 40 -8 31 0 38 -3 34 -15 -5 -11
1 -15 25 -15 17 0 31 -5 31 -11 0 -5 -5 -7 -12 -3 -7 4 -8 3 -4 -4 4 -6 13 -9
21 -6 7 3 18 -4 25 -16 6 -11 15 -18 21 -15 5 4 9 -1 9 -9 0 -9 7 -16 15 -16
8 0 14 -5 13 -12 -2 -7 4 -12 12 -13 8 0 14 -8 14 -18 -1 -9 4 -17 12 -17 8 0
14 -10 14 -25 0 -14 6 -25 13 -25 8 0 14 -6 15 -12 4 -47 7 -56 17 -48 7 5 11
-10 12 -48 2 -31 8 -59 15 -64 10 -6 9 -8 -2 -8 -12 0 -12 -2 -2 -9 8 -4 13
-11 13 -15 -1 -3 -1 -36 0 -73 0 -47 3 -62 9 -48 6 15 9 16 9 4 1 -9 -2 -19
-6 -23 -13 -12 -10 -127 2 -122 6 2 11 -5 11 -15 0 -11 -4 -15 -11 -9 -7 6
-11 2 -11 -11 0 -11 5 -18 12 -15 13 5 13 -19 -1 -31 -4 -4 -5 -2 -1 5 4 6 3
12 -3 12 -12 0 -11 -59 1 -66 4 -3 8 -11 8 -17 0 -8 -3 -8 -9 2 -5 8 -9 -17
-10 -65 -1 -49 -6 -81 -14 -86 -9 -6 -9 -8 1 -8 6 0 12 -5 12 -11 0 -5 -4 -7
-10 -4 -6 3 -11 -6 -11 -22 -1 -15 -2 -37 -3 -48 -1 -12 -7 -19 -15 -17 -12 3
-12 1 0 -14 9 -12 9 -15 2 -10 -12 6 -19 -17 -14 -46 0 -4 -5 -5 -12 -2 -8 3
-13 -4 -14 -18 -1 -13 -7 -24 -13 -26 -5 -2 -8 -8 -4 -13 3 -5 0 -9 -5 -9 -6
0 -11 -8 -11 -17 0 -14 -2 -15 -9 -5 -7 11 -10 10 -15 -3 -3 -9 -4 -21 -1 -26
4 -5 -1 -6 -9 -3 -10 4 -16 1 -16 -9 0 -8 -9 -17 -21 -20 -12 -3 -18 -10 -14
-17 3 -6 3 -10 -2 -9 -30 5 -52 -2 -47 -16 5 -11 -1 -15 -19 -15 -14 0 -29 -5
-33 -11 -4 -8 -9 -7 -15 2 -7 11 -9 10 -9 -3 0 -11 -6 -16 -20 -13 -11 2 -22
0 -25 -6 -4 -5 -11 -9 -16 -9 -6 0 -7 5 -3 11 4 7 1 10 -7 7 -8 -3 -13 -11
-11 -18 2 -10 -1 -10 -14 1 -10 8 -15 9 -11 2 4 -6 3 -14 -3 -18 -5 -3 -10 -1
-10 5 0 8 -6 8 -20 0 -19 -10 -24 -7 -21 15 1 6 -5 2 -13 -8 -8 -11 -17 -14
-20 -8 -4 6 -13 8 -21 4 -9 -3 -15 1 -15 8 0 8 -5 6 -13 -6 -13 -17 -15 -17
-30 6 -16 22 -17 22 -18 4 0 -16 -2 -17 -7 -4 -4 9 -18 15 -34 14 -18 -1 -28
3 -28 12 0 8 -11 13 -29 13 -16 0 -31 6 -35 15 -3 8 -17 15 -31 15 -15 0 -24
5 -22 13 1 6 -4 11 -10 10 -7 -2 -13 2 -13 7 0 13 -37 50 -50 50 -5 0 -6 8 -3
17 5 12 2 15 -10 10 -12 -5 -17 -1 -17 12 0 11 -4 21 -9 23 -6 2 -11 16 -14
32 -2 16 -10 34 -19 40 -8 6 -14 21 -13 34 1 12 -2 22 -6 22 -5 0 -5 7 -2 17
4 11 3 14 -5 9 -11 -7 -16 35 -15 127 1 15 -3 27 -9 27 -5 0 -6 -4 -3 -10 3
-5 1 -10 -4 -10 -12 0 -10 28 3 49 6 10 5 12 -2 7 -8 -5 -11 39 -9 161 2 133
5 167 15 165 8 -1 11 2 7 8 -3 6 -10 8 -14 6 -9 -6 -9 89 0 99 4 3 5 -7 3 -22
-1 -15 1 -33 5 -40 4 -8 8 21 10 64 1 43 6 80 12 81 6 3 5 9 -2 18 -10 12 -9
13 5 8 13 -5 15 0 12 25 -2 17 1 34 7 38 6 4 7 1 2 -7 -6 -9 -4 -11 4 -6 7 5
10 14 7 22 -3 8 -1 14 5 14 6 0 9 7 5 15 -3 8 0 14 7 12 6 -1 13 8 15 21 2 13
10 26 18 29 8 3 14 11 14 19 0 8 6 14 14 14 16 0 48 39 41 50 -3 4 7 6 21 4
19 -2 24 1 20 12 -5 12 24 20 57 15 4 0 7 6 7 14 0 10 10 15 30 15 17 0 30 5
30 10 0 6 5 10 11 10 5 0 7 -6 3 -12 -4 -7 1 -6 10 3 13 12 38 15 129 12 61
-1 120 -4 130 -5z m390 -603 c-3 -9 -8 -14 -10 -11 -3 3 -2 9 2 15 9 16 15 13
8 -4z m4 -47 c-3 -8 -6 -5 -6 6 -1 11 2 17 5 13 3 -3 4 -12 1 -19z m-1229
-403 c0 -13 -4 -22 -9 -20 -9 6 -8 45 2 45 4 0 7 -11 7 -25z m267 -105 c3 -5
1 -10 -4 -10 -6 0 -11 5 -11 10 0 6 2 10 4 10 3 0 8 -4 11 -10z m-267 -135 c0
-13 -4 -22 -9 -20 -9 6 -8 45 2 45 4 0 7 -11 7 -25z m0 -240 c0 -13 -4 -22 -9
-20 -9 6 -8 45 2 45 4 0 7 -11 7 -25z m1027 -25 c3 -5 1 -10 -4 -10 -6 0 -11
5 -11 10 0 6 2 10 4 10 3 0 8 -4 11 -10z m-1027 -135 c0 -13 -4 -22 -9 -20 -9
6 -8 45 2 45 4 0 7 -11 7 -25z m0 -240 c0 -13 -4 -22 -9 -20 -9 6 -8 45 2 45
4 0 7 -11 7 -25z"/>
<path d="M968 4332 c11 -7 -94 -16 -176 -14 -17 0 -20 -3 -13 -12 10 -11 -8
-15 -86 -19 -7 0 -10 -4 -7 -9 3 -4 -2 -8 -11 -8 -9 0 -23 -7 -32 -15 -8 -8
-19 -13 -24 -10 -5 4 -9 1 -9 -5 0 -6 -4 -9 -9 -6 -5 3 -11 -1 -15 -9 -3 -8
-12 -15 -21 -15 -8 0 -15 -7 -15 -15 0 -8 -7 -15 -15 -15 -8 0 -15 -4 -15 -10
0 -5 -7 -10 -15 -10 -8 0 -15 -8 -15 -17 0 -15 -2 -16 -10 -3 -9 13 -10 13
-10 0 0 -8 -9 -21 -20 -28 -11 -7 -17 -18 -14 -27 4 -10 0 -15 -11 -15 -9 0
-13 -4 -10 -10 3 -5 1 -10 -5 -10 -6 0 -16 -12 -23 -27 -6 -16 -16 -31 -21
-35 -5 -3 -9 -21 -9 -40 1 -18 -1 -27 -4 -20 -7 19 -23 4 -23 -23 0 -13 -6
-26 -12 -28 -10 -4 -10 -6 0 -6 6 -1 12 -6 12 -12 0 -5 -4 -7 -10 -4 -9 6 -13
-21 -12 -80 0 -11 -8 -26 -17 -33 -9 -7 -11 -11 -5 -8 9 4 11 -25 4 -44 -1 -3
-2 -8 -1 -12 0 -5 -3 -8 -7 -8 -5 0 -8 -70 -8 -155 1 -129 -1 -154 -13 -150
-11 4 -12 3 -1 -10 7 -8 10 -21 7 -29 -3 -8 -1 -17 6 -20 9 -3 9 -5 0 -5 -9
-1 -10 -8 -3 -26 6 -17 6 -25 -1 -25 -6 0 -7 -5 -3 -12 4 -6 8 -34 8 -62 1
-39 5 -50 16 -48 8 2 12 0 8 -3 -4 -4 -3 -17 3 -28 7 -11 7 -17 1 -13 -5 3
-16 -2 -23 -11 -10 -12 -10 -14 -2 -9 20 11 36 -3 22 -20 -6 -8 -7 -14 -2 -14
5 0 10 -17 11 -37 2 -21 7 -39 12 -41 6 -2 10 -21 10 -43 0 -28 4 -39 15 -39
8 0 15 -9 15 -21 0 -11 4 -17 10 -14 6 3 7 -1 4 -9 -3 -9 -1 -16 5 -16 6 0 10
-4 8 -9 -1 -5 9 -18 22 -30 15 -13 19 -21 10 -21 -7 0 0 -12 17 -28 17 -15 29
-33 26 -40 -3 -9 3 -12 14 -10 11 2 18 -2 16 -9 -1 -7 5 -13 13 -13 8 0 15 -4
15 -10 0 -5 6 -10 14 -10 7 0 16 -9 19 -20 3 -11 9 -20 14 -19 4 1 17 1 28 0
17 -1 18 -3 5 -11 -12 -8 -9 -10 13 -10 20 0 26 -4 21 -12 -5 -8 0 -7 11 2 17
14 18 13 12 -2 -6 -18 2 -21 56 -21 10 0 16 -5 14 -11 -3 -8 8 -12 35 -11 21
1 41 -2 44 -6 2 -4 14 -5 27 -2 18 4 19 3 7 -7 -12 -9 -5 -10 32 -8 25 2 45 0
43 -3 -5 -7 151 -3 163 5 6 3 13 0 16 -6 4 -7 4 -2 2 12 -5 23 -4 24 8 7 9
-11 15 -14 18 -7 2 6 21 13 43 15 22 1 44 3 48 4 5 1 5 7 1 14 -5 7 0 6 11 -3
11 -9 16 -10 11 -2 -6 11 18 18 47 13 4 0 7 6 7 14 0 9 9 15 25 15 14 0 25 5
25 10 0 6 5 10 10 10 6 0 21 11 33 23 12 13 28 22 36 19 8 -3 11 0 7 7 -4 6
-1 11 8 11 9 0 16 6 16 14 0 8 5 18 12 22 7 5 8 3 3 -6 -5 -9 -4 -11 3 -6 7 4
12 16 12 26 0 13 5 18 15 13 9 -3 15 -2 14 3 -4 25 3 44 17 44 8 0 13 4 9 9
-3 5 2 16 10 24 17 18 20 37 5 37 -5 0 -10 5 -10 11 0 5 5 7 10 4 6 -3 10 1
10 9 0 9 -6 16 -12 16 -9 0 -8 4 2 10 13 8 13 10 -1 10 -9 0 -19 9 -22 19 -7
27 -106 27 -125 -1 -7 -10 -18 -16 -23 -13 -5 4 -9 -5 -9 -19 0 -14 -5 -26
-11 -26 -5 0 -7 6 -3 13 4 7 3 9 -2 4 -9 -9 -10 -11 -13 -44 -2 -16 -3 -15
-11 2 -6 15 -9 16 -9 4 -1 -24 -38 -62 -52 -53 -8 4 -9 3 -5 -4 5 -8 -1 -12
-15 -12 -16 0 -19 -3 -11 -13 9 -10 4 -13 -21 -15 -18 -2 -33 -7 -35 -12 -2
-6 -13 -10 -23 -10 -11 0 -29 -5 -40 -10 -13 -8 -19 -7 -19 0 0 6 -5 8 -10 5
-6 -4 -8 -11 -5 -16 4 -5 -6 -4 -21 1 -25 10 -26 9 -13 -6 13 -16 12 -16 -8
-6 -25 14 -36 15 -30 5 3 -5 -15 -8 -39 -8 -24 0 -44 4 -44 8 0 4 -9 3 -20 -3
-14 -8 -20 -8 -20 0 0 6 -5 8 -12 4 -7 -4 -8 -3 -4 4 4 7 4 12 -1 13 -10 1
-61 6 -86 8 -10 0 -15 6 -12 11 4 6 -9 10 -32 11 -21 0 -32 3 -25 6 9 3 -1 14
-27 30 -26 15 -39 29 -34 36 4 7 -2 5 -12 -3 -10 -8 -16 -10 -12 -4 3 6 -3 18
-14 27 -11 10 -17 22 -13 28 3 6 -3 13 -15 16 -11 3 -18 9 -15 14 3 5 0 9 -6
9 -6 0 -8 5 -5 10 3 6 2 10 -2 10 -8 0 -12 15 -15 57 -1 7 -5 10 -10 7 -5 -3
-6 -10 -3 -15 4 -5 1 -9 -5 -9 -6 0 -10 6 -9 13 1 6 1 26 0 42 -1 24 -3 27
-12 15 -9 -12 -10 -11 -4 5 18 52 18 51 6 35 -11 -15 -12 -14 -15 28 -1 9 -5
23 -9 30 -5 7 -4 12 2 12 6 0 11 5 11 11 0 6 -6 9 -12 6 -8 -3 -14 5 -14 19
-1 13 2 24 7 24 5 0 9 5 9 11 0 5 -4 7 -10 4 -5 -3 -10 -2 -10 4 0 5 6 12 13
14 7 3 5 6 -5 6 -23 1 -23 17 -2 25 15 6 15 9 3 24 -21 25 -19 258 2 254 10
-2 9 2 -3 11 -15 12 -15 14 0 25 9 7 12 10 5 7 -6 -3 -14 -1 -18 5 -3 5 2 10
12 11 10 0 13 3 6 6 -7 2 -13 9 -13 14 0 6 5 7 10 4 6 -3 10 -1 10 4 0 6 -4
11 -10 11 -5 0 -10 5 -10 11 0 5 4 8 9 5 12 -8 19 23 16 68 -2 20 1 34 6 31 5
-4 6 1 3 9 -3 9 -1 16 5 16 6 0 11 5 11 11 0 5 -6 7 -12 3 -10 -6 -10 -4 0 7
6 7 12 22 12 32 0 11 7 25 15 31 9 6 17 21 18 34 0 12 7 22 14 22 7 0 10 6 7
14 -3 8 3 20 14 27 11 8 19 16 18 19 0 3 9 16 22 30 15 16 22 19 23 9 1 -8 4
-3 8 11 5 17 14 25 29 24 15 0 19 3 12 11 -6 7 -2 11 12 12 11 1 25 9 32 18 6
9 27 16 48 17 21 1 35 5 32 10 -7 10 -11 10 144 12 72 2 132 -1 132 -6 0 -5 5
-6 10 -3 6 3 10 1 10 -6 0 -8 5 -7 17 2 10 8 14 9 10 2 -5 -8 3 -13 25 -15 21
-2 32 -8 30 -16 -1 -7 3 -12 10 -11 31 4 48 -2 48 -16 0 -8 4 -15 10 -15 15 0
50 -33 44 -42 -3 -4 2 -8 10 -8 9 0 16 -9 16 -20 0 -13 5 -18 15 -14 8 4 15 1
15 -6 0 -14 38 -50 52 -50 5 0 7 -4 3 -9 -3 -6 14 -9 39 -8 32 1 42 5 39 14
-3 8 -2 13 3 12 24 -4 34 3 34 24 0 18 2 19 10 7 16 -24 9 61 -7 88 -8 12 -11
27 -7 33 3 6 -2 9 -12 7 -13 -2 -18 2 -16 15 2 10 -3 17 -13 17 -8 0 -15 7
-15 15 0 8 -7 15 -15 15 -8 0 -15 5 -15 11 0 16 -26 39 -44 39 -10 0 -13 6
-10 15 4 8 1 15 -6 15 -7 0 -19 8 -27 18 -14 16 -14 16 -9 -3 l6 -20 -15 20
c-9 11 -19 19 -23 17 -3 -2 -9 3 -12 10 -3 7 -14 14 -25 14 -11 0 -19 5 -18
12 2 7 -2 12 -7 12 -5 0 -10 -6 -10 -12 0 -10 -2 -10 -8 -2 -4 7 -18 14 -32
15 -14 2 -29 9 -35 16 -6 8 -45 13 -98 15 -49 2 -91 6 -94 11 -2 4 -10 7 -16
7 -9 0 -8 -3 1 -8z m202 -33 c0 -4 -9 -7 -19 -6 -11 0 -18 4 -16 7 6 9 35 8
35 -1z m375 -288 c3 -5 2 -12 -3 -15 -5 -3 -9 1 -9 9 0 17 3 19 12 6z"/>
<path d="M4295 4330 c-3 -5 -24 -10 -46 -10 -24 0 -38 -4 -34 -10 4 -6 -3 -6
-21 0 -22 9 -25 8 -20 -5 4 -12 -2 -15 -29 -15 -19 0 -35 -5 -35 -11 0 -8 -5
-7 -15 1 -13 11 -14 10 -9 -3 4 -12 1 -15 -15 -12 -16 3 -21 -1 -21 -18 -1
-19 -2 -20 -13 -6 -11 14 -14 14 -32 -7 -11 -13 -28 -24 -37 -24 -21 0 -24
-16 -5 -24 8 -4 7 -5 -3 -5 -30 2 -41 -1 -36 -10 7 -11 -22 -23 -36 -14 -6 3
-8 1 -5 -5 9 -14 -3 -43 -14 -36 -9 5 -13 -9 -9 -35 2 -13 0 -13 -16 0 -11 8
-15 9 -10 2 4 -7 3 -13 -3 -13 -6 0 -8 -7 -4 -15 3 -9 2 -15 -3 -13 -5 2 -10
-1 -11 -5 -1 -4 -11 -19 -22 -33 -11 -14 -17 -32 -14 -41 5 -12 2 -15 -8 -11
-12 5 -16 -3 -18 -35 -1 -22 -7 -48 -12 -56 -9 -14 -10 -14 -5 2 3 9 1 17 -4
17 -6 0 -10 -25 -10 -55 0 -45 -3 -55 -17 -55 -15 0 -14 -2 3 -15 12 -10 14
-14 5 -13 -12 2 -15 -10 -15 -54 -1 -44 -5 -58 -16 -59 -10 0 -11 -2 -2 -6 6
-2 12 -18 12 -34 0 -17 -4 -28 -8 -25 -4 2 -9 -5 -9 -17 -2 -17 0 -18 7 -7 7
11 9 10 7 -7 0 -12 -5 -19 -9 -17 -4 3 -8 0 -8 -5 0 -6 5 -11 10 -11 6 0 10
-4 10 -10 0 -5 -8 -7 -17 -4 -15 5 -15 3 1 -10 20 -16 20 -16 0 -17 -18 0 -18
-1 1 -9 11 -5 14 -9 8 -9 -14 -1 -18 -71 -5 -71 5 0 9 -7 9 -15 0 -11 -4 -12
-14 -4 -18 16 -16 4 3 -15 9 -9 11 -16 4 -16 -6 0 -8 -5 -5 -10 4 -6 11 -7 17
-4 7 4 8 2 4 -5 -4 -6 -12 -9 -17 -6 -5 4 -9 1 -9 -4 0 -6 5 -11 10 -11 6 0
10 -5 10 -11 0 -6 -7 -9 -14 -6 -10 4 -13 1 -9 -8 3 -8 9 -12 14 -9 5 3 9 -10
10 -28 1 -50 6 -161 8 -178 1 -12 3 -13 10 -1 6 9 9 -1 11 -30 3 -79 3 -79 17
-67 10 8 13 1 13 -36 0 -31 4 -45 13 -43 7 1 12 -8 11 -25 0 -15 2 -26 5 -26
25 2 33 -4 28 -22 -3 -11 0 -23 5 -27 7 -4 8 -1 3 7 -5 9 -4 11 3 6 7 -4 12
-16 12 -27 0 -11 4 -17 10 -14 5 3 15 -5 21 -19 7 -14 16 -23 20 -20 5 3 6 -2
3 -10 -4 -12 0 -16 16 -16 11 0 18 -4 15 -10 -3 -5 1 -10 9 -10 9 0 16 -7 16
-16 0 -8 5 -12 11 -9 6 4 13 -2 15 -12 3 -10 15 -20 26 -20 12 -1 24 -7 28
-13 4 -6 17 -12 28 -13 12 -1 22 -7 22 -14 0 -11 27 -18 53 -14 4 0 7 -5 7
-12 0 -8 13 -12 38 -11 20 0 48 -6 61 -14 13 -8 21 -10 18 -5 -3 5 5 9 18 9
13 0 21 -4 19 -8 -3 -5 -10 -5 -16 -2 -6 4 -8 3 -5 -3 7 -11 36 -11 53 0 6 3
14 3 18 -1 4 -4 52 -7 107 -7 81 0 99 3 100 15 0 10 2 11 6 3 7 -19 23 -16 24
5 0 14 2 14 9 -3 6 -15 9 -16 9 -4 1 11 10 15 37 14 27 -2 34 1 29 13 -4 12
-3 13 10 2 10 -8 15 -9 15 -1 0 6 3 10 8 10 31 -5 72 3 70 14 -2 6 6 12 17 12
12 1 19 7 17 15 -3 11 0 11 14 -1 10 -8 15 -9 11 -3 -8 13 20 27 35 18 5 -3
12 3 15 15 3 12 10 21 17 21 6 0 40 28 76 62 36 34 58 58 50 54 -8 -4 -4 1 9
12 13 11 21 24 17 31 -4 6 0 14 8 17 18 7 19 64 1 61 -5 -1 -9 4 -8 11 2 6 -2
13 -7 13 -6 1 -15 2 -21 3 -6 0 -17 10 -25 20 -12 18 -19 15 -15 -6 0 -5 -4
-8 -9 -8 -6 0 -10 7 -10 15 0 9 -6 12 -15 9 -8 -4 -12 -10 -9 -15 5 -8 -9 -13
-28 -10 -5 0 -8 -5 -8 -13 0 -16 -27 -29 -43 -20 -7 3 -4 -1 6 -9 16 -13 15
-15 -14 -21 -18 -3 -29 -9 -26 -12 10 -10 -42 -46 -54 -38 -8 4 -9 3 -5 -4 3
-6 -3 -16 -14 -22 -11 -6 -20 -7 -20 -3 0 4 -5 0 -11 -9 -6 -11 -22 -18 -40
-18 -18 0 -28 -4 -24 -10 6 -10 -4 -12 -68 -14 -15 -1 -31 -6 -35 -12 -9 -14
-45 -27 -37 -14 7 11 -8 14 -19 3 -10 -11 -76 -10 -76 1 0 6 -5 5 -12 -2 -9
-9 -15 -9 -27 1 -8 6 -12 7 -9 2 9 -14 -31 -12 -59 3 -13 7 -42 15 -65 18 -24
4 -45 10 -48 13 -3 4 -13 10 -23 14 -11 4 -15 12 -11 18 4 8 3 9 -5 5 -6 -4
-9 -12 -6 -17 4 -5 1 -9 -4 -9 -6 0 -11 7 -11 15 0 8 -6 15 -14 15 -8 0 -17 7
-20 16 -3 8 -10 12 -16 9 -5 -3 -10 0 -10 8 0 7 -11 19 -25 25 -14 6 -25 16
-25 22 0 6 -5 8 -12 4 -7 -4 -8 -3 -4 5 7 11 -17 45 -26 36 -2 -2 -5 5 -5 17
-1 12 -9 26 -18 30 -9 5 -15 23 -15 42 0 19 -6 36 -13 39 -9 3 -13 20 -13 47
1 23 -2 44 -6 46 -5 3 -6 10 -3 15 4 5 0 11 -7 14 -11 4 -14 31 -13 110 1 104
8 132 25 105 9 -13 10 -13 10 0 1 11 4 10 17 -5 13 -16 15 -17 10 -2 -4 9 -2
17 3 17 6 0 10 -6 10 -12 0 -9 4 -8 11 2 8 11 12 12 16 3 2 -7 9 -13 14 -13 6
0 8 4 5 8 -8 13 278 11 286 -2 5 -8 8 -7 8 2 0 18 27 15 40 -5 11 -17 11 -17
6 0 -3 9 -1 17 4 17 6 0 10 -6 10 -12 0 -9 4 -8 10 2 9 13 11 13 20 0 9 -13
10 -13 10 0 1 11 4 10 17 -5 13 -16 15 -17 10 -2 -4 9 -2 17 3 17 6 0 10 -6
10 -12 0 -9 4 -8 10 2 8 12 11 13 19 1 6 -9 11 -10 15 -2 4 5 27 10 51 9 28 0
42 -4 38 -11 -4 -6 -1 -7 8 -1 8 4 62 9 122 10 90 2 109 0 118 -14 10 -16 10
-15 5 1 -3 9 -1 17 4 17 6 0 10 -6 10 -12 0 -9 4 -8 10 2 9 13 11 13 20 0 9
-13 10 -13 10 0 1 11 4 10 17 -5 13 -16 15 -17 10 -2 -4 9 -2 17 3 17 6 0 10
-6 10 -12 0 -9 4 -8 11 2 8 11 12 12 16 3 2 -7 9 -13 14 -13 6 0 8 4 5 8 -3 5
14 9 37 10 24 1 47 8 53 17 6 8 16 15 23 15 8 0 11 37 11 121 0 93 -3 119 -12
113 -7 -4 -10 -4 -6 1 4 4 3 16 -2 26 -8 13 -6 20 7 28 15 8 15 10 3 11 -12 0
-16 14 -18 57 -1 31 -7 62 -12 68 -5 7 -7 15 -3 18 3 4 1 7 -5 7 -6 0 -9 9 -7
20 2 11 -1 22 -7 26 -6 4 -5 10 3 15 11 7 10 9 -3 9 -10 0 -19 7 -19 15 -3 35
-6 40 -18 37 -7 -1 -11 3 -8 10 6 18 -12 50 -24 43 -5 -4 -9 8 -9 25 0 17 -4
29 -9 26 -5 -3 -15 2 -22 11 -10 12 -10 14 -1 9 6 -4 12 -2 12 3 0 6 -9 11
-20 11 -11 0 -20 5 -20 11 0 14 -55 69 -69 69 -6 0 -11 7 -11 15 0 8 -6 14
-12 13 -7 -2 -12 3 -10 11 3 12 1 12 -14 0 -16 -12 -17 -12 -11 3 4 12 2 15
-9 11 -7 -3 -14 0 -14 6 0 6 -7 11 -15 11 -8 0 -15 5 -15 10 0 6 -14 10 -31
10 -17 0 -28 4 -24 10 5 9 -50 16 -79 11 -5 -1 -4 4 2 11 9 12 0 14 -50 16
-37 1 -65 7 -70 14 -4 7 -8 8 -8 3 0 -16 -70 -18 -70 -3 0 9 -3 9 -10 -2 -9
-13 -11 -13 -20 0 -6 10 -10 11 -10 3 0 -7 -9 -13 -21 -13 -11 0 -17 5 -14 10
3 6 4 10 1 10 -3 0 -8 -4 -11 -10z m46 -184 c-7 -9 -8 -17 -3 -20 6 -3 13 2
16 11 6 14 8 14 22 -3 12 -16 14 -17 12 -2 -2 9 2 17 7 17 6 1 10 -3 10 -8 0
-5 4 -13 9 -18 5 -4 6 -3 2 4 -3 6 -2 14 4 18 5 3 10 -2 10 -12 0 -14 2 -15 9
-4 5 7 11 9 14 4 4 -5 16 -9 29 -8 13 1 29 -3 37 -9 12 -9 13 -8 6 4 -5 9 1 7
15 -5 13 -11 20 -14 16 -7 -4 6 -2 12 3 12 6 0 11 -4 11 -9 0 -5 12 -11 28
-13 15 -2 26 -8 25 -15 -3 -11 24 -18 50 -14 4 0 7 -6 7 -15 0 -8 5 -12 10 -9
9 5 14 -7 12 -26 -1 -4 6 -6 16 -5 9 0 16 -5 15 -11 -2 -7 4 -13 12 -13 8 0
15 -7 15 -15 0 -8 8 -15 18 -15 13 0 14 -2 3 -9 -11 -7 -9 -10 9 -16 18 -6 20
-9 9 -16 -11 -7 -10 -9 3 -9 14 0 17 -7 14 -32 -3 -28 -2 -30 8 -15 11 14 13
12 14 -19 1 -22 9 -42 19 -50 17 -13 17 -14 -2 -8 -19 5 -19 5 -2 -9 12 -10
17 -29 17 -66 0 -34 4 -51 13 -52 10 0 10 -2 0 -6 -15 -5 -18 -33 -4 -33 5 0
12 -7 15 -16 5 -13 3 -14 -7 -6 -10 8 -13 6 -14 -9 -1 -11 2 -17 6 -15 4 3 8
-1 8 -9 0 -8 -9 -15 -19 -15 -10 0 -18 -5 -18 -11 0 -5 5 -7 12 -3 6 4 9 3 6
-2 -4 -5 -97 -8 -212 -6 -127 2 -204 6 -201 12 3 6 -1 7 -9 4 -9 -3 -13 -10
-10 -15 3 -5 -2 -6 -10 -3 -9 3 -13 11 -9 18 3 6 1 6 -8 -1 -16 -16 -204 -18
-194 -3 3 6 -1 7 -9 4 -9 -3 -13 -10 -10 -15 3 -5 -2 -6 -10 -3 -9 3 -14 9
-11 13 2 4 -2 8 -10 8 -8 0 -12 -4 -9 -9 3 -4 -2 -8 -11 -8 -9 0 -13 4 -10 10
3 6 -1 7 -9 4 -9 -3 -13 -10 -10 -15 3 -5 -2 -6 -10 -3 -9 3 -13 11 -9 18 3 6
1 6 -8 -1 -16 -16 -204 -18 -194 -3 3 6 2 10 -3 10 -14 0 -7 158 8 175 7 9 8
15 0 20 -5 3 -10 12 -9 18 0 9 2 9 6 0 9 -25 19 -13 18 25 0 26 4 36 14 34 12
-3 12 0 1 12 -8 11 -9 16 -1 16 6 0 11 9 11 21 0 13 4 18 13 13 7 -5 7 -2 -2
10 -12 14 -12 17 -1 14 8 -2 14 4 15 12 0 9 9 14 20 13 20 -1 20 -1 1 13 -18
13 -12 19 16 15 4 0 4 7 1 16 -4 11 -3 14 5 9 8 -5 12 1 12 16 0 18 2 20 10 8
7 -12 10 -12 10 -1 0 8 6 11 16 7 15 -6 15 -4 3 11 -8 9 -9 14 -2 10 6 -4 13
-4 15 0 1 5 17 16 33 25 17 10 29 21 28 26 -1 4 14 9 34 10 19 2 42 9 50 17
18 18 27 19 17 3 -6 -10 -4 -10 7 -2 8 6 24 10 36 9 12 -1 25 5 28 12 2 8 9
12 14 8 5 -3 12 -1 16 5 3 5 9 10 12 10 3 0 0 -6 -6 -14z m-438 -1061 c-7 -21
-12 -19 -10 4 0 11 5 18 9 15 4 -3 5 -11 1 -19z m1144 -257 c-3 -8 -6 -5 -6 6
-1 11 2 17 5 13 3 -3 4 -12 1 -19z m-479 -153 c-3 -3 -9 2 -12 12 -6 14 -5 15
5 6 7 -7 10 -15 7 -18z m286 -61 c3 -8 2 -12 -4 -9 -6 3 -10 10 -10 16 0 14 7
11 14 -7z"/>
<path d="M5396 4309 c2 -4 14 -6 26 -4 11 3 17 1 14 -3 -4 -4 -16 -8 -27 -8
-10 -1 -28 -2 -40 -3 -11 0 -18 -4 -16 -8 6 -9 -19 -34 -26 -27 -2 3 -2 -7 0
-21 3 -14 0 -32 -8 -41 -10 -12 -10 -15 1 -12 8 2 14 -8 16 -27 1 -16 9 -43
17 -59 9 -16 14 -37 12 -48 -3 -15 -1 -17 8 -9 10 7 13 3 15 -16 1 -15 8 -30
15 -35 9 -6 9 -8 0 -8 -7 0 -13 -5 -13 -11 0 -5 5 -7 10 -4 6 3 11 0 12 -7 4
-38 19 -78 28 -73 4 2 7 -10 8 -27 0 -17 6 -36 11 -41 6 -6 11 -19 11 -28 0
-10 5 -19 12 -21 6 -2 13 -14 14 -26 7 -40 9 -47 19 -54 6 -5 4 -8 -4 -8 -11
0 -10 -4 4 -14 12 -8 16 -20 12 -35 -3 -11 -2 -19 3 -16 4 3 14 -3 21 -12 10
-12 10 -15 1 -9 -7 4 -3 -9 8 -29 11 -19 20 -49 20 -65 0 -20 5 -30 15 -30 10
0 15 -10 15 -30 0 -17 5 -30 13 -30 8 0 7 -4 -3 -10 -13 -9 -13 -10 1 -10 11
0 15 -9 13 -30 -1 -16 2 -28 6 -25 11 7 32 -30 23 -39 -4 -3 2 -13 13 -21 16
-13 16 -14 1 -9 -13 5 -16 2 -11 -10 3 -9 10 -13 15 -10 5 3 9 -8 9 -25 0 -16
5 -31 10 -33 6 -2 12 -20 13 -41 2 -30 4 -34 13 -22 10 13 12 12 12 -7 1 -13
3 -32 6 -43 2 -11 5 -27 5 -35 1 -13 2 -13 11 0 7 11 10 6 10 -21 0 -23 6 -39
15 -43 10 -3 15 -19 15 -46 0 -25 4 -39 10 -35 6 3 11 -1 11 -9 1 -9 3 -20 4
-26 1 -5 3 -20 4 -32 2 -22 3 -22 11 -3 8 17 9 16 11 -10 1 -16 2 -36 2 -42
-1 -7 4 -13 9 -13 6 0 7 -7 4 -16 -3 -8 -2 -12 4 -9 6 4 10 -5 10 -20 0 -19 4
-26 14 -22 8 3 13 -2 13 -16 1 -51 3 -58 16 -51 8 5 8 3 -2 -9 -11 -14 -11
-18 3 -23 9 -3 13 -10 10 -15 -3 -5 2 -9 10 -9 10 0 13 -6 9 -15 -3 -10 0 -15
8 -13 8 2 13 -3 11 -10 -1 -8 2 -11 8 -7 5 3 10 2 10 -2 0 -5 26 -9 58 -8 41
0 56 4 54 13 -1 8 2 11 7 7 6 -3 15 4 21 15 6 11 16 17 22 14 6 -4 8 -3 5 4
-10 15 3 43 17 35 6 -4 4 2 -4 12 -9 11 -10 16 -2 11 8 -5 12 2 12 23 0 17 5
31 11 31 5 0 7 -6 3 -12 -4 -7 -3 -9 1 -5 5 4 11 20 13 35 2 14 9 33 15 41 9
12 9 13 -1 7 -7 -4 -3 9 8 29 12 21 15 34 8 30 -7 -4 -5 0 4 8 9 7 20 29 23
48 3 18 10 36 15 39 5 3 10 22 12 42 1 20 6 34 10 32 5 -3 5 -11 2 -17 -4 -7
-3 -8 1 -4 5 4 10 13 11 20 1 7 3 23 5 37 2 14 10 31 17 38 7 8 10 18 7 23 -4
5 -1 9 6 9 8 0 7 5 -2 17 -13 15 -12 16 9 11 19 -5 21 -4 11 8 -9 11 -9 14 1
14 7 0 10 7 6 16 -4 10 0 21 9 28 9 7 16 30 18 59 2 40 4 45 15 30 10 -15 12
-12 12 21 0 27 3 35 13 30 7 -5 7 -2 -2 10 -12 14 -12 17 -1 14 9 -2 14 6 15
22 0 15 7 26 18 28 9 2 15 8 11 13 -3 5 -11 7 -17 3 -7 -3 -5 0 3 8 9 7 16 22
16 33 0 11 5 19 12 18 10 -3 18 48 13 80 -1 5 3 6 8 3 13 -9 20 5 23 47 1 20
6 33 10 31 5 -3 5 -10 2 -16 -4 -6 -2 -8 3 -5 6 4 9 21 7 38 -3 26 -1 30 14
24 14 -5 15 -4 5 6 -15 15 -17 33 -3 24 9 -5 16 41 11 69 -1 5 5 4 13 -4 14
-11 16 -8 16 18 0 19 7 36 18 42 15 10 15 11 0 6 -12 -3 -15 -1 -11 10 3 7 9
14 14 14 5 0 8 3 8 8 -1 4 -1 21 1 37 1 26 3 27 10 10 8 -19 9 -19 9 3 1 36 2
37 17 45 13 7 13 11 2 25 -10 12 -10 14 0 8 8 -5 12 0 12 13 0 34 1 36 16 44
8 5 14 23 14 45 0 28 3 33 10 22 8 -12 10 -11 10 8 0 35 0 36 18 57 16 19 16
19 -2 5 -18 -13 -19 -13 -11 0 4 8 15 24 24 35 10 13 11 16 1 8 -21 -19 -29
-16 -23 8 6 22 -26 59 -51 59 -10 0 -13 6 -9 18 5 15 4 14 -9 -2 -12 -15 -17
-16 -23 -6 -6 9 -4 11 6 5 8 -5 10 -4 6 0 -15 17 -36 14 -29 -3 5 -15 4 -16
-13 -2 -11 9 -16 10 -11 3 5 -9 0 -13 -13 -13 -19 0 -27 -16 -22 -44 1 -5 -5
-4 -13 3 -12 10 -14 9 -9 -7 2 -11 0 -23 -7 -27 -8 -5 -7 -11 2 -23 11 -13 10
-15 -4 -9 -10 3 -17 3 -17 -1 1 -4 1 -22 0 -41 -1 -25 -5 -32 -16 -27 -8 3
-14 2 -14 -2 5 -29 -3 -72 -11 -67 -6 3 -10 -5 -10 -19 0 -14 -5 -28 -11 -31
-6 -4 -8 -13 -5 -21 3 -9 -1 -14 -12 -14 -15 0 -15 -2 -2 -10 8 -5 10 -10 3
-10 -6 0 -10 -11 -8 -25 1 -16 -3 -25 -11 -25 -9 0 -14 -12 -14 -36 0 -26 -4
-35 -13 -31 -12 4 -17 -14 -20 -80 0 -7 -4 -10 -9 -7 -8 5 -12 -9 -9 -33 1 -7
-6 -13 -16 -14 -11 0 -13 -3 -5 -6 6 -2 12 -9 12 -14 0 -6 -4 -7 -10 -4 -5 3
-11 -2 -12 -12 0 -10 -2 -25 -2 -33 -1 -8 -6 -14 -12 -13 -5 1 -10 -6 -11 -15
-3 -52 -9 -75 -20 -79 -7 -3 -13 -14 -13 -24 0 -10 -6 -19 -12 -19 -9 0 -8 -4
2 -10 8 -5 10 -10 4 -10 -6 0 -14 -14 -18 -31 -4 -20 -10 -28 -17 -23 -7 4 -9
3 -5 -4 3 -5 3 -12 -1 -15 -5 -2 -3 -2 4 -1 7 2 15 -2 19 -8 4 -6 3 -8 -3 -5
-13 8 -37 -18 -29 -31 3 -6 -1 -15 -9 -22 -8 -7 -15 -27 -15 -46 0 -18 -5 -36
-12 -40 -6 -4 -8 -3 -4 4 3 6 2 13 -3 16 -5 4 -8 -5 -7 -19 2 -14 -3 -36 -10
-50 -10 -19 -10 -24 -1 -20 7 4 5 1 -3 -7 -8 -7 -15 -19 -16 -25 -1 -7 -2 -23
-3 -35 -1 -19 -3 -20 -11 -8 -8 13 -10 13 -11 -2 -2 -26 -4 -31 -16 -54 -7
-12 -13 -38 -15 -58 -1 -22 -7 -35 -13 -32 -7 2 -11 -7 -10 -24 1 -15 -4 -36
-12 -46 -12 -17 -13 -17 -13 0 0 11 -4 15 -12 10 -9 -5 -8 -2 1 9 12 15 12 17
-3 11 -13 -5 -16 1 -16 34 0 23 -4 44 -10 47 -6 3 -7 -1 -4 -9 3 -9 2 -16 -3
-16 -5 0 -10 17 -11 37 -2 21 -7 40 -12 43 -6 3 -11 18 -12 33 -1 15 -8 27
-15 27 -7 0 -13 8 -13 18 0 14 2 15 10 2 7 -10 10 -11 10 -2 0 7 -7 15 -15 18
-9 4 -15 19 -15 35 0 16 -4 29 -10 29 -5 0 -10 13 -10 29 0 32 -15 50 -23 29
-5 -11 -11 54 -8 75 0 4 -5 7 -13 7 -7 0 -13 10 -13 23 -1 12 -1 31 -2 42 l-2
20 -9 -20 c-8 -18 -9 -18 -10 5 -3 43 -8 63 -20 70 -6 4 -10 11 -9 16 4 25 -2
46 -13 41 -9 -3 -14 8 -16 32 -1 20 -7 38 -12 39 -6 2 -10 8 -10 13 0 6 6 7
13 4 6 -4 4 0 -6 8 -11 9 -15 21 -10 32 5 15 3 17 -12 12 -15 -6 -16 -5 -5 8
10 12 9 15 -6 15 -16 0 -17 2 -4 10 10 6 11 10 3 10 -7 0 -13 9 -13 19 0 11
-5 21 -10 23 -6 2 -11 20 -12 40 -1 21 -5 35 -10 32 -4 -3 -8 2 -8 10 0 28 -1
31 -18 49 -15 17 -15 17 3 11 13 -5 16 -4 11 4 -4 7 -14 12 -23 12 -9 0 -13 3
-10 7 4 3 2 12 -4 20 -9 10 -8 13 2 13 10 1 8 4 -3 11 -12 7 -18 22 -18 49 0
22 -4 40 -10 40 -5 0 -7 -8 -4 -17 5 -16 4 -16 -5 -2 -5 8 -11 34 -12 56 -2
27 -7 39 -15 36 -6 -2 -11 4 -11 14 0 43 -3 54 -15 47 -8 -5 -9 -2 -5 9 3 10
3 17 -1 17 -4 0 -9 10 -9 22 -1 13 -9 28 -17 34 -9 6 -13 14 -9 17 3 4 -5 7
-19 7 -15 0 -28 5 -30 12 -3 7 -16 13 -31 13 -14 1 -24 -2 -21 -6z"/>
<path d="M5076 3655 c4 -8 8 -15 10 -15 2 0 4 7 4 15 0 8 -4 15 -10 15 -5 0
-7 -7 -4 -15z"/>
<path d="M4108 3343 c7 -3 16 -2 19 1 4 3 -2 6 -13 5 -11 0 -14 -3 -6 -6z"/>
<path d="M4228 3343 c7 -3 16 -2 19 1 4 3 -2 6 -13 5 -11 0 -14 -3 -6 -6z"/>
<path d="M4508 3343 c7 -3 16 -2 19 1 4 3 -2 6 -13 5 -11 0 -14 -3 -6 -6z"/>
<path d="M4668 3343 c7 -3 16 -2 19 1 4 3 -2 6 -13 5 -11 0 -14 -3 -6 -6z"/>
<path d="M1863 3125 c0 -8 4 -12 9 -9 5 3 6 10 3 15 -9 13 -12 11 -12 -6z"/>
<path d="M275 3100 c-3 -5 -1 -10 4 -10 6 0 11 5 11 10 0 6 -2 10 -4 10 -3 0
-8 -4 -11 -10z"/>
<path d="M1865 2995 c0 -13 2 -26 5 -29 3 -3 6 5 5 19 0 13 -2 26 -5 29 -3 3
-6 -5 -5 -19z"/>
<path d="M5775 2960 c3 -5 8 -10 11 -10 2 0 4 5 4 10 0 6 -5 10 -11 10 -5 0
-7 -4 -4 -10z"/>
<path d="M4996 2908 c3 -5 10 -6 15 -3 13 9 11 12 -6 12 -8 0 -12 -4 -9 -9z"/>
<path d="M1863 2885 c0 -8 4 -12 9 -9 5 3 6 10 3 15 -9 13 -12 11 -12 -6z"/>
<path d="M1865 2755 c0 -13 2 -26 5 -29 3 -3 6 5 5 19 0 13 -2 26 -5 29 -3 3
-6 -5 -5 -19z"/>
<path d="M4310 2701 c0 -6 4 -12 8 -15 5 -3 9 1 9 9 0 8 -4 15 -9 15 -4 0 -8
-4 -8 -9z"/>
<path d="M1863 2645 c0 -8 4 -12 9 -9 5 3 6 10 3 15 -9 13 -12 11 -12 -6z"/>
<path d="M1863 2485 c0 -8 4 -12 9 -9 5 3 6 10 3 15 -9 13 -12 11 -12 -6z"/>
<path d="M1865 2355 c0 -13 2 -26 5 -29 3 -3 6 5 5 19 0 13 -2 26 -5 29 -3 3
-6 -5 -5 -19z"/>
<path d="M1863 2245 c0 -8 4 -12 9 -9 5 3 6 10 3 15 -9 13 -12 11 -12 -6z"/>
<path d="M1865 2115 c0 -13 2 -26 5 -29 3 -3 6 5 5 19 0 13 -2 26 -5 29 -3 3
-6 -5 -5 -19z"/>
<path d="M1863 2005 c0 -8 4 -12 9 -9 5 3 6 10 3 15 -9 13 -12 11 -12 -6z"/>
</g>
</svg>
