<?xml version="1.0" standalone="no"?>
<!DOCTYPE svg PUBLIC "-//W3C//DTD SVG 1.1//EN" "http://www.w3.org/Graphics/SVG/1.1/DTD/svg11.dtd" >
<svg xmlns="http://www.w3.org/2000/svg">
<metadata>
Created by FontPrep 20130207 at Thu Jul 21 11:51:41 2016
 By Kevin Wenger
Copyright (c) 2010 Linotype Corp., www.linotype.com. All rights reserved. This font software may not be reproduced, modified, disclosed or transferred without the express written approval of Linotype Corp. Frutiger is a trademark of Linotype Corp. registered in the U.S. Patent and Trademark Office and may be registered in certain other jurisdictions in the name of Linotype Corp. or its licensee Linotype GmbH. This typeface is original artwork of Adrian Frutiger and Linotype Design Studio. The design may be protected in certain jurisdictions.
</metadata>
<defs>
<font id="9f16d3ee72770d9f1ba0eaf07f69fb17" horiz-adv-x='1024' >
  <font-face 
    font-family="FrutigerNeueLTW1G-Regular"
    font-weight="400"
    font-stretch="normal"
    units-per-em="2048"
    panose-1="2 11 6 3 4 3 4 2 2 3"
    ascent="1556"
    descent="-492"
    x-height="1044"
    cap-height="1430"
    bbox="-381 -475 2533 1919"
    underline-thickness="102"
    underline-position="-102"
    unicode-range="U+000D-FB04"
  />
<missing-glyph horiz-adv-x="1048" 
d="M0 1470h1049v-1470h-1049v1470zM102 102h844v1264h-844v-1264zM555 479h-94l-4 35q1 115 29 169t92 118q63 59 82 94q20 35 20 93t-46 107q-46 50 -110 50q-145 0 -168 -195l-102 17q14 141 88 211t186 70t185 -74q72 -74 71 -195q0 -70 -26 -123t-103 -122
q-76 -69 -88 -109t-12 -146zM569 240h-114v137h114v-137z" />
    <glyph glyph-name="IJ" unicode="IJ" horiz-adv-x="1380" 
d="M991 440v990h207v-1049q0 -180 -97 -293t-292 -113q-106 0 -182 27v178q66 -27 137 -26q125 0 176 63t51 223zM406 1430v-1430h-209v1430h209z" />
    <glyph glyph-name="ij" unicode="ij" horiz-adv-x="1110" 
d="M928 1044v-1105q0 -393 -324 -394q-43 0 -90 11v159q27 -4 55 -4q88 1 125 59t37 193v1081h197zM938 1448v-215h-217v215h217zM379 1044v-1044h-197v1044h197zM389 1448v-215h-217v215h217z" />
    <glyph glyph-name="napostrophe" unicode="&#x22;n" horiz-adv-x="1267" 
d="M186 1548l-86 -362h-114l26 362h174zM362 877h5q127 193 348 192q389 0 389 -471v-598h-195v516q0 237 -61 315t-180 76q-76 0 -143 -41q-67 -42 -111 -118t-45 -248v-500h-195v735q0 199 -10 309h190q8 -89 8 -167z" />
    <glyph glyph-name="f_f" unicode="ff" horiz-adv-x="1470" 
d="M1155 1141v-103h281v-153h-281v-885h-192v885h-486v-885h-192v885h-248v153h248v99q0 420 340 419q76 0 143 -16l-14 -158q-51 12 -101 13q-96 1 -136 -59t-40 -195v-103h486v99q0 420 340 419q75 0 143 -16l-14 -158q-51 12 -101 13q-96 1 -136 -59t-40 -195z" />
    <glyph glyph-name="fi" unicode="fi" horiz-adv-x="1337" 
d="M1155 1044v-1044h-197v1044h197zM1165 1448v-215h-217v215h217zM477 1141v-103h281v-153h-281v-885h-192v885h-248v153h248v99q0 420 340 419q75 0 143 -16l-14 -158q-51 12 -101 13q-96 1 -136 -59t-40 -195z" />
    <glyph glyph-name="fl" unicode="fl" horiz-adv-x="1335" 
d="M1157 1548v-1548h-196v1548h196zM477 1141v-103h281v-153h-281v-885h-192v885h-248v153h248v99q0 420 340 419q75 0 143 -16l-14 -158q-51 12 -101 13q-96 1 -136 -59t-40 -195z" />
    <glyph glyph-name="f_f_i" unicode="ffi" horiz-adv-x="2000" 
d="M1819 1044v-1044h-197v1044h197zM1829 1448v-215h-217v215h217zM1155 1141v-103h281v-153h-281v-885h-192v885h-486v-885h-192v885h-248v153h248v99q0 420 340 419q76 0 143 -16l-14 -158q-51 12 -101 13q-96 1 -136 -59t-40 -195v-103h486v99q0 420 340 419
q75 0 143 -16l-14 -158q-51 12 -101 13q-96 1 -136 -59t-40 -195z" />
    <glyph glyph-name="f_f_l" unicode="ffl" horiz-adv-x="1996" 
d="M1155 1141v-103h281v-153h-281v-885h-192v885h-486v-885h-192v885h-248v153h248v99q0 420 340 419q76 0 143 -16l-14 -158q-51 12 -101 13q-96 1 -136 -59t-40 -195v-103h486v99q0 420 340 419q75 0 143 -16l-14 -158q-51 12 -101 13q-96 1 -136 -59t-40 -195zM1819 1548
v-1548h-197v1548h197z" />
    <glyph glyph-name=".notdef" horiz-adv-x="1048" 
d="M0 1470h1049v-1470h-1049v1470zM102 102h844v1264h-844v-1264zM555 479h-94l-4 35q1 115 29 169t92 118q63 59 82 94q20 35 20 93t-46 107q-46 50 -110 50q-145 0 -168 -195l-102 17q14 141 88 211t186 70t185 -74q72 -74 71 -195q0 -70 -26 -123t-103 -122
q-76 -69 -88 -109t-12 -146zM569 240h-114v137h114v-137z" />
    <glyph glyph-name=".null" horiz-adv-x="1024" 
 />
    <glyph glyph-name="nonmarkingreturn" horiz-adv-x="681" 
 />
    <glyph glyph-name="CR" unicode="&#xd;" horiz-adv-x="0" 
 />
    <glyph glyph-name="space" unicode=" " horiz-adv-x="491" 
 />
    <glyph glyph-name="exclam" unicode="!" horiz-adv-x="665" 
d="M449 219v-219h-222v219h222zM451 1430l-27 -1033h-176l-33 1033h236z" />
    <glyph glyph-name="quotedbl" unicode="&#x22;" horiz-adv-x="892" 
d="M666 848h-117l-35 582h186zM344 848h-117l-34 582h186z" />
    <glyph glyph-name="numbersign" unicode="#" 
d="M682 553l57 309h-235l-60 -309h238zM55 406v147h221l56 309h-193v146h219l76 411h172l-76 -411h236l76 411h170l-76 -411h194v-146h-221l-55 -309h193v-147h-220l-75 -406h-172l75 406h-235l-76 -406h-170l74 406h-193z" />
    <glyph glyph-name="dollar" unicode="$" 
d="M856 380q0 96 -54 154t-173 97v-475q104 6 166 67q61 61 61 157zM330 1078q0 -81 44 -133t154 -91v426q-94 -12 -146 -66t-52 -136zM1065 393q0 -161 -119 -273t-317 -132v-176h-111v174q-225 4 -383 69l21 187q176 -88 362 -92v518q-193 61 -292 148t-99 247t107 259
q108 99 294 116v180h109v-178q178 -1 352 -60l-22 -188q-160 86 -330 90v-459q236 -76 332 -172t96 -258z" />
    <glyph glyph-name="percent" unicode="%" horiz-adv-x="1878" 
d="M1464 1505l-907 -1548h-135l907 1548h135zM1583 348q0 118 -47 182q-47 66 -132 66t-132 -68t-47 -186t47 -180q47 -64 132 -64t132 66t47 184zM1065 347q0 173 91 271t252 97t248 -97t87 -270t-90 -273t-248 -99t-249 98q-91 100 -91 273zM474 838q85 0 132 66t47 182
q0 118 -47 184t-132 65q-85 1 -132 -67t-47 -186t47 -181t132 -63zM135 1086q0 172 91 270t252 98t248 -96t87 -270t-90 -274q-90 -99 -248 -99t-249 99t-91 272z" />
    <glyph glyph-name="ampersand" unicode="&#x26;" horiz-adv-x="1437" 
d="M338 391q0 -111 82 -181t198 -71q168 0 285 125l-348 416q-217 -96 -217 -289zM860 1141q0 78 -53 119q-53 40 -130 40t-129 -46t-52 -119q0 -111 133 -269q231 115 231 275zM135 383q0 281 324 418q-162 173 -162 323t106 240q105 90 269 90t272 -86t107 -221
q0 -221 -332 -387l297 -357q78 131 84 375h186q-12 -311 -151 -495l245 -283h-254l-118 141q-176 -161 -396 -161t-349 110q-128 110 -128 293z" />
    <glyph glyph-name="quotesingle" unicode="'" horiz-adv-x="571" 
d="M344 848h-117l-34 582h186z" />
    <glyph glyph-name="parenleft" unicode="(" horiz-adv-x="686" 
d="M336 636q0 -446 305 -923h-174q-332 457 -332 922t332 921h174q-305 -474 -305 -920z" />
    <glyph glyph-name="parenright" unicode=")" horiz-adv-x="686" 
d="M350 634q0 446 -305 922h174q332 -458 332 -922t-332 -921h-174q305 475 305 921z" />
    <glyph glyph-name="asterisk" unicode="*" horiz-adv-x="1024" 
d="M602 1542l-27 -330l299 129l58 -172l-326 -71l225 -242l-147 -111l-170 283l-170 -287l-149 109l223 248l-326 71l53 172l312 -129l-39 330h184z" />
    <glyph glyph-name="plus" unicode="+" 
d="M508 1030h176v-432h426v-168h-426v-430h-176v430h-430v168h430v432z" />
    <glyph glyph-name="comma" unicode="," horiz-adv-x="491" 
d="M412 229l-179 -503h-165l129 503h215z" />
    <glyph glyph-name="hyphen" unicode="-" horiz-adv-x="686" 
d="M612 618v-159h-538v159h538z" />
    <glyph glyph-name="period" unicode="." horiz-adv-x="491" 
d="M360 229v-229h-229v229h229z" />
    <glyph glyph-name="slash" unicode="/" horiz-adv-x="983" 
d="M838 1430l-523 -1430h-168l525 1430h166z" />
    <glyph glyph-name="zero" unicode="0" 
d="M593 1286q-132 0 -204 -146t-72 -425t73 -426t207 -147t203 146q68 146 68 424t-71 427q-72 147 -204 147zM596 1454q238 0 359 -194q122 -194 122 -558q0 -208 -45 -366t-158 -260q-114 -102 -284 -102t-282 102q-112 104 -155 265q-44 161 -44 380q0 354 124 544
q125 189 363 189z" />
    <glyph glyph-name="one" unicode="1" 
d="M776 1430v-1430h-205v819q0 197 11 385h-4q-59 -59 -150 -139l-74 -64l-112 136l350 293h184z" />
    <glyph glyph-name="two" unicode="2" 
d="M550 1454q210 0 337 -106t127 -291q0 -135 -86 -277t-260 -317q-174 -174 -349 -297v-4q188 6 429 6h296v-168h-913v205q373 322 521 503t148 318q0 138 -79 200q-81 62 -221 62t-312 -98l-22 180q174 84 384 84z" />
    <glyph glyph-name="three" unicode="3" 
d="M381 662q-37 0 -59 -3v164q20 -2 55 -2q203 -1 317 63t115 178q0 114 -83 173q-82 59 -226 59t-312 -75l-12 174q158 61 366 61t336 -99q130 -99 130 -278q0 -137 -102 -225t-261 -102v-7q164 -10 270 -108t107 -250q0 -184 -141 -297t-385 -113q-186 0 -365 60l10 182
q191 -82 341 -82t242 68q91 68 91 196q0 263 -434 263z" />
    <glyph glyph-name="four" unicode="4" 
d="M741 481v402q0 223 9 420h-5q-68 -145 -163 -302l-314 -520h473zM934 1430v-949h190v-168h-190v-313h-193v313h-675v168l587 949h281z" />
    <glyph glyph-name="five" unicode="5" 
d="M1008 1430v-164h-607l-14 -389q76 18 168 18q217 0 356 -120q139 -119 139 -329t-151 -340q-152 -130 -403 -131q-156 0 -303 45l6 183q149 -68 299 -68t248 81t100 225q0 145 -94 221t-244 76t-303 -58l12 750h791z" />
    <glyph glyph-name="six" unicode="6" 
d="M885 445q0 135 -68 223t-194 88q-125 0 -203 -87t-78 -219t78 -228t196 -95q118 0 194 91q75 91 75 227zM731 1294q-190 0 -301 -145t-117 -406h6q49 80 145 123t200 43q188 0 306 -127q118 -126 118 -326t-129 -340q-127 -140 -357 -140t-356 176t-127 534
q1 358 157 562q156 206 445 206q151 0 276 -39l-20 -170q-121 49 -246 49z" />
    <glyph glyph-name="seven" unicode="7" 
d="M1036 1430v-173l-532 -1257h-221l546 1257h-702v173h909z" />
    <glyph glyph-name="eight" unicode="8" 
d="M299 377q0 -113 80 -179t207 -65q127 0 214 66t87 174t-82 179t-244 124q-262 -92 -262 -299zM618 827q217 92 218 260q0 105 -70 161t-178 56t-185 -56q-75 -56 -75 -152t74 -159t216 -110zM1098 383q0 -186 -146 -297t-369 -111q-225 -1 -359 105t-134 291
q0 131 79 224t245 161q-160 63 -227 142t-66 194q0 164 129 263t339 99t336 -95t126 -257q0 -211 -287 -340q172 -60 253 -152t81 -227z" />
    <glyph glyph-name="nine" unicode="9" 
d="M578 686q126 0 200 84t74 217t-76 224t-194 91t-193 -90q-74 -90 -74 -225t68 -218t195 -83zM535 532q-195 0 -309 122t-114 322t126 339q124 139 354 139t356 -171t127 -529t-155 -568q-156 -211 -443 -211q-164 1 -297 48l21 170q125 -57 266 -58q188 0 298 151
t116 412h-7q-49 -80 -142 -123t-197 -43z" />
    <glyph glyph-name="colon" unicode=":" horiz-adv-x="573" 
d="M401 229v-229h-229v229h229zM401 1051v-230h-229v230h229z" />
    <glyph glyph-name="semicolon" unicode=";" horiz-adv-x="573" 
d="M412 229l-179 -503h-165l129 503h215zM401 1051v-230h-229v230h229z" />
    <glyph glyph-name="less" unicode="&#x3c;" 
d="M1090 -12l-1012 420v213l1012 421v-202l-500 -197q-227 -90 -340 -123v-4q106 -35 340 -129l500 -194v-205z" />
    <glyph glyph-name="equal" unicode="=" 
d="M78 385h1032v-168h-1032v168zM78 811h1032v-168h-1032v168z" />
    <glyph glyph-name="greater" unicode="&#x3e;" 
d="M1090 408l-1012 -420v205l500 194q233 94 340 129v4q-113 33 -340 123l-500 197v202l1012 -421v-213z" />
    <glyph glyph-name="question" unicode="?" horiz-adv-x="999" 
d="M588 223v-223h-221v223h221zM713 1081q0 199 -277 199q-135 0 -291 -74l-18 187q173 61 361 61t311 -90t123 -262q0 -98 -45 -184t-145 -190t-131 -164q-32 -62 -32 -142v-23h-186v19q0 120 31 186t149 203q80 88 115 149t35 125z" />
    <glyph glyph-name="at" unicode="@" horiz-adv-x="2048" 
d="M1073 932q-106 0 -193 -134t-87 -294q0 -90 40 -142t111 -53q115 0 200 153t85 308q0 74 -41 118t-115 44zM199 565q0 369 257 619q256 250 616 250t570 -184t209 -494q0 -242 -125 -415t-329 -173q-86 0 -139 42q-52 42 -52 112q0 29 4 55h-4q-102 -209 -313 -209
q-137 0 -212 94t-75 250q0 217 132 387t318 170t238 -174h4q18 76 39 135h166q-168 -551 -168 -639t107 -88q108 0 184 135t76 318q0 252 -164 400t-432 149q-317 0 -527 -212q-210 -213 -210 -527t188 -493t516 -179q266 0 475 106l43 -133q-225 -106 -526 -107
q-399 0 -633 218q-233 218 -233 587z" />
    <glyph glyph-name="A" unicode="A" horiz-adv-x="1488" 
d="M1016 526l-187 469q-51 125 -94 260h-4q-29 -88 -94 -260l-180 -469h559zM846 1430l618 -1430h-229l-150 360h-692l-147 -360h-221l608 1430h213z" />
    <glyph glyph-name="B" unicode="B" horiz-adv-x="1261" 
d="M393 655v-491h154q188 0 279 58q92 58 92 186t-102 188q-102 59 -316 59h-107zM393 1264v-447h111q286 0 353 105q30 47 30 120q0 121 -89 171t-255 51h-150zM197 0v1430h372q254 0 388 -92t135 -271q0 -131 -82 -216t-232 -114v-4q158 -18 251 -108t93 -232
q0 -203 -152 -298t-386 -95h-387z" />
    <glyph glyph-name="C" unicode="C" horiz-adv-x="1255" 
d="M866 1268q-240 0 -392 -153t-150 -397q0 -244 156 -398q156 -152 401 -152q164 0 303 61l14 -192q-123 -51 -317 -51q-348 0 -562 193q-213 195 -213 527t216 535t544 203q195 0 322 -55l-19 -193q-127 72 -303 72z" />
    <glyph glyph-name="D" unicode="D" horiz-adv-x="1484" 
d="M406 1255v-1079h77q672 0 672 539q0 311 -192 432q-175 110 -480 108h-77zM197 1430h311q380 0 611 -161q120 -83 186 -225q65 -142 65 -330t-68 -326q-125 -257 -459 -347q-153 -41 -335 -41h-311v1430z" />
    <glyph glyph-name="E" unicode="E" horiz-adv-x="1150" 
d="M1008 176v-176h-811v1430h794v-175h-588v-430h547v-172h-547v-477h605z" />
    <glyph glyph-name="F" unicode="F" horiz-adv-x="1054" 
d="M403 0h-206v1430h757v-175h-551v-454h529v-172h-529v-629z" />
    <glyph glyph-name="G" unicode="G" horiz-adv-x="1486" 
d="M1100 606h-305v168h512v-723q-229 -66 -422 -65q-354 0 -567 201q-212 201 -212 529t222 528t569 200q225 0 395 -72l-16 -201q-170 98 -369 99q-258 0 -418 -151q-159 -151 -159 -401t154 -402q154 -151 403 -150q119 0 213 20v420z" />
    <glyph glyph-name="H" unicode="H" horiz-adv-x="1495" 
d="M1298 1430v-1430h-206v653h-686v-653h-209v1430h209v-601h686v601h206z" />
    <glyph glyph-name="I" unicode="I" horiz-adv-x="602" 
d="M406 1430v-1430h-209v1430h209z" />
    <glyph glyph-name="J" unicode="J" horiz-adv-x="798" 
d="M410 1430h206v-1049q0 -180 -97 -293t-292 -113q-106 0 -182 27v178q66 -27 137 -26q125 0 176 63t52 223v990z" />
    <glyph glyph-name="K" unicode="K" horiz-adv-x="1372" 
d="M399 715v-715h-202v1430h202v-644h4q127 141 273 293l336 351h276l-684 -672l742 -758h-297l-426 463q-68 74 -220 252h-4z" />
    <glyph glyph-name="L" unicode="L" horiz-adv-x="1040" 
d="M406 1430v-1254h598v-176h-807v1430h209z" />
    <glyph glyph-name="M" unicode="M" horiz-adv-x="1953" 
d="M1757 1430v-1430h-198v946q0 229 4 338h-4q-53 -152 -101 -278l-383 -1006h-198l-379 983q-63 162 -105 301h-4q4 -109 4 -338v-946h-196v1430h338l348 -918q59 -158 100 -305h4q49 166 103 305l337 918h330z" />
    <glyph glyph-name="N" unicode="N" horiz-adv-x="1523" 
d="M1133 676v754h194v-1430h-270l-502 926q-113 209 -166 336h-4q10 -147 10 -402v-860h-198v1430h307l481 -902q100 -193 156 -319h4q-12 201 -12 467z" />
    <glyph glyph-name="O" unicode="O" horiz-adv-x="1613" 
d="M1278 719q0 259 -127 415t-340 156t-344 -158t-131 -416q0 -257 130 -415t341 -158t341 158t130 418zM115 715q0 339 192 539q193 200 507 200t500 -201t185 -537q0 -336 -187 -539q-186 -202 -502 -202t-506 201q-189 201 -189 539z" />
    <glyph glyph-name="P" unicode="P" horiz-adv-x="1169" 
d="M406 1255v-510h102q201 1 295 55t94 198t-96 200t-295 57h-100zM197 1430h329q262 0 410 -83q168 -94 168 -346q0 -430 -578 -430h-120v-571h-209v1430z" />
    <glyph glyph-name="Q" unicode="Q" horiz-adv-x="1613" 
d="M1278 719q0 259 -127 415t-340 156t-344 -158t-131 -416q0 -257 130 -415t341 -158t341 158t130 418zM115 715q0 339 192 539q193 200 507 200t500 -201t185 -530q0 -244 -100 -420t-281 -258l348 -319h-274l-270 258q-49 -8 -115 -9q-313 0 -503 201q-189 201 -189 539z
" />
    <glyph glyph-name="R" unicode="R" horiz-adv-x="1280" 
d="M406 1255v-444h98q395 0 395 227q0 129 -94 173t-301 44h-98zM197 0v1430h358q271 0 413 -88t142 -287q0 -268 -324 -334v-4q70 -25 115 -71t84 -126l242 -520h-232l-202 457q-49 111 -111 147t-215 35h-61v-639h-209z" />
    <glyph glyph-name="S" unicode="S" horiz-adv-x="1032" 
d="M574 1284q-120 0 -192 -56t-73 -138q1 -82 55 -138q54 -57 228 -134t257 -175t83 -242q0 -188 -135 -307t-336 -119t-350 62l22 190q156 -77 292 -77t216 62t80 162t-57 160t-236 140q-180 80 -254 170t-74 223q0 172 126 280t331 107q164 0 303 -53l-26 -178
q-140 61 -260 61z" />
    <glyph glyph-name="T" unicode="T" horiz-adv-x="1142" 
d="M682 0h-209v1253l-444 -6v183h1085v-183l-432 6v-1253z" />
    <glyph glyph-name="U" unicode="U" horiz-adv-x="1472" 
d="M1294 1430v-799q0 -305 -139 -480t-439 -175t-423 192q-111 173 -111 463v799h209v-779q0 -244 76 -376q75 -132 271 -132t272 131t75 377v779h209z" />
    <glyph glyph-name="V" unicode="V" horiz-adv-x="1368" 
d="M242 1430l352 -1000q80 -229 92 -270h6q41 127 92 270l353 1000h215l-545 -1430h-246l-545 1430h226z" />
    <glyph glyph-name="W" unicode="W" horiz-adv-x="2109" 
d="M1378 0l-270 1036q-55 225 -57 242h-4q-18 -104 -54 -242l-266 -1036h-264l-434 1430h223l268 -959q45 -168 74 -311h4q23 115 74 311l237 959h295l244 -959q49 -199 72 -311h4q35 162 75 311l267 959h215l-443 -1430h-260z" />
    <glyph glyph-name="X" unicode="X" horiz-adv-x="1378" 
d="M694 864q70 115 148 232l223 334h233l-481 -685l539 -745h-260l-258 373q-70 98 -158 245q-102 -162 -160 -245l-252 -373h-245l536 745l-498 685h248l234 -334q83 -119 151 -232z" />
    <glyph glyph-name="Y" unicode="Y" horiz-adv-x="1361" 
d="M788 0h-206v600l-566 830h252l189 -289q127 -199 229 -365h4q86 147 228 365l184 289h246l-560 -826v-604z" />
    <glyph glyph-name="Z" unicode="Z" horiz-adv-x="1146" 
d="M1067 176v-176h-995v174q674 981 757 1081h-737v175h957v-191q-649 -936 -750 -1063h768z" />
    <glyph glyph-name="bracketleft" unicode="[" horiz-adv-x="686" 
d="M600 1556v-137h-213v-1571h213v-135h-399v1843h399z" />
    <glyph glyph-name="backslash" unicode="\" horiz-adv-x="983" 
d="M145 1430h166l525 -1430h-168z" />
    <glyph glyph-name="bracketright" unicode="]" horiz-adv-x="686" 
d="M88 1419v137h399v-1843h-399v135h215v1571h-215z" />
    <glyph glyph-name="asciicircum" unicode="^" 
d="M1034 557h-190l-166 430q-72 190 -90 252h-2q-18 -74 -86 -252l-158 -430h-188l354 873h170z" />
    <glyph glyph-name="underscore" unicode="_" horiz-adv-x="1024" 
d="M0 -160h1024v-102h-1024v102z" />
    <glyph glyph-name="grave" unicode="`" horiz-adv-x="1024" 
d="M481 1186l-266 362h215l186 -362h-135z" />
    <glyph glyph-name="a" unicode="a" horiz-adv-x="1146" 
d="M688 502q-385 0 -385 -201q0 -76 54 -120q53 -44 143 -44t158 41t103 111q34 70 34 209q-45 4 -107 4zM809 77q0 44 4 101h-4q-111 -193 -348 -192q-166 0 -265 86q-100 86 -100 240t142 241q142 88 407 88q76 0 148 -6v8q0 266 -267 266q-162 0 -303 -100l-12 172
q145 88 355 88t312 -112t101 -302l-4 -340q0 -201 12 -315h-174q-4 33 -4 77z" />
    <glyph glyph-name="b" unicode="b" horiz-adv-x="1265" 
d="M967 524q0 168 -78 276t-210 107t-220 -113t-88 -274t87 -272t217 -111q130 0 211 110q81 109 81 277zM350 180q0 -98 -8 -180h-174q10 111 10 315v1233h191v-401q0 -172 -7 -270h5q55 92 148 142t208 50q201 0 324 -153q123 -154 123 -390t-128 -394
q-127 -158 -335 -157q-234 0 -353 205h-4z" />
    <glyph glyph-name="c" unicode="c" horiz-adv-x="931" 
d="M655 891q-158 0 -255 -100q-97 -101 -97 -265t96 -268t252 -104q113 0 217 51l17 -174q-109 -45 -256 -45q-240 0 -386 147q-147 147 -147 387t150 390t395 149q127 0 221 -39l-12 -172q-86 43 -195 43z" />
    <glyph glyph-name="d" unicode="d" horiz-adv-x="1265" 
d="M901 522q0 162 -87 274t-216 111q-129 1 -212 -111t-83 -277t82 -273t211 -109q129 0 217 111q88 112 88 274zM1087 1548v-1233q0 -205 11 -315h-178q-6 82 -7 180h-4q-125 -205 -344 -205q-219 -1 -344 147t-125 394t128 400t333 153q115 0 203 -48t137 -134h4
q-6 98 -6 260v401h192z" />
    <glyph glyph-name="e" unicode="e" horiz-adv-x="1138" 
d="M852 625q0 145 -72 221t-190 76t-200 -80q-81 -80 -93 -217h555zM653 139q158 0 308 78l6 -178q-139 -63 -324 -64q-260 -1 -403 147q-144 148 -144 401t137 399t355 147q218 0 336 -130q119 -130 118 -388q0 -31 -4 -76h-745q6 -158 104 -247t256 -89z" />
    <glyph glyph-name="f" unicode="f" horiz-adv-x="792" 
d="M477 1141v-103h281v-153h-281v-885h-192v885h-248v153h248v99q0 420 340 419q75 0 143 -16l-14 -158q-51 12 -101 13q-96 1 -136 -59t-40 -195z" />
    <glyph glyph-name="g" unicode="g" horiz-adv-x="1261" 
d="M907 1044h180v-1001q0 -201 -114 -349q-114 -149 -395 -149q-213 0 -400 70l21 192q184 -98 372 -98q328 0 328 354q0 90 4 127h-4q-113 -190 -330 -190t-345 142t-128 382t132 392t354 153q222 0 325 -182h4q-4 65 -4 157zM897 530q0 160 -86 268t-214 109t-210 -109
t-82 -274t79 -265t210 -101t217 106t86 266z" />
    <glyph glyph-name="h" unicode="h" horiz-adv-x="1271" 
d="M373 1548v-401q0 -188 -6 -270h4q123 193 346 192q391 0 391 -471v-598h-195v516q0 234 -62 314q-62 79 -181 77q-162 1 -252 -157q-44 -78 -45 -250v-500h-195v1548h195z" />
    <glyph glyph-name="i" unicode="i" horiz-adv-x="561" 
d="M379 1044v-1044h-197v1044h197zM389 1448v-215h-217v215h217z" />
    <glyph glyph-name="j" unicode="j" horiz-adv-x="561" 
d="M379 1044v-1105q0 -393 -324 -394q-43 0 -90 11v159q27 -4 55 -4q88 1 125 59t37 193v1081h197zM389 1448v-215h-217v215h217z" />
    <glyph glyph-name="k" unicode="k" horiz-adv-x="1134" 
d="M377 545v-545h-199v1548h199v-946h4q86 98 213 229l213 213h258l-492 -458l549 -586h-264l-268 297q-121 135 -209 248h-4z" />
    <glyph glyph-name="l" unicode="l" horiz-adv-x="552" 
d="M375 1548v-1548h-197v1548h197z" />
    <glyph glyph-name="m" unicode="m" horiz-adv-x="1845" 
d="M356 877h4q46 88 134 140t196 52q227 0 301 -215q115 215 346 215q344 0 344 -426v-643h-194v643q0 127 -50 196t-145 68q-139 0 -217 -137q-49 -92 -49 -268v-502h-195v608q0 164 -41 232q-42 68 -143 67q-72 0 -135 -44t-103 -127t-40 -244v-492h-195v735
q0 199 -10 309h186q6 -67 6 -167z" />
    <glyph glyph-name="n" unicode="n" horiz-adv-x="1267" 
d="M362 877h5q127 193 348 192q389 0 389 -471v-598h-195v516q0 237 -61 315t-180 76q-76 0 -143 -41q-67 -42 -111 -118t-45 -248v-500h-195v735q0 199 -10 309h190q8 -89 8 -167z" />
    <glyph glyph-name="o" unicode="o" horiz-adv-x="1265" 
d="M633 907q-145 0 -238 -109q-92 -110 -92 -282t92 -275q93 -103 239 -103t239 104t93 276t-94 280t-239 109zM96 522q0 240 152 394t386 153q236 0 386 -156q150 -157 150 -397t-150 -390t-385 -151q-235 0 -387 153q-152 154 -152 394z" />
    <glyph glyph-name="p" unicode="p" horiz-adv-x="1265" 
d="M967 526q0 168 -80 274t-211 107q-131 -1 -220 -113t-89 -272t89 -272t219 -113q130 0 211 111q81 110 81 278zM174 -430v1165q0 199 -10 309h186q8 -86 8 -167h4q121 193 359 192q201 0 325 -146t124 -391t-126 -401q-125 -156 -327 -156q-117 -1 -209 55t-141 146h-5
q6 -61 7 -258v-348h-195z" />
    <glyph glyph-name="q" unicode="q" horiz-adv-x="1271" 
d="M899 524q0 164 -89 274t-219 109q-130 0 -210 -105t-80 -271t82 -280t212 -114t217 112q87 111 87 275zM903 -430v348q0 160 8 258h-4q-137 -201 -347 -201t-337 157t-127 404t125 390t336 143q240 0 352 -192h4q0 61 13 167h178q-6 -68 -6 -159v-1315h-195z" />
    <glyph glyph-name="r" unicode="r" horiz-adv-x="796" 
d="M365 868h4q100 201 293 201q63 0 100 -14v-183q-39 16 -105 17q-135 0 -212 -109t-76 -307v-473h-195v735q0 199 -10 309h192q9 -72 9 -176z" />
    <glyph glyph-name="s" unicode="s" horiz-adv-x="823" 
d="M324 133q110 0 165 39t55 101q0 61 -44 101q-45 40 -175 102t-184 127q-53 65 -53 163q0 139 101 221t252 82t253 -43l-16 -162q-104 51 -202 51q-194 0 -193 -133q0 -59 42 -95q41 -36 167 -90t186 -127t61 -177q0 -152 -103 -235q-103 -82 -265 -82t-291 51l14 174
q120 -68 230 -68z" />
    <glyph glyph-name="t" unicode="t" horiz-adv-x="792" 
d="M446 1038h281v-153h-281v-459q0 -141 36 -211t145 -70q57 0 112 25l6 -154q-74 -29 -165 -28q-184 0 -255 99t-71 286v512h-240v153h240v246l192 66v-312z" />
    <glyph glyph-name="u" unicode="u" horiz-adv-x="1259" 
d="M901 166h-4q-119 -190 -360 -191q-174 0 -276 114q-101 114 -101 304v651h194v-516q0 -94 7 -154t31 -120q47 -117 191 -117t226 108t82 261v538h194v-731q0 -225 11 -313h-187q-8 86 -8 166z" />
    <glyph glyph-name="v" unicode="v" horiz-adv-x="1019" 
d="M229 1044l213 -636q35 -102 74 -252h4q37 129 78 252l213 636h197l-383 -1044h-230l-377 1044h211z" />
    <glyph glyph-name="w" unicode="w" horiz-adv-x="1705" 
d="M584 0h-234l-332 1044h211l177 -632q8 -27 61 -256h4q18 74 70 254l198 634h240l197 -634q31 -102 67 -254h4q29 141 64 252l184 636h193l-338 -1044h-226l-206 672q-43 154 -60 231h-4q-16 -86 -61 -231z" />
    <glyph glyph-name="x" unicode="x" horiz-adv-x="1032" 
d="M524 645q37 74 111 195l123 204h217l-336 -495l369 -549h-234l-137 225q-84 131 -125 213q-27 -49 -125 -213l-137 -225h-230l377 549l-348 495h238l125 -204q87 -146 112 -195z" />
    <glyph glyph-name="y" unicode="y" horiz-adv-x="1019" 
d="M186 -299q84 0 130 53t98 201l-396 1089h211l211 -632q41 -121 76 -254h4q41 143 78 254l213 632h197l-373 -1034q-97 -270 -187 -367t-247 -98q-63 0 -119 17l12 153q49 -14 92 -14z" />
    <glyph glyph-name="z" unicode="z" horiz-adv-x="1032" 
d="M934 156v-156h-854v168q563 670 620 725h-591v151h802v-170q-485 -578 -616 -718h639z" />
    <glyph glyph-name="braceleft" unicode="{" horiz-adv-x="686" 
d="M225 981v123q0 127 14 202q29 168 170 217q75 26 201 33v-124q-110 -10 -154 -77t-44 -210v-96q0 -172 -14 -238q-14 -65 -36 -95q-52 -68 -161 -79v-4q108 -15 161 -85q39 -51 48 -191q2 -48 2 -136v-98q0 -143 45 -209t153 -76v-125q-128 8 -202 34t-116 83t-54 131
t-13 203v125q0 147 -36 205t-169 73v135q133 16 169 74t36 205z" />
    <glyph glyph-name="bar" unicode="|" horiz-adv-x="552" 
d="M197 -438v2048h159v-2048h-159z" />
    <glyph glyph-name="braceright" unicode="}" horiz-adv-x="686" 
d="M461 289v-123q1 -127 -13 -202q-30 -168 -170 -217q-75 -26 -202 -34v125q110 10 154 77t44 210v96q0 171 14 237t36 96q52 68 161 79v4q-108 15 -161 85q-39 51 -48 190q-2 48 -2 137v98q0 143 -45 209t-153 76v124q127 -8 202 -34q142 -48 171 -213q12 -74 12 -203
v-125q0 -147 36 -206t169 -73v-135q-133 -16 -169 -74t-36 -204z" />
    <glyph glyph-name="asciitilde" unicode="~" 
d="M330 512q-147 0 -244 -145v192q96 119 264 119q116 0 266 -81t235 -81t149 42t102 104v-195q-101 -119 -284 -119q-95 0 -246 82t-242 82z" />
    <glyph glyph-name="uni00A0" unicode="&#xa0;" horiz-adv-x="491" 
 />
    <glyph glyph-name="exclamdown" unicode="&#xa1;" horiz-adv-x="665" 
d="M217 827v220h221v-220h-221zM215 -383l27 1032h176l33 -1032h-236z" />
    <glyph glyph-name="cent" unicode="&#xa2;" 
d="M401 517q0 -167 119 -273l199 647q-141 -7 -229 -107t-89 -267zM750 -8q-127 0 -199 24l-86 -282h-103l99 317q-127 66 -198 192t-70 287q0 236 146 383t378 148q31 0 55 -2l76 248h106l-82 -260q43 -6 93 -23l-13 -172q-68 29 -129 37l-217 -705q54 -26 154 -26t209 51
l12 -174q-104 -43 -231 -43z" />
    <glyph glyph-name="sterling" unicode="&#xa3;" 
d="M844 1274q-174 0 -241 -110t-66 -304v-45h333v-123h-333v-526h512v-166h-902v166h191v526h-172v123h170v74q0 268 125 411t364 144q135 0 246 -35l-16 -182q-86 47 -211 47z" />
    <glyph glyph-name="currency" unicode="&#xa4;" 
d="M983 716q0 -112 -57 -204l174 -174l-127 -127l-174 174q-90 -55 -202 -55t-208 59l-178 -178l-123 123l178 178q-57 92 -57 204t55 202l-176 178l127 127l178 -179q93 54 201 54t205 -54l178 179l123 -123l-176 -176q59 -96 59 -208zM596 498q90 0 148 61t58 155t-58 156
q-60 62 -148 62t-148 -62t-61 -156q0 -93 59 -155q60 -61 150 -61z" />
    <glyph glyph-name="yen" unicode="&#xa5;" 
d="M1001 698v-118h-303v-129h303v-119h-303v-332h-204v332h-301v119h301v129h-301v118h243l-397 732h233l152 -302q88 -174 172 -350h4q88 184 170 350l152 302h227l-399 -732h251z" />
    <glyph glyph-name="brokenbar" unicode="&#xa6;" horiz-adv-x="552" 
d="M197 -438v794h159v-794h-159zM197 815v795h159v-795h-159z" />
    <glyph glyph-name="section" unicode="&#xa7;" 
d="M367 655q0 -61 50 -106t177 -92l160 -62q86 61 86 156q0 63 -50 107t-172 94l-161 65q-90 -61 -90 -162zM662 1286q-120 0 -188 -45t-66 -109q0 -64 45 -106q45 -41 165 -88l103 -39q159 -59 225 -129t66 -180q0 -164 -156 -252q143 -80 143 -242t-127 -260
q-128 -98 -324 -98t-343 55l16 191q159 -72 301 -72t208 46t65 116q0 70 -42 106q-42 35 -167 86l-121 49q-160 63 -219 128q-60 65 -60 162t45 165t117 102q-139 88 -139 242t124 247t305 93t302 -43l-16 -184q-142 59 -262 59z" />
    <glyph glyph-name="dieresis" unicode="&#xa8;" horiz-adv-x="1024" 
d="M801 1442v-207h-187v207h187zM412 1442v-207h-189v207h189z" />
    <glyph glyph-name="copyright" unicode="&#xa9;" horiz-adv-x="1843" 
d="M922 1436q301 0 511 -209q209 -209 209 -510t-210 -512t-510 -211q-299 0 -510 212t-211 513t210 509t511 208zM922 1354q-266 0 -450 -188t-185 -451q0 -263 184 -451q183 -188 451 -188t451 188t183 452t-184 452q-184 186 -450 186zM962 1038q-116 0 -202 -87
t-86 -223t88 -224t225 -88q94 0 180 41l9 -121q-80 -35 -189 -35q-203 0 -327 113t-124 307t127 312q126 118 316 118q114 0 190 -33l-10 -129q-81 49 -197 49z" />
    <glyph glyph-name="ordfeminine" unicode="&#xaa;" horiz-adv-x="860" 
d="M592 682q0 46 2 66q-82 -137 -260 -138q-123 0 -197 66t-74 184q-1 118 105 182q106 66 305 66q51 0 107 -6q0 193 -187 192q-129 0 -237 -80l-9 152q127 63 269 64q330 0 329 -326l-4 -219q0 -178 11 -262h-156q-4 13 -4 59zM508 995q-266 0 -266 -145q0 -53 38 -82
t101 -29q133 0 180 111q23 47 23 139q-31 6 -76 6z" />
    <glyph glyph-name="guillemotleft" unicode="&#xab;" horiz-adv-x="1048" 
d="M543 920l-260 -408l264 -412h-178l-287 412l278 408h183zM948 920l-258 -408l262 -412h-178l-287 412l281 408h180z" />
    <glyph glyph-name="logicalnot" unicode="&#xac;" 
d="M918 201v471h-857v168h1033v-639h-176z" />
    <glyph glyph-name="uni00AD" unicode="&#xad;" horiz-adv-x="686" 
d="M612 618v-159h-538v159h538z" />
    <glyph glyph-name="registered" unicode="&#xae;" horiz-adv-x="1024" 
d="M511 1358q-124 0 -212 -89t-88 -212t88 -212t213 -89t213 89t88 214t-89 212t-213 87zM514 1417q150 0 254 -106t104 -255t-104 -254q-104 -106 -255 -106t-256 106t-105 258q0 151 106 254t256 103zM455 1208v-106h18q100 0 100 53q0 33 -23 43q-24 10 -77 10h-18z
M381 862v410h106q164 0 164 -109q0 -78 -88 -94v-4q35 -12 58 -59l67 -144h-86l-55 125q-11 29 -29 40t-55 11h-8v-176h-74z" />
    <glyph glyph-name="macron" unicode="&#xaf;" horiz-adv-x="1024" 
d="M795 1393v-121h-566v121h566z" />
    <glyph glyph-name="degree" unicode="&#xb0;" horiz-adv-x="776" 
d="M547 1132q0 74 -46 120t-115 46t-113 -48t-44 -120t44 -120t114 -47q70 0 115 48t45 121zM390 1454q132 0 226 -96t94 -228t-94 -228q-96 -95 -229 -95t-227 95q-94 96 -94 230t96 228t228 94z" />
    <glyph glyph-name="plusminus" unicode="&#xb1;" 
d="M78 168h1032v-168h-1032v168zM508 1030h176v-282h426v-168h-426v-281h-176v281h-430v168h430v282z" />
    <glyph glyph-name="twosuperior" unicode="&#xb2;" horiz-adv-x="778" 
d="M360 1747q130 1 206 -63q77 -64 77 -162t-47 -181q-46 -84 -144 -183t-178 -154v-5q180 4 271 5h121v-127h-568v137q193 168 286 280t93 201q0 121 -143 121q-86 -1 -195 -60l-20 138q111 53 241 53z" />
    <glyph glyph-name="threesuperior" unicode="&#xb3;" horiz-adv-x="778" 
d="M496 1513q0 109 -175 109q-89 0 -174 -45l-8 131q102 39 231 39q128 0 208 -57t79 -162q0 -76 -55 -130t-137 -71v-4q90 -11 144 -67q55 -56 55 -156t-92 -168q-92 -66 -227 -66q-136 0 -234 31l10 137q100 -41 191 -41q186 0 186 131q-1 133 -234 133q-27 0 -43 -2v131
q29 -4 43 -4q231 0 232 131z" />
    <glyph glyph-name="acute" unicode="&#xb4;" horiz-adv-x="1024" 
d="M809 1548l-266 -362h-135l186 362h215z" />
    <glyph glyph-name="mu" unicode="&#xb5;" horiz-adv-x="1349" 
d="M369 -430h-195v1474h195v-516q0 -172 34 -274q40 -117 181 -117t231 124t90 306v477h195v-782q0 -53 15 -79q23 -40 108 -17l8 -162q-43 -16 -123 -16t-126 47t-54 162h-4q-137 -221 -371 -222q-104 0 -188 45l-7 -4q10 -139 11 -299v-147z" />
    <glyph glyph-name="paragraph" unicode="&#xb6;" horiz-adv-x="1269" 
d="M1157 1290h-108v-1700h-168v1700h-230v-1700h-170v914q-190 16 -298 134q-107 118 -107 326t139 336q139 129 381 130h561v-140z" />
    <glyph glyph-name="periodcentered" unicode="&#xb7;" horiz-adv-x="491" 
d="M360 653v-229h-229v229h229z" />
    <glyph glyph-name="cedilla" unicode="&#xb8;" horiz-adv-x="1024" 
d="M530 -129q58 0 110 -39t52 -123t-68 -132t-152 -48q-82 0 -142 12l10 84q47 -8 90 -8q125 0 125 86t-113 86q-37 0 -86 -12l27 246h98l-26 -156q17 4 75 4z" />
    <glyph glyph-name="onesuperior" unicode="&#xb9;" horiz-adv-x="778" 
d="M528 1735v-858h-159v417q0 186 10 279h-4q-45 -51 -144 -133l-81 102l237 193h141z" />
    <glyph glyph-name="ordmasculine" unicode="&#xba;" horiz-adv-x="948" 
d="M474 1292q-101 0 -162 -75q-60 -76 -60 -202t60 -199t160 -73t163 75q61 75 61 199t-60 200q-61 75 -162 75zM474 1430q181 0 294 -116t113 -300t-113 -296t-293 -112t-296 114t-116 297t115 298t296 115z" />
    <glyph glyph-name="guillemotright" unicode="&#xbb;" horiz-adv-x="1048" 
d="M506 920h182l279 -408l-287 -412h-178l264 412zM100 920h181l280 -408l-289 -412h-176l262 412z" />
    <glyph glyph-name="onequarter" unicode="&#xbc;" horiz-adv-x="1816" 
d="M1501 299v182q0 184 4 271h-4q-41 -86 -123 -230l-129 -223h252zM1651 858v-559h112v-121h-112v-178h-150v178h-391v133l326 547h215zM1440 1505l-908 -1548h-135l908 1548h135zM528 1434v-859h-159v418q0 186 10 279h-4q-45 -51 -144 -133l-81 102l237 193h141z" />
    <glyph glyph-name="onehalf" unicode="&#xbd;" horiz-adv-x="1816" 
d="M1398 870q130 0 207 -63t77 -161t-48 -181q-46 -83 -144 -183t-177 -155v-4q180 4 270 4h121v-127h-567v137q193 168 285 281t94 200q0 121 -144 121q-85 0 -194 -59l-21 137q111 53 241 53zM1440 1505l-908 -1548h-135l908 1548h135zM528 1434v-859h-159v418
q0 186 10 279h-4q-45 -51 -144 -133l-81 102l237 193h141z" />
    <glyph glyph-name="threequarters" unicode="&#xbe;" horiz-adv-x="1816" 
d="M1501 299v182q0 184 4 271h-4q-41 -86 -123 -230l-129 -223h252zM1651 858v-559h112v-121h-112v-178h-150v178h-391v133l326 547h215zM1440 1505l-908 -1548h-135l908 1548h135zM496 1212q0 109 -175 109q-89 0 -174 -45l-8 131q102 39 231 39q128 0 208 -57t79 -162
q0 -76 -55 -130t-137 -71v-4q90 -10 144 -66q55 -56 55 -158q0 -100 -92 -166t-227 -67q-136 0 -234 31l10 137q100 -41 191 -41q186 0 186 131q-1 133 -234 133q-27 0 -43 -2v131q29 -4 43 -4q231 0 232 131z" />
    <glyph glyph-name="questiondown" unicode="&#xbf;" horiz-adv-x="999" 
d="M412 823v224h221v-224h-221zM78 -55q0 98 45 184q45 85 145 189t130 165q32 61 32 142v22h186v-18q0 -121 -30 -187t-130 -178t-134 -174t-35 -125q0 -197 276 -199q135 0 291 74l18 -186q-174 -62 -362 -62t-310 90t-122 263z" />
    <glyph glyph-name="Agrave" unicode="&#xc0;" horiz-adv-x="1488" 
d="M440 1831h222l167 -295h-141zM1016 526l-187 469q-51 125 -94 260h-4q-29 -88 -94 -260l-180 -469h559zM846 1430l618 -1430h-229l-150 360h-692l-147 -360h-221l608 1430h213z" />
    <glyph glyph-name="Aacute" unicode="&#xc1;" horiz-adv-x="1488" 
d="M1042 1831l-251 -295h-140l170 295h221zM1016 526l-187 469q-51 125 -94 260h-4q-29 -88 -94 -260l-180 -469h559zM846 1430l618 -1430h-229l-150 360h-692l-147 -360h-221l608 1430h213z" />
    <glyph glyph-name="Acircumflex" unicode="&#xc2;" horiz-adv-x="1488" 
d="M1059 1536h-168l-148 199l-155 -199h-160l223 297h193zM1016 526l-187 469q-51 125 -94 260h-4q-29 -88 -94 -260l-180 -469h559zM846 1430l618 -1430h-229l-150 360h-692l-147 -360h-221l608 1430h213z" />
    <glyph glyph-name="Atilde" unicode="&#xc3;" horiz-adv-x="1488" 
d="M893 1583q-53 0 -161 40t-144 40q-36 -1 -56 -21t-32 -71h-99q25 221 207 221q62 0 162 -39t129 -39q74 0 86 92h100q-25 -223 -192 -223zM1016 526l-187 469q-51 125 -94 260h-4q-29 -88 -94 -260l-180 -469h559zM846 1430l618 -1430h-229l-150 360h-692l-147 -360h-221
l608 1430h213z" />
    <glyph glyph-name="Adieresis" unicode="&#xc4;" horiz-adv-x="1488" 
d="M1032 1804v-207h-186v207h186zM643 1804v-207h-188v207h188zM1016 526l-187 469q-51 125 -94 260h-4q-29 -88 -94 -260l-180 -469h559zM846 1430l618 -1430h-229l-150 360h-692l-147 -360h-221l608 1430h213z" />
    <glyph glyph-name="Aring" unicode="&#xc5;" horiz-adv-x="1488" 
d="M739 1833q-51 0 -87 -36t-36 -87t36 -87t88 -36t87 36t35 88t-36 87t-87 35zM741 1919q87 0 147 -61q60 -62 60 -148t-60 -146t-148 -60t-148 60q-62 60 -62 147t62 147t149 61zM1016 526l-187 469q-51 125 -94 260h-4q-29 -88 -94 -260l-180 -469h559zM846 1430
l618 -1430h-229l-150 360h-692l-147 -360h-221l608 1430h213z" />
    <glyph glyph-name="AE" unicode="&#xc6;" horiz-adv-x="1923" 
d="M1042 532l-28 400q-18 268 -21 368h-4q-53 -109 -205 -368l-233 -400h491zM1780 176v-176h-701l-26 367h-594l-215 -367h-226l844 1430h893v-177h-567l26 -428h508v-172h-489l33 -477h514z" />
    <glyph glyph-name="Ccedilla" unicode="&#xc7;" horiz-adv-x="1255" 
d="M866 1268q-240 0 -392 -153t-150 -397q0 -244 156 -398q156 -152 401 -152q164 0 303 61l14 -192q-123 -51 -317 -51q-29 0 -82 4l-21 -123q16 4 75 4t111 -39t52 -123t-69 -132t-151 -48t-143 12l11 84q47 -8 90 -8q125 0 125 86t-113 86q-37 0 -86 -12l25 223
q-274 45 -437 232q-162 186 -162 496t216 513t544 203q195 0 322 -55l-19 -193q-127 72 -303 72z" />
    <glyph glyph-name="Egrave" unicode="&#xc8;" horiz-adv-x="1150" 
d="M319 1831h222l168 -295h-142zM1008 176v-176h-811v1430h794v-175h-588v-430h547v-172h-547v-477h605z" />
    <glyph glyph-name="Eacute" unicode="&#xc9;" horiz-adv-x="1150" 
d="M889 1831l-252 -295h-139l170 295h221zM1008 176v-176h-811v1430h794v-175h-588v-430h547v-172h-547v-477h605z" />
    <glyph glyph-name="Ecircumflex" unicode="&#xca;" horiz-adv-x="1150" 
d="M920 1536h-168l-148 199l-155 -199h-160l223 297h193zM1008 176v-176h-811v1430h794v-175h-588v-430h547v-172h-547v-477h605z" />
    <glyph glyph-name="Edieresis" unicode="&#xcb;" horiz-adv-x="1150" 
d="M891 1804v-207h-186v207h186zM502 1804v-207h-189v207h189zM1008 176v-176h-811v1430h794v-175h-588v-430h547v-172h-547v-477h605z" />
    <glyph glyph-name="Igrave" unicode="&#xcc;" horiz-adv-x="602" 
d="M-2 1831h221l168 -295h-141zM406 1430v-1430h-209v1430h209z" />
    <glyph glyph-name="Iacute" unicode="&#xcd;" horiz-adv-x="602" 
d="M612 1831l-252 -295h-139l170 295h221zM406 1430v-1430h-209v1430h209z" />
    <glyph glyph-name="Icircumflex" unicode="&#xce;" horiz-adv-x="602" 
d="M616 1536h-167l-148 199l-156 -199h-159l223 297h192zM406 1430v-1430h-209v1430h209z" />
    <glyph glyph-name="Idieresis" unicode="&#xcf;" horiz-adv-x="602" 
d="M590 1804v-207h-187v207h187zM201 1804v-207h-189v207h189zM406 1430v-1430h-209v1430h209z" />
    <glyph glyph-name="Eth" unicode="&#xd0;" horiz-adv-x="1484" 
d="M401 1255v-460h326v-117h-326v-502h78q672 0 672 539q0 312 -193 432q-175 110 -479 108h-78zM193 1430h311q380 0 611 -161q119 -83 185 -225t66 -330t-68 -326q-127 -258 -459 -347q-153 -41 -335 -41h-311v678h-146v117h146v635z" />
    <glyph glyph-name="Ntilde" unicode="&#xd1;" horiz-adv-x="1523" 
d="M922 1583q-53 0 -161 40t-144 40q-36 -1 -56 -21t-33 -71h-98q25 221 207 221q61 0 161 -39t130 -39q74 0 86 92h100q-25 -223 -192 -223zM1133 676v754h194v-1430h-270l-502 926q-113 209 -166 336h-4q10 -147 10 -402v-860h-198v1430h307l481 -902q100 -193 156 -319h4
q-12 201 -12 467z" />
    <glyph glyph-name="Ograve" unicode="&#xd2;" horiz-adv-x="1613" 
d="M526 1831h222l167 -295h-141zM1278 719q0 259 -127 415t-340 156t-344 -158t-131 -416q0 -257 130 -415t341 -158t341 158t130 418zM115 715q0 339 192 539q193 200 507 200t500 -201t185 -537q0 -336 -187 -539q-186 -202 -502 -202t-506 201q-189 201 -189 539z" />
    <glyph glyph-name="Oacute" unicode="&#xd3;" horiz-adv-x="1613" 
d="M1116 1831l-252 -295h-139l170 295h221zM1278 719q0 259 -127 415t-340 156t-344 -158t-131 -416q0 -257 130 -415t341 -158t341 158t130 418zM115 715q0 339 192 539q193 200 507 200t500 -201t185 -537q0 -336 -187 -539q-186 -202 -502 -202t-506 201
q-189 201 -189 539z" />
    <glyph glyph-name="Ocircumflex" unicode="&#xd4;" horiz-adv-x="1613" 
d="M1122 1536h-168l-147 199l-156 -199h-159l223 297h192zM1278 719q0 259 -127 415t-340 156t-344 -158t-131 -416q0 -257 130 -415t341 -158t341 158t130 418zM115 715q0 339 192 539q193 200 507 200t500 -201t185 -537q0 -336 -187 -539q-186 -202 -502 -202t-506 201
q-189 201 -189 539z" />
    <glyph glyph-name="Otilde" unicode="&#xd5;" horiz-adv-x="1613" 
d="M963 1583q-53 0 -162 40t-144 40q-35 -1 -55 -21t-33 -71h-98q25 221 207 221q62 0 162 -39t129 -39q74 0 86 92h100q-25 -223 -192 -223zM1278 719q0 259 -127 415t-340 156t-344 -158t-131 -416q0 -257 130 -415t341 -158t341 158t130 418zM115 715q0 339 192 539
q193 200 507 200t500 -201t185 -537q0 -336 -187 -539q-186 -202 -502 -202t-506 201q-189 201 -189 539z" />
    <glyph glyph-name="Odieresis" unicode="&#xd6;" horiz-adv-x="1613" 
d="M1096 1804v-207h-187v207h187zM707 1804v-207h-189v207h189zM1278 719q0 259 -127 415t-340 156t-344 -158t-131 -416q0 -257 130 -415t341 -158t341 158t130 418zM115 715q0 339 192 539q193 200 507 200t500 -201t185 -537q0 -336 -187 -539q-186 -202 -502 -202
t-506 201q-189 201 -189 539z" />
    <glyph glyph-name="multiply" unicode="&#xd7;" 
d="M88 893l127 127l381 -381l381 381l123 -123l-381 -381l381 -381l-127 -127l-381 381l-381 -381l-123 123l381 381z" />
    <glyph glyph-name="Oslash" unicode="&#xd8;" horiz-adv-x="1613" 
d="M809 1290q-211 0 -342 -158t-131 -400q0 -240 98 -390l656 854q-117 94 -281 94zM1280 705q0 246 -106 401l-658 -858q121 -104 293 -105q209 0 340 158t131 404zM825 1454q215 0 379 -108l117 153l98 -74l-121 -157q201 -201 201 -545t-187 -546t-505 -202
q-236 0 -410 119l-121 -157l-96 73l125 164q-190 201 -190 540q0 340 192 540t518 200z" />
    <glyph glyph-name="Ugrave" unicode="&#xd9;" horiz-adv-x="1472" 
d="M449 1831h221l168 -295h-142zM1294 1430v-799q0 -305 -139 -480t-439 -175t-423 192q-111 173 -111 463v799h209v-779q0 -244 76 -376q75 -132 271 -132t272 131t75 377v779h209z" />
    <glyph glyph-name="Uacute" unicode="&#xda;" horiz-adv-x="1472" 
d="M1042 1831l-251 -295h-140l170 295h221zM1294 1430v-799q0 -305 -139 -480t-439 -175t-423 192q-111 173 -111 463v799h209v-779q0 -244 76 -376q75 -132 271 -132t272 131t75 377v779h209z" />
    <glyph glyph-name="Ucircumflex" unicode="&#xdb;" horiz-adv-x="1472" 
d="M1063 1536h-168l-147 199l-156 -199h-160l223 297h193zM1294 1430v-799q0 -305 -139 -480t-439 -175t-423 192q-111 173 -111 463v799h209v-779q0 -244 76 -376q75 -132 271 -132t272 131t75 377v779h209z" />
    <glyph glyph-name="Udieresis" unicode="&#xdc;" horiz-adv-x="1472" 
d="M1024 1804v-207h-186v207h186zM635 1804v-207h-189v207h189zM1294 1430v-799q0 -305 -139 -480t-439 -175t-423 192q-111 173 -111 463v799h209v-779q0 -244 76 -376q75 -132 271 -132t272 131t75 377v779h209z" />
    <glyph glyph-name="Yacute" unicode="&#xdd;" horiz-adv-x="1361" 
d="M1010 1831l-252 -295h-140l170 295h222zM788 0h-206v600l-566 830h252l189 -289q127 -199 229 -365h4q86 147 228 365l184 289h246l-560 -826v-604z" />
    <glyph glyph-name="Thorn" unicode="&#xde;" horiz-adv-x="1169" 
d="M406 1049v-508h102q201 0 295 54q94 55 94 199t-95 199t-296 56h-100zM197 1430h209v-205h120q262 0 410 -83q168 -94 168 -345q0 -430 -578 -430h-120v-367h-209v1430z" />
    <glyph glyph-name="germandbls" unicode="&#xdf;" horiz-adv-x="1239" 
d="M178 0v969q0 265 105 426t376 161q195 0 311 -106t115 -287q1 -119 -71 -218t-189 -124v-4q150 -8 242 -118t92 -273q0 -199 -131 -321t-350 -121q-92 0 -168 16l8 168q88 -25 158 -25q129 0 205 79q75 79 75 216t-91 215t-261 78h-39v156h33q137 -1 211 71t74 192
q-1 120 -61 188t-167 67q-164 0 -222 -118t-58 -351v-936h-197z" />
    <glyph glyph-name="agrave" unicode="&#xe0;" horiz-adv-x="1146" 
d="M553 1186l-266 362h215l186 -362h-135zM688 502q-385 0 -385 -201q0 -76 54 -120q53 -44 143 -44t158 41t103 111q34 70 34 209q-45 4 -107 4zM809 77q0 44 4 101h-4q-111 -193 -348 -192q-166 0 -265 86q-100 86 -100 240t142 241q142 88 407 88q76 0 148 -6v8
q0 266 -267 266q-162 0 -303 -100l-12 172q145 88 355 88t312 -112t101 -302l-4 -340q0 -201 12 -315h-174q-4 33 -4 77z" />
    <glyph glyph-name="aacute" unicode="&#xe1;" horiz-adv-x="1146" 
d="M879 1548l-267 -362h-135l187 362h215zM688 502q-385 0 -385 -201q0 -76 54 -120q53 -44 143 -44t158 41t103 111q34 70 34 209q-45 4 -107 4zM809 77q0 44 4 101h-4q-111 -193 -348 -192q-166 0 -265 86q-100 86 -100 240t142 241q142 88 407 88q76 0 148 -6v8
q0 266 -267 266q-162 0 -303 -100l-12 172q145 88 355 88t312 -112t101 -302l-4 -340q0 -201 12 -315h-174q-4 33 -4 77z" />
    <glyph glyph-name="acircumflex" unicode="&#xe2;" horiz-adv-x="1146" 
d="M889 1186h-168l-148 264l-157 -264h-160l225 362h193zM688 502q-385 0 -385 -201q0 -76 54 -120q53 -44 143 -44t158 41t103 111q34 70 34 209q-45 4 -107 4zM809 77q0 44 4 101h-4q-111 -193 -348 -192q-166 0 -265 86q-100 86 -100 240t142 241q142 88 407 88
q76 0 148 -6v8q0 266 -267 266q-162 0 -303 -100l-12 172q145 88 355 88t312 -112t101 -302l-4 -340q0 -201 12 -315h-174q-4 33 -4 77z" />
    <glyph glyph-name="atilde" unicode="&#xe3;" horiz-adv-x="1146" 
d="M729 1233q-53 0 -157 40t-140 40q-35 -1 -55 -21t-31 -71h-96q25 221 201 221q59 0 156 -39t126 -39q72 0 84 92h98q-25 -223 -186 -223zM688 502q-385 0 -385 -201q0 -76 54 -120q53 -44 143 -44t158 41t103 111q34 70 34 209q-45 4 -107 4zM809 77q0 44 4 101h-4
q-111 -193 -348 -192q-166 0 -265 86q-100 86 -100 240t142 241q142 88 407 88q76 0 148 -6v8q0 266 -267 266q-162 0 -303 -100l-12 172q145 88 355 88t312 -112t101 -302l-4 -340q0 -201 12 -315h-174q-4 33 -4 77z" />
    <glyph glyph-name="adieresis" unicode="&#xe4;" horiz-adv-x="1146" 
d="M862 1442v-207h-186v207h186zM473 1442v-207h-188v207h188zM688 502q-385 0 -385 -201q0 -76 54 -120q53 -44 143 -44t158 41t103 111q34 70 34 209q-45 4 -107 4zM809 77q0 44 4 101h-4q-111 -193 -348 -192q-166 0 -265 86q-100 86 -100 240t142 241q142 88 407 88
q76 0 148 -6v8q0 266 -267 266q-162 0 -303 -100l-12 172q145 88 355 88t312 -112t101 -302l-4 -340q0 -201 12 -315h-174q-4 33 -4 77z" />
    <glyph glyph-name="aring" unicode="&#xe5;" horiz-adv-x="1146" 
d="M573 1495q-51 0 -87 -36t-36 -86t38 -87q36 -37 87 -37t87 36q34 36 34 88t-36 87t-87 35zM576 1581q86 0 146 -61q60 -62 60 -148t-60 -146t-148 -60t-148 60q-61 60 -61 147t62 148q63 60 149 60zM688 502q-385 0 -385 -201q0 -76 54 -120q53 -44 143 -44t158 41
t103 111q34 70 34 209q-45 4 -107 4zM809 77q0 44 4 101h-4q-111 -193 -348 -192q-166 0 -265 86q-100 86 -100 240t142 241q142 88 407 88q76 0 148 -6v8q0 266 -267 266q-162 0 -303 -100l-12 172q145 88 355 88t312 -112t101 -302l-4 -340q0 -201 12 -315h-174
q-4 33 -4 77z" />
    <glyph glyph-name="ae" unicode="&#xe6;" horiz-adv-x="1830" 
d="M1544 625q0 145 -71 221q-72 76 -191 76t-201 -80t-94 -217h557zM688 502q-385 0 -385 -201q0 -72 57 -119q58 -47 146 -47t156 42t100 114q33 64 33 207q-45 4 -107 4zM1343 145q162 0 308 78l6 -178q-135 -63 -315 -63q-356 0 -459 247h-4q-100 -248 -406 -247
q-170 0 -273 84q-104 84 -104 242t142 245q142 88 407 88q76 0 148 -6q-4 274 -267 274q-162 0 -303 -106l-12 172q164 94 348 94q264 0 361 -197q121 197 366 197q211 0 330 -130t119 -388q0 -31 -4 -76h-748q4 -152 101 -241t259 -89z" />
    <glyph glyph-name="ccedilla" unicode="&#xe7;" horiz-adv-x="931" 
d="M655 891q-158 0 -255 -100q-97 -101 -97 -265t96 -268t252 -104q113 0 217 51l17 -174q-102 -43 -256 -43h-33l-23 -121q16 4 75 4t111 -39t52 -123t-69 -132q-70 -48 -152 -48t-141 12l10 84q47 -8 90 -8q125 0 125 86t-113 86q-37 0 -86 -12l29 221q-188 37 -298 177
q-110 141 -110 363t150 372t395 149q127 0 221 -39l-12 -172q-86 43 -195 43z" />
    <glyph glyph-name="egrave" unicode="&#xe8;" horiz-adv-x="1138" 
d="M555 1186l-266 362h215l186 -362h-135zM852 625q0 145 -72 221t-190 76t-200 -80q-81 -80 -93 -217h555zM653 139q158 0 308 78l6 -178q-139 -63 -324 -64q-260 -1 -403 147q-144 148 -144 401t137 399t355 147q218 0 336 -130q119 -130 118 -388q0 -31 -4 -76h-745
q6 -158 104 -247t256 -89z" />
    <glyph glyph-name="eacute" unicode="&#xe9;" horiz-adv-x="1138" 
d="M909 1548l-266 -362h-135l186 362h215zM852 625q0 145 -72 221t-190 76t-200 -80q-81 -80 -93 -217h555zM653 139q158 0 308 78l6 -178q-139 -63 -324 -64q-260 -1 -403 147q-144 148 -144 401t137 399t355 147q218 0 336 -130q119 -130 118 -388q0 -31 -4 -76h-745
q6 -158 104 -247t256 -89z" />
    <glyph glyph-name="ecircumflex" unicode="&#xea;" horiz-adv-x="1138" 
d="M909 1186h-168l-147 264l-158 -264h-160l226 362h192zM852 625q0 145 -72 221t-190 76t-200 -80q-81 -80 -93 -217h555zM653 139q158 0 308 78l6 -178q-139 -63 -324 -64q-260 -1 -403 147q-144 148 -144 401t137 399t355 147q218 0 336 -130q119 -130 118 -388
q0 -31 -4 -76h-745q6 -158 104 -247t256 -89z" />
    <glyph glyph-name="edieresis" unicode="&#xeb;" horiz-adv-x="1138" 
d="M879 1442v-207h-187v207h187zM489 1442v-207h-188v207h188zM852 625q0 145 -72 221t-190 76t-200 -80q-81 -80 -93 -217h555zM653 139q158 0 308 78l6 -178q-139 -63 -324 -64q-260 -1 -403 147q-144 148 -144 401t137 399t355 147q218 0 336 -130q119 -130 118 -388
q0 -31 -4 -76h-745q6 -158 104 -247t256 -89z" />
    <glyph glyph-name="igrave" unicode="&#xec;" horiz-adv-x="561" 
d="M229 1186l-266 362h215l187 -362h-136zM379 1044v-1044h-197v1044h197z" />
    <glyph glyph-name="iacute" unicode="&#xed;" horiz-adv-x="561" 
d="M610 1548l-266 -362h-135l186 362h215zM379 1044v-1044h-197v1044h197z" />
    <glyph glyph-name="icircumflex" unicode="&#xee;" horiz-adv-x="561" 
d="M598 1186h-168l-147 264l-158 -264h-160l225 362h193zM379 1044v-1044h-197v1044h197z" />
    <glyph glyph-name="idieresis" unicode="&#xef;" horiz-adv-x="561" 
d="M569 1442v-207h-186v207h186zM180 1442v-207h-188v207h188zM379 1044v-1044h-197v1044h197z" />
    <glyph glyph-name="eth" unicode="&#xf0;" horiz-adv-x="1265" 
d="M634 887q-148 0 -240 -111q-92 -110 -91 -270q0 -160 90 -265t243 -105q152 0 238 104q86 106 86 270t-88 270q-90 106 -238 107zM1169 565q0 -241 -139 -413t-387 -172q-247 0 -397 150t-150 379q0 228 146 379t370 150q178 0 297 -114h6q-27 86 -109 188
q-83 102 -190 174l-243 -137l-78 106l209 117q-98 57 -230 92l127 129q133 -45 265 -131l186 117l102 -98l-174 -103q389 -313 389 -813z" />
    <glyph glyph-name="ntilde" unicode="&#xf1;" horiz-adv-x="1267" 
d="M793 1233q-53 0 -158 40t-139 40q-34 -1 -56 -21q-20 -20 -30 -71h-97q25 221 201 221q58 0 156 -39t127 -39q72 0 84 92h98q-25 -223 -186 -223zM362 877h5q127 193 348 192q389 0 389 -471v-598h-195v516q0 237 -61 315t-180 76q-76 0 -143 -41q-67 -42 -111 -118
t-45 -248v-500h-195v735q0 199 -10 309h190q8 -89 8 -167z" />
    <glyph glyph-name="ograve" unicode="&#xf2;" horiz-adv-x="1265" 
d="M606 1186l-266 362h215l186 -362h-135zM633 907q-145 0 -238 -109q-92 -110 -92 -282t92 -275q93 -103 239 -103t239 104t93 276t-94 280t-239 109zM96 522q0 240 152 394t386 153q236 0 386 -156q150 -157 150 -397t-150 -390t-385 -151q-235 0 -387 153
q-152 154 -152 394z" />
    <glyph glyph-name="oacute" unicode="&#xf3;" horiz-adv-x="1265" 
d="M948 1548l-266 -362h-135l186 362h215zM633 907q-145 0 -238 -109q-92 -110 -92 -282t92 -275q93 -103 239 -103t239 104t93 276t-94 280t-239 109zM96 522q0 240 152 394t386 153q236 0 386 -156q150 -157 150 -397t-150 -390t-385 -151q-235 0 -387 153
q-152 154 -152 394z" />
    <glyph glyph-name="ocircumflex" unicode="&#xf4;" horiz-adv-x="1265" 
d="M948 1186h-168l-147 264l-158 -264h-160l226 362h192zM633 907q-145 0 -238 -109q-92 -110 -92 -282t92 -275q93 -103 239 -103t239 104t93 276t-94 280t-239 109zM96 522q0 240 152 394t386 153q236 0 386 -156q150 -157 150 -397t-150 -390t-385 -151q-235 0 -387 153
q-152 154 -152 394z" />
    <glyph glyph-name="otilde" unicode="&#xf5;" horiz-adv-x="1265" 
d="M797 1233q-53 0 -158 40t-139 40q-34 -1 -56 -21q-20 -20 -30 -71h-97q25 221 201 221q58 0 156 -39t127 -39q72 0 84 92h98q-25 -223 -186 -223zM633 907q-145 0 -238 -109q-92 -110 -92 -282t92 -275q93 -103 239 -103t239 104t93 276t-94 280t-239 109zM96 522
q0 240 152 394t386 153q236 0 386 -156q150 -157 150 -397t-150 -390t-385 -151q-235 0 -387 153q-152 154 -152 394z" />
    <glyph glyph-name="odieresis" unicode="&#xf6;" horiz-adv-x="1265" 
d="M922 1442v-207h-187v207h187zM532 1442v-207h-188v207h188zM633 907q-145 0 -238 -109q-92 -110 -92 -282t92 -275q93 -103 239 -103t239 104t93 276t-94 280t-239 109zM96 522q0 240 152 394t386 153q236 0 386 -156q150 -157 150 -397t-150 -390t-385 -151
q-235 0 -387 153q-152 154 -152 394z" />
    <glyph glyph-name="divide" unicode="&#xf7;" 
d="M696 999v-229h-229v229h229zM696 258v-229h-229v229h229zM61 598h1033v-168h-1033v168z" />
    <glyph glyph-name="oslash" unicode="&#xf8;" horiz-adv-x="1265" 
d="M616 907q-128 0 -221 -109q-92 -110 -92 -260t55 -249l467 555q-81 63 -209 63zM646 137q134 1 228 105t93 262q0 158 -72 264l-469 -557q86 -74 220 -74zM639 1069q168 0 301 -88l115 135l78 -67l-113 -136q150 -157 150 -397t-150 -390t-387 -151q-184 0 -322 99
l-116 -140l-78 66l119 141q-140 149 -140 385t152 390t391 153z" />
    <glyph glyph-name="ugrave" unicode="&#xf9;" horiz-adv-x="1259" 
d="M594 1186l-266 362h215l186 -362h-135zM901 166h-4q-119 -190 -360 -191q-174 0 -276 114q-101 114 -101 304v651h194v-516q0 -94 7 -154t31 -120q47 -117 191 -117t226 108t82 261v538h194v-731q0 -225 11 -313h-187q-8 86 -8 166z" />
    <glyph glyph-name="uacute" unicode="&#xfa;" horiz-adv-x="1259" 
d="M958 1548l-266 -362h-135l186 362h215zM901 166h-4q-119 -190 -360 -191q-174 0 -276 114q-101 114 -101 304v651h194v-516q0 -94 7 -154t31 -120q47 -117 191 -117t226 108t82 261v538h194v-731q0 -225 11 -313h-187q-8 86 -8 166z" />
    <glyph glyph-name="ucircumflex" unicode="&#xfb;" horiz-adv-x="1259" 
d="M946 1186h-168l-147 264l-158 -264h-160l226 362h192zM901 166h-4q-119 -190 -360 -191q-174 0 -276 114q-101 114 -101 304v651h194v-516q0 -94 7 -154t31 -120q47 -117 191 -117t226 108t82 261v538h194v-731q0 -225 11 -313h-187q-8 86 -8 166z" />
    <glyph glyph-name="udieresis" unicode="&#xfc;" horiz-adv-x="1259" 
d="M924 1442v-207h-187v207h187zM535 1442v-207h-189v207h189zM901 166h-4q-119 -190 -360 -191q-174 0 -276 114q-101 114 -101 304v651h194v-516q0 -94 7 -154t31 -120q47 -117 191 -117t226 108t82 261v538h194v-731q0 -225 11 -313h-187q-8 86 -8 166z" />
    <glyph glyph-name="yacute" unicode="&#xfd;" horiz-adv-x="1019" 
d="M831 1548l-266 -362h-135l186 362h215zM186 -299q84 0 130 53t98 201l-396 1089h211l211 -632q41 -121 76 -254h4q41 143 78 254l213 632h197l-373 -1034q-97 -270 -187 -367t-247 -98q-63 0 -119 17l12 153q49 -14 92 -14z" />
    <glyph glyph-name="thorn" unicode="&#xfe;" horiz-adv-x="1275" 
d="M1180 532q0 -245 -125 -401t-328 -156q-117 -1 -209 55t-141 146h-4q6 -61 6 -258v-348h-195v1978h191v-401q0 -172 -6 -270h4q121 193 358 192q201 0 325 -146t124 -391zM977 526q0 168 -80 274t-211 107q-131 -1 -220 -113t-89 -272t89 -272t219 -113q130 0 211 111
q81 110 81 278z" />
    <glyph glyph-name="ydieresis" unicode="&#xff;" horiz-adv-x="1019" 
d="M817 1442v-207h-186v207h186zM428 1442v-207h-188v207h188zM186 -299q84 0 130 53t98 201l-396 1089h211l211 -632q41 -121 76 -254h4q41 143 78 254l213 632h197l-373 -1034q-97 -270 -187 -367t-247 -98q-63 0 -119 17l12 153q49 -14 92 -14z" />
    <glyph glyph-name="Amacron" unicode="&#x100;" horiz-adv-x="1488" 
d="M1026 1743v-121h-565v121h565zM1016 526l-187 469q-51 125 -94 260h-4q-29 -88 -94 -260l-180 -469h559zM846 1430l618 -1430h-229l-150 360h-692l-147 -360h-221l608 1430h213z" />
    <glyph glyph-name="amacron" unicode="&#x101;" horiz-adv-x="1146" 
d="M856 1393v-121h-565v121h565zM688 502q-385 0 -385 -201q0 -76 54 -120q53 -44 143 -44t158 41t103 111q34 70 34 209q-45 4 -107 4zM809 77q0 44 4 101h-4q-111 -193 -348 -192q-166 0 -265 86q-100 86 -100 240t142 241q142 88 407 88q76 0 148 -6v8q0 266 -267 266
q-162 0 -303 -100l-12 172q145 88 355 88t312 -112t101 -302l-4 -340q0 -201 12 -315h-174q-4 33 -4 77z" />
    <glyph glyph-name="Abreve" unicode="&#x102;" horiz-adv-x="1488" 
d="M742 1565q-144 -1 -228 77t-92 213h104q36 -160 216 -160t223 160h102q-6 -131 -93 -211q-88 -80 -232 -79zM1016 526l-187 469q-51 125 -94 260h-4q-29 -88 -94 -260l-180 -469h559zM846 1430l618 -1430h-229l-150 360h-692l-147 -360h-221l608 1430h213z" />
    <glyph glyph-name="abreve" unicode="&#x103;" horiz-adv-x="1146" 
d="M570 1157q-140 0 -226 96t-94 254h110q16 -117 68 -169t143 -52q180 0 217 221h107q-8 -152 -97 -251q-88 -99 -228 -99zM688 502q-385 0 -385 -201q0 -76 54 -120q53 -44 143 -44t158 41t103 111q34 70 34 209q-45 4 -107 4zM809 77q0 44 4 101h-4q-111 -193 -348 -192
q-166 0 -265 86q-100 86 -100 240t142 241q142 88 407 88q76 0 148 -6v8q0 266 -267 266q-162 0 -303 -100l-12 172q145 88 355 88t312 -112t101 -302l-4 -340q0 -201 12 -315h-174q-4 33 -4 77z" />
    <glyph glyph-name="Aogonek" unicode="&#x104;" horiz-adv-x="1488" 
d="M1016 526l-187 469q-51 125 -94 260h-4q-29 -88 -94 -260l-180 -469h559zM1204 -240q0 -100 112 -100q54 0 107 31l15 -90q-68 -37 -162 -37t-155 42q-60 42 -60 117t38 134t136 143l-150 360h-692l-147 -360h-221l608 1430h213l618 -1430h-123q-81 -88 -109 -140
t-28 -100z" />
    <glyph glyph-name="aogonek" unicode="&#x105;" horiz-adv-x="1146" 
d="M688 502q-385 0 -385 -201q0 -76 54 -120q53 -44 143 -44t158 41t103 111q34 70 34 209q-45 4 -107 4zM782 -240q0 -100 112 -100q54 0 107 31l15 -90q-68 -37 -162 -37t-155 42q-60 42 -60 117t38 134t136 143q-4 33 -4 77t4 101h-4q-111 -193 -348 -192q-166 0 -265 86
q-100 86 -100 240t142 241q142 88 407 88q76 0 148 -6v8q0 266 -267 266q-162 0 -303 -100l-12 172q145 88 355 88t312 -112t101 -302l-4 -340q0 -201 12 -315h-67q-82 -88 -110 -140t-28 -100z" />
    <glyph glyph-name="Cacute" unicode="&#x106;" horiz-adv-x="1255" 
d="M1118 1831l-252 -295h-139l170 295h221zM866 1268q-240 0 -392 -153t-150 -397q0 -244 156 -398q156 -152 401 -152q164 0 303 61l14 -192q-123 -51 -317 -51q-348 0 -562 193q-213 195 -213 527t216 535t544 203q195 0 322 -55l-19 -193q-127 72 -303 72z" />
    <glyph glyph-name="cacute" unicode="&#x107;" horiz-adv-x="931" 
d="M897 1548l-266 -362h-135l186 362h215zM655 891q-158 0 -255 -100q-97 -101 -97 -265t96 -268t252 -104q113 0 217 51l17 -174q-109 -45 -256 -45q-240 0 -386 147q-147 147 -147 387t150 390t395 149q127 0 221 -39l-12 -172q-86 43 -195 43z" />
    <glyph glyph-name="Ccircumflex" unicode="&#x108;" horiz-adv-x="1255" 
d="M1130 1536h-167l-148 199l-156 -199h-159l223 297h192zM866 1268q-240 0 -392 -153t-150 -397q0 -244 156 -398q156 -152 401 -152q164 0 303 61l14 -192q-123 -51 -317 -51q-348 0 -562 193q-213 195 -213 527t216 535t544 203q195 0 322 -55l-19 -193q-127 72 -303 72z
" />
    <glyph glyph-name="ccircumflex" unicode="&#x109;" horiz-adv-x="931" 
d="M907 1186h-168l-147 264l-158 -264h-160l226 362h192zM655 891q-158 0 -255 -100q-97 -101 -97 -265t96 -268t252 -104q113 0 217 51l17 -174q-109 -45 -256 -45q-240 0 -386 147q-147 147 -147 387t150 390t395 149q127 0 221 -39l-12 -172q-86 43 -195 43z" />
    <glyph glyph-name="Cdotaccent" unicode="&#x10a;" horiz-adv-x="1255" 
d="M928 1798v-215h-217v215h217zM866 1268q-240 0 -392 -153t-150 -397q0 -244 156 -398q156 -152 401 -152q164 0 303 61l14 -192q-123 -51 -317 -51q-348 0 -562 193q-213 195 -213 527t216 535t544 203q195 0 322 -55l-19 -193q-127 72 -303 72z" />
    <glyph glyph-name="cdotaccent" unicode="&#x10b;" horiz-adv-x="931" 
d="M698 1448v-215h-217v215h217zM655 891q-158 0 -255 -100q-97 -101 -97 -265t96 -268t252 -104q113 0 217 51l17 -174q-109 -45 -256 -45q-240 0 -386 147q-147 147 -147 387t150 390t395 149q127 0 221 -39l-12 -172q-86 43 -195 43z" />
    <glyph glyph-name="Ccaron" unicode="&#x10c;" horiz-adv-x="1255" 
d="M508 1831h168l147 -199l156 199h160l-224 -297h-192zM866 1268q-240 0 -392 -153t-150 -397q0 -244 156 -398q156 -152 401 -152q164 0 303 61l14 -192q-123 -51 -317 -51q-348 0 -562 193q-213 195 -213 527t216 535t544 203q195 0 322 -55l-19 -193q-127 72 -303 72z
" />
    <glyph glyph-name="ccaron" unicode="&#x10d;" horiz-adv-x="931" 
d="M272 1548h168l148 -264l157 264h160l-225 -362h-193zM655 891q-158 0 -255 -100q-97 -101 -97 -265t96 -268t252 -104q113 0 217 51l17 -174q-109 -45 -256 -45q-240 0 -386 147q-147 147 -147 387t150 390t395 149q127 0 221 -39l-12 -172q-86 43 -195 43z" />
    <glyph glyph-name="Dcaron" unicode="&#x10e;" horiz-adv-x="1484" 
d="M332 1831h168l147 -199l156 199h160l-224 -297h-192zM406 1255v-1079h77q672 0 672 539q0 311 -192 432q-175 110 -480 108h-77zM197 1430h311q380 0 611 -161q120 -83 186 -225q65 -142 65 -330t-68 -326q-125 -257 -459 -347q-153 -41 -335 -41h-311v1430z" />
    <glyph glyph-name="dcaron" unicode="&#x10f;" horiz-adv-x="1265" 
d="M1399 1548l-86 -362h-115l27 362h174zM901 522q0 162 -87 274t-216 111q-129 1 -212 -111t-83 -277t82 -273t211 -109q129 0 217 111q88 112 88 274zM1087 1548v-1233q0 -205 11 -315h-178q-6 82 -7 180h-4q-125 -205 -344 -205q-219 -1 -344 147t-125 394t128 400
t333 153q115 0 203 -48t137 -134h4q-6 98 -6 260v401h192z" />
    <glyph glyph-name="Dcroat" unicode="&#x110;" horiz-adv-x="1484" 
d="M401 1255v-460h326v-117h-326v-502h78q672 0 672 539q0 312 -193 432q-175 110 -479 108h-78zM193 1430h311q380 0 611 -161q119 -83 185 -225t66 -330t-68 -326q-127 -258 -459 -347q-153 -41 -335 -41h-311v678h-146v117h146v635z" />
    <glyph glyph-name="dcroat" unicode="&#x111;" horiz-adv-x="1265" 
d="M901 522q0 162 -87 274t-216 111q-129 1 -212 -111t-83 -277t82 -273t211 -109q129 0 217 111q88 112 88 274zM1087 1548v-159h111v-105h-111v-969q0 -205 11 -315h-178q-6 82 -7 180h-4q-125 -205 -344 -205q-219 -1 -344 147t-125 394t128 400t333 153q115 0 203 -48
t137 -134h4q-6 98 -6 260v137h-236v105h236v159h192z" />
    <glyph glyph-name="Emacron" unicode="&#x112;" horiz-adv-x="1150" 
d="M881 1743v-121h-566v121h566zM1008 176v-176h-811v1430h794v-175h-588v-430h547v-172h-547v-477h605z" />
    <glyph glyph-name="emacron" unicode="&#x113;" horiz-adv-x="1138" 
d="M870 1393v-121h-565v121h565zM852 625q0 145 -72 221t-190 76t-200 -80q-81 -80 -93 -217h555zM653 139q158 0 308 78l6 -178q-139 -63 -324 -64q-260 -1 -403 147q-144 148 -144 401t137 399t355 147q218 0 336 -130q119 -130 118 -388q0 -31 -4 -76h-745
q6 -158 104 -247t256 -89z" />
    <glyph glyph-name="Ebreve" unicode="&#x114;" horiz-adv-x="1150" 
d="M595 1565q-144 -1 -228 77t-93 213h105q33 -160 214 -160t224 160h103q-6 -131 -94 -211t-231 -79zM1008 176v-176h-811v1430h794v-175h-588v-430h547v-172h-547v-477h605z" />
    <glyph glyph-name="ebreve" unicode="&#x115;" horiz-adv-x="1138" 
d="M590 1157q-139 0 -225 96t-95 254h111q15 -117 67 -169t144 -52q180 0 217 221h106q-8 -152 -97 -251t-228 -99zM852 625q0 145 -72 221t-190 76t-200 -80q-81 -80 -93 -217h555zM653 139q158 0 308 78l6 -178q-139 -63 -324 -64q-260 -1 -403 147q-144 148 -144 401
t137 399t355 147q218 0 336 -130q119 -130 118 -388q0 -31 -4 -76h-745q6 -158 104 -247t256 -89z" />
    <glyph glyph-name="Edotaccent" unicode="&#x116;" horiz-adv-x="1150" 
d="M700 1798v-215h-217v215h217zM1008 176v-176h-811v1430h794v-175h-588v-430h547v-172h-547v-477h605z" />
    <glyph glyph-name="edotaccent" unicode="&#x117;" horiz-adv-x="1138" 
d="M700 1448v-215h-217v215h217zM852 625q0 145 -72 221t-190 76t-200 -80q-81 -80 -93 -217h555zM653 139q158 0 308 78l6 -178q-139 -63 -324 -64q-260 -1 -403 147q-144 148 -144 401t137 399t355 147q218 0 336 -130q119 -130 118 -388q0 -31 -4 -76h-745
q6 -158 104 -247t256 -89z" />
    <glyph glyph-name="Eogonek" unicode="&#x118;" horiz-adv-x="1150" 
d="M784 -240q0 -100 112 -100q54 0 108 31l14 -90q-68 -37 -162 -37t-155 42q-60 42 -60 117t38 134t136 143h-618v1430h794v-175h-588v-430h547v-172h-547v-477h605v-176h-86q-82 -88 -110 -140t-28 -100z" />
    <glyph glyph-name="eogonek" unicode="&#x119;" horiz-adv-x="1138" 
d="M852 625q0 145 -72 221t-190 76t-200 -80q-81 -80 -93 -217h555zM653 139q158 0 308 78l6 -170l-45 -29q-197 -127 -197 -262q0 -44 29 -70q28 -26 82 -26t108 31l14 -90q-68 -37 -162 -37t-154 42t-60 122q0 127 161 249v5q-41 -6 -100 -7q-260 -1 -403 147
q-144 148 -144 401t137 399t355 147q218 0 336 -130q119 -130 118 -388q0 -31 -4 -76h-745q6 -158 104 -247t256 -89z" />
    <glyph glyph-name="Ecaron" unicode="&#x11a;" horiz-adv-x="1150" 
d="M287 1831h168l147 -199l156 199h160l-224 -297h-192zM1008 176v-176h-811v1430h794v-175h-588v-430h547v-172h-547v-477h605z" />
    <glyph glyph-name="ecaron" unicode="&#x11b;" horiz-adv-x="1138" 
d="M285 1548h168l147 -264l158 264h160l-226 -362h-192zM852 625q0 145 -72 221t-190 76t-200 -80q-81 -80 -93 -217h555zM653 139q158 0 308 78l6 -178q-139 -63 -324 -64q-260 -1 -403 147q-144 148 -144 401t137 399t355 147q218 0 336 -130q119 -130 118 -388
q0 -31 -4 -76h-745q6 -158 104 -247t256 -89z" />
    <glyph glyph-name="Gcircumflex" unicode="&#x11c;" horiz-adv-x="1486" 
d="M1167 1536h-168l-147 199l-156 -199h-159l223 297h192zM1100 606h-305v168h512v-723q-229 -66 -422 -65q-354 0 -567 201q-212 201 -212 529t222 528t569 200q225 0 395 -72l-16 -201q-170 98 -369 99q-258 0 -418 -151q-159 -151 -159 -401t154 -402q154 -151 403 -150
q119 0 213 20v420z" />
    <glyph glyph-name="gcircumflex" unicode="&#x11d;" horiz-adv-x="1261" 
d="M932 1186h-168l-148 264l-157 -264h-160l225 362h193zM907 1044h180v-1001q0 -201 -114 -349q-114 -149 -395 -149q-213 0 -400 70l21 192q184 -98 372 -98q328 0 328 354q0 90 4 127h-4q-113 -190 -330 -190t-345 142t-128 382t132 392t354 153q222 0 325 -182h4
q-4 65 -4 157zM897 530q0 160 -86 268t-214 109t-210 -109t-82 -274t79 -265t210 -101t217 106t86 266z" />
    <glyph glyph-name="Gbreve" unicode="&#x11e;" horiz-adv-x="1486" 
d="M851 1565q-144 -1 -228 77t-93 213h105q33 -160 214 -160t224 160h103q-6 -131 -94 -211t-231 -79zM1100 606h-305v168h512v-723q-229 -66 -422 -65q-354 0 -567 201q-212 201 -212 529t222 528t569 200q225 0 395 -72l-16 -201q-170 98 -369 99q-258 0 -418 -151
q-159 -151 -159 -401t154 -402q154 -151 403 -150q119 0 213 20v420z" />
    <glyph glyph-name="gbreve" unicode="&#x11f;" horiz-adv-x="1261" 
d="M621 1157q-139 0 -226 96q-86 96 -94 254h111q16 -117 67 -169t144 -52q180 0 217 221h106q-8 -152 -97 -251t-228 -99zM907 1044h180v-1001q0 -201 -114 -349q-114 -149 -395 -149q-213 0 -400 70l21 192q184 -98 372 -98q328 0 328 354q0 90 4 127h-4
q-113 -190 -330 -190t-345 142t-128 382t132 392t354 153q222 0 325 -182h4q-4 65 -4 157zM897 530q0 160 -86 268t-214 109t-210 -109t-82 -274t79 -265t210 -101t217 106t86 266z" />
    <glyph glyph-name="Gdotaccent" unicode="&#x120;" horiz-adv-x="1486" 
d="M961 1798v-215h-218v215h218zM1100 606h-305v168h512v-723q-229 -66 -422 -65q-354 0 -567 201q-212 201 -212 529t222 528t569 200q225 0 395 -72l-16 -201q-170 98 -369 99q-258 0 -418 -151q-159 -151 -159 -401t154 -402q154 -151 403 -150q119 0 213 20v420z" />
    <glyph glyph-name="gdotaccent" unicode="&#x121;" horiz-adv-x="1261" 
d="M715 1448v-215h-217v215h217zM907 1044h180v-1001q0 -201 -114 -349q-114 -149 -395 -149q-213 0 -400 70l21 192q184 -98 372 -98q328 0 328 354q0 90 4 127h-4q-113 -190 -330 -190t-345 142t-128 382t132 392t354 153q222 0 325 -182h4q-4 65 -4 157zM897 530
q0 160 -86 268t-214 109t-210 -109t-82 -274t79 -265t210 -101t217 106t86 266z" />
    <glyph glyph-name="Gcommaaccent" unicode="&#x122;" horiz-adv-x="1486" 
d="M967 -127l-176 -344h-136l105 344h207zM1100 606h-305v168h512v-723q-229 -66 -422 -65q-354 0 -567 201q-212 201 -212 529t222 528t569 200q225 0 395 -72l-16 -201q-170 98 -369 99q-258 0 -418 -151q-159 -151 -159 -401t154 -402q154 -151 403 -150q119 0 213 20
v420z" />
    <glyph glyph-name="gcommaaccent" unicode="&#x123;" horiz-adv-x="1261" 
d="M471 1186l180 362h135l-108 -362h-207zM907 1044h180v-1001q0 -201 -114 -349q-114 -149 -395 -149q-213 0 -400 70l21 192q184 -98 372 -98q328 0 328 354q0 90 4 127h-4q-113 -190 -330 -190t-345 142t-128 382t132 392t354 153q222 0 325 -182h4q-4 65 -4 157z
M897 530q0 160 -86 268t-214 109t-210 -109t-82 -274t79 -265t210 -101t217 106t86 266z" />
    <glyph glyph-name="Hcircumflex" unicode="&#x124;" horiz-adv-x="1495" 
d="M1063 1536h-168l-147 199l-156 -199h-160l223 297h193zM1298 1430v-1430h-206v653h-686v-653h-209v1430h209v-601h686v601h206z" />
    <glyph glyph-name="hcircumflex" unicode="&#x125;" horiz-adv-x="1271" 
d="M948 1618h-168l-147 199l-156 -199h-160l224 297h192zM373 1548v-401q0 -188 -6 -270h4q123 193 346 192q391 0 391 -471v-598h-195v516q0 234 -62 314q-62 79 -181 77q-162 1 -252 -157q-44 -78 -45 -250v-500h-195v1548h195z" />
    <glyph glyph-name="Hbar" unicode="&#x126;" horiz-adv-x="1495" 
d="M406 809h686v262h-686v-262zM1298 1430v-240h86v-119h-86v-1071h-206v633h-686v-633h-209v1071h-86v119h86v240h209v-240h686v240h206z" />
    <glyph glyph-name="hbar" unicode="&#x127;" horiz-adv-x="1271" 
d="M68 1389h110v159h195v-159h211v-105h-211v-137q0 -188 -6 -270h4q123 193 346 192q391 0 391 -471v-598h-195v516q0 234 -62 314q-62 79 -181 77q-162 1 -252 -157q-44 -78 -45 -250v-500h-195v1284h-110v105z" />
    <glyph glyph-name="Itilde" unicode="&#x128;" horiz-adv-x="602" 
d="M451 1583q-53 0 -162 40t-144 40q-35 -1 -55 -21t-33 -71h-98q25 221 207 221q62 0 162 -39t129 -39q74 0 86 92h100q-25 -223 -192 -223zM406 1430v-1430h-209v1430h209z" />
    <glyph glyph-name="itilde" unicode="&#x129;" horiz-adv-x="561" 
d="M428 1233q-53 0 -158 40q-106 40 -140 40q-34 -1 -54 -21t-31 -71h-96q25 221 201 221q59 0 156 -39t126 -39q72 0 84 92h98q-25 -223 -186 -223zM379 1044v-1044h-197v1044h197z" />
    <glyph glyph-name="Imacron" unicode="&#x12a;" horiz-adv-x="602" 
d="M584 1743v-121h-566v121h566zM406 1430v-1430h-209v1430h209z" />
    <glyph glyph-name="imacron" unicode="&#x12b;" horiz-adv-x="561" 
d="M563 1393v-121h-565v121h565zM379 1044v-1044h-197v1044h197z" />
    <glyph glyph-name="Ibreve" unicode="&#x12c;" horiz-adv-x="602" 
d="M300 1565q-144 -1 -228 77t-92 213h104q33 -160 214 -160t224 160h103q-5 -131 -93 -211t-232 -79zM406 1430v-1430h-209v1430h209z" />
    <glyph glyph-name="ibreve" unicode="&#x12d;" horiz-adv-x="561" 
d="M279 1157q-139 0 -226 96q-86 96 -94 254h111q16 -117 67 -169t144 -52q180 0 217 221h106q-8 -152 -97 -251t-228 -99zM379 1044v-1044h-197v1044h197z" />
    <glyph glyph-name="Iogonek" unicode="&#x12e;" horiz-adv-x="602" 
d="M250 -240q0 -100 112 -100q54 0 107 31l14 -90q-68 -37 -162 -37t-154 42q-61 42 -61 117t38 134t137 143h-84v1430h209v-1410h2l-2 -2v-18h-19q-81 -88 -109 -140t-28 -100z" />
    <glyph glyph-name="iogonek" unicode="&#x12f;" horiz-adv-x="561" 
d="M389 1448v-215h-217v215h217zM219 -240q0 -100 112 -100q54 0 107 31l15 -90q-68 -37 -162 -37t-155 42q-60 42 -60 117t38 134t136 143h-68v1044h197v-1044h-23q-82 -88 -110 -140t-27 -100z" />
    <glyph glyph-name="Idotaccent" unicode="&#x130;" horiz-adv-x="602" 
d="M410 1798v-215h-217v215h217zM406 1430v-1430h-209v1430h209z" />
    <glyph glyph-name="dotlessi" unicode="&#x131;" horiz-adv-x="561" 
d="M379 1044v-1044h-197v1044h197z" />
    <glyph glyph-name="Jcircumflex" unicode="&#x134;" horiz-adv-x="798" 
d="M827 1536h-168l-147 199l-156 -199h-159l223 297h192zM410 1430h206v-1049q0 -180 -97 -293t-292 -113q-106 0 -182 27v178q66 -27 137 -26q125 0 176 63t52 223v990z" />
    <glyph glyph-name="jcircumflex" unicode="&#x135;" horiz-adv-x="561" 
d="M598 1186h-168l-147 264l-158 -264h-160l225 362h193zM379 1044v-1105q0 -393 -324 -394q-43 0 -90 11v159q27 -4 55 -4q88 1 125 59t37 193v1081h197z" />
    <glyph glyph-name="Kcommaaccent" unicode="&#x136;" horiz-adv-x="1372" 
d="M809 -127l-176 -344h-135l104 344h207zM399 715v-715h-202v1430h202v-644h4q127 141 273 293l336 351h276l-684 -672l742 -758h-297l-426 463q-68 74 -220 252h-4z" />
    <glyph glyph-name="kcommaaccent" unicode="&#x137;" horiz-adv-x="1134" 
d="M711 -127l-176 -344h-136l105 344h207zM377 545v-545h-199v1548h199v-946h4q86 98 213 229l213 213h258l-492 -458l549 -586h-264l-268 297q-121 135 -209 248h-4z" />
    <glyph glyph-name="kgreenlandic" unicode="&#x138;" horiz-adv-x="1134" 
d="M377 545v-545h-199v1044h199v-442h4q111 127 213 229l213 213h258l-492 -458l549 -586h-264l-268 297q-121 135 -209 248h-4z" />
    <glyph glyph-name="Lacute" unicode="&#x139;" horiz-adv-x="1040" 
d="M618 1831l-251 -295h-140l170 295h221zM406 1430v-1254h598v-176h-807v1430h209z" />
    <glyph glyph-name="lacute" unicode="&#x13a;" horiz-adv-x="552" 
d="M588 1913l-252 -295h-139l170 295h221zM375 1548v-1548h-197v1548h197z" />
    <glyph glyph-name="Lcommaaccent" unicode="&#x13b;" horiz-adv-x="1040" 
d="M702 -127l-176 -344h-135l105 344h206zM406 1430v-1254h598v-176h-807v1430h209z" />
    <glyph glyph-name="lcommaaccent" unicode="&#x13c;" horiz-adv-x="552" 
d="M387 -127l-176 -344h-135l104 344h207zM375 1548v-1548h-197v1548h197z" />
    <glyph glyph-name="Lcaron" unicode="&#x13d;" horiz-adv-x="1040" 
d="M764 1548l-86 -362h-115l27 362h174zM406 1430v-1254h598v-176h-807v1430h209z" />
    <glyph glyph-name="lcaron" unicode="&#x13e;" horiz-adv-x="552" 
d="M686 1548l-86 -362h-115l27 362h174zM375 1548v-1548h-197v1548h197z" />
    <glyph glyph-name="Ldot" unicode="&#x13f;" horiz-adv-x="1040" 
d="M922 915v-215h-217v215h217zM406 1430v-1254h598v-176h-807v1430h209z" />
    <glyph glyph-name="ldot" unicode="&#x140;" horiz-adv-x="804" 
d="M797 915v-215h-217v215h217zM375 1548v-1548h-197v1548h197z" />
    <glyph glyph-name="Lslash" unicode="&#x141;" horiz-adv-x="1040" 
d="M406 176h598v-176h-807v698l-144 -96v135l144 94v599h209v-476l225 150v-135l-225 -150v-643z" />
    <glyph glyph-name="lslash" unicode="&#x142;" horiz-adv-x="593" 
d="M395 1548v-504l144 115v-137l-144 -113v-909h-196v788l-144 -118v139l144 113v626h196z" />
    <glyph glyph-name="Nacute" unicode="&#x143;" horiz-adv-x="1523" 
d="M1073 1831l-252 -295h-139l170 295h221zM1133 676v754h194v-1430h-270l-502 926q-113 209 -166 336h-4q10 -147 10 -402v-860h-198v1430h307l481 -902q100 -193 156 -319h4q-12 201 -12 467z" />
    <glyph glyph-name="nacute" unicode="&#x144;" horiz-adv-x="1267" 
d="M944 1548l-266 -362h-135l186 362h215zM362 877h5q127 193 348 192q389 0 389 -471v-598h-195v516q0 237 -61 315t-180 76q-76 0 -143 -41q-67 -42 -111 -118t-45 -248v-500h-195v735q0 199 -10 309h190q8 -89 8 -167z" />
    <glyph glyph-name="Ncommaaccent" unicode="&#x145;" horiz-adv-x="1523" 
d="M891 -127l-176 -344h-135l104 344h207zM1133 676v754h194v-1430h-270l-502 926q-113 209 -166 336h-4q10 -147 10 -402v-860h-198v1430h307l481 -902q100 -193 156 -319h4q-12 201 -12 467z" />
    <glyph glyph-name="ncommaaccent" unicode="&#x146;" horiz-adv-x="1267" 
d="M758 -127l-176 -344h-136l105 344h207zM362 877h5q127 193 348 192q389 0 389 -471v-598h-195v516q0 237 -61 315t-180 76q-76 0 -143 -41q-67 -42 -111 -118t-45 -248v-500h-195v735q0 199 -10 309h190q8 -89 8 -167z" />
    <glyph glyph-name="Ncaron" unicode="&#x147;" horiz-adv-x="1523" 
d="M446 1831h168l148 -199l156 199h159l-223 -297h-192zM1133 676v754h194v-1430h-270l-502 926q-113 209 -166 336h-4q10 -147 10 -402v-860h-198v1430h307l481 -902q100 -193 156 -319h4q-12 201 -12 467z" />
    <glyph glyph-name="ncaron" unicode="&#x148;" horiz-adv-x="1267" 
d="M324 1548h168l147 -264l158 264h159l-225 -362h-192zM362 877h5q127 193 348 192q389 0 389 -471v-598h-195v516q0 237 -61 315t-180 76q-76 0 -143 -41q-67 -42 -111 -118t-45 -248v-500h-195v735q0 199 -10 309h190q8 -89 8 -167z" />
    <glyph glyph-name="Eng" unicode="&#x14a;" horiz-adv-x="1523" 
d="M1133 676v754h194v-1500q0 -180 -95 -292t-284 -113q-80 0 -131 12v170q37 -12 88 -12q125 1 176 67t52 238h-76l-502 926q-113 209 -166 336h-4q10 -147 10 -402v-860h-198v1430h307l481 -902q100 -193 156 -319h4q-12 201 -12 467z" />
    <glyph glyph-name="eng" unicode="&#x14b;" horiz-adv-x="1267" 
d="M362 877h5q127 193 348 192q389 0 389 -471v-659q0 -393 -322 -394q-43 0 -90 11v159q27 -4 56 -4q88 1 124 59t37 193v553q0 237 -61 315t-180 76q-76 0 -143 -41q-67 -42 -111 -118t-45 -248v-500h-195v735q0 199 -10 309h190q8 -89 8 -167z" />
    <glyph glyph-name="Omacron" unicode="&#x14c;" horiz-adv-x="1613" 
d="M1090 1743v-121h-566v121h566zM1278 719q0 259 -127 415t-340 156t-344 -158t-131 -416q0 -257 130 -415t341 -158t341 158t130 418zM115 715q0 339 192 539q193 200 507 200t500 -201t185 -537q0 -336 -187 -539q-186 -202 -502 -202t-506 201q-189 201 -189 539z" />
    <glyph glyph-name="omacron" unicode="&#x14d;" horiz-adv-x="1265" 
d="M915 1393v-121h-565v121h565zM633 907q-145 0 -238 -109q-92 -110 -92 -282t92 -275q93 -103 239 -103t239 104t93 276t-94 280t-239 109zM96 522q0 240 152 394t386 153q236 0 386 -156q150 -157 150 -397t-150 -390t-385 -151q-235 0 -387 153q-152 154 -152 394z" />
    <glyph glyph-name="Obreve" unicode="&#x14e;" horiz-adv-x="1613" 
d="M804 1565q-144 0 -229 77q-84 78 -92 213h105q35 -160 215 -160t223 160h102q-6 -131 -93 -211t-231 -79zM1278 719q0 259 -127 415t-340 156t-344 -158t-131 -416q0 -257 130 -415t341 -158t341 158t130 418zM115 715q0 339 192 539q193 200 507 200t500 -201t185 -537
q0 -336 -187 -539q-186 -202 -502 -202t-506 201q-189 201 -189 539z" />
    <glyph glyph-name="obreve" unicode="&#x14f;" horiz-adv-x="1265" 
d="M629 1157q-139 0 -226 96q-86 96 -94 254h111q16 -117 67 -169t144 -52q180 0 217 221h106q-8 -152 -97 -251t-228 -99zM633 907q-145 0 -238 -109q-92 -110 -92 -282t92 -275q93 -103 239 -103t239 104t93 276t-94 280t-239 109zM96 522q0 240 152 394t386 153
q236 0 386 -156q150 -157 150 -397t-150 -390t-385 -151q-235 0 -387 153q-152 154 -152 394z" />
    <glyph glyph-name="Ohungarumlaut" unicode="&#x150;" horiz-adv-x="1613" 
d="M1243 1839l-233 -303h-140l156 303h217zM918 1839l-201 -303h-135l129 303h207zM1278 719q0 259 -127 415t-340 156t-344 -158t-131 -416q0 -257 130 -415t341 -158t341 158t130 418zM115 715q0 339 192 539q193 200 507 200t500 -201t185 -537q0 -336 -187 -539
q-186 -202 -502 -202t-506 201q-189 201 -189 539z" />
    <glyph glyph-name="ohungarumlaut" unicode="&#x151;" horiz-adv-x="1265" 
d="M1094 1548l-263 -362h-133l185 362h211zM768 1548l-229 -362h-129l157 362h201zM633 907q-145 0 -238 -109q-92 -110 -92 -282t92 -275q93 -103 239 -103t239 104t93 276t-94 280t-239 109zM96 522q0 240 152 394t386 153q236 0 386 -156q150 -157 150 -397t-150 -390
t-385 -151q-235 0 -387 153q-152 154 -152 394z" />
    <glyph glyph-name="OE" unicode="&#x152;" horiz-adv-x="1937" 
d="M887 1253q-266 0 -418 -142t-152 -394q0 -251 159 -397t439 -146q51 0 93 6v1067q-59 6 -121 6zM1778 1430v-179h-568v-426h527v-172h-527v-477h584v-176h-547l-340 -8q-375 0 -590 188t-215 528t220 534t598 194l270 -6h588z" />
    <glyph glyph-name="oe" unicode="&#x153;" horiz-adv-x="1972" 
d="M1686 625q0 145 -72 221t-191 76t-201 -80t-94 -217h558zM946 519q0 173 -89 283t-233 109q-144 0 -233 -110q-88 -111 -88 -284t88 -277q87 -104 233 -104t234 104q88 106 88 279zM1486 143q168 0 314 86v-178q-137 -72 -340 -71q-295 0 -424 208q-133 -209 -413 -208
q-231 0 -379 150q-148 152 -148 392t146 394t401 153q254 0 389 -209q127 209 395 209q211 0 330 -130t119 -388q0 -31 -4 -76h-748q10 -156 102 -244t260 -88z" />
    <glyph glyph-name="Racute" unicode="&#x154;" horiz-adv-x="1280" 
d="M858 1831l-252 -295h-139l170 295h221zM406 1255v-444h98q395 0 395 227q0 129 -94 173t-301 44h-98zM197 0v1430h358q271 0 413 -88t142 -287q0 -268 -324 -334v-4q70 -25 115 -71t84 -126l242 -520h-232l-202 457q-49 111 -111 147t-215 35h-61v-639h-209z" />
    <glyph glyph-name="racute" unicode="&#x155;" horiz-adv-x="796" 
d="M735 1548l-266 -362h-135l186 362h215zM365 868h4q100 201 293 201q63 0 100 -14v-183q-39 16 -105 17q-135 0 -212 -109t-76 -307v-473h-195v735q0 199 -10 309h192q9 -72 9 -176z" />
    <glyph glyph-name="Rcommaaccent" unicode="&#x156;" horiz-adv-x="1280" 
d="M772 -127l-176 -344h-135l104 344h207zM406 1255v-444h98q395 0 395 227q0 129 -94 173t-301 44h-98zM197 0v1430h358q271 0 413 -88t142 -287q0 -268 -324 -334v-4q70 -25 115 -71t84 -126l242 -520h-232l-202 457q-49 111 -111 147t-215 35h-61v-639h-209z" />
    <glyph glyph-name="rcommaaccent" unicode="&#x157;" horiz-adv-x="796" 
d="M401 -127l-176 -344h-135l105 344h206zM365 868h4q100 201 293 201q63 0 100 -14v-183q-39 16 -105 17q-135 0 -212 -109t-76 -307v-473h-195v735q0 199 -10 309h192q9 -72 9 -176z" />
    <glyph glyph-name="Rcaron" unicode="&#x158;" horiz-adv-x="1280" 
d="M264 1831h168l148 -199l155 199h160l-223 -297h-193zM406 1255v-444h98q395 0 395 227q0 129 -94 173t-301 44h-98zM197 0v1430h358q271 0 413 -88t142 -287q0 -268 -324 -334v-4q70 -25 115 -71t84 -126l242 -520h-232l-202 457q-49 111 -111 147t-215 35h-61v-639h-209
z" />
    <glyph glyph-name="rcaron" unicode="&#x159;" horiz-adv-x="796" 
d="M115 1548h168l147 -264l158 264h160l-226 -362h-192zM365 868h4q100 201 293 201q63 0 100 -14v-183q-39 16 -105 17q-135 0 -212 -109t-76 -307v-473h-195v735q0 199 -10 309h192q9 -72 9 -176z" />
    <glyph glyph-name="Sacute" unicode="&#x15a;" horiz-adv-x="1032" 
d="M836 1831l-252 -295h-140l170 295h222zM574 1284q-120 0 -192 -56t-73 -138q1 -82 55 -138q54 -57 228 -134t257 -175t83 -242q0 -188 -135 -307t-336 -119t-350 62l22 190q156 -77 292 -77t216 62t80 162t-57 160t-236 140q-180 80 -254 170t-74 223q0 172 126 280
t331 107q164 0 303 -53l-26 -178q-140 61 -260 61z" />
    <glyph glyph-name="sacute" unicode="&#x15b;" horiz-adv-x="823" 
d="M733 1548l-266 -362h-135l186 362h215zM324 133q110 0 165 39t55 101q0 61 -44 101q-45 40 -175 102t-184 127q-53 65 -53 163q0 139 101 221t252 82t253 -43l-16 -162q-104 51 -202 51q-194 0 -193 -133q0 -59 42 -95q41 -36 167 -90t186 -127t61 -177q0 -152 -103 -235
q-103 -82 -265 -82t-291 51l14 174q120 -68 230 -68z" />
    <glyph glyph-name="Scircumflex" unicode="&#x15c;" horiz-adv-x="1032" 
d="M840 1536h-168l-148 199l-155 -199h-160l223 297h193zM574 1284q-120 0 -192 -56t-73 -138q1 -82 55 -138q54 -57 228 -134t257 -175t83 -242q0 -188 -135 -307t-336 -119t-350 62l22 190q156 -77 292 -77t216 62t80 162t-57 160t-236 140q-180 80 -254 170t-74 223
q0 172 126 280t331 107q164 0 303 -53l-26 -178q-140 61 -260 61z" />
    <glyph glyph-name="scircumflex" unicode="&#x15d;" horiz-adv-x="823" 
d="M729 1186h-168l-147 264l-158 -264h-160l226 362h192zM324 133q110 0 165 39t55 101q0 61 -44 101q-45 40 -175 102t-184 127q-53 65 -53 163q0 139 101 221t252 82t253 -43l-16 -162q-104 51 -202 51q-194 0 -193 -133q0 -59 42 -95q41 -36 167 -90t186 -127t61 -177
q0 -152 -103 -235q-103 -82 -265 -82t-291 51l14 174q120 -68 230 -68z" />
    <glyph glyph-name="Scedilla" unicode="&#x15e;" horiz-adv-x="1032" 
d="M574 1284q-120 0 -192 -56t-73 -138q1 -82 55 -138q54 -57 228 -134t257 -175t83 -258q0 -159 -120 -275t-314 -133l-19 -110q16 4 75 4t111 -39t52 -123t-69 -132q-70 -48 -152 -48t-142 12l11 84q47 -8 90 -8q125 0 125 86t-113 86q-37 0 -86 -12l20 200
q-158 6 -290 60l22 190q156 -77 292 -77t216 62t80 162t-57 160t-236 140q-180 80 -254 170t-74 223q0 172 126 280t331 107q164 0 303 -53l-26 -178q-140 61 -260 61z" />
    <glyph glyph-name="scedilla" unicode="&#x15f;" horiz-adv-x="823" 
d="M324 133q110 0 165 39t55 101q0 61 -44 101q-45 40 -175 102t-184 127q-53 65 -53 163q0 139 101 221t252 82t253 -43l-16 -162q-104 51 -202 51q-194 0 -193 -133q0 -59 42 -95q41 -36 167 -90t186 -127t61 -177q0 -141 -90 -223t-241 -93l-19 -110q17 4 75 4t110 -39
t52 -123t-68 -132q-70 -48 -152 -48t-142 12l10 84q47 -8 91 -8q125 0 124 88q0 84 -112 84q-37 0 -86 -12l20 200q-120 7 -231 50l14 174q120 -68 230 -68z" />
    <glyph glyph-name="Scaron" unicode="&#x160;" horiz-adv-x="1032" 
d="M197 1831h168l147 -199l156 199h159l-223 -297h-192zM574 1284q-120 0 -192 -56t-73 -138q1 -82 55 -138q54 -57 228 -134t257 -175t83 -242q0 -188 -135 -307t-336 -119t-350 62l22 190q156 -77 292 -77t216 62t80 162t-57 160t-236 140q-180 80 -254 170t-74 223
q0 172 126 280t331 107q164 0 303 -53l-26 -178q-140 61 -260 61z" />
    <glyph glyph-name="scaron" unicode="&#x161;" horiz-adv-x="823" 
d="M96 1548h168l148 -264l157 264h160l-225 -362h-193zM324 133q110 0 165 39t55 101q0 61 -44 101q-45 40 -175 102t-184 127q-53 65 -53 163q0 139 101 221t252 82t253 -43l-16 -162q-104 51 -202 51q-194 0 -193 -133q0 -59 42 -95q41 -36 167 -90t186 -127t61 -177
q0 -152 -103 -235q-103 -82 -265 -82t-291 51l14 174q120 -68 230 -68z" />
    <glyph glyph-name="uni0162" unicode="&#x162;" horiz-adv-x="1142" 
d="M692 -127l-176 -344h-135l104 344h207zM682 0h-209v1253l-444 -6v183h1085v-183l-432 6v-1253z" />
    <glyph glyph-name="uni0163" unicode="&#x163;" horiz-adv-x="792" 
d="M580 -127l-177 -344h-135l105 344h207zM446 1038h281v-153h-281v-459q0 -141 36 -211t145 -70q57 0 112 25l6 -154q-74 -29 -165 -28q-184 0 -255 99t-71 286v512h-240v153h240v246l192 66v-312z" />
    <glyph glyph-name="Tcaron" unicode="&#x164;" horiz-adv-x="1142" 
d="M256 1831h168l147 -199l156 199h160l-223 -297h-193zM682 0h-209v1253l-444 -6v183h1085v-183l-432 6v-1253z" />
    <glyph glyph-name="tcaron" unicode="&#x165;" horiz-adv-x="792" 
d="M799 1548l-86 -362h-115l27 362h174zM446 1038h281v-153h-281v-459q0 -141 36 -211t145 -70q57 0 112 25l6 -154q-74 -29 -165 -28q-184 0 -255 99t-71 286v512h-240v153h240v246l192 66v-312z" />
    <glyph glyph-name="Tbar" unicode="&#x166;" horiz-adv-x="1142" 
d="M682 0h-209v840h-252v116h252v297l-444 -6v183h1085v-183l-432 6v-297h252v-116h-252v-840z" />
    <glyph glyph-name="tbar" unicode="&#x167;" horiz-adv-x="792" 
d="M446 1038h281v-153h-281v-230h203v-104h-203v-125q0 -141 36 -211t145 -70q57 0 112 25l6 -154q-74 -29 -165 -28q-184 0 -255 99t-71 286v178h-186v104h186v230h-240v153h240v246l192 66v-312z" />
    <glyph glyph-name="Utilde" unicode="&#x168;" horiz-adv-x="1472" 
d="M909 1583q-53 0 -161 40t-144 40q-35 -1 -55 -21t-33 -71h-98q25 221 207 221q61 0 161 -39t129 -39q74 0 86 92h101q-25 -223 -193 -223zM1294 1430v-799q0 -305 -139 -480t-439 -175t-423 192q-111 173 -111 463v799h209v-779q0 -244 76 -376q75 -132 271 -132t272 131
t75 377v779h209z" />
    <glyph glyph-name="utilde" unicode="&#x169;" horiz-adv-x="1259" 
d="M784 1233q-54 0 -158 40t-139 40q-35 -1 -55 -21t-31 -71h-96q25 221 201 221q58 0 156 -39t126 -39q72 0 84 92h99q-25 -223 -187 -223zM901 166h-4q-119 -190 -360 -191q-174 0 -276 114q-101 114 -101 304v651h194v-516q0 -94 7 -154t31 -120q47 -117 191 -117
t226 108t82 261v538h194v-731q0 -225 11 -313h-187q-8 86 -8 166z" />
    <glyph glyph-name="Umacron" unicode="&#x16a;" horiz-adv-x="1472" 
d="M1018 1743v-121h-565v121h565zM1294 1430v-799q0 -305 -139 -480t-439 -175t-423 192q-111 173 -111 463v799h209v-779q0 -244 76 -376q75 -132 271 -132t272 131t75 377v779h209z" />
    <glyph glyph-name="umacron" unicode="&#x16b;" horiz-adv-x="1259" 
d="M918 1393v-121h-566v121h566zM901 166h-4q-119 -190 -360 -191q-174 0 -276 114q-101 114 -101 304v651h194v-516q0 -94 7 -154t31 -120q47 -117 191 -117t226 108t82 261v538h194v-731q0 -225 11 -313h-187q-8 86 -8 166z" />
    <glyph glyph-name="Ubreve" unicode="&#x16c;" horiz-adv-x="1472" 
d="M734 1565q-144 -1 -228 77t-92 213h104q35 -160 215 -160t223 160h103q-6 -131 -93 -211q-88 -80 -232 -79zM1294 1430v-799q0 -305 -139 -480t-439 -175t-423 192q-111 173 -111 463v799h209v-779q0 -244 76 -376q75 -132 271 -132t272 131t75 377v779h209z" />
    <glyph glyph-name="ubreve" unicode="&#x16d;" horiz-adv-x="1259" 
d="M627 1157q-139 0 -226 96q-86 96 -94 254h111q16 -117 67 -169t144 -52q180 0 217 221h106q-8 -152 -97 -251t-228 -99zM901 166h-4q-119 -190 -360 -191q-174 0 -276 114q-101 114 -101 304v651h194v-516q0 -94 7 -154t31 -120q47 -117 191 -117t226 108t82 261v538h194
v-731q0 -225 11 -313h-187q-8 86 -8 166z" />
    <glyph glyph-name="Uring" unicode="&#x16e;" horiz-adv-x="1472" 
d="M735 1833q-51 0 -87 -36t-36 -87t36 -87t88 -36t87 36t35 88t-36 87t-87 35zM737 1919q87 0 147 -61q60 -62 60 -148t-60 -146t-148 -60t-148 60q-62 60 -62 147t62 147t149 61zM1294 1430v-799q0 -305 -139 -480t-439 -175t-423 192q-111 173 -111 463v799h209v-779
q0 -244 76 -376q75 -132 271 -132t272 131t75 377v779h209z" />
    <glyph glyph-name="uring" unicode="&#x16f;" horiz-adv-x="1259" 
d="M629 1495q-51 0 -87 -36t-36 -86t36 -87t88 -37t87 36t35 88t-36 87t-87 35zM631 1581q86 0 146 -61q61 -62 61 -148t-60 -146t-148 -60q-86 0 -148 60t-62 147t62 148q63 60 149 60zM901 166h-4q-119 -190 -360 -191q-174 0 -276 114q-101 114 -101 304v651h194v-516
q0 -94 7 -154t31 -120q47 -117 191 -117t226 108t82 261v538h194v-731q0 -225 11 -313h-187q-8 86 -8 166z" />
    <glyph glyph-name="Uhungarumlaut" unicode="&#x170;" horiz-adv-x="1472" 
d="M1167 1839l-233 -303h-139l155 303h217zM842 1839l-201 -303h-135l129 303h207zM1294 1430v-799q0 -305 -139 -480t-439 -175t-423 192q-111 173 -111 463v799h209v-779q0 -244 76 -376q75 -132 271 -132t272 131t75 377v779h209z" />
    <glyph glyph-name="uhungarumlaut" unicode="&#x171;" horiz-adv-x="1259" 
d="M1081 1548l-262 -362h-133l184 362h211zM756 1548l-230 -362h-129l158 362h201zM901 166h-4q-119 -190 -360 -191q-174 0 -276 114q-101 114 -101 304v651h194v-516q0 -94 7 -154t31 -120q47 -117 191 -117t226 108t82 261v538h194v-731q0 -225 11 -313h-187
q-8 86 -8 166z" />
    <glyph glyph-name="Uogonek" unicode="&#x172;" horiz-adv-x="1472" 
d="M784 -240q0 -100 112 -100q54 0 108 31l14 -90q-68 -37 -162 -37t-155 42q-60 42 -60 114t33 128q33 57 114 129l-59 -2q-312 0 -436 193q-111 173 -111 463v799h209v-779q0 -244 76 -376q75 -132 271 -132t272 131t75 377v779h209v-799q0 -248 -91 -412t-279 -219
q-82 -88 -111 -140t-29 -100z" />
    <glyph glyph-name="uogonek" unicode="&#x173;" horiz-adv-x="1259" 
d="M901 166h-4q-119 -190 -360 -191q-174 0 -276 114q-101 114 -101 304v651h194v-516q0 -94 7 -154t31 -120q47 -117 191 -117t226 108t82 261v538h194v-731q0 -225 11 -313h-80q-82 -88 -110 -140t-28 -100t30 -74q28 -26 82 -26t108 31l14 -90q-68 -37 -162 -37t-154 42
t-60 117t37 134q38 59 136 143q-8 86 -8 166z" />
    <glyph glyph-name="Wcircumflex" unicode="&#x174;" horiz-adv-x="2109" 
d="M1370 1536h-168l-147 199l-156 -199h-160l224 297h192zM1378 0l-270 1036q-55 225 -57 242h-4q-18 -104 -54 -242l-266 -1036h-264l-434 1430h223l268 -959q45 -168 74 -311h4q23 115 74 311l237 959h295l244 -959q49 -199 72 -311h4q35 162 75 311l267 959h215
l-443 -1430h-260z" />
    <glyph glyph-name="wcircumflex" unicode="&#x175;" horiz-adv-x="1705" 
d="M1174 1186h-168l-148 264l-158 -264h-159l225 362h192zM584 0h-234l-332 1044h211l177 -632q8 -27 61 -256h4q18 74 70 254l198 634h240l197 -634q31 -102 67 -254h4q29 141 64 252l184 636h193l-338 -1044h-226l-206 672q-43 154 -60 231h-4q-16 -86 -61 -231z" />
    <glyph glyph-name="Ycircumflex" unicode="&#x176;" horiz-adv-x="1361" 
d="M995 1536h-168l-147 199l-156 -199h-159l223 297h192zM788 0h-206v600l-566 830h252l189 -289q127 -199 229 -365h4q86 147 228 365l184 289h246l-560 -826v-604z" />
    <glyph glyph-name="ycircumflex" unicode="&#x177;" horiz-adv-x="1019" 
d="M852 1186h-168l-147 264l-158 -264h-160l225 362h193zM186 -299q84 0 130 53t98 201l-396 1089h211l211 -632q41 -121 76 -254h4q41 143 78 254l213 632h197l-373 -1034q-97 -270 -187 -367t-247 -98q-63 0 -119 17l12 153q49 -14 92 -14z" />
    <glyph glyph-name="Ydieresis" unicode="&#x178;" horiz-adv-x="1361" 
d="M969 1804v-207h-187v207h187zM580 1804v-207h-189v207h189zM788 0h-206v600l-566 830h252l189 -289q127 -199 229 -365h4q86 147 228 365l184 289h246l-560 -826v-604z" />
    <glyph glyph-name="Zacute" unicode="&#x179;" horiz-adv-x="1146" 
d="M842 1831l-252 -295h-139l170 295h221zM1067 176v-176h-995v174q674 981 757 1081h-737v175h957v-191q-649 -936 -750 -1063h768z" />
    <glyph glyph-name="zacute" unicode="&#x17a;" horiz-adv-x="1032" 
d="M803 1548l-266 -362h-136l187 362h215zM934 156v-156h-854v168q563 670 620 725h-591v151h802v-170q-485 -578 -616 -718h639z" />
    <glyph glyph-name="Zdotaccent" unicode="&#x17b;" horiz-adv-x="1146" 
d="M682 1798v-215h-217v215h217zM1067 176v-176h-995v174q674 981 757 1081h-737v175h957v-191q-649 -936 -750 -1063h768z" />
    <glyph glyph-name="zdotaccent" unicode="&#x17c;" horiz-adv-x="1032" 
d="M629 1448v-215h-217v215h217zM934 156v-156h-854v168q563 670 620 725h-591v151h802v-170q-485 -578 -616 -718h639z" />
    <glyph glyph-name="Zcaron" unicode="&#x17d;" horiz-adv-x="1146" 
d="M258 1831h168l147 -199l156 199h160l-223 -297h-193zM1067 176v-176h-995v174q674 981 757 1081h-737v175h957v-191q-649 -936 -750 -1063h768z" />
    <glyph glyph-name="zcaron" unicode="&#x17e;" horiz-adv-x="1032" 
d="M207 1548h168l147 -264l158 264h160l-226 -362h-192zM934 156v-156h-854v168q563 670 620 725h-591v151h802v-170q-485 -578 -616 -718h639z" />
    <glyph glyph-name="florin" unicode="&#x192;" 
d="M244 692v123h243l19 94q30 139 58 231q68 220 193 279q71 35 151 35t157 -16l-25 -166q-51 10 -82 10q-108 -2 -152 -90t-89 -320l-12 -57h247v-123h-272l-113 -577q-29 -139 -57 -231q-68 -219 -189 -279q-69 -35 -145 -35t-151 16l24 166q51 -10 85 -10q70 0 122 68
q49 63 100 342l107 540h-219z" />
    <glyph glyph-name="Scommaaccent" unicode="&#x218;" horiz-adv-x="1032" 
d="M629 -127l-176 -344h-136l105 344h207zM574 1284q-120 0 -192 -56t-73 -138q1 -82 55 -138q54 -57 228 -134t257 -175t83 -242q0 -188 -135 -307t-336 -119t-350 62l22 190q156 -77 292 -77t216 62t80 162t-57 160t-236 140q-180 80 -254 170t-74 223q0 172 126 280
t331 107q164 0 303 -53l-26 -178q-140 61 -260 61z" />
    <glyph glyph-name="scommaaccent" unicode="&#x219;" horiz-adv-x="823" 
d="M535 -127l-177 -344h-135l105 344h207zM324 133q110 0 165 39t55 101q0 61 -44 101q-45 40 -175 102t-184 127q-53 65 -53 163q0 139 101 221t252 82t253 -43l-16 -162q-104 51 -202 51q-194 0 -193 -133q0 -59 42 -95q41 -36 167 -90t186 -127t61 -177q0 -152 -103 -235
q-103 -82 -265 -82t-291 51l14 174q120 -68 230 -68z" />
    <glyph glyph-name="uni021A" unicode="&#x21a;" horiz-adv-x="1142" 
d="M692 -127l-176 -344h-135l104 344h207zM682 0h-209v1253l-444 -6v183h1085v-183l-432 6v-1253z" />
    <glyph glyph-name="uni021B" unicode="&#x21b;" horiz-adv-x="792" 
d="M580 -127l-177 -344h-135l105 344h207zM446 1038h281v-153h-281v-459q0 -141 36 -211t145 -70q57 0 112 25l6 -154q-74 -29 -165 -28q-184 0 -255 99t-71 286v512h-240v153h240v246l192 66v-312z" />
    <glyph glyph-name="dotlessj" unicode="&#x237;" horiz-adv-x="561" 
d="M379 1044v-1105q0 -393 -324 -394q-43 0 -90 11v159q27 -4 55 -4q88 1 125 59t37 193v1081h197z" />
    <glyph glyph-name="circumflex" unicode="&#x2c6;" horiz-adv-x="1024" 
d="M827 1186h-168l-147 264l-158 -264h-159l225 362h192z" />
    <glyph glyph-name="caron" unicode="&#x2c7;" horiz-adv-x="1024" 
d="M193 1548h167l148 -264l158 264h159l-225 -362h-192z" />
    <glyph glyph-name="uni02C9" unicode="&#x2c9;" horiz-adv-x="1024" 
d="M795 1393v-121h-566v121h566z" />
    <glyph glyph-name="breve" unicode="&#x2d8;" horiz-adv-x="1024" 
d="M508 1157q-139 0 -225 96t-95 254h111q15 -117 67 -169t144 -52q180 0 217 221h107q-8 -152 -98 -251t-228 -99z" />
    <glyph glyph-name="dotaccent" unicode="&#x2d9;" horiz-adv-x="1024" 
d="M631 1448v-215h-217v215h217z" />
    <glyph glyph-name="ring" unicode="&#x2da;" horiz-adv-x="1024" 
d="M506 1495q-51 0 -87 -36t-36 -86t36 -87t88 -37t87 36t35 88t-36 87t-87 35zM508 1581q86 0 146 -61q60 -62 60 -148t-60 -146t-147 -60t-149 60t-61 147q0 87 62 148q63 60 149 60z" />
    <glyph glyph-name="ogonek" unicode="&#x2db;" horiz-adv-x="1024" 
d="M479 -240q0 -100 112 -100q54 0 107 31l15 -90q-68 -37 -162 -37t-155 42q-60 42 -60 118t43 140t156 156h102q-94 -100 -126 -155t-32 -105z" />
    <glyph glyph-name="tilde" unicode="&#x2dc;" horiz-adv-x="1024" 
d="M653 1233q-53 0 -157 40t-140 40q-35 -1 -55 -21t-31 -71h-96q25 221 201 221q59 0 157 -39t125 -39q72 0 84 92h99q-25 -223 -187 -223z" />
    <glyph glyph-name="hungarumlaut" unicode="&#x2dd;" horiz-adv-x="1024" 
d="M936 1548l-262 -362h-133l184 362h211zM610 1548l-229 -362h-129l158 362h200z" />
    <glyph glyph-name="uni0374" unicode="&#x374;" horiz-adv-x="561" 
d="M446 1503l-172 -491h-159l125 491h206z" />
    <glyph glyph-name="uni0375" unicode="&#x375;" horiz-adv-x="561" 
d="M438 223l-172 -491h-160l125 491h207z" />
    <glyph glyph-name="uni037E" unicode="&#x37e;" horiz-adv-x="573" 
d="M412 229l-179 -503h-165l129 503h215zM401 1051v-230h-229v230h229z" />
    <glyph glyph-name="tonos" unicode="&#x384;" horiz-adv-x="1126" 
d="M446 1552l-165 -381h-113l65 381h213z" />
    <glyph glyph-name="dieresistonos" unicode="&#x385;" horiz-adv-x="1024" 
d="M633 1552l-121 -381h-100l39 381h182zM862 1442v-207h-166v207h166zM311 1442v-207h-168v207h168z" />
    <glyph glyph-name="Alphatonos" unicode="&#x386;" horiz-adv-x="1488" 
d="M426 1430l-166 -381h-113l66 381h213zM1016 526l-187 469q-51 125 -94 260h-4q-29 -88 -94 -260l-180 -469h559zM846 1430l618 -1430h-229l-150 360h-692l-147 -360h-221l608 1430h213z" />
    <glyph glyph-name="anoteleia" unicode="&#x387;" horiz-adv-x="573" 
d="M401 1051v-230h-229v230h229z" />
    <glyph glyph-name="Epsilontonos" unicode="&#x388;" horiz-adv-x="1392" 
d="M279 1430l-166 -381h-113l66 381h213zM1249 176v-176h-811v1430h795v-175h-588v-430h547v-172h-547v-477h604z" />
    <glyph glyph-name="Etatonos" unicode="&#x389;" horiz-adv-x="1736" 
d="M279 1430l-166 -381h-113l66 381h213zM1540 1430v-1430h-207v653h-686v-653h-209v1430h209v-601h686v601h207z" />
    <glyph glyph-name="Iotatonos" unicode="&#x38a;" horiz-adv-x="823" 
d="M279 1430l-166 -381h-113l66 381h213zM627 1430v-1430h-209v1430h209z" />
    <glyph glyph-name="Omicrontonos" unicode="&#x38c;" horiz-adv-x="1753" 
d="M279 1430l-166 -381h-113l66 381h213zM1417 719q0 259 -127 415t-340 156t-344 -158t-131 -416q0 -257 130 -415t341 -158t341 158t130 418zM254 715q0 339 192 539t508 200q314 0 499 -201t185 -537t-187 -539q-187 -202 -503 -202t-505 201t-189 539z" />
    <glyph glyph-name="Upsilontonos" unicode="&#x38e;" horiz-adv-x="1746" 
d="M279 1430l-166 -381h-113l66 381h213zM1174 0h-207v600l-566 830h252l189 -289q127 -199 229 -365h4q86 147 228 365l184 289h246l-559 -826v-604z" />
    <glyph glyph-name="Omegatonos" unicode="&#x38f;" horiz-adv-x="1744" 
d="M1622 0h-596v160q340 307 340 626q0 240 -125 372t-321 132t-319 -134q-122 -134 -122 -372q0 -319 338 -624v-160h-596v184h90q182 0 267 -8l2 4q-170 164 -247 314t-77 331q0 291 194 460t477 169t471 -171t187 -449q0 -184 -77 -339t-244 -315l2 -4q84 8 286 8h70
v-184zM279 1430l-166 -381h-113l66 381h213z" />
    <glyph glyph-name="iotadieresistonos" unicode="&#x390;" horiz-adv-x="628" 
d="M449 1552l-121 -381h-101l39 381h183zM678 1442v-207h-166v207h166zM127 1442v-207h-168v207h168zM367 1044v-774q0 -125 118 -125q59 0 121 25l6 -152q-68 -31 -180 -30q-262 0 -262 282v774h197z" />
    <glyph glyph-name="Alpha" unicode="&#x391;" horiz-adv-x="1488" 
d="M1016 526l-187 469q-51 125 -94 260h-4q-29 -88 -94 -260l-180 -469h559zM846 1430l618 -1430h-229l-150 360h-692l-147 -360h-221l608 1430h213z" />
    <glyph glyph-name="Beta" unicode="&#x392;" horiz-adv-x="1261" 
d="M393 655v-491h154q188 0 279 58q92 58 92 186t-102 188q-102 59 -316 59h-107zM393 1264v-447h111q286 0 353 105q30 47 30 120q0 121 -89 171t-255 51h-150zM197 0v1430h372q254 0 388 -92t135 -271q0 -131 -82 -216t-232 -114v-4q158 -18 251 -108t93 -232
q0 -203 -152 -298t-386 -95h-387z" />
    <glyph glyph-name="Gamma" unicode="&#x393;" horiz-adv-x="1089" 
d="M408 0h-211v1430h864v-181l-653 4v-1253z" />
    <glyph glyph-name="uni0394" unicode="&#x394;" horiz-adv-x="1548" 
d="M633 946l-344 -762h948l-336 762q-102 227 -129 324h-4q-31 -91 -135 -324zM1454 0h-1360v184l555 1246h244l561 -1246v-184z" />
    <glyph glyph-name="Epsilon" unicode="&#x395;" horiz-adv-x="1150" 
d="M1008 176v-176h-811v1430h794v-175h-588v-430h547v-172h-547v-477h605z" />
    <glyph glyph-name="Zeta" unicode="&#x396;" horiz-adv-x="1146" 
d="M1067 176v-176h-995v174q674 981 757 1081h-737v175h957v-191q-649 -936 -750 -1063h768z" />
    <glyph glyph-name="Eta" unicode="&#x397;" horiz-adv-x="1495" 
d="M1298 1430v-1430h-206v653h-686v-653h-209v1430h209v-601h686v601h206z" />
    <glyph glyph-name="Theta" unicode="&#x398;" horiz-adv-x="1613" 
d="M1167 647h-731v174h731v-174zM1278 719q0 259 -127 415t-340 156t-344 -158t-131 -416q0 -257 130 -415t341 -158t341 158t130 418zM115 715q0 339 192 539q193 200 507 200t500 -201t185 -537q0 -336 -187 -539q-186 -202 -502 -202t-506 201q-189 201 -189 539z" />
    <glyph glyph-name="Iota" unicode="&#x399;" horiz-adv-x="602" 
d="M406 1430v-1430h-209v1430h209z" />
    <glyph glyph-name="Kappa" unicode="&#x39a;" horiz-adv-x="1372" 
d="M399 715v-715h-202v1430h202v-644h4q127 141 273 293l336 351h276l-684 -672l742 -758h-297l-426 463q-68 74 -220 252h-4z" />
    <glyph glyph-name="Lambda" unicode="&#x39b;" horiz-adv-x="1488" 
d="M1229 0l-400 989q-51 125 -94 260h-4q-29 -88 -94 -260l-385 -989h-227l608 1430h213l618 -1430h-235z" />
    <glyph glyph-name="Mu" unicode="&#x39c;" horiz-adv-x="1953" 
d="M1757 1430v-1430h-198v946q0 229 4 338h-4q-53 -152 -101 -278l-383 -1006h-198l-379 983q-63 162 -105 301h-4q4 -109 4 -338v-946h-196v1430h338l348 -918q59 -158 100 -305h4q49 166 103 305l337 918h330z" />
    <glyph glyph-name="Nu" unicode="&#x39d;" horiz-adv-x="1523" 
d="M1133 676v754h194v-1430h-270l-502 926q-113 209 -166 336h-4q10 -147 10 -402v-860h-198v1430h307l481 -902q100 -193 156 -319h4q-12 201 -12 467z" />
    <glyph glyph-name="Xi" unicode="&#x39e;" horiz-adv-x="1138" 
d="M950 672h-764v174h764v-174zM1049 1255h-957v175h957v-175zM72 176h995v-176h-995v176z" />
    <glyph glyph-name="Omicron" unicode="&#x39f;" horiz-adv-x="1613" 
d="M1278 719q0 259 -127 415t-340 156t-344 -158t-131 -416q0 -257 130 -415t341 -158t341 158t130 418zM115 715q0 339 192 539q193 200 507 200t500 -201t185 -537q0 -336 -187 -539q-186 -202 -502 -202t-506 201q-189 201 -189 539z" />
    <glyph glyph-name="Pi" unicode="&#x3a0;" horiz-adv-x="1495" 
d="M1298 1430v-1430h-206v1253h-686v-1253h-209v1430h1101z" />
    <glyph glyph-name="Rho" unicode="&#x3a1;" horiz-adv-x="1169" 
d="M406 1255v-510h102q201 1 295 55t94 198t-96 200t-295 57h-100zM197 1430h329q262 0 410 -83q168 -94 168 -346q0 -430 -578 -430h-120v-571h-209v1430z" />
    <glyph glyph-name="Sigma" unicode="&#x3a3;" horiz-adv-x="1144" 
d="M1049 1255h-740q59 -49 213 -207t256 -278v-41q-126 -156 -276 -328t-203 -225h766v-176h-993v174l497 565l-477 500v191h957v-175z" />
    <glyph glyph-name="Tau" unicode="&#x3a4;" horiz-adv-x="1142" 
d="M682 0h-209v1253l-444 -6v183h1085v-183l-432 6v-1253z" />
    <glyph glyph-name="Upsilon" unicode="&#x3a5;" horiz-adv-x="1361" 
d="M788 0h-206v600l-566 830h252l189 -289q127 -199 229 -365h4q86 147 228 365l184 289h246l-560 -826v-604z" />
    <glyph glyph-name="Phi" unicode="&#x3a6;" horiz-adv-x="1556" 
d="M877 1579v-137q237 -4 401 -155t164 -416t-154 -425t-411 -176v-270h-193v270q-246 0 -408 162t-161 434q0 180 85 314q160 251 484 262v137h193zM334 865q0 -199 96 -309t252 -120v848q-147 0 -248 -109q-100 -110 -100 -310zM1221 870q1 197 -101 302t-243 112v-848
q160 6 252 122t92 312z" />
    <glyph glyph-name="Chi" unicode="&#x3a7;" horiz-adv-x="1378" 
d="M694 864q70 115 148 232l223 334h233l-481 -685l539 -745h-260l-258 373q-70 98 -158 245q-102 -162 -160 -245l-252 -373h-245l536 745l-498 685h248l234 -334q83 -119 151 -232z" />
    <glyph glyph-name="Psi" unicode="&#x3a8;" horiz-adv-x="1409" 
d="M1307 1430v-406q0 -532 -506 -563v-461h-193v463q-270 23 -388 167t-118 394v406h207v-386q0 -190 69 -286t230 -117v789h193v-789q169 19 233 115t64 286v388h209z" />
    <glyph glyph-name="uni03A9" unicode="&#x3a9;" horiz-adv-x="1646" 
d="M1524 0h-596v160q340 307 340 626q0 240 -125 372t-322 132t-319 -134t-121 -372q0 -319 338 -624v-160h-596v184h90q182 0 266 -8l2 4q-170 164 -247 314t-76 331q0 291 193 460t477 169t471 -171t188 -449q0 -184 -77 -339t-245 -315l2 -4q84 8 287 8h70v-184z" />
    <glyph glyph-name="Iotadieresis" unicode="&#x3aa;" horiz-adv-x="602" 
d="M608 1804v-207h-186v207h186zM219 1804v-207h-188v207h188zM406 1430v-1430h-209v1430h209z" />
    <glyph glyph-name="Upsilondieresis" unicode="&#x3ab;" horiz-adv-x="1361" 
d="M983 1804v-207h-186v207h186zM594 1804v-207h-188v207h188zM788 0h-206v600l-566 830h252l189 -289q127 -199 229 -365h4q86 147 228 365l184 289h246l-560 -826v-604z" />
    <glyph glyph-name="alphatonos" unicode="&#x3ac;" horiz-adv-x="1255" 
d="M795 1552l-166 -381h-113l66 381h213zM887 520q0 166 -87 276t-210 111q-123 0 -201 -102q-78 -101 -78 -281t74 -283t203 -103t214 107q85 109 85 275zM889 877q0 61 12 167h178q-6 -68 -6 -159v-613q1 -68 17 -92q28 -41 106 -14l8 -162q-46 -16 -114 -16
q-151 0 -189 209h-4q-39 -90 -127 -156t-219 -66q-209 1 -328 147t-119 393t125 401t330 153q125 0 207 -54t119 -138h4z" />
    <glyph glyph-name="epsilontonos" unicode="&#x3ad;" horiz-adv-x="995" 
d="M774 1552l-166 -381h-112l65 381h213zM535 477q-240 0 -240 -170q0 -84 75 -126t189 -42q209 0 361 105l8 -181q-141 -88 -355 -88t-344 76q-129 76 -129 230q0 119 67 189t183 87v4q-217 41 -217 225q0 127 111 205t306 78t318 -61l-12 -172q-123 72 -299 71
q-229 0 -229 -143q0 -55 55 -93t155 -38t162 4v-164q-73 4 -165 4z" />
    <glyph glyph-name="etatonos" unicode="&#x3ae;" horiz-adv-x="1267" 
d="M897 1552l-166 -381h-113l66 381h213zM362 877h5q127 193 348 192q389 0 389 -471v-1028h-195v946q0 237 -61 315t-180 76q-76 0 -143 -41q-67 -42 -111 -118t-45 -248v-500h-195v735q0 199 -10 309h190q8 -89 8 -167z" />
    <glyph glyph-name="iotatonos" unicode="&#x3af;" horiz-adv-x="628" 
d="M487 1552l-165 -381h-113l65 381h213zM367 1044v-774q0 -125 118 -125q59 0 121 25l6 -152q-68 -31 -180 -30q-262 0 -262 282v774h197z" />
    <glyph glyph-name="upsilondieresistonos" unicode="&#x3b0;" horiz-adv-x="1171" 
d="M694 1552l-121 -381h-100l39 381h182zM924 1442v-207h-166v207h166zM373 1442v-207h-168v207h168zM1055 506q0 -384 -233 -487q-99 -44 -244 -44q-418 0 -418 437v632h194v-565q0 -176 56 -259t178 -83q199 0 248 156q26 83 26 262q0 180 -78 489h193q78 -283 78 -538z
" />
    <glyph glyph-name="alpha" unicode="&#x3b1;" horiz-adv-x="1255" 
d="M887 520q0 166 -87 276t-210 111q-123 0 -201 -102q-78 -101 -78 -281t74 -283t203 -103t214 107q85 109 85 275zM889 877q0 61 12 167h178q-6 -68 -6 -159v-613q1 -68 17 -92q28 -41 106 -14l8 -162q-46 -16 -114 -16q-151 0 -189 209h-4q-39 -90 -127 -156t-219 -66
q-209 1 -328 147t-119 393t125 401t330 153q125 0 207 -54t119 -138h4z" />
    <glyph glyph-name="beta" unicode="&#x3b2;" horiz-adv-x="1241" 
d="M367 975v-461q0 -188 94 -282t212 -95q117 0 193 78t76 222q0 143 -104 233t-308 90h-45v160h31q344 0 344 266q0 96 -57 155t-164 60q-147 1 -209 -105t-63 -321zM367 -47v-383h-193v1425q0 265 119 413t346 148q186 0 299 -99t113 -267q0 -129 -71 -215t-192 -117v-4
q166 -31 262 -145q95 -115 95 -269q0 -209 -113 -337t-323 -128q-123 1 -214 53t-133 150h-4q2 -24 3 -66t3 -92t3 -67z" />
    <glyph glyph-name="gamma" unicode="&#x3b3;" horiz-adv-x="1069" 
d="M639 -430h-195q-8 385 -32 524q-55 324 -168 583t-228 367h220q106 -109 203 -384t98 -467h4q6 188 104 456t201 395h219q-119 -131 -227 -386t-162 -570q-29 -164 -37 -518z" />
    <glyph glyph-name="delta" unicode="&#x3b4;" horiz-adv-x="1202" 
d="M607 137q130 1 209 111t79 268t-76 270q-76 111 -205 160q-160 -45 -226 -162q-66 -118 -66 -270t78 -264t207 -113zM291 1284q0 131 106 202q105 70 267 70t292 -49l-12 -172q-122 59 -284 59t-162 -116q0 -43 34 -81q34 -37 68 -59q35 -22 111 -63q174 -92 280 -220
t107 -323q0 -248 -129 -402t-363 -155q-234 0 -362 152t-129 399q0 186 106 318t273 182v4q-78 36 -140 104t-63 150z" />
    <glyph glyph-name="epsilon" unicode="&#x3b5;" horiz-adv-x="995" 
d="M535 477q-240 0 -240 -170q0 -84 75 -126t189 -42q209 0 361 105l8 -181q-141 -88 -355 -88t-344 76q-129 76 -129 230q0 119 67 189t183 87v4q-217 41 -217 225q0 127 111 205t306 78t318 -61l-12 -172q-123 72 -299 71q-229 0 -229 -143q0 -55 55 -93t155 -38t162 4
v-164q-73 4 -165 4z" />
    <glyph glyph-name="zeta" unicode="&#x3b6;" horiz-adv-x="991" 
d="M588 1397h-348v151h741v-168q-289 -145 -459 -353t-170 -445q0 -146 60 -226t199 -128q140 -48 204 -95q65 -47 89 -99t24 -124q0 -127 -92 -205t-224 -78q-51 0 -94 11v157q23 -4 77 -4t97 32t43 87t-43 85t-139 56q-201 57 -304 172t-104 340q0 502 629 834v4
q-90 -4 -186 -4z" />
    <glyph glyph-name="eta" unicode="&#x3b7;" horiz-adv-x="1267" 
d="M362 877h5q127 193 348 192q389 0 389 -471v-1028h-195v946q0 237 -61 315t-180 76q-76 0 -143 -41q-67 -42 -111 -118t-45 -248v-500h-195v735q0 199 -10 309h190q8 -89 8 -167z" />
    <glyph glyph-name="theta" unicode="&#x3b8;" horiz-adv-x="1239" 
d="M632 1397q-139 0 -211 -112q-59 -92 -81 -274q-8 -75 -12 -167h587q-12 244 -51 354q-39 111 -97 155t-135 44zM831 250q61 96 76 273q6 71 8 165h-589q8 -245 61 -385q63 -166 219 -166t225 113zM626 1556q142 0 244 -70t154 -194q99 -233 98 -547q0 -387 -148 -598
q-54 -75 -144 -123t-216 -48t-228 64q-177 114 -238 403q-61 290 -6 592q100 521 484 521z" />
    <glyph glyph-name="iota" unicode="&#x3b9;" horiz-adv-x="628" 
d="M367 1044v-774q0 -125 118 -125q59 0 121 25l6 -152q-68 -31 -180 -30q-262 0 -262 282v774h197z" />
    <glyph glyph-name="kappa" unicode="&#x3ba;" horiz-adv-x="1126" 
d="M373 524v-524h-199v1044h199v-473h4q96 111 213 238l213 235h258l-492 -481l549 -563h-264l-276 293q-113 115 -201 231h-4z" />
    <glyph glyph-name="lambda" unicode="&#x3bb;" horiz-adv-x="1163" 
d="M257 1403q-81 0 -142 -31l-15 158q64 26 148 26q145 -1 237 -75q68 -57 126 -215q19 -53 51 -152l274 -874q18 -58 41 -76q45 -35 115 -10l8 -150q-47 -16 -105 -16q-180 0 -237 194q-164 563 -180 633h-5q1 -2 -67 -176l-256 -639h-201l455 1004q-80 252 -123 326
t-124 73z" />
    <glyph glyph-name="uni03BC" unicode="&#x3bc;" horiz-adv-x="1349" 
d="M369 -430h-195v1474h195v-516q0 -172 34 -274q40 -117 181 -117t231 124t90 306v477h195v-782q0 -53 15 -79q23 -40 108 -17l8 -162q-43 -16 -123 -16t-126 47t-54 162h-4q-137 -221 -371 -222q-104 0 -188 45l-7 -4q10 -139 11 -299v-147z" />
    <glyph glyph-name="nu" unicode="&#x3bd;" horiz-adv-x="1036" 
d="M811 1044h195q-52 -258 -158 -546t-225 -498h-228l-377 1044h211l207 -643q47 -147 76 -247h4q98 174 178 424t117 466z" />
    <glyph glyph-name="xi" unicode="&#x3be;" horiz-adv-x="886" 
d="M96 490q0 176 102 269t244 107v4q-126 27 -204 104t-78 208q0 164 134 269t316 105t267 -43l-13 -172q-96 53 -232 53t-210 -62t-74 -166t89 -166q89 -60 249 -60h113v-152h-107q-162 0 -278 -66t-115 -216q0 -117 79 -188q78 -70 224 -116t204 -118t58 -190t-90 -192
q-90 -75 -225 -75q-47 0 -96 13v153q35 -6 55 -6q76 0 119 33t43 85t-33 81t-119 53q-422 121 -422 451z" />
    <glyph glyph-name="omicron" unicode="&#x3bf;" horiz-adv-x="1265" 
d="M633 907q-145 0 -238 -109q-92 -110 -92 -282t92 -275q93 -103 239 -103t239 104t93 276t-94 280t-239 109zM96 522q0 240 152 394t386 153q236 0 386 -156q150 -157 150 -397t-150 -390t-385 -151q-235 0 -387 153q-152 154 -152 394z" />
    <glyph glyph-name="pi" unicode="&#x3c0;" horiz-adv-x="1357" 
d="M1100 -12q-158 0 -231 77t-72 248v557h-297l-94 -870h-185l121 870h-254v177h1174v-177h-291v-538q0 -92 36 -133t128 -41q40 0 65 6l10 -164q-43 -12 -110 -12z" />
    <glyph glyph-name="rho" unicode="&#x3c1;" horiz-adv-x="1255" 
d="M356 538q0 -184 86 -292t217 -109q133 -1 215 105t82 277t-77 280q-78 109 -211 109q-132 0 -222 -94q-90 -92 -90 -276zM682 -25q-228 0 -328 201h-2q6 -104 6 -221v-385h-194v952q0 227 124 387t375 160t373 -153t123 -388q0 -235 -124 -394q-125 -159 -353 -159z" />
    <glyph glyph-name="sigma1" unicode="&#x3c2;" horiz-adv-x="989" 
d="M303 532q0 -122 77 -192t242 -125q166 -55 236 -129t70 -182q0 -144 -133 -226t-277 -38v155q92 -10 155 22q62 32 62 83q0 50 -32 78t-132 58q-199 60 -323 161q-152 120 -152 346q0 225 146 376t395 150q166 0 305 -59l-12 -185q-124 72 -282 74t-252 -102t-93 -265z
" />
    <glyph glyph-name="sigma" unicode="&#x3c3;" horiz-adv-x="1253" 
d="M1102 506q0 -215 -132 -373t-362 -158q-230 1 -363 149q-132 148 -132 393t146 386t437 141h482v-153h-84q-115 0 -189 4v-4q85 -53 141 -157t56 -228zM678 891q-156 0 -257 -85q-101 -84 -101 -272t72 -292q73 -104 217 -104t218 106t74 268q0 246 -164 379h-59z" />
    <glyph glyph-name="tau" unicode="&#x3c4;" horiz-adv-x="985" 
d="M14 1044h942v-153h-405v-512q0 -233 174 -234q57 0 119 25l6 -154q-76 -29 -186 -28q-305 0 -306 362v541h-344v153z" />
    <glyph glyph-name="upsilon" unicode="&#x3c5;" horiz-adv-x="1171" 
d="M1055 506q0 -384 -233 -487q-99 -44 -244 -44q-418 0 -418 437v632h194v-565q0 -176 56 -259t178 -83q199 0 248 156q26 83 26 262q0 180 -78 489h193q78 -283 78 -538z" />
    <glyph glyph-name="phi" unicode="&#x3c6;" horiz-adv-x="1439" 
d="M1139 524q0 184 -92 283q-92 100 -234 106v-782q141 13 233 111t93 282zM301 525q0 -181 92 -278t234 -116v787q-129 -6 -227 -109t-99 -284zM627 1350h186v-281q185 -4 350 -132q80 -63 130 -169t50 -244t-46 -244q-46 -108 -126 -169q-159 -121 -358 -131v-410h-186
v410q-178 13 -295 88q-236 145 -236 464q0 132 50 238t130 168q162 126 351 131v281z" />
    <glyph glyph-name="chi" unicode="&#x3c7;" horiz-adv-x="1134" 
d="M571 428q25 59 134 301l149 315h225l-379 -718l410 -756h-236l-163 332q-133 274 -148 309q-55 -129 -145 -309l-166 -332h-234l420 760l-387 714h234l151 -315q59 -121 135 -301z" />
    <glyph glyph-name="psi" unicode="&#x3c8;" horiz-adv-x="1376" 
d="M793 1350v-1221q181 16 241 140q49 101 49 283q0 181 -79 492h196q76 -315 76 -530t-116 -368t-367 -166v-410h-187v412q-215 12 -332 136t-116 341v585h192v-585q0 -139 72 -227t184 -101v1219h187z" />
    <glyph glyph-name="omega" unicode="&#x3c9;" horiz-adv-x="1581" 
d="M1485 536q0 -228 -89 -393q-89 -166 -317 -168q-117 -1 -191 61t-97 171h-5q-45 -231 -301 -232q-106 -1 -184 47t-121 130q-82 156 -84 374q0 130 35 274t92 244h207q-63 -98 -102 -250t-39 -274q0 -389 223 -389q182 0 182 303v377h193v-377q0 -303 186 -303
q219 0 219 389q0 116 -40 270t-93 254h203q55 -100 89 -245t34 -263z" />
    <glyph glyph-name="iotadieresis" unicode="&#x3ca;" horiz-adv-x="628" 
d="M561 1442v-207h-186v207h186zM172 1442v-207h-188v207h188zM367 1044v-774q0 -125 118 -125q59 0 121 25l6 -152q-68 -31 -180 -30q-262 0 -262 282v774h197z" />
    <glyph glyph-name="upsilondieresis" unicode="&#x3cb;" horiz-adv-x="1171" 
d="M862 1442v-207h-186v207h186zM473 1442v-207h-188v207h188zM1055 506q0 -384 -233 -487q-99 -44 -244 -44q-418 0 -418 437v632h194v-565q0 -176 56 -259t178 -83q199 0 248 156q26 83 26 262q0 180 -78 489h193q78 -283 78 -538z" />
    <glyph glyph-name="omicrontonos" unicode="&#x3cc;" horiz-adv-x="1253" 
d="M860 1552l-166 -381h-112l65 381h213zM633 907q-145 0 -238 -109q-92 -110 -92 -282t92 -275q93 -103 239 -103t239 104t93 276t-94 280t-239 109zM96 522q0 240 152 394t386 153q236 0 386 -156q150 -157 150 -397t-150 -390t-385 -151q-235 0 -387 153
q-152 154 -152 394z" />
    <glyph glyph-name="upsilontonos" unicode="&#x3cd;" horiz-adv-x="1171" 
d="M784 1552l-166 -381h-112l65 381h213zM1055 506q0 -384 -233 -487q-99 -44 -244 -44q-418 0 -418 437v632h194v-565q0 -176 56 -259t178 -83q199 0 248 156q26 83 26 262q0 180 -78 489h193q78 -283 78 -538z" />
    <glyph glyph-name="omegatonos" unicode="&#x3ce;" horiz-adv-x="1581" 
d="M999 1552l-165 -381h-113l65 381h213zM1485 536q0 -228 -89 -393q-89 -166 -317 -168q-117 -1 -191 61t-97 171h-5q-45 -231 -301 -232q-106 -1 -184 47t-121 130q-82 156 -84 374q0 130 35 274t92 244h207q-63 -98 -102 -250t-39 -274q0 -389 223 -389q182 0 182 303
v377h193v-377q0 -303 186 -303q219 0 219 389q0 116 -40 270t-93 254h203q55 -100 89 -245t34 -263z" />
    <glyph glyph-name="uni0400" unicode="&#x400;" horiz-adv-x="1150" 
d="M319 1831h222l168 -295h-142zM197 0v1430h794v-175h-588v-430h547v-172h-547v-477h605v-176h-811z" />
    <glyph glyph-name="uni0401" unicode="&#x401;" horiz-adv-x="1150" 
d="M891 1804v-207h-186v207h186zM502 1804v-207h-189v207h189zM197 0v1430h794v-175h-588v-430h547v-172h-547v-477h605v-176h-811z" />
    <glyph glyph-name="uni0402" unicode="&#x402;" horiz-adv-x="1628" 
d="M1071 -25q-145 0 -268 41l12 179q90 -43 222 -43t215 78t83 222t-86 221q-87 77 -227 77t-243 -100t-103 -249v-401h-209v1255h-438v175h1085v-175h-438v-544q57 90 168 142t229 52q209 0 346 -122t137 -308q0 -236 -131 -368t-354 -132z" />
    <glyph glyph-name="uni0403" unicode="&#x403;" horiz-adv-x="1013" 
d="M856 1831l-252 -295h-139l170 295h221zM197 0v1430h788v-175h-579v-1255h-209z" />
    <glyph glyph-name="uni0404" unicode="&#x404;" horiz-adv-x="1261" 
d="M887 -14q-362 0 -572 192q-209 192 -209 526t207 537t512 203q203 0 369 -55l-18 -187q-127 72 -330 72t-342 -126t-172 -323h653v-168h-657q20 -223 176 -359t383 -136q166 0 303 61l14 -186q-122 -51 -317 -51z" />
    <glyph glyph-name="uni0405" unicode="&#x405;" horiz-adv-x="1032" 
d="M932 401q0 -188 -136 -307t-336 -119t-349 62l22 190q156 -77 292 -77t216 62t80 162t-57 160t-236 140q-180 80 -254 170t-74 223q0 172 126 280t331 107q164 0 303 -53l-26 -178q-140 61 -260 61t-192 -56t-73 -138q1 -82 55 -138q54 -57 228 -134t257 -175t83 -242z
" />
    <glyph glyph-name="uni0406" unicode="&#x406;" horiz-adv-x="602" 
d="M197 0v1430h209v-1430h-209z" />
    <glyph glyph-name="uni0407" unicode="&#x407;" horiz-adv-x="602" 
d="M590 1804v-207h-187v207h187zM201 1804v-207h-189v207h189zM197 0v1430h209v-1430h-209z" />
    <glyph glyph-name="uni0408" unicode="&#x408;" horiz-adv-x="798" 
d="M227 -25q-106 0 -182 27v178q66 -27 137 -26q125 0 176 63t52 223v990h206v-1049q0 -180 -97 -293t-292 -113z" />
    <glyph glyph-name="uni0409" unicode="&#x409;" horiz-adv-x="2080" 
d="M1300 176h205q299 0 299 270q0 252 -307 252h-197v-522zM178 -14q-102 0 -168 28l13 172q49 -20 127 -20q156 0 201 264q46 264 48 1000h901v-576h207q242 0 375 -109t133 -311q0 -434 -536 -434h-387v1255h-490q0 -628 -43 -855t-120 -311q-42 -47 -101 -75
q-58 -28 -160 -28z" />
    <glyph glyph-name="uni040A" unicode="&#x40a;" horiz-adv-x="2078" 
d="M1298 176h215q289 0 289 260q0 244 -297 244h-207v-504zM197 0v1430h209v-576h684v576h208v-576h207q242 0 375 -109t133 -311q0 -434 -536 -434h-387v680h-684v-680h-209z" />
    <glyph glyph-name="uni040B" unicode="&#x40b;" horiz-adv-x="1648" 
d="M467 0v1255h-438v175h1085v-175h-438v-419q43 14 145 29q211 31 358 0q196 -39 261 -199q39 -96 39 -242v-424h-207v412q0 162 -72 228t-244 67q-72 1 -158 -13t-122 -26v-668h-209z" />
    <glyph glyph-name="uni040C" unicode="&#x40c;" horiz-adv-x="1372" 
d="M979 1831l-252 -295h-139l170 295h221zM399 715v-715h-202v1430h202v-644h4q127 141 273 293l336 351h276l-684 -672l742 -758h-297l-426 463q-68 74 -220 252h-4z" />
    <glyph glyph-name="uni040D" unicode="&#x40d;" horiz-adv-x="1531" 
d="M463 1831h221l168 -295h-141zM197 0v1430h206v-750q0 -256 -12 -410h4l703 1160h237v-1430h-207v750q0 256 13 409h-4l-707 -1159h-233z" />
    <glyph glyph-name="uni040E" unicode="&#x40e;" horiz-adv-x="1349" 
d="M692 1556q-80 0 -139 26q-120 53 -182 235l104 43q69 -156 219 -156t215 156l107 -43q-62 -183 -183 -235q-61 -26 -141 -26zM360 -12q-92 0 -165 16l14 166q49 -14 125 -14t132 57t120 182l-570 1035h234l442 -824l418 824h223l-567 -1100q-94 -182 -182 -262t-224 -80z
" />
    <glyph glyph-name="uni040F" unicode="&#x40f;" horiz-adv-x="1476" 
d="M639 -340v340h-442v1430h209v-1254h665v1254h209v-1430h-444v-340h-197z" />
    <glyph glyph-name="uni0410" unicode="&#x410;" horiz-adv-x="1488" 
d="M457 526h559l-187 469q-51 125 -94 260h-4q-29 -88 -94 -260zM25 0l608 1430h213l618 -1430h-229l-150 360h-692l-147 -360h-221z" />
    <glyph glyph-name="uni0411" unicode="&#x411;" horiz-adv-x="1259" 
d="M406 176h204q148 0 224 62t75 204q0 248 -307 248h-196v-514zM197 0v1430h815v-175h-606v-401h206q242 0 375 -109t133 -311q0 -434 -536 -434h-387z" />
    <glyph glyph-name="uni0412" unicode="&#x412;" horiz-adv-x="1261" 
d="M393 817h111q286 0 353 105q30 47 30 120q0 121 -89 171t-255 51h-150v-447zM393 164h154q188 0 279 58q92 58 92 186t-102 188q-102 59 -316 59h-107v-491zM197 0v1430h372q254 0 388 -92t135 -271q0 -131 -82 -216t-232 -114v-4q158 -18 251 -108t93 -232
q0 -203 -152 -298t-386 -95h-387z" />
    <glyph glyph-name="uni0413" unicode="&#x413;" horiz-adv-x="1013" 
d="M197 0v1430h788v-175h-579v-1255h-209z" />
    <glyph glyph-name="uni0414" unicode="&#x414;" horiz-adv-x="1499" 
d="M1057 176v1079h-512v-315q-1 -477 -189 -764h701zM18 -340v516h111q217 295 217 830v424h922v-1254h184v-516h-195v340h-1044v-340h-195z" />
    <glyph glyph-name="uni0415" unicode="&#x415;" horiz-adv-x="1150" 
d="M197 0v1430h794v-175h-588v-430h547v-172h-547v-477h605v-176h-811z" />
    <glyph glyph-name="uni0416" unicode="&#x416;" horiz-adv-x="1990" 
d="M899 0v733h-4q-133 -176 -219 -280l-375 -453h-272l665 758l-594 672h252l297 -357q11 -15 61 -75t100 -121t85 -107h4v660h195v-660h4q44 57 138 172q95 116 107 131l297 357h252l-594 -672l666 -758h-272l-375 453q-88 104 -219 280h-4v-733h-195z" />
    <glyph glyph-name="uni0417" unicode="&#x417;" horiz-adv-x="1099" 
d="M729 1075q1 207 -317 207q-148 0 -291 -70l-23 174q196 64 386 64t320 -90t130 -277q0 -125 -76 -207t-211 -120v-4q139 -14 226 -116t88 -249q-1 -195 -149 -303t-380 -109q-232 0 -371 58l15 190q127 -74 332 -73q141 0 241 60q101 60 101 212t-137 198
q-103 35 -234 35l-88 -2v170q11 -2 71 -2q129 0 236 46q59 26 95 79t36 129z" />
    <glyph glyph-name="uni0418" unicode="&#x418;" horiz-adv-x="1531" 
d="M197 0v1430h206v-750q0 -256 -12 -410h4l703 1160h237v-1430h-207v750q0 256 13 409h-4l-707 -1159h-233z" />
    <glyph glyph-name="uni0419" unicode="&#x419;" horiz-adv-x="1531" 
d="M756 1556q-159 0 -236 100q-52 68 -86 161l105 43q69 -156 219 -156t215 156l106 -43q-62 -183 -183 -235q-60 -26 -140 -26zM197 0v1430h206v-750q0 -256 -12 -410h4l703 1160h237v-1430h-207v750q0 256 13 409h-4l-707 -1159h-233z" />
    <glyph glyph-name="uni041A" unicode="&#x41a;" horiz-adv-x="1372" 
d="M399 715v-715h-202v1430h202v-644h4q127 141 273 293l336 351h276l-684 -672l742 -758h-297l-426 463q-68 74 -220 252h-4z" />
    <glyph glyph-name="uni041B" unicode="&#x41b;" horiz-adv-x="1499" 
d="M178 -14q-102 0 -168 28l13 172q49 -20 129 -20q156 0 201 264q46 264 48 1000h902v-1430h-209v1255h-490q0 -628 -43 -855t-120 -311q-42 -47 -101 -75q-60 -28 -162 -28z" />
    <glyph glyph-name="uni041C" unicode="&#x41c;" horiz-adv-x="1953" 
d="M197 0v1430h338l348 -918q59 -158 100 -305h4q49 166 103 305l337 918h330v-1430h-198v946q0 229 4 338h-4q-53 -152 -101 -278l-383 -1006h-198l-379 983q-63 162 -105 301h-4q4 -109 4 -338v-946h-196z" />
    <glyph glyph-name="uni041D" unicode="&#x41d;" horiz-adv-x="1495" 
d="M197 0v1430h209v-601h684v601h208v-1430h-208v653h-684v-653h-209z" />
    <glyph glyph-name="uni041E" unicode="&#x41e;" horiz-adv-x="1613" 
d="M807 143q211 0 341 158t130 418t-127 416q-127 155 -340 155t-344 -158t-131 -416q0 -257 130 -415t341 -158zM115 715q1 339 193 539t506 200t500 -201t185 -537q1 -336 -187 -539q-188 -202 -503 -202t-505 201q-189 201 -189 539z" />
    <glyph glyph-name="uni041F" unicode="&#x41f;" horiz-adv-x="1476" 
d="M197 0v1430h1083v-1430h-209v1255h-665v-1255h-209z" />
    <glyph glyph-name="uni0420" unicode="&#x420;" horiz-adv-x="1169" 
d="M406 745h102q201 1 295 55t94 198t-96 200t-295 57h-100v-510zM197 0v1430h329q262 0 410 -83q168 -94 168 -346q0 -430 -578 -430h-120v-571h-209z" />
    <glyph glyph-name="uni0421" unicode="&#x421;" horiz-adv-x="1255" 
d="M881 -14q-348 0 -562 193q-213 195 -213 527t216 535t544 203q195 0 322 -55l-19 -193q-127 72 -303 72q-240 0 -392 -153t-150 -397q0 -244 156 -398q156 -152 401 -152q164 0 303 61l14 -192q-122 -51 -317 -51z" />
    <glyph glyph-name="uni0422" unicode="&#x422;" horiz-adv-x="1142" 
d="M467 0v1255h-438v175h1085v-175h-438v-1255h-209z" />
    <glyph glyph-name="uni0423" unicode="&#x423;" horiz-adv-x="1349" 
d="M360 -12q-92 0 -165 16l14 166q49 -14 125 -14t132 57t120 182l-570 1035h234l442 -824l418 824h223l-567 -1100q-94 -182 -182 -262t-224 -80z" />
    <glyph glyph-name="uni0424" unicode="&#x424;" horiz-adv-x="1695" 
d="M1395 736q0 204 -117 318t-324 113v-868q205 2 323 118q118 115 118 319zM745 1167q-207 1 -323 -113t-117 -318t117 -320t323 -117v868zM745 -20v161q-313 0 -487 164t-174 433t178 431q176 156 483 156v129h209v-129q307 0 484 -156q178 -162 178 -431t-174 -433
t-488 -164v-161h-209z" />
    <glyph glyph-name="uni0425" unicode="&#x425;" horiz-adv-x="1378" 
d="M23 0l536 745l-498 685h248l234 -334q84 -119 151 -232q70 115 148 232l223 334h233l-481 -685l539 -745h-260l-258 373q-70 98 -158 245q-102 -162 -160 -245l-252 -373h-245z" />
    <glyph glyph-name="uni0426" unicode="&#x426;" horiz-adv-x="1515" 
d="M1272 -340v340h-1075v1430h211v-1254h663v1254h209v-1254h188v-516h-196z" />
    <glyph glyph-name="uni0427" unicode="&#x427;" horiz-adv-x="1372" 
d="M967 0v594q-43 -14 -145 -30t-193 -15q-191 0 -314 75q-151 90 -151 382v424h207v-406q-1 -162 71 -228t244 -67q72 0 159 13t122 26v662h209v-1430h-209z" />
    <glyph glyph-name="uni0428" unicode="&#x428;" horiz-adv-x="2181" 
d="M197 0v1430h209v-1254h579v1254h209v-1254h582v1254h209v-1430h-1788z" />
    <glyph glyph-name="uni0429" unicode="&#x429;" horiz-adv-x="2215" 
d="M1976 -340v340h-1779v1430h209v-1254h579v1254h209v-1254h582v1254h209v-1254h184v-516h-193z" />
    <glyph glyph-name="uni042A" unicode="&#x42a;" horiz-adv-x="1372" 
d="M592 176h205q147 0 223 62t76 204q0 244 -308 244h-196v-510zM383 0v1255h-356v175h565v-572h207q239 0 373 -110t135 -314q0 -434 -537 -434h-387z" />
    <glyph glyph-name="uni042B" unicode="&#x42b;" horiz-adv-x="1748" 
d="M1343 0v1430h209v-1430h-209zM406 176h204q148 0 224 62t75 204q0 244 -307 244h-196v-510zM197 0v1430h209v-572h206q240 0 374 -110t134 -314q0 -434 -536 -434h-387z" />
    <glyph glyph-name="uni042C" unicode="&#x42c;" horiz-adv-x="1185" 
d="M406 176h204q148 0 224 62t75 202q0 246 -307 246h-196v-510zM197 0v1430h209v-572h206q240 0 374 -110t134 -314q0 -434 -536 -434h-387z" />
    <glyph glyph-name="uni042D" unicode="&#x42d;" horiz-adv-x="1261" 
d="M375 -14q-195 0 -318 51l15 186q139 -61 303 -61q229 0 385 135t174 360h-658v168h654q-29 203 -164 326q-134 123 -332 123t-348 -70l-18 185q166 55 354 55q332 0 532 -201t201 -537q0 -336 -209 -528t-571 -192z" />
    <glyph glyph-name="uni042E" unicode="&#x42e;" horiz-adv-x="2070" 
d="M1305 147q199 -1 315 147t115 406t-103 422q-102 166 -304 166t-320 -156t-117 -408q-1 -253 107 -415t307 -162zM1956 716q0 -342 -175 -540q-175 -196 -467 -196t-460 180t-182 493h-266v-653h-209v1430h209v-601h270q31 283 204 452t431 169q295 0 470 -196t175 -538z
" />
    <glyph glyph-name="uni042F" unicode="&#x42f;" horiz-adv-x="1265" 
d="M657 766h203v491h-184q-328 0 -328 -241q0 -250 309 -250zM137 1022q0 192 139 300t420 108h373v-1430h-209v594h-147l-398 -594h-268l445 614q-166 35 -261 126q-94 91 -94 282z" />
    <glyph glyph-name="uni0430" unicode="&#x430;" horiz-adv-x="1146" 
d="M303 301q1 -76 55 -120t143 -44t157 41t103 111q34 70 34 209q-45 4 -107 4q-385 0 -385 -201zM809 77q0 44 4 101h-4q-110 -192 -348 -192q-166 0 -265 86q-100 86 -100 240t142 241q142 88 407 88q76 0 148 -6v8q0 266 -267 266q-162 0 -303 -100l-12 172
q145 88 355 88t312 -112t101 -302l-4 -340q0 -201 12 -315h-174q-4 33 -4 77z" />
    <glyph glyph-name="uni0431" unicode="&#x431;" horiz-adv-x="1255" 
d="M643 133q141 -1 226 103t85 285t-81 279t-229 99q-148 0 -236 -103q-88 -104 -88 -284t90 -280q92 -100 233 -99zM659 1051q219 1 359 -147t141 -391q-1 -243 -143 -391t-388 -147q-246 0 -382 169q-135 169 -135 447t42 467t169 302q82 74 192 105t255 39q145 9 208 14
t129 24l-12 -182q-74 -18 -192 -26q-118 -7 -196 -14q-205 -18 -312 -113q-62 -56 -92 -147t-40 -239h4q38 86 140 158t253 72z" />
    <glyph glyph-name="uni0432" unicode="&#x432;" horiz-adv-x="1146" 
d="M367 621h264q201 0 200 143q0 135 -198 135h-266v-278zM367 150h266q104 0 161 45q56 45 56 124q0 154 -227 154h-256v-323zM174 0v1044h504q152 0 251 -59t99 -194q0 -188 -201 -240v-4q99 -15 161 -79t63 -165q0 -303 -402 -303h-475z" />
    <glyph glyph-name="uni0433" unicode="&#x433;" horiz-adv-x="880" 
d="M174 0v1044h692v-153h-497v-891h-195z" />
    <glyph glyph-name="uni0434" unicode="&#x434;" horiz-adv-x="1251" 
d="M868 156v735h-403v-168q-1 -188 -25 -322t-96 -245h524zM20 -299v455h117q82 129 113 253t31 353v282h782v-888h147v-455h-178v299h-833v-299h-179z" />
    <glyph glyph-name="uni0435" unicode="&#x435;" horiz-adv-x="1138" 
d="M852 625q0 145 -72 221t-190 76t-200 -80q-81 -80 -93 -217h555zM643 -25q-260 -1 -403 147q-144 148 -144 401t137 399t355 147q218 0 336 -130q119 -130 118 -388q0 -31 -4 -76h-745q6 -158 104 -247t256 -89t308 78l6 -178q-140 -64 -324 -64z" />
    <glyph glyph-name="uni0436" unicode="&#x436;" horiz-adv-x="1607" 
d="M707 553v491h194v-491h4q33 43 213 250l213 241h238l-459 -481l489 -563h-247l-252 299q-121 141 -195 244h-4v-543h-194v543h-5q-73 -101 -194 -244l-252 -299h-248l490 563l-459 481h237l213 -241q180 -207 213 -250h5z" />
    <glyph glyph-name="uni0437" unicode="&#x437;" horiz-adv-x="950" 
d="M410 -25q-198 0 -347 60l13 172q127 -74 313 -74q119 0 190 46t71 133q-2 163 -250 163q-116 0 -121 -2v154q10 -2 100 -2q250 0 250 157q0 133 -213 133q-139 0 -312 -79l-12 163q174 70 359 70q381 0 380 -258q0 -90 -61 -158t-164 -92v-4q112 -16 180 -81t68 -173
q0 -160 -123 -244t-321 -84z" />
    <glyph glyph-name="uni0438" unicode="&#x438;" horiz-adv-x="1288" 
d="M174 0v1044h191v-514q0 -197 -13 -290h6l545 804h211v-1044h-190v514q0 195 12 291h-6l-543 -805h-213z" />
    <glyph glyph-name="uni0439" unicode="&#x439;" horiz-adv-x="1288" 
d="M174 0v1044h191v-514q0 -197 -13 -290h6l545 804h211v-1044h-190v514q0 195 12 291h-6l-543 -805h-213zM651 1194q-150 0 -225 94q-51 66 -82 154l100 41q66 -147 207 -147t207 147l100 -41q-57 -175 -174 -223q-57 -25 -133 -25z" />
    <glyph glyph-name="uni043A" unicode="&#x43a;" horiz-adv-x="1126" 
d="M373 524v-524h-199v1044h199v-473h4q96 111 213 238l213 235h258l-492 -481l549 -563h-264l-276 293q-113 115 -201 231h-4z" />
    <glyph glyph-name="uni043B" unicode="&#x43b;" horiz-adv-x="1251" 
d="M120 150q72 0 114 84t60 270q18 188 17 540h766v-1044h-194v891h-389q0 -494 -56 -664q-23 -70 -59 -129q-70 -112 -232 -112q-81 0 -131 14l9 160q23 -10 95 -10z" />
    <glyph glyph-name="uni043C" unicode="&#x43c;" horiz-adv-x="1548" 
d="M174 0v1044h293l309 -843l309 843h289v-1044h-188v606q0 137 12 281h-4l-338 -887h-164l-338 887h-4q12 -160 12 -281v-606h-188z" />
    <glyph glyph-name="uni043D" unicode="&#x43d;" horiz-adv-x="1265" 
d="M174 0v1044h195v-415h528v415h195v-1044h-195v475h-528v-475h-195z" />
    <glyph glyph-name="uni043E" unicode="&#x43e;" horiz-adv-x="1265" 
d="M301 516q0 -172 92 -276q93 -104 239 -103t239 105t93 276t-94 281t-239 109t-238 -110q-92 -110 -92 -282zM636 -25q-236 0 -388 153q-152 154 -152 394t152 394t387 153q235 0 385 -156q150 -157 150 -397t-150 -390q-148 -150 -384 -151z" />
    <glyph glyph-name="uni043F" unicode="&#x43f;" horiz-adv-x="1255" 
d="M174 0v1044h907v-1044h-194v891h-518v-891h-195z" />
    <glyph glyph-name="uni0440" unicode="&#x440;" horiz-adv-x="1265" 
d="M967 526q0 168 -80 274t-211 107q-131 -1 -220 -113t-89 -272t89 -272t219 -113q130 0 211 111q81 110 81 278zM174 -430v1165q0 199 -10 309h186q8 -86 8 -167h4q121 193 359 192q201 0 325 -146t124 -391t-126 -401q-125 -156 -327 -156q-117 -1 -209 55t-141 146h-5
q6 -61 7 -258v-348h-195z" />
    <glyph glyph-name="uni0441" unicode="&#x441;" horiz-adv-x="931" 
d="M629 -14q-240 0 -386 147q-147 147 -147 387t150 390t395 149q127 0 221 -39l-12 -172q-86 43 -195 43q-158 0 -255 -100q-97 -101 -97 -265t96 -268t252 -104q113 0 217 51l17 -174q-109 -45 -256 -45z" />
    <glyph glyph-name="uni0442" unicode="&#x442;" horiz-adv-x="931" 
d="M369 0v891h-349v153h891v-153h-348v-891h-194z" />
    <glyph glyph-name="uni0443" unicode="&#x443;" horiz-adv-x="1019" 
d="M201 -455q-63 0 -119 17l12 153q49 -14 92 -14q84 0 130 53t98 201l-396 1089h211l211 -632q41 -121 76 -254h4q41 143 78 254l213 632h197l-373 -1034q-98 -270 -187 -368t-247 -97z" />
    <glyph glyph-name="uni0444" unicode="&#x444;" horiz-adv-x="1648" 
d="M1102 135q90 1 148 61t79 142q20 82 21 182q0 219 -102 328q-58 61 -158 61t-168 -102v-567q65 -105 180 -105zM547 135q115 0 180 105v567q-68 102 -168 102q-101 0 -159 -61q-58 -60 -80 -144t-21 -184q0 -100 20 -182t79 -142t149 -61zM727 -430v510
q-90 -102 -240 -103q-184 0 -287 152q-104 153 -104 395t100 392t296 149q143 0 235 -104v546h195v-546q92 104 235 104q197 0 296 -150q99 -151 99 -393t-103 -394t-288 -151q-150 0 -239 103v-510h-195z" />
    <glyph glyph-name="uni0445" unicode="&#x445;" horiz-adv-x="1032" 
d="M20 0l377 549l-348 495h238l125 -204q88 -145 112 -195q37 74 111 195l123 204h217l-336 -495l369 -549h-234l-137 225q-84 131 -125 213q-27 -49 -125 -213l-137 -225h-230z" />
    <glyph glyph-name="uni0446" unicode="&#x446;" horiz-adv-x="1267" 
d="M1047 -299v299h-873v1044h195v-888h518v888h194v-888h146v-455h-180z" />
    <glyph glyph-name="uni0447" unicode="&#x447;" horiz-adv-x="1140" 
d="M772 0v414q-129 -45 -304 -45t-260 83t-85 253v339h188v-301q1 -125 55 -173t173 -48q53 0 130 14t103 23v485h195v-1044h-195z" />
    <glyph glyph-name="uni0448" unicode="&#x448;" horiz-adv-x="1765" 
d="M174 0v1044h195v-888h417v888h195v-888h418v888h192v-1044h-1417z" />
    <glyph glyph-name="uni0449" unicode="&#x449;" horiz-adv-x="1781" 
d="M1563 -299v299h-1389v1044h195v-888h417v888h195v-888h418v888h192v-888h150v-455h-178z" />
    <glyph glyph-name="uni044A" unicode="&#x44a;" horiz-adv-x="1220" 
d="M502 154h239q213 0 213 176q0 164 -221 164h-231v-340zM307 0v891h-289v153h484v-401h264q178 0 286 -77t107 -234q0 -332 -416 -332h-436z" />
    <glyph glyph-name="uni044B" unicode="&#x44b;" horiz-adv-x="1546" 
d="M369 154h239q213 0 213 176q0 164 -221 164h-231v-340zM174 0v1044h195v-401h264q178 0 286 -77t107 -234q0 -332 -416 -332h-436zM1180 0v1044h192v-1044h-192z" />
    <glyph glyph-name="uni044C" unicode="&#x44c;" horiz-adv-x="1107" 
d="M369 154h260q213 0 213 176q0 164 -221 164h-252v-340zM174 0v1044h195v-401h284q178 0 286 -77t108 -234q0 -332 -416 -332h-457z" />
    <glyph glyph-name="uni044D" unicode="&#x44d;" horiz-adv-x="960" 
d="M322 -25q-160 0 -275 45l16 168q115 -53 251 -53t235 90q98 90 113 252h-453v150h444q-27 129 -119 208t-226 79t-226 -44l-12 158q104 41 249 41q246 0 396 -153q149 -154 149 -398t-147 -394t-395 -149z" />
    <glyph glyph-name="uni044E" unicode="&#x44e;" horiz-adv-x="1665" 
d="M770 516q0 -174 80 -276t216 -103q136 1 217 105t81 277t-82 281t-217 108t-215 -110q-80 -108 -80 -282zM1083 1069q207 0 347 -156q140 -157 139 -397t-141 -390t-354 -151t-354 139t-155 361h-196v-475h-195v1044h195v-415h204q31 199 167 319t343 121z" />
    <glyph glyph-name="uni044F" unicode="&#x44f;" horiz-adv-x="1138" 
d="M528 551h242v346h-227q-123 0 -181 -41t-57 -133q0 -172 223 -172zM102 725q0 160 106 240t296 79h461v-1044h-195v401h-215l-303 -401h-234l332 416q-248 57 -248 309z" />
    <glyph glyph-name="uni0450" unicode="&#x450;" horiz-adv-x="1138" 
d="M555 1186l-266 362h215l186 -362h-135zM852 625q0 145 -72 221t-190 76t-200 -80q-81 -80 -93 -217h555zM643 -25q-260 -1 -403 147q-144 148 -144 401t137 399t355 147q218 0 336 -130q119 -130 118 -388q0 -31 -4 -76h-745q6 -158 104 -247t256 -89t308 78l6 -178
q-140 -64 -324 -64z" />
    <glyph glyph-name="uni0451" unicode="&#x451;" horiz-adv-x="1138" 
d="M879 1442v-207h-187v207h187zM489 1442v-207h-188v207h188zM852 625q0 145 -72 221t-190 76t-200 -80q-81 -80 -93 -217h555zM643 -25q-260 -1 -403 147q-144 148 -144 401t137 399t355 147q218 0 336 -130q119 -130 118 -388q0 -31 -4 -76h-745q6 -158 104 -247t256 -89
t308 78l6 -178q-140 -64 -324 -64z" />
    <glyph glyph-name="uni0452" unicode="&#x452;" horiz-adv-x="1271" 
d="M780 -455q-92 0 -166 29l7 162q55 -25 112 -25q109 0 145 69t35 210v526q0 234 -62 314q-62 79 -181 77q-162 1 -252 -157q-44 -78 -45 -250v-500h-195v1198h-194v154h194v196h195v-196h385v-154h-385v-51q0 -188 -6 -270h4q123 193 346 192q391 0 391 -471v-661
q0 -392 -328 -392z" />
    <glyph glyph-name="uni0453" unicode="&#x453;" horiz-adv-x="880" 
d="M764 1548l-266 -362h-136l187 362h215zM174 0v1044h692v-153h-497v-891h-195z" />
    <glyph glyph-name="uni0454" unicode="&#x454;" horiz-adv-x="960" 
d="M639 -25q-248 0 -395 150q-148 151 -148 395t150 396t395 153q145 0 250 -41l-12 -160q-91 43 -225 43q-134 1 -225 -77t-118 -207h451v-150h-459q15 -162 111 -251t232 -89t251 53l16 -170q-114 -45 -274 -45z" />
    <glyph glyph-name="uni0455" unicode="&#x455;" horiz-adv-x="823" 
d="M739 293q1 -152 -103 -235t-266 -83t-290 52l14 174q120 -68 230 -68t165 39t55 101q0 61 -44 101q-45 40 -175 102t-184 127q-53 65 -53 163q0 139 101 221t252 82t253 -43l-16 -162q-104 51 -202 51q-194 0 -193 -133q0 -59 42 -95q41 -36 167 -90t186 -127t61 -177z
" />
    <glyph glyph-name="uni0456" unicode="&#x456;" horiz-adv-x="561" 
d="M172 1233v215h217v-215h-217zM182 0v1044h197v-1044h-197z" />
    <glyph glyph-name="uni0457" unicode="&#x457;" horiz-adv-x="561" 
d="M569 1442v-207h-186v207h186zM180 1442v-207h-188v207h188zM379 1044v-1044h-197v1044h197z" />
    <glyph glyph-name="uni0458" unicode="&#x458;" horiz-adv-x="561" 
d="M172 1233v215h217v-215h-217zM55 -455q-43 0 -90 11v159q27 -4 55 -4q88 1 125 59t37 193v1081h197v-1105q0 -394 -324 -394z" />
    <glyph glyph-name="uni0459" unicode="&#x459;" horiz-adv-x="1816" 
d="M1077 154h260q213 0 213 176q0 164 -221 164h-252v-340zM120 150q72 0 114 84t60 270q18 188 17 540h766v-401h285q178 0 286 -77t107 -234q0 -332 -416 -332h-456v891h-389q0 -494 -56 -664q-23 -70 -59 -129q-70 -112 -232 -112q-81 0 -131 14l9 160q23 -10 95 -10z
" />
    <glyph glyph-name="uni045A" unicode="&#x45a;" horiz-adv-x="1830" 
d="M1092 154h260q213 0 213 176q0 164 -222 164h-251v-340zM174 0v1044h195v-401h528v401h195v-401h284q393 0 393 -311q0 -332 -415 -332h-457v494h-528v-494h-195z" />
    <glyph glyph-name="uni045B" unicode="&#x45b;" horiz-adv-x="1271" 
d="M178 0v1198h-194v154h194v196h195v-196h385v-154h-385v-51q0 -188 -6 -270h4q123 193 346 192q391 0 391 -471v-598h-195v516q0 234 -62 314q-62 79 -181 77q-162 1 -252 -157q-44 -78 -45 -250v-500h-195z" />
    <glyph glyph-name="uni045C" unicode="&#x45c;" horiz-adv-x="1126" 
d="M887 1548l-266 -362h-136l187 362h215zM373 524v-524h-199v1044h199v-473h4q96 111 213 238l213 235h258l-492 -481l549 -563h-264l-276 293q-113 115 -201 231h-4z" />
    <glyph glyph-name="uni045D" unicode="&#x45d;" horiz-adv-x="1288" 
d="M627 1186l-267 362h215l187 -362h-135zM174 0v1044h191v-514q0 -197 -13 -290h6l545 804h211v-1044h-190v514q0 195 12 291h-6l-543 -805h-213z" />
    <glyph glyph-name="uni045E" unicode="&#x45e;" horiz-adv-x="1019" 
d="M518 1194q-150 0 -225 94q-51 66 -82 154l100 41q66 -147 207 -147t207 147l100 -41q-56 -174 -174 -223q-57 -25 -133 -25zM201 -455q-63 0 -119 17l12 153q49 -14 92 -14q84 0 130 53t98 201l-396 1089h211l211 -632q41 -121 76 -254h4q41 143 78 254l213 632h197
l-373 -1034q-98 -270 -187 -368t-247 -97z" />
    <glyph glyph-name="uni045F" unicode="&#x45f;" horiz-adv-x="1255" 
d="M537 -299v299h-363v1044h195v-888h518v888h194v-1044h-364v-299h-180z" />
    <glyph glyph-name="uni0490" unicode="&#x490;" horiz-adv-x="1013" 
d="M197 0v1430h608v233h180v-408h-579v-1255h-209z" />
    <glyph glyph-name="uni0491" unicode="&#x491;" horiz-adv-x="880" 
d="M174 0v1044h522v201h170v-354h-497v-891h-195z" />
    <glyph glyph-name="Wgrave" unicode="&#x1e80;" horiz-adv-x="2109" 
d="M754 1831h221l168 -295h-142zM1378 0l-270 1036q-55 225 -57 242h-4q-18 -104 -54 -242l-266 -1036h-264l-434 1430h223l268 -959q45 -168 74 -311h4q23 115 74 311l237 959h295l244 -959q49 -199 72 -311h4q35 162 75 311l267 959h215l-443 -1430h-260z" />
    <glyph glyph-name="wgrave" unicode="&#x1e81;" horiz-adv-x="1705" 
d="M801 1186l-266 362h215l186 -362h-135zM584 0h-234l-332 1044h211l177 -632q8 -27 61 -256h4q18 74 70 254l198 634h240l197 -634q31 -102 67 -254h4q29 141 64 252l184 636h193l-338 -1044h-226l-206 672q-43 154 -60 231h-4q-16 -86 -61 -231z" />
    <glyph glyph-name="Wacute" unicode="&#x1e82;" horiz-adv-x="2109" 
d="M1358 1831l-252 -295h-139l170 295h221zM1378 0l-270 1036q-55 225 -57 242h-4q-18 -104 -54 -242l-266 -1036h-264l-434 1430h223l268 -959q45 -168 74 -311h4q23 115 74 311l237 959h295l244 -959q49 -199 72 -311h4q35 162 75 311l267 959h215l-443 -1430h-260z" />
    <glyph glyph-name="wacute" unicode="&#x1e83;" horiz-adv-x="1705" 
d="M1180 1548l-267 -362h-135l187 362h215zM584 0h-234l-332 1044h211l177 -632q8 -27 61 -256h4q18 74 70 254l198 634h240l197 -634q31 -102 67 -254h4q29 141 64 252l184 636h193l-338 -1044h-226l-206 672q-43 154 -60 231h-4q-16 -86 -61 -231z" />
    <glyph glyph-name="Wdieresis" unicode="&#x1e84;" horiz-adv-x="2109" 
d="M1343 1804v-207h-186v207h186zM954 1804v-207h-188v207h188zM1378 0l-270 1036q-55 225 -57 242h-4q-18 -104 -54 -242l-266 -1036h-264l-434 1430h223l268 -959q45 -168 74 -311h4q23 115 74 311l237 959h295l244 -959q49 -199 72 -311h4q35 162 75 311l267 959h215
l-443 -1430h-260z" />
    <glyph glyph-name="wdieresis" unicode="&#x1e85;" horiz-adv-x="1705" 
d="M1149 1442v-207h-186v207h186zM760 1442v-207h-189v207h189zM584 0h-234l-332 1044h211l177 -632q8 -27 61 -256h4q18 74 70 254l198 634h240l197 -634q31 -102 67 -254h4q29 141 64 252l184 636h193l-338 -1044h-226l-206 672q-43 154 -60 231h-4q-16 -86 -61 -231z" />
    <glyph glyph-name="Ygrave" unicode="&#x1ef2;" horiz-adv-x="1361" 
d="M399 1831h222l167 -295h-141zM788 0h-206v600l-566 830h252l189 -289q127 -199 229 -365h4q86 147 228 365l184 289h246l-560 -826v-604z" />
    <glyph glyph-name="ygrave" unicode="&#x1ef3;" horiz-adv-x="1019" 
d="M479 1186l-266 362h215l186 -362h-135zM186 -299q84 0 130 53t98 201l-396 1089h211l211 -632q41 -121 76 -254h4q41 143 78 254l213 632h197l-373 -1034q-97 -270 -187 -367t-247 -98q-63 0 -119 17l12 153q49 -14 92 -14z" />
    <glyph glyph-name="uni2010" unicode="&#x2010;" horiz-adv-x="686" 
d="M612 618v-159h-538v159h538z" />
    <glyph glyph-name="endash" unicode="&#x2013;" horiz-adv-x="1024" 
d="M0 612h1024v-147h-1024v147z" />
    <glyph glyph-name="emdash" unicode="&#x2014;" horiz-adv-x="2048" 
d="M1802 612v-147h-1556v147h1556z" />
    <glyph glyph-name="afii00208" unicode="&#x2015;" horiz-adv-x="2048" 
d="M1802 612v-147h-1556v147h1556z" />
    <glyph glyph-name="quoteleft" unicode="&#x2018;" horiz-adv-x="561" 
d="M115 1012l172 491h159l-124 -491h-207z" />
    <glyph glyph-name="quoteright" unicode="&#x2019;" horiz-adv-x="561" 
d="M446 1503l-172 -491h-159l125 491h206z" />
    <glyph glyph-name="quotesinglbase" unicode="&#x201a;" horiz-adv-x="561" 
d="M438 223l-172 -491h-160l125 491h207z" />
    <glyph glyph-name="quotedblleft" unicode="&#x201c;" horiz-adv-x="942" 
d="M496 1012l172 491h159l-125 -491h-206zM115 1012l172 491h159l-124 -491h-207z" />
    <glyph glyph-name="quotedblright" unicode="&#x201d;" horiz-adv-x="942" 
d="M446 1503l-172 -491h-159l125 491h206zM827 1503l-172 -491h-159l125 491h206z" />
    <glyph glyph-name="quotedblbase" unicode="&#x201e;" horiz-adv-x="942" 
d="M438 223l-172 -491h-160l125 491h207zM819 223l-172 -491h-160l125 491h207z" />
    <glyph glyph-name="dagger" unicode="&#x2020;" 
d="M672 1430v-361h344v-147h-344v-922h-162v922h-340v147h340v361h162z" />
    <glyph glyph-name="daggerdbl" unicode="&#x2021;" 
d="M672 1430v-361h344v-147h-344v-416h344v-148h-344v-358h-162v358h-340v148h340v416h-340v147h340v361h162z" />
    <glyph glyph-name="bullet" unicode="&#x2022;" horiz-adv-x="1005" 
d="M505 1044q145 0 245 -103t100 -247t-101 -244q-101 -102 -245 -102t-246 102t-102 248q0 145 102 246q103 100 247 100z" />
    <glyph glyph-name="ellipsis" unicode="&#x2026;" horiz-adv-x="2048" 
d="M1821 229v-229h-230v229h230zM1139 229v-229h-230v229h230zM457 229v-229h-230v229h230z" />
    <glyph glyph-name="perthousand" unicode="&#x2030;" horiz-adv-x="2668" 
d="M2374 348q0 118 -48 182q-48 66 -132 66q-85 0 -132 -68t-47 -186t47 -180q47 -64 132 -64t133 66q47 66 47 184zM2199 715q161 -1 247 -97t87 -270q0 -174 -90 -273t-248 -99q-159 0 -249 98q-90 100 -90 273t90 271q92 98 253 97zM1464 1505l-907 -1548h-135l907 1548
h135zM1583 348q0 118 -47 182q-47 66 -132 66t-132 -68t-47 -186t47 -180q47 -64 132 -64t132 66t47 184zM1065 347q0 173 91 271t252 97t248 -97t87 -270t-90 -273t-248 -99t-249 98q-91 100 -91 273zM474 838q85 0 132 66t47 182q0 118 -47 184t-132 65q-85 1 -132 -67
t-47 -186t47 -181t132 -63zM135 1086q0 172 91 270t252 98t248 -96t87 -270t-90 -274q-90 -99 -248 -99t-249 99t-91 272z" />
    <glyph glyph-name="guilsinglleft" unicode="&#x2039;" horiz-adv-x="643" 
d="M543 920l-260 -408l264 -412h-178l-287 412l278 408h183z" />
    <glyph glyph-name="guilsinglright" unicode="&#x203a;" horiz-adv-x="643" 
d="M100 920h183l278 -408l-287 -412h-178l264 412z" />
    <glyph glyph-name="interrobang" unicode="&#x203d;" horiz-adv-x="999" 
d="M563 223v-223h-221v223h221zM713 1076q0 204 -277 204q-135 0 -291 -74l-18 187q173 61 361 61t311 -90t123 -262q0 -100 -45 -188t-151 -198t-143 -168q-38 -58 -38 -132v-17h-187l-32 645h194l-12 -346h4q23 60 112 166t89 212z" />
    <glyph glyph-name="fraction" unicode="&#x2044;" horiz-adv-x="260" 
d="M662 1505l-908 -1548h-135l907 1548h136z" />
    <glyph glyph-name="zero.superior" unicode="&#x2070;" horiz-adv-x="778" 
d="M520 1306q0 324 -136 324t-136 -323t135 -324q137 -1 137 323zM387 1751q295 0 295 -444t-299 -445q-297 0 -297 444t301 445z" />
    <glyph glyph-name="four.superior" unicode="&#x2074;" horiz-adv-x="778" 
d="M463 1176v182q0 184 4 270h-4q-41 -86 -123 -229l-129 -223h252zM612 1735v-559h113v-121h-113v-178h-149v178h-391v133l325 547h215z" />
    <glyph glyph-name="five.superior" unicode="&#x2075;" horiz-adv-x="778" 
d="M655 1733v-123h-342l-4 -191q35 6 72 6q139 1 220 -73t81 -202t-90 -205t-228 -77t-217 25l5 139q88 -37 175 -37t136 41t49 112t-54 113t-138 42t-162 -27l6 457h491z" />
    <glyph glyph-name="six.superior" unicode="&#x2076;" horiz-adv-x="778" 
d="M396 1311q-56 0 -92 -45t-36 -116t38 -121t93 -50t91 46t36 119t-37 120t-93 47zM473 1624q-207 0 -217 -278h4q59 86 172 86q114 0 184 -78t70 -209t-78 -208t-215 -77t-214 104t-77 320q0 215 94 341t263 126q100 0 182 -27l-18 -133q-68 33 -150 33z" />
    <glyph glyph-name="seven.superior" unicode="&#x2077;" horiz-adv-x="778" 
d="M662 1733v-129l-312 -727h-172l326 729h-400v127h558z" />
    <glyph glyph-name="eight.superior" unicode="&#x2078;" horiz-adv-x="778" 
d="M250 1110q0 -57 41 -92t103 -35t99 33q36 33 35 86q1 109 -155 160q-123 -51 -123 -152zM262 1529q0 -49 35 -79t109 -61q109 59 108 137q0 53 -35 81q-35 27 -90 27t-91 -28t-36 -77zM688 1096q0 -100 -81 -166q-81 -68 -214 -68t-219 67t-86 175q0 147 170 223
q-86 37 -120 82t-34 131t79 146t203 61q124 0 201 -56t77 -153q-1 -125 -148 -201q92 -37 132 -89t40 -152z" />
    <glyph glyph-name="nine.superior" unicode="&#x2079;" horiz-adv-x="778" 
d="M250 1467q0 -73 36 -115t94 -43q58 0 93 41q35 42 35 112t-38 120t-93 50t-91 -46t-36 -119zM299 987q211 0 221 279h-4q-53 -78 -170 -78q-116 0 -186 75t-70 205t78 206q78 77 215 77t214 -104q77 -103 77 -319t-93 -342t-268 -126q-100 0 -182 27l19 133
q68 -33 149 -33z" />
    <glyph glyph-name="zero.inferior" unicode="&#x2080;" horiz-adv-x="778" 
d="M520 112q0 324 -136 324t-136 -323t135 -324q137 -1 137 323zM387 557q295 0 295 -444t-299 -445q-297 0 -297 444t301 445z" />
    <glyph glyph-name="one.inferior" unicode="&#x2081;" horiz-adv-x="778" 
d="M528 541v-858h-159v417q0 186 10 279h-4q-45 -51 -144 -133l-81 102l237 193h141z" />
    <glyph glyph-name="two.inferior" unicode="&#x2082;" horiz-adv-x="778" 
d="M360 553q130 1 206 -63q77 -64 77 -162t-47 -181q-46 -84 -144 -183t-178 -154v-5q180 4 271 5h121v-127h-568v137q193 168 286 280t93 201q0 121 -143 121q-86 -1 -195 -60l-20 138q111 53 241 53z" />
    <glyph glyph-name="three.inferior" unicode="&#x2083;" horiz-adv-x="778" 
d="M496 319q0 109 -175 109q-89 0 -174 -45l-8 131q102 39 231 39q128 0 208 -57t79 -162q0 -76 -55 -130t-137 -71v-4q90 -11 144 -67q55 -56 55 -156t-92 -168q-92 -66 -227 -66q-136 0 -234 31l10 137q100 -41 191 -41q186 0 186 131q-1 133 -234 133q-27 0 -43 -2v132
q29 -4 43 -5q231 0 232 131z" />
    <glyph glyph-name="four.inferior" unicode="&#x2084;" horiz-adv-x="778" 
d="M463 -18v182q0 184 4 270h-4q-41 -86 -123 -229l-129 -223h252zM612 541v-559h113v-121h-113v-178h-149v178h-391v133l325 547h215z" />
    <glyph glyph-name="five.inferior" unicode="&#x2085;" horiz-adv-x="778" 
d="M655 539v-123h-342l-4 -191q35 6 72 6q139 1 220 -73t81 -202t-90 -205t-228 -77t-217 25l5 139q88 -37 175 -37t136 41t49 112t-54 113t-138 42t-162 -27l6 457h491z" />
    <glyph glyph-name="six.inferior" unicode="&#x2086;" horiz-adv-x="778" 
d="M396 117q-56 0 -92 -45t-36 -116t38 -121t93 -50t91 46t36 119t-37 120t-93 47zM473 430q-207 0 -217 -278h4q59 86 172 86q114 0 184 -78t70 -209t-78 -208t-215 -77t-214 104t-77 320q0 215 94 341t263 126q100 0 182 -27l-18 -133q-68 33 -150 33z" />
    <glyph glyph-name="seven.inferior" unicode="&#x2087;" horiz-adv-x="778" 
d="M662 539v-129l-312 -727h-172l326 729h-400v127h558z" />
    <glyph glyph-name="eight.inferior" unicode="&#x2088;" horiz-adv-x="778" 
d="M250 -84q0 -57 41 -92t103 -35t99 33q36 33 35 86q1 109 -155 160q-123 -51 -123 -152zM262 335q0 -49 35 -79t109 -61q109 59 108 137q0 53 -35 81q-35 27 -90 27t-91 -28t-36 -77zM688 -98q0 -100 -81 -166q-81 -68 -214 -68t-219 67t-86 175q0 147 170 223
q-86 37 -120 82t-34 131t79 146t203 61q124 0 201 -56t77 -153q-1 -125 -148 -201q92 -37 132 -89t40 -152z" />
    <glyph glyph-name="nine.inferior" unicode="&#x2089;" horiz-adv-x="778" 
d="M250 273q0 -73 36 -115t94 -43q58 0 93 41q35 42 35 112t-38 120t-93 50t-91 -46t-36 -119zM299 -207q211 0 221 279h-4q-53 -78 -170 -78q-116 0 -186 75t-70 205t78 206q78 77 215 77t214 -104t77 -319q0 -216 -93 -342t-268 -126q-100 0 -182 27l19 133
q68 -33 149 -33z" />
    <glyph glyph-name="Euro" unicode="&#x20ac;" 
d="M438 728q0 -44 2 -62h514l-24 -115h-473q39 -178 154 -281q116 -102 284 -102q100 0 168 18l12 -184q-88 -16 -180 -16q-256 0 -432 147t-221 418h-150l17 115h120q-2 18 -2 62t2 67h-137l17 114h137q53 242 231 390t414 149q119 0 209 -18l-35 -177q-80 18 -174 19
q-166 0 -278 -97t-156 -266h538l-24 -114h-531q-2 -23 -2 -67z" />
    <glyph glyph-name="afii61248" unicode="&#x2105;" horiz-adv-x="1878" 
d="M504 1325q-88 0 -150 -67q-62 -66 -61 -174q0 -108 60 -174t167 -66q70 0 137 30l11 -133q-84 -27 -166 -26q-170 0 -275 100q-104 100 -104 266t107 269q108 102 274 102q77 1 151 -22l-12 -134q-51 29 -139 29zM1464 1505l-907 -1548h-135l907 1548h135zM1583 348
q0 118 -47 182q-47 66 -132 66t-132 -68t-47 -186t47 -180q47 -64 132 -64t132 66t47 184zM1065 347q0 173 91 271t252 97t248 -97t87 -270t-90 -273t-248 -99t-249 98q-91 100 -91 273z" />
    <glyph glyph-name="afii61289" unicode="&#x2113;" horiz-adv-x="925" 
d="M496 1286q-76 0 -106 -118t-30 -338t2 -285q240 172 240 563q0 178 -106 178zM170 694q0 412 56 552t150 181q58 27 136 27q137 0 209 -91t72 -247q1 -231 -105 -435t-307 -321q19 -110 67 -162t128 -52t151 22l10 -154q-78 -27 -186 -26q-154 0 -235 74t-113 219
q-63 -18 -125 -31v176q61 14 100 27q-8 87 -8 241z" />
    <glyph glyph-name="uni2116" unicode="&#x2116;" horiz-adv-x="2109" 
d="M1743 621q71 0 109 53t38 151q0 97 -38 151t-108 54t-110 -56q-39 -56 -39 -152t39 -149q39 -52 109 -52zM2048 827q0 -155 -82 -245t-222 -90t-223 89t-83 245t82 244q82 87 226 87t223 -87t79 -243zM1479 252v131h528v-131h-528zM197 0v1430h266l624 -1213v1213h197
v-1430h-278l-615 1188v-1188h-194z" />
    <glyph glyph-name="published" unicode="&#x2117;" horiz-adv-x="1843" 
d="M799 1032v-340h82q238 0 237 170q0 170 -241 170h-78zM676 301v832h237q152 0 240 -68t88 -198q0 -131 -92 -203t-248 -72h-102v-291h-123zM922 1436q301 0 511 -209q209 -209 209 -510t-210 -512t-510 -211q-299 0 -510 212t-211 513t210 509t511 208zM922 1354
q-266 0 -450 -188t-185 -451q0 -263 184 -451q183 -188 451 -188t451 188t183 452t-184 452q-184 186 -450 186z" />
    <glyph glyph-name="trademark" unicode="&#x2122;" horiz-adv-x="1843" 
d="M893 680v717h192l193 -549h4l184 549h185v-717h-115v600h-6l-209 -600h-98l-209 600h-6v-600h-115zM410 680v612h-236v105h598v-105h-235v-612h-127z" />
    <glyph glyph-name="Omega" unicode="&#x2126;" horiz-adv-x="1646" 
d="M1524 0h-596v160q340 307 340 626q0 240 -125 372t-322 132t-319 -134t-121 -372q0 -319 338 -624v-160h-596v184h90q182 0 266 -8l2 4q-170 164 -247 314t-76 331q0 291 193 460t477 169t471 -171t188 -449q0 -184 -77 -339t-245 -315l2 -4q84 8 287 8h70v-184z" />
    <glyph glyph-name="estimated" unicode="&#x212e;" horiz-adv-x="1746" 
d="M1335 782l17 19v420q-172 159 -467 159t-484 -178v-401l17 -19h917zM861 -25q-220 0 -393 85t-282 254t-108 391q0 321 242 535t575 214q188 0 341 -64q279 -118 388 -407q49 -129 49 -266v-8h-1255l-17 -21v-471q184 -168 457 -168q319 1 524 230h140
q-125 -141 -283 -223t-378 -81z" />
    <glyph glyph-name="onethird" unicode="&#x2153;" horiz-adv-x="1816" 
d="M1303 381q-27 0 -43 -2v131q29 -4 43 -4q231 0 231 131q0 51 -43 80t-132 29t-173 -46l-8 131q102 39 231 39t208 -57t79 -147t-56 -145q-56 -54 -137 -70v-5q91 -10 145 -66t54 -142q0 -115 -91 -182q-91 -66 -227 -66t-235 30l10 138q99 -41 191 -41t139 34t47 97
q0 133 -233 133zM1440 1505l-908 -1548h-135l908 1548h135zM528 1434v-859h-159v418q0 186 10 279h-4q-45 -51 -144 -133l-81 102l237 193h141z" />
    <glyph glyph-name="twothirds" unicode="&#x2154;" horiz-adv-x="1816" 
d="M1303 381q-27 0 -43 -2v131q29 -4 43 -4q231 0 231 131q0 51 -43 80t-132 29t-173 -46l-8 131q102 39 231 39t208 -57t79 -147t-56 -145q-56 -54 -137 -70v-5q91 -10 145 -66t54 -142q0 -115 -91 -182q-91 -66 -227 -66t-235 30l10 138q99 -41 191 -41t139 34t47 97
q0 133 -233 133zM1440 1505l-908 -1548h-135l908 1548h135zM360 1446q130 0 206 -64q77 -64 77 -160q0 -98 -47 -182q-46 -84 -144 -183t-178 -155v-4q180 4 271 4h121v-127h-568v138q193 169 286 281t93 200q0 121 -143 121q-86 -1 -195 -60l-20 138q111 53 241 53z" />
    <glyph glyph-name="oneeighth" unicode="&#x215b;" horiz-adv-x="1816" 
d="M1288 233q0 -57 41 -92t103 -35t99 33q36 33 36 86q0 109 -156 160q-123 -51 -123 -152zM1428 758q-56 0 -92 -29t-36 -77t35 -78t109 -62q109 59 108 137q0 53 -34 81t-90 28zM1126 227q0 147 170 224q-86 37 -120 81t-33 131q0 87 79 147q78 60 202 60t201 -56t77 -152
q-1 -125 -148 -201q92 -37 132 -89t40 -136q0 -115 -80 -183q-80 -67 -214 -67q-133 0 -220 66q-86 67 -86 175zM1440 1505l-908 -1548h-135l908 1548h135zM528 1434v-859h-159v418q0 186 10 279h-4q-45 -51 -144 -133l-81 102l237 193h141z" />
    <glyph glyph-name="threeeighths" unicode="&#x215c;" horiz-adv-x="1816" 
d="M1288 233q0 -57 41 -92t103 -35t99 33q36 33 36 86q0 109 -156 160q-123 -51 -123 -152zM1428 758q-56 0 -92 -29t-36 -77t35 -78t109 -62q109 59 108 137q0 53 -34 81t-90 28zM1126 227q0 147 170 224q-86 37 -120 81t-33 131q0 87 79 147q78 60 202 60t201 -56t77 -152
q-1 -125 -148 -201q92 -37 132 -89t40 -136q0 -115 -80 -183q-80 -67 -214 -67q-133 0 -220 66q-86 67 -86 175zM1440 1505l-908 -1548h-135l908 1548h135zM496 1212q0 109 -175 109q-89 0 -174 -45l-8 131q102 39 231 39q128 0 208 -57t79 -162q0 -76 -55 -130t-137 -71v-4
q90 -10 144 -66q55 -56 55 -158q0 -100 -92 -166t-227 -67q-136 0 -234 31l10 137q100 -41 191 -41q186 0 186 131q-1 133 -234 133q-27 0 -43 -2v131q29 -4 43 -4q231 0 232 131z" />
    <glyph glyph-name="fiveeighths" unicode="&#x215d;" horiz-adv-x="1816" 
d="M1288 233q0 -57 41 -92t103 -35t99 33q36 33 36 86q0 109 -156 160q-123 -51 -123 -152zM1428 758q-56 0 -92 -29t-36 -77t35 -78t109 -62q109 59 108 137q0 53 -34 81t-90 28zM1126 227q0 147 170 224q-86 37 -120 81t-33 131q0 87 79 147q78 60 202 60t201 -56t77 -152
q-1 -125 -148 -201q92 -37 132 -89t40 -136q0 -115 -80 -183q-80 -67 -214 -67q-133 0 -220 66q-86 67 -86 175zM1440 1505l-908 -1548h-135l908 1548h135zM655 1432v-123h-342l-4 -191q35 6 72 6q139 0 220 -74t81 -201q0 -128 -90 -205t-228 -77t-217 25l5 139
q88 -37 175 -37t136 41t49 112t-54 113t-138 41q-84 0 -162 -26l6 457h491z" />
    <glyph glyph-name="seveneighths" unicode="&#x215e;" horiz-adv-x="1816" 
d="M1288 233q0 -57 41 -92t103 -35t99 33q36 33 36 86q0 109 -156 160q-123 -51 -123 -152zM1428 758q-56 0 -92 -29t-36 -77t35 -78t109 -62q109 59 108 137q0 53 -34 81t-90 28zM1126 227q0 147 170 224q-86 37 -120 81t-33 131q0 87 79 147q78 60 202 60t201 -56t77 -152
q-1 -125 -148 -201q92 -37 132 -89t40 -136q0 -115 -80 -183q-80 -67 -214 -67q-133 0 -220 66q-86 67 -86 175zM1440 1505l-908 -1548h-135l908 1548h135zM662 1432v-129l-312 -728h-172l326 730h-400v127h558z" />
    <glyph glyph-name="arrowleft" unicode="&#x2190;" horiz-adv-x="1536" 
d="M598 1096h272l-442 -400l973 19v-199l-973 19l442 -400h-272l-479 479z" />
    <glyph glyph-name="arrowup" unicode="&#x2191;" horiz-adv-x="1536" 
d="M287 541v272l481 479l479 -479v-272l-399 442l18 -973h-198l18 973z" />
    <glyph glyph-name="arrowright" unicode="&#x2192;" horiz-adv-x="1536" 
d="M666 1096h272l479 -482l-479 -479h-272l442 400l-973 -19v199l973 -19z" />
    <glyph glyph-name="arrowdown" unicode="&#x2193;" horiz-adv-x="1536" 
d="M287 467v272l399 -442l-18 973h198l-18 -973l399 442v-272l-479 -479z" />
    <glyph glyph-name="arrowboth" unicode="&#x2194;" horiz-adv-x="2125" 
d="M2007 614l-479 -479h-273l439 395v5q-656 -23 -1262 0v-5l438 -395h-272l-479 479l479 482h272l-438 -396v-4q656 23 1262 0v4l-439 396h273z" />
    <glyph glyph-name="arrowupdn" unicode="&#x2195;" horiz-adv-x="1536" 
d="M860 680q0 -291 -12 -631h4l395 438v-272l-479 -479l-481 479v272l395 -438h4q-12 340 -12 631t12 631h-4l-395 -439v273l481 479l479 -479v-273l-395 439h-4q12 -340 12 -631z" />
    <glyph glyph-name="arrowupleft" unicode="&#x2196;" horiz-adv-x="1536" 
d="M305 1098h678l195 -193l-596 29l700 -674l-139 -141l-676 702l31 -596l-193 193v680z" />
    <glyph glyph-name="arrowupright" unicode="&#x2197;" horiz-adv-x="1536" 
d="M1231 1098v-680l-193 -193l31 596l-676 -702l-139 141l700 674l-596 -29l195 193h678z" />
    <glyph glyph-name="arrowdownright" unicode="&#x2198;" horiz-adv-x="1536" 
d="M1282 182h-678l-194 193l596 -29l-701 674l139 141l676 -702l-30 596l192 -193v-680z" />
    <glyph glyph-name="arrowdownleft" unicode="&#x2199;" horiz-adv-x="1536" 
d="M254 182v680l192 193l-30 -596l676 702l139 -141l-701 -674l596 29l-194 -193h-678z" />
    <glyph glyph-name="partialdiff" unicode="&#x2202;" horiz-adv-x="1265" 
d="M950 510q0 164 -89 270t-237 107q-148 0 -240 -111q-91 -110 -91 -270t90 -265t243 -105q152 0 238 104q86 106 86 270zM1159 565q0 -241 -139 -413t-387 -172q-247 0 -397 150t-150 379q0 228 146 379t370 150q178 0 297 -114h6q-57 164 -251 324t-390 216l127 129
q352 -143 560 -400t208 -628z" />
    <glyph glyph-name="Delta" unicode="&#x2206;" horiz-adv-x="1548" 
d="M633 946l-344 -762h948l-336 762q-102 227 -129 324h-4q-31 -91 -135 -324zM1454 0h-1360v184l555 1246h244l561 -1246v-184z" />
    <glyph glyph-name="product" unicode="&#x220f;" horiz-adv-x="1579" 
d="M1382 1569v-1999h-208v1825h-768v-1825h-209v1999h1185z" />
    <glyph glyph-name="summation" unicode="&#x2211;" horiz-adv-x="1404" 
d="M778 -246h553v-184h-1253v160l649 874l-623 809v156h1199v-174h-545q-137 0 -383 6l-2 -2q236 -291 295 -373l305 -405l-352 -480q-197 -272 -299 -391l2 -2q246 6 454 6z" />
    <glyph glyph-name="minus" unicode="&#x2212;" 
d="M78 598h1032v-168h-1032v168z" />
    <glyph glyph-name="uni2215" unicode="&#x2215;" horiz-adv-x="260" 
d="M662 1505l-908 -1548h-135l907 1548h136z" />
    <glyph glyph-name="uni2219" unicode="&#x2219;" horiz-adv-x="491" 
d="M360 653v-229h-229v229h229z" />
    <glyph glyph-name="radical" unicode="&#x221a;" horiz-adv-x="1327" 
d="M45 348v168h436l146 -416q86 -248 104 -358h4q6 49 74 369l321 1458h209l-481 -1999h-248l-282 778h-283z" />
    <glyph glyph-name="infinity" unicode="&#x221e;" horiz-adv-x="1921" 
d="M1364 213q122 0 186 87q64 86 64 230t-65 238t-181 94q-207 1 -311 -323q121 -326 307 -326zM526 49q-196 0 -304 137q-108 136 -108 356t123 357q122 137 316 137q160 0 249 -72t175 -237q152 309 416 309q199 0 307 -137t106 -356q0 -219 -122 -357t-316 -137
q-160 1 -250 73t-176 234q-150 -307 -416 -307zM305 545q0 -143 65 -237t181 -95q207 0 311 324q-121 326 -307 325q-121 0 -185 -87t-65 -230z" />
    <glyph glyph-name="integral" unicode="&#x222b;" horiz-adv-x="782" 
d="M461 1210v-1316q0 -168 -83 -258t-235 -89q-76 0 -141 17l18 168q53 -18 103 -19q133 0 133 181v1316q0 162 80 254t229 92q90 0 162 -20l-18 -168q-55 23 -109 23q-139 -1 -139 -181z" />
    <glyph glyph-name="approxequal" unicode="&#x2248;" 
d="M330 287q-147 0 -244 -146v193q96 119 264 119q116 0 266 -81t235 -81t149 42t102 103v-194q-101 -119 -284 -119q-95 0 -246 82t-242 82zM330 739q-147 0 -244 -145v192q96 119 264 119q116 0 266 -81t235 -81q85 1 149 43t102 103v-195q-101 -119 -284 -119
q-95 0 -246 82t-242 82z" />
    <glyph glyph-name="notequal" unicode="&#x2260;" 
d="M78 811h586l161 274h211l-162 -274h236v-168h-336l-151 -258h487v-168h-586l-162 -274h-210l161 274h-235v168h334l151 258h-485v168z" />
    <glyph glyph-name="lessequal" unicode="&#x2264;" 
d="M1108 233l-1032 306v237l1032 307v-180l-406 -117q-346 -102 -479 -122v-5q29 -6 479 -129l406 -114v-183zM76 0v168h1032v-168h-1032z" />
    <glyph glyph-name="greaterequal" unicode="&#x2265;" 
d="M1112 539l-1032 -306v183l405 114q451 123 480 129v5q-133 20 -480 122l-405 117v180l1032 -307v-237zM1112 168v-168h-1032v168h1032z" />
    <glyph glyph-name="lozenge" unicode="&#x25ca;" horiz-adv-x="1085" 
d="M408 987l-134 -272l136 -275q109 -225 133 -293h4q14 43 131 293l131 271l-139 276q-106 215 -127 291h-4q-15 -37 -71 -160t-60 -131zM438 0l-350 715l350 715h209l350 -715l-350 -715h-209z" />
    <glyph glyph-name="f_i" unicode="&#xf001;" horiz-adv-x="1337" 
d="M1155 1044v-1044h-197v1044h197zM1165 1448v-215h-217v215h217zM477 1141v-103h281v-153h-281v-885h-192v885h-248v153h248v99q0 420 340 419q75 0 143 -16l-14 -158q-51 12 -101 13q-96 1 -136 -59t-40 -195z" />
    <glyph glyph-name="f_l" unicode="&#xf002;" horiz-adv-x="1335" 
d="M1157 1548v-1548h-196v1548h196zM477 1141v-103h281v-153h-281v-885h-192v885h-248v153h248v99q0 420 340 419q75 0 143 -16l-14 -158q-51 12 -101 13q-96 1 -136 -59t-40 -195z" />
    <glyph glyph-name="uniF8FF" unicode="&#xf8ff;" horiz-adv-x="1048" 
d="M0 1470h1049v-1470h-1049v1470zM102 102h844v1264h-844v-1264zM555 479h-94l-4 35q1 115 29 169t92 118q63 59 82 94q20 35 20 93t-46 107q-46 50 -110 50q-145 0 -168 -195l-102 17q14 141 88 211t186 70t185 -74q72 -74 71 -195q0 -70 -26 -123t-103 -122
q-76 -69 -88 -109t-12 -146zM569 240h-114v137h114v-137z" />
    <glyph glyph-name="grave.cap" horiz-adv-x="1024" 
d="M227 1831h222l167 -295h-141z" />
    <glyph glyph-name="acute.cap" horiz-adv-x="1024" 
d="M799 1831l-252 -295h-139l170 295h221z" />
    <glyph glyph-name="circumflex.cap" horiz-adv-x="1024" 
d="M827 1536h-168l-147 199l-156 -199h-159l223 297h192z" />
    <glyph glyph-name="caron.cap" horiz-adv-x="1024" 
d="M197 1831h168l147 -199l156 199h159l-223 -297h-192z" />
    <glyph glyph-name="caron.alt" horiz-adv-x="1024" 
d="M633 1548l-86 -362h-115l27 362h174z" />
    <glyph glyph-name="tilde.cap" horiz-adv-x="1024" 
d="M653 1583q-55 0 -163 40t-142 40q-35 -1 -55 -21t-33 -71h-98q25 221 207 221q61 0 161 -39t129 -39q74 0 86 92h101q-25 -223 -193 -223z" />
    <glyph glyph-name="dieresis.cap" horiz-adv-x="1024" 
d="M801 1804v-207h-187v207h187zM412 1804v-207h-189v207h189z" />
    <glyph glyph-name="macron.cap" horiz-adv-x="1024" 
d="M791 1743v-121h-566v121h566z" />
    <glyph glyph-name="breve.cap" horiz-adv-x="1024" 
d="M509 1565q-144 -1 -228 77t-93 213h105q35 -160 215 -160t223 160h103q-6 -131 -94 -211t-231 -79z" />
    <glyph glyph-name="ring.cap" horiz-adv-x="1024" 
d="M506 1833q-51 0 -87 -36t-36 -87t36 -87t88 -36t87 36t35 88t-36 87t-87 35zM508 1919q86 0 146 -61q60 -62 60 -148t-60 -146t-147 -60t-149 60t-61 147q0 87 62 148q63 60 149 60z" />
    <glyph glyph-name="hungarumlaut.cap" horiz-adv-x="1024" 
d="M918 1839l-234 -303h-139l155 303h218zM592 1839l-201 -303h-135l129 303h207z" />
    <glyph glyph-name="dotaccent.cap" horiz-adv-x="1024" 
d="M631 1798v-215h-217v215h217z" />
    <glyph glyph-name="commaaccent" horiz-adv-x="1024" 
d="M664 -127l-177 -344h-135l105 344h207z" />
    <glyph glyph-name="commaaccent.alt" horiz-adv-x="1024" 
d="M352 1186l180 362h136l-109 -362h-207z" />
    <glyph glyph-name="zero.denominator" horiz-adv-x="778" 
d="M524 430q0 324 -136 324t-136 -324t135 -324q137 0 137 324zM391 874q295 0 295 -444t-298 -444t-298 444t301 444z" />
    <glyph glyph-name="one.denominator" horiz-adv-x="778" 
d="M528 858v-858h-159v418q0 186 10 278h-4q-45 -51 -144 -133l-81 103l237 192h141z" />
    <glyph glyph-name="two.denominator" horiz-adv-x="778" 
d="M360 870q130 0 206 -63q77 -63 77 -161t-47 -181q-46 -83 -144 -183t-178 -155v-4q180 4 271 4h121v-127h-568v137q193 168 286 281t93 200q0 121 -143 121q-86 0 -195 -59l-20 137q111 53 241 53z" />
    <glyph glyph-name="three.denominator" horiz-adv-x="778" 
d="M264 381q-27 0 -43 -2v131q29 -4 43 -4q231 0 232 131q0 51 -43 80t-132 29t-174 -46l-8 131q102 39 231 39q128 0 208 -57t79 -162q0 -76 -55 -130t-137 -70v-5q90 -10 144 -66q55 -56 55 -156t-92 -168q-92 -66 -227 -66q-136 0 -234 30l10 138q100 -41 191 -41
q186 0 186 131q-1 133 -234 133z" />
    <glyph glyph-name="four.denominator" horiz-adv-x="778" 
d="M463 299v182q0 184 4 271h-4q-41 -86 -123 -230l-129 -223h252zM612 858v-559h113v-121h-113v-178h-149v178h-391v133l325 547h215z" />
    <glyph glyph-name="five.denominator" horiz-adv-x="778" 
d="M655 856v-123h-342l-4 -190q35 6 72 6q139 0 220 -74t81 -202q0 -129 -90 -205t-228 -76t-217 24l5 140q88 -37 175 -37t136 41q49 42 49 112t-54 112t-138 42t-162 -27l6 457h491z" />
    <glyph glyph-name="six.denominator" horiz-adv-x="778" 
d="M396 434q-56 0 -92 -45t-36 -116t38 -121t93 -50t91 46t36 119t-37 120t-93 47zM473 748q-207 0 -217 -279h4q59 86 172 86q114 0 184 -78t70 -209t-78 -208q-78 -76 -215 -76t-214 104t-77 319t94 341t263 126q100 1 182 -26l-18 -133q-68 33 -150 33z" />
    <glyph glyph-name="seven.denominator" horiz-adv-x="778" 
d="M662 856v-129l-312 -727h-172l326 729h-400v127h558z" />
    <glyph glyph-name="eight.denominator" horiz-adv-x="778" 
d="M250 233q0 -57 41 -92t103 -35t99 33q36 33 35 86q1 109 -155 160q-123 -51 -123 -152zM389 758q-55 0 -91 -29t-36 -77t35 -78t109 -62q109 59 108 137q0 53 -35 81t-90 28zM688 220q0 -100 -81 -167t-214 -67t-219 66t-86 175q0 147 170 224q-86 37 -120 81t-34 131
t79 147t203 60t201 -56t77 -152q-1 -125 -148 -201q92 -37 132 -89t40 -152z" />
    <glyph glyph-name="nine.denominator" horiz-adv-x="778" 
d="M380 432q58 0 93 41t35 112t-38 121t-93 50t-91 -46t-36 -119t36 -116t94 -43zM346 311q-116 0 -186 75t-70 205t78 207q78 76 215 76t214 -104t77 -319t-93 -341t-268 -126q-100 -1 -182 26l19 133q68 -33 149 -32q211 0 221 278h-4q-53 -78 -170 -78z" />
    <glyph glyph-name="zero.numerator" horiz-adv-x="778" 
d="M388 1329q-136 1 -136 -323t136 -324t136 324t-136 323zM391 1450q295 0 295 -444t-298 -445q-298 1 -298 445t301 444z" />
    <glyph glyph-name="one.numerator" horiz-adv-x="778" 
d="M528 1434v-859h-159v418q0 186 10 279h-4q-45 -51 -144 -133l-81 102l237 193h141z" />
    <glyph glyph-name="two.numerator" horiz-adv-x="778" 
d="M360 1446q130 0 206 -64q77 -64 77 -160q0 -98 -47 -182q-46 -84 -144 -183t-178 -155v-4q180 4 271 4h121v-127h-568v138q193 169 286 281t93 200q0 121 -143 121q-86 -1 -195 -60l-20 138q111 53 241 53z" />
    <glyph glyph-name="three.numerator" horiz-adv-x="778" 
d="M496 1212q0 109 -175 109q-89 0 -174 -45l-8 131q102 39 231 39q128 0 208 -57t79 -162q0 -76 -55 -130t-137 -71v-4q90 -10 144 -66q55 -56 55 -158q0 -100 -92 -166t-227 -67q-136 0 -234 31l10 137q100 -41 191 -41q186 0 186 131q-1 133 -234 133q-27 0 -43 -2v131
q29 -4 43 -4q231 0 232 131z" />
    <glyph glyph-name="four.numerator" horiz-adv-x="778" 
d="M463 874v183q0 184 4 270h-4q-41 -86 -123 -229l-129 -224h252zM612 1434v-560h113v-120h-113v-179h-149v179h-391v133l325 547h215z" />
    <glyph glyph-name="five.numerator" horiz-adv-x="778" 
d="M655 1432v-123h-342l-4 -191q35 6 72 6q139 0 220 -74t81 -201q0 -128 -90 -205t-228 -77t-217 25l5 139q88 -37 175 -37t136 41t49 112t-54 113t-138 41q-84 0 -162 -26l6 457h491z" />
    <glyph glyph-name="six.numerator" horiz-adv-x="778" 
d="M396 1010q-56 0 -92 -45t-36 -116t38 -121t93 -50t91 46t36 119t-37 120t-93 47zM473 1323q-207 0 -217 -279h4q59 86 172 86q114 0 184 -78t70 -208q0 -131 -78 -208t-215 -77q-137 1 -214 105t-77 319t94 341t263 126q100 0 182 -27l-18 -133q-68 33 -150 33z" />
    <glyph glyph-name="seven.numerator" horiz-adv-x="778" 
d="M662 1432v-129l-312 -728h-172l326 730h-400v127h558z" />
    <glyph glyph-name="eight.numerator" horiz-adv-x="778" 
d="M250 809q0 -57 41 -92t103 -35t99 33q36 33 35 86q1 109 -155 160q-123 -51 -123 -152zM262 1228q0 -48 35 -79t109 -62q109 59 108 138q0 53 -35 81t-90 28t-91 -30q-36 -28 -36 -76zM688 796q0 -100 -81 -168t-214 -67q-133 0 -219 67t-86 175q0 147 170 223
q-86 37 -120 82t-34 131t79 146q79 61 203 61t201 -56t77 -153q-1 -125 -148 -201q92 -37 132 -89q40 -51 40 -151z" />
    <glyph glyph-name="nine.numerator" horiz-adv-x="778" 
d="M250 1166q0 -74 36 -116t94 -42t93 41t35 111t-38 121q-38 50 -93 50t-91 -46t-36 -119zM299 686q211 0 221 279h-4q-53 -78 -170 -78q-116 0 -186 75q-70 74 -70 204t78 207t215 77t214 -104t77 -320t-93 -341q-93 -126 -268 -126q-100 0 -182 27l19 133q68 -33 149 -33
z" />
    <glyph glyph-name="tonos.cap" horiz-adv-x="468" 
d="M324 1430l-166 -381h-113l66 381h213z" />
    <glyph glyph-name="germandbls.alt01" horiz-adv-x="1257" 
d="M1104 1174q0 -127 -35 -248q-285 -8 -285 -156q0 -49 32 -81q32 -33 146 -95t164 -126q51 -64 52 -163q0 -153 -100 -239t-256 -86t-275 43l14 170q117 -55 219 -55t154 39q51 39 51 103t-38 102q-39 38 -149 102t-158 127q-48 62 -48 147q0 120 85 196t220 90
q12 47 12 119q0 109 -67 172q-68 63 -166 64q-152 0 -226 -115t-75 -321v-963h-197v1014q0 264 137 403t369 139q172 0 296 -102t124 -280z" />
    <glyph glyph-name="ampersand.alt01" horiz-adv-x="1386" 
d="M946 676h-149q-237 0 -349 -79t-112 -208t86 -187t230 -58q294 -1 294 321v211zM1323 829v-153h-193v-248q0 -223 -138 -338t-360 -115q-222 -1 -364 97q-143 98 -143 273t97 268t251 130v5q-141 26 -223 102t-82 205q0 184 140 292t356 107q137 0 260 -39l-23 -182
q-123 47 -248 47t-199 -57t-75 -164q0 -143 134 -191q110 -39 286 -39h524z" />
    <glyph glyph-name="Euro.prop" horiz-adv-x="1212" 
d="M449 728q0 -44 2 -62h514l-25 -115h-473q39 -179 155 -281t283 -102q100 0 168 18l12 -184q-88 -16 -180 -16q-256 0 -432 147t-221 418h-150l17 115h121q-2 18 -2 62t2 67h-138l17 114h137q53 242 231 390t414 149q119 0 209 -18l-35 -177q-80 18 -174 19
q-165 0 -277 -97t-157 -266h539l-25 -114h-530q-2 -23 -2 -67z" />
    <glyph glyph-name="cent.prop" horiz-adv-x="1042" 
d="M338 517q0 -167 119 -273l198 647q-141 -7 -229 -107t-88 -267zM686 -8q-128 0 -199 24l-86 -282h-102l98 317q-127 66 -197 192t-71 287q0 236 146 383t378 148q31 0 56 -2l75 248h107l-82 -260q43 -6 92 -23l-12 -172q-68 29 -129 37l-217 -705q55 -26 155 -26t207 51
l13 -174q-104 -43 -232 -43z" />
    <glyph glyph-name="sterling.prop" 
d="M844 1274q-174 0 -241 -110t-66 -304v-45h333v-123h-333v-526h512v-166h-902v166h191v526h-172v123h170v74q0 268 125 411t364 144q135 0 246 -35l-16 -182q-86 47 -211 47z" />
    <glyph glyph-name="yen.prop" 
d="M1001 698v-118h-303v-129h303v-119h-303v-332h-204v332h-301v119h301v129h-301v118h243l-397 732h233l152 -302q88 -174 172 -350h4q88 184 170 350l152 302h227l-399 -732h251z" />
    <glyph glyph-name="dollar.prop" 
d="M856 380q0 96 -54 154t-173 97v-475q104 6 166 67q61 61 61 157zM330 1078q0 -81 44 -133t154 -91v426q-94 -12 -146 -66t-52 -136zM1065 393q0 -161 -119 -273t-317 -132v-176h-111v174q-225 4 -383 69l21 187q176 -88 362 -92v518q-193 61 -292 148t-99 247t107 259
q108 99 294 116v180h109v-178q178 -1 352 -60l-22 -188q-160 86 -330 90v-459q236 -76 332 -172t96 -258z" />
    <glyph glyph-name="zero.prop" horiz-adv-x="1214" 
d="M883 712q0 278 -72 426t-204 148t-204 -146q-71 -146 -71 -425t72 -426t207 -147q134 0 203 146t69 424zM123 721q1 353 125 543t362 190t360 -193q122 -194 122 -559q0 -208 -45 -366t-158 -260t-284 -102t-283 102q-112 104 -155 265q-44 161 -44 380z" />
    <glyph glyph-name="one.prop" horiz-adv-x="886" 
d="M612 1430v-1430h-204v819q0 197 10 385h-4q-59 -59 -150 -139l-74 -64l-112 136l350 293h184z" />
    <glyph glyph-name="two.prop" horiz-adv-x="1097" 
d="M507 1454q210 0 337 -106t127 -291q0 -135 -86 -277t-260 -317q-174 -174 -349 -297v-4q188 6 429 6h296v-168h-913v205q373 322 521 503q149 181 149 318q0 138 -80 200t-220 62t-313 -98l-22 180q174 84 384 84z" />
    <glyph glyph-name="three.prop" horiz-adv-x="1089" 
d="M336 662q-37 0 -60 -3v164q20 -2 56 -2q204 -1 318 63t114 178t-83 173t-227 59t-311 -75l-12 174q157 61 365 61t338 -99t129 -278q1 -137 -101 -225t-262 -102v-7q164 -10 270 -108t107 -250q0 -184 -141 -297t-385 -113q-186 0 -365 60l10 182q190 -82 340 -82t243 68
q91 68 91 196q0 263 -434 263z" />
    <glyph glyph-name="four.prop" horiz-adv-x="1208" 
d="M748 481v402q0 223 8 420h-4q-68 -145 -164 -302l-314 -520h474zM940 1430v-949h190v-168h-190v-313h-192v313h-676v168l587 949h281z" />
    <glyph glyph-name="five.prop" horiz-adv-x="1089" 
d="M934 1430v-164h-606l-15 -389q76 18 168 18q217 0 357 -120q140 -119 139 -329q0 -210 -152 -340t-403 -131q-156 0 -303 45l6 183q149 -68 299 -68t249 81t99 225q0 145 -94 221t-244 76t-303 -58l12 750h791z" />
    <glyph glyph-name="six.prop" 
d="M885 445q0 135 -68 223t-194 88q-125 0 -203 -87t-78 -219t78 -228t196 -95q118 0 194 91q75 91 75 227zM731 1294q-190 0 -301 -145t-117 -406h6q49 80 145 123t200 43q188 0 306 -127q118 -126 118 -326t-129 -340q-127 -140 -357 -140t-356 176t-127 534
q1 358 157 562q156 206 445 206q151 0 276 -39l-20 -170q-121 49 -246 49z" />
    <glyph glyph-name="seven.prop" horiz-adv-x="1095" 
d="M995 1430v-173l-532 -1257h-221l546 1257h-702v173h909z" />
    <glyph glyph-name="eight.prop" 
d="M299 377q0 -113 80 -179t207 -65q127 0 214 66t87 174t-82 179t-244 124q-262 -92 -262 -299zM618 827q217 92 218 260q0 105 -70 161t-178 56t-185 -56q-75 -56 -75 -152t74 -159t216 -110zM1098 383q0 -186 -146 -297t-369 -111q-225 -1 -359 105t-134 291
q0 131 79 224t245 161q-160 63 -227 142t-66 194q0 164 129 263t339 99t336 -95t126 -257q0 -211 -287 -340q172 -60 253 -152t81 -227z" />
    <glyph glyph-name="nine.prop" 
d="M578 686q126 0 200 84t74 217t-76 224t-194 91t-193 -90q-74 -90 -74 -225t68 -218t195 -83zM535 532q-195 0 -309 122t-114 322t126 339q124 139 354 139t356 -171t127 -529t-155 -568q-156 -211 -443 -211q-164 1 -297 48l21 170q125 -57 266 -58q188 0 298 151
t116 412h-7q-49 -80 -142 -123t-197 -43z" />
    <glyph glyph-name="cyrBreve" horiz-adv-x="1024" 
d="M510 1556q-157 0 -236 100q-52 68 -86 161l105 43q69 -156 219 -156t215 156l107 -43q-62 -183 -184 -235q-60 -26 -140 -26z" />
    <glyph glyph-name="cyrbreve" horiz-adv-x="1024" 
d="M510 1194q-150 0 -225 94q-55 70 -82 154l100 41q66 -147 207 -147t207 147l100 -41q-56 -174 -174 -223q-57 -25 -133 -25z" />
    </font>
</defs>
</svg>
