<?xml version="1.0" encoding="utf-8"?>
<!-- Generator: Adobe Illustrator 20.1.0, SVG Export Plug-In . SVG Version: 6.00 Build 0)  -->
<svg version="1.1" id="XMLID_2_" xmlns="http://www.w3.org/2000/svg" xmlns:xlink="http://www.w3.org/1999/xlink" x="0px" y="0px"
	 viewBox="0 0 700 700" enable-background="new 0 0 700 700" xml:space="preserve">
<g id="arrow-down-left">
	<path id="fleche_4_" fill="#1D1D1B" d="M205.0421,525c-11.5218-0.0649-22.0303-4.2374-29.7109-11.9146
		c-11.9918-11.9863-12.3932-27.6091-12.326-30.2368l0.0417-248.102c-0.0627-31.5871,22.1755-53.6794,53.8438-53.6836l43.4585,0.0597
		l-0.0972,172.878l186.2783-186.1933c19.4084-19.2639,44.8089-22.1639,66.2998-7.6882l12.3969,11.717l2.5594,3.0968
		c14.5491,21.2787,11.7155,47.5452-7.4225,66.6744L334.0856,427.8007l172.9569-0.0972l-0.0081,43.3708
		c0.0653,15.6918-5.1925,29.1627-15.0309,38.9966c-9.6368,9.6324-23.3154,14.9537-38.6093,14.8904L205.0421,525z"/>
	<rect fill="none" width="700" height="700"/>
</g>
</svg>
