<?xml version="1.0" encoding="utf-8"?>
<!-- Generator: Adobe Illustrator 20.1.0, SVG Export Plug-In . SVG Version: 6.00 Build 0)  -->
<svg version="1.1" id="XMLID_1_" xmlns="http://www.w3.org/2000/svg" xmlns:xlink="http://www.w3.org/1999/xlink" x="0px" y="0px"
	 viewBox="0 0 700 700" enable-background="new 0 0 700 700" xml:space="preserve">
<g id="arrow-down">
	<path id="fleche_8_" fill="#1D1D1B" d="M320.2971,587.4234C328.4879,595.5224,338.8673,600,349.7264,600
		c16.9541,0,28.287-10.7652,30.0977-12.6711l175.436-175.4949c22.3837-22.295,22.2877-53.6398-0.0959-76.0293l-30.7634-30.679
		l-122.196,122.3334V152.7821c-0.0959-27.344-16.0008-47.3508-41.4305-52.3053L343.7243,100l-3.9995,0.3809
		c-25.3338,4.764-41.9072,25.3436-41.9072,52.4012v274.6771l-122.196-122.3334l-30.6674,30.679
		C133.8103,346.8562,128,360.1001,128,374.0098c0,13.6248,5.9062,27.0576,16.7623,37.8242L320.2971,587.4234z"/>
	<rect x="0" y="0" transform="matrix(-4.488759e-11 -1 1 -4.488759e-11 1.571067e-08 700)" fill="none" width="700" height="700"/>
</g>
</svg>
