<?xml version="1.0" encoding="utf-8"?>
<!-- Generator: Adobe Illustrator 20.1.0, SVG Export Plug-In . SVG Version: 6.00 Build 0)  -->
<svg version="1.1" id="XMLID_1_" xmlns="http://www.w3.org/2000/svg" xmlns:xlink="http://www.w3.org/1999/xlink" x="0px" y="0px"
	 viewBox="0 0 700 700" enable-background="new 0 0 700 700" xml:space="preserve">
<g id="arrow-right">
	<path id="fleche_6_" fill="#1D1D1B" d="M587.4234,320.2971C595.5224,328.4879,600,338.8673,600,349.7264
		c0,16.9541-10.7652,28.287-12.6711,30.0977L411.834,555.2601c-22.295,22.3837-53.6398,22.2877-76.0293-0.0959l-30.679-30.7634
		l122.3334-122.196H152.7821c-27.344-0.0959-47.3508-16.0008-52.3053-41.4305L100,343.7243l0.3809-3.9995
		c4.764-25.3338,25.3436-41.9072,52.4012-41.9072h274.6771l-122.3334-122.196l30.679-30.6674
		C346.8562,133.8103,360.1001,128,374.0098,128c13.6248,0,27.0576,5.9062,37.8242,16.7623L587.4234,320.2971z"/>
	<rect x="0" y="0" transform="matrix(-1 -4.488777e-11 4.488777e-11 -1 700 700)" fill="none" width="700" height="700"/>
</g>
</svg>
