<?xml version="1.0" encoding="utf-8"?>
<!-- Generator: Adobe Illustrator 20.0.0, SVG Export Plug-In . SVG Version: 6.00 Build 0)  -->
<svg version="1.1" id="XMLID_1_" xmlns="http://www.w3.org/2000/svg" xmlns:xlink="http://www.w3.org/1999/xlink" x="0px" y="0px"
	 viewBox="0 0 700 700" enable-background="new 0 0 700 700" xml:space="preserve">
<g id="arrow">
	<path id="fleche" fill="#1D1D1B" d="M65.0919,314.3432C55.3731,324.1758,50,336.6358,50,349.6715
		c0,20.3526,12.9182,33.9571,15.2053,36.1309l210.5939,210.6022c26.754,26.8705,64.3678,26.7554,91.2352-0.1151l36.8147-36.9299
		L257.049,412.6694h329.6125c32.8128-0.1151,56.8209-19.2082,62.7663-49.7353L650,342.4663l-0.4571-4.8012
		c-5.7168-30.412-30.4123-50.3076-62.8814-50.3076H257.049l146.8001-146.6902l-36.8147-36.8148
		C353.7725,90.4749,337.8799,83.5,321.1883,83.5c-16.3497,0-32.4691,7.0901-45.3891,20.1223L65.0919,314.3432z"/>
	<rect fill="none" width="700" height="700"/>
</g>
</svg>
