<?xml version="1.0" encoding="utf-8"?>
<!-- Generator: Adobe Illustrator 20.1.0, SVG Export Plug-In . SVG Version: 6.00 Build 0)  -->
<svg version="1.1" id="XMLID_1_" xmlns="http://www.w3.org/2000/svg" xmlns:xlink="http://www.w3.org/1999/xlink" x="0px" y="0px"
	 viewBox="0 0 700 700" enable-background="new 0 0 700 700" xml:space="preserve">
<g id="arrow-down-right">
	<path id="fleche_1_" fill="#1D1D1B" d="M494.9579,549c11.5218-0.0649,22.0303-4.2374,29.7109-11.9146
		c11.9917-11.9863,12.3932-27.6091,12.3259-30.2368l-0.0416-248.102c0.0627-31.587-22.1755-53.6794-53.8438-53.6836l-43.4585,0.0597
		l0.0972,172.878L253.4698,191.8075c-19.4084-19.2639-44.8089-22.1639-66.2998-7.6882l-12.3969,11.717l-2.5594,3.0968
		c-14.5491,21.2787-11.7155,47.5452,7.4224,66.6744l186.2782,186.1932l-172.9569-0.0972l0.0081,43.3708
		c-0.0653,15.6918,5.1925,29.1628,15.0309,38.9966c9.6369,9.6324,23.3155,14.9537,38.6093,14.8904L494.9579,549z"/>
	<rect fill="none" width="700" height="700"/>
</g>
</svg>
