<?xml version="1.0" encoding="utf-8"?>
<!-- Generator: Adobe Illustrator 19.0.0, SVG Export Plug-In . SVG Version: 6.00 Build 0)  -->
<svg version="1.1" id="XMLID_1_" xmlns="http://www.w3.org/2000/svg" xmlns:xlink="http://www.w3.org/1999/xlink" x="0px" y="0px"
	 viewBox="0 0 14.0009 13.9975" enable-background="new 0 0 14.0009 13.9975" xml:space="preserve">
<path id="arrow-oblique" fill="#747476" d="M14.0008,12.2867c-0.0027,0.4688-0.1726,0.8964-0.4852,1.2089
	c-0.488,0.488-1.1239,0.5044-1.2309,0.5017l-10.099,0C0.9,14,0.0009,13.0954,0.0009,11.8069l0.0027-1.7682l7.037,0.0028
	L0.6839,3.6848C0.2121,3.2096-0.0185,2.6462,0.0012,2.0821c0.013-0.3732,0.1355-0.7466,0.3702-1.0948l0.6031-0.6086
	C1.367,0.1104,1.8012-0.0127,2.2311,0.0054C2.75,0.0271,3.2627,0.2545,3.6884,0.6803l6.3568,6.3568L10.0424,0l1.7654,0
	c0.6387-0.0028,1.187,0.2111,1.5873,0.6113c0.392,0.392,0.6085,0.9485,0.6059,1.5708L14.0008,12.2867z"/>
</svg>
