<?xml version="1.0" encoding="utf-8"?>
<!-- Generator: Adobe Illustrator 20.1.0, SVG Export Plug-In . SVG Version: 6.00 Build 0)  -->
<svg version="1.1" id="XMLID_2_" xmlns="http://www.w3.org/2000/svg" xmlns:xlink="http://www.w3.org/1999/xlink" x="0px" y="0px"
	 viewBox="0 0 700 700" enable-background="new 0 0 700 700" xml:space="preserve">
<g id="arrow-left">
	<path id="fleche_5_" fill="#1D1D1B" d="M112.5766,320.2971C104.4776,328.4879,100,338.8673,100,349.7264
		c0,16.9541,10.7652,28.287,12.6711,30.0977l175.4949,175.436c22.295,22.3837,53.6398,22.2877,76.0293-0.0959l30.679-30.7634
		l-122.3334-122.196h274.677c27.344-0.0959,47.3508-16.0008,52.3053-41.4305l0.4768-17.05l-0.3809-3.9995
		c-4.764-25.3338-25.3436-41.9072-52.4012-41.9072h-274.677l122.3334-122.196l-30.679-30.6674
		C353.1438,133.8103,339.8999,128,325.9902,128c-13.6248,0-27.0576,5.9062-37.8242,16.7623L112.5766,320.2971z"/>
	<rect fill="none" width="700" height="700"/>
</g>
</svg>
