<?xml version="1.0" encoding="utf-8"?>
<!-- Generator: Adobe Illustrator 19.0.0, SVG Export Plug-In . SVG Version: 6.00 Build 0)  -->
<svg version="1.1" id="XMLID_2_" xmlns="http://www.w3.org/2000/svg" xmlns:xlink="http://www.w3.org/1999/xlink" x="0px" y="0px"
	 viewBox="0 0 18.143 18.0728" enable-background="new 0 0 18.143 18.0728" xml:space="preserve">
<path id="arrow" fill="#747476" d="M17.6312,10.2455c0.3296-0.3334,0.5118-0.7559,0.5118-1.1979
	c0-0.6901-0.438-1.1514-0.5156-1.2251l-7.1411-7.141C9.5791-0.2297,8.3036-0.2258,7.3925,0.6853L6.1442,1.9375l4.9779,4.9739H2.1323
	c-0.6696,0.0023-1.2311,0.2378-1.616,0.6505C0.2616,7.835,0.0842,8.1857,0.0039,8.5978L0,9.4547
	c0.0878,0.4673,0.3078,0.8613,0.6246,1.1526c0.3823,0.3515,0.9056,0.5533,1.5077,0.5533h8.9898l-4.9779,4.9739l1.2484,1.2483
	c0.4497,0.4536,0.9886,0.6901,1.5546,0.6901c0.5544,0,1.101-0.2404,1.5391-0.6823L17.6312,10.2455z"/>
</svg>
