<?xml version="1.0" encoding="UTF-8" standalone="no"?>
<svg version="1.1" xmlns="http://www.w3.org/2000/svg" xmlns:xlink="http://www.w3.org/1999/xlink" x="0px" y="0px"
   viewBox="0 0 1183 1180" enable-background="new 0 0 1183 1180" xml:space="preserve">
    <g id="calculator">
        <g>
            <path id="plus" d="m197.41,840.375 h 83.352 v -83.348 c 0,-16.566 13.433,-30 30,-30 16.566,0 30,13.434 30,30 v 83.348 h 83.343 c 16.571,0 30,13.43 30,30 0,16.566 -13.429,30 -30,30 h -83.343 v 83.348 c 0,16.567 -13.434,29.997 -30,29.997 -16.567,0 -30,-13.43 -30,-29.997 V 900.375 H 197.41 c -16.566,0 -30,-13.434 -30,-30 0,-16.57 13.434,-30 30,-30" />
            <path id="moins" d="m 758.063,840.375 h 226.699 c 16.568,0 29.998,13.43 29.998,30 0,16.566 -13.43,30 -29.998,30 H 758.063 c -16.575,0 -30,-13.434 -30,-30 0,-16.57 13.425,-30 30,-30" />
            <path id="fois" d="m 209.398,208.762 c 5.856,-5.86 13.536,-8.789 21.211,-8.789 7.676,0 15.36,2.929 21.215,8.789 l 58.934,58.933 58.933,-58.933 c 5.86,-5.86 13.536,-8.789 21.215,-8.789 7.68,0 15.36,2.929 21.211,8.789 11.723,11.711 11.723,30.703 0.008,42.422 l -58.941,58.945 58.941,58.934 c 11.715,11.718 11.715,30.714 -0.008,42.421 -11.707,11.719 -30.707,11.719 -42.426,0 l -58.933,-58.933 -58.934,58.933 c -11.711,11.711 -30.711,11.731 -42.426,0 -11.718,-11.707 -11.718,-30.703 -0.003,-42.421 l 58.941,-58.934 -58.941,-58.945 c -11.715,-11.719 -11.715,-30.711 0.003,-42.422" />
            <path id="cardre" d="M 1122.98,620.25 H 621.488 v 500.25 h 501.492 z m -137.41,-281 H 758.871 c -16.57,0 -30,13.43 -30,30 0,16.57 13.43,30 30,30 H 985.57 c 16.57,0 30,-13.43 30,-30 0,-16.57 -13.43,-30 -30,-30 z m 0,-118.254 H 758.871 c -16.57,0 -30,13.43 -30,30 0,16.574 13.43,30 30,30 H 985.57 c 16.57,0 30,-13.426 30,-30 0,-16.57 -13.43,-30 -30,-30 z M 561.492,620.25 H 60 v 500.25 h 501.492 z m 0,-560.25 H 60 V 560.25 H 561.492 Z M 1152.98,1180.5 H 30 c -16.5664,0 -30,-13.43 -30,-30 V 30 C 0,13.4297 13.4336,0 30,0 h 1122.98 c 16.58,0 30,13.4297 30,30 v 1120.5 c 0,16.57 -13.42,30 -30,30" />
            <rect fill="none" width="1183" height="1180"/>
        </g>
    </g>
</svg>
