<?xml version="1.0" encoding="utf-8"?>
<!-- Generator: Adobe Illustrator 20.1.0, SVG Export Plug-In . SVG Version: 6.00 Build 0)  -->
<svg version="1.1" id="XMLID_1_" xmlns="http://www.w3.org/2000/svg" xmlns:xlink="http://www.w3.org/1999/xlink" x="0px" y="0px"
	 viewBox="0 0 700 700" enable-background="new 0 0 700 700" xml:space="preserve">
<g id="collectivites">
	<g>
		<path d="M362,375H172c-6.627,0-12,5.373-12,12v141h214V387C374,380.373,368.627,375,362,375z M350,504H184V399h166V504z"/>
		<path d="M612,262c0-28.6797-10.2666-82.3213-12-91.1733V112c0-6.627-5.373-12-12-12H112c-6.627,0-12,5.373-12,12v58.3467
			c-1.3848,7.085-12,62.3799-12,91.6533c0,18.5005,4.2593,33.8018,12,45.0068V600h500V307.0068
			C607.7407,295.8018,612,280.5005,612,262z M112,262c0-21.3408,6.5732-60.0166,9.8564-78h49.4766v107.0693
			C163.473,299.3247,152.8646,304,141.667,304C117.1465,304,112,281.1602,112,262z M195.333,184h59.334v107.0698
			C246.8057,299.3242,236.1974,304,225,304s-21.8057-4.6758-29.667-12.9302V184z M278.667,184H338v107.0698
			C330.1387,299.3242,319.5304,304,308.333,304c-11.1976,0-21.806-4.6753-29.666-12.9307V184z M362,184h59.333v107.0693
			C413.473,299.3247,402.8646,304,391.667,304c-11.1985,0-21.807-4.6753-29.667-12.9307V184z M445.333,184h59.334v107.0698
			C496.8057,299.3242,486.1973,304,475,304s-21.8057-4.6758-29.667-12.9302V184z M528.667,184h49.3955
			C581.3701,201.9727,588,240.6602,588,262c0,19.1602-5.1465,42-29.667,42c-11.1978,0-21.8062-4.6753-29.666-12.9307V184z M576,124
			v36H124v-36H576z M516,576h-82V399h82V576z M540,576V387c0-6.627-5.373-12-12-12H422c-6.627,0-12,5.373-12,12v189H124V325.2471
			c5.3877,1.8057,11.292,2.7529,17.667,2.7529c15.3672,0,29.9951-5.458,41.666-15.29C195.0049,322.543,209.6318,328,225,328
			s29.9951-5.457,41.667-15.29c11.6709,9.832,26.2988,15.29,41.666,15.29c15.3682,0,29.9951-5.457,41.667-15.29
			c11.6709,9.832,26.2988,15.29,41.667,15.29c15.3672,0,29.9951-5.458,41.666-15.29C445.0049,322.543,459.6318,328,475,328
			s29.9951-5.457,41.667-15.29c11.6709,9.832,26.2988,15.29,41.666,15.29c6.375,0,12.2793-0.9473,17.667-2.7529V576H540z"/>
	</g>
	<rect x="0" y="0" transform="matrix(-1 -4.489532e-11 4.489532e-11 -1 700 700)" fill="none" width="700" height="700"/>
</g>
</svg>
