<svg xmlns="http://www.w3.org/2000/svg" width="41.915" height="41.916" viewBox="0 0 41.915 41.916">
  <g id="Mon_compte" data-name="Mon compte" transform="translate(-986.979 -2050.98)">
    <g id="Groupe_3307" data-name="Groupe 3307" transform="translate(986.979 2050.98)">
      <path id="Soustraction_32" data-name="Soustraction 32" d="M6.109,12.955A5.983,5.983,0,0,1,0,6.694C0,2.627,2.4,0,6.109,0c3.477,0,5.906,2.553,5.906,6.208C12.015,10.306,9.7,12.955,6.109,12.955ZM5.774,1.511C3.358,1.511,1.8,3.365,1.8,6.232c0,3.261,1.7,5.209,4.546,5.209,2.392,0,3.878-1.808,3.878-4.719C10.222,3.265,8.725,1.511,5.774,1.511Z" transform="translate(14.951 6.799)"/>
      <path id="Tracé_1423" data-name="Tracé 1423" d="M411.4,779.013c3.8,0,6.353,2.46,6.837,6.58.3,2.595.959,2.595,1.592,2.595h.584l0-1.33c0-5.864-3.35-9.505-8.742-9.505h-.537c-5.392,0-8.742,3.641-8.742,9.5l0,1.334h.584c.63,0,1.283,0,1.59-2.595C405.045,781.473,407.6,779.013,411.4,779.013Z" transform="translate(-390.441 -755.552)"/>
      <g id="Groupe_3306" data-name="Groupe 3306" transform="translate(0 0)">
        <path id="Tracé_1424" data-name="Tracé 1424" d="M393.686,765.137a20.958,20.958,0,1,1,20.957-20.958A20.982,20.982,0,0,1,393.686,765.137Zm0-40.3a19.346,19.346,0,1,0,19.346,19.346A19.368,19.368,0,0,0,393.686,724.833Z" transform="translate(-372.728 -723.221)"/>
      </g>
    </g>
  </g>
</svg>
