<?xml version="1.0" encoding="utf-8"?>
<!-- Generator: Adobe Illustrator 20.1.0, SVG Export Plug-In . SVG Version: 6.00 Build 0)  -->
<svg version="1.1" id="XMLID_1_" xmlns="http://www.w3.org/2000/svg" xmlns:xlink="http://www.w3.org/1999/xlink" x="0px" y="0px"
	 viewBox="0 0 700 700" enable-background="new 0 0 700 700" xml:space="preserve">
  <g>
    <path d="M648.11,498.59c-2.13-6.23-6.22-13.61-71.72-51.73-66-38.41-75.58-38.41-80.19-38.41-21.4,0-39,21.74-57.6,44.76-7.38,9.13-19.47,24.07-25.3,27.57-4.59-1.09-14-6.86-18.21-9.45-2-1.23-3.9-2.39-5.75-3.48l-.34-.2C319.33,429,271,380.67,232.35,311l-.2-.34c-1.08-1.86-2.25-3.75-3.48-5.75-2.6-4.23-8.37-13.63-9.46-18.21,3.5-5.83,18.44-17.92,27.57-25.3,23-18.62,44.76-36.2,44.76-57.6,0-4.61,0-14.2-38.41-80.19C215,58.11,207.64,54,201.41,51.89a38.31,38.31,0,0,0-14.84-2.35c-16.57,0-47.17,6.79-63.13,14-25.78,11.15-41,38.61-51.14,56.79l-.09.16C57,148.6,49.54,175.85,49.54,203.79c0,35,11.73,66,23.07,96,1.89,5,3.85,10.19,5.67,15.17,9.94,27.57,21.36,51.63,34.91,73.54C157,459.56,240.44,543,311.45,586.81c21.91,13.55,46,25,73.48,34.89,5,1.84,10.23,3.8,15.24,5.69,30,11.34,61,23.07,96,23.07,27.94,0,55.19-7.41,83.31-22.66l.16-.09c18.18-10.1,45.64-25.36,56.79-51.14,7.2-16,14-46.57,14-63.13A38.31,38.31,0,0,0,648.11,498.59Zm-45.33,62.88-.16.37c-6.11,14.27-26.95,25.86-40.78,33.55-22.86,12.38-43.71,18.15-65.63,18.15-28.25,0-54.84-10-83-20.68-5.11-1.93-10.39-3.92-15.7-5.86-25.14-9.07-46.94-19.4-66.66-31.59-65.64-40.54-145.72-120.62-186.27-186.27-12.19-19.71-22.52-41.52-31.61-66.72-1.92-5.25-3.91-10.53-5.84-15.64-10.64-28.15-20.68-54.74-20.68-83,0-21.91,5.77-42.77,18.15-65.63,7.69-13.83,19.28-34.67,33.55-40.78l.37-.16c10.91-5,36-10.61,47.57-10.76,5.63,7.41,18.46,27,35.88,57,19.19,33.06,29.22,53.32,32.13,60.72-3.91,7-21,20.85-30.53,28.53-22.24,18-41.45,33.52-41.45,52.82,0,14.14,8.37,27.77,15.09,38.71,1.08,1.76,2.1,3.42,3,4.88C242.33,405,295,457.67,370.9,499.83c1.46.85,3.12,1.88,4.88,3,10.95,6.72,24.57,15.09,38.71,15.09,19.3,0,34.83-19.21,52.82-41.45,7.69-9.5,21.53-26.62,28.53-30.53,7.4,2.92,27.66,12.94,60.72,32.13,30,17.41,49.56,30.24,57,35.88C613.38,525.51,607.74,550.56,602.78,561.47Z"/>
    <path d="M450.49,275,614,111.09c0,50.06.1,158.06.06,163.91H632a18,18,0,0,0,18-18V50H443a18,18,0,0,0-18,18V86H588.07L425,249.42Z"/>
  </g>
</svg>
