<svg id="elements" xmlns="http://www.w3.org/2000/svg" viewBox="0 0 600 600">
  <title>contact-us-borderless</title>
  <g>
    <path d="M597.65,448.36c-2.12-6.22-6.21-13.59-71.61-51.65-65.89-38.35-75.46-38.35-80.06-38.35-21.37,0-38.92,21.71-57.51,44.69-7.37,9.12-19.44,24-25.26,27.53-4.59-1.09-14-6.85-18.18-9.44-2-1.23-3.89-2.39-5.75-3.47l-.34-.2c-69.57-38.61-117.81-86.84-156.41-156.41l-.2-.34c-1.08-1.86-2.24-3.75-3.47-5.75-2.59-4.22-8.36-13.61-9.44-18.18,3.49-5.83,18.41-17.89,27.53-25.27,23-18.59,44.69-36.15,44.69-57.51,0-4.6,0-14.18-38.35-80.06C165.23,8.55,157.86,4.47,151.64,2.35A38.25,38.25,0,0,0,136.82,0c-16.54,0-47.1,6.78-63,14C48,25.1,32.8,52.52,22.72,70.67l-.09.16C7.4,98.91,0,126.12,0,154,0,189,11.71,219.94,23,249.91c1.89,5,3.84,10.17,5.66,15.15,9.93,27.53,21.33,51.55,34.85,73.42,43.8,70.92,127.06,154.18,198,198,21.88,13.53,45.9,24.93,73.37,34.83,5,1.84,10.21,3.79,15.21,5.68,30,11.32,61,23,95.89,23,27.9,0,55.1-7.4,83.18-22.63l.16-.09C547.48,567.2,574.9,552,586,526.22c7.19-15.94,14-46.49,14-63A38.25,38.25,0,0,0,597.65,448.36Zm-45.26,62.79-.16.37c-6.1,14.24-26.91,25.82-40.72,33.5-22.82,12.37-43.65,18.13-65.53,18.13-28.2,0-54.75-10-82.86-20.65-5.1-1.93-10.37-3.92-15.67-5.85-25.1-9.05-46.87-19.37-66.56-31.54-65.54-40.48-145.5-120.44-186-186-12.17-19.68-22.48-41.45-31.56-66.62-1.91-5.24-3.9-10.51-5.83-15.61C46.89,208.77,36.86,182.22,36.86,154c0-21.88,5.76-42.7,18.13-65.53,7.67-13.81,19.25-34.62,33.5-40.72l.37-.16c10.9-5,35.91-10.59,47.49-10.74,5.63,7.4,18.43,26.94,35.82,56.89,19.17,33,29.18,53.24,32.09,60.63-3.9,7-21,20.81-30.48,28.49-22.21,18-41.38,33.47-41.38,52.74,0,14.12,8.35,27.73,15.07,38.65,1.08,1.75,2.09,3.41,2.95,4.87,42.1,75.79,94.68,128.37,170.47,170.47,1.46.85,3.11,1.87,4.87,2.95,10.93,6.71,24.53,15.07,38.65,15.07,19.27,0,34.78-19.18,52.74-41.38,7.67-9.49,21.5-26.58,28.49-30.48,7.38,2.91,27.62,12.92,60.63,32.09,30,17.39,49.49,30.2,56.89,35.82C563,475.25,557.35,500.25,552.39,511.15Z"/>
    <path d="M400.49,225,564,61.09c0,50.06.1,158.06.06,163.91H582a18,18,0,0,0,18-18V0H393a18,18,0,0,0-18,18V36H538.07L375,199.42Z"/>
  </g>
</svg>
