<?xml version="1.0" encoding="utf-8"?>
<!-- Generator: Adobe Illustrator 20.1.0, SVG Export Plug-In . SVG Version: 6.00 Build 0)  -->
<svg version="1.1" id="XMLID_2_" xmlns="http://www.w3.org/2000/svg" xmlns:xlink="http://www.w3.org/1999/xlink" x="0px" y="0px"
	 viewBox="0 0 700 700" enable-background="new 0 0 700 700" xml:space="preserve">
<g id="document-file">
	<g>
		<path d="M410.4561,75H204c-29.7754,0-54,24.2241-54,54v496h346c29.7754,0,54-24.2241,54-54V214.5439L410.4561,75z M396,111.4561
			L513.5439,229H396V111.4561z M514,571c0,9.9253-8.0752,18-18,18H186V129c0-9.9253,8.0752-18,18-18h156v154h154V571z"/>
		<rect x="222" y="301" width="138" height="36"/>
		<rect x="222" y="373" width="256" height="36"/>
		<rect x="222" y="445" width="256" height="36"/>
		<rect x="222" y="517" width="256" height="36"/>
	</g>
	<rect fill="none" width="700" height="700"/>
</g>
</svg>
