<?xml version="1.0" encoding="utf-8"?>
<!-- Generator: Adobe Illustrator 20.1.0, SVG Export Plug-In . SVG Version: 6.00 Build 0)  -->
<svg id="elements" xmlns="http://www.w3.org/2000/svg" viewBox="0 0 700 700">
  <g id="document-group">
    <g>
      <path d="M460.46,25H254a54.06,54.06,0,0,0-54,54v46H154a54.06,54.06,0,0,0-54,54V675H446a54.06,54.06,0,0,0,54-54V575h46a54.06,54.06,0,0,0,54-54V164.54ZM563.54,179H446V61.46ZM464,621a18,18,0,0,1-18,18H136V179a18,18,0,0,1,18-18h46V575H464ZM564,521a18,18,0,0,1-18,18H236V79a18,18,0,0,1,18-18H410V215H564Z"/>
      <rect x="272" y="251" width="138" height="36"/>
      <rect x="272" y="323" width="256" height="36"/>
      <rect x="272" y="395" width="256" height="36"/>
      <rect x="272" y="467" width="256" height="36"/>
    </g>
    <rect fill="none" width="700" height="700"/>
  </g>
</svg>
