<?xml version="1.0" encoding="utf-8"?>
<!-- Generator: Adobe Illustrator 20.1.0, SVG Export Plug-In . SVG Version: 6.00 Build 0)  -->
<svg version="1.1" id="XMLID_1_" xmlns="http://www.w3.org/2000/svg" xmlns:xlink="http://www.w3.org/1999/xlink" x="0px" y="0px"
	 viewBox="0 0 700 700" enable-background="new 0 0 700 700" xml:space="preserve">
<g id="edit">
	<path d="M609.272,171.8164l-81.0879-81.0879C518.0127,80.5566,504.4521,74.9551,490,74.9551s-28.0127,5.6016-38.1841,15.7734
		L131.8535,410.6904L74.6128,625.3438l214.7554-56.873L609.272,248.1836C630.3267,227.1289,630.3267,192.8711,609.272,171.8164z
		 M420.0001,173.4556L526.5445,280L288.2262,518.7705L181.4558,412L420.0001,173.4556z M142.1596,511.7598l18.5569-69.5879
		l97.3473,97.3477l-69.689,18.4556L142.1596,511.7598z M583.8159,222.7285l-31.8159,31.8159L445.4556,148l31.8163-31.8164
		c3.3716-3.3711,7.8921-5.2285,12.728-5.2285s9.3564,1.8574,12.728,5.2285l81.0879,81.0879
		c3.3721,3.3721,5.229,7.8926,5.229,12.7285S587.188,219.3564,583.8159,222.7285z"/>
	<rect x="0" y="0" transform="matrix(-1 -4.488244e-11 4.488244e-11 -1 700 700)" fill="none" width="700" height="700"/>
</g>
</svg>
