<?xml version="1.0" encoding="utf-8"?>
<!-- Generator: Adobe Illustrator 20.1.0, SVG Export Plug-In . SVG Version: 6.00 Build 0)  -->
<svg version="1.1" id="XMLID_1_" xmlns="http://www.w3.org/2000/svg" xmlns:xlink="http://www.w3.org/1999/xlink" x="0px" y="0px"
	 viewBox="0 0 700 700" enable-background="new 0 0 700 700" xml:space="preserve">
<g id="entreprises">
	<g>
		<path d="M350,343c11.0278,0,20-8.9717,20-20s-8.9722-20-20-20s-20,8.9717-20,20S338.9722,343,350,343z M350,319
			c2.2056,0,4,1.7939,4,4s-1.7944,4-4,4s-4-1.7939-4-4S347.7944,319,350,319z"/>
		<path d="M589,187H444v-25.5996c0-19.8506-16.1494-36-36-36H292c-19.8506,0-36,16.1494-36,36V187H111c-19.8506,0-36,16.1494-36,36
			v132v184c0,19.8506,16.1494,36,36,36h478c19.8506,0,36-16.1494,36-36V355V223C625,203.1494,608.8506,187,589,187z M280,161.4004
			c0-6.6172,5.3833-12,12-12h116c6.6167,0,12,5.3828,12,12V187H280V161.4004z M99,223c0-6.6172,5.3833-12,12-12h478
			c6.6167,0,12,5.3828,12,12v132c0,6.6172-5.3833,12-12,12H111c-6.6167,0-12-5.3828-12-12V223z M589,551H111
			c-6.6167,0-12-5.3828-12-12V388.9355c3.7559,1.3325,7.7932,2.0645,12,2.0645h478c4.2068,0,8.2441-0.7319,12-2.0645V539
			C601,545.6172,595.6167,551,589,551z"/>
	</g>
	<rect x="0" y="0" transform="matrix(-1 -4.489532e-11 4.489532e-11 -1 700 700)" fill="none" width="700" height="700"/>
</g>
</svg>
