<?xml version="1.0" encoding="utf-8"?>
<!-- Generator: Adobe Illustrator 20.1.0, SVG Export Plug-In . SVG Version: 6.00 Build 0)  -->
<svg version="1.1" id="XMLID_1_" xmlns="http://www.w3.org/2000/svg" xmlns:xlink="http://www.w3.org/1999/xlink" x="0px" y="0px"
	 viewBox="0 0 700 700" enable-background="new 0 0 700 700" xml:space="preserve">
<g id="facebook">
	<path d="M572.4047,100H127.5962C112.351,100,100,112.3528,100,127.5962v444.8078C100,587.6436,112.351,600,127.5962,600H367.066
		V406.374h-65.1595v-75.4601h65.1595v-55.6496c0-64.5809,39.4422-99.7465,97.0541-99.7465c27.5953,0,51.314,2.0545,58.2275,2.9729
		v67.4908l-39.959,0.0182c-31.3311,0-37.3978,14.8885-37.3978,36.7363v48.1778h74.7242l-9.7301,75.4601h-64.9941V600h127.4138
		C587.6436,600,600,587.6436,600,572.4039V127.5962C600,112.3528,587.6436,100,572.4047,100z"/>
	<rect fill="none" width="700" height="700"/>
</g>
</svg>
