<?xml version="1.0" encoding="utf-8"?>
<!-- Generator: Adobe Illustrator 20.1.0, SVG Export Plug-In . SVG Version: 6.00 Build 0)  -->
<svg version="1.1" id="XMLID_1_" xmlns="http://www.w3.org/2000/svg" xmlns:xlink="http://www.w3.org/1999/xlink" x="0px" y="0px"
	 viewBox="0 0 700 700" enable-background="new 0 0 700 700" xml:space="preserve">
<g id="faq-thick">
	<path fill="none" stroke="#1D1D1B" stroke-width="100" stroke-miterlimit="10" d="M337,99"/>
	<path fill="#1D1D1B" d="M350,100c-138.0712,0-250,100.7358-250,225c0,58.7275,25.0093,112.1914,65.9531,152.2593
		c-0.4768,0.9224-0.9598,1.8394-1.4542,2.7407c-17.3661,28.2939-46.4908,58.6641-56.0344,68.6108
		C103.2306,554.0586,100,561.584,100,569.897C100,586.5225,112.9365,600,128.8918,600c41.3111,0,111.3845-19.3179,161.7688-56.394
		C309.6836,547.7744,329.5515,550,350,550c138.0713,0,250-100.7358,250-225S488.0713,100,350,100z M459.8804,409.7695
		c-13.7532,12.3774-29.9513,22.1655-48.1454,29.0913C392.3179,446.252,371.5472,450,350,450s-42.3179-3.748-61.735-11.1392
		c-18.1941-6.9258-34.3922-16.7139-48.1454-29.0913C214.2481,386.4849,200,356.3799,200,325s14.2481-61.4849,40.1196-84.7695
		c13.7532-12.3774,29.9513-22.1655,48.1454-29.0913C307.6821,203.748,328.4528,200,350,200s42.3179,3.748,61.735,11.1392
		c18.1941,6.9258,34.3922,16.7139,48.1454,29.0913C485.7518,263.5151,500,293.6201,500,325S485.7518,386.4849,459.8804,409.7695z"/>
	<rect x="0" y="0" transform="matrix(-1 -4.488244e-11 4.488244e-11 -1 700 700)" fill="none" width="700" height="700"/>
</g>
</svg>
