<?xml version="1.0" encoding="utf-8"?>
<!-- Generator: Adobe Illustrator 20.1.0, SVG Export Plug-In . SVG Version: 6.00 Build 0)  -->
<svg version="1.1" id="XMLID_2_" xmlns="http://www.w3.org/2000/svg" xmlns:xlink="http://www.w3.org/1999/xlink" x="0px" y="0px"
	 viewBox="0 0 700 700" enable-background="new 0 0 700 700" xml:space="preserve">
<g id="frontdesk">
	<g>
		<path d="M350,275.1328c25.4443-0.001,46.6553-8.6533,61.3418-25.0234c13.8359-15.4229,21.1494-37.0264,21.1494-62.4766
			s-7.3135-47.0547-21.1494-62.4775c-14.6865-16.3701-35.8975-25.0225-61.3418-25.0225s-46.6553,8.6523-61.3418,25.0225
			c-13.8359,15.4229-21.1494,37.0273-21.1494,62.4775s7.3135,47.0537,21.1494,62.4775
			C303.3447,266.4805,324.5557,275.1328,350,275.1328z M350,136.1328c21.209,0,46.4912,8.9346,46.4912,51.5
			c0,42.5645-25.2822,51.499-46.4912,51.5c-21.209,0-46.4912-8.9346-46.4912-51.5S328.791,136.1328,350,136.1328z"/>
		<path d="M582,564H475V425c0-68.9248-56.0752-125-125-125s-125,56.0752-125,125v139H118c-9.9414,0-18,8.0586-18,18s8.0586,18,18,18
			h464c9.9414,0,18-8.0586,18-18S591.9414,564,582,564z M261,425c0-49.0752,39.9248-89,89-89s89,39.9248,89,89v139H261V425z"/>
	</g>
	<rect x="0" y="0" transform="matrix(-1 -4.488244e-11 4.488244e-11 -1 700 700)" fill="none" width="700" height="700"/>
</g>
</svg>
