<svg width="48" height="50" fill="none" xmlns="http://www.w3.org/2000/svg">
  <path d="m23.45 1.103-.004.003L1.975 16.88l-.002.001a1.446 1.446 0 0 0-.594 1.174v29.106c0 .81.66 1.45 1.46 1.45h14.53c.801 0 1.46-.64 1.46-1.45V30.986h10.98v16.176c0 .81.66 1.45 1.46 1.45h14.283l.012.012h.246c.802 0 1.461-.64 1.461-1.45V18.067c0-.465-.218-.898-.595-1.174L25.191 1.106l-.006-.005-.007-.004a1.5 1.5 0 0 0-1.729.006Zm.863 2.97 20.025 14.722v26.917H32.73V29.535c0-.81-.659-1.45-1.46-1.45H17.369c-.802 0-1.461.64-1.461 1.45v16.177H4.3V18.784l20.013-14.71Z" fill="#1A1617" stroke="#000" stroke-width="1.2"/>
</svg>
