<?xml version="1.0" encoding="utf-8"?>
<!-- Generator: Adobe Illustrator 20.0.0, SVG Export Plug-In . SVG Version: 6.00 Build 0)  -->
<svg version="1.1" id="XMLID_1_" xmlns="http://www.w3.org/2000/svg" xmlns:xlink="http://www.w3.org/1999/xlink" x="0px" y="0px"
	 viewBox="0 0 500 500" enable-background="new 0 0 500 500" xml:space="preserve">
<path id="instagram_1_" d="M498.3521,353.1823c-1.9526,40.0357-11.067,75.5146-40.3615,104.8091
	c-29.2945,29.2944-64.7733,38.4081-104.8083,40.3607c-34.5029,1.9534-68.6793,1.6276-103.1823,1.6276
	c-34.5022,0-68.6793,0.3258-103.1815-1.6276c-40.0357-1.9526-75.5146-11.0663-104.809-40.3607
	C12.715,428.6968,3.6006,393.218,1.6479,353.1815C-0.3054,318.6793,0.0204,284.5022,0.0204,250s-0.3258-68.6793,1.6276-103.1815
	c1.9526-40.0357,11.0671-75.5146,40.3615-104.809s64.7733-38.4082,104.809-40.3615C181.3207-0.3054,215.4978,0.0204,250,0.0204
	c34.5029,0,68.6793-0.3258,103.1815,1.6276c40.0357,1.9534,75.5146,11.0671,104.8091,40.3615s38.4089,64.7733,40.3615,104.809
	c1.9534,34.5022,1.6276,68.6793,1.6276,103.1815C499.9796,284.5029,500.3054,318.6793,498.3521,353.1823z M102.551,55.0291
	C91.1589,59.586,82.6961,65.1195,73.9074,73.9074c-8.7879,8.7886-14.3214,17.2515-18.8783,28.6436
	C42.0095,135.4264,44.9388,213.5444,44.9388,250s-2.9293,114.5744,10.0904,147.449c4.5568,11.3921,10.0904,19.8549,18.8783,28.6436
	c8.7886,8.7886,17.2515,14.3214,28.6436,18.879c32.8746,13.0197,110.9934,10.0896,147.449,10.0896s114.5744,2.9301,147.449-10.0896
	c11.3921-4.5576,19.8549-10.0904,28.6436-18.879c8.7879-8.7886,14.3214-17.2515,18.8783-28.6436
	c13.0197-32.8746,10.0904-110.9935,10.0904-147.449s2.9293-114.5736-10.0904-147.449
	c-4.5569-11.3921-10.0904-19.8549-18.8783-28.6436c-8.7886-8.7879-17.2515-14.3214-28.6436-18.8783
	C364.5744,42.0095,286.4555,44.9388,250,44.9388S135.4256,42.0095,102.551,55.0291z M250,378.2449
	c-70.9577,0-128.2449-57.2872-128.2449-128.2449S179.0423,121.7551,250,121.7551S378.2449,179.0423,378.2449,250
	S320.9577,378.2449,250,378.2449z M250,166.6735c-45.8951,0-83.3265,37.4322-83.3265,83.3265
	c0,45.8951,37.4315,83.3265,83.3265,83.3265S333.3265,295.8951,333.3265,250C333.3265,204.1057,295.8951,166.6735,250,166.6735z
	 M383.4526,146.4927c-16.5999,0-29.9453-13.3447-29.9453-29.9453c0-16.5998,13.3455-29.9453,29.9453-29.9453
	c16.5998,0,29.9453,13.3455,29.9453,29.9453C413.398,133.148,400.0525,146.4927,383.4526,146.4927z"/>
</svg>
