<?xml version="1.0" encoding="utf-8"?>
<!-- Generator: Adobe Illustrator 20.0.0, SVG Export Plug-In . SVG Version: 6.00 Build 0)  -->
<svg version="1.1" id="XMLID_2_" xmlns="http://www.w3.org/2000/svg" xmlns:xlink="http://www.w3.org/1999/xlink" x="0px" y="0px"
	 viewBox="0 0 575 575" enable-background="new 0 0 575 575" xml:space="preserve">
<path id="instagram_1_" d="M573.1049,406.1596c-2.2455,46.0411-12.7271,86.8418-46.4158,120.5304
	c-33.6886,33.6886-74.4893,44.1694-120.5295,46.4149c-39.6784,2.2464-78.9812,1.8717-118.6596,1.8717
	c-39.6775,0-78.9812,0.3747-118.6587-1.8717c-46.0411-2.2455-86.8418-12.7263-120.5304-46.4149
	C14.6223,493.0013,4.1406,452.2007,1.8951,406.1587C-0.3512,366.4812,0.0234,327.1775,0.0234,287.5s-0.3747-78.9812,1.8717-118.6587
	c2.2455-46.0411,12.7271-86.8418,46.4158-120.5304S122.8002,4.1415,168.8413,1.8951C208.5188-0.3512,247.8225,0.0234,287.5,0.0234
	c39.6784,0,78.9812-0.3747,118.6587,1.8717c46.041,2.2464,86.8418,12.7271,120.5304,46.4158
	c33.6887,33.6886,44.1703,74.4893,46.4158,120.5304c2.2464,39.6775,1.8717,78.9812,1.8717,118.6587
	C574.9766,327.1784,575.3513,366.4812,573.1049,406.1596z M117.9337,63.2835c-13.1009,5.2404-22.8332,11.6039-32.9401,21.71
	c-10.1061,10.1069-16.4696,19.8392-21.71,32.9401C48.3109,155.7404,51.6796,245.5761,51.6796,287.5
	s-3.3687,131.7605,11.6039,169.5663c5.2404,13.101,11.6039,22.8332,21.71,32.9401c10.1069,10.1069,19.8392,16.4696,32.9401,21.7109
	C155.7395,526.69,245.5761,523.3204,287.5,523.3204s131.7605,3.3696,169.5663-11.6031
	c13.101-5.2412,22.8332-11.6039,32.9401-21.7109c10.1061-10.1069,16.4696-19.8392,21.71-32.9401
	c14.9726-37.8058,11.6039-127.6425,11.6039-169.5663s3.3687-131.7596-11.6039-169.5663
	c-5.2404-13.1009-11.6039-22.8332-21.71-32.9401c-10.1069-10.1061-19.8392-16.4696-32.9401-21.71
	C419.2605,48.3109,329.4239,51.6796,287.5,51.6796S155.7395,48.3109,117.9337,63.2835z M287.5,434.9817
	c-81.6014,0-147.4817-65.8803-147.4817-147.4817S205.8986,140.0183,287.5,140.0183S434.9817,205.8986,434.9817,287.5
	S369.1014,434.9817,287.5,434.9817z M287.5,191.6745c-52.7793,0-95.8255,43.0471-95.8255,95.8255
	c0,52.7793,43.0462,95.8255,95.8255,95.8255s95.8255-43.0462,95.8255-95.8255C383.3255,234.7216,340.2793,191.6745,287.5,191.6745z
	 M440.9705,168.4666c-19.0898,0-34.4371-15.3464-34.4371-34.4371c0-19.0898,15.3473-34.4371,34.4371-34.4371
	s34.4371,15.3473,34.4371,34.4371C475.4077,153.1202,460.0603,168.4666,440.9705,168.4666z"/>
</svg>
