<?xml version="1.0" encoding="utf-8"?>
<!-- Generator: Adobe Illustrator 20.0.0, SVG Export Plug-In . SVG Version: 6.00 Build 0)  -->
<svg version="1.1" id="XMLID_2_" xmlns="http://www.w3.org/2000/svg" xmlns:xlink="http://www.w3.org/1999/xlink" x="0px" y="0px"
	 viewBox="0 0 700 700" enable-background="new 0 0 700 700" xml:space="preserve">
<g id="instagram">
	<path id="insta" d="M598.3521,453.1823c-1.9526,40.0357-11.0671,75.5146-40.3615,104.809
		c-29.2945,29.2945-64.7733,38.4082-104.8083,40.3608c-34.5029,1.9534-68.6793,1.6276-103.1823,1.6276
		c-34.5022,0-68.6793,0.3258-103.1815-1.6276c-40.0357-1.9526-75.5146-11.0663-104.809-40.3608
		c-29.2945-29.2944-38.4089-64.7733-40.3615-104.8098c-1.9534-34.5022-1.6276-68.6793-1.6276-103.1815
		s-0.3258-68.6793,1.6276-103.1815c1.9526-40.0357,11.0671-75.5146,40.3615-104.809s64.7733-38.4082,104.809-40.3615
		c34.5022-1.9534,68.6793-1.6276,103.1815-1.6276c34.5029,0,68.6793-0.3258,103.1815,1.6276
		c40.0357,1.9534,75.5146,11.0671,104.8091,40.3615c29.2944,29.2945,38.4089,64.7733,40.3615,104.809
		c1.9534,34.5022,1.6276,68.6793,1.6276,103.1815C599.9796,384.5029,600.3054,418.6793,598.3521,453.1823z M202.551,155.0291
		c-11.3921,4.5569-19.8549,10.0904-28.6436,18.8783c-8.7879,8.7887-14.3214,17.2515-18.8783,28.6436
		C142.0095,235.4264,144.9388,313.5445,144.9388,350s-2.9293,114.5744,10.0904,147.449
		c4.5569,11.3921,10.0904,19.8549,18.8783,28.6436c8.7887,8.7886,17.2515,14.3214,28.6436,18.879
		c32.8746,13.0197,110.9935,10.0896,147.449,10.0896s114.5744,2.9301,147.449-10.0896
		c11.3921-4.5576,19.8549-10.0904,28.6436-18.879c8.7879-8.7886,14.3214-17.2515,18.8782-28.6436
		c13.0197-32.8746,10.0904-110.9935,10.0904-147.449s2.9293-114.5736-10.0904-147.449
		c-4.5568-11.3921-10.0903-19.8549-18.8782-28.6436c-8.7886-8.7879-17.2515-14.3214-28.6436-18.8783
		C464.5744,142.0095,386.4555,144.9388,350,144.9388S235.4256,142.0095,202.551,155.0291z M350,478.2449
		c-70.9577,0-128.2449-57.2872-128.2449-128.2449S279.0423,221.7551,350,221.7551S478.2449,279.0423,478.2449,350
		S420.9577,478.2449,350,478.2449z M350,266.6735c-45.8951,0-83.3265,37.4322-83.3265,83.3265
		c0,45.8951,37.4315,83.3265,83.3265,83.3265S433.3265,395.8951,433.3265,350C433.3265,304.1057,395.8951,266.6735,350,266.6735z
		 M483.4526,246.4927c-16.5999,0-29.9453-13.3447-29.9453-29.9453c0-16.5998,13.3455-29.9453,29.9453-29.9453
		c16.5998,0,29.9453,13.3455,29.9453,29.9453C513.3979,233.148,500.0525,246.4927,483.4526,246.4927z"/>
	<rect fill="none" width="700" height="700"/>
</g>
</svg>
