<?xml version="1.0" encoding="utf-8"?>
<!-- Generator: Adobe Illustrator 20.0.0, SVG Export Plug-In . SVG Version: 6.00 Build 0)  -->
<svg version="1.1" id="XMLID_1_" xmlns="http://www.w3.org/2000/svg" xmlns:xlink="http://www.w3.org/1999/xlink" x="0px" y="0px"
	 viewBox="0 0 700 700" enable-background="new 0 0 700 700" xml:space="preserve">
<g id="linkedin">
	<path fill="#1D1D1B" d="M563.0257,100h-426.132C116.5483,100,100,116.1404,100,136.0514v427.8708
		C100,583.8334,116.5483,600,136.8937,600h426.132C583.4241,600,600,583.8334,600,563.9222V136.0514
		C600,116.1404,583.4241,100,563.0257,100z M248.3361,526.0528h-74.2486V287.4459h74.2486V526.0528z M211.2535,254.8531
		c-23.818,0-43.0524-19.2736-43.0524-43.0094c0-23.7358,19.2344-43.0094,43.0524-43.0094c23.7097,0,42.9718,19.2736,42.9718,43.0094
		C254.2253,235.5795,234.9632,254.8531,211.2535,254.8531z M526.1043,526.0528h-74.143V410.0056
		c0-27.6695-0.4889-63.2608-38.5494-63.2608c-38.5743,0-44.4885,30.165-44.4885,61.2803v118.0278h-74.0597V287.4459h71.0734v32.6197
		h1.0056c9.9283-18.758,34.0991-38.5333,70.1789-38.5333c75.118,0,88.9827,49.3978,88.9827,113.6623V526.0528z"/>
	<rect fill="none" width="700" height="700"/>
</g>
</svg>
