<?xml version="1.0" encoding="utf-8"?>
<!-- Generator: Adobe Illustrator 20.1.0, SVG Export Plug-In . SVG Version: 6.00 Build 0)  -->
<svg version="1.1" id="XMLID_2_" xmlns="http://www.w3.org/2000/svg" xmlns:xlink="http://www.w3.org/1999/xlink" x="0px" y="0px"
	 viewBox="0 0 700 700" enable-background="new 0 0 700 700" xml:space="preserve">
<g id="location-pin">
	<g>
		<path d="M539.5039,108.7188C488.8857,58.1001,421.585,30.2231,350,30.2231s-138.8857,27.877-189.5039,78.4956
			C109.877,159.3374,82,226.6382,82,298.2231c0,71.5859,27.877,138.8862,78.4873,189.4966L350,677.4722L539.5039,487.728
			C590.123,437.1094,618,369.8091,618,298.2231C618,226.6382,590.123,159.3374,539.5039,108.7188z M514.04,462.2803L350,626.5278
			L185.9512,462.272C142.1318,418.4531,118,360.1929,118,298.2231c0-61.9692,24.1318-120.2295,67.9512-164.0483
			C229.7705,90.3555,288.0303,66.2231,350,66.2231s120.2295,24.1323,164.0488,67.9517C557.8682,177.9937,582,236.2539,582,298.2231
			C582,360.1929,557.8682,418.4531,514.04,462.2803z"/>
		<path d="M350,180.2236c-65.0654,0-118,52.9346-118,118s52.9346,118,118,118s118-52.9346,118-118S415.0654,180.2236,350,180.2236z
			 M350,380.2236c-45.2148,0-82-36.7852-82-82s36.7852-82,82-82s82,36.7852,82,82S395.2148,380.2236,350,380.2236z"/>
	</g>
	<rect fill="none" width="700" height="700"/>
</g>
</svg>
