<svg width="10" height="13" viewBox="0 0 10 13" fill="none" xmlns="http://www.w3.org/2000/svg">
<path d="M4.58824 0C2.0584 0 0 1.99215 0 4.4399C0 5.60559 0.525066 7.15578 1.56057 9.04753C2.39219 10.5664 3.35429 11.9398 3.85469 12.6232C3.93925 12.74 4.04981 12.835 4.1774 12.9004C4.305 12.9659 4.44604 13 4.5891 13C4.73215 13 4.87319 12.9659 5.00079 12.9004C5.12839 12.835 5.23894 12.74 5.3235 12.6232C5.82305 11.9398 6.786 10.5664 7.61762 9.04753C8.65141 7.15636 9.17647 5.60617 9.17647 4.4399C9.17647 1.99215 7.11807 0 4.58824 0ZM4.58824 6.50024C4.22525 6.50024 3.87041 6.39132 3.5686 6.18725C3.26679 5.98317 3.03155 5.69312 2.89264 5.35375C2.75374 5.01439 2.71739 4.64097 2.78821 4.28071C2.85902 3.92044 3.03382 3.58952 3.29049 3.32978C3.54716 3.07005 3.87418 2.89316 4.23019 2.8215C4.5862 2.74984 4.95522 2.78662 5.29057 2.92719C5.62593 3.06776 5.91256 3.3058 6.11423 3.61122C6.31589 3.91664 6.42353 4.27571 6.42353 4.64303C6.423 5.13543 6.22947 5.60751 5.8854 5.95568C5.54133 6.30386 5.07482 6.49971 4.58824 6.50024Z" fill="black"/>
</svg>
