<?xml version="1.0" encoding="utf-8"?>
<!-- Generator: Adobe Illustrator 20.0.0, SVG Export Plug-In . SVG Version: 6.00 Build 0)  -->
<svg version="1.1" id="XMLID_1_" xmlns="http://www.w3.org/2000/svg" xmlns:xlink="http://www.w3.org/1999/xlink" x="0px" y="0px"
	 viewBox="0 0 700 700" enable-background="new 0 0 700 700" xml:space="preserve">
<g id="lock">
	<g>
		<path d="M526.0503,300H475v-93c0-68.9253-56.0752-125-125-125s-125,56.0747-125,125v93h-51.0249
			C160.7498,300,150,310.6255,150,323.7V601.3c0,13.0752,10.7498,23.7,23.9751,23.7h352.0752C539.25,625,550,614.3752,550,601.3
			V323.7C550,310.6255,539.25,300,526.0503,300z M261,207c0-49.0747,39.9248-89,89-89s89,39.9253,89,89v93H261V207z M514,589H186
			V336h328V589z"/>
		<path d="M332,471.6348V532c0,9.9409,8.0586,18,18,18h18v-78.3652c18.6995-7.2427,32-25.4089,32-46.6348
			c0-27.5703-22.4297-50-50-50s-50,22.4297-50,50C300,446.2258,313.3005,464.3921,332,471.6348z M350,411c7.7197,0,14,6.2803,14,14
			s-6.2803,14-14,14s-14-6.2803-14-14S342.2803,411,350,411z"/>
	</g>
	<rect fill="none" width="700" height="700"/>
</g>
</svg>
