<?xml version="1.0" encoding="utf-8"?>
<!-- Generator: Adobe Illustrator 20.0.0, SVG Export Plug-In . SVG Version: 6.00 Build 0)  -->
<svg version="1.1" id="XMLID_2_" xmlns="http://www.w3.org/2000/svg" xmlns:xlink="http://www.w3.org/1999/xlink" x="0px" y="0px"
	 viewBox="0 0 700 700" enable-background="new 0 0 700 700" xml:space="preserve">
<g id="mail">
	<path d="M601.0502,150H98.9751C85.7498,150,75,160.6255,75,173.7V526.3c0,13.0752,10.7498,23.7,23.9751,23.7h502.0751
		c13.2,0,23.9498-10.6248,23.9498-23.7V173.7C625,160.6255,614.2501,150,601.0502,150z M475.728,375.272L450.272,400.728
		L563.5439,514H136.4561l113.272-113.272L224.272,375.272L111,488.5439V207.1665l190.9165,190.917
		c13.2568,13.2563,30.6699,19.8843,48.0835,19.8843c17.4131,0,34.8267-6.6279,48.0835-19.8843L589,207.167v281.377L475.728,375.272z
		 M140.7455,186h418.5093l-186.627,186.6274c-12.4771,12.4771-32.7783,12.4771-45.2554,0L140.7455,186z"/>
	<rect fill="none" width="700" height="700"/>
</g>
</svg>
