<?xml version="1.0" encoding="utf-8"?>
<!-- Generator: Adobe Illustrator 20.1.0, SVG Export Plug-In . SVG Version: 6.00 Build 0)  -->
<svg version="1.1" id="XMLID_2_" xmlns="http://www.w3.org/2000/svg" xmlns:xlink="http://www.w3.org/1999/xlink" x="0px" y="0px"
	 viewBox="0 0 700 700" enable-background="new 0 0 700 700" xml:space="preserve">
<g id="particuliers">
	<g>
		<path d="M187.8594,194C219.5337,194,240,172.752,240,139.8682C240,106.1787,214.3687,88,190.252,88
			C158.9985,88,138,109.7129,138,142.0293C138,172.1436,158.9688,194,187.8594,194z M190.252,112
			c12.4009,0,25.748,8.7207,25.748,27.8682C216,153.6143,211.1177,170,187.8594,170C172.1504,170,162,159.0205,162,142.0293
			C162,115.9014,179.7007,112,190.252,112z"/>
		<path d="M538.8594,194C570.5337,194,591,172.752,591,139.8682C591,106.1787,565.3687,88,541.252,88
			C509.9985,88,489,109.7129,489,142.0293C489,172.1436,509.9688,194,538.8594,194z M541.252,112
			c12.4009,0,25.748,8.7207,25.748,27.8682C567,153.6143,562.1177,170,538.8594,170C523.1504,170,513,159.0205,513,142.0293
			C513,115.9014,530.7007,112,541.252,112z"/>
		<path d="M379.8594,325C411.5337,325,432,303.752,432,270.8682C432,237.1787,406.3687,219,382.252,219
			C350.9985,219,330,240.7129,330,273.0293C330,303.1436,350.9688,325,379.8594,325z M382.252,243
			c12.4009,0,25.748,8.7207,25.748,27.8682C408,284.6143,403.1177,301,379.8594,301C364.1504,301,354,290.0205,354,273.0293
			C354,246.9014,371.7007,243,382.252,243z"/>
		<path d="M251,364.3809V274c0-34.1865-27.813-62-62-62s-62,27.8135-62,62v90.3809L84.0913,458
			c-1.7026,3.7148-1.3979,8.041,0.8091,11.4805S90.9136,475,95,475h57v89c0,6.6172-5.3833,12-12,12h-16v12c0,6.627,5.3726,12,12,12
			h4c19.8506,0,36-16.1494,36-36v-89h27v89c0,19.8506,16.1494,36,36,36h4c6.6274,0,12-5.373,12-12v-12h-16
			c-6.6167,0-12-5.3828-12-12v-89h56c4.0864,0,7.8926-2.0801,10.0996-5.5195s2.5117-7.7656,0.8091-11.4805L251,364.3809z
			 M113.7002,451l36.2085-79c0.7192-1.5693,1.0913-3.2744,1.0913-5v-93c0-20.9531,17.0469-38,38-38s38,17.0469,38,38v93
			c0,1.7256,0.3721,3.4307,1.0913,5l36.2085,79H113.7002z"/>
		<path d="M430,576c-6.6167,0-12-5.3828-12-12v-39h13c6.6274,0,12-5.373,12-12V405c0-34.1865-27.813-62-62-62s-62,27.8135-62,62v108
			c0,6.627,5.3726,12,12,12h13v39c0,6.6172-5.3833,12-12,12h-16v12c0,6.627,5.3726,12,12,12h4c19.8506,0,36-16.1494,36-36v-39h26v39
			c0,19.8506,16.1494,36,36,36h4c6.6274,0,12-5.373,12-12v-12H430z M343,405c0-20.9531,17.0469-38,38-38s38,17.0469,38,38v96h-76
			V405z"/>
		<path d="M589,576c-6.6167,0-12-5.3828-12-12v-89h25V274c0-34.1865-27.813-62-62-62s-62,27.8135-62,62v201h24v89
			c0,6.6172-5.3833,12-12,12h-16v12c0,6.627,5.3726,12,12,12h4c19.8506,0,36-16.1494,36-36v-89h27v89c0,19.8506,16.1494,36,36,36h4
			c6.6274,0,12-5.373,12-12v-12H589z M502,274c0-20.9531,17.0469-38,38-38s38,17.0469,38,38v177h-76V274z"/>
	</g>
	<rect x="0" y="0" transform="matrix(-1 -4.489532e-11 4.489532e-11 -1 700 700)" fill="none" width="700" height="700"/>
</g>
</svg>
