<svg width="57" height="39" viewBox="0 0 57 39" fill="none" xmlns="http://www.w3.org/2000/svg">
<path d="M16.9513 26.3668C19.8076 22.3666 23.6529 20.1707 28.5643 20.1757C33.4756 20.1807 37.315 22.3866 40.1513 26.3908C40.8876 25.8992 41.6659 25.5106 42.4981 25.2339C44.8099 24.4666 47.1217 24.4566 49.4075 25.3108C52.4307 26.4397 54.4727 28.5657 55.6037 31.5709C56.0073 32.6439 56.1921 33.7658 56.1931 34.9137C56.1931 35.7369 56.2121 36.5612 56.1851 37.3834C56.1451 38.6222 54.7844 39.3365 53.7304 38.6851C53.176 38.3425 52.9602 37.811 52.9522 37.1866C52.9412 36.4133 52.9572 35.639 52.9442 34.8658C52.8892 31.6378 50.7143 28.8864 47.5733 28.1401C45.4303 27.6316 43.4362 28.0142 41.6409 29.306C41.7877 29.8435 41.9376 30.366 42.0715 30.8935C42.3382 31.9455 42.4451 33.0185 42.4541 34.1015C42.4621 35.1325 42.4601 36.1645 42.4541 37.1956C42.4501 37.824 42.2363 38.3624 41.6738 38.6901C40.5469 39.3475 39.1832 38.5732 39.1882 37.1826C39.1922 35.9937 39.2152 34.8028 39.1672 33.6149C39.0503 30.7047 37.9154 28.244 35.7904 26.2489C34.4017 24.9452 32.7723 24.07 30.91 23.6803C27.6671 23.001 24.6769 23.6074 22.0314 25.6305C19.7846 27.3499 18.4778 29.6577 18.0202 32.4381C17.9183 33.0575 17.9123 33.6959 17.9004 34.3263C17.8814 35.2904 17.9004 36.2554 17.8944 37.2205C17.8894 38.0597 17.4428 38.6582 16.6785 38.869C15.6905 39.1407 14.6624 38.4024 14.6584 37.3804C14.6534 35.8678 14.6514 34.3532 14.7114 32.8417C14.7563 31.7107 15.0291 30.6088 15.4067 29.5398C15.4667 29.37 15.4417 29.279 15.2888 29.1761C13.7363 28.1351 12.0349 27.7325 10.1887 28.0202C7.6131 28.4209 5.80082 29.8485 4.72184 32.2053C4.28625 33.1564 4.14838 34.1754 4.14738 35.2164C4.14738 35.9727 4.15537 36.731 4.11841 37.4853C4.07745 38.3045 3.37811 38.9129 2.52492 38.9249C1.74166 38.9359 0.974387 38.3315 0.936422 37.5612C0.883473 36.4922 0.883473 35.4172 0.927431 34.3473C0.996366 32.7078 1.47691 31.1703 2.3301 29.7746C3.97754 27.0791 6.3423 25.3807 9.47833 24.8333C12.0559 24.3827 14.4656 24.8702 16.7025 26.2239C16.7804 26.2709 16.8603 26.3139 16.9503 26.3638L16.9513 26.3668Z" fill="black"/>
<path d="M28.8431 18.851C23.8858 18.8629 19.8536 14.8148 19.8387 9.83849C19.8247 4.98009 23.75 0.803048 28.8281 0.800051C33.8144 0.797053 37.8146 4.80326 37.8336 9.82351C37.8526 14.8058 33.7875 18.8679 28.8431 18.852V18.851ZM34.5787 9.8265C34.5817 6.60955 32.0141 4.04198 28.8281 4.05297C25.6312 4.06396 23.0796 6.63952 23.0886 9.84549C23.0966 13.0435 25.6532 15.606 28.8351 15.605C32.0371 15.605 34.5857 13.0405 34.5787 9.8265V9.8265Z" fill="black"/>
<path d="M4.57888 16.8669C4.58887 13.0934 7.69593 9.97739 11.4504 9.99138C15.3277 10.0064 18.3289 13.2163 18.3119 16.8968C18.2939 20.7112 15.1309 23.7533 11.4454 23.7434C7.67395 23.7334 4.56889 20.6283 4.57888 16.8669V16.8669ZM15.056 16.8879C15.06 14.8528 13.4755 13.2543 11.4534 13.2513C9.5182 13.2483 7.8348 14.7239 7.8358 16.8769C7.83779 19.0168 9.5182 20.4844 11.4424 20.4914C13.4485 20.4984 15.051 18.8959 15.056 16.8879Z" fill="black"/>
<path d="M39.1941 16.8648C39.2341 13.0704 42.2842 10.0153 46.0316 10.0093C49.879 10.0033 52.9481 13.0814 52.9271 16.8968C52.9061 20.88 49.6532 23.7593 46.0376 23.7433C42.3132 23.7263 39.2181 20.6922 39.1931 16.8658L39.1941 16.8648ZM46.0566 20.4924C47.9818 20.4954 49.6852 19.0098 49.6812 16.8678C49.6772 14.7488 48.0078 13.2522 46.0766 13.2502C44.0515 13.2482 42.457 14.8407 42.456 16.8718C42.456 18.8829 44.0525 20.4884 46.0566 20.4914V20.4924Z" fill="black"/>
</svg>

