<?xml version="1.0" encoding="utf-8"?>
<!-- Generator: Adobe Illustrator 20.0.0, SVG Export Plug-In . SVG Version: 6.00 Build 0)  -->
<svg version="1.1" id="XMLID_2_" xmlns="http://www.w3.org/2000/svg" xmlns:xlink="http://www.w3.org/1999/xlink" x="0px" y="0px"
	 viewBox="0 0 700 700" enable-background="new 0 0 700 700" xml:space="preserve">
<g id="phone">
	<path d="M640.71,494.8989c-2.0752-6.0762-6.0679-13.2734-69.937-50.4463C506.4229,407,497.0718,407,492.5781,407
		c-20.8687,0-38.0161,21.2007-56.1704,43.6465c-7.2007,8.9028-18.9819,23.4692-24.6729,26.8823
		c-4.4814-1.064-13.6411-6.6895-17.7622-9.2207c-1.9517-1.1987-3.7944-2.3306-5.605-3.3872l-0.3359-0.1909
		c-67.9438-37.7046-115.0571-84.8179-152.7617-152.7617l-0.1909-0.3359c-1.0566-1.8105-2.1885-3.6533-3.3872-5.605
		c-2.5327-4.1235-8.1636-13.291-9.2222-17.7593c3.4106-5.6899,17.98-17.4741,26.8838-24.6758
		C271.7993,245.438,293,228.2905,293,207.4219c0-4.4937,0-13.8447-37.4526-78.1948c-37.1729-63.8691-44.3701-67.8618-50.4463-69.937
		C199.2993,57,194.1108,57,190.625,57c-16.1606,0-46.002,6.6187-61.5684,13.6431c-25.147,10.874-40.0195,37.6499-49.8701,55.3823
		l-0.0874,0.1592C64.229,153.6021,57,180.1748,57,207.4219c0,34.1206,11.4346,64.3843,22.4927,93.6519
		c1.8457,4.8843,3.7539,9.9346,5.5283,14.7993c9.6978,26.8892,20.8335,50.3477,34.0396,71.7109
		c42.7783,69.2598,124.0957,150.5771,193.3496,193.3516c21.3691,13.21,44.8276,24.3457,71.6567,34.022
		c4.9248,1.7959,9.9751,3.7041,14.8594,5.5498C428.1938,631.5654,458.4575,643,492.5781,643
		c27.2471,0,53.8198-7.229,81.2373-22.0991l0.1592-0.0874c17.7324-9.8506,44.5083-24.7231,55.3823-49.8701
		C636.3813,555.377,643,525.5356,643,509.375C643,505.8892,643,500.7007,640.71,494.8989z M596.5044,556.2222l-0.1582,0.3584
		c-5.9639,13.9155-26.2812,25.2231-39.7725,32.7173C534.2837,601.375,513.9468,607,492.5781,607
		c-27.5464,0-53.4756-9.7969-80.9277-20.1694c-4.98-1.8813-10.1289-3.8267-15.3096-5.7163
		c-24.5156-8.8418-45.7778-18.9165-65.0068-30.8037c-64.0156-39.5391-142.1055-117.6289-181.6484-181.6504
		c-11.8833-19.2231-21.958-40.4854-30.8218-65.061c-1.8677-5.1206-3.813-10.2695-5.6943-15.2495
		C102.7969,260.8975,93,234.9683,93,207.4219c0-21.3687,5.625-41.7056,17.7021-63.9956
		c7.4941-13.4912,18.8018-33.8086,32.7173-39.7725l0.3584-0.1582c10.6406-4.8374,35.0645-10.3428,46.3843-10.4927
		c5.4951,7.229,18.0049,26.3115,34.9863,55.563c18.7173,32.2417,28.4937,52,31.3359,59.2124
		c-3.8105,6.8271-20.5029,20.3281-29.77,27.8232c-21.687,17.541-40.417,32.6899-40.417,51.5078
		c0,13.7949,8.1611,27.0825,14.7188,37.7593c1.0498,1.7085,2.043,3.3262,2.875,4.7466
		c41.1133,74.021,92.4727,125.3804,166.4937,166.4937c1.4204,0.832,3.0381,1.8252,4.7466,2.875
		c10.6768,6.5576,23.9644,14.7188,37.7593,14.7188c18.8179,0,33.9668-18.73,51.5078-40.417
		c7.4951-9.2671,20.9961-25.9595,27.8232-29.77c7.2124,2.8423,26.9707,12.6187,59.2124,31.3359
		c29.2515,16.9814,48.334,29.4912,55.563,34.9863C606.8472,521.1577,601.3418,545.5815,596.5044,556.2222z"/>
	<rect fill="none" width="700" height="700"/>
</g>
</svg>
