<?xml version="1.0" encoding="utf-8"?>
<!-- Generator: Adobe Illustrator 20.1.0, SVG Export Plug-In . SVG Version: 6.00 Build 0)  -->
<svg version="1.1" id="XMLID_1_" xmlns="http://www.w3.org/2000/svg" xmlns:xlink="http://www.w3.org/1999/xlink" x="0px" y="0px"
	 viewBox="0 0 192 192" enable-background="new 0 0 192 192" xml:space="preserve">
<g id="placeholder">
	<path d="M172,0H20C8.9717,0,0,8.9717,0,20v152c0,11.0283,8.9717,20,20,20h152c11.0283,0,20-8.9717,20-20V20
		C192,8.9717,183.0283,0,172,0z M176,172c0,2.168-1.832,4-4,4H20c-2.168,0-4-1.832-4-4V20c0-2.168,1.832-4,4-4h152
		c2.168,0,4,1.832,4,4V172z"/>
	<path d="M92.1328,122.0312c-9.5073,0-17.2412,7.6196-17.2412,16.9849c0,9.3643,7.7339,16.9839,17.2412,16.9839
		s17.2417-7.6196,17.2417-16.9839C109.3745,129.6509,101.6401,122.0312,92.1328,122.0312z"/>
	<path d="M93.7441,36C73.6021,36,62,47.7466,62,59.651v9.5232h0.8057c4.6733-6.3485,12.73-9.5232,23.3652-9.5232
		c9.0234,0,13.3745,3.9681,13.3745,9.0475c0,2.6981-0.8052,6.8252-3.2227,8.8887L81.3364,90.6028
		c-3.062,2.6991-5.9619,7.4607-5.9619,13.8102c0,6.1906,4.3511,11.2699,13.6968,11.2699h10.6353v-4.7626
		c0-5.2372,1.4497-7.7775,5.6396-10.7933l14.6636-10.9521C127.0996,83.7778,130,75.2068,130,66.0005
		C130,49.968,116.3042,36,93.7441,36z"/>
</g>
</svg>
