<svg width="66" height="36" viewBox="0 0 66 36" fill="none" xmlns="http://www.w3.org/2000/svg">
<path d="M43.4217 23.634H46.9635C43.9422 16.5134 37.6816 11.611 30.4618 11.611C20.3001 11.611 12.0344 21.3216 12.0344 33.2554C12.0344 34.1452 12.7557 34.8664 13.6454 34.8664C14.5352 34.8664 15.2564 34.1452 15.2564 33.2554C15.2564 23.0962 22.0772 14.833 30.4618 14.833C35.9368 14.833 40.745 18.3598 43.4217 23.634Z" fill="black"/>
<path d="M54.4361 25.9934C51.5883 14.4859 42.1156 6.00708 30.898 6.00708C17.435 6.00708 6.48267 18.216 6.48267 33.2231C6.48267 34.1129 7.2039 34.8341 8.09367 34.8341C8.98344 34.8341 9.70467 34.1129 9.70467 33.2231C9.70467 19.9931 19.2121 9.22909 30.898 9.22909C40.3584 9.22909 48.3911 16.2853 51.1075 25.9934H54.4361V25.9934Z" fill="black"/>
<path d="M60.8058 26.9155C58.0919 11.7473 45.7491 0.25708 30.9725 0.25708C14.2156 0.25708 0.583984 15.0337 0.583984 33.1984C0.583984 34.0882 1.30522 34.8094 2.19499 34.8094C3.08476 34.8094 3.80599 34.0882 3.80599 33.1984C3.80599 16.8108 15.9926 3.47909 30.9725 3.47909C43.982 3.47909 54.8847 13.5367 57.5268 26.9155H60.8058Z" fill="black"/>
<path d="M40.1799 22.7517C40.1799 23.981 41.2655 24.9774 42.6014 24.9774H43.4094M55.9331 22.4419H49.3651ZM43.4094 25.2376C43.3672 21.5248 46.733 18.4838 50.7729 18.4838L54.793 18.4912C54.9442 18.4912 55.0854 18.4119 55.1548 18.288C55.7596 17.1974 56.9294 16.4192 58.3099 16.2804C58.5479 16.2556 58.7511 16.4316 58.7511 16.6497V19.4132C58.7511 19.5322 58.813 19.6462 58.9196 19.7156C59.9606 20.3971 60.7983 21.3216 61.3337 22.4022C61.3956 22.5261 61.527 22.6079 61.6757 22.6179L64.4293 22.769C64.6424 22.7814 64.8085 22.945 64.8085 23.1408V27.1906C64.8085 27.3864 64.6399 27.55 64.4293 27.5624L61.6757 27.7136C61.527 27.7235 61.3956 27.8053 61.3337 27.9292C60.7983 29.0098 59.9606 29.9368 58.9196 30.6159C58.8155 30.6853 58.7511 30.7968 58.7511 30.9182V33.6991C58.7511 33.9048 58.5702 34.0709 58.3471 34.0709H55.7918C55.601 34.0709 55.4374 33.9469 55.3977 33.7759L55.0235 32.1253C54.9838 31.9518 54.8202 31.8303 54.6294 31.8303L50.592 31.8154C50.3863 31.8154 50.2152 31.9542 50.1905 32.1401L49.9724 33.7462C49.9476 33.9321 49.7741 34.0709 49.5708 34.0709H47.0453C46.8222 34.0709 46.6413 33.9048 46.6413 33.6991V30.9182C46.6413 30.7993 46.5818 30.6853 46.4752 30.6183C44.6412 29.4212 43.4366 27.4608 43.4119 25.2425" fill="#008F4F" fill-opacity="0.16"/>
<path d="M58.3495 35.0573H55.7942C55.1349 35.0573 54.5748 34.6186 54.4335 33.9915L54.1659 32.8142L51.1 32.8043L50.9538 33.875C50.8645 34.5492 50.2697 35.0597 49.5708 35.0597H47.0452C46.2744 35.0597 45.6498 34.4476 45.6498 33.6966V31.2503C43.853 29.964 42.7029 28.0457 42.465 25.9662C40.6458 25.8968 39.1885 24.4816 39.1885 22.7517C39.1885 22.2039 39.6321 21.7603 40.1799 21.7603C40.7276 21.7603 41.1713 22.2039 41.1713 22.7517C41.1713 23.4085 41.7686 23.9463 42.5195 23.9835C42.7699 22.5187 43.4837 21.1456 44.5915 20.0229C46.1827 18.4119 48.4356 17.4899 50.7753 17.4899L54.4732 17.4973C55.2836 16.263 56.6567 15.4476 58.2132 15.2915C58.6073 15.2518 59.0038 15.3807 59.2963 15.6459C59.5813 15.9037 59.7449 16.268 59.7449 16.6472V19.0761C60.7065 19.7626 61.4996 20.6425 62.0573 21.6413L64.4862 21.7751C65.2273 21.8198 65.8023 22.4171 65.8023 23.1358V27.1856C65.8023 27.9044 65.2273 28.5017 64.4912 28.5463L62.0573 28.6802C61.5021 29.679 60.7115 30.5588 59.7449 31.2479V33.6941C59.7449 34.4451 59.1178 35.0573 58.3495 35.0573V35.0573ZM48.9908 33.6049C48.9908 33.6049 48.9908 33.6074 48.9908 33.6098V33.6049ZM56.2602 33.0745H57.7621V30.9133C57.7621 30.4622 57.9901 30.0384 58.3718 29.7856C59.2789 29.1932 59.9927 28.4001 60.4463 27.4855C60.6694 27.0419 61.1155 26.7519 61.6161 26.7197L63.8195 26.5982V23.7232L61.6236 23.6018C61.118 23.5696 60.6694 23.2796 60.4488 22.8409C59.9952 21.9239 59.2789 21.1283 58.3793 20.5384C57.9926 20.2806 57.7621 19.8593 57.7621 19.4082V17.3907C57.0111 17.6212 56.3866 18.107 56.0222 18.7613C55.7769 19.205 55.306 19.4776 54.7929 19.4776L50.7728 19.4702C48.9636 19.4702 47.2237 20.179 46.0018 21.4133C44.9534 22.4741 44.3858 23.8248 44.4032 25.2202C44.4255 27.0196 45.402 28.7223 47.018 29.7781C47.4021 30.026 47.6326 30.4498 47.6326 30.9083V33.0695H49.0627L49.2089 31.9963C49.3056 31.3197 49.9004 30.8116 50.5944 30.8116L54.6368 30.8265C55.2911 30.8265 55.8512 31.2652 55.995 31.8923L56.2626 33.0695L56.2602 33.0745ZM45.9349 31.4412C45.9349 31.4412 45.9373 31.4412 45.9398 31.4437C45.9398 31.4437 45.9373 31.4436 45.9349 31.4412ZM55.938 23.4308H49.37C48.8223 23.4308 48.3786 22.9871 48.3786 22.4394C48.3786 21.8916 48.8223 21.448 49.37 21.448H55.938C56.4857 21.448 56.9293 21.8916 56.9293 22.4394C56.9293 22.9871 56.4857 23.4308 55.938 23.4308Z" fill="black"/>
</svg>
