<?xml version="1.0" encoding="utf-8"?>
<!-- Generator: Adobe Illustrator 19.0.0, SVG Export Plug-In . SVG Version: 6.00 Build 0)  -->
<svg version="1.1" id="search" xmlns="http://www.w3.org/2000/svg" xmlns:xlink="http://www.w3.org/1999/xlink" x="0px" y="0px"
	 viewBox="0 0 72 72" enable-background="new 0 0 72 72" xml:space="preserve">
<g>
	<path fill="#008F4F" d="M32,4c15.4393,0,28,12.5607,28,28S47.4393,60,32,60S4,47.4393,4,32S16.5607,4,32,4 M32,0
		C14.3269,0,0,14.3269,0,32s14.3269,32,32,32s32-14.3269,32-32S49.6731,0,32,0L32,0z"/>
</g>
<g>
	<path fill="#008F4F" d="M53.27,51.3163l-2.8262,2.8264l17.1685,17.1687c0.9165,0.9207,2.2056,0.9167,3.1265-0.0039L72,70.0423
		L53.27,51.3163z"/>
</g>
</svg>
