<?xml version="1.0" encoding="utf-8"?>
<!-- Generator: Adobe Illustrator 20.1.0, SVG Export Plug-In . SVG Version: 6.00 Build 0)  -->
<svg version="1.1" id="XMLID_2_" xmlns="http://www.w3.org/2000/svg" xmlns:xlink="http://www.w3.org/1999/xlink" x="0px" y="0px"
	 viewBox="0 0 700 700" enable-background="new 0 0 700 700" xml:space="preserve">
<g id="search">
	<path id="recherche" d="M526.7864,509.1445c47.1826-51.4183,75.9915-119.9692,75.9915-195.2556
		C602.7778,154.3401,473.4377,25,313.8889,25S25,154.3401,25,313.8889s129.3401,288.8889,288.8889,288.8889
		c71.2736,0,136.5056-25.826,186.8851-68.6106l134.6149,134.6167c8.2739,8.3115,19.9114,8.2762,28.225-0.0352L675,657.3262
		L526.7864,509.1445z M61.1111,313.8889c0-139.3823,113.3961-252.7778,252.7778-252.7778s252.7778,113.3955,252.7778,252.7778
		S453.2706,566.6666,313.8889,566.6666S61.1111,453.2712,61.1111,313.8889z"/>
	<rect fill="none" width="700" height="700"/>
</g>
</svg>
