<svg width="40" height="50" viewBox="0 0 40 50" fill="none" xmlns="http://www.w3.org/2000/svg">
<path d="M37.6854 10.0374L22.2948 1.14819C20.9911 0.396403 19.3749 0.396403 18.0713 1.14819L2.67501 10.0374C1.37134 10.7892 0.563232 12.1914 0.563232 13.695V22.1618C0.563232 28.3253 2.31741 33.8807 5.78073 38.6787C9.03286 43.1838 13.7632 46.847 19.465 49.2685C19.6931 49.3643 19.9381 49.4149 20.1802 49.4149C20.4224 49.4149 20.6673 49.3671 20.8954 49.2685C26.5972 46.847 31.3304 43.1838 34.5797 38.6787C38.0402 33.8807 39.7972 28.3225 39.7972 22.1618V13.695C39.7972 12.1914 38.9891 10.7892 37.6854 10.0374V10.0374ZM36.1368 22.1646C36.1368 32.5095 30.3336 41.0073 20.1802 45.5912C10.0268 41.0044 4.22364 32.5067 4.22364 22.1618V13.695C4.22364 13.495 4.33064 13.3064 4.50521 13.205L19.8986 4.31867C19.9859 4.26799 20.0845 4.24265 20.1802 4.24265C20.276 4.24265 20.3745 4.26799 20.4618 4.31867L35.8552 13.205C36.0298 13.3064 36.1368 13.4922 36.1368 13.695V22.1618V22.1646Z" fill="black"/>
<path d="M24.9612 19.929L19.0707 25.8194L16.7534 23.5021C16.0382 22.7869 14.881 22.7869 14.1658 23.5021C13.4506 24.2173 13.4506 25.3745 14.1658 26.0897L17.7783 29.7023C18.1359 30.0599 18.6033 30.2372 19.0736 30.2372C19.5438 30.2372 20.0112 30.0599 20.3688 29.7023L27.5516 22.5194C28.2668 21.8042 28.2668 20.647 27.5516 19.9318C26.8364 19.2166 25.6792 19.2166 24.964 19.9318L24.9612 19.929Z" fill="black"/>
</svg>
