<?xml version="1.0" encoding="utf-8"?>
<!-- Generator: Adobe Illustrator 19.0.0, SVG Export Plug-In . SVG Version: 6.00 Build 0)  -->
<svg version="1.1" id="XMLID_3_" xmlns="http://www.w3.org/2000/svg" xmlns:xlink="http://www.w3.org/1999/xlink" x="0px" y="0px"
	 viewBox="0 0 83.7428 46.2275" enable-background="new 0 0 83.7428 46.2275" xml:space="preserve">
<path id="table" fill="#747476" d="M83.6146,27.98l-6.49-17.01c-0.2925-0.7675-1.03-1.275-1.8525-1.275h-3.96l-0.3675-6.1825
	c0.0025,0.04,0.0025,0.08,0.0025,0.1175c0-2.0025-1.6275-3.63-3.63-3.63h-7.715c-2.0025,0-3.6325,1.6275-3.6325,3.63
	c0-0.0375,0.0025-0.0775,0.0025-0.1175L55.6046,9.695h-5.88l-0.3675-6.1825c0.0024,0.04,0.0024,0.08,0.0024,0.1175
	c0-2.0025-1.6275-3.63-3.63-3.63h-7.715c-2.005,0-3.6325,1.6275-3.6325,3.63c0-0.0375,0-0.0775,0.005-0.1175l-0.37,6.1825h-5.88
	l-0.3675-6.1825c0.0025,0.04,0.005,0.08,0.005,0.1175c0-2.0025-1.6325-3.63-3.635-3.63h-7.715c-2.0025,0-3.63,1.6275-3.63,3.63
	c0-0.0375,0.0024-0.0775,0.0024-0.1175L12.4296,9.695h-3.31c-0.8,0-1.52,0.48-1.8275,1.215L0.1546,27.9175
	c-0.2575,0.6125-0.19,1.3125,0.1775,1.865c0.3675,0.5525,0.9875,0.885,1.6525,0.885h8.1225l-0.1575,2.67
	c-0.0025,0.04-0.0025,0.08-0.0025,0.12c0,2.0025,1.63,3.63,3.6325,3.63h2.455v5.175h-5.045c-1.0925,0-1.9825,0.8875-1.9825,1.9825
	c0,1.0925,0.89,1.9825,1.9825,1.9825h14.0575c1.0925,0,1.9825-0.89,1.9825-1.9825c0-1.095-0.89-1.9825-1.9825-1.9825h-5.0475v-5.175
	h2.4575c2.0025,0,3.6325-1.6275,3.6325-3.63c0-0.04,0-0.08-0.0025-0.12l-0.16-2.67h8.035l-0.1575,2.67
	c-0.0025,0.04-0.005,0.08-0.005,0.12c0,2.0025,1.63,3.63,3.6325,3.63h2.4575v5.175h-5.0475c-1.095,0-1.9825,0.8875-1.9825,1.9825
	c0,1.0925,0.8875,1.9825,1.9825,1.9825h14.0575c1.0975,0,1.9825-0.89,1.9825-1.9825c0-1.095-0.885-1.9825-1.9825-1.9825h-5.0475
	v-5.175h2.4574c2.0026,0,3.6325-1.6275,3.6325-3.63c0-0.04,0-0.08-0.0024-0.12l-0.1601-2.67h8.035l-0.1575,2.67
	c-0.0024,0.04-0.005,0.08-0.005,0.12c0,2.0025,1.63,3.63,3.6325,3.63h2.4575v5.175h-5.0475c-1.095,0-1.9825,0.8875-1.9825,1.9825
	c0,1.0925,0.8875,1.9825,1.9825,1.9825h14.0575c1.0975,0,1.9849-0.89,1.9849-1.9825c0-1.095-0.8875-1.9825-1.9849-1.9825h-5.045
	v-5.175h2.4575c2.0025,0,3.6325-1.6275,3.6325-3.63c0-0.04-0.0025-0.08-0.005-0.12l-0.1575-2.67h8.1274
	c0.65,0,1.2601-0.32,1.63-0.8575C83.7621,29.2725,83.8446,28.5875,83.6146,27.98 M59.9196,3.965h7.08
	c0.015,0.235,0.1926,3.2225,0.3426,5.73h-7.765C59.7246,7.1875,59.9046,4.2,59.9196,3.965 M38.3296,3.965h7.0825
	c0.015,0.235,0.1925,3.2225,0.34,5.73h-7.76C38.1396,7.1875,38.3171,4.2,38.3296,3.965 M16.7421,3.965h7.0825
	c0.0125,0.235,0.19,3.2225,0.3425,5.73h-7.765C16.5521,7.1875,16.7296,4.2,16.7421,3.965 M13.9371,33.1225
	c0.0124-0.255,0.0725-1.2325,0.145-2.455c0.0725-1.23,0.16-2.7075,0.235-3.965c0.085-1.4275,0.1525-2.5625,0.1601-2.7075h7.0824
	c0.0076,0.145,0.075,1.28,0.16,2.7075c0.0726,1.2575,0.1625,2.735,0.2351,3.965c0.0725,1.2225,0.1324,2.2,0.145,2.455H13.9371z
	 M37.7871,33.1225c0.015-0.255,0.0726-1.2325,0.1476-2.455c0.0725-1.23,0.16-2.7075,0.235-3.965
	c0.085-1.4275,0.1525-2.5625,0.16-2.7075h7.0825c0.0075,0.145,0.0775,1.28,0.16,2.7075c0.0775,1.2575,0.1625,2.735,0.235,3.965
	c0.075,1.2225,0.1325,2.2,0.1475,2.455H37.7871z M61.6421,33.1225c0.015-0.255,0.0725-1.2325,0.1475-2.455
	c0.0725-1.23,0.16-2.7075,0.2325-3.965c0.0875-1.4275,0.1525-2.5625,0.1625-2.7075h7.08c0.01,0.145,0.0775,1.28,0.1625,2.7075
	c0.075,1.2575,0.1625,2.735,0.235,3.965c0.0726,1.2225,0.13,2.2,0.1476,2.455H61.6421z M73.3996,26.7025l-0.19-3.1575
	c0.0025,0.0375,0.005,0.0775,0.005,0.1175c0-2.0025-1.63-3.6325-3.6325-3.6325h-7.715c-2.0025,0-3.6325,1.63-3.6325,3.6325
	c0-0.04,0.0025-0.08,0.005-0.1175l-0.1875,3.1575h-8.505l-0.19-3.1575c0.0024,0.0375,0.0024,0.0775,0.0024,0.1175
	c0-2.0025-1.6275-3.6325-3.63-3.6325h-7.715c-2.005,0-3.6325,1.63-3.6325,3.6325c0-0.04,0-0.08,0.005-0.1175l-0.1875,3.1575h-8.5075
	l-0.1875-3.1575c0.005,0.0375,0.005,0.0775,0.005,0.1175c0-2.0025-1.6325-3.6325-3.6325-3.6325h-7.7175
	c-2.0025,0-3.6325,1.63-3.6325,3.6325c0-0.04,0.0025-0.08,0.005-0.1175l-0.1875,3.1575h-5.38
	c1.4825-3.535,4.745-11.3125,5.4725-13.0425h63.4676c0.69,1.81,3.65,9.57,4.9775,13.0425H73.3996z"/>
</svg>
