<?xml version="1.0" encoding="utf-8"?>
<!-- Generator: Adobe Illustrator 20.0.0, SVG Export Plug-In . SVG Version: 6.00 Build 0)  -->
<svg version="1.1" id="XMLID_1_" xmlns="http://www.w3.org/2000/svg" xmlns:xlink="http://www.w3.org/1999/xlink" x="0px" y="0px"
	 viewBox="0 0 700 700" enable-background="new 0 0 700 700" xml:space="preserve">
<g id="twitter">
	<path d="M608.1849,217.5881c0.4128,5.7749,0.4128,11.5498,0.4128,17.3247C608.5978,411.0504,474.5558,614,229.5678,614
		C154.0918,614,83.9778,592.1381,25,554.1873c10.7233,1.2378,21.0338,1.6507,32.17,1.6507
		c62.2776,0,119.606-21.038,165.3863-56.9252c-58.5659-1.2378-107.6461-39.6005-124.5553-92.4005
		c8.2482,1.2378,16.4973,2.0626,25.1584,2.0626c11.9609,0,23.9218-1.6497,35.057-4.5372
		C97.1762,391.6631,51.3959,338.0373,51.3959,273.2755c0-0.4129,0-1.2378,0-1.6507c17.7349,9.9001,38.3559,16.088,60.2154,16.9128
		c-35.8817-23.9245-59.3906-64.7627-59.3906-110.962c0-24.7503,6.5987-47.438,18.1468-67.2382
		C135.945,191.188,234.5172,243.9881,345.0502,249.763c-2.0623-9.9001-3.2999-20.2132-3.2999-30.5252
		C341.7504,145.8127,401.142,86,474.9677,86c38.3568,0,73.001,16.0879,97.3356,42.075
		c30.1077-5.7749,58.9778-16.9128,84.549-32.1749c-9.8986,30.9371-30.9324,56.9252-58.5659,73.4251
		c26.8088-2.8875,52.7919-10.3121,76.7137-20.6251C656.8522,175.1001,634.168,198.6127,608.1849,217.5881z"/>
	<rect fill="none" width="700" height="700"/>
</g>
</svg>
