<?xml version="1.0" encoding="utf-8"?>
<!-- Generator: Adobe Illustrator 19.0.0, SVG Export Plug-In . SVG Version: 6.00 Build 0)  -->
<svg version="1.1" id="XMLID_3_" xmlns="http://www.w3.org/2000/svg" xmlns:xlink="http://www.w3.org/1999/xlink" x="0px" y="0px"
	 viewBox="0 0 76 40.82" enable-background="new 0 0 76 40.82" xml:space="preserve">
<g id="user">
	<path fill="#747476" d="M38.3637,14.8199c4.11,0,6.765-3.0148,6.765-7.6799c0-4.2024-2.78-7.14-6.765-7.14
		c-4.235,0-6.97,2.995-6.97,7.63C31.3937,11.7975,34.3263,14.8199,38.3637,14.8199z M38.0287,3.2974
		c2.3925,0,3.555,1.4252,3.555,4.3576c0,2.4249-1.1175,3.8675-2.9874,3.8675c-2.3225,0-3.6575-1.5875-3.6575-4.355
		C34.9387,4.78,36.1237,3.2974,38.0287,3.2974z"/>
	<path fill="#747476" d="M74.0175,36.855H48.1863l0.0075-9.8476c0-0.4524-0.02-0.8899-0.055-1.3174
		c0-5.2301-3.6925-7.5049-3.6925-7.5049c-0.0575-0.0426-0.12-0.0827-0.1825-0.1151c-1.5625-1.1176-3.545-1.7226-5.8675-1.7226
		c-3.0625,0-5.4825,0.8275-7.1799,2.3976c-0.1025,0.0998-0.205,0.1974-0.305,0.3c-2.275,2.2749-2.5525,6.6824-2.5525,6.6824
		c-0.005,0.1025-0.0125,0.1999-0.0175,0.3024l-0.01,10.825H1.98c-1.095,0-1.98,0.8876-1.98,1.98c0,1.0976,0.885,1.985,1.98,1.985
		h72.0375C75.11,40.82,76,39.9326,76,38.835C76,37.7426,75.11,36.855,74.0175,36.855z M32.5638,36.855
		c0.0075-0.1524,0.0075-0.2425,0.0075-0.2425V27.05c0-2.8224,0.6525-4.7275,1.9975-5.8c0.0475-0.0375,0.0975-0.0751,0.145-0.1199
		c0.865-0.625,2-0.93,3.4175-0.93c3.59,0,5.82,2.69,5.82,7.0174v9.3951c0,0,0,0.09,0.0075,0.2425H32.5638z"/>
</g>
</svg>
