<?xml version="1.0" encoding="utf-8"?>
<!-- Generator: Adobe Illustrator 19.0.0, SVG Export Plug-In . SVG Version: 6.00 Build 0)  -->
<svg version="1.1" id="XMLID_4_" xmlns="http://www.w3.org/2000/svg" xmlns:xlink="http://www.w3.org/1999/xlink" x="0px" y="0px"
	 viewBox="0 0 69.6112 56.9695" enable-background="new 0 0 69.6112 56.9695" xml:space="preserve">
<g id="users">
	<path fill="#747476" d="M51.1137,35.26c0.3574-0.73,0.2475-1.59-0.2975-2.195c-0.0525-0.0626-1.2099-1.4676-1.295-4.1275
		c2.3775-1.9275,3.7225-4.4975,3.7225-7.1851c0-3.5675-2.37-6.7274-5.9725-8.6301c0.0275-0.2948,0.045-0.5948,0.045-0.8974
		C47.3162,5.4825,40.0937,0,31.2187,0c-8.8775,0-16.0975,5.4825-16.0975,12.225c0,3.3174,1.765,6.4699,4.8175,8.745
		c-1.005,1.3275-2.4625,3.1425-3.695,4.29c-0.5975,0.555-0.7925,1.42-0.4975,2.1776c0.3,0.7599,1.03,1.2599,1.845,1.2599
		c0.1875,0,3.855-0.0475,9.1425-2.5175c2.205,3.5825,7.0075,6.0776,12.5675,6.0876c1.23,1.3925,4.0725,3.6224,9.87,4.0775
		c0.0525,0.0049,0.105,0.0049,0.1575,0.0049C50.0762,36.3499,50.7787,35.9375,51.1137,35.26z M29.6212,20.4201
		c-0.385-0.015-0.7775,0.0749-1.13,0.295c-1.06,0.665-2.0725,1.2151-3.025,1.68c-0.8625,0.4175-1.675,0.7675-2.4275,1.0475
		c0.6325-0.8325,1.105-1.4926,1.29-1.7526c0.075-0.0949,0.145-0.1974,0.205-0.3049c0.52-0.9625,0.155-2.1675-0.805-2.6875
		c-2.95-1.5999-4.6425-3.9575-4.6425-6.4725c0-4.4775,5.5525-8.26,12.1325-8.26c6.3075,0,11.675,3.4799,12.1025,7.715
		c0.02,0.1801,0.03,0.36,0.03,0.545c0,1.1626-0.375,2.2774-1.045,3.2899c-1.91,2.8951-6.2175,4.9701-11.0875,4.9701
		c-0.47,0-0.9475-0.0175-1.415-0.0551C29.7437,20.4201,29.6837,20.4225,29.6212,20.4201z M46.4388,26.295
		c-0.5075,0.345-0.825,0.91-0.865,1.5225c-0.085,1.5274,0.08,2.8424,0.355,3.9349c-2.965-0.9074-3.865-2.3624-3.895-2.4075
		c-0.3175-0.7025-0.9724-1.0675-1.7325-1.0675c-0.0475,0-0.0925,0-0.14,0.0052c-0.2725,0.015-0.54,0.0223-0.8225,0.0223
		c-3.95,0-7.4425-1.6174-9.0275-3.8799c0.3,0.015,0.605,0.0249,0.9075,0.0249c6.6575,0,12.385-3.0849,14.83-7.4699
		c1.97,1.205,3.2275,2.91,3.2275,4.7725C49.2762,23.4349,48.2712,25.0475,46.4388,26.295z"/>
	<path fill="#747476" d="M10.0739,42.4464c4.11,0,6.7651-3.0174,6.7651-7.6825c0-4.2024-2.7825-7.1375-6.7651-7.1375
		c-4.2325,0-6.9675,2.9926-6.9675,7.6276C3.1065,39.4215,6.0339,42.4464,10.0739,42.4464z M9.739,30.9215
		c2.3924,0,3.555,1.4276,3.555,4.36c0,2.42-1.1176,3.8651-2.9875,3.8651c-2.325,0-3.655-1.5875-3.655-4.3576
		C6.6515,32.404,7.8339,30.9215,9.739,30.9215z"/>
	<path fill="#747476" d="M59.8705,42.4464c4.1075,0,6.765-3.0174,6.765-7.6825c0-4.2024-2.7824-7.1375-6.765-7.1375
		c-4.235,0-6.97,2.9926-6.97,7.6276C52.9005,39.4215,55.8279,42.4464,59.8705,42.4464z M59.533,30.9215
		c2.3949,0,3.5574,1.4276,3.5574,4.36c0,2.42-1.1175,3.8651-2.99,3.8651c-2.325,0-3.655-1.5875-3.655-4.3576
		C56.4455,32.404,57.6305,30.9215,59.533,30.9215z"/>
	<path fill="#747476" d="M69.6062,54.6309c0-6.6849-3.875-10.5649-9.7-10.5649h-0.5375c-5.8276,0-9.7,3.88-9.7,10.5649
		l-0.0076,2.3376h1.5725c1.7025,0,2.295-1.19,2.5626-3.49c0.44-3.7576,2.725-5.7475,5.8424-5.7475
		c3.1126,0,5.4,1.9899,5.8376,5.7475c0.2675,2.3,0.8625,3.49,2.565,3.49h1.57L69.6062,54.6309z"/>
	<path fill="#747476" d="M10.24,44.0669H9.705c-5.83,0-9.7,3.8776-9.7,10.5652L0,56.9695h1.5675c1.705,0,2.2975-1.1923,2.565-3.4924
		c0.44-3.7549,2.725-5.7474,5.8425-5.7474c3.115,0,5.4,1.9925,5.8375,5.7474c0.2676,2.3001,0.8625,3.4924,2.565,3.4924h1.5701
		l-0.005-2.3373C19.9425,47.9445,16.0675,44.0669,10.24,44.0669z"/>
</g>
</svg>
