<?xml version="1.0" encoding="utf-8"?>
<!-- Generator: Adobe Illustrator 20.1.0, SVG Export Plug-In . SVG Version: 6.00 Build 0)  -->
<svg version="1.1" id="XMLID_1_" xmlns="http://www.w3.org/2000/svg" xmlns:xlink="http://www.w3.org/1999/xlink" x="0px" y="0px"
	 viewBox="0 0 700 700" enable-background="new 0 0 700 700" xml:space="preserve">
<g id="youtube">
	<g id="Lozenge">
		<g>
			<path fill="#1D1D1B" d="M668.509,219.8043c0,0-6.3516-44.8736-25.8398-64.6345c-24.717-25.9361-52.4226-26.0646-65.1277-27.5828
				C486.583,121,350.1411,121,350.1411,121h-0.2822c0,0-136.439,0-227.4004,6.587c-12.7061,1.5181-40.4016,1.6467-65.1277,27.5828
				c-19.4885,19.7609-25.8303,64.6345-25.8303,64.6345S25,272.5001,25,325.196v49.4025c0,52.6952,6.5005,105.3911,6.5005,105.3911
				s6.3418,44.8739,25.8303,64.6348c24.7261,25.9361,57.2053,25.1161,71.6716,27.8342c52.001,4.9955,220.998,6.5414,220.998,6.5414
				s136.5825-0.2061,227.541-6.7928c12.7051-1.5185,40.4106-1.6467,65.1277-27.5828
				c19.4883-19.7609,25.8398-64.6348,25.8398-64.6348S675,427.2937,675,374.5985V325.196
				C675,272.5001,668.509,219.8043,668.509,219.8043z M282.8953,434.465l-0.0298-182.9647l175.6328,91.8011L282.8953,434.465z"/>
		</g>
	</g>
	<rect fill="none" width="700" height="700"/>
</g>
</svg>
